<?xml version="1.0" encoding="UTF-8"?>
<svg id="_圖層_2" data-name="圖層 2" xmlns="http://www.w3.org/2000/svg" viewBox="0 0 1109.27 396.48">
  <defs>
    <style>
      .cls-1 {
        fill: #fff;
      }

      .cls-2 {
        fill: #29abe2;
      }
    </style>
  </defs>
  <g id="_圖層_2-2" data-name="圖層 2">
    <g>
      <path class="cls-1" d="M.04,103.98h12.77l9.23,35.13c.98,3.81,1.86,8.25,2.13,10.02h.18c.27-1.77.71-4.61,2.22-10.2l9.67-34.95h16.15l9.67,34.95c1.6,5.68,2.04,8.43,2.31,10.2h.18c.27-1.77.98-6.03,2.04-10.02l9.23-35.13h12.77l-17.65,60.5h-13.75l-11.36-42.32c-.89-3.28-1.24-5.15-1.42-7.63h-.18c-.18,2.48-.53,4.35-1.42,7.63l-11.36,42.32h-13.75L.04,103.98Z"/>
      <path class="cls-1" d="M92.48,109.21c0-4.17,3.46-7.45,7.63-7.45s7.63,3.28,7.63,7.45-3.46,7.27-7.63,7.27-7.63-3.19-7.63-7.27ZM93.98,122.79h12.24v41.7h-12.24v-41.7Z"/>
      <path class="cls-1" d="M135.32,121.81c12.95.09,19.96,8.07,19.96,19.34v23.33h-12.24v-22.44c0-5.85-2.57-9.49-7.72-9.58-5.15.09-7.72,3.73-7.72,9.58v22.44h-12.24v-23.33c0-11.27,7.01-19.25,19.96-19.34Z"/>
      <path class="cls-1" d="M194.4,158.18c-2.22,4.52-6.83,7.27-13.4,7.27-9.23,0-18.81-7.27-18.81-21.82s9.58-21.82,18.81-21.82c6.3,0,10.82,2.57,13.13,6.83v-24.66h12.24v60.5h-11.27l-.71-6.3ZM194.23,143.63c0-7.81-5.06-11.18-9.76-11.18-5.85,0-10.2,4.26-10.2,11.18s4.35,11.18,10.2,11.18c4.7,0,9.76-3.37,9.76-11.18Z"/>
      <path class="cls-1" d="M239.2,103.98h25.19c11.09,0,20.76,5.68,20.76,18.81s-11.71,17.48-18.81,17.57v.09c.89.35,3.19,2.22,4.7,3.9l18.01,20.14h-16.5l-20.76-24.13h-.18v24.13h-12.42v-60.5ZM262.62,130.06c5.5,0,9.94-1.95,9.94-7.27s-4.44-7.1-9.94-7.1h-11v14.37h11Z"/>
      <path class="cls-1" d="M292.6,109.21c0-4.17,3.46-7.45,7.63-7.45s7.63,3.28,7.63,7.45-3.46,7.27-7.63,7.27-7.63-3.19-7.63-7.27ZM294.11,122.79h12.24v41.7h-12.24v-41.7Z"/>
      <path class="cls-1" d="M311.23,122.79h12.77l6.56,19.69c.8,2.48,1.69,5.32,2.13,7.27h.18c.44-1.95,1.33-4.79,2.13-7.27l6.56-19.69h12.86l-15.79,41.7h-11.62l-15.79-41.7Z"/>
      <path class="cls-1" d="M356.39,143.63c0-12.42,8.87-21.82,21.47-21.82s21.29,9.4,21.29,21.82c0,1.69,0,2.31-.09,3.99h-31.32c1.33,5.32,5.06,7.98,10.2,7.98,4.7,0,7.19-1.15,8.87-3.73h11.09c-2.66,9.67-11.44,13.57-19.69,13.57-13.22,0-21.82-9.32-21.82-21.82ZM387.97,139.46c-.8-4.52-5.06-7.72-10.11-7.72-5.32,0-9.05,3.1-10.2,7.72h20.32Z"/>
      <path class="cls-1" d="M424.34,121.81c2.22,0,3.9.18,5.94.71v11c-1.24-.09-2.48-.09-3.02-.09-6.48,0-8.96,2.93-8.96,8.07v22.98h-12.24v-23.95c0-10.02,5.68-18.72,18.27-18.72Z"/>
      <path class="cls-1" d="M474.82,103.98h16.15l21.29,60.5h-13.04l-4.17-12.24h-24.31l-4.17,12.24h-13.04l21.29-60.5ZM491.85,141.42l-7.98-23.24c-.44-1.42-.71-2.4-.89-3.28h-.18c-.18.89-.44,1.86-.89,3.28l-7.98,23.24h17.92Z"/>
      <path class="cls-1" d="M519.35,103.98h12.42v60.5h-12.42v-60.5Z"/>
      <path class="cls-1" d="M561.22,150.64c0-7.63,3.55-11.62,12.42-16.94-4.35-4.7-7.63-10.47-7.63-14.9,0-9.49,7.19-15.79,18.01-15.79s18.01,5.5,18.01,14.9c0,5.68-3.9,11.44-10.82,16.32l-.8.53,8.43,8.07,5.32-7.19h13.84l-10.73,14.11-.53.71,14.64,14.02h-16.41l-5.85-5.77c-5.94,5.06-11.71,6.74-18.54,6.74-11.89,0-19.34-6.39-19.34-14.82ZM581.27,155.43c2.57,0,6.12-.35,10.38-4.08l-11.18-10.91-.27.18c-5.68,3.55-6.92,5.68-6.92,8.69,0,3.9,3.37,6.12,7.98,6.12ZM580.65,125.36l2.84,2.75.09-.09c4.61-2.75,7.27-5.41,7.27-9.94,0-3.73-2.93-5.68-6.74-5.68-4.08,0-6.92,2.22-6.92,5.77,0,3.02.89,4.7,3.46,7.19Z"/>
      <path class="cls-1" d="M648.69,103.98h40.54v11.53h-28.48v12.77h24.57v11.36h-24.57v13.31h28.48v11.53h-40.54v-60.5Z"/>
      <path class="cls-1" d="M727.82,158.18c-2.22,4.52-6.83,7.27-13.4,7.27-9.23,0-18.81-7.27-18.81-21.82s9.58-21.82,18.81-21.82c6.3,0,10.82,2.57,13.13,6.83v-24.66h12.24v60.5h-11.27l-.71-6.3ZM727.64,143.63c0-7.81-5.06-11.18-9.76-11.18-5.85,0-10.2,4.26-10.2,11.18s4.35,11.18,10.2,11.18c4.7,0,9.76-3.37,9.76-11.18Z"/>
      <path class="cls-1" d="M748.84,166.61h11.8c1.15,3.55,3.9,6.12,9.4,6.12,4.79,0,9.94-2.84,9.94-12.15v-2.22c-2.66,4.35-7.27,6.92-13.13,6.92-9.23,0-18.72-7.19-18.72-21.73s9.49-21.74,18.72-21.74c6.21,0,10.91,2.93,13.57,7.63l1.06-6.65h10.38v37.79c0,16.15-10.56,22.44-21.82,22.44-12.07,0-19.61-6.39-21.2-16.41ZM779.98,143.54c0-7.63-5.23-11.27-9.67-11.27-6.03,0-10.29,4.61-10.29,11.27s4.26,11.27,10.29,11.27c4.44,0,9.67-3.64,9.67-11.27Z"/>
      <path class="cls-1" d="M799.14,143.63c0-12.42,8.87-21.82,21.47-21.82s21.29,9.4,21.29,21.82c0,1.69,0,2.31-.09,3.99h-31.32c1.33,5.32,5.06,7.98,10.2,7.98,4.7,0,7.19-1.15,8.87-3.73h11.09c-2.66,9.67-11.44,13.57-19.69,13.57-13.22,0-21.82-9.32-21.82-21.82ZM830.72,139.46c-.8-4.52-5.06-7.72-10.11-7.72-5.32,0-9.05,3.1-10.2,7.72h20.32Z"/>
      <path class="cls-1" d="M870.99,103.98h39.83v11.53h-27.59v13.84h23.69v11.36h-23.69v23.78h-12.24v-60.5Z"/>
      <path class="cls-1" d="M911.53,143.63c0-12.42,9.32-21.82,22.53-21.82s22.53,9.4,22.53,21.82-9.32,21.82-22.53,21.82-22.53-9.4-22.53-21.82ZM944.54,143.63c0-6.65-4.35-11.27-10.47-11.27s-10.47,4.61-10.47,11.27,4.35,11.27,10.47,11.27,10.47-4.61,10.47-11.27Z"/>
      <path class="cls-1" d="M981.79,121.81c2.22,0,3.9.18,5.94.71v11c-1.24-.09-2.48-.09-3.02-.09-6.48,0-8.96,2.93-8.96,8.07v22.98h-12.24v-23.95c0-10.02,5.68-18.72,18.28-18.72Z"/>
      <path class="cls-1" d="M994.48,146.12v-23.33h12.24v22.44c0,5.85,2.57,9.49,7.54,9.58,5.41.09,7.72-3.55,7.72-9.49v-22.53h12.24v23.42c0,10.73-8.25,19.34-19.96,19.25-12.77-.09-19.78-8.07-19.78-19.34Z"/>
      <path class="cls-1" d="M1062.08,121.81c8.25,0,12.51,4.79,14.19,7.63h.18c1.69-2.84,5.94-7.63,14.19-7.63,12.33,0,18.63,7.36,18.63,19.34v23.33h-12.24v-22.44c0-5.85-2.31-9.58-7.28-9.58s-7.27,3.73-7.27,9.58v22.44h-12.24v-22.44c0-5.85-2.31-9.58-7.27-9.58s-7.28,3.73-7.28,9.58v22.44h-12.24v-23.33c0-11.98,6.3-19.34,18.63-19.34Z"/>
    </g>
    <g>
      <path class="cls-1" d="M69.01,369.04c3.31,2.9,7.24,7.07,9.01,9.9l-2.15,1.54c-.51-.89-1.23-1.88-2.08-2.94-19.49,1.09-21.47,1.16-22.8,1.64-.1-.55-.55-1.81-.82-2.49.75-.14,1.64-.89,2.77-2.01,1.23-1.09,5.19-5.39,7.85-9.63l2.49,1.13c-2.7,3.69-5.73,7.2-8.74,10.04l17.41-.85c-1.57-1.77-3.31-3.55-4.95-5.02l2.01-1.3ZM52.8,382.04h21.71v14.2h-2.66v-1.78h-16.49v1.84h-2.56v-14.27ZM55.36,384.47v7.54h16.49v-7.54h-16.49Z"/>
      <path class="cls-1" d="M103.67,387.91l.44,2.18c-4.88,2.12-10.17,4.33-14.1,5.87l-1.16-2.49c2.46-.85,5.97-2.15,9.66-3.58v-13.62h-8.64v-2.49h8.64v-7.99h2.59v23.11l2.56-.99ZM115.03,392.49c1.54,0,1.74-1.64,1.95-8.16.68.55,1.71,1.06,2.42,1.23-.27,7-.89,9.42-4.16,9.42h-4.57c-2.94,0-3.79-.99-3.79-4.54v-24.61h2.56v7.92h9.52v2.49h-9.52v14.23c0,1.71.24,2.01,1.54,2.01h4.06Z"/>
      <path class="cls-1" d="M155.22,377.3c-1.67,5.02-4.16,8.84-7.48,11.78,3.48,2.36,7.82,3.93,13.14,4.78-.55.55-1.26,1.67-1.6,2.39-5.6-.96-10.14-2.77-13.72-5.46-3.72,2.63-8.29,4.37-13.82,5.63-.27-.65-.99-1.88-1.47-2.49,5.33-1.02,9.73-2.56,13.21-4.88-3.14-2.97-5.46-6.83-7.1-11.54l2.39-.65c1.43,4.3,3.72,7.85,6.86,10.58,3.14-2.66,5.39-6.18,6.83-10.82l2.77.68ZM138.49,371.29h-7.65v-2.46h7.65v-3.62h2.49v3.62h4.03v2.46h-4.03v4.37h-2.49v-4.37ZM150.4,371.29h-4.1v-2.46h4.1v-3.62h2.49v3.62h7.58v2.46h-7.58v4.37h-2.49v-4.37Z"/>
      <path class="cls-1" d="M198.5,393.89c1.06,0,1.26-.34,1.37-2.39.48.34,1.4.68,2.05.79-.24,2.76-.96,3.52-3.17,3.52h-5.63c-3.07,0-3.86-.61-3.86-2.9v-6.42h-8.53v2.25h7.24v1.81h-7.24v2.9l7.3-.79c-.03.55-.03,1.37,0,1.84-8.43,1.06-9.52,1.26-10.21,1.6-.07-.58-.41-1.57-.72-2.01.55-.14,1.23-.38,1.23-1.5v-6.11h-2.53c-.34,3.38-1.16,7.17-3.17,10-.41-.48-1.43-1.3-1.91-1.57,2.56-3.62,2.87-8.64,2.87-12.25v-5.87h12.25c-.17-.38-.38-.79-.58-1.13v.17h-2.29v-4.47h-7.2v4.54h-2.22v-6.14h11.71v5.15l1.88-.61c.51.72,1.06,1.71,1.4,2.49h12.7v1.88h-9.08v1.84h8.16v5.97h-8.7v2.25h8.33v1.81h-8.33v2.36c0,.82.27.99,1.74.99h5.15ZM185.98,368.22h-13.55v-1.81h13.55v1.81ZM175.98,382.72c0,.65,0,1.3-.03,2.01h5.7v-2.49h-5.67v.48ZM175.98,378.66v1.84h5.67v-1.84h-5.67ZM179.83,375.8c-.51-.89-1.67-2.12-2.63-3l1.3-1.06c1.02.85,2.18,2.01,2.73,2.83l-1.4,1.23ZM189.83,378.66h-5.91v1.84h5.91v-1.84ZM189.83,384.74v-2.49h-5.91v2.49h5.91ZM201.34,368.22h-13.69v-1.81h13.69v1.81ZM198.06,375.83v-4.47h-7.41v4.54h-2.22v-6.14h11.95v6.08h-2.32ZM193.38,371.73c1.06.79,2.32,1.95,2.9,2.83l-1.33,1.23c-.58-.85-1.81-2.12-2.87-2.94l1.3-1.13ZM192.15,382.25v2.49h5.8v-2.49h-5.8Z"/>
      <path class="cls-1" d="M217.45,380.1c-1.3-.92-3.82-2.39-5.7-3.38l1.4-1.88c1.84.92,4.4,2.29,5.77,3.17l-1.47,2.08ZM212.37,394.33c1.64-2.66,3.93-7.17,5.6-11.03l1.98,1.43c-1.54,3.62-3.62,7.92-5.32,11.06l-2.25-1.47ZM214.42,365.79c1.77.96,4.27,2.39,5.53,3.31l-1.5,2.05c-1.23-.96-3.69-2.53-5.5-3.55l1.47-1.81ZM235.31,369.28v4.68h6.38v22.26h-2.53v-1.5h-15.09v1.6h-2.42v-22.36h5.87v-4.68h-7.1v-2.46h22.49v2.46h-7.61ZM239.16,392.45v-9.32h-3.48c-2.18,0-2.77-.58-2.77-2.73v-4.2h-3.04v1.23c0,2.39-.92,5.26-4.47,7.24-.27-.34-.85-.92-1.33-1.3v9.08h15.09ZM224.08,376.21v6.86c3.04-1.67,3.69-3.86,3.69-5.7v-1.16h-3.69ZM226.19,386.34h11.26v2.18h-11.26v-2.18ZM232.99,369.28h-3.21v4.68h3.21v-4.68ZM239.16,376.21h-4.16v4.13c0,.62.1.68.89.68h2.73c.27,0,.44,0,.55-.03v-4.78Z"/>
      <path class="cls-1" d="M283.51,369.31v2.46h-25.12v6.38c0,5.26-.51,13.04-3.55,18.19-.48-.41-1.6-1.16-2.22-1.43,2.9-4.92,3.21-11.84,3.21-16.76v-8.84h13.31c-.48-1.13-1.09-2.42-1.77-3.45l2.42-.61c.89,1.23,1.71,2.83,2.18,4.06h11.54ZM271.43,376.92h11.03v2.32h-11.03v4.57h9.39v12.01h-2.53v-1.3h-14.4v1.37h-2.46v-12.08h7.44v-10.92h2.56v4.03ZM278.29,386.17h-14.4v6.11h14.4v-6.11Z"/>
      <path class="cls-1" d="M324.58,391.97v2.49h-30.14v-2.49h8.29c.68-3.11,1.4-7.1,2.08-11.16h-6.35v-2.49h6.76c.41-2.53.79-5.05,1.09-7.34h-9.73v-2.49h25.53v2.49h-13.11c-.34,2.29-.72,4.85-1.13,7.34h8.6l.44-.14,1.95.21c-.24,3.75-.72,9.15-1.23,13.58h6.93ZM307.51,380.81c-.65,4.06-1.37,8.06-2.01,11.16h9.52c.38-3.62.79-7.99,1.06-11.16h-8.57Z"/>
      <path class="cls-1" d="M343.6,383.75c-.44-1.13-1.54-3.11-2.46-4.78v17.34h-2.32v-16.59c-.85,3.58-2.01,7.24-3.17,9.59-.27-.75-.89-1.88-1.26-2.49,1.6-2.94,3.31-8.46,4.06-12.73h-3.58v-2.39h3.96v-6.55h2.32v6.55h3.41v2.39h-3.41v1.78c.89,1.19,3.41,5.15,3.99,6.08l-1.54,1.81ZM361.79,387.98c-.68,1.6-1.64,2.94-3,4.13,2.56.82,4.95,1.71,6.72,2.53l-1.88,1.6c-1.71-.85-4.16-1.84-6.96-2.73-2.49,1.33-5.94,2.29-10.82,2.9-.17-.55-.58-1.43-.96-1.88,3.89-.44,6.76-1.06,8.98-1.95-2.25-.65-4.51-1.26-6.59-1.74.79-.82,1.71-1.81,2.56-2.87h-4.57v-2.01h6.11c.65-.85,1.23-1.71,1.71-2.53h-6.55v-5.53h7.71v-1.71h-7v-3.52h-1.98v-1.98h1.98v-3.38h7v-2.18h2.39v2.18h7v3.38h2.12v1.98h-2.12v3.52h-7v1.71h7.85v5.53h-8.77c-.48.82-1.06,1.67-1.67,2.53h6.11c.14-.48.27-.99.38-1.47h2.29c-.1.48-.24.99-.31,1.47h3.52v2.01h-4.23ZM348.82,381.73h5.43v-2.08h-5.43v2.08ZM349.47,369.04v1.88h4.78v-1.88h-4.78ZM354.25,374.5v-2.05h-4.78v2.05h4.78ZM352.54,387.98c-.58.68-1.09,1.33-1.6,1.91,1.74.41,3.58.89,5.43,1.43,1.37-.92,2.32-2.05,3-3.34h-6.83ZM356.64,369.04v1.88h4.71v-1.88h-4.71ZM361.35,374.5v-2.05h-4.71v2.05h4.71ZM356.64,379.65v2.08h5.46v-2.08h-5.46Z"/>
      <path class="cls-1" d="M420.34,376.48c-1.5,1.23-3.34,2.46-4.95,3.41,1.95,1.3,4.13,2.25,6.59,2.87-.51.51-1.23,1.43-1.54,2.08-2.97-.89-5.56-2.25-7.78-4.06v1.98h-5.46v2.53c0,.27,0,.51-.03.79h10.85v2.22h-11.3c-1.02,2.97-4.2,5.97-13.01,8.12-.31-.58-1.02-1.54-1.6-2.05,7.58-1.67,10.58-3.89,11.74-6.08h-9.97v-2.22h10.65c.03-.27.03-.55.03-.82v-2.49h-5.67v-1.57c-2.29,1.81-4.92,3.11-7.58,3.99-.27-.61-.85-1.5-1.33-1.95,2.42-.65,4.81-1.77,6.93-3.31-1.02-1.06-2.46-2.25-3.82-3.11l1.6-1.3c1.4.82,2.9,1.98,3.93,3,1.19-1.06,2.22-2.29,3-3.65h-9.01v-2.05h10.21l.44-.1,1.47.68c-1.09,2.9-2.9,5.29-5.12,7.2h12.83c-2.63-2.15-4.64-4.95-5.97-8.19l1.98-.55c.55,1.19,1.19,2.36,1.98,3.45,1.54-1.13,3.24-2.49,4.3-3.52l1.88,1.13c-1.54,1.3-3.45,2.66-5.09,3.72.68.75,1.47,1.5,2.32,2.15,1.57-1.02,3.45-2.46,4.54-3.48l1.95,1.16ZM398.46,369.69h-7.44v-2.15h7.44v-2.36h2.49v2.36h4.33v2.15h-4.33v2.32h-2.49v-2.32ZM410.71,369.69h-4.2v-2.15h4.2v-2.36h2.49v2.36h7.51v2.15h-7.51v2.32h-2.49v-2.32ZM408.7,389.04c3.55,1.5,8.4,3.82,10.89,5.39l-1.64,1.91c-2.36-1.6-7.17-4.03-10.82-5.67l1.57-1.64Z"/>
      <path class="cls-1" d="M435.81,369.75v8.6c0,5.26-.38,12.9-2.87,18.02-.38-.41-1.4-1.13-1.95-1.37,2.29-4.85,2.49-11.71,2.49-16.62v-10.72h12.9c-.34-.68-.78-1.33-1.23-1.91l2.15-.89c.68.82,1.4,1.91,1.88,2.8h12.83v2.08h-26.21ZM443.56,387.16c-.85.14-1.77.31-2.76.44v2.08h2.29v1.57h-2.29v2.01l2.53-.27.03,1.6c-2.59.34-5.12.68-7.27.89l-.24-1.74,3.21-.34v-2.15h-2.42v-1.57h2.42v-1.88c-.85.07-1.78.14-2.56.14-.07-.41-.31-1.02-.55-1.5,2.25-.17,4.95-.51,6.55-.89l1.06,1.6ZM446.19,373.44v22.97h-1.98v-12.25h-7.78v-1.74h2.01v-8.98h-1.57v-1.74h10.99v1.74h-1.67ZM444.21,373.44h-3.86v1.88h3.86v-1.88ZM440.35,378.8h3.86v-1.98h-3.86v1.98ZM444.21,382.42v-2.15h-3.86v2.15h3.86ZM446.87,394.36c.82-1.23,1.37-3.28,1.57-5.09l1.71.48c-.27,1.95-.72,4.13-1.64,5.46l-1.64-.85ZM462.3,386.51h-14.75v-1.84h14.75v1.84ZM455.81,370.71v2.05h5.87v1.88h-5.87v1.88h5.63v6.52h-13.04v-6.52h5.22v-1.88h-5.5v-1.88h5.5v-2.05h2.18ZM452.19,378.12h-2.08v3.31h2.08v-3.31ZM456.19,394.4c.65,0,.79-.21.85-2.29.41.31,1.13.58,1.71.72-.2,2.66-.75,3.35-2.29,3.35h-2.94c-2.05,0-2.56-.51-2.56-2.46v-4.68h1.91v4.68c0,.61.1.68.89.68h2.42ZM455.33,391.5c-.51-1.16-1.77-2.9-2.94-4.16l1.54-.82c1.16,1.19,2.49,2.87,2.97,4.03l-1.57.96ZM455.95,378.12h-2.22v3.31h2.22v-3.31ZM457.48,381.43h2.22v-3.31h-2.22v3.31ZM459.7,388.83c1.33,1.67,2.46,3.92,2.8,5.5l-1.81.72c-.34-1.54-1.43-3.86-2.7-5.56l1.71-.65Z"/>
    </g>
    <g>
      <path class="cls-1" d="M2.02,45.9l9.86-7.16c13.05-9.47,17.82-13.44,17.82-19.89,0-5.41-3.34-8.99-8.59-8.99-6.44,0-9.39,4.93-9.55,10.66H.42C.58,9.78,7.58,0,21.11,0c10.26,0,19.73,5.25,19.73,18.85,0,8.03-7.56,15.91-16.07,21.95l-5.49,3.9v.08h21.16v10.34H2.02v-9.23Z"/>
      <path class="cls-1" d="M47.04,28c0-16.55,7.48-28,20.52-28s20.52,11.45,20.52,28-7.48,28-20.52,28-20.52-11.45-20.52-28ZM77.1,28c0-10.42-2.86-17.66-9.54-17.66s-9.54,7.24-9.54,17.66,2.86,17.66,9.54,17.66,9.54-7.24,9.54-17.66Z"/>
      <path class="cls-1" d="M93.97,45.9l9.86-7.16c13.05-9.47,17.82-13.44,17.82-19.89,0-5.41-3.34-8.99-8.59-8.99-6.44,0-9.39,4.93-9.55,10.66h-11.14c.16-10.74,7.16-20.52,20.68-20.52,10.26,0,19.73,5.25,19.73,18.85,0,8.03-7.56,15.91-16.07,21.95l-5.49,3.9v.08h21.16v10.34h-38.42v-9.23Z"/>
      <path class="cls-1" d="M139.78,39.93h11.69c.8,3.34,3.9,6.52,8.99,6.52s9.15-3.58,9.15-9.31c0-6.05-4.06-8.99-8.51-8.99-3.5,0-5.81,1.59-7.72,3.66h-12.17l5.17-30.94h31.34v10.18h-22.75l-1.83,10.9h.16c1.83-1.27,4.69-2.94,11.14-2.94,7.64,0,16.15,5.81,16.15,17.26,0,13.92-10.02,19.73-20.04,19.73-11.45,0-19.25-5.49-20.76-16.07Z"/>
    </g>
    <path class="cls-1" d="M18.34,343.78c-10.13,0-18.34,8.21-18.34,18.34s18.34,29.92,18.34,29.92c0,0,18.34-19.79,18.34-29.92s-8.21-18.34-18.34-18.34ZM18.34,369.47c-4.05,0-7.34-3.29-7.34-7.34s3.29-7.34,7.34-7.34,7.34,3.29,7.34,7.34-3.29,7.34-7.34,7.34Z"/>
    <g>
      <g>
        <path class="cls-2" d="M2.17,263.26c0-16.55,7.48-28,20.52-28s20.52,11.45,20.52,28-7.48,28-20.52,28-20.52-11.45-20.52-28ZM32.24,263.26c0-10.42-2.86-17.66-9.54-17.66s-9.54,7.24-9.54,17.66,2.86,17.66,9.54,17.66,9.54-7.24,9.54-17.66Z"/>
        <path class="cls-2" d="M55.39,273.28c0-4.85,1.03-9.07,5.65-16.15l13.6-21h12.97l-15.11,20.76.16.16c.88-.56,2.39-1.11,4.61-1.11,7.95,0,16.15,6.04,16.15,16.86s-7.88,18.45-19.01,18.45-19.01-7.72-19.01-17.98ZM82.75,273.28c0-5.01-3.42-8.51-8.35-8.51s-8.35,3.5-8.35,8.51,3.42,8.35,8.35,8.35,8.35-3.42,8.35-8.35Z"/>
        <path class="cls-2" d="M124.51,236.13h8.11l-22.27,54.25h-8.11l22.27-54.25Z"/>
        <path class="cls-2" d="M152.43,248.78l-10.66,7.24v-10.98l13.12-8.91h8.59v54.25h-11.06v-41.6Z"/>
        <path class="cls-2" d="M201.75,246.55l-.08-.08h-25.06v-10.34h37.07v9.39l-22.11,44.86h-11.77l20.52-41.44c.56-1.11,1.03-1.83,1.43-2.39Z"/>
      </g>
      <g>
        <path class="cls-2" d="M267.03,246.4l-10.82,7.95v-9.23l12.33-8.91h7.16v54.17h-8.67v-43.99Z"/>
        <path class="cls-2" d="M290.97,274.87h9.23c.95,5.33,5.09,8.51,10.5,8.51,5.73,0,9.86-3.18,9.86-8.51,0-5.81-5.17-8.59-11.06-8.59h-4.14v-7.64h3.18c5.89,0,9.94-2.54,9.94-7.71s-3.58-7.72-8.11-7.72c-5.89,0-8.35,3.98-8.91,8.11h-8.91c.32-6.36,4.93-15.91,17.98-15.91,9.78,0,16.62,5.41,16.62,14.4,0,7.32-4.93,11.22-7.95,12.25v.16c4.22,1.11,10.02,5.09,10.02,13.76s-8.03,15.19-18.53,15.19c-12.17,0-19.17-7.4-19.73-16.31Z"/>
        <path class="cls-2" d="M341.24,251.85c0-3.1,2.47-5.57,5.65-5.57s5.65,2.47,5.65,5.57-2.47,5.49-5.65,5.49-5.65-2.39-5.65-5.49ZM341.24,279.69c0-3.1,2.47-5.57,5.65-5.57s5.65,2.47,5.65,5.57-2.47,5.49-5.65,5.49-5.65-2.39-5.65-5.49Z"/>
        <path class="cls-2" d="M364.23,274.87h9.23c.95,5.33,5.09,8.51,10.5,8.51,5.73,0,9.86-3.18,9.86-8.51,0-5.81-5.17-8.59-11.06-8.59h-4.14v-7.64h3.18c5.89,0,9.94-2.54,9.94-7.71s-3.58-7.72-8.11-7.72c-5.89,0-8.35,3.98-8.91,8.11h-8.91c.32-6.36,4.93-15.91,17.98-15.91,9.78,0,16.62,5.41,16.62,14.4,0,7.32-4.93,11.22-7.95,12.25v.16c4.22,1.11,10.02,5.09,10.02,13.76s-8.03,15.19-18.53,15.19c-12.17,0-19.17-7.4-19.73-16.31Z"/>
        <path class="cls-2" d="M415.69,263.34c0-16.54,7.24-27.92,19.97-27.92s19.97,11.38,19.97,27.92-7.24,27.84-19.97,27.84-19.97-11.38-19.97-27.84ZM447.03,263.34c0-11.77-3.5-19.89-11.37-19.89s-11.38,8.11-11.38,19.89,3.5,19.89,11.38,19.89,11.37-8.19,11.37-19.89Z"/>
        <path class="cls-2" d="M527.61,246.4l-10.82,7.95v-9.23l12.33-8.91h7.16v54.17h-8.67v-43.99Z"/>
        <path class="cls-2" d="M552.82,273.36c0-4.22,1.19-8.19,5.17-15.35l12.09-21.79h9.7l-12.89,21.08.16.16c1.59-.88,3.58-1.43,6.12-1.43,8.27,0,16.15,6.84,16.15,17.18s-7.88,17.98-18.22,17.98-18.29-7.72-18.29-17.82ZM580.82,273.36c0-5.81-4.22-10.1-9.7-10.1s-9.78,4.29-9.78,10.1,4.22,10.1,9.78,10.1,9.7-4.3,9.7-10.1Z"/>
        <path class="cls-2" d="M600.31,251.85c0-3.1,2.47-5.57,5.65-5.57s5.65,2.47,5.65,5.57-2.47,5.49-5.65,5.49-5.65-2.39-5.65-5.49ZM600.31,279.69c0-3.1,2.47-5.57,5.65-5.57s5.65,2.47,5.65,5.57-2.47,5.49-5.65,5.49-5.65-2.39-5.65-5.49Z"/>
        <path class="cls-2" d="M623.3,274.87h9.23c.95,5.33,5.09,8.51,10.5,8.51,5.73,0,9.86-3.18,9.86-8.51,0-5.81-5.17-8.59-11.06-8.59h-4.14v-7.64h3.18c5.89,0,9.94-2.54,9.94-7.71s-3.58-7.72-8.11-7.72c-5.89,0-8.35,3.98-8.91,8.11h-8.91c.32-6.36,4.93-15.91,17.98-15.91,9.78,0,16.62,5.41,16.62,14.4,0,7.32-4.93,11.22-7.95,12.25v.16c4.22,1.11,10.02,5.09,10.02,13.76s-8.03,15.19-18.53,15.19c-12.17,0-19.17-7.4-19.73-16.31Z"/>
        <path class="cls-2" d="M674.76,263.34c0-16.54,7.24-27.92,19.97-27.92s19.97,11.38,19.97,27.92-7.24,27.84-19.97,27.84-19.97-11.38-19.97-27.84ZM706.1,263.34c0-11.77-3.5-19.89-11.37-19.89s-11.38,8.11-11.38,19.89,3.5,19.89,11.38,19.89,11.37-8.19,11.37-19.89Z"/>
      </g>
      <polygon class="cls-2" points="498.94 263.4 475.31 249.76 475.31 277.04 498.94 263.4"/>
    </g>
  </g>
</svg>