<?xml version="1.0" encoding="UTF-8"?>
<svg id="_圖層_2" data-name="圖層 2" xmlns="http://www.w3.org/2000/svg" viewBox="0 0 1115.64 486.48">
  <defs>
    <style>
      .cls-1 {
        fill: #fff;
      }

      .cls-2 {
        fill: #29abe2;
      }
    </style>
  </defs>
  <g id="_圖層_2-2" data-name="圖層 2">
    <g>
      <path class="cls-1" d="M.04,103.98h12.77l9.23,35.13c.98,3.81,1.86,8.25,2.13,10.02h.18c.27-1.77.71-4.61,2.22-10.2l9.67-34.95h16.15l9.67,34.95c1.6,5.68,2.04,8.43,2.31,10.2h.18c.27-1.77.98-6.03,2.04-10.02l9.23-35.13h12.77l-17.65,60.5h-13.75l-11.36-42.32c-.89-3.28-1.24-5.15-1.42-7.63h-.18c-.18,2.48-.53,4.35-1.42,7.63l-11.36,42.32h-13.75L.04,103.98Z"/>
      <path class="cls-1" d="M92.48,109.21c0-4.17,3.46-7.45,7.63-7.45s7.63,3.28,7.63,7.45-3.46,7.27-7.63,7.27-7.63-3.19-7.63-7.27ZM93.98,122.79h12.24v41.7h-12.24v-41.7Z"/>
      <path class="cls-1" d="M135.32,121.81c12.95.09,19.96,8.07,19.96,19.34v23.33h-12.24v-22.44c0-5.85-2.57-9.49-7.72-9.58-5.15.09-7.72,3.73-7.72,9.58v22.44h-12.24v-23.33c0-11.27,7.01-19.25,19.96-19.34Z"/>
      <path class="cls-1" d="M194.4,158.18c-2.22,4.52-6.83,7.27-13.4,7.27-9.23,0-18.81-7.27-18.81-21.82s9.58-21.82,18.81-21.82c6.3,0,10.82,2.57,13.13,6.83v-24.66h12.24v60.5h-11.27l-.71-6.3ZM194.23,143.63c0-7.81-5.06-11.18-9.76-11.18-5.85,0-10.2,4.26-10.2,11.18s4.35,11.18,10.2,11.18c4.7,0,9.76-3.37,9.76-11.18Z"/>
      <path class="cls-1" d="M239.2,103.98h25.19c11.09,0,20.76,5.68,20.76,18.81s-11.71,17.48-18.81,17.57v.09c.89.35,3.19,2.22,4.7,3.9l18.01,20.14h-16.5l-20.76-24.13h-.18v24.13h-12.42v-60.5ZM262.62,130.06c5.5,0,9.94-1.95,9.94-7.27s-4.44-7.1-9.94-7.1h-11v14.37h11Z"/>
      <path class="cls-1" d="M292.6,109.21c0-4.17,3.46-7.45,7.63-7.45s7.63,3.28,7.63,7.45-3.46,7.27-7.63,7.27-7.63-3.19-7.63-7.27ZM294.11,122.79h12.24v41.7h-12.24v-41.7Z"/>
      <path class="cls-1" d="M311.23,122.79h12.77l6.56,19.69c.8,2.48,1.69,5.32,2.13,7.27h.18c.44-1.95,1.33-4.79,2.13-7.27l6.56-19.69h12.86l-15.79,41.7h-11.62l-15.79-41.7Z"/>
      <path class="cls-1" d="M356.39,143.63c0-12.42,8.87-21.82,21.47-21.82s21.29,9.4,21.29,21.82c0,1.69,0,2.31-.09,3.99h-31.32c1.33,5.32,5.06,7.98,10.2,7.98,4.7,0,7.19-1.15,8.87-3.73h11.09c-2.66,9.67-11.44,13.57-19.69,13.57-13.22,0-21.82-9.32-21.82-21.82ZM387.97,139.46c-.8-4.52-5.06-7.72-10.11-7.72-5.32,0-9.05,3.1-10.2,7.72h20.32Z"/>
      <path class="cls-1" d="M424.34,121.81c2.22,0,3.9.18,5.94.71v11c-1.24-.09-2.48-.09-3.02-.09-6.48,0-8.96,2.93-8.96,8.07v22.98h-12.24v-23.95c0-10.02,5.68-18.72,18.27-18.72Z"/>
      <path class="cls-1" d="M474.82,103.98h16.15l21.29,60.5h-13.04l-4.17-12.24h-24.31l-4.17,12.24h-13.04l21.29-60.5ZM491.85,141.42l-7.98-23.24c-.44-1.42-.71-2.4-.89-3.28h-.18c-.18.89-.44,1.86-.89,3.28l-7.98,23.24h17.92Z"/>
      <path class="cls-1" d="M519.35,103.98h12.42v60.5h-12.42v-60.5Z"/>
      <path class="cls-1" d="M561.22,150.64c0-7.63,3.55-11.62,12.42-16.94-4.35-4.7-7.63-10.47-7.63-14.9,0-9.49,7.19-15.79,18.01-15.79s18.01,5.5,18.01,14.9c0,5.68-3.9,11.44-10.82,16.32l-.8.53,8.43,8.07,5.32-7.19h13.84l-10.73,14.11-.53.71,14.64,14.02h-16.41l-5.85-5.77c-5.94,5.06-11.71,6.74-18.54,6.74-11.89,0-19.34-6.39-19.34-14.82ZM581.27,155.43c2.57,0,6.12-.35,10.38-4.08l-11.18-10.91-.27.18c-5.68,3.55-6.92,5.68-6.92,8.69,0,3.9,3.37,6.12,7.98,6.12ZM580.65,125.36l2.84,2.75.09-.09c4.61-2.75,7.27-5.41,7.27-9.94,0-3.73-2.93-5.68-6.74-5.68-4.08,0-6.92,2.22-6.92,5.77,0,3.02.89,4.7,3.46,7.19Z"/>
      <path class="cls-1" d="M648.69,103.98h40.54v11.53h-28.48v12.77h24.57v11.36h-24.57v13.31h28.48v11.53h-40.54v-60.5Z"/>
      <path class="cls-1" d="M727.82,158.18c-2.22,4.52-6.83,7.27-13.4,7.27-9.23,0-18.81-7.27-18.81-21.82s9.58-21.82,18.81-21.82c6.3,0,10.82,2.57,13.13,6.83v-24.66h12.24v60.5h-11.27l-.71-6.3ZM727.64,143.63c0-7.81-5.06-11.18-9.76-11.18-5.85,0-10.2,4.26-10.2,11.18s4.35,11.18,10.2,11.18c4.7,0,9.76-3.37,9.76-11.18Z"/>
      <path class="cls-1" d="M748.84,166.61h11.8c1.15,3.55,3.9,6.12,9.4,6.12,4.79,0,9.94-2.84,9.94-12.15v-2.22c-2.66,4.35-7.27,6.92-13.13,6.92-9.23,0-18.72-7.19-18.72-21.73s9.49-21.74,18.72-21.74c6.21,0,10.91,2.93,13.57,7.63l1.06-6.65h10.38v37.79c0,16.15-10.56,22.44-21.82,22.44-12.07,0-19.61-6.39-21.2-16.41ZM779.98,143.54c0-7.63-5.23-11.27-9.67-11.27-6.03,0-10.29,4.61-10.29,11.27s4.26,11.27,10.29,11.27c4.44,0,9.67-3.64,9.67-11.27Z"/>
      <path class="cls-1" d="M799.14,143.63c0-12.42,8.87-21.82,21.47-21.82s21.29,9.4,21.29,21.82c0,1.69,0,2.31-.09,3.99h-31.32c1.33,5.32,5.06,7.98,10.2,7.98,4.7,0,7.19-1.15,8.87-3.73h11.09c-2.66,9.67-11.44,13.57-19.69,13.57-13.22,0-21.82-9.32-21.82-21.82ZM830.72,139.46c-.8-4.52-5.06-7.72-10.11-7.72-5.32,0-9.05,3.1-10.2,7.72h20.32Z"/>
      <path class="cls-1" d="M870.99,103.98h39.83v11.53h-27.59v13.84h23.69v11.36h-23.69v23.78h-12.24v-60.5Z"/>
      <path class="cls-1" d="M911.53,143.63c0-12.42,9.32-21.82,22.53-21.82s22.53,9.4,22.53,21.82-9.32,21.82-22.53,21.82-22.53-9.4-22.53-21.82ZM944.54,143.63c0-6.65-4.35-11.27-10.47-11.27s-10.47,4.61-10.47,11.27,4.35,11.27,10.47,11.27,10.47-4.61,10.47-11.27Z"/>
      <path class="cls-1" d="M981.79,121.81c2.22,0,3.9.18,5.94.71v11c-1.24-.09-2.48-.09-3.02-.09-6.48,0-8.96,2.93-8.96,8.07v22.98h-12.24v-23.95c0-10.02,5.68-18.72,18.28-18.72Z"/>
      <path class="cls-1" d="M994.48,146.12v-23.33h12.24v22.44c0,5.85,2.57,9.49,7.54,9.58,5.41.09,7.72-3.55,7.72-9.49v-22.53h12.24v23.42c0,10.73-8.25,19.34-19.96,19.25-12.77-.09-19.78-8.07-19.78-19.34Z"/>
      <path class="cls-1" d="M1062.08,121.81c8.25,0,12.51,4.79,14.19,7.63h.18c1.69-2.84,5.94-7.63,14.19-7.63,12.33,0,18.63,7.36,18.63,19.34v23.33h-12.24v-22.44c0-5.85-2.31-9.58-7.28-9.58s-7.27,3.73-7.27,9.58v22.44h-12.24v-22.44c0-5.85-2.31-9.58-7.27-9.58s-7.28,3.73-7.28,9.58v22.44h-12.24v-23.33c0-11.98,6.3-19.34,18.63-19.34Z"/>
    </g>
    <g>
      <path class="cls-1" d="M2.02,45.9l9.86-7.16c13.05-9.47,17.82-13.44,17.82-19.89,0-5.41-3.34-8.99-8.59-8.99-6.44,0-9.39,4.93-9.55,10.66H.42C.58,9.78,7.58,0,21.11,0c10.26,0,19.73,5.25,19.73,18.85,0,8.03-7.56,15.91-16.07,21.95l-5.49,3.9v.08h21.16v10.34H2.02v-9.23Z"/>
      <path class="cls-1" d="M47.04,28c0-16.55,7.48-28,20.52-28s20.52,11.45,20.52,28-7.48,28-20.52,28-20.52-11.45-20.52-28ZM77.1,28c0-10.42-2.86-17.66-9.54-17.66s-9.54,7.24-9.54,17.66,2.86,17.66,9.54,17.66,9.54-7.24,9.54-17.66Z"/>
      <path class="cls-1" d="M93.97,45.9l9.86-7.16c13.05-9.47,17.82-13.44,17.82-19.89,0-5.41-3.34-8.99-8.59-8.99-6.44,0-9.39,4.93-9.55,10.66h-11.14c.16-10.74,7.16-20.52,20.68-20.52,10.26,0,19.73,5.25,19.73,18.85,0,8.03-7.56,15.91-16.07,21.95l-5.49,3.9v.08h21.16v10.34h-38.42v-9.23Z"/>
      <path class="cls-1" d="M139.78,39.93h11.69c.8,3.34,3.9,6.52,8.99,6.52s9.15-3.58,9.15-9.31c0-6.05-4.06-8.99-8.51-8.99-3.5,0-5.81,1.59-7.72,3.66h-12.17l5.17-30.94h31.34v10.18h-22.75l-1.83,10.9h.16c1.83-1.27,4.69-2.94,11.14-2.94,7.64,0,16.15,5.81,16.15,17.26,0,13.92-10.02,19.73-20.04,19.73-11.45,0-19.25-5.49-20.76-16.07Z"/>
    </g>
    <g>
      <g>
        <path class="cls-2" d="M2.17,353.26c0-16.55,7.48-28,20.52-28s20.52,11.45,20.52,28-7.48,28-20.52,28-20.52-11.45-20.52-28ZM32.24,353.26c0-10.42-2.86-17.66-9.54-17.66s-9.54,7.24-9.54,17.66,2.86,17.66,9.54,17.66,9.54-7.24,9.54-17.66Z"/>
        <path class="cls-2" d="M55.39,363.28c0-4.85,1.03-9.07,5.65-16.15l13.6-21h12.97l-15.11,20.76.16.16c.88-.56,2.39-1.11,4.61-1.11,7.95,0,16.15,6.04,16.15,16.86s-7.88,18.45-19.01,18.45-19.01-7.72-19.01-17.98ZM82.75,363.28c0-5.01-3.42-8.51-8.35-8.51s-8.35,3.5-8.35,8.51,3.42,8.35,8.35,8.35,8.35-3.42,8.35-8.35Z"/>
        <path class="cls-2" d="M124.51,326.13h8.11l-22.27,54.25h-8.11l22.27-54.25Z"/>
        <path class="cls-2" d="M152.43,338.78l-10.66,7.24v-10.98l13.12-8.91h8.59v54.25h-11.06v-41.6Z"/>
        <path class="cls-2" d="M201.75,336.55l-.08-.08h-25.06v-10.34h37.07v9.39l-22.11,44.86h-11.77l20.52-41.44c.56-1.11,1.03-1.83,1.43-2.39Z"/>
      </g>
      <g>
        <path class="cls-1" d="M69.01,459.04c3.31,2.9,7.24,7.07,9.01,9.9l-2.15,1.54c-.51-.89-1.23-1.88-2.08-2.94-19.49,1.09-21.47,1.16-22.8,1.64-.1-.55-.55-1.81-.82-2.49.75-.14,1.64-.89,2.77-2.01,1.23-1.09,5.19-5.39,7.85-9.63l2.49,1.13c-2.7,3.69-5.73,7.2-8.74,10.04l17.41-.85c-1.57-1.77-3.31-3.55-4.95-5.02l2.01-1.3ZM52.8,472.04h21.71v14.2h-2.66v-1.78h-16.49v1.84h-2.56v-14.27ZM55.36,474.47v7.54h16.49v-7.54h-16.49Z"/>
        <path class="cls-1" d="M103.67,477.91l.44,2.18c-4.88,2.12-10.17,4.33-14.1,5.87l-1.16-2.49c2.46-.85,5.97-2.15,9.66-3.58v-13.62h-8.64v-2.49h8.64v-7.99h2.59v23.11l2.56-.99ZM115.03,482.49c1.54,0,1.74-1.64,1.95-8.16.68.55,1.71,1.06,2.42,1.23-.27,7-.89,9.42-4.16,9.42h-4.57c-2.94,0-3.79-.99-3.79-4.54v-24.61h2.56v7.92h9.52v2.49h-9.52v14.23c0,1.71.24,2.01,1.54,2.01h4.06Z"/>
        <path class="cls-1" d="M155.22,467.3c-1.67,5.02-4.16,8.84-7.48,11.78,3.48,2.36,7.82,3.93,13.14,4.78-.55.55-1.26,1.67-1.6,2.39-5.6-.96-10.14-2.77-13.72-5.46-3.72,2.63-8.29,4.37-13.82,5.63-.27-.65-.99-1.88-1.47-2.49,5.33-1.02,9.73-2.56,13.21-4.88-3.14-2.97-5.46-6.83-7.1-11.54l2.39-.65c1.43,4.3,3.72,7.85,6.86,10.58,3.14-2.66,5.39-6.18,6.83-10.82l2.77.68ZM138.49,461.29h-7.65v-2.46h7.65v-3.62h2.49v3.62h4.03v2.46h-4.03v4.37h-2.49v-4.37ZM150.4,461.29h-4.1v-2.46h4.1v-3.62h2.49v3.62h7.58v2.46h-7.58v4.37h-2.49v-4.37Z"/>
        <path class="cls-1" d="M198.5,483.89c1.06,0,1.26-.34,1.37-2.39.48.34,1.4.68,2.05.79-.24,2.76-.96,3.52-3.17,3.52h-5.63c-3.07,0-3.86-.61-3.86-2.9v-6.42h-8.53v2.25h7.24v1.81h-7.24v2.9l7.3-.79c-.03.55-.03,1.37,0,1.84-8.43,1.06-9.52,1.26-10.21,1.6-.07-.58-.41-1.57-.72-2.01.55-.14,1.23-.38,1.23-1.5v-6.11h-2.53c-.34,3.38-1.16,7.17-3.17,10-.41-.48-1.43-1.3-1.91-1.57,2.56-3.62,2.87-8.64,2.87-12.25v-5.87h12.25c-.17-.38-.38-.79-.58-1.13v.17h-2.29v-4.47h-7.2v4.54h-2.22v-6.14h11.71v5.15l1.88-.61c.51.72,1.06,1.71,1.4,2.49h12.7v1.88h-9.08v1.84h8.16v5.97h-8.7v2.25h8.33v1.81h-8.33v2.36c0,.82.27.99,1.74.99h5.15ZM185.98,458.22h-13.55v-1.81h13.55v1.81ZM175.98,472.72c0,.65,0,1.3-.03,2.01h5.7v-2.49h-5.67v.48ZM175.98,468.66v1.84h5.67v-1.84h-5.67ZM179.83,465.8c-.51-.89-1.67-2.12-2.63-3l1.3-1.06c1.02.85,2.18,2.01,2.73,2.83l-1.4,1.23ZM189.83,468.66h-5.91v1.84h5.91v-1.84ZM189.83,474.74v-2.49h-5.91v2.49h5.91ZM201.34,458.22h-13.69v-1.81h13.69v1.81ZM198.06,465.83v-4.47h-7.41v4.54h-2.22v-6.14h11.95v6.08h-2.32ZM193.38,461.73c1.06.79,2.32,1.95,2.9,2.83l-1.33,1.23c-.58-.85-1.81-2.12-2.87-2.94l1.3-1.13ZM192.15,472.25v2.49h5.8v-2.49h-5.8Z"/>
        <path class="cls-1" d="M217.45,470.1c-1.3-.92-3.82-2.39-5.7-3.38l1.4-1.88c1.84.92,4.4,2.29,5.77,3.17l-1.47,2.08ZM212.37,484.33c1.64-2.66,3.93-7.17,5.6-11.03l1.98,1.43c-1.54,3.62-3.62,7.92-5.32,11.06l-2.25-1.47ZM214.42,455.79c1.77.96,4.27,2.39,5.53,3.31l-1.5,2.05c-1.23-.96-3.69-2.53-5.5-3.55l1.47-1.81ZM235.31,459.28v4.68h6.38v22.26h-2.53v-1.5h-15.09v1.6h-2.42v-22.36h5.87v-4.68h-7.1v-2.46h22.49v2.46h-7.61ZM239.16,482.45v-9.32h-3.48c-2.18,0-2.77-.58-2.77-2.73v-4.2h-3.04v1.23c0,2.39-.92,5.26-4.47,7.24-.27-.34-.85-.92-1.33-1.3v9.08h15.09ZM224.08,466.21v6.86c3.04-1.67,3.69-3.86,3.69-5.7v-1.16h-3.69ZM226.19,476.34h11.26v2.18h-11.26v-2.18ZM232.99,459.28h-3.21v4.68h3.21v-4.68ZM239.16,466.21h-4.16v4.13c0,.62.1.68.89.68h2.73c.27,0,.44,0,.55-.03v-4.78Z"/>
        <path class="cls-1" d="M283.51,459.31v2.46h-25.12v6.38c0,5.26-.51,13.04-3.55,18.19-.48-.41-1.6-1.16-2.22-1.43,2.9-4.92,3.21-11.84,3.21-16.76v-8.84h13.31c-.48-1.13-1.09-2.42-1.77-3.45l2.42-.61c.89,1.23,1.71,2.83,2.18,4.06h11.54ZM271.43,466.92h11.03v2.32h-11.03v4.57h9.39v12.01h-2.53v-1.3h-14.4v1.37h-2.46v-12.08h7.44v-10.92h2.56v4.03ZM278.29,476.17h-14.4v6.11h14.4v-6.11Z"/>
        <path class="cls-1" d="M324.58,481.97v2.49h-30.14v-2.49h8.29c.68-3.11,1.4-7.1,2.08-11.16h-6.35v-2.49h6.76c.41-2.53.79-5.05,1.09-7.34h-9.73v-2.49h25.53v2.49h-13.11c-.34,2.29-.72,4.85-1.13,7.34h8.6l.44-.14,1.95.21c-.24,3.75-.72,9.15-1.23,13.58h6.93ZM307.51,470.81c-.65,4.06-1.37,8.06-2.01,11.16h9.52c.38-3.62.79-7.99,1.06-11.16h-8.57Z"/>
        <path class="cls-1" d="M343.6,473.75c-.44-1.13-1.54-3.11-2.46-4.78v17.34h-2.32v-16.59c-.85,3.58-2.01,7.24-3.17,9.59-.27-.75-.89-1.88-1.26-2.49,1.6-2.94,3.31-8.46,4.06-12.73h-3.58v-2.39h3.96v-6.55h2.32v6.55h3.41v2.39h-3.41v1.78c.89,1.19,3.41,5.15,3.99,6.08l-1.54,1.81ZM361.79,477.98c-.68,1.6-1.64,2.94-3,4.13,2.56.82,4.95,1.71,6.72,2.53l-1.88,1.6c-1.71-.85-4.16-1.84-6.96-2.73-2.49,1.33-5.94,2.29-10.82,2.9-.17-.55-.58-1.43-.96-1.88,3.89-.44,6.76-1.06,8.98-1.95-2.25-.65-4.51-1.26-6.59-1.74.79-.82,1.71-1.81,2.56-2.87h-4.57v-2.01h6.11c.65-.85,1.23-1.71,1.71-2.53h-6.55v-5.53h7.71v-1.71h-7v-3.52h-1.98v-1.98h1.98v-3.38h7v-2.18h2.39v2.18h7v3.38h2.12v1.98h-2.12v3.52h-7v1.71h7.85v5.53h-8.77c-.48.82-1.06,1.67-1.67,2.53h6.11c.14-.48.27-.99.38-1.47h2.29c-.1.48-.24.99-.31,1.47h3.52v2.01h-4.23ZM348.82,471.73h5.43v-2.08h-5.43v2.08ZM349.47,459.04v1.88h4.78v-1.88h-4.78ZM354.25,464.5v-2.05h-4.78v2.05h4.78ZM352.54,477.98c-.58.68-1.09,1.33-1.6,1.91,1.74.41,3.58.89,5.43,1.43,1.37-.92,2.32-2.05,3-3.34h-6.83ZM356.64,459.04v1.88h4.71v-1.88h-4.71ZM361.35,464.5v-2.05h-4.71v2.05h4.71ZM356.64,469.65v2.08h5.46v-2.08h-5.46Z"/>
        <path class="cls-1" d="M420.34,466.48c-1.5,1.23-3.34,2.46-4.95,3.41,1.95,1.3,4.13,2.25,6.59,2.87-.51.51-1.23,1.43-1.54,2.08-2.97-.89-5.56-2.25-7.78-4.06v1.98h-5.46v2.53c0,.27,0,.51-.03.79h10.85v2.22h-11.3c-1.02,2.97-4.2,5.97-13.01,8.12-.31-.58-1.02-1.54-1.6-2.05,7.58-1.67,10.58-3.89,11.74-6.08h-9.97v-2.22h10.65c.03-.27.03-.55.03-.82v-2.49h-5.67v-1.57c-2.29,1.81-4.92,3.11-7.58,3.99-.27-.61-.85-1.5-1.33-1.95,2.42-.65,4.81-1.77,6.93-3.31-1.02-1.06-2.46-2.25-3.82-3.11l1.6-1.3c1.4.82,2.9,1.98,3.93,3,1.19-1.06,2.22-2.29,3-3.65h-9.01v-2.05h10.21l.44-.1,1.47.68c-1.09,2.9-2.9,5.29-5.12,7.2h12.83c-2.63-2.15-4.64-4.95-5.97-8.19l1.98-.55c.55,1.19,1.19,2.36,1.98,3.45,1.54-1.13,3.24-2.49,4.3-3.52l1.88,1.13c-1.54,1.3-3.45,2.66-5.09,3.72.68.75,1.47,1.5,2.32,2.15,1.57-1.02,3.45-2.46,4.54-3.48l1.95,1.16ZM398.46,459.69h-7.44v-2.15h7.44v-2.36h2.49v2.36h4.33v2.15h-4.33v2.32h-2.49v-2.32ZM410.71,459.69h-4.2v-2.15h4.2v-2.36h2.49v2.36h7.51v2.15h-7.51v2.32h-2.49v-2.32ZM408.7,479.04c3.55,1.5,8.4,3.82,10.89,5.39l-1.64,1.91c-2.36-1.6-7.17-4.03-10.82-5.67l1.57-1.64Z"/>
        <path class="cls-1" d="M435.81,459.75v8.6c0,5.26-.38,12.9-2.87,18.02-.38-.41-1.4-1.13-1.95-1.37,2.29-4.85,2.49-11.71,2.49-16.62v-10.72h12.9c-.34-.68-.78-1.33-1.23-1.91l2.15-.89c.68.82,1.4,1.91,1.88,2.8h12.83v2.08h-26.21ZM443.56,477.16c-.85.14-1.77.31-2.76.44v2.08h2.29v1.57h-2.29v2.01l2.53-.27.03,1.6c-2.59.34-5.12.68-7.27.89l-.24-1.74,3.21-.34v-2.15h-2.42v-1.57h2.42v-1.88c-.85.07-1.78.14-2.56.14-.07-.41-.31-1.02-.55-1.5,2.25-.17,4.95-.51,6.55-.89l1.06,1.6ZM446.19,463.44v22.97h-1.98v-12.25h-7.78v-1.74h2.01v-8.98h-1.57v-1.74h10.99v1.74h-1.67ZM444.21,463.44h-3.86v1.88h3.86v-1.88ZM440.35,468.8h3.86v-1.98h-3.86v1.98ZM444.21,472.42v-2.15h-3.86v2.15h3.86ZM446.87,484.36c.82-1.23,1.37-3.28,1.57-5.09l1.71.48c-.27,1.95-.72,4.13-1.64,5.46l-1.64-.85ZM462.3,476.51h-14.75v-1.84h14.75v1.84ZM455.81,460.71v2.05h5.87v1.88h-5.87v1.88h5.63v6.52h-13.04v-6.52h5.22v-1.88h-5.5v-1.88h5.5v-2.05h2.18ZM452.19,468.12h-2.08v3.31h2.08v-3.31ZM456.19,484.4c.65,0,.79-.21.85-2.29.41.31,1.13.58,1.71.72-.2,2.66-.75,3.35-2.29,3.35h-2.94c-2.05,0-2.56-.51-2.56-2.46v-4.68h1.91v4.68c0,.61.1.68.89.68h2.42ZM455.33,481.5c-.51-1.16-1.77-2.9-2.94-4.16l1.54-.82c1.16,1.19,2.49,2.87,2.97,4.03l-1.57.96ZM455.95,468.12h-2.22v3.31h2.22v-3.31ZM457.48,471.43h2.22v-3.31h-2.22v3.31ZM459.7,478.83c1.33,1.67,2.46,3.92,2.8,5.5l-1.81.72c-.34-1.54-1.43-3.86-2.7-5.56l1.71-.65Z"/>
      </g>
      <path class="cls-1" d="M18.34,433.78c-10.13,0-18.34,8.21-18.34,18.34s18.34,29.92,18.34,29.92c0,0,18.34-19.79,18.34-29.92s-8.21-18.34-18.34-18.34ZM18.34,459.47c-4.05,0-7.34-3.29-7.34-7.34s3.29-7.34,7.34-7.34,7.34,3.29,7.34,7.34-3.29,7.34-7.34,7.34Z"/>
      <g>
        <g>
          <path class="cls-2" d="M267.03,336.45l-10.82,7.95v-9.23l12.33-8.91h7.16v54.17h-8.67v-43.99Z"/>
          <path class="cls-2" d="M290.97,364.92h9.23c.95,5.33,5.09,8.51,10.5,8.51,5.73,0,9.86-3.18,9.86-8.51,0-5.81-5.17-8.59-11.06-8.59h-4.14v-7.64h3.18c5.89,0,9.94-2.54,9.94-7.71s-3.58-7.72-8.11-7.72c-5.89,0-8.35,3.98-8.91,8.11h-8.91c.32-6.36,4.93-15.91,17.98-15.91,9.78,0,16.62,5.41,16.62,14.4,0,7.32-4.93,11.22-7.95,12.25v.16c4.22,1.11,10.02,5.09,10.02,13.76s-8.03,15.19-18.53,15.19c-12.17,0-19.17-7.4-19.73-16.31Z"/>
          <path class="cls-2" d="M341.24,341.9c0-3.1,2.47-5.57,5.65-5.57s5.65,2.47,5.65,5.57-2.47,5.49-5.65,5.49-5.65-2.39-5.65-5.49ZM341.24,369.74c0-3.1,2.47-5.57,5.65-5.57s5.65,2.47,5.65,5.57-2.47,5.49-5.65,5.49-5.65-2.39-5.65-5.49Z"/>
          <path class="cls-2" d="M364.23,364.92h9.23c.95,5.33,5.09,8.51,10.5,8.51,5.73,0,9.86-3.18,9.86-8.51,0-5.81-5.17-8.59-11.06-8.59h-4.14v-7.64h3.18c5.89,0,9.94-2.54,9.94-7.71s-3.58-7.72-8.11-7.72c-5.89,0-8.35,3.98-8.91,8.11h-8.91c.32-6.36,4.93-15.91,17.98-15.91,9.78,0,16.62,5.41,16.62,14.4,0,7.32-4.93,11.22-7.95,12.25v.16c4.22,1.11,10.02,5.09,10.02,13.76s-8.03,15.19-18.53,15.19c-12.17,0-19.17-7.4-19.73-16.31Z"/>
          <path class="cls-2" d="M415.69,353.39c0-16.54,7.24-27.92,19.97-27.92s19.97,11.38,19.97,27.92-7.24,27.84-19.97,27.84-19.97-11.38-19.97-27.84ZM447.03,353.39c0-11.77-3.5-19.89-11.37-19.89s-11.38,8.11-11.38,19.89,3.5,19.89,11.38,19.89,11.37-8.19,11.37-19.89Z"/>
          <path class="cls-2" d="M527.61,336.45l-10.82,7.95v-9.23l12.33-8.91h7.16v54.17h-8.67v-43.99Z"/>
          <path class="cls-2" d="M552.82,363.41c0-4.22,1.19-8.19,5.17-15.35l12.09-21.79h9.7l-12.89,21.08.16.16c1.59-.88,3.58-1.43,6.12-1.43,8.27,0,16.15,6.84,16.15,17.18s-7.88,17.98-18.22,17.98-18.29-7.72-18.29-17.82ZM580.82,363.41c0-5.81-4.22-10.1-9.7-10.1s-9.78,4.29-9.78,10.1,4.22,10.1,9.78,10.1,9.7-4.3,9.7-10.1Z"/>
          <path class="cls-2" d="M600.31,341.9c0-3.1,2.47-5.57,5.65-5.57s5.65,2.47,5.65,5.57-2.47,5.49-5.65,5.49-5.65-2.39-5.65-5.49ZM600.31,369.74c0-3.1,2.47-5.57,5.65-5.57s5.65,2.47,5.65,5.57-2.47,5.49-5.65,5.49-5.65-2.39-5.65-5.49Z"/>
          <path class="cls-2" d="M623.3,364.92h9.23c.95,5.33,5.09,8.51,10.5,8.51,5.73,0,9.86-3.18,9.86-8.51,0-5.81-5.17-8.59-11.06-8.59h-4.14v-7.64h3.18c5.89,0,9.94-2.54,9.94-7.71s-3.58-7.72-8.11-7.72c-5.89,0-8.35,3.98-8.91,8.11h-8.91c.32-6.36,4.93-15.91,17.98-15.91,9.78,0,16.62,5.41,16.62,14.4,0,7.32-4.93,11.22-7.95,12.25v.16c4.22,1.11,10.02,5.09,10.02,13.76s-8.03,15.19-18.53,15.19c-12.17,0-19.17-7.4-19.73-16.31Z"/>
          <path class="cls-2" d="M674.76,353.39c0-16.54,7.24-27.92,19.97-27.92s19.97,11.38,19.97,27.92-7.24,27.84-19.97,27.84-19.97-11.38-19.97-27.84ZM706.1,353.39c0-11.77-3.5-19.89-11.37-19.89s-11.38,8.11-11.38,19.89,3.5,19.89,11.38,19.89,11.37-8.19,11.37-19.89Z"/>
        </g>
        <polygon class="cls-2" points="498.94 353.35 475.31 339.71 475.31 366.99 498.94 353.35"/>
      </g>
    </g>
    <g>
      <path class="cls-1" d="M1.42,240.58h43.25v3.55H1.42v-3.55ZM2.33,216.25h41.47v10.13h-4.27v-7.15H6.41v7.15H2.33v-10.13ZM5.3,210.68h35.33v3.36H5.3v-3.36ZM7.37,253.45c-.06-.32-.18-.74-.36-1.27-.18-.53-.35-1.07-.53-1.63-.18-.56-.36-1.03-.55-1.42.42-.06.86-.22,1.32-.48.46-.26.97-.58,1.51-.96.35-.26.94-.7,1.75-1.34.82-.64,1.7-1.41,2.64-2.3.94-.9,1.82-1.84,2.62-2.83l4.7,1.63c-1.63,1.6-3.36,3.16-5.18,4.68-1.82,1.52-3.58,2.76-5.28,3.72v.05c-.51.29-.94.54-1.3.74-.35.21-.66.44-.94.7-.27.26-.41.5-.41.72ZM6.02,229.98c1.6-.45,3.51-1.03,5.74-1.75,2.22-.72,4.49-1.45,6.79-2.18l.53,3.02c-1.98.8-3.97,1.59-5.95,2.38-1.98.79-3.82,1.5-5.52,2.14l-1.58-3.6ZM6.98,234.44h32.11v3.41H6.98v-3.41ZM7.37,253.45v-2.98l2.69-1.39,27.07-.91c.06.54.16,1.15.29,1.82.13.67.26,1.22.38,1.63-4.32.19-8.03.35-11.14.48-3.1.13-5.73.24-7.87.34-2.14.1-3.89.18-5.23.26-1.34.08-2.42.15-3.22.22-.8.06-1.42.14-1.85.22-.43.08-.81.18-1.13.31ZM7.8,222.34l1.68-2.5c1.02.29,2.12.62,3.29,1.01,1.17.38,2.3.79,3.38,1.2,1.09.42,1.98.78,2.69,1.1l-1.63,2.83c-.7-.35-1.6-.74-2.69-1.18-1.09-.43-2.22-.87-3.38-1.32-1.17-.45-2.28-.83-3.34-1.15ZM20.71,212.02h4.46v20.3h-4.46v-20.3ZM36.55,219.94l2.06,2.83c-.99.45-2.1.88-3.34,1.3-1.23.42-2.45.79-3.65,1.1-1.2.32-2.3.61-3.29.86l-1.68-2.54c.99-.26,2.09-.59,3.29-1.01,1.2-.42,2.38-.85,3.55-1.3,1.17-.45,2.18-.86,3.05-1.25ZM26.81,228.87l1.44-2.78c1.28.35,2.67.78,4.18,1.27,1.5.5,2.94.99,4.32,1.49,1.38.5,2.51.98,3.41,1.46l-1.39,3.12c-.9-.48-2.03-.99-3.41-1.54-1.38-.54-2.82-1.09-4.32-1.63-1.5-.54-2.91-1.01-4.22-1.39ZM28.63,245.1l3.74-1.73c1.15.83,2.38,1.78,3.67,2.83,1.3,1.06,2.53,2.1,3.7,3.14,1.17,1.04,2.12,1.98,2.86,2.81l-4.03,1.92c-.67-.83-1.57-1.78-2.69-2.83-1.12-1.06-2.32-2.13-3.6-3.22-1.28-1.09-2.5-2.06-3.65-2.93Z"/>
      <path class="cls-1" d="M52.87,211.74h4.51v13.78c0,1.98-.06,4.15-.17,6.5-.11,2.35-.34,4.77-.7,7.25-.35,2.48-.86,4.89-1.51,7.22-.66,2.34-1.54,4.46-2.66,6.38-.29-.22-.67-.49-1.15-.79-.48-.3-.97-.6-1.46-.89-.5-.29-.94-.48-1.32-.58,1.02-1.86,1.84-3.85,2.45-5.98.61-2.13,1.06-4.31,1.34-6.55.29-2.24.47-4.43.55-6.58.08-2.14.12-4.14.12-6v-13.78ZM55.56,211.74h36.91v4.18h-36.91v-4.18ZM64.54,240.25l4.27,1.44c-.77,1.15-1.64,2.36-2.62,3.62-.98,1.26-1.96,2.47-2.95,3.62-.99,1.15-1.92,2.16-2.78,3.02-.29-.26-.66-.54-1.13-.84-.46-.3-.94-.61-1.42-.91-.48-.3-.91-.55-1.3-.74,1.38-1.18,2.79-2.62,4.25-4.3,1.46-1.68,2.68-3.32,3.67-4.92ZM61.22,220.23h27.65v18.05h-27.65v-18.05ZM65.64,223.74v3.84h18.58v-3.84h-18.58ZM65.64,230.84v3.94h18.58v-3.94h-18.58ZM72.74,235.54h4.37v13.63c0,1.09-.14,1.95-.41,2.59-.27.64-.81,1.12-1.61,1.44-.77.32-1.78.5-3.05.55-1.26.05-2.78.07-4.54.07-.1-.58-.27-1.24-.53-1.99-.26-.75-.53-1.42-.82-1.99,1.25.03,2.41.05,3.48.05h2.14c.38-.03.64-.1.77-.22.13-.11.19-.31.19-.6v-13.54ZM71.93,216.2l5.38.72c-.64,1.12-1.29,2.19-1.94,3.22-.66,1.02-1.26,1.9-1.8,2.64l-4.18-.86c.48-.83.96-1.78,1.44-2.83.48-1.06.85-2.02,1.1-2.88ZM80.42,242.17l3.6-1.92c.93.99,1.93,2.07,3,3.24,1.07,1.17,2.1,2.32,3.1,3.46.99,1.14,1.81,2.12,2.45,2.95l-3.89,2.3c-.58-.86-1.34-1.87-2.28-3.02s-1.94-2.34-3-3.58c-1.06-1.23-2.05-2.38-2.98-3.43Z"/>
      <path class="cls-1" d="M105.82,210.01l4.7,1.06c-.7,2.46-1.54,4.89-2.52,7.27-.98,2.38-2.04,4.59-3.19,6.62s-2.35,3.82-3.6,5.35c-.32-.26-.73-.55-1.22-.89s-1-.67-1.51-1.01c-.51-.34-.98-.6-1.39-.79,1.31-1.41,2.51-3.05,3.6-4.92,1.09-1.87,2.07-3.9,2.95-6.07.88-2.18,1.61-4.38,2.18-6.62ZM97.56,247.98h43.1v4.42h-43.1v-4.42ZM102.94,232.47h33.6v4.37h-33.6v-4.37ZM105,218.41h33.31v4.42h-33.31v-4.42ZM116.76,209.34h4.7v40.85h-4.7v-40.85Z"/>
      <path class="cls-1" d="M190.63,247.3l-12.77-12.77-12.82,12.77-2.83-2.78,12.82-12.82-12.82-12.77,2.88-2.83,12.77,12.82,12.77-12.82,2.83,2.83-12.82,12.77,12.82,12.82-2.83,2.78Z"/>
      <path class="cls-1" d="M222.74,232.28h1.34l.72-.1,1.97.82c-.7,5.09-1.9,9.38-3.6,12.89-1.7,3.5-3.76,6.2-6.19,8.09-.19-.32-.47-.67-.84-1.06-.37-.38-.75-.77-1.15-1.15-.4-.38-.74-.67-1.03-.86,2.3-1.66,4.21-4,5.71-7.01,1.5-3.01,2.53-6.62,3.07-10.85v-.77ZM215.69,236.6c-.06-.35-.19-.77-.38-1.25-.19-.48-.39-.96-.6-1.44-.21-.48-.39-.85-.55-1.1.38-.13.76-.3,1.13-.5.37-.21.76-.55,1.18-1.03.32-.35.78-.97,1.39-1.85.61-.88,1.26-1.86,1.97-2.95.7-1.09,1.36-2.14,1.97-3.17.61-1.02,1.1-1.86,1.49-2.5v-.14l1.2-.53,2.83,1.15c-.48.83-1.07,1.82-1.78,2.95-.7,1.14-1.46,2.3-2.26,3.5-.8,1.2-1.58,2.34-2.33,3.43-.75,1.09-1.45,2.02-2.09,2.78-.64.35-1.17.66-1.58.94-.42.27-.78.56-1.1.86-.32.3-.48.58-.48.84ZM214.73,220.47h9.94v3.7h-9.94v-3.7ZM215.69,236.6v-3.36l1.87-.96h7.39v3.6h-6.34c-.61,0-1.2.07-1.78.22-.58.14-.96.31-1.15.5ZM216.26,211.35l3.46-2.02c1.06,1.15,2.14,2.42,3.24,3.82,1.1,1.39,1.96,2.58,2.57,3.58l-3.55,2.4c-.38-.7-.9-1.5-1.54-2.4-.64-.9-1.33-1.82-2.06-2.76-.74-.94-1.44-1.82-2.11-2.62ZM223.85,241.98c.93,2.11,2.21,3.68,3.84,4.7,1.63,1.02,3.63,1.7,6,2.02,2.37.32,5.09.48,8.16.48,1.7,0,3.58-.03,5.66-.1,2.08-.06,4.17-.14,6.26-.24,2.1-.1,4.01-.22,5.74-.38-.22.32-.43.73-.62,1.22s-.36,1.02-.5,1.56-.26,1.02-.36,1.44c-1.57.1-3.26.18-5.09.24-1.82.06-3.69.11-5.59.14-1.9.03-3.77.05-5.59.05-2.82,0-5.32-.12-7.51-.36-2.19-.24-4.13-.7-5.81-1.39-1.68-.69-3.15-1.68-4.42-2.98-1.26-1.3-2.33-3-3.19-5.11l3.02-1.3ZM227.06,227.29h30.67v4.56h-4.13v-2.16h-22.56v2.45h-3.98v-4.85ZM237.29,228.92h4.08c-.45,1.34-1.14,2.46-2.06,3.34-.93.88-2.19,1.6-3.79,2.16-1.6.56-3.63,1.02-6.1,1.37-.16-.35-.42-.75-.77-1.2-.35-.45-.69-.82-1.01-1.1,2.05-.26,3.71-.58,4.99-.96,1.28-.38,2.3-.87,3.05-1.46.75-.59,1.29-1.3,1.61-2.14ZM227.64,236.31h29.76v2.69h-29.76v-2.69ZM236.57,237.85h3.84c-.26,1.66-.74,3.16-1.44,4.49-.7,1.33-1.74,2.47-3.12,3.43-1.38.96-3.25,1.74-5.62,2.35-.16-.42-.46-.93-.89-1.54-.43-.61-.84-1.07-1.22-1.39,1.98-.45,3.55-1.02,4.7-1.7,1.15-.69,2.02-1.5,2.59-2.45.58-.94.96-2.01,1.15-3.19ZM230.42,212.12h24v13.39h-24v-13.39ZM234.6,214.18v1.73h15.41v-1.73h-15.41ZM234.6,217.88v1.78h15.41v-1.78h-15.41ZM234.6,221.67v1.82h15.41v-1.82h-15.41ZM236.66,240.44h13.58v2.59h-13.58v-2.59ZM239.93,209.24l4.66.53c-.45.74-.94,1.42-1.46,2.06-.53.64-.98,1.2-1.37,1.68l-3.5-.62c.32-.61.63-1.24.94-1.9.3-.66.55-1.24.74-1.75ZM239.3,233.96l3.7-.82c.38.64.77,1.37,1.15,2.18.38.82.69,1.5.91,2.04l-3.84,1.06c-.19-.58-.47-1.29-.84-2.14-.37-.85-.73-1.62-1.08-2.33ZM239.35,225.22l4.32-.62c.29.54.59,1.16.91,1.85.32.69.54,1.27.67,1.75l-4.51.82c-.13-.51-.32-1.13-.58-1.85-.26-.72-.53-1.37-.82-1.94ZM249.29,240.44h3.89c-.03.67-.08,1.14-.14,1.39-.29,1.54-.6,2.72-.94,3.55s-.76,1.44-1.27,1.82c-.38.32-.81.54-1.27.65-.46.11-1,.18-1.61.22h-2.18c-.94,0-1.94-.05-3-.14-.03-.38-.12-.82-.26-1.3-.14-.48-.33-.91-.55-1.3.96.1,1.85.15,2.66.17.82.02,1.4.02,1.75.02.67,0,1.14-.11,1.39-.34.32-.22.6-.67.84-1.34.24-.67.47-1.68.7-3.02v-.38ZM245.21,228.58h3.74v3.07c0,.42.06.71.17.89.11.18.42.26.94.26h3.55c.29,0,.63,0,1.03-.02.4-.02.81-.04,1.22-.07.42-.03.72-.08.91-.14.06.45.1.82.12,1.13.02.3.06.71.12,1.22-.29.06-.76.11-1.42.14-.66.03-1.26.05-1.8.05h-5.47c-.9,0-1.57-.14-2.02-.43-.45-.29-.74-.7-.89-1.22-.14-.53-.22-1.14-.22-1.85v-3.02Z"/>
      <path class="cls-1" d="M264.02,240.58l3.41.58c-.22,2.08-.53,4.18-.91,6.29-.38,2.11-.82,3.92-1.3,5.42-.38-.22-.92-.46-1.61-.7-.69-.24-1.26-.42-1.7-.55.58-1.44,1.02-3.15,1.34-5.14.32-1.98.58-3.95.77-5.9ZM263.35,227.77c-.06-.26-.17-.62-.31-1.08-.14-.46-.3-.94-.48-1.42-.18-.48-.34-.9-.5-1.25.42-.13.84-.42,1.27-.86.43-.45.87-1.04,1.32-1.78.35-.45.88-1.3,1.58-2.54.7-1.25,1.46-2.7,2.26-4.37.8-1.66,1.49-3.36,2.06-5.09l3.74,1.58c-1.15,2.66-2.48,5.28-3.98,7.87-1.5,2.59-3.01,4.85-4.51,6.77v.1c-.51.26-.93.5-1.25.72-.32.22-.6.46-.84.7-.24.24-.36.46-.36.65ZM263.69,238.76c-.06-.29-.17-.66-.31-1.13-.14-.46-.3-.94-.48-1.44-.18-.5-.33-.9-.46-1.22.54-.13,1.09-.48,1.63-1.06.54-.58,1.17-1.31,1.87-2.21.38-.45.94-1.18,1.68-2.21.74-1.02,1.55-2.25,2.45-3.67.9-1.42,1.81-2.96,2.74-4.61.93-1.65,1.76-3.29,2.5-4.92l3.41,2.11c-1.15,2.21-2.42,4.4-3.79,6.58-1.38,2.18-2.81,4.25-4.3,6.22-1.49,1.97-2.98,3.77-4.49,5.4v.1c-.51.26-.93.49-1.25.7-.32.21-.6.43-.84.67-.24.24-.36.47-.36.7ZM263.3,227.82l-.1-3.02,1.87-1.2,8.16-.67c-.1.54-.18,1.14-.26,1.78-.08.64-.12,1.18-.12,1.63-1.86.19-3.36.36-4.51.5-1.15.14-2.06.26-2.71.36-.66.1-1.15.19-1.49.29s-.62.21-.84.34ZM263.64,238.86l-.14-3.07,1.82-1.25,12.58-1.78c-.06.51-.11,1.1-.14,1.75-.03.66-.03,1.18,0,1.56-2.88.45-5.2.82-6.96,1.13-1.76.3-3.11.55-4.06.74-.94.19-1.64.36-2.09.5-.45.14-.78.28-1.01.41ZM269.16,241.02l3.12-.72c.29,1.63.56,3.38.82,5.26.26,1.87.42,3.51.48,4.92l-3.26.82c-.03-1.41-.16-3.06-.38-4.97-.22-1.9-.48-3.67-.77-5.3ZM273.77,228.58l3.02-1.1c.48.96.94,2,1.37,3.12s.82,2.2,1.15,3.24c.34,1.04.58,1.96.74,2.76l-3.22,1.3c-.16-.8-.39-1.74-.7-2.81-.3-1.07-.66-2.18-1.06-3.31-.4-1.13-.84-2.2-1.32-3.19ZM274.39,240.01l2.88-1.01c.58,1.47,1.13,3.06,1.66,4.78.53,1.71.9,3.18,1.13,4.39l-3.07,1.15c-.19-1.28-.55-2.79-1.08-4.54-.53-1.74-1.03-3.34-1.51-4.78ZM293.06,239.1l2.83,1.87c-1.06,1.28-2.4,2.58-4.03,3.91s-3.36,2.55-5.18,3.67c-1.82,1.12-3.6,2.05-5.33,2.78-.26-.48-.62-1.02-1.1-1.61s-.94-1.08-1.39-1.46c1.7-.58,3.45-1.36,5.26-2.35,1.81-.99,3.5-2.08,5.09-3.26,1.58-1.18,2.87-2.37,3.86-3.55ZM292.01,225.27l3.5,1.25c-1.09,1.31-2.38,2.58-3.89,3.79-1.5,1.22-3.09,2.32-4.75,3.31-1.66.99-3.33,1.86-4.99,2.59-.16-.26-.38-.58-.67-.96-.29-.38-.58-.77-.86-1.15s-.56-.69-.82-.91c1.57-.61,3.14-1.32,4.7-2.14,1.57-.82,3.03-1.71,4.39-2.69,1.36-.98,2.49-2.01,3.38-3.1ZM279.91,224.36h27.07v3.65h-27.07v-3.65ZM290.66,233.82l2.78,1.78c-.86.86-1.93,1.78-3.19,2.74-1.26.96-2.59,1.86-3.98,2.69-1.39.83-2.73,1.54-4.01,2.11-.26-.45-.6-.98-1.03-1.58-.43-.61-.86-1.1-1.27-1.49,1.18-.42,2.46-.96,3.82-1.63,1.36-.67,2.66-1.42,3.89-2.23,1.23-.82,2.23-1.61,3-2.38ZM285.82,209.19l4.13.48c-.29,1.34-.62,2.76-1.01,4.25-.38,1.49-.76,2.92-1.13,4.3-.37,1.38-.73,2.61-1.08,3.7h-4.03c.35-1.12.72-2.41,1.1-3.86.38-1.46.75-2.96,1.1-4.51.35-1.55.66-3,.91-4.34ZM284.61,218.7h14.64v3.22h-14.64v-3.22ZM286.2,212.22h13.63v3.22h-13.63v-3.22ZM287.01,231.94l3.26-1.63c1.76,1.38,3.17,2.92,4.22,4.63,1.06,1.71,1.81,3.46,2.26,5.26.45,1.79.65,3.5.6,5.14-.05,1.63-.29,3.06-.72,4.3s-1.02,2.15-1.75,2.76c-.64.58-1.28.97-1.92,1.18-.64.21-1.42.31-2.35.31-.48.03-.96.04-1.44.02-.48-.02-.99-.04-1.54-.07-.03-.51-.12-1.13-.26-1.85-.14-.72-.39-1.38-.74-1.99.61.06,1.17.12,1.68.17.51.05.99.07,1.44.07.51,0,.95-.06,1.32-.17.37-.11.71-.38,1.03-.79.42-.42.74-1.08.96-1.99.22-.91.31-2,.26-3.26-.05-1.26-.29-2.6-.72-4.01-.43-1.41-1.1-2.81-1.99-4.2-.9-1.39-2.1-2.68-3.6-3.86ZM303.43,229.83l2.93,2.78c-1.12.74-2.35,1.49-3.7,2.26-1.34.77-2.69,1.49-4.03,2.16-1.34.67-2.59,1.25-3.74,1.73l-2.5-2.54c1.15-.51,2.41-1.13,3.77-1.85,1.36-.72,2.68-1.48,3.96-2.28,1.28-.8,2.38-1.55,3.31-2.26ZM298.44,212.22h.43l.72-.19,2.93.48c-.19,1.41-.44,2.92-.74,4.54-.3,1.62-.62,3.22-.94,4.82-.32,1.6-.64,3.1-.96,4.51l-3.98-.48c.32-1.44.65-2.98.98-4.61.34-1.63.64-3.22.91-4.75.27-1.54.49-2.82.65-3.84v-.48ZM301.46,234.39c.29,1.82.69,3.61,1.2,5.35.51,1.74,1.14,3.3,1.9,4.68.75,1.38,1.66,2.5,2.71,3.36-.45.35-.94.85-1.49,1.49-.54.64-.98,1.23-1.3,1.78-1.15-1.09-2.15-2.46-3-4.13-.85-1.66-1.54-3.51-2.09-5.54-.54-2.03-.98-4.15-1.3-6.36l3.36-.62Z"/>
      <path class="cls-1" d="M319.03,232.28h1.3l.77-.1,1.97.82c-.74,5.12-1.98,9.43-3.74,12.94-1.76,3.5-3.9,6.18-6.43,8.04-.19-.29-.47-.63-.84-1.03-.37-.4-.74-.79-1.13-1.18-.38-.38-.74-.67-1.06-.86,2.37-1.63,4.34-3.95,5.9-6.96,1.57-3.01,2.66-6.64,3.26-10.9v-.77ZM311.54,236.6c-.06-.35-.2-.77-.41-1.25-.21-.48-.41-.97-.6-1.46s-.37-.89-.53-1.18c.38-.1.77-.25,1.15-.46.38-.21.78-.54,1.2-.98.38-.35.9-.96,1.54-1.82.64-.86,1.34-1.84,2.09-2.93.75-1.09,1.46-2.14,2.14-3.14.67-1.01,1.2-1.83,1.58-2.47v-.14l1.25-.53,2.88,1.3c-.54.8-1.2,1.75-1.97,2.86-.77,1.1-1.57,2.25-2.4,3.43-.83,1.18-1.66,2.31-2.47,3.38-.82,1.07-1.56,1.99-2.23,2.76-.64.35-1.18.66-1.61.94-.43.27-.81.56-1.13.86-.32.3-.48.58-.48.84ZM310.73,220.52h10.13v3.7h-10.13v-3.7ZM311.54,236.6v-3.36l1.87-.96h7.39l-.05,3.6h-6.34c-.58,0-1.15.07-1.73.22-.58.14-.96.31-1.15.5ZM312.26,211.35l3.46-2.02c1.06,1.15,2.14,2.42,3.24,3.82,1.1,1.39,1.96,2.58,2.57,3.58l-3.55,2.4c-.38-.7-.9-1.5-1.54-2.4-.64-.9-1.33-1.82-2.06-2.76-.74-.94-1.44-1.82-2.11-2.62ZM319.85,241.98c.93,2.11,2.21,3.68,3.84,4.7,1.63,1.02,3.63,1.7,6,2.02,2.37.32,5.09.48,8.16.48,1.7,0,3.58-.03,5.66-.1,2.08-.06,4.17-.14,6.26-.24,2.1-.1,4.01-.22,5.74-.38-.22.32-.43.73-.62,1.22s-.36,1.02-.5,1.56-.26,1.02-.36,1.44c-1.57.1-3.26.18-5.09.24-1.82.06-3.69.11-5.59.14-1.9.03-3.77.05-5.59.05-2.82,0-5.32-.12-7.51-.36-2.19-.24-4.13-.7-5.81-1.39-1.68-.69-3.15-1.68-4.42-2.98-1.26-1.3-2.33-3-3.19-5.11l3.02-1.3ZM323.78,210.92h29.23v8.93h-4.37v-5.52h-20.69v5.52h-4.18v-8.93ZM324.17,240.34h29.38v3.46h-29.38v-3.46ZM326.42,223.83h24.53v13.87h-24.53v-13.87ZM327.62,218.17h21.89v3.26h-21.89v-3.26ZM330.17,226.76v2.59h16.85v-2.59h-16.85ZM330.17,232.14v2.64h16.85v-2.64h-16.85ZM336.31,216.01h4.42v31.34h-4.42v-31.34Z"/>
      <path class="cls-1" d="M365.69,209.05l4.13,1.3c-.67,1.5-1.49,3.02-2.45,4.54-.96,1.52-1.98,2.94-3.07,4.27-1.09,1.33-2.18,2.5-3.26,3.53-.19-.29-.46-.66-.82-1.13-.35-.46-.72-.93-1.1-1.39-.38-.46-.72-.82-1.01-1.08,1.5-1.22,2.94-2.72,4.3-4.51,1.36-1.79,2.46-3.63,3.29-5.52ZM359.16,242.22h43.1v3.7h-43.1v-3.7ZM371.06,237.8h4.56v4.22c0,1.06-.16,2.14-.48,3.24-.32,1.1-.91,2.18-1.78,3.24-.86,1.06-2.1,2.06-3.7,3-1.6.94-3.66,1.8-6.19,2.57-.29-.48-.7-1.06-1.25-1.73-.54-.67-1.07-1.22-1.58-1.63,2.27-.58,4.1-1.22,5.47-1.94,1.38-.72,2.42-1.47,3.12-2.26.7-.78,1.18-1.57,1.44-2.35.26-.78.38-1.53.38-2.23v-4.13ZM364.82,220.38h32.54v18.19h-32.54v-18.19ZM365.06,212.55h15.98v3.41h-15.98v-3.41ZM369.43,223.26v2.26h23.18v-2.26h-23.18ZM369.43,228.25v2.35h23.18v-2.35h-23.18ZM369.43,233.34v2.4h23.18v-2.4h-23.18ZM369.96,217.11l3.74-1.25c.42.48.82,1.04,1.22,1.68.4.64.71,1.22.94,1.73l-3.94,1.34c-.19-.48-.47-1.05-.84-1.7-.37-.66-.74-1.26-1.13-1.8ZM386.04,209l4.37,1.06c-.8,2.08-1.85,4.06-3.14,5.93s-2.63,3.43-4.01,4.68c-.29-.22-.68-.48-1.18-.77-.5-.29-.99-.56-1.49-.82-.5-.26-.94-.45-1.32-.58,1.47-1.15,2.81-2.58,4.01-4.27,1.2-1.7,2.12-3.44,2.76-5.23ZM384.84,212.55h17.66v3.36h-17.66v-3.36ZM386.95,237.85h4.66v15.94h-4.66v-15.94ZM391.17,216.97l3.46-1.49c.58.54,1.16,1.16,1.75,1.85.59.69,1.03,1.3,1.32,1.85l-3.65,1.63c-.26-.54-.66-1.18-1.2-1.9-.54-.72-1.1-1.37-1.68-1.94Z"/>
      <path class="cls-1" d="M452.23,247.3l-12.77-12.77-12.82,12.77-2.83-2.78,12.82-12.82-12.82-12.77,2.88-2.83,12.77,12.82,12.77-12.82,2.83,2.83-12.82,12.77,12.82,12.82-2.83,2.78Z"/>
      <path class="cls-1" d="M474.21,249.85l11.71-35.38h6.43l11.71,35.38h-5.9l-5.71-19.2c-.58-1.92-1.14-3.86-1.68-5.83-.54-1.97-1.09-3.94-1.63-5.93h-.19c-.51,2.02-1.05,4-1.61,5.95-.56,1.95-1.13,3.89-1.7,5.81l-5.71,19.2h-5.71ZM480.84,239.82v-4.42h16.51v4.42h-16.51Z"/>
      <path class="cls-1" d="M508.73,249.85v-35.38h5.57v35.38h-5.57Z"/>
      <path class="cls-1" d="M523.89,212.89h4.18v14.35c0,1.92-.06,4.02-.17,6.31-.11,2.29-.32,4.64-.62,7.06-.3,2.42-.75,4.77-1.34,7.06-.59,2.29-1.37,4.38-2.33,6.26-.22-.26-.55-.56-.98-.91-.43-.35-.88-.7-1.34-1.03-.46-.34-.86-.57-1.18-.7.9-1.73,1.6-3.62,2.11-5.66.51-2.05.89-4.15,1.13-6.31.24-2.16.39-4.27.46-6.34.06-2.06.1-3.98.1-5.74v-14.35ZM526.39,212.89h38.35v3.79h-38.35v-3.79ZM535.89,216.68l3.74,1.15c-1.22,2.46-2.7,4.85-4.44,7.15-1.74,2.3-3.51,4.26-5.3,5.86-.19-.26-.46-.57-.82-.94-.35-.37-.71-.74-1.08-1.1-.37-.37-.7-.66-.98-.89,1.76-1.38,3.43-3.06,5.02-5.06,1.58-2,2.87-4.06,3.86-6.17ZM532.63,242.26l3.7,1.3c-.54,1.7-1.25,3.38-2.11,5.06-.86,1.68-1.98,3.11-3.36,4.3l-3.46-2.26c1.25-.99,2.31-2.26,3.19-3.79.88-1.54,1.56-3.07,2.04-4.61ZM532.87,224.84l3.84-3.74.05.05v18.72h-3.89v-15.02ZM543.67,216.58l3.74,1.06c-.99,2.3-2.22,4.55-3.7,6.74-1.47,2.19-2.96,4.06-4.46,5.59-.22-.26-.53-.54-.91-.86-.38-.32-.77-.63-1.15-.94-.38-.3-.74-.55-1.06-.74,1.5-1.34,2.93-2.98,4.27-4.92,1.34-1.94,2.43-3.91,3.26-5.93ZM538.63,242.55h4.13v6.1c0,.54.14.89.41,1.03.27.14.87.22,1.8.22h6.1c.51,0,.9-.08,1.15-.24.26-.16.44-.52.55-1.08.11-.56.2-1.42.26-2.57.42.32.99.62,1.73.89.74.27,1.38.47,1.92.6-.13,1.63-.37,2.89-.72,3.77-.35.88-.89,1.49-1.61,1.82-.72.34-1.66.5-2.81.5h-7.1c-1.57,0-2.77-.14-3.6-.43-.83-.29-1.41-.79-1.73-1.51-.32-.72-.48-1.7-.48-2.95v-6.14ZM540.93,209.67l3.98-1.25c.67.9,1.32,1.89,1.94,2.98.62,1.09,1.06,2.05,1.32,2.88l-4.18,1.49c-.26-.86-.68-1.86-1.27-3-.59-1.14-1.19-2.17-1.8-3.1ZM541.08,224.31l3.79-3.12v18.62h-3.79v-15.5ZM542.04,235.5h21.94v2.93h-21.94v-2.93ZM544.44,221h18.86v2.83h-20.88l2.02-2.83ZM542.85,241.21l2.64-2.45c.9.42,1.84.9,2.83,1.44.99.54,1.93,1.1,2.81,1.66.88.56,1.61,1.11,2.18,1.66l-2.74,2.74c-.54-.54-1.24-1.12-2.09-1.73-.85-.61-1.77-1.2-2.76-1.78-.99-.58-1.95-1.09-2.88-1.54ZM543.43,225.99h18.53v2.4h-18.53v-2.4ZM543.43,230.7h18.67v2.4h-18.67v-2.4ZM549.96,217.78l3.22-1.3c.58.61,1.12,1.28,1.63,2.02.51.74.91,1.39,1.2,1.97l-3.36,1.54c-.26-.61-.63-1.31-1.13-2.11-.5-.8-1.02-1.5-1.56-2.11ZM551.59,222.25h3.84v14.35h-3.84v-14.35ZM554.9,243.37l3.31-1.63c.93.9,1.83,1.89,2.71,2.98.88,1.09,1.68,2.17,2.4,3.24.72,1.07,1.26,2.06,1.61,2.95l-3.6,1.87c-.35-.9-.87-1.89-1.56-2.98-.69-1.09-1.46-2.2-2.3-3.34-.85-1.14-1.7-2.17-2.57-3.1Z"/>
      <path class="cls-1" d="M574.01,212.65h4.51v17.33c0,1.86-.09,3.86-.26,6-.18,2.14-.49,4.31-.94,6.5-.45,2.19-1.11,4.29-1.99,6.29-.88,2-2.06,3.8-3.53,5.4-.22-.32-.55-.67-.98-1.06-.43-.38-.88-.75-1.34-1.1-.46-.35-.87-.62-1.22-.82,1.34-1.5,2.4-3.13,3.17-4.87.77-1.74,1.34-3.55,1.7-5.42.37-1.87.61-3.74.72-5.62.11-1.87.17-3.66.17-5.35v-17.28ZM576.41,235.16h30.72v4.32h-30.72v-4.32ZM576.6,212.65h30.38v4.32h-30.38v-4.32ZM576.6,223.78h30.38v4.22h-30.38v-4.22ZM588.98,214.33h4.56v39.07h-4.56v-39.07ZM605.25,212.65h4.51v35.52c0,1.31-.18,2.33-.53,3.05-.35.72-.96,1.27-1.82,1.66-.86.35-2.03.57-3.5.65-1.47.08-3.34.1-5.62.07-.06-.58-.25-1.3-.55-2.16-.3-.86-.62-1.6-.94-2.21,1.02.06,2.03.1,3.02.12.99.02,1.86.02,2.62,0,.75-.02,1.27-.02,1.56-.02.48,0,.81-.09.98-.26.18-.18.26-.49.26-.94v-35.47Z"/>
      <path class="cls-1" d="M616.63,231.85l2.64-3.07c.9.45,1.86.96,2.9,1.54,1.04.58,2.04,1.14,3,1.7.96.56,1.76,1.06,2.4,1.51l-2.74,3.46c-.61-.45-1.38-.98-2.33-1.58-.94-.61-1.93-1.22-2.95-1.85-1.02-.62-2-1.19-2.93-1.7ZM617.59,250.28c.9-.93,1.89-2.02,2.98-3.29,1.09-1.26,2.21-2.62,3.36-4.06,1.15-1.44,2.24-2.85,3.26-4.22l2.74,3.26c-.9,1.28-1.86,2.6-2.9,3.96-1.04,1.36-2.08,2.71-3.12,4.06-1.04,1.34-2.06,2.61-3.05,3.79l-3.26-3.5ZM617.73,212.36h19.97v4.03h-19.97v-4.03ZM619.8,222.49l2.59-3.07c.86.48,1.81,1.01,2.83,1.58,1.02.58,2.02,1.14,3,1.7.98.56,1.78,1.05,2.42,1.46l-2.69,3.41c-.61-.42-1.39-.92-2.35-1.51-.96-.59-1.95-1.21-2.98-1.85-1.02-.64-1.97-1.22-2.83-1.73ZM627.77,209.34h4.42v10.75h-4.42v-10.75ZM639.38,218.7l4.42.91c-1.47,2.24-3.2,4.49-5.18,6.74-1.98,2.26-4.27,4.36-6.86,6.31-.35-.45-.85-.95-1.49-1.51-.64-.56-1.2-.97-1.68-1.22,2.46-1.66,4.62-3.51,6.46-5.54,1.84-2.03,3.29-3.93,4.34-5.69ZM653.69,222.15h.82l.77-.19,2.83,1.73c-1.31,2.14-2.97,4.08-4.97,5.81-2,1.73-4.22,3.27-6.67,4.63-2.45,1.36-4.99,2.54-7.63,3.53-2.64.99-5.26,1.81-7.85,2.45-.22-.54-.55-1.18-.98-1.9-.43-.72-.86-1.3-1.27-1.75,2.43-.48,4.9-1.15,7.39-2.02,2.5-.86,4.88-1.89,7.15-3.07,2.27-1.18,4.31-2.49,6.12-3.91,1.81-1.42,3.24-2.97,4.3-4.63v-.67ZM633.57,239.19h22.94v14.64h-4.46v-11.09h-14.16v11.09h-4.32v-14.64ZM638.95,225.22c1.18,1.25,2.62,2.42,4.3,3.53,1.68,1.1,3.54,2.12,5.57,3.05,2.03.93,4.16,1.74,6.38,2.42,2.22.69,4.46,1.24,6.7,1.66-.45.45-.93,1.05-1.44,1.8-.51.75-.93,1.42-1.25,1.99-2.3-.54-4.58-1.23-6.84-2.06-2.26-.83-4.42-1.8-6.48-2.9-2.06-1.1-3.98-2.33-5.76-3.67-1.78-1.34-3.34-2.78-4.68-4.32l3.5-1.49ZM636.6,248.31h16.85v3.55h-16.85v-3.55ZM639.09,222.15h15.5v3.41h-15.5v-3.41ZM640.15,212.36h19.92v3.98h-19.92v-3.98ZM645.43,209.34h4.46v10.75h-4.46v-10.75Z"/>
      <path class="cls-1" d="M664.29,241.5c1.28-.48,2.77-1.06,4.46-1.75,1.7-.69,3.5-1.42,5.4-2.21,1.9-.78,3.8-1.58,5.69-2.38l1.01,4.03c-2.53,1.22-5.09,2.42-7.68,3.62s-4.94,2.26-7.06,3.19l-1.82-4.51ZM665.25,220.71h14.64v4.27h-14.64v-4.27ZM670.77,209.91h4.27v31.49h-4.27v-31.49ZM678.31,228.92l25.44-10.75,1.68,3.84-25.39,10.94-1.73-4.03ZM683.3,213.9h4.37v31.68c0,.9.08,1.58.24,2.04.16.46.5.78,1.03.94s1.3.24,2.33.24h10.61c.9,0,1.58-.18,2.04-.53.46-.35.81-.99,1.03-1.92.22-.93.38-2.27.48-4.03.51.35,1.16.69,1.94,1.01.78.32,1.48.54,2.09.67-.19,2.24-.53,4-1.01,5.28-.48,1.28-1.21,2.2-2.18,2.76-.98.56-2.34.84-4.1.84h-11.18c-1.95,0-3.5-.21-4.63-.62-1.14-.42-1.93-1.16-2.38-2.23-.45-1.07-.67-2.57-.67-4.49v-31.63ZM693.05,209.34h4.27v33.6h-4.27v-33.6ZM702.6,219.42h-.53l1.68-1.25,3.46,1.1-.24.72c-.1,2.24-.26,4.64-.48,7.2-.22,2.56-.48,5.06-.77,7.51-.29,2.45-.64,4.62-1.06,6.5l-3.7-1.06c.22-1.28.42-2.76.58-4.44.16-1.68.31-3.46.46-5.35.14-1.89.26-3.77.36-5.64.1-1.87.18-3.64.24-5.3Z"/>
      <path class="cls-1" d="M718.92,241.4l-1.25-3.12c1.98-.74,3.5-1.7,4.56-2.88,1.06-1.18,1.58-2.59,1.58-4.22l-.67-4.37,2.64,3.94c-.38.38-.81.66-1.27.84-.46.18-.94.26-1.42.26-1.09,0-2.03-.33-2.83-.98-.8-.66-1.2-1.61-1.2-2.86s.41-2.16,1.22-2.83c.82-.67,1.77-1.01,2.86-1.01,1.5,0,2.65.54,3.43,1.63s1.18,2.54,1.18,4.37c0,2.66-.79,4.97-2.38,6.94s-3.74,3.4-6.46,4.3Z"/>
      <path class="cls-1" d="M736.68,234.3c1.54-.35,3.28-.78,5.23-1.3s4.02-1.06,6.22-1.66c2.19-.59,4.36-1.16,6.5-1.7l.58,4.27c-2.98.86-5.98,1.73-9.02,2.59-3.04.86-5.78,1.63-8.21,2.3l-1.3-4.51ZM737.11,218.79h17.47v4.32h-17.47v-4.32ZM743.93,209.34h4.56v38.98c0,1.18-.14,2.1-.43,2.76s-.8,1.16-1.54,1.51c-.7.35-1.62.58-2.74.7s-2.53.17-4.22.17c-.06-.61-.23-1.33-.5-2.16-.27-.83-.57-1.55-.89-2.16,1.06.03,2.04.06,2.95.07.91.02,1.53,0,1.85-.02.64,0,.96-.3.96-.91v-38.93ZM755.11,213.18h26.11v4.56h-26.11v-4.56ZM768.12,214.81h4.9v32.83c0,1.41-.19,2.5-.58,3.29-.38.78-1.06,1.38-2.02,1.8-.99.38-2.27.62-3.84.72-1.57.1-3.49.14-5.76.14-.06-.45-.2-.98-.41-1.58-.21-.61-.43-1.21-.67-1.8s-.49-1.11-.74-1.56c1.09.06,2.17.1,3.24.12,1.07.02,2.02.02,2.86.02h1.73c.48-.03.82-.14,1.01-.31.19-.18.29-.47.29-.89v-32.78Z"/>
      <path class="cls-1" d="M793.75,232.28h1.06l.77-.1,2.21.82c-.8,5.18-2.14,9.51-4.01,12.98-1.87,3.47-4.15,6.14-6.84,7.99-.19-.32-.46-.68-.82-1.08-.35-.4-.72-.78-1.1-1.15-.38-.37-.72-.65-1.01-.84,2.5-1.63,4.59-3.94,6.29-6.94s2.85-6.63,3.46-10.92v-.77ZM785.83,236.6c-.06-.35-.2-.77-.41-1.25-.21-.48-.41-.96-.6-1.44-.19-.48-.37-.85-.53-1.1.38-.13.77-.3,1.15-.5s.77-.55,1.15-1.03c.35-.35.85-.97,1.49-1.85.64-.88,1.33-1.86,2.06-2.93.74-1.07,1.43-2.11,2.09-3.12.66-1.01,1.18-1.83,1.56-2.47v-.14l1.25-.53,2.83,1.2c-.51.83-1.14,1.8-1.9,2.9-.75,1.1-1.54,2.25-2.35,3.43-.82,1.18-1.62,2.32-2.42,3.41s-1.54,2.02-2.21,2.78c-.64.35-1.17.66-1.58.94-.42.27-.78.56-1.1.86-.32.3-.48.58-.48.84ZM785.06,220.47h9.98v3.7h-9.98v-3.7ZM785.83,236.6v-3.36l1.87-.96h7.3v3.6h-6.29c-.61,0-1.19.07-1.75.22-.56.14-.94.31-1.13.5ZM786.6,211.4l3.36-2.06c.77.77,1.54,1.6,2.33,2.5s1.53,1.76,2.23,2.59c.7.83,1.28,1.57,1.73,2.21l-3.46,2.5c-.45-.67-1.02-1.46-1.7-2.35-.69-.9-1.42-1.82-2.21-2.76-.78-.94-1.54-1.82-2.28-2.62ZM794.18,241.98c.93,2.11,2.21,3.68,3.84,4.7,1.63,1.02,3.62,1.7,5.98,2.02,2.35.32,5.05.48,8.09.48,1.7,0,3.58-.03,5.66-.1s4.18-.14,6.29-.24c2.11-.1,4.02-.22,5.71-.38-.22.32-.43.74-.62,1.25-.19.51-.36,1.04-.5,1.58-.14.54-.26,1.02-.36,1.44-1.57.1-3.26.18-5.09.24-1.82.06-3.68.11-5.57.14-1.89.03-3.74.05-5.57.05-2.82,0-5.32-.13-7.51-.38-2.19-.26-4.13-.72-5.81-1.39-1.68-.67-3.14-1.66-4.39-2.95s-2.32-3.02-3.22-5.16l3.07-1.3ZM804.5,209.91l4.13.91c-.8,2.43-1.82,4.78-3.05,7.03-1.23,2.26-2.54,4.15-3.91,5.69-.29-.22-.66-.46-1.1-.72-.45-.25-.91-.51-1.39-.77-.48-.26-.9-.46-1.25-.62,1.44-1.41,2.73-3.14,3.86-5.21s2.04-4.17,2.71-6.31ZM798.45,224.22h29.71v3.89h-29.71v-3.89ZM802.05,231.42h23.18v13.97h-23.18v-13.97ZM804.02,215.1h22.22v3.89h-22.22v-3.89ZM806.42,235.06v6.67h14.21v-6.67h-14.21ZM811.32,209.34h4.51v17.47h-4.51v-17.47Z"/>
      <path class="cls-1" d="M832.82,219.75h23.28v3.55h-23.28v-3.55ZM833.21,237.46h21.89v3.36h-21.89v-3.36ZM835.75,239.91l3.89.29c-.16,1.34-.36,2.75-.6,4.2-.24,1.46-.49,2.71-.74,3.77h-3.98c.26-1.12.51-2.45.77-3.98s.48-2.96.67-4.27ZM834.93,212.94h18v8.16h-3.94v-4.61h-14.06v-3.55ZM835.75,244.66h19.63v3.5h-20.4l.77-3.5ZM835.22,225.46h18.43v9.79h-18.43v-9.79ZM841.17,209.24l4.22.38c-.26,1.25-.53,2.58-.82,3.98-.29,1.41-.58,2.76-.89,4.06-.3,1.3-.6,2.44-.89,3.43h-4.22c.29-1.06.59-2.26.91-3.6.32-1.34.62-2.74.91-4.18.29-1.44.54-2.8.77-4.08ZM839.45,228.49v3.74h9.84v-3.74h-9.84ZM844.2,234.25h4.27v19.49h-4.27v-19.49ZM863.45,213.56h3.98c-.03,2.82-.12,5.7-.26,8.66-.14,2.96-.41,5.9-.79,8.83-.38,2.93-.96,5.77-1.73,8.52-.77,2.75-1.8,5.31-3.1,7.68-1.3,2.37-2.92,4.48-4.87,6.34-.35-.48-.82-.98-1.42-1.51-.59-.53-1.14-.95-1.66-1.27,1.89-1.66,3.43-3.61,4.63-5.83,1.2-2.22,2.14-4.62,2.83-7.18.69-2.56,1.19-5.21,1.51-7.94.32-2.74.54-5.49.65-8.26.11-2.77.18-5.45.22-8.04ZM855.29,225.13l3.02-1.78c.8,1.02,1.65,2.14,2.54,3.36.9,1.22,1.75,2.39,2.57,3.53.82,1.14,1.46,2.14,1.94,3l-3.17,2.11c-.48-.86-1.11-1.89-1.9-3.07-.79-1.18-1.62-2.41-2.5-3.67-.88-1.26-1.72-2.42-2.52-3.48ZM856.34,212.17h16.46v3.89h-16.46v-3.89ZM871.65,212.17h4.08v1.39c0,.35-.02.62-.05.82-.1,5.15-.19,9.64-.29,13.46-.1,3.82-.21,7.1-.34,9.82-.13,2.72-.28,4.96-.46,6.72-.18,1.76-.38,3.15-.6,4.18-.22,1.02-.5,1.78-.82,2.26-.48.77-.98,1.3-1.49,1.61-.51.3-1.14.52-1.87.65-.7.13-1.54.18-2.5.17-.96-.02-1.95-.04-2.98-.07-.03-.61-.15-1.3-.36-2.09s-.47-1.46-.79-2.04c.99.1,1.9.15,2.74.17.83.02,1.47.02,1.92.02.38,0,.69-.06.91-.17.22-.11.45-.36.67-.74.32-.45.59-1.38.82-2.78.22-1.41.42-3.45.6-6.12.18-2.67.32-6.15.43-10.44s.23-9.52.36-15.7v-1.1Z"/>
      <path class="cls-1" d="M882.41,218.5l3.36.48c-.1,1.31-.25,2.77-.46,4.37-.21,1.6-.46,3.17-.77,4.7s-.66,2.91-1.08,4.13l-3.46-1.2c.42-1.09.78-2.35,1.1-3.79.32-1.44.59-2.92.82-4.44.22-1.52.38-2.94.48-4.25ZM886.68,209.34h4.56v44.5h-4.56v-44.5ZM890.95,218.5l3.12-1.34c.7,1.25,1.38,2.62,2.02,4.13.64,1.5,1.09,2.77,1.34,3.79l-3.36,1.58c-.16-.7-.4-1.52-.72-2.45-.32-.93-.7-1.9-1.13-2.93-.43-1.02-.86-1.95-1.27-2.78ZM900.41,211.54l4.46.67c-.38,2.37-.86,4.69-1.44,6.96-.58,2.27-1.22,4.39-1.94,6.36-.72,1.97-1.53,3.7-2.42,5.21-.29-.19-.68-.42-1.18-.7-.5-.27-1-.53-1.51-.77-.51-.24-.96-.44-1.34-.6.9-1.38,1.69-2.98,2.38-4.82.69-1.84,1.29-3.82,1.8-5.93s.91-4.24,1.2-6.38ZM895.03,247.93h29.71v4.32h-29.71v-4.32ZM898.63,232.71h23.76v4.22h-23.76v-4.22ZM901.17,219.32h22.27v4.27h-23.62l1.34-4.27ZM908.42,209.53h4.56v40.85h-4.56v-40.85Z"/>
      <path class="cls-1" d="M937.32,232.28h1.3l.77-.1,1.97.82c-.74,5.12-1.98,9.43-3.74,12.94-1.76,3.5-3.9,6.18-6.43,8.04-.19-.29-.47-.63-.84-1.03s-.74-.79-1.13-1.18c-.38-.38-.74-.67-1.06-.86,2.37-1.63,4.34-3.95,5.9-6.96,1.57-3.01,2.66-6.64,3.26-10.9v-.77ZM929.83,236.6c-.06-.35-.2-.77-.41-1.25-.21-.48-.41-.97-.6-1.46s-.37-.89-.53-1.18c.38-.1.77-.25,1.15-.46s.78-.54,1.2-.98c.38-.35.9-.96,1.54-1.82.64-.86,1.34-1.84,2.09-2.93.75-1.09,1.46-2.14,2.14-3.14.67-1.01,1.2-1.83,1.58-2.47v-.14l1.25-.53,2.88,1.3c-.54.8-1.2,1.75-1.97,2.86-.77,1.1-1.57,2.25-2.4,3.43-.83,1.18-1.66,2.31-2.47,3.38-.82,1.07-1.56,1.99-2.23,2.76-.64.35-1.18.66-1.61.94-.43.27-.81.56-1.13.86-.32.3-.48.58-.48.84ZM929.01,220.52h10.13v3.7h-10.13v-3.7ZM929.83,236.6v-3.36l1.87-.96h7.39l-.05,3.6h-6.34c-.58,0-1.15.07-1.73.22-.58.14-.96.31-1.15.5ZM930.55,211.35l3.46-2.02c1.06,1.15,2.14,2.42,3.24,3.82,1.1,1.39,1.96,2.58,2.57,3.58l-3.55,2.4c-.38-.7-.9-1.5-1.54-2.4-.64-.9-1.33-1.82-2.06-2.76-.74-.94-1.44-1.82-2.11-2.62ZM938.13,241.98c.93,2.11,2.21,3.68,3.84,4.7,1.63,1.02,3.63,1.7,6,2.02,2.37.32,5.09.48,8.16.48,1.7,0,3.58-.03,5.66-.1,2.08-.06,4.17-.14,6.26-.24,2.1-.1,4.01-.22,5.74-.38-.22.32-.43.73-.62,1.22-.19.5-.36,1.02-.5,1.56-.14.54-.26,1.02-.36,1.44-1.57.1-3.26.18-5.09.24-1.82.06-3.69.11-5.59.14-1.9.03-3.77.05-5.59.05-2.82,0-5.32-.12-7.51-.36-2.19-.24-4.13-.7-5.81-1.39-1.68-.69-3.15-1.68-4.42-2.98-1.26-1.3-2.33-3-3.19-5.11l3.02-1.3ZM942.07,210.92h29.23v8.93h-4.37v-5.52h-20.69v5.52h-4.18v-8.93ZM942.45,240.34h29.38v3.46h-29.38v-3.46ZM944.71,223.83h24.53v13.87h-24.53v-13.87ZM945.91,218.17h21.89v3.26h-21.89v-3.26ZM948.45,226.76v2.59h16.85v-2.59h-16.85ZM948.45,232.14v2.64h16.85v-2.64h-16.85ZM954.6,216.01h4.42v31.34h-4.42v-31.34Z"/>
      <path class="cls-1" d="M983.97,209.05l4.13,1.3c-.67,1.5-1.49,3.02-2.45,4.54-.96,1.52-1.98,2.94-3.07,4.27-1.09,1.33-2.18,2.5-3.26,3.53-.19-.29-.46-.66-.82-1.13s-.72-.93-1.1-1.39c-.38-.46-.72-.82-1.01-1.08,1.5-1.22,2.94-2.72,4.3-4.51,1.36-1.79,2.46-3.63,3.29-5.52ZM977.45,242.22h43.1v3.7h-43.1v-3.7ZM989.35,237.8h4.56v4.22c0,1.06-.16,2.14-.48,3.24-.32,1.1-.91,2.18-1.78,3.24-.86,1.06-2.1,2.06-3.7,3-1.6.94-3.66,1.8-6.19,2.57-.29-.48-.7-1.06-1.25-1.73-.54-.67-1.07-1.22-1.58-1.63,2.27-.58,4.1-1.22,5.47-1.94s2.42-1.47,3.12-2.26c.7-.78,1.18-1.57,1.44-2.35.25-.78.38-1.53.38-2.23v-4.13ZM983.11,220.38h32.54v18.19h-32.54v-18.19ZM983.35,212.55h15.98v3.41h-15.98v-3.41ZM987.72,223.26v2.26h23.18v-2.26h-23.18ZM987.72,228.25v2.35h23.18v-2.35h-23.18ZM987.72,233.34v2.4h23.18v-2.4h-23.18ZM988.25,217.11l3.74-1.25c.42.48.82,1.04,1.22,1.68.4.64.71,1.22.94,1.73l-3.94,1.34c-.19-.48-.47-1.05-.84-1.7s-.74-1.26-1.13-1.8ZM1004.33,209l4.37,1.06c-.8,2.08-1.85,4.06-3.14,5.93-1.3,1.87-2.63,3.43-4.01,4.68-.29-.22-.68-.48-1.18-.77s-.99-.56-1.49-.82-.94-.45-1.32-.58c1.47-1.15,2.81-2.58,4.01-4.27,1.2-1.7,2.12-3.44,2.76-5.23ZM1003.13,212.55h17.66v3.36h-17.66v-3.36ZM1005.24,237.85h4.66v15.94h-4.66v-15.94ZM1009.46,216.97l3.46-1.49c.58.54,1.16,1.16,1.75,1.85s1.03,1.3,1.32,1.85l-3.65,1.63c-.26-.54-.66-1.18-1.2-1.9-.54-.72-1.1-1.37-1.68-1.94Z"/>
      <path class="cls-1" d="M1025.25,232.81h43.39v4.56h-43.39v-4.56ZM1027.8,212.46h38.06v4.51h-38.06v-4.51ZM1030.97,220.14l4.13-1.2c.61,1.09,1.19,2.26,1.75,3.53.56,1.26,1.07,2.5,1.54,3.7.46,1.2.79,2.26.98,3.19l-4.37,1.44c-.22-.93-.54-2-.94-3.22-.4-1.21-.87-2.48-1.42-3.79-.54-1.31-1.1-2.53-1.68-3.65ZM1044.5,214.28h4.7v39.55h-4.7v-39.55ZM1058.61,218.74l4.85,1.3c-.58,1.25-1.2,2.53-1.87,3.84-.67,1.31-1.33,2.57-1.97,3.77-.64,1.2-1.25,2.26-1.82,3.19l-3.98-1.25c.58-.96,1.17-2.07,1.78-3.34.61-1.26,1.18-2.56,1.7-3.89.53-1.33.97-2.54,1.32-3.62Z"/>
      <path class="cls-1" d="M1077,229.54c-.06-.32-.18-.75-.36-1.3-.18-.54-.36-1.1-.55-1.68-.19-.58-.38-1.06-.58-1.44.61-.13,1.22-.44,1.82-.94.61-.5,1.31-1.13,2.11-1.9.45-.38,1.09-1.02,1.92-1.92s1.76-1.95,2.78-3.17c1.02-1.22,2.06-2.54,3.12-3.98,1.06-1.44,2.03-2.88,2.93-4.32l4.56,1.97c-1.47,2.08-3.05,4.1-4.73,6.07-1.68,1.97-3.38,3.82-5.09,5.54-1.71,1.73-3.42,3.28-5.11,4.66v.14c-.58.29-1.06.55-1.44.79-.38.24-.71.49-.98.74-.27.26-.41.5-.41.72ZM1077,229.54l-.05-3.55,3.22-1.68,30.14-1.2c.03.61.1,1.31.19,2.11.1.8.19,1.44.29,1.92-4.74.26-8.82.47-12.24.65-3.42.18-6.31.33-8.66.46-2.35.13-4.29.25-5.81.36-1.52.11-2.74.21-3.65.29-.91.08-1.62.17-2.11.26-.5.1-.94.22-1.32.38ZM1079.11,233.19h31.58v20.59h-4.85v-16.22h-22.08v16.27h-4.66v-20.64ZM1081.37,246.92h26.78v4.37h-26.78v-4.37ZM1099.32,216.68l3.55-2.35c1.5,1.34,3.09,2.86,4.75,4.54,1.66,1.68,3.21,3.35,4.63,5.02s2.55,3.17,3.38,4.51l-3.89,2.83c-.77-1.38-1.84-2.91-3.22-4.61-1.38-1.7-2.87-3.41-4.49-5.14-1.62-1.73-3.19-3.33-4.73-4.8Z"/>
    </g>
  </g>
</svg>