<?xml version="1.0" encoding="UTF-8"?>
<svg id="_圖層_1" xmlns="http://www.w3.org/2000/svg" version="1.1" viewBox="0 0 240 240">
  <!-- Generator: Adobe Illustrator 29.5.1, SVG Export Plug-In . SVG Version: 2.1.0 Build 141)  -->
  <defs>
    <style>
      .st0 {
        fill: #fff;
        stroke-miterlimit: 10;
      }

      .st0, .st1 {
        stroke: #000;
        stroke-width: 12px;
      }

      .st1 {
        fill: none;
        stroke-miterlimit: 10;
      }
    </style>
  </defs>
  <rect class="st0" x="66" y="10.9" width="150" height="175" rx="5" ry="5"/>
  <g>
    <rect class="st0" x="15" y="52.7" width="150" height="175" rx="5" ry="5"/>
    <g>
      <path class="st1" d="M126.1,104.2h0c7.8,7.8,7.8,20.5,0,28.3l-14.1,14.1c-7.8,7.8-20.5,7.8-28.3,0h0c-7.8-7.8-7.8-20.5,0-28.3l14.1-14.1c7.8-7.8,20.5-7.8,28.3,0Z"/>
      <path class="st1" d="M96.4,133.7h0c7.8,7.8,7.8,20.5,0,28.3l-14.1,14.1c-7.8,7.8-20.5,7.8-28.3,0h0c-7.8-7.8-7.8-20.5,0-28.3l14.1-14.1c7.8-7.8,20.5-7.8,28.3,0Z"/>
    </g>
  </g>
</svg>