<?xml version="1.0" encoding="UTF-8"?>
<svg id="_圖層_2" data-name="圖層 2" xmlns="http://www.w3.org/2000/svg" viewBox="0 0 236.96 38.95">
  <defs>
    <style>
      .cls-1 {
        fill: #fff;
      }

      .cls-2 {
        fill: #67c1bd;
      }
    </style>
  </defs>
  <g id="_圖層_2-2" data-name="圖層 2">
    <g>
      <g>
        <polygon class="cls-1" points="13.39 32.31 22.31 1.11 23.13 7.03 14.17 38.38 13.39 32.31"/>
        <path class="cls-1" d="M83.23,32.31V0h2.65v38.38l-2.65-6.07ZM85.87,38.95h-3.3L59.46,2.92v36.03h-2.59V0h3.67l22.69,35.44,2.65,3.51Z"/>
        <path class="cls-1" d="M95.61,0h13.4c10.53,0,17.34,7.89,17.34,20.2,0,6-1.78,10.75-5.24,14.15-3.29,3.19-7.4,4.59-13.77,4.59h-11.72V0ZM98.26,2.32v34.19h9.4c5.51,0,8.91-1.19,11.67-4,2.81-2.92,4.32-7.35,4.32-12.59,0-5.67-1.67-10.64-4.59-13.56-2.65-2.7-6.32-4.05-11.18-4.05h-9.61Z"/>
        <polygon class="cls-1" points="185.68 38.95 182.97 38.95 169.47 0 171.96 0 184.27 35.44 185.68 38.95"/>
        <polygon class="cls-1" points="185.35 32.31 196.48 0 199.02 0 185.87 38.38 185.35 32.31"/>
        <path class="cls-1" d="M223.55,17.98c5.77-.23,9.52-3.3,9.52-7.93s-3.89-7.83-9.02-7.83h-13.18v36.73h-2.65V0h15.83c6.91,0,11.67,4.11,11.67,10.1,0,2.86-1.19,5.4-3.46,7.29-1.4,1.19-2.38,1.67-4.97,2.43l9.67,19.12h-2.65l-9.56-18.69-1.2-2.28Z"/>
        <path class="cls-1" d="M150.03,17.98c5.77-.23,9.52-3.3,9.52-7.93s-3.89-7.83-9.02-7.83h-13.18v36.73h-2.65V0h15.83c6.91,0,11.67,4.11,11.67,10.1,0,2.86-1.19,5.4-3.46,7.29-1.4,1.19-2.38,1.67-4.97,2.43l9.67,19.12h-2.65l-9.56-18.69-1.2-2.28Z"/>
        <path class="cls-1" d="M22.6,0h2.65l11.47,38.95h-2.66L22.6,0ZM36.1,32.31L45.29.17h2.54l-10.96,38.21-.77-6.07ZM13.99,38.95h-2.81L0,0h2.48l11.51,38.95Z"/>
      </g>
      <polygon class="cls-1" points="13.39 32.31 22.31 1.11 23.13 7.03 14.17 38.38 13.39 32.31"/>
      <path class="cls-1" d="M83.23,32.31V0h2.65v38.38l-2.65-6.07ZM85.87,38.95h-3.3L59.46,2.92v36.03h-2.59V0h3.67l22.69,35.44,2.65,3.51Z"/>
      <path class="cls-1" d="M95.61,0h13.4c10.53,0,17.34,7.89,17.34,20.2,0,6-1.78,10.75-5.24,14.15-3.29,3.19-7.4,4.59-13.77,4.59h-11.72V0ZM98.26,2.32v34.19h9.4c5.51,0,8.91-1.19,11.67-4,2.81-2.92,4.32-7.35,4.32-12.59,0-5.67-1.67-10.64-4.59-13.56-2.65-2.7-6.32-4.05-11.18-4.05h-9.61Z"/>
      <polygon class="cls-1" points="185.68 38.95 182.97 38.95 169.47 0 171.96 0 184.27 35.44 185.68 38.95"/>
      <polygon class="cls-2" points="185.35 32.31 196.48 0 199.02 0 185.87 38.38 185.35 32.31"/>
      <path class="cls-1" d="M223.55,17.98c5.77-.23,9.52-3.3,9.52-7.93s-3.89-7.83-9.02-7.83h-13.18v36.73h-2.65V0h15.83c6.91,0,11.67,4.11,11.67,10.1,0,2.86-1.19,5.4-3.46,7.29-1.4,1.19-2.38,1.67-4.97,2.43l9.67,19.12h-2.65l-9.56-18.69-1.2-2.28Z"/>
      <path class="cls-1" d="M150.03,17.98c5.77-.23,9.52-3.3,9.52-7.93s-3.89-7.83-9.02-7.83h-13.18v36.73h-2.65V0h15.83c6.91,0,11.67,4.11,11.67,10.1,0,2.86-1.19,5.4-3.46,7.29-1.4,1.19-2.38,1.67-4.97,2.43l9.67,19.12h-2.65l-9.56-18.69-1.2-2.28Z"/>
      <path class="cls-1" d="M22.6,0h2.65l11.47,38.95h-2.66L22.6,0ZM36.1,32.31L45.29.17h2.54l-10.96,38.21-.77-6.07ZM13.99,38.95h-2.81L0,0h2.48l11.51,38.95Z"/>
    </g>
  </g>
</svg>