<svg xmlns="http://www.w3.org/2000/svg" viewBox="0 0 300 300"><defs><style>.cls-1{fill:#fff;}.cls-2{fill:#7289da;}</style></defs><title>Asset 1</title><g id="Layer_2" data-name="Layer 2"><g id="Layer_1-2" data-name="Layer 1"><path class="cls-1" d="M150,293.46c20.55,0,43.23,11.45,61.1,4.05,18.52-7.68,26.38-32.11,40.34-46.07s38.39-21.82,46.07-40.34c7.4-17.87-4.05-40.55-4.05-61.1s11.45-43.23,4.05-61.1c-7.68-18.52-32.11-26.38-46.07-40.34S229.62,10.17,211.1,2.49C193.23-4.92,170.55,6.54,150,6.54s-43.23-11.46-61.1-4C70.38,10.17,62.52,34.6,48.56,48.56S10.17,70.38,2.49,88.9c-7.41,17.87,4.05,40.55,4.05,61.1s-11.46,43.23-4,61.1c7.68,18.52,32.11,26.38,46.07,40.34s21.82,38.39,40.34,46.07c17.87,7.4,40.55-4.05,61.1-4.05"/><path class="cls-2" d="M150,293.46c20.55,0,43.23,11.45,61.1,4.05,18.52-7.68,26.38-32.11,40.34-46.07s38.39-21.82,46.07-40.34c7.4-17.87-4.05-40.55-4.05-61.1s11.45-43.23,4.05-61.1c-7.68-18.52-32.11-26.38-46.07-40.34S229.62,10.17,211.1,2.49C193.23-4.92,170.55,6.54,150,6.54s-43.23-11.46-61.1-4C70.38,10.17,62.52,34.6,48.56,48.56S10.17,70.38,2.49,88.9c-7.41,17.87,4.05,40.55,4.05,61.1s-11.46,43.23-4,61.1c7.68,18.52,32.11,26.38,46.07,40.34s21.82,38.39,40.34,46.07c17.87,7.4,40.55-4.05,61.1-4.05m-27.3-51.61a5.65,5.65,0,0,1-5.43,3.86l1.89,8.43-5.07-1.07-1.52-8-1.13-.44L109,250.91l-4.49-1.72,7-18.23,6.37,2.44c4.41,1.69,6.23,4.7,4.79,8.45m17.18,1.09-2,15.28-4.82-.65,2.05-15.28-5.46-.73.54-4.06,15.3,2.05.13,4.16Zm13.38,15.9-1-19.49,4.83-.24,1,19.48Zm20.6-2.61-4.69,1.08-4.36-19,11.38-2.61.91,3.94-6.7,1.54.89,3.89,5-1.14,1.57,3.79L172.19,249Zm16.06-4.89-7.55-18,4.46-1.87,7.55,18Zm14.52-6.87-10.63-16.36L204,221.48l2.13,3.28-6.21,4,2,3.08,4.74-3.08,2.63,2.91L204,235.12l2.25,3.46,6.43-4.17,2.14,3.29Zm23.74-18.71-4.7,5-14.19-13.4,4.63-4.89c4.66-4.94,9.94-4.81,14.16-.83s4.63,9.36.1,14.15m6.33-141.07-2.5-3-9.17,7.64.36-9.8,9.44-7.87,7,8.41c3.76,4.51,5,10.64-.25,15l-7.55,6.3c-5.17,4.31-10.94,2-14.67-2.56l-7-8.41L215.5,86l7.17,8.6c1.61,1.94,3.34,2,4.8.79l7-5.85c1.46-1.21,1.62-2.9,0-4.81M201.76,49.84l10,6.06c5.15,3.12,7.71,7.91,4.3,13.85-2.81,4.62-6.26,6.1-9.87,5.21l1.6,12.7-7.86-4.77-1-11.45-1.13-.68L193,78.7l-6.38-3.88Zm-41.24,8.47,2.11-9.75c1.43-6.57,8-8.52,13.94-7.24s11.15,5.84,9.73,12.37l-2.12,9.76c-1.42,6.53-8,8.52-13.94,7.23s-11.14-5.83-9.72-12.37m24.33,67.45s-6.93-6.59-22-11.12l1.24-1.41s12-.3,24.76,9.19c0,0,12.71,22.84,12.71,51,0,0-7.45,12.75-26.95,13.34,0,0-3.15-3.78-5.78-7.1,11.59-3.22,16-10.42,16-10.42a54,54,0,0,1-10.18,5.2,64.31,64.31,0,0,1-12.84,3.79,62.72,62.72,0,0,1-22.87-.05,68.22,68.22,0,0,1-13-3.77,50.86,50.86,0,0,1-6.49-3l-.82-.45-.39-.22c-1.57-.89-2.43-1.49-2.43-1.49s4.24,7,15.47,10.29c-2.66,3.34-5.89,7.23-5.89,7.23-19.5-.59-27-13.34-27-13.34,0-28.17,12.71-51,12.71-51,12.72-9.49,24.76-9.19,24.76-9.19l.91,1c-15.93,4.53-23.17,11.5-23.17,11.5a53,53,0,0,1,5.24-2.5,68,68,0,0,1,20-5.54l1.48-.2a75.55,75.55,0,0,1,17.85-.16,72.43,72.43,0,0,1,26.6,8.4M141.36,39.25a10.84,10.84,0,0,1,10.93,5.6l-5.73,3.06c-2.36-3.4-8.75-1.89-8.36,1.72l1.06,10c.38,3.49,7,3.78,8.21-.41l6.72,2.27a11.76,11.76,0,0,1-9.77,7.63c-5.7.61-11.79-2.1-12.5-8.7l-1.06-10c-.7-6.56,4.68-10.54,10.5-11.16M107.26,48a12,12,0,0,1,11,.32l-3,5.32c-4.1-1.78-8.86.41-7.63,3.56.63,1.26,2.36,1.41,4.64,1,5.14-1.18,10.63-1.58,13.17,5.14,2,5.29-2.21,10.48-7.14,12.6A12.78,12.78,0,0,1,107.14,75l2.55-5.86c4.09,2.1,10.06-.3,9-3.25-.58-1.55-3.42-1.36-5.74-.72-4.61,1.18-9.73.16-11.93-5C98.76,55,102.33,50.13,107.26,48m-20,11.54,17.49,23.38-5.91,4.42L81.36,64ZM57.09,89.75,64,81.25c3.7-4.55,9.47-6.94,14.76-2.64l7.63,6.2c5.23,4.25,4,10.36.31,14.89l-6.91,8.5-5.38-4.38,7.06-8.69c1.59-1.95,1.32-3.66-.15-4.86l-7.09-5.76c-1.47-1.2-3.16-1-4.72.9l-2.46,3L76.31,96,66.63,97.5ZM76.32,216.33c-2.74,2.61-3,5.67-.86,7.88a8.34,8.34,0,0,0,4.15,2.19l-2.51,3.23a10.89,10.89,0,0,1-5-3.06c-4-4.23-3.62-9.48.85-13.73s9.89-4.29,14,0a10,10,0,0,1,2.62,4.61l-3.63,2.5a6.67,6.67,0,0,0-1.75-4.14c-2.1-2.22-5.13-2-7.84.54m21.85,20.31L93,233.13l-2.31,3.43L97,240.83l-2.19,3.27-10.3-6.93L95.41,221l10.09,6.79L103.32,231l-6.15-4.13-2,3,4.69,3.15Z"/><path class="cls-2" d="M165.76,165.26c5,0,9-4.34,9-9.69s-4-9.69-9-9.69-9,4.34-9,9.69,4,9.69,9,9.69"/><path class="cls-2" d="M216.55,215.12l-1.2,1.28,8.72,8.24,1.2-1.28c2.37-2.51,2.53-5.32-.51-8.19s-5.93-2.45-8.21,0"/><path class="cls-2" d="M208.27,61.86l-3.7-2.25-3.47,5.71,3.71,2.25a3.34,3.34,0,1,0,3.46-5.71"/><path class="cls-2" d="M133.59,145.88c-5,0-9,4.34-9,9.69s4,9.69,9,9.69,9-4.34,9-9.69-4-9.69-9-9.69"/><path class="cls-2" d="M116.15,236.64l-1.45-.56-2,5.31,1.4.54c2,.75,3.43.22,4.1-1.52s0-3-2-3.77"/><path class="cls-2" d="M171.7,64c2.29.5,4.82-.05,5.27-2.11l2.11-9.75c.48-2.22-1.68-3.74-4-4.25s-4.76.15-5.22,2.24l-2.12,9.76c-.45,2.1,1.67,3.61,4,4.11"/></g></g></svg>