<?xml version="1.0" encoding="UTF-8"?>
<svg id="_圖層_1" data-name="圖層_1" xmlns="http://www.w3.org/2000/svg" version="1.1" viewBox="0 0 80 80">
  <!-- Generator: Adobe Illustrator 29.3.1, SVG Export Plug-In . SVG Version: 2.1.0 Build 151)  -->
  <defs>
    <style>
      .st0, .st1 {
        fill-rule: evenodd;
      }

      .st1 {
        fill: #44a9ff;
      }
    </style>
  </defs>
  <path class="st1" d="M68.9,14.6c3.1,3.1,5.5,6.7,7.2,10.7,1.7,4,2.5,8.3,2.5,12.6s-.9,8.6-2.5,12.6c-1.7,4-4.1,7.6-7.2,10.7l-4.2-4.2c2.5-2.5,4.5-5.5,5.9-8.8,1.4-3.3,2.1-6.8,2.1-10.3s-.7-7.1-2.1-10.3c-1.4-3.3-3.3-6.3-5.9-8.8l4.2-4.2Z"/>
  <path class="st1" d="M62.1,21.9c2.1,2.1,3.8,4.6,4.9,7.4,1.1,2.8,1.7,5.7,1.7,8.7s-.6,5.9-1.7,8.7c-1.1,2.8-2.8,5.3-4.9,7.4l-4.2-4.2c1.6-1.6,2.8-3.4,3.6-5.4.8-2,1.3-4.2,1.3-6.4s-.4-4.4-1.3-6.4c-.8-2-2.1-3.9-3.6-5.4l4.2-4.2Z"/>
  <path class="st0" d="M50,6h-6L14,26v20h-6v-14h4v-6h-4l-6,6v14l6,6h2l8,24h12v-13.3l14,9.3h6l6-6V12l-6-6ZM20,50v-22l20-13.3v48.7l-20-13.3ZM46,66h4V12h-4v54ZM24,58.7l-7.4-5,5.4,16.3h2v-11.3Z"/>
</svg>