<?xml version="1.0" encoding="UTF-8"?>
<svg id="_圖層_1" data-name="圖層_1" xmlns="http://www.w3.org/2000/svg" version="1.1" viewBox="0 0 80 80">
  <!-- Generator: Adobe Illustrator 29.3.1, SVG Export Plug-In . SVG Version: 2.1.0 Build 151)  -->
  <defs>
    <style>
      .st0 {
        fill: #44a9ff;
      }
    </style>
  </defs>
  <path d="M17,2h28v6H11l6-6Z"/>
  <rect x="13" y="8" width="10" height="10"/>
  <rect x="39" y="8" width="6" height="6"/>
  <rect x="13" y="44" width="6" height="6"/>
  <path d="M7,12l6-6v44h-6V12Z"/>
  <path class="st0" d="M31,16h28v6H25l6-6Z"/>
  <rect class="st0" x="27" y="22" width="10" height="10"/>
  <rect class="st0" x="53" y="22" width="6" height="6"/>
  <rect class="st0" x="27" y="58" width="6" height="6"/>
  <path class="st0" d="M21,26l6-6v44h-6V26Z"/>
  <path d="M45,30h28v6h-34l6-6Z"/>
  <path d="M35,40l6-6v38h-6v-32Z"/>
  <path d="M41,36h10v10h-10v-10Z"/>
  <path d="M35,72h38l-6,6h-32v-6Z"/>
  <path d="M67,36h6v36h-6v-36Z"/>
</svg>