<svg id="圖層_1" data-name="圖層 1" xmlns="http://www.w3.org/2000/svg" viewBox="0 0 64 64"><defs><style>.cls-1{fill:#fff;}</style></defs><path class="cls-1" d="M27.85,29.25A10.54,10.54,0,0,0,21.12,27a11,11,0,1,0,0,22,10.72,10.72,0,0,0,8.45-3.83V39.08a13.2,13.2,0,0,1-5.25,5.13,8.21,8.21,0,0,1-3.2.67,6.86,6.86,0,0,1-7-6.87,6.94,6.94,0,0,1,7-6.93,7.06,7.06,0,0,1,4.88,2c1.31,1.27,3.35,3.93,4.33,5a13.83,13.83,0,1,0-.76-17.57v8.2c1.91-5.21,5.35-9.36,10.75-9.36A9.42,9.42,0,1,1,34.23,36c-2-1.59-4.27-4.95-6.38-6.72"/></svg>