<?xml version="1.0" encoding="UTF-8"?>
<svg id="_圖層_2" data-name="圖層 2" xmlns="http://www.w3.org/2000/svg" viewBox="0 0 442.87 40.74">
  <defs>
    <style>
      .cls-1 {
        fill: #fff;
      }
    </style>
  </defs>
  <g id="_圖層_2-2" data-name="圖層 2">
    <g>
      <g>
        <path class="cls-1" d="M44.6,31.17c-.81,2.39-2.22,5.02-3.47,6.7-.4-.3-1.25-.94-1.75-1.21,1.31-1.58,2.49-3.87,3.17-6.06l2.06.57ZM48.74,28.81v11.69h-2.46v-11.69h-6.7v-2.16h6.7v-3.54h-6.87v-2.12h9.3c.64-1.55,1.42-3.77,1.82-5.32l2.29.47c-.61,1.62-1.25,3.44-1.89,4.85h4.28v2.12h-6.47v3.54h6.1v2.16h-6.1ZM54.7,15.47h-14.76v-2.09h6.6c-.44-1.01-1.01-2.16-1.48-3.07l2.43-.64c.71,1.15,1.45,2.59,1.92,3.71h5.29v2.09ZM43.42,20.86c-.17-1.25-.71-3.2-1.28-4.68l1.99-.47c.67,1.45,1.25,3.33,1.38,4.58l-2.09.57ZM51.98,30.4c1.08,1.65,2.26,3.84,2.83,5.29l-1.79,1.01c-.54-1.45-1.75-3.77-2.76-5.39l1.72-.91ZM69.9,23.49h-3.67v16.98h-2.43v-16.98h-4.62v1.18c0,4.82-.44,11.42-3.5,15.8-.4-.47-1.38-1.25-1.92-1.52,2.83-4.04,3.1-9.8,3.1-14.29v-11.59c3.77-.61,8.05-1.62,10.48-2.63l1.99,1.85c-2.76,1.04-6.6,1.89-10.14,2.43v6.4h10.71v2.36Z"/>
        <path class="cls-1" d="M83.13,19.14v21.46h-2.46v-21.46h-1.62c-1.04,2.46-2.26,4.68-3.54,6.44-.47-.4-1.62-1.15-2.26-1.52,2.76-3.4,4.89-8.79,6.13-14.22l2.56.54c-.54,2.16-1.18,4.28-1.92,6.3h9.1v2.46h-6ZM104.53,19.14h-5.09v18.16c0,1.62-.34,2.39-1.42,2.76-1.08.47-2.96.5-5.59.5-.13-.74-.47-1.89-.84-2.63,2.06.07,4.01.07,4.62.03.57-.03.71-.17.71-.67v-18.16h-4.92c-1.04,2.43-2.22,4.65-3.54,6.4-.44-.44-1.52-1.18-2.16-1.52,2.73-3.4,4.78-8.73,5.96-14.18l2.49.51c-.51,2.19-1.11,4.31-1.85,6.33h11.62v2.46Z"/>
        <path class="cls-1" d="M137.64,11.39v29.31h-2.46v-1.55h-23.11v1.55h-2.39V11.39h27.96ZM135.18,36.9V13.68h-23.11v23.21h23.11ZM123.76,31.78c-3.5.67-7.08,1.38-9.84,1.89l-.34-1.89c2.56-.4,6.3-1.08,10.07-1.75l.1,1.75ZM132.12,21.97c-.84,3.17-2.12,5.93-3.74,8.25.71,1.79,1.62,2.93,2.73,3.1.47.13.81-1.31,1.04-3.47.4.4,1.15.91,1.62,1.11-.44,3.67-1.58,5.02-3.34,4.35-1.45-.3-2.59-1.48-3.5-3.27-1.31,1.52-2.8,2.8-4.45,3.88-.3-.4-1.04-1.21-1.48-1.58,1.99-1.15,3.67-2.63,5.09-4.38-.91-2.7-1.48-6.17-1.85-9.97h-10.31v-1.89h10.14c-.1-1.18-.2-2.36-.27-3.57h2.16c.07,1.21.13,2.39.2,3.57h7.34v1.89h-7.18c.27,2.9.67,5.59,1.25,7.75,1.08-1.82,1.92-3.91,2.49-6.2l2.06.44ZM122.55,22.11v6.54h-7.45v-6.54h7.45ZM120.73,23.69h-3.87v3.37h3.87v-3.37ZM131.44,17.73c-.74-.74-2.29-1.79-3.6-2.36l1.18-1.25c1.31.61,2.86,1.52,3.64,2.29l-1.21,1.31Z"/>
        <path class="cls-1" d="M163.31,35.99c3.54.94,7.28,2.19,9.64,3.13l-2.26,1.52c-2.22-1.01-5.96-2.33-9.74-3.4l1.42-1.25h-8.66l1.92,1.21c-2.73,1.45-7.24,2.8-10.92,3.4-.34-.47-1.08-1.28-1.55-1.75,3.47-.54,7.75-1.75,9.97-2.86h-5.05v-10.61c-1.42.2-2.8.37-4.18.5-.24-.57-.88-1.65-1.31-2.12,1.45-.1,2.96-.24,4.51-.4-.37-.44-1.15-1.21-1.55-1.55,2.16-.84,4.51-1.99,5.86-3.3l2.09.64c-1.55,1.62-4.01,3.2-6.17,4.18,3.3-.37,6.64-.84,9.67-1.55v-3.61h-7.75v-1.89h18.02v1.89h-8.02v3.03c2.73-.74,5.09-1.68,6.84-2.76l2.09,1.15c-2.49,1.65-5.86,2.9-9.67,3.87h10.28v12.53h-5.49ZM146.7,18.03h-2.29v-5.59h12.33c-.37-.71-.74-1.42-1.11-2.06l2.29-.81c.57.84,1.21,1.99,1.68,2.86h12.43v5.59h-2.39v-3.5h-22.94v3.5ZM150.51,25.04v2.09h15.8v-2.12h-15.53l-.27.03ZM166.31,28.61h-15.8v2.16h15.8v-2.16ZM150.51,34.44h15.8v-2.16h-15.8v2.16Z"/>
        <path class="cls-1" d="M182,16.48c-1.11,1.18-2.36,2.22-3.54,3.07-.2-.54-.77-1.75-1.18-2.32,2.73-1.75,5.53-4.55,7.08-7.55l2.12.74c-.24.4-.47.81-.71,1.25,1.85,1.18,4.08,2.73,5.26,3.77l-1.25,1.75c-1.18-1.01-3.27-2.59-5.12-3.84-.77,1.04-1.62,2.06-2.49,2.96h5.56v1.72h-5.73v-1.55ZM188.3,39.49c-.2-.74-.51-1.65-.84-2.59-6.84,2.73-7.85,3.2-8.46,3.67-.17-.57-.54-1.58-.88-2.09.57-.24,1.42-.78,1.42-2.02v-16.44h10.11v11.29h-7.88v5.66l5.05-1.89c-.34-.81-.67-1.58-.98-2.33l1.89-.61c.91,2.12,2.06,4.92,2.56,6.54l-1.99.81ZM181.76,21.94v2.56h5.79v-2.56h-5.79ZM187.56,29.38v-3.03h-5.79v3.03h5.79ZM206.97,19.61c-.84,5.69-2.46,10.28-4.68,13.85,1.65,2.19,3.64,3.98,6.03,5.16-.57.44-1.28,1.35-1.65,1.92-2.29-1.21-4.21-2.96-5.79-5.05-1.72,2.22-3.77,3.98-6,5.26-.34-.54-.98-1.42-1.48-1.85,2.29-1.18,4.35-3.03,6.1-5.46-1.99-3.3-3.4-7.38-4.38-11.93h-.07v1.82c0,5.12-.4,12.43-3.17,17.28-.4-.34-1.42-.98-1.92-1.21,2.63-4.65,2.83-11.22,2.83-16.07v-11.49h14.22v2.29h-11.96v5.15h10.04l.44-.1,1.45.44ZM197.26,21.5c.77,3.64,1.95,7.01,3.57,9.8,1.62-2.73,2.83-6.03,3.5-9.8h-7.08Z"/>
        <path class="cls-1" d="M242.07,13.95v2.43h-24.8v6.3c0,5.19-.51,12.87-3.5,17.96-.47-.4-1.58-1.15-2.19-1.42,2.86-4.85,3.17-11.69,3.17-16.54v-8.73h13.14c-.47-1.11-1.08-2.39-1.75-3.4l2.39-.61c.88,1.21,1.68,2.8,2.16,4.01h11.39ZM230.14,21.47h10.88v2.29h-10.88v4.51h9.27v11.86h-2.49v-1.28h-14.22v1.35h-2.43v-11.93h7.34v-10.78h2.53v3.98ZM236.91,30.6h-14.22v6.03h14.22v-6.03Z"/>
        <path class="cls-1" d="M247.89,35.48h5.49v-18.43h-4.38v-1.96c2.19-.4,3.77-.98,5.12-1.79h2.36v22.17h4.95v2.56h-13.54v-2.56Z"/>
        <path class="cls-1" d="M266.11,25.61c0-8.59,3-12.73,7.72-12.73s7.68,4.18,7.68,12.73-3,12.87-7.68,12.87-7.72-4.28-7.72-12.87ZM278.51,25.61c0-7.21-1.89-10.28-4.68-10.28s-4.72,3.07-4.72,10.28,1.89,10.41,4.72,10.41,4.68-3.13,4.68-10.41Z"/>
        <path class="cls-1" d="M294.11,28.21c-.44-1.11-1.52-3.07-2.43-4.72v17.12h-2.29v-16.37c-.84,3.54-1.99,7.14-3.13,9.47-.27-.74-.88-1.85-1.25-2.46,1.58-2.9,3.27-8.36,4.01-12.57h-3.54v-2.36h3.91v-6.47h2.29v6.47h3.37v2.36h-3.37v1.75c.88,1.18,3.37,5.09,3.94,6l-1.52,1.79ZM312.07,32.38c-.67,1.58-1.62,2.9-2.96,4.08,2.53.81,4.89,1.68,6.64,2.49l-1.85,1.58c-1.68-.84-4.11-1.82-6.87-2.7-2.46,1.31-5.86,2.26-10.68,2.86-.17-.54-.57-1.41-.94-1.85,3.84-.44,6.67-1.04,8.86-1.92-2.22-.64-4.45-1.25-6.5-1.72.77-.81,1.68-1.79,2.53-2.83h-4.51v-1.99h6.03c.64-.84,1.21-1.69,1.68-2.49h-6.47v-5.46h7.61v-1.69h-6.91v-3.47h-1.95v-1.95h1.95v-3.34h6.91v-2.16h2.36v2.16h6.91v3.34h2.09v1.95h-2.09v3.47h-6.91v1.69h7.75v5.46h-8.66c-.47.81-1.04,1.65-1.65,2.49h6.03c.13-.47.27-.98.37-1.45h2.26c-.1.47-.24.98-.3,1.45h3.47v1.99h-4.18ZM299.26,26.22h5.36v-2.06h-5.36v2.06ZM299.9,13.68v1.85h4.72v-1.85h-4.72ZM304.62,19.08v-2.02h-4.72v2.02h4.72ZM302.93,32.38c-.57.67-1.08,1.31-1.58,1.89,1.72.4,3.54.88,5.36,1.42,1.35-.91,2.29-2.02,2.96-3.3h-6.74ZM306.98,13.68v1.85h4.65v-1.85h-4.65ZM311.63,19.08v-2.02h-4.65v2.02h4.65ZM306.98,24.16v2.06h5.39v-2.06h-5.39Z"/>
        <path class="cls-1" d="M349.36,11.39v29.31h-2.46v-1.55h-23.11v1.55h-2.39V11.39h27.96ZM346.9,36.9V13.68h-23.11v23.21h23.11ZM335.47,31.78c-3.5.67-7.08,1.38-9.84,1.89l-.34-1.89c2.56-.4,6.3-1.08,10.07-1.75l.1,1.75ZM343.83,21.97c-.84,3.17-2.12,5.93-3.74,8.25.71,1.79,1.62,2.93,2.73,3.1.47.13.81-1.31,1.04-3.47.4.4,1.15.91,1.62,1.11-.44,3.67-1.58,5.02-3.34,4.35-1.45-.3-2.59-1.48-3.5-3.27-1.31,1.52-2.8,2.8-4.45,3.88-.3-.4-1.04-1.21-1.48-1.58,1.99-1.15,3.67-2.63,5.09-4.38-.91-2.7-1.48-6.17-1.85-9.97h-10.31v-1.89h10.14c-.1-1.18-.2-2.36-.27-3.57h2.16c.07,1.21.13,2.39.2,3.57h7.34v1.89h-7.18c.27,2.9.67,5.59,1.25,7.75,1.08-1.82,1.92-3.91,2.49-6.2l2.06.44ZM334.26,22.11v6.54h-7.45v-6.54h7.45ZM332.44,23.69h-3.87v3.37h3.87v-3.37ZM343.16,17.73c-.74-.74-2.29-1.79-3.6-2.36l1.18-1.25c1.31.61,2.86,1.52,3.64,2.29l-1.21,1.31Z"/>
        <path class="cls-1" d="M365.12,12.03c-.94,2.73-2.16,6.06-3.23,8.76,2.36,2.8,2.93,5.22,2.93,7.28,0,1.82-.4,3.27-1.28,3.91-.47.37-1.08.54-1.68.64-.67.07-1.52.1-2.22.03-.03-.61-.24-1.52-.61-2.12.74.03,1.38.07,1.92.03.4-.03.74-.13.98-.34.54-.37.71-1.31.71-2.33,0-1.85-.57-4.14-2.9-6.84.94-2.43,1.89-5.32,2.56-7.58h-4.31v27.05h-2.19V11.22h7.41l.37-.13,1.55.94ZM369.4,21.16c.47-.61.91-1.25,1.28-1.92-.74-.84-1.89-1.85-3-2.7-.74,1.04-1.55,2.02-2.39,2.83-.34-.34-1.18-.98-1.65-1.28,2.29-1.99,4.18-4.99,5.26-8.22l1.95.44c-.24.74-.51,1.41-.81,2.12h3.54l.37-.07,1.28.47c-.94,4.21-2.73,7.75-4.92,10.41h9.74c-2.02-2.66-3.71-6.1-4.75-9.7l1.42-.37v-1.52h6.33l.4-.1,1.42.84c-1.01,2.76-2.73,5.69-4.48,7.68,1.45,2.22,3.17,4.08,5.09,5.19-.51.4-1.15,1.18-1.48,1.75-1.38-.91-2.63-2.16-3.81-3.61v1.92h-10.41v-1.45c-1.11,1.21-2.32,2.26-3.57,3.03-.3-.47-.88-1.18-1.35-1.55,1.58-.94,3.13-2.39,4.48-4.14-1.72.3-3.27.54-4.82.81l-.3-1.75c1.48-.13,3.13-.34,5.15-.57l.03,1.45ZM371.15,32.99c-1.28,2.12-3.2,4.62-4.68,6.2-.47-.37-1.42-1.01-2.02-1.31,1.58-1.52,3.3-3.71,4.48-5.63l2.22.74ZM376.2,30.56v10.04h-2.36v-10.04h-7.38v-2.09h17.12v2.09h-7.38ZM369.13,14.22c-.17.3-.37.61-.54.88,1.01.78,2.12,1.69,2.96,2.49.51-1.04.94-2.19,1.31-3.37h-3.74ZM377.35,13.48c.51,1.65,1.18,3.27,1.99,4.79,1.04-1.38,2.06-3.17,2.73-4.79h-4.72ZM380.55,32.01c1.68,1.79,3.84,4.24,4.92,5.69l-1.89,1.28c-1.08-1.48-3.2-4.04-4.85-5.9l1.82-1.08Z"/>
        <path class="cls-1" d="M390.95,13.31h7.34c5.02,0,8.49,1.72,8.49,6.06,0,2.46-1.31,4.62-3.6,5.36v.17c2.93.57,5.02,2.53,5.02,5.9,0,4.85-3.84,7.24-9.37,7.24h-7.88V13.31ZM397.76,23.86c4.25,0,5.96-1.58,5.96-4.08,0-2.9-1.99-3.98-5.83-3.98h-3.81v8.05h3.67ZM398.4,35.55c4.25,0,6.74-1.52,6.74-4.85,0-3.07-2.43-4.48-6.74-4.48h-4.31v9.33h4.31Z"/>
        <path class="cls-1" d="M416.52,14.39v8.49c0,5.19-.37,12.74-2.83,17.79-.37-.4-1.38-1.11-1.92-1.35,2.26-4.78,2.46-11.56,2.46-16.41v-10.58h12.74c-.34-.67-.77-1.31-1.21-1.89l2.12-.88c.67.81,1.38,1.89,1.85,2.76h12.67v2.05h-25.88ZM424.17,31.57c-.84.13-1.75.3-2.73.44v2.05h2.26v1.55h-2.26v1.99l2.49-.27.03,1.58c-2.56.34-5.05.67-7.18.88l-.24-1.72,3.17-.34v-2.12h-2.39v-1.55h2.39v-1.85c-.84.07-1.75.13-2.53.13-.07-.4-.3-1.01-.54-1.48,2.22-.17,4.89-.5,6.47-.88l1.04,1.58ZM426.76,18.03v22.67h-1.95v-12.09h-7.68v-1.72h1.99v-8.86h-1.55v-1.72h10.85v1.72h-1.65ZM424.81,18.03h-3.81v1.85h3.81v-1.85ZM421,23.32h3.81v-1.95h-3.81v1.95ZM424.81,26.89v-2.12h-3.81v2.12h3.81ZM427.44,38.68c.81-1.21,1.35-3.23,1.55-5.02l1.68.47c-.27,1.92-.71,4.08-1.62,5.39l-1.62-.84ZM442.67,30.93h-14.55v-1.82h14.55v1.82ZM436.26,15.34v2.02h5.79v1.85h-5.79v1.85h5.56v6.43h-12.87v-6.43h5.15v-1.85h-5.42v-1.85h5.42v-2.02h2.16ZM432.69,22.65h-2.06v3.27h2.06v-3.27ZM436.63,38.72c.64,0,.77-.2.84-2.26.4.3,1.11.57,1.68.71-.2,2.63-.74,3.3-2.26,3.3h-2.9c-2.02,0-2.53-.5-2.53-2.43v-4.62h1.89v4.62c0,.61.1.67.88.67h2.39ZM435.79,35.85c-.51-1.14-1.75-2.86-2.9-4.11l1.52-.81c1.15,1.18,2.46,2.83,2.93,3.97l-1.55.94ZM436.4,22.65h-2.19v3.27h2.19v-3.27ZM437.91,25.91h2.19v-3.27h-2.19v3.27ZM440.1,33.23c1.31,1.65,2.43,3.87,2.76,5.42l-1.79.71c-.34-1.52-1.42-3.81-2.66-5.49l1.68-.64Z"/>
      </g>
      <path class="cls-1" d="M14.75,0C6.6,0,0,6.6,0,14.75s14.75,24.61,14.75,24.61c0,0,14.75-16.46,14.75-24.61S22.89,0,14.75,0ZM14.75,20.62c-3.24,0-5.87-2.63-5.87-5.87s2.63-5.87,5.87-5.87,5.87,2.63,5.87,5.87-2.63,5.87-5.87,5.87Z"/>
    </g>
  </g>
</svg>