<?xml version="1.0" encoding="UTF-8"?>
<svg id="_圖層_2" data-name="圖層 2" xmlns="http://www.w3.org/2000/svg" viewBox="0 0 759.99 72.98">
  <defs>
    <style>
      .cls-1 {
        fill: #ef4e22;
      }

      .cls-2 {
        fill: #fff;
      }
    </style>
  </defs>
  <g id="_圖層_2-2" data-name="圖層 2">
    <g>
      <g>
        <g id="Parent_Logo_RGB" data-name="Parent Logo RGB">
          <g>
            <path class="cls-2" d="M161.63,14.47c-4.91,0-10.02,1.34-16.33,4.72l3.51,8.68c5.49-3.06,10.02-4.4,13.34-4.4,3.76,0,5.42,1.4,5.42,3.25v.13c0,1.28-1.02,1.98-3.51,2.23l-4.34.45c-10.85,1.15-15.31,5.87-15.31,12.38v.45c0,6.19,5.11,11.04,12.32,11.04,4.75,0,8.87-2,11.38-5.54l.81,4.9h9.83v-22.27c0-10.53-6.06-16.02-17.1-16.02h0ZM160.67,44.91c-3.64,0-5.36-1.4-5.36-3.57v-.13c0-1.91,1.08-3.32,5.04-3.89l1.72-.26c2.52-.35,4.07-.82,5.49-1.68v2.83c0,4.28-2.68,6.7-6.89,6.7h0Z"/>
            <polygon class="cls-1" points="69.23 14.73 56.66 2.16 44.09 14.73 50.35 20.98 18.82 52.5 31.39 65.07 43.96 52.5 37.71 46.25 69.23 14.73"/>
            <rect class="cls-1" x="-.24" y="15.32" width="44.58" height="17.78" transform="translate(-10.66 22.68) rotate(-45)"/>
            <rect class="cls-1" x="43.72" y="34.14" width="44.58" height="17.78" transform="translate(-11.09 59.28) rotate(-45)"/>
            <rect class="cls-2" x="185.11" y="1.71" width="11.17" height="51.05"/>
            <path class="cls-2" d="M125.64,14.47c-5.08,0-9.15,2.25-11.4,5.76l-.85-5.13h-9.83v50.41h11.17v-17.47c2.13,3.28,6.15,5.35,10.91,5.35,8.93,0,16.21-7.91,16.21-18.82v-1.28c0-10.91-7.27-18.82-16.21-18.82h0ZM130.36,34.26c0,5.74-3,9.89-7.98,9.89s-7.98-4.15-7.98-9.89v-.64c0-5.74,3-9.89,7.98-9.89s7.98,4.15,7.98,9.89v.64Z"/>
            <path class="cls-2" d="M346.93,14.47c-11.42,0-19.46,7.91-19.46,18.82v1.28c0,10.91,8.04,18.82,19.46,18.82s19.46-7.91,19.46-18.82v-1.28c0-10.91-8.04-18.82-19.46-18.82h0ZM354.91,34.26c0,5.74-3,9.89-7.98,9.89s-7.98-4.15-7.98-9.89v-.64c0-5.74,3-9.89,7.98-9.89s7.98,4.15,7.98,9.89v.64Z"/>
            <path class="cls-2" d="M376.92,16.77v-.19c0-1.08-.83-1.85-2.3-1.85h-2.55v5.87h1.21v-1.98h1.35l1.01,1.98h1.34l-1.25-2.32c.76-.23,1.18-.8,1.18-1.51h0ZM373.28,15.81h1.34c.77,0,1.08.26,1.08.83v.06c0,.51-.32.83-1.08.83h-1.34v-1.72Z"/>
            <path class="cls-2" d="M374.37,11.6c-3.45,0-6.06,2.62-6.06,6.06s2.62,6.06,6.06,6.06,6.06-2.62,6.06-6.06-2.62-6.06-6.06-6.06h0ZM374.37,22.9c-3,0-5.17-2.17-5.17-5.23s2.17-5.23,5.17-5.23,5.17,2.17,5.17,5.23-2.17,5.23-5.17,5.23h0Z"/>
            <rect class="cls-2" x="283.44" y="1.71" width="11.17" height="51.05"/>
            <path class="cls-2" d="M316.62,44.15c-3.25,0-4.47-1.6-4.47-5.04v-15.38h13.14v-8.61h-13.14V6.5l-11.17,1.66v32.03c0,8.74,4.47,13.21,13.4,13.21,3.96,0,8.61-1.21,12.44-3.38l-3.19-7.91c-2.23,1.21-5.36,2.04-7.02,2.04h0Z"/>
            <path class="cls-2" d="M259.96,14.47c-4.91,0-10.02,1.34-16.33,4.72l3.51,8.68c5.49-3.06,10.02-4.4,13.34-4.4,3.76,0,5.42,1.4,5.42,3.25v.13c0,1.28-1.02,1.98-3.51,2.23l-4.34.45c-10.85,1.15-15.31,5.87-15.31,12.38v.45c0,6.19,5.11,11.04,12.32,11.04,4.75,0,8.87-2,11.38-5.54l.81,4.9h9.83v-22.27c0-10.53-6.06-16.02-17.1-16.02h0ZM259,44.91c-3.64,0-5.36-1.4-5.36-3.57v-.13c0-1.91,1.08-3.32,5.04-3.89l1.72-.26c2.52-.35,4.07-.82,5.49-1.68v2.83c0,4.28-2.68,6.7-6.89,6.7h0Z"/>
            <path class="cls-2" d="M220.72,14.47c-11.42,0-19.46,7.91-19.46,18.82v1.28c0,10.91,8.04,18.82,19.46,18.82s19.46-7.91,19.46-18.82v-1.28c0-10.91-8.04-18.82-19.46-18.82h0ZM228.69,34.26c0,5.74-3,9.89-7.98,9.89s-7.98-4.15-7.98-9.89v-.64c0-5.74,3-9.89,7.98-9.89s7.98,4.15,7.98,9.89v.64Z"/>
            <polygon class="cls-2" points="266.42 61.81 269.28 61.81 273.23 67.02 273.27 67.02 273.27 61.81 275.9 61.81 275.9 71 273.13 71 269.09 65.66 269.05 65.66 269.05 71 266.42 71 266.42 61.81"/>
            <polygon class="cls-2" points="279.39 61.81 287.42 61.81 287.52 64.04 282.13 64.04 282.13 65.3 286.37 65.3 286.37 67.34 282.13 67.34 282.13 68.77 287.68 68.77 287.58 71 279.39 71 279.39 61.81"/>
            <polygon class="cls-2" points="293.27 64.17 290.05 64.17 290.16 61.81 299.15 61.81 299.25 64.17 296.04 64.17 296.04 71 293.27 71 293.27 64.17"/>
            <polygon class="cls-2" points="301.47 61.81 304.41 61.81 305.91 68.19 306.05 68.19 307.99 61.81 310.68 61.81 312.59 68.19 312.73 68.19 314.2 61.81 317.01 61.81 314.59 71 310.98 71 309.3 65.46 309.23 65.46 307.52 71 303.9 71 301.47 61.81"/>
            <path class="cls-2" d="M319.03,66.4c0-2.99,2.03-4.87,5.25-4.87s5.25,1.88,5.25,4.87-2.03,4.87-5.25,4.87-5.25-1.88-5.25-4.87h0ZM326.78,66.4c0-1.59-.92-2.53-2.51-2.53s-2.51.95-2.51,2.53.92,2.53,2.49,2.53,2.52-.95,2.52-2.53h0Z"/>
            <path class="cls-2" d="M332.5,61.81h5.35c2.44,0,3.63,1.15,3.63,3.29,0,1.47-.6,2.47-1.78,2.94l2.18,2.95h-3.12l-1.69-2.41h-1.81v2.41h-2.76v-9.19ZM337.5,66.43c.92,0,1.25-.51,1.25-1.21s-.33-1.19-1.25-1.19h-2.24v2.4h2.24Z"/>
            <polygon class="cls-2" points="345.07 61.81 347.83 61.81 347.83 65.2 348.96 65.2 351.65 61.81 354.74 61.81 354.76 61.82 351.24 66.22 354.95 70.98 354.94 71 351.73 71 348.94 67.47 347.83 67.47 347.83 71 345.07 71 345.07 61.81"/>
            <path class="cls-2" d="M357.07,70.39v-2.52h.01c1.54.77,3.03,1.16,4.33,1.16.98,0,1.48-.24,1.48-.7s-.33-.58-2.3-.89c-2.15-.34-3.58-.98-3.58-2.83,0-1.72,1.51-3.04,4.46-3.04,1.18,0,2.41.25,3.56.73v2.49h-.01c-1.09-.62-2.56-1.01-3.74-1.01-1.05,0-1.47.25-1.47.67,0,.54.64.59,2.26.87,2.15.37,3.58.97,3.58,2.91,0,1.51-1.13,3.02-4.37,3.02-1.6,0-2.87-.33-4.21-.85h0Z"/>
          </g>
        </g>
        <rect class="cls-2" x="418.73" width=".91" height="72.98"/>
      </g>
      <g>
        <path class="cls-2" d="M474.64,23.31c-.11,1.74-.72,3.11-1.84,4.09-1.12.98-2.61,1.48-4.49,1.48-2.16,0-3.83-.65-5.02-1.95-1.19-1.3-1.79-3.12-1.79-5.46s.61-4.22,1.83-5.56c1.22-1.34,2.91-2.01,5.08-2.01,1.7,0,3.06.42,4.07,1.27,1.01.85,1.66,2.1,1.94,3.76l-3.81.44c-.16-.77-.42-1.33-.79-1.67-.37-.34-.88-.51-1.53-.51-1.82,0-2.73,1.39-2.73,4.17s.92,4.21,2.77,4.21c.69,0,1.24-.19,1.64-.58.4-.39.65-.95.76-1.7h3.91Z"/>
        <path class="cls-2" d="M485.22,28.52v-5.53l-4.79-8.72h4.15l2.58,5.45,2.61-5.45h4.03l-4.73,8.72v5.53h-3.85Z"/>
        <path class="cls-2" d="M501.05,28.52v-14.25h5.97c3.42,0,5.13,1.23,5.13,3.69,0,.71-.14,1.3-.43,1.79-.29.49-.73.89-1.33,1.21.73.36,1.27.81,1.62,1.36.35.55.52,1.21.52,2,0,1.36-.47,2.4-1.41,3.12-.94.73-2.29,1.09-4.04,1.09h-6.03ZM506.73,19.74c.61,0,1.05-.1,1.32-.3.27-.2.4-.53.4-1s-.15-.8-.44-1c-.29-.2-.79-.3-1.48-.3h-1.88v2.59h2.08ZM506.75,25.65c.73,0,1.26-.13,1.6-.39.33-.26.5-.66.5-1.21s-.16-.92-.47-1.16c-.31-.24-.82-.36-1.51-.36h-2.22v3.11h2.1Z"/>
        <path class="cls-2" d="M520.19,28.52v-14.25h10.2v3.15h-6.47v2.28h6.07v3.15h-6.07v2.51h6.89l-.32,3.15h-10.3Z"/>
        <path class="cls-2" d="M546.42,28.52l-2.34-4.91h-2.08v4.91h-3.65v-14.25h5.63c1.86,0,3.28.38,4.24,1.15.96.77,1.45,1.89,1.45,3.36,0,.92-.18,1.72-.54,2.42-.36.69-.89,1.24-1.58,1.64l2.91,5.69h-4.05ZM543.88,20.64c.73,0,1.26-.14,1.6-.42.33-.28.5-.72.5-1.32s-.18-.99-.55-1.27c-.37-.27-.92-.41-1.67-.41h-1.76v3.41h1.88Z"/>
        <path class="cls-2" d="M561.82,22.73c-1.62-.31-2.8-.81-3.54-1.5-.74-.69-1.11-1.64-1.11-2.85,0-1.44.5-2.54,1.49-3.31.99-.77,2.41-1.16,4.24-1.16s3.19.37,4.21,1.12c1.02.75,1.61,1.82,1.76,3.23l-3.71.38c-.13-.6-.38-1.03-.73-1.3-.35-.27-.87-.4-1.55-.4-.61,0-1.08.1-1.42.31-.33.21-.5.51-.5.91,0,.33.13.6.38.8.25.2.66.35,1.22.46l1.94.38c1.58.31,2.75.82,3.5,1.53.75.71,1.13,1.67,1.13,2.88,0,1.5-.52,2.66-1.56,3.46-1.04.81-2.52,1.21-4.45,1.21s-3.44-.42-4.49-1.27c-1.05-.85-1.63-2.11-1.74-3.78h3.81c.08.68.33,1.18.75,1.5s1.02.48,1.81.48c.67,0,1.17-.12,1.52-.35s.52-.58.52-1.03c0-.37-.13-.67-.39-.88-.26-.21-.66-.37-1.19-.46l-1.9-.36Z"/>
        <path class="cls-2" d="M576.77,28.52v-14.25h10.2v3.15h-6.47v2.28h6.07v3.15h-6.07v2.51h6.89l-.32,3.15h-10.3Z"/>
        <path class="cls-2" d="M607.65,23.31c-.11,1.74-.72,3.11-1.84,4.09-1.12.98-2.61,1.48-4.49,1.48-2.16,0-3.83-.65-5.02-1.95-1.19-1.3-1.79-3.12-1.79-5.46s.61-4.22,1.83-5.56c1.22-1.34,2.91-2.01,5.08-2.01,1.7,0,3.06.42,4.07,1.27,1.01.85,1.66,2.1,1.94,3.76l-3.81.44c-.16-.77-.42-1.33-.79-1.67-.37-.34-.88-.51-1.53-.51-1.82,0-2.73,1.39-2.73,4.17s.92,4.21,2.77,4.21c.69,0,1.24-.19,1.64-.58.4-.39.65-.95.76-1.7h3.91Z"/>
        <path class="cls-2" d="M623.24,14.27h3.83v8.34c0,4.18-2.02,6.27-6.07,6.27s-5.99-2.09-5.99-6.27v-8.34h3.83v8.48c0,.98.17,1.7.52,2.16s.9.68,1.68.68,1.33-.23,1.68-.68c.35-.45.52-1.17.52-2.16v-8.48Z"/>
        <path class="cls-2" d="M643.32,28.52l-2.34-4.91h-2.08v4.91h-3.65v-14.25h5.63c1.86,0,3.28.38,4.24,1.15.96.77,1.45,1.89,1.45,3.36,0,.92-.18,1.72-.54,2.42-.36.69-.89,1.24-1.58,1.64l2.91,5.69h-4.05ZM640.79,20.64c.73,0,1.26-.14,1.6-.42.33-.28.5-.72.5-1.32s-.18-.99-.55-1.27c-.37-.27-.92-.41-1.67-.41h-1.76v3.41h1.88Z"/>
        <path class="cls-2" d="M654.58,28.52v-14.25h3.83v14.25h-3.83Z"/>
        <path class="cls-2" d="M670.03,28.52v-11h-4.11v-3.25h12.06v3.25h-4.11v11h-3.83Z"/>
        <path class="cls-2" d="M689.53,28.52v-5.53l-4.79-8.72h4.15l2.58,5.45,2.61-5.45h4.03l-4.73,8.72v5.53h-3.85Z"/>
        <path class="cls-2" d="M461.92,57.06v-14.25h5.33c1.92,0,3.35.39,4.29,1.18.94.79,1.42,1.98,1.42,3.57,0,3.25-1.89,4.87-5.67,4.87h-1.66v4.63h-3.71ZM467.27,49.38c.75,0,1.29-.14,1.63-.43s.51-.74.51-1.37-.17-1.07-.5-1.34c-.33-.27-.89-.4-1.66-.4h-1.62v3.53h1.64Z"/>
        <path class="cls-2" d="M488.17,57.06l-.82-2.73h-4.81l-.8,2.73h-3.85l4.95-14.25h4.35l4.95,14.25h-3.97ZM484.96,46.36l-1.48,4.91h2.93l-1.46-4.91Z"/>
        <path class="cls-2" d="M507.55,57.06l-2.34-4.91h-2.08v4.91h-3.65v-14.25h5.63c1.86,0,3.28.38,4.24,1.15.96.77,1.45,1.89,1.45,3.36,0,.92-.18,1.72-.54,2.42-.36.69-.89,1.24-1.58,1.64l2.91,5.69h-4.05ZM505.02,49.18c.73,0,1.26-.14,1.6-.42.33-.28.5-.72.5-1.32s-.18-.99-.55-1.27c-.37-.27-.92-.41-1.67-.41h-1.76v3.41h1.88Z"/>
        <path class="cls-2" d="M521.86,57.06v-11h-4.11v-3.25h12.06v3.25h-4.11v11h-3.83Z"/>
        <path class="cls-2" d="M546.08,57.06l-5.13-8.16v8.16h-3.63v-14.25h3.35l5.13,8.16v-8.16h3.63v14.25h-3.35Z"/>
        <path class="cls-2" d="M557.79,57.06v-14.25h10.2v3.15h-6.47v2.28h6.07v3.15h-6.07v2.51h6.89l-.32,3.15h-10.3Z"/>
        <path class="cls-2" d="M584.02,57.06l-2.34-4.91h-2.08v4.91h-3.65v-14.25h5.63c1.86,0,3.28.38,4.24,1.15.96.77,1.45,1.89,1.45,3.36,0,.92-.18,1.72-.54,2.42-.36.69-.89,1.24-1.58,1.64l2.91,5.69h-4.05ZM581.49,49.18c.73,0,1.26-.14,1.6-.42.33-.28.5-.72.5-1.32s-.18-.99-.55-1.27c-.37-.27-.92-.41-1.67-.41h-1.76v3.41h1.88Z"/>
        <path class="cls-2" d="M611.85,57.42c-1.46,0-2.72-.3-3.76-.9-1.05-.6-1.84-1.45-2.39-2.56-.55-1.11-.82-2.43-.82-3.96,0-2.37.63-4.22,1.88-5.55,1.25-1.33,2.98-2,5.19-2,1.46,0,2.72.3,3.76.9,1.04.6,1.84,1.45,2.39,2.57.55,1.11.82,2.43.82,3.96,0,2.37-.63,4.22-1.88,5.55-1.25,1.33-2.98,2-5.19,2ZM611.89,54.13c1.01,0,1.77-.35,2.29-1.06.51-.71.77-1.75.77-3.13,0-2.79-1.01-4.19-3.03-4.19-1.01,0-1.77.35-2.29,1.06-.51.71-.77,1.75-.77,3.13s.26,2.43.77,3.13c.51.71,1.27,1.06,2.27,1.06Z"/>
        <path class="cls-2" d="M630.63,51.87v5.19h-3.77v-14.25h9.76v3.19h-5.99v2.67h5.65v3.19h-5.65Z"/>
        <path class="cls-2" d="M667.16,51.85c-.11,1.74-.72,3.11-1.84,4.09-1.12.98-2.61,1.48-4.49,1.48-2.16,0-3.83-.65-5.02-1.95-1.19-1.3-1.79-3.12-1.79-5.46s.61-4.22,1.83-5.56c1.22-1.34,2.91-2.01,5.08-2.01,1.7,0,3.06.42,4.07,1.27,1.01.85,1.66,2.1,1.94,3.76l-3.81.44c-.16-.77-.42-1.33-.79-1.67-.37-.34-.88-.51-1.53-.51-1.82,0-2.73,1.39-2.73,4.17s.92,4.21,2.77,4.21c.69,0,1.24-.19,1.64-.58.4-.39.65-.95.76-1.7h3.91Z"/>
        <path class="cls-2" d="M683.16,57.06v-5.63h-4.63v5.63h-3.83v-14.25h3.83v5.17h4.63v-5.17h3.83v14.25h-3.83Z"/>
        <path class="cls-2" d="M701.91,57.42c-1.46,0-2.72-.3-3.76-.9-1.05-.6-1.84-1.45-2.39-2.56-.55-1.11-.82-2.43-.82-3.96,0-2.37.63-4.22,1.88-5.55,1.25-1.33,2.98-2,5.19-2,1.46,0,2.72.3,3.76.9,1.04.6,1.84,1.45,2.39,2.57.55,1.11.82,2.43.82,3.96,0,2.37-.63,4.22-1.88,5.55-1.25,1.33-2.98,2-5.19,2ZM701.95,54.13c1.01,0,1.77-.35,2.29-1.06.51-.71.77-1.75.77-3.13,0-2.79-1.01-4.19-3.03-4.19-1.01,0-1.77.35-2.29,1.06-.51.71-.77,1.75-.77,3.13s.26,2.43.77,3.13c.51.71,1.27,1.06,2.27,1.06Z"/>
        <path class="cls-2" d="M716.92,57.06v-14.25h3.83v14.25h-3.83Z"/>
        <path class="cls-2" d="M741.83,51.85c-.11,1.74-.72,3.11-1.84,4.09-1.12.98-2.61,1.48-4.49,1.48-2.16,0-3.83-.65-5.02-1.95-1.19-1.3-1.79-3.12-1.79-5.46s.61-4.22,1.83-5.56c1.22-1.34,2.91-2.01,5.08-2.01,1.7,0,3.06.42,4.07,1.27,1.01.85,1.66,2.1,1.94,3.76l-3.81.44c-.16-.77-.42-1.33-.79-1.67-.37-.34-.88-.51-1.53-.51-1.82,0-2.73,1.39-2.73,4.17s.92,4.21,2.77,4.21c.69,0,1.24-.19,1.64-.58.4-.39.65-.95.76-1.7h3.91Z"/>
        <path class="cls-2" d="M749.37,57.06v-14.25h10.2v3.15h-6.47v2.28h6.07v3.15h-6.07v2.51h6.89l-.32,3.15h-10.3Z"/>
      </g>
    </g>
  </g>
</svg>