<svg width="24" height="24" viewBox="0 0 24 24" fill="none" xmlns="http://www.w3.org/2000/svg">
<path d="M17.3036 7.19684L17.8036 7.19684L17.8036 6.69684L17.3036 6.69684L17.3036 7.19684ZM6.34337 17.4498C6.14811 17.6451 6.14811 17.9617 6.34337 18.1569C6.53863 18.3522 6.85522 18.3522 7.05048 18.1569L6.69693 17.8034L6.34337 17.4498ZM17.3036 15.6821L17.8036 15.6821V7.19684L17.3036 7.19684L16.8036 7.19684V15.6821L17.3036 15.6821ZM17.3036 7.19684L17.3036 6.69684L8.81826 6.69684L8.81826 7.19684L8.81826 7.69684L17.3036 7.69684L17.3036 7.19684ZM17.3036 7.19684L16.95 6.84329L6.34337 17.4498L6.69693 17.8034L7.05048 18.1569L17.6572 7.55039L17.3036 7.19684Z" fill="#A6A29D"/>
</svg>
