<?xml version="1.0" encoding="UTF-8"?>
<svg xmlns="http://www.w3.org/2000/svg" version="1.1" viewBox="0 0 52 72">
  <!-- Generator: Adobe Illustrator 30.5.1, SVG Export Plug-In . SVG Version: 2.1.4 Build 3)  -->
  <defs>
    <style>
      .st0 {
        fill: #a6a29d;
      }

      .st1 {
        letter-spacing: .7em;
      }

      .st1, .st2 {
        font-family: SourceHanSerifTC-Medium-B5pc-H, 'Source Han Serif TC';
        font-size: 7px;
        font-weight: 500;
      }

      .st2 {
        letter-spacing: .7em;
      }
    </style>
  </defs>
  <g id="BG">
    <rect class="st0" width="52" height="72"/>
  </g>
  <g id="logo">
    <g id="text_x5F_en">
      <path d="M40,50.7v-3.2c0,0,0,0,0,0,0,1.1-.4,2.8-1.1,2.8h-1.4v-10.5h.7v-.4h-2.2v.4h.7v10.5h-.7v.4h4Z"/>
      <path d="M40.4,35.9v.5h.7v10.5c0,2.5.7,4,1.8,4s1.9-1.6,1.9-5.1v-9.4h.7v-.5h-1.5v.5h.7v8.7c0,2.8-.2,5.1-1.4,5.1s-1.2-2.4-1.2-2.9v-10.9h.7v-.5h-2.1Z"/>
      <path d="M32,50.7v-.4h-.7l.6-3.7h1.5l.6,3.7h-.7v.4h2v-.4h-.6l-1.7-11.1h-.3l-1.8,11.1h-.6v.4h1.6ZM32,46.1l.7-4.6h0l.7,4.6h-1.4Z"/>
      <path d="M29.8,50.7v-4.1c0,0,0,0,0,0-.1,1.4-.4,3.6-1.1,3.6h-1.5v-13.7h.8v-.5h-2.3v.5h.7v13.7h-.7v.5h4.2Z"/>
      <path d="M21.7,50.7v-3.2c.1,0-.1,0-.1,0-.2,2.5-.6,2.8-1.6,2.8h-1v-5.2c.8,0,1.1.2,1.2,2h.2v-4.3h-.2c-.1,1.8-.4,1.8-1.2,1.8v-4.9h1.1c.7,0,1.2.4,1.4,2.4h.2v-2.8h-4.1v.4h.7v10.5h-.7v.4h4.2Z"/>
      <polygon points="13.1 44.6 13.1 39.8 13.8 39.8 13.8 39.4 11.7 39.4 11.7 39.8 12.4 39.8 12.4 50.3 11.7 50.3 11.7 50.7 13.8 50.7 13.8 50.3 13.1 50.3 13.1 45.1 15.5 45.1 15.5 50.3 14.8 50.3 14.8 50.7 16.9 50.7 16.9 50.3 16.3 50.3 16.3 39.8 16.9 39.8 16.9 39.4 14.8 39.4 14.8 39.8 15.5 39.8 15.5 44.6 13.1 44.6"/>
      <path d="M10,50.7v-.5h-.7v-13.7h.4c.9,0,1.2,1.7,1.3,3.7h.2v-4.3h-4.4v4.3c0,0,.1,0,.1,0,.2-2.2.2-3.7,1.1-3.7h.6v13.7h-.7v.5h2.2Z"/>
    </g>
    <g id="img">
      <path d="M30,18.6v-.2l-1.2-.3h-5.5l-1.2.3v.2l-.8-.4.7-.2,1.3-.4h5.6l1.5.4h0s.5.1.5.1l-.7.4ZM29.6,28.6h-.6v-9.4h.6v9.4ZM28,28.6h-1.7v-9.5h1.7v9.5ZM25.7,28.6h-1.7v-9.5h1.7v9.5ZM22.9,28.6h-.5v-9.3h.5c0-.1,0,9.3,0,9.3ZM20.7,18.3h0s0,0,0,0h0ZM34.8,13.2l.4-.4s-.2-.4-.5-.4-.5.4-.5.4c0,0-.2-.5-.5-.3-.3.2-.1.5-.3.4-.1,0-.4-.3-.7-.1-.2.1,0,.4,0,.5,0,.1-.1.2-.2.4,0,.1,0,.4,0,.4h-1.4c0,0-2.2-.7-2.2-.7,0,0-.5,0-1,0,0,0,0,0,0-.1,0-.2-.2-.4-.4-.4s-.2,0-.3.1c0-.3-.3-.5-.7-.6.4-.5.2-.8,0-1.2-.3-.4,0-.8,0-.8,0,0,0-.3-.4-.3s-.4.3-.4.3c0,0,.3.4,0,.8-.3.4-.5.7,0,1.2-.3.1-.6.3-.6.6,0-.1-.2-.2-.3-.2-.2,0-.4.2-.4.4s0,0,0,.1c-.5,0-1,0-1,0l-2.3.7h-1.4c0,0,0-.3,0-.4,0-.1-.3-.2-.2-.4,0-.1.2-.3,0-.5-.3-.2-.6,0-.7.1-.1,0,0-.2-.3-.4-.3-.1-.5.3-.5.3,0,0-.2-.4-.5-.4s-.5.4-.5.4l.4.4s0,0,0,.3c.1.2.5.4.5.5,0,0-.5,0-.4.4,0,.1.8.2,1.5.2v2.7c-.2,0-.3.3-.3.5s.1.4.3.5h0s-.3,0-.3,0l-.2,3.8h.4v1.2c-.3,0-.5.3-.5.6s.2.6.5.6h-.3l-.2,5.7h1.1l-.2-5.7h-.3c.3,0,.5-.3.5-.6s-.2-.6-.5-.6v-1.2h.4l-.2-3.8h-.3c.2-.1.3-.3.3-.5s-.1-.4-.3-.5v-2.7c.6,0,1.1,0,1.1.1v3.8s-.5.2-.4.3c0,0,0,.2,0,.2,0,0-.4.4-.2.6.3.2.4,0,.4.1,0,.1-.1.4.2.4.4,0,.5-.6.5-1.5l1.3.7v9.3h0l-.5.4v1.2h.5s4,0,4,0h4s.5,0,.5,0v-1.2l-.5-.4v-9.4l1.3-.7c0,.9,0,1.5.5,1.5.3,0,.2-.3.2-.4,0-.1,0,0,.4-.1.3-.2-.2-.6-.2-.6,0,0,0,0,0-.2,0,0-.4-.3-.4-.3v-3.8c0,0,.5,0,1.1-.1v2.7c-.2,0-.3.3-.3.5s.1.4.3.5h0s-.3,0-.3,0l-.2,3.8h.4v1.2c-.3,0-.5.3-.5.6s.2.6.5.6h-.3v5.7c-.1,0,.9,0,.9,0l-.2-5.7h-.3c.3,0,.5-.3.5-.6s-.2-.6-.5-.6v-1.2h.4l-.2-3.8h-.3c.2,0,.3-.3.3-.5s-.1-.4-.3-.5v-2.7c.7,0,1.5,0,1.5-.2.1-.3-.4-.3-.4-.4,0,0,.4-.2.5-.5.1-.2,0-.3,0-.3"/>
    </g>
  </g>
  <g id="_圖層_3" data-name="圖層_3">
    <text class="st1" transform="translate(10.8 61.8)"><tspan x="0" y="0">涵</tspan></text>
    <text class="st1" transform="translate(22.4 61.8)"><tspan x="0" y="0">碧</tspan></text>
    <text class="st2" transform="translate(34.1 61.8)"><tspan x="0" y="0">樓</tspan></text>
  </g>
</svg>