<?xml version="1.0" encoding="UTF-8"?>
<svg id="_圖層_2" data-name="圖層 2" xmlns="http://www.w3.org/2000/svg" viewBox="0 0 652.77 63.77">
  <defs>
    <style>
      .cls-1 {
        fill: #fff;
      }
    </style>
  </defs>
  <g id="_圖層_2-2" data-name="圖層 2">
    <g>
      <g>
        <g>
          <path class="cls-1" d="M20.28,0c6.05,0,10.78,2.16,14.19,6.48,4.06,5.11,6.09,13.59,6.09,25.43s-2.04,20.31-6.13,25.48c-3.38,4.26-8.09,6.39-14.14,6.39s-10.98-2.34-14.7-7.01C1.86,52.09,0,43.77,0,31.78S2.04,11.56,6.13,6.39C9.51,2.13,14.23,0,20.28,0ZM20.28,9.93c-1.45,0-2.74.46-3.88,1.38-1.14.92-2.02,2.58-2.64,4.96-.82,3.1-1.24,8.31-1.24,15.63s.37,12.36,1.11,15.1c.74,2.74,1.67,4.57,2.79,5.47,1.12.91,2.41,1.36,3.86,1.36s2.74-.46,3.88-1.38c1.14-.92,2.02-2.58,2.64-4.96.82-3.07,1.24-8.26,1.24-15.59s-.37-12.36-1.11-15.1c-.74-2.74-1.67-4.57-2.79-5.5-1.12-.92-2.41-1.38-3.86-1.38Z"/>
          <path class="cls-1" d="M89.12,15.55l-11.59,1.28c-.28-2.38-1.02-4.15-2.21-5.28-1.19-1.14-2.74-1.7-4.64-1.7-2.53,0-4.67,1.14-6.41,3.41-1.75,2.27-2.85,7-3.3,14.19,2.98-3.52,6.69-5.28,11.12-5.28,5,0,9.28,1.9,12.84,5.71,3.56,3.81,5.35,8.72,5.35,14.74,0,6.39-1.87,11.52-5.62,15.38-3.75,3.86-8.56,5.79-14.44,5.79-6.31,0-11.49-2.45-15.55-7.35-4.06-4.9-6.09-12.93-6.09-24.09s2.12-19.7,6.35-24.75c4.23-5.05,9.73-7.58,16.49-7.58,4.74,0,8.67,1.33,11.78,3.98,3.11,2.66,5.09,6.51,5.94,11.57ZM61.98,41.66c0,3.89.89,6.89,2.68,9.01,1.79,2.12,3.83,3.17,6.13,3.17s4.06-.87,5.54-2.6c1.48-1.73,2.21-4.57,2.21-8.52s-.8-7.04-2.39-8.93c-1.59-1.89-3.58-2.83-5.96-2.83s-4.25.9-5.84,2.71c-1.59,1.8-2.39,4.47-2.39,7.99Z"/>
        </g>
        <g>
          <path class="cls-1" d="M179.3,51.59v11.12h-41.96c.45-4.2,1.82-8.19,4.09-11.95,2.27-3.76,6.76-8.75,13.46-14.97,5.4-5.03,8.7-8.44,9.93-10.22,1.65-2.47,2.47-4.91,2.47-7.33,0-2.67-.72-4.72-2.15-6.16-1.43-1.43-3.42-2.15-5.94-2.15s-4.49.75-5.96,2.26c-1.48,1.5-2.33,4-2.56,7.5l-11.93-1.19c.71-6.59,2.94-11.32,6.69-14.19,3.75-2.87,8.43-4.3,14.06-4.3,6.16,0,11,1.66,14.53,4.98,3.52,3.32,5.28,7.46,5.28,12.4,0,2.81-.5,5.49-1.51,8.03-1.01,2.54-2.61,5.2-4.79,7.99-1.45,1.85-4.06,4.5-7.84,7.97-3.78,3.46-6.17,5.77-7.18,6.9-1.01,1.14-1.83,2.24-2.45,3.32h23.77Z"/>
          <path class="cls-1" d="M187.56,46.65l11.93-1.24c.34,2.7,1.35,4.83,3.02,6.41,1.68,1.58,3.61,2.36,5.79,2.36,2.5,0,4.61-1.01,6.35-3.05,1.73-2.03,2.6-5.09,2.6-9.18,0-3.83-.86-6.71-2.58-8.63-1.72-1.92-3.96-2.88-6.71-2.88-3.44,0-6.52,1.52-9.24,4.56l-9.71-1.41,6.13-32.5h31.65v11.2h-22.58l-1.87,10.61c2.67-1.33,5.4-2,8.18-2,5.31,0,9.81,1.93,13.5,5.79,3.69,3.86,5.54,8.88,5.54,15.04,0,5.14-1.49,9.73-4.47,13.76-4.06,5.51-9.7,8.26-16.91,8.26-5.77,0-10.47-1.55-14.1-4.64-3.64-3.1-5.81-7.26-6.52-12.48Z"/>
        </g>
        <circle class="cls-1" cx="113.98" cy="56.13" r="6.63"/>
      </g>
      <g>
        <g>
          <path class="cls-1" d="M274.75,62.75h-6.25V22.96c-1.5,1.43-3.48,2.87-5.92,4.3-2.44,1.43-4.63,2.51-6.57,3.23v-6.04c3.49-1.64,6.55-3.63,9.16-5.97,2.61-2.34,4.46-4.6,5.55-6.8h4.02v51.07Z"/>
          <path class="cls-1" d="M310.76,62.75v-12.18h-22.07v-5.72l23.21-32.96h5.1v32.96h6.87v5.72h-6.87v12.18h-6.25ZM310.76,44.85v-22.93l-15.92,22.93h15.92Z"/>
          <path class="cls-1" d="M333.73,28.52v-7.11h7.11v7.11h-7.11ZM333.73,58.25v-7.11h7.11v7.11h-7.11Z"/>
          <path class="cls-1" d="M350,37.67c0-6.01.62-10.85,1.86-14.52,1.24-3.67,3.08-6.49,5.52-8.48,2.44-1.99,5.51-2.98,9.21-2.98,2.73,0,5.12.55,7.18,1.65,2.06,1.1,3.76,2.68,5.1,4.75,1.34,2.07,2.39,4.59,3.16,7.56.76,2.97,1.15,6.98,1.15,12.02,0,5.97-.61,10.78-1.84,14.45-1.23,3.67-3.06,6.5-5.5,8.5-2.44,2-5.52,3-9.25,3-4.9,0-8.75-1.76-11.55-5.27-3.35-4.23-5.03-11.12-5.03-20.68ZM356.42,37.67c0,8.35.98,13.91,2.93,16.67,1.95,2.76,4.37,4.15,7.23,4.15s5.28-1.39,7.23-4.16c1.95-2.78,2.93-8.33,2.93-16.65s-.98-13.94-2.93-16.69c-1.96-2.75-4.39-4.13-7.3-4.13s-5.16,1.21-6.87,3.64c-2.15,3.1-3.23,8.82-3.23,17.17Z"/>
          <path class="cls-1" d="M389.52,37.67c0-6.01.62-10.85,1.86-14.52,1.24-3.67,3.08-6.49,5.52-8.48,2.44-1.99,5.51-2.98,9.21-2.98,2.73,0,5.12.55,7.18,1.65,2.06,1.1,3.76,2.68,5.1,4.75,1.34,2.07,2.39,4.59,3.16,7.56.76,2.97,1.15,6.98,1.15,12.02,0,5.97-.61,10.78-1.84,14.45-1.23,3.67-3.06,6.5-5.5,8.5-2.44,2-5.52,3-9.25,3-4.9,0-8.75-1.76-11.55-5.27-3.35-4.23-5.03-11.12-5.03-20.68ZM395.94,37.67c0,8.35.98,13.91,2.93,16.67,1.95,2.76,4.37,4.15,7.23,4.15s5.28-1.39,7.23-4.16c1.95-2.78,2.93-8.33,2.93-16.65s-.98-13.94-2.93-16.69c-1.96-2.75-4.39-4.13-7.3-4.13s-5.16,1.21-6.87,3.64c-2.15,3.1-3.23,8.82-3.23,17.17Z"/>
          <path class="cls-1" d="M501.99,62.75h-6.25V22.96c-1.5,1.43-3.48,2.87-5.92,4.3-2.44,1.43-4.63,2.51-6.57,3.23v-6.04c3.49-1.64,6.55-3.63,9.16-5.97,2.61-2.34,4.46-4.6,5.55-6.8h4.02v51.07Z"/>
          <path class="cls-1" d="M517.98,49.43l6.56-.56c.49,3.19,1.61,5.59,3.38,7.2s3.9,2.41,6.4,2.41c3.01,0,5.55-1.13,7.63-3.4,2.08-2.27,3.12-5.27,3.12-9.02s-1-6.37-3-8.43c-2-2.06-4.62-3.09-7.86-3.09-2.01,0-3.83.46-5.45,1.37-1.62.91-2.89,2.1-3.82,3.56l-5.86-.76,4.93-26.13h25.29v5.97h-20.3l-2.74,13.67c3.05-2.13,6.26-3.19,9.61-3.19,4.44,0,8.19,1.54,11.24,4.62,3.05,3.08,4.58,7.03,4.58,11.86s-1.34,8.58-4.02,11.93c-3.26,4.12-7.71,6.18-13.36,6.18-4.63,0-8.4-1.29-11.33-3.89-2.93-2.59-4.6-6.02-5.01-10.3Z"/>
          <path class="cls-1" d="M562.39,28.52v-7.11h7.11v7.11h-7.11ZM562.39,58.25v-7.11h7.11v7.11h-7.11Z"/>
          <path class="cls-1" d="M580.12,49.32l6.25-.83c.72,3.54,1.94,6.09,3.66,7.65,1.72,1.56,3.82,2.34,6.3,2.34,2.94,0,5.42-1.02,7.44-3.05s3.04-4.56,3.04-7.56-.94-5.23-2.81-7.1c-1.87-1.86-4.26-2.79-7.15-2.79-1.18,0-2.65.23-4.41.69l.69-5.48c.42.05.75.07,1.01.07,2.66,0,5.05-.69,7.18-2.08,2.13-1.39,3.19-3.53,3.19-6.42,0-2.29-.78-4.19-2.32-5.69-1.55-1.5-3.55-2.25-6-2.25s-4.45.76-6.07,2.29c-1.62,1.53-2.66,3.82-3.12,6.87l-6.25-1.11c.76-4.19,2.5-7.43,5.2-9.73s6.07-3.45,10.1-3.45c2.78,0,5.33.6,7.67,1.79,2.34,1.19,4.12,2.82,5.36,4.88,1.24,2.06,1.86,4.25,1.86,6.56s-.59,4.2-1.77,6c-1.18,1.8-2.93,3.24-5.24,4.3,3.01.69,5.34,2.13,7.01,4.32,1.67,2.19,2.5,4.92,2.5,8.21,0,4.44-1.62,8.21-4.86,11.29-3.24,3.09-7.33,4.63-12.28,4.63-4.46,0-8.17-1.33-11.12-3.99-2.95-2.66-4.63-6.11-5.05-10.34Z"/>
          <path class="cls-1" d="M619.6,37.67c0-6.01.62-10.85,1.86-14.52,1.24-3.67,3.08-6.49,5.52-8.48,2.44-1.99,5.51-2.98,9.21-2.98,2.73,0,5.12.55,7.18,1.65,2.06,1.1,3.76,2.68,5.1,4.75,1.34,2.07,2.39,4.59,3.16,7.56.76,2.97,1.15,6.98,1.15,12.02,0,5.97-.61,10.78-1.84,14.45-1.23,3.67-3.06,6.5-5.5,8.5-2.44,2-5.52,3-9.25,3-4.9,0-8.75-1.76-11.55-5.27-3.35-4.23-5.03-11.12-5.03-20.68ZM626.02,37.67c0,8.35.98,13.91,2.93,16.67,1.95,2.76,4.37,4.15,7.23,4.15s5.28-1.39,7.23-4.16c1.95-2.78,2.93-8.33,2.93-16.65s-.98-13.94-2.93-16.69c-1.96-2.75-4.39-4.13-7.3-4.13s-5.16,1.21-6.87,3.64c-2.15,3.1-3.23,8.82-3.23,17.17Z"/>
        </g>
        <polygon class="cls-1" points="466.55 36.9 445.01 24.46 445.01 49.34 466.55 36.9"/>
      </g>
    </g>
  </g>
</svg>