<?xml version="1.0" encoding="UTF-8"?>
<svg id="_圖層_1" data-name="圖層_1" xmlns="http://www.w3.org/2000/svg" version="1.1" viewBox="0 0 80 80">
  <!-- Generator: Adobe Illustrator 29.3.1, SVG Export Plug-In . SVG Version: 2.1.0 Build 151)  -->
  <defs>
    <style>
      .st0 {
        fill: #44a9ff;
      }
    </style>
  </defs>
  <circle class="st0" cx="40" cy="64" r="4"/>
  <path d="M30.9,56.6c2.2-2.8,5.6-4.6,9.4-4.6s7.2,1.8,9.4,4.6l4.3-4.3c-3.3-3.9-8.2-6.3-13.7-6.3s-10.4,2.4-13.7,6.3l4.3,4.3Z"/>
  <path d="M61.1,45.2l4.2-4.2c-6.2-6.7-15.1-11-25-11s-18.8,4.2-25,11l4.2,4.2c5.1-5.7,12.5-9.2,20.8-9.2s15.6,3.6,20.8,9.2Z"/>
  <path d="M72.4,33.9l4.2-4.2c-9.1-9.6-22-15.6-36.3-15.6S13.1,20,4,29.6l4.2,4.2c8-8.5,19.4-13.9,32.1-13.9s24,5.3,32.1,13.9Z"/>
</svg>