<?xml version="1.0" encoding="UTF-8"?>
<svg id="_圖層_1" data-name="圖層_1" xmlns="http://www.w3.org/2000/svg" version="1.1" viewBox="0 0 80 80">
  <!-- Generator: Adobe Illustrator 29.3.1, SVG Export Plug-In . SVG Version: 2.1.0 Build 151)  -->
  <defs>
    <style>
      .st0 {
        fill: #44a9ff;
      }

      .st1 {
        fill-rule: evenodd;
      }
    </style>
  </defs>
  <path class="st0" d="M10,4h16v6H4l6-6Z"/>
  <path class="st0" d="M4,10h6v16h-6V10Z"/>
  <path class="st0" d="M76,10v16h-6V4l6,6Z"/>
  <path class="st0" d="M70,4v6h-16v-6h16Z"/>
  <path class="st0" d="M4,70v-16h6v22l-6-6Z"/>
  <path class="st0" d="M10,76v-6h16v6H10Z"/>
  <path class="st0" d="M70,76h-16v-6h22l-6,6Z"/>
  <path class="st0" d="M76,70h-6v-16h6v16Z"/>
  <path class="st1" d="M16,22l6-6h36l6,6v36l-6,6H22l-6-6V22ZM58,58v-8h-.1c0,.1-5.9-5.8-5.9-5.8l-4.9,4.9h-4.2l-7.9-7.9-12.9,12.9h-.1c0-.1,0,3.9,0,3.9h36ZM58,41.8v-19.8H22v23.8l10.9-10.9h4.2l7.9,7.9,4.9-4.9h4.2l3.9,3.9ZM47,36c2.8,0,5-2.2,5-5s-2.2-5-5-5-5,2.2-5,5,2.2,5,5,5Z"/>
</svg>