<?xml version="1.0" encoding="UTF-8"?>
<svg id="_圖層_1" data-name="圖層_1" xmlns="http://www.w3.org/2000/svg" version="1.1" viewBox="0 0 80 80">
  <!-- Generator: Adobe Illustrator 29.3.1, SVG Export Plug-In . SVG Version: 2.1.0 Build 151)  -->
  <defs>
    <style>
      .st0 {
        fill: #44a9ff;
      }
    </style>
  </defs>
  <path class="st0" d="M14,48h52l6,6H8l6-6Z"/>
  <path class="st0" d="M8,54h6v12h-6v-12Z"/>
  <path class="st0" d="M66,54h6v12h-6v-12Z"/>
  <path class="st0" d="M18,58h6v6h-6v-6Z"/>
  <path class="st0" d="M28,58h6v6h-6v-6Z"/>
  <path d="M5,68h70v6H5v-6Z"/>
  <path d="M14,28h52l6,6H8l6-6Z"/>
  <path d="M8,34h6v14h-6v-14Z"/>
  <path d="M66,34h6v14h-6v-14Z"/>
  <path d="M18,38h6v6h-6v-6Z"/>
  <path d="M28,38h6v6h-6v-6Z"/>
  <path d="M14,8h52l6,6H8l6-6Z"/>
  <path d="M8,14h6v14h-6v-14Z"/>
  <path d="M66,14h6v14h-6v-14Z"/>
  <path d="M18,18h6v6h-6v-6Z"/>
  <path d="M28,18h6v6h-6v-6Z"/>
</svg>