<?xml version="1.0" encoding="UTF-8"?>
<svg id="_圖層_1" data-name="圖層_1" xmlns="http://www.w3.org/2000/svg" version="1.1" viewBox="0 0 80 80">
  <!-- Generator: Adobe Illustrator 29.3.1, SVG Export Plug-In . SVG Version: 2.1.0 Build 151)  -->
  <defs>
    <style>
      .st0 {
        fill: #44a9ff;
      }
    </style>
  </defs>
  <path d="M40,73.3c-4.6,0-8.9-.9-13-2.6s-7.6-4.1-10.6-7.1c-3-3-5.4-6.5-7.1-10.6-1.8-4.1-2.6-8.4-2.6-13s.9-9,2.6-13c1.8-4,4.1-7.5,7.1-10.5l4.7,4.7c-2.4,2.4-4.3,5.3-5.7,8.5-1.4,3.2-2,6.7-2,10.4,0,7.4,2.6,13.8,7.8,18.9,5.2,5.2,11.5,7.8,18.9,7.8s13.8-2.6,18.9-7.8c5.2-5.2,7.8-11.5,7.8-18.9s-.7-7.2-2-10.4c-1.4-3.2-3.3-6.1-5.7-8.5l4.7-4.7c3,3,5.4,6.5,7.1,10.5,1.8,4,2.6,8.4,2.6,13s-.9,8.9-2.6,13c-1.8,4.1-4.1,7.6-7.1,10.6-3,3-6.5,5.4-10.6,7.1-4.1,1.8-8.4,2.6-13,2.6Z"/>
  <rect class="st0" x="37" y="7" width="6" height="36"/>
</svg>