<?xml version="1.0" encoding="UTF-8"?>
<svg id="_圖層_1" data-name="圖層_1" xmlns="http://www.w3.org/2000/svg" version="1.1" viewBox="0 0 80 80">
  <!-- Generator: Adobe Illustrator 29.3.1, SVG Export Plug-In . SVG Version: 2.1.0 Build 151)  -->
  <defs>
    <style>
      .st0 {
        fill: #44a9ff;
      }

      .st1 {
        fill-rule: evenodd;
      }
    </style>
  </defs>
  <path class="st0" d="M40,34l-16-8,16-8,16,8-16,8Z"/>
  <path class="st1" d="M9.3,21.3l30.7,15.3,30.7-15.3,2.7,5.4-30.3,15.2v24.1l-3,1.5-3-1.5v-24.1L6.7,26.7l2.7-5.4Z"/>
  <path d="M9.6,25.7l30.4-15,30.4,15v26.2l6-2.9v-27L40,4,3.6,22v36l36.4,18,36.4-18v-6.6l-10.6,5.2h0s-25.7,12.7-25.7,12.7l-30.4-15v-28.5Z"/>
</svg>