<?xml version="1.0" encoding="UTF-8"?>
<svg id="_圖層_1" data-name="圖層_1" xmlns="http://www.w3.org/2000/svg" xmlns:xlink="http://www.w3.org/1999/xlink" version="1.1" viewBox="0 0 40 40">
  <!-- Generator: Adobe Illustrator 29.3.1, SVG Export Plug-In . SVG Version: 2.1.0 Build 151)  -->
  <defs>
    <style>
      .st0 {
        fill: #fff;
      }

      .st1 {
        fill-rule: evenodd;
      }

      .st1, .st2 {
        fill: #008ed2;
      }
    </style>
  </defs>
  <path class="st1" d="M23.8,14h5v3h-1v5h1v3h-5v-3h1v-5h-1v-3Z"/>
  <path class="st1" d="M18.3,14h-4.5l-3.8,10.2,2.8,1,.8-2.2h5.1l.8,2.2,2.8-1-4-10.2ZM16.6,17h-.8l-1.1,3h3l-1.1-3Z"/>
  <circle class="st2" cx="20" cy="3" r="3"/>
  <circle class="st0" cx="20" cy="37" r="3"/>
  <circle class="st0" cx="34.9" cy="11" r="3"/>
  <circle class="st2" cx="5.1" cy="29" r="3"/>
  <circle class="st2" cx="34.9" cy="29" r="3"/>
  <circle class="st0" cx="5.1" cy="11" r="3"/>
  <rect class="st0" x="3.5" y="15" width="3" height="10"/>
  <rect class="st0" x="7.9" y="5" width="9" height="3" transform="translate(-1.6 7.1) rotate(-30)"/>
  <rect class="st0" x="26.3" y="2" width="3" height="9" transform="translate(8.2 27.3) rotate(-60)"/>
  <rect class="st0" x="23.3" y="32.2" width="9" height="3" transform="translate(-13.1 18.4) rotate(-30)"/>
  <rect class="st0" x="10.9" y="29.2" width="3" height="9" transform="translate(-22.9 27.6) rotate(-60)"/>
  <rect class="st0" x="33.5" y="15" width="3" height="10"/>
</svg>