<?xml version="1.0" encoding="UTF-8"?>
<svg id="_圖層_1" data-name="圖層_1" xmlns="http://www.w3.org/2000/svg" version="1.1" viewBox="0 0 80 80">
  <!-- Generator: Adobe Illustrator 29.3.1, SVG Export Plug-In . SVG Version: 2.1.0 Build 151)  -->
  <defs>
    <style>
      .st0, .st1 {
        fill-rule: evenodd;
      }

      .st1 {
        fill: #44a9ff;
      }
    </style>
  </defs>
  <path class="st1" d="M40,16c2.2,0,4-1.8,4-4s-1.8-4-4-4-4,1.8-4,4,1.8,4,4,4ZM40,22c5.5,0,10-4.5,10-10s-4.5-10-10-10-10,4.5-10,10,4.5,10,10,10Z"/>
  <path class="st0" d="M40,72c2.2,0,4-1.8,4-4s-1.8-4-4-4-4,1.8-4,4,1.8,4,4,4ZM40,78c5.5,0,10-4.5,10-10s-4.5-10-10-10-10,4.5-10,10,4.5,10,10,10Z"/>
  <path class="st0" d="M68,72c2.2,0,4-1.8,4-4s-1.8-4-4-4-4,1.8-4,4,1.8,4,4,4ZM68,78c5.5,0,10-4.5,10-10s-4.5-10-10-10-10,4.5-10,10,4.5,10,10,10Z"/>
  <path class="st0" d="M12,72c2.2,0,4-1.8,4-4s-1.8-4-4-4-4,1.8-4,4,1.8,4,4,4ZM12,78c5.5,0,10-4.5,10-10s-4.5-10-10-10-10,4.5-10,10,4.5,10,10,10Z"/>
  <rect x="37" y="24" width="6" height="32"/>
  <path d="M9,44l6-6v18h-6v-12Z"/>
  <path d="M65,38l6,6v12h-6v-18Z"/>
  <rect x="15" y="38" width="50" height="6"/>
</svg>