<?xml version="1.0" encoding="UTF-8"?>
<svg id="_圖層_1" data-name="圖層_1" xmlns="http://www.w3.org/2000/svg" version="1.1" viewBox="0 0 80 80">
  <!-- Generator: Adobe Illustrator 29.3.1, SVG Export Plug-In . SVG Version: 2.1.0 Build 151)  -->
  <defs>
    <style>
      .st0 {
        fill: #44a9ff;
        fill-rule: evenodd;
      }
    </style>
  </defs>
  <path d="M12,4h52l6,6H6l6-6Z"/>
  <path d="M6,10h6v60h-6V10Z"/>
  <path d="M6,70h64l-6,6H12l-6-6Z"/>
  <path d="M64,50h6v20h-6v-20Z"/>
  <path d="M64,10h6v10h-6v-10Z"/>
  <path class="st0" d="M38,46c8.3,0,15-6.7,15-15s-6.7-15-15-15-15,6.7-15,15,6.7,15,15,15ZM42.7,24l4.2,4.2-5.7,5.7-4.2-4.2,5.7-5.7ZM34.2,26.8l7.1,7.1-4.2,4.2-7.1-7.1,4.2-4.2Z"/>
  <path d="M66,28.1l6.9,4-13.8,23.8-5.7,1.9-1.2-5.9,13.8-23.8Z"/>
  <rect x="68.5" y="22.6" width="6" height="8" transform="translate(12.7 75.2) rotate(-60)"/>
  <path d="M43,58h12v6h-14l-4-4-4,4-5-5-6,6-4-4,10-10,5,5,4-4,6,6Z"/>
</svg>