<?xml version="1.0" encoding="UTF-8"?>
<svg id="_圖層_1" data-name="圖層_1" xmlns="http://www.w3.org/2000/svg" version="1.1" viewBox="0 0 80 80">
  <!-- Generator: Adobe Illustrator 29.3.1, SVG Export Plug-In . SVG Version: 2.1.0 Build 151)  -->
  <defs>
    <style>
      .st0, .st1 {
        fill-rule: evenodd;
      }

      .st1 {
        fill: #44a9ff;
      }
    </style>
  </defs>
  <path class="st1" d="M55.8,17.1c3.1,3,5.6,6.6,7.3,10.5,1.7,3.9,2.6,8.1,2.6,12.4s-.9,8.5-2.6,12.4c-1.7,3.9-4.2,7.5-7.3,10.5l4.3,4.2c3.7-3.6,6.6-7.8,8.6-12.4,2-4.6,3-9.6,3-14.7s-1-10-3-14.7c-2-4.6-4.9-8.9-8.6-12.4l-4.3,4.2ZM52.3,31.9c-1.1-2.6-2.7-4.9-4.8-6.8l4.3-4.2c2.6,2.5,4.7,5.5,6.1,8.8,1.4,3.3,2.1,6.8,2.1,10.3s-.7,7.1-2.1,10.3c-1.4,3.3-3.5,6.2-6.1,8.8l-4.3-4.2c2-2,3.7-4.3,4.8-6.8,1.1-2.6,1.7-5.3,1.7-8.1s-.6-5.5-1.7-8.1ZM41.4,36.3c-.5-1.2-1.3-2.3-2.2-3.2l4.3-4.2c1.5,1.5,2.7,3.2,3.5,5.1.8,1.9,1.2,3.9,1.2,6s-.4,4.1-1.2,6c-.8,1.9-2,3.6-3.5,5.1l-4.3-4.2c.9-.9,1.7-2,2.2-3.2.5-1.2.8-2.5.8-3.7s-.3-2.6-.8-3.7Z"/>
  <path class="st0" d="M20,8l5.1-2.2,17,16.2v4.3l-15.2,14.5,14.2,13.6v4.3l-16,15.3-5.1-2.2v-24.5l-9.9,9.5-4.1-4.3,12.2-11.7-12.2-11.7,4.1-4.3,9.9,9.5V8ZM26,48.4l8.7,8.3-8.7,8.3v-16.5ZM26,33.5V15l9.7,9.2-9.7,9.2Z"/>
</svg>