<?xml version="1.0" encoding="UTF-8"?>
<svg id="_圖層_1" data-name="圖層_1" xmlns="http://www.w3.org/2000/svg" version="1.1" viewBox="0 0 80 80">
  <!-- Generator: Adobe Illustrator 29.3.1, SVG Export Plug-In . SVG Version: 2.1.0 Build 151)  -->
  <defs>
    <style>
      .st0, .st1 {
        fill-rule: evenodd;
      }

      .st1 {
        fill: #44a9ff;
      }
    </style>
  </defs>
  <path class="st0" d="M40,58.4l15-18.5c6.2-7.7,5.6-18.8-1.4-25.7-7.5-7.5-19.7-7.5-27.2,0-7,7-7.6,18.1-1.4,25.7l15,18.5ZM59.6,43.7c8.1-10,7.4-24.6-1.8-33.8C48,0,32,0,22.1,9.9c-9.1,9.1-9.9,23.7-1.8,33.8l19.6,24.3,19.6-24.3Z"/>
  <path class="st1" d="M40,30c2.2,0,4-1.8,4-4s-1.8-4-4-4-4,1.8-4,4,1.8,4,4,4ZM40,36c5.5,0,10-4.5,10-10s-4.5-10-10-10-10,4.5-10,10,4.5,10,10,10Z"/>
  <path class="st0" d="M53,57.1c3.4.6,6.3,1.5,8.8,2.5,2.6,1.1,4.4,2.2,5.4,3.2.7.6.8,1,.9,1.2,0,.1-.2.5-.9,1.2-1,1-2.7,2.1-5.4,3.2-5.3,2.2-13,3.6-21.8,3.6s-16.5-1.5-21.8-3.6c-2.6-1.1-4.4-2.2-5.4-3.2-.7-.6-.8-1-.9-1.2,0-.1.2-.5.9-1.2,1-1,2.7-2.1,5.4-3.2,2.6-1.1,5.8-2,9.4-2.6l-4.3-5.3c-10.4,2.4-17.4,7-17.4,12.2,0,7.7,15.2,14,34,14s34-6.3,34-14-6.7-9.6-16.8-12.1l-4.2,5.2ZM68,64s0,0,0,0c0,0,0,0,0,0ZM12,64s0,0,0,0c0,0,0,0,0,0ZM12,64s0,0,0,0c0,0,0,0,0,0ZM68,64s0,0,0,0h0s0,0,0,0Z"/>
</svg>