<?xml version="1.0" encoding="UTF-8"?>
<svg id="_圖層_1" data-name="圖層_1" xmlns="http://www.w3.org/2000/svg" version="1.1" viewBox="0 0 80 80">
  <!-- Generator: Adobe Illustrator 29.3.1, SVG Export Plug-In . SVG Version: 2.1.0 Build 151)  -->
  <defs>
    <style>
      .st0 {
        fill: #44a9ff;
      }

      .st1 {
        fill-rule: evenodd;
      }
    </style>
  </defs>
  <path class="st1" d="M10,45l20,29h32l6-6v-26l-6-6h-24v6h24v26h-29l-13-20,12,6V16h-6v28l-10-5-6,6Z"/>
  <path class="st0" d="M37.4,20.2c.4-1,.6-2.1.6-3.2,0-5-4-9-9-9s-9,4-9,9,.3,2.5.8,3.6l-5,3.4c-1.1-2.1-1.8-4.5-1.8-7,0-8.3,6.7-15,15-15s15,6.7,15,15-.6,5-1.8,7.1l-4.8-3.9Z"/>
</svg>