<?xml version="1.0" encoding="UTF-8"?>
<svg id="_圖層_1" data-name="圖層_1" xmlns="http://www.w3.org/2000/svg" xmlns:xlink="http://www.w3.org/1999/xlink" version="1.1" viewBox="0 0 80 80">
  <!-- Generator: Adobe Illustrator 29.3.1, SVG Export Plug-In . SVG Version: 2.1.0 Build 151)  -->
  <defs>
    <style>
      .st0 {
        fill: none;
      }

      .st1 {
        fill: #44a9ff;
      }

      .st2 {
        fill-rule: evenodd;
      }

      .st3 {
        clip-path: url(#clippath);
      }
    </style>
    <clipPath id="clippath">
      <rect class="st0" width="80" height="80"/>
    </clipPath>
  </defs>
  <g class="st3">
    <g>
      <path class="st2" d="M41,53.6l9.4-12.5c3.5-4.7,3.1-11.2-1.1-15.3-4.6-4.6-12-4.6-16.6,0-4.1,4.1-4.6,10.7-1.1,15.3l9.4,12.5ZM55.2,44.7c5.3-7.1,4.6-16.9-1.6-23.2-6.9-6.9-18.1-6.9-25.1,0-6.2,6.2-6.9,16.1-1.6,23.2l14.2,18.8,14.2-18.8Z"/>
      <circle class="st1" cx="41" cy="33" r="5"/>
      <path d="M36,4.2c-16.7,1.8-29.9,15.1-31.8,31.8h6c1.8-13.4,12.4-24,25.7-25.7v-6Z"/>
      <path d="M36,69.7c-12.7-1.7-22.9-11.3-25.4-23.7h-6.1c2.6,15.7,15.5,28,31.5,29.8v-6Z"/>
      <path d="M46,75.5v-6.1c11.8-2.4,21-11.6,23.4-23.4h6.1c-2.5,15.1-14.4,27-29.5,29.5Z"/>
      <path d="M46,10.6v-6.1c15.7,2.6,28,15.5,29.8,31.5h-6c-1.7-12.7-11.3-22.9-23.7-25.4Z"/>
      <rect x="66" y="38" width="14" height="6"/>
      <rect x="38" width="6" height="14"/>
      <rect x="38" y="66" width="6" height="14"/>
      <rect y="38" width="14" height="6"/>
    </g>
  </g>
</svg>