<?xml version="1.0" encoding="UTF-8"?>
<svg id="_圖層_1" data-name="圖層_1" xmlns="http://www.w3.org/2000/svg" version="1.1" viewBox="0 0 80 80">
  <!-- Generator: Adobe Illustrator 29.3.1, SVG Export Plug-In . SVG Version: 2.1.0 Build 151)  -->
  <defs>
    <style>
      .st0, .st1 {
        fill-rule: evenodd;
      }

      .st1 {
        fill: #44a9ff;
      }
    </style>
  </defs>
  <path class="st0" d="M14.8,23.1l-6-3.5v21c0,10.7,5.7,20.6,15,26l16.2,9.3,16.2-9.3c9.3-5.4,15-15.3,15-26v-21.4l-6,3.5v17.9c0,8.6-4.6,16.5-12,20.8l-13.2,7.6-13.2-7.6c-7.4-4.3-12-12.2-12-20.8v-17.6ZM9.9,15.6l30.1-11.6,29.8,11.5-6.7,3.9-23.1-8.9-23.5,9-6.7-3.9Z"/>
  <path class="st1" d="M40,19c-6.1,0-11,4.9-11,11v1l-5,5v14l8,6h18l6-6v-14l-5-5v-1c0-6.1-4.9-11-11-11ZM45,30c0-2.8-2.2-5-5-5s-5,2.2-5,5h10ZM50,50v-14h-20v14h20ZM37,40h6v6h-6v-6Z"/>
</svg>