<?xml version="1.0" encoding="UTF-8"?>
<svg id="_圖層_1" data-name="圖層_1" xmlns="http://www.w3.org/2000/svg" version="1.1" viewBox="0 0 80 80">
  <!-- Generator: Adobe Illustrator 29.3.1, SVG Export Plug-In . SVG Version: 2.1.0 Build 151)  -->
  <defs>
    <style>
      .st0 {
        fill: #44a9ff;
        fill-rule: evenodd;
      }
    </style>
  </defs>
  <path class="st0" d="M32,49c4.8,0,8.9-3.4,9.8-8h6.2v6h6v-6h4v-6h-16.8c-1.5-3.5-5.1-6-9.2-6s-10,4.5-10,10,4.5,10,10,10ZM32,43c2.2,0,4-1.8,4-4s-1.8-4-4-4-4,1.8-4,4,1.8,4,4,4Z"/>
  <path d="M63.2,12.5C49.9,1.2,30.1,1.2,16.8,12.5l4.3,4.3c11-9,27-9,38,0l4.3-4.3Z"/>
  <path d="M16.8,59c-9-11-9-27,0-38l-4.3-4.3C1.2,30.1,1.2,49.9,12.5,63.2l4.3-4.3Z"/>
  <path d="M16.8,67.5l4.3-4.3c11,9,27,9,38,0l4.3,4.3c-13.4,11.3-33.1,11.3-46.5,0Z"/>
  <path d="M63.2,21l4.3-4.3c11.3,13.4,11.3,33.1,0,46.5l-4.3-4.3c9-11,9-27,0-38Z"/>
</svg>