<?xml version="1.0" encoding="utf-8"?>
<!-- Generator: Adobe Illustrator 25.0.1, SVG Export Plug-In . SVG Version: 6.00 Build 0)  -->
<svg version="1.1" id="Layer_1" xmlns="http://www.w3.org/2000/svg" xmlns:xlink="http://www.w3.org/1999/xlink" x="0px" y="0px"
	 viewBox="0 0 410 330" style="enable-background:new 0 0 410 330;" xml:space="preserve">
<style type="text/css">
	.st0{fill:#2B6DD0;}
</style>
<path class="st0" d="M64.2,130.7c1,0.9,1.8,1.6,2.7,2.4c23.4,23.4,46.9,46.9,70.3,70.3c3.6,3.6,3.6,3.6,7.3,0
	c66.1-66,132.1-132.1,198.1-198.2c2.6-2.6,3.8-2.5,6.3,0c18.1,18.3,36.2,36.4,54.5,54.4c2.2,2.2,2.1,3.3,0,5.4
	C316.6,151.7,230,238.2,143.4,324.9c-2.2,2.2-3.3,2-5.4-0.1C94.3,281,50.6,237.3,6.8,193.7c-2.3-2.3-2.5-3.4-0.1-5.8
	c18.4-18.1,36.6-36.4,54.8-54.7C62.3,132.4,63.2,131.6,64.2,130.7z"/>
</svg>
