<?xml version="1.0" encoding="utf-8"?>
<!-- Generator: Adobe Illustrator 25.0.1, SVG Export Plug-In . SVG Version: 6.00 Build 0)  -->
<svg version="1.1" id="logo" xmlns="http://www.w3.org/2000/svg" xmlns:xlink="http://www.w3.org/1999/xlink" x="0px" y="0px"
	 viewBox="0 0 350.4 50" style="enable-background:new 0 0 350.4 50;" xml:space="preserve">
<g>
	<g>
		<path d="M154.9,13.1c1.4-0.3,4.3-0.5,7.1-0.5c3.3,0,5.4,0.3,7.2,1.4c1.7,0.9,2.9,2.6,2.9,4.7c0,2.2-1.3,4.2-4,5.2V24
			c2.8,0.8,4.8,2.8,4.8,6c0,2.2-1,3.9-2.5,5.1c-1.8,1.4-4.7,2.2-9.5,2.2c-2.7,0-4.7-0.2-5.9-0.4V13.1z M160.3,22.4h1.8
			c2.9,0,4.4-1.2,4.4-3c0-1.8-1.4-2.8-3.9-2.8c-1.2,0-1.9,0.1-2.3,0.1V22.4z M160.3,33.2c0.5,0.1,1.2,0.1,2.1,0.1
			c2.5,0,4.7-0.9,4.7-3.5c0-2.4-2.2-3.4-4.9-3.4h-1.9V33.2z"/>
		<path d="M181.3,12.8v13.9c0,4.2,1.6,6.3,4.4,6.3c2.9,0,4.5-2,4.5-6.3V12.8h5.5v13.6c0,7.5-3.8,11-10.1,11c-6.1,0-9.7-3.4-9.7-11.1
			V12.8H181.3z"/>
		<path d="M199.8,31.4c1.5,0.8,3.7,1.5,6.1,1.5c2.5,0,3.8-1,3.8-2.6c0-1.5-1.1-2.4-4.1-3.4c-4-1.4-6.6-3.6-6.6-7.2
			c0-4.1,3.5-7.3,9.2-7.3c2.7,0,4.7,0.6,6.2,1.2l-1.2,4.4c-1-0.5-2.7-1.2-5.1-1.2c-2.4,0-3.5,1.1-3.5,2.3c0,1.5,1.4,2.2,4.5,3.4
			c4.3,1.6,6.3,3.8,6.3,7.2c0,4.1-3.1,7.5-9.8,7.5c-2.8,0-5.5-0.7-6.9-1.5L199.8,31.4z"/>
		<path d="M223.8,12.8V37h-5.5V12.8H223.8z"/>
		<path d="M227.8,37V12.8h6.4l5,8.9c1.4,2.6,2.9,5.6,4,8.3h0.1c-0.4-3.2-0.5-6.5-0.5-10.1v-7.1h5V37h-5.8l-5.2-9.3
			c-1.4-2.6-3-5.7-4.2-8.6l-0.1,0c0.1,3.2,0.2,6.6,0.2,10.6V37H227.8z"/>
		<path d="M266.3,26.8h-8.9v5.8h10V37h-15.5V12.8h15v4.5h-9.5v5h8.9V26.8z"/>
		<path d="M270.6,31.4c1.5,0.8,3.7,1.5,6.1,1.5c2.5,0,3.8-1,3.8-2.6c0-1.5-1.1-2.4-4.1-3.4c-4-1.4-6.6-3.6-6.6-7.2
			c0-4.1,3.5-7.3,9.2-7.3c2.7,0,4.7,0.6,6.2,1.2l-1.2,4.4c-1-0.5-2.7-1.2-5.1-1.2c-2.4,0-3.5,1.1-3.5,2.3c0,1.5,1.4,2.2,4.5,3.4
			c4.3,1.6,6.3,3.8,6.3,7.2c0,4.1-3.1,7.5-9.8,7.5c-2.8,0-5.5-0.7-6.9-1.5L270.6,31.4z"/>
		<path d="M289.2,31.4c1.5,0.8,3.7,1.5,6.1,1.5c2.5,0,3.8-1,3.8-2.6c0-1.5-1.1-2.4-4.1-3.4c-4-1.4-6.6-3.6-6.6-7.2
			c0-4.1,3.5-7.3,9.2-7.3c2.7,0,4.7,0.6,6.2,1.2l-1.2,4.4c-1-0.5-2.7-1.2-5.1-1.2c-2.4,0-3.5,1.1-3.5,2.3c0,1.5,1.4,2.2,4.5,3.4
			c4.3,1.6,6.3,3.8,6.3,7.2c0,4.1-3.1,7.5-9.8,7.5c-2.8,0-5.5-0.7-6.9-1.5L289.2,31.4z"/>
	</g>
	<rect x="135" y="12.5" width="1.4" height="25"/>
	<g>
		<path d="M56.9,13H36.4c-4.8,0-6.9,3-7.4,5.8V13H17.6c-1.6,0-2.4,0.5-3.1,1.6l-3.1,4.6h45.6V13z"/>
		<polygon points="0,37 8.2,37 18.4,20.5 11.1,19.8 		"/>
		<rect x="58.1" y="13" width="6.7" height="6.2"/>
		<path d="M107.6,22.6l-21.1-1.3c0,3.2,2.1,5.4,5.7,5.7l15,1.2c1.2,0.1,1.9,0.4,1.9,1.3c0,0.9-0.8,1.3-2.5,1.3H86.2V37h20.9
			c6.6,0,9.5-2.3,9.5-7.6C116.6,24.8,114,23,107.6,22.6z"/>
		<path d="M86.3,21.3L79.6,21V28c0,2.2-1.1,2.9-5,2.9h-5.3c-3.2,0-4.5-0.9-4.5-2.9v-7.8l-6.7-0.5v8.8H58c-0.4-2.6-1.3-5.5-7.8-6
			l-21.1-1.4c0,3.2,2.3,5.2,5.9,5.5l14.7,1.5c1.2,0.1,2,0.4,2,1.4c0,1.1-0.9,1.2-2.2,1.2H28.9v-9.6l-6.7-0.4V37h27.4
			c6.1,0,8.1-3.2,8.4-5.8h0.1c0.8,4.2,4.4,5.8,10.6,5.8h6.8c7.3,0,10.7-2.2,10.7-7.4V21.3z"/>
		<path d="M116.1,19.1V13H93.5c-4.7,0-6.8,2.9-7.2,5.7c0,0,0,0.1,0,0.1V13h-6.6v6.2h6.7H116.1z"/>
	</g>
	<g>
		<g>
			<path d="M331.4,26l9.5,15.1l9.5-15.1H331.4z"/>
		</g>
		<g>
			<path d="M331.4,24h19.1l-9.5-15.1L331.4,24z"/>
		</g>
		<g>
			<path d="M314.9,0l14.6,23.1L339.7,7l-4.4-7H314.9z"/>
		</g>
		<g>
			<path d="M314.9,50h20.4l4.4-7l-10.2-16.1L314.9,50z"/>
		</g>
	</g>
</g>
</svg>
