<?xml version="1.0" encoding="utf-8"?>
<!-- Generator: Adobe Illustrator 25.0.1, SVG Export Plug-In . SVG Version: 6.00 Build 0)  -->
<svg version="1.1" id="圖層_1" xmlns="http://www.w3.org/2000/svg" xmlns:xlink="http://www.w3.org/1999/xlink" x="0px" y="0px"
	 viewBox="0 0 885.9 815.1" style="enable-background:new 0 0 885.9 815.1;" xml:space="preserve">
<style type="text/css">
	.st0{fill:#004098;}
	.st1{fill:#FABE00;}
</style>
<g>
	
		<rect x="341.8" y="285.2" transform="matrix(0.7071 -0.7071 0.7071 0.7071 -100.3753 469.2262)" class="st0" width="348.8" height="141.2"/>
	<path class="st1" d="M677.8,175c0,63.4-51.4,114.9-114.9,114.9C499.5,289.8,448,238.4,448,175S499.4,60.1,562.9,60.1
		S677.8,111.5,677.8,175z"/>
	<g>
		<polygon class="st0" points="434.9,337.3 434.9,337.3 387.9,290.3 542.6,135.5 442.8,35.7 196.2,282.4 442.8,529 534.7,437.1 		
			"/>
	</g>
	<g>
		<path class="st0" d="M128.8,570.5h24.8v46.8c0,3.1,0.4,5.5,1.1,7c0.7,1.6,2.1,2.9,4.1,3.9s4.2,1.5,6.7,1.5c3.7,0,6.5-1,8.5-3
			s3-5.1,3-9.5v-46.8h25v44.4c0,5.6-0.4,10-1.3,13.3c-0.9,3.3-2.3,6.1-4.3,8.6s-4.4,4.6-7.3,6.4c-2.9,1.8-6.3,3.2-10.3,4.1
			c-3.9,0.9-8.2,1.4-12.8,1.4c-5.4,0-10-0.5-14-1.4c-4-1-7.4-2.3-10.2-4.1c-2.9-1.8-5.3-3.9-7.2-6.4c-2-2.5-3.5-5.7-4.6-9.9
			c-0.7-2.6-1-6.6-1-12.1v-44.2H128.8z"/>
		<path class="st0" d="M216.3,646.5v-76h31.1c7.2,0,12.7,0.3,16.4,1s6.7,1.6,9.1,2.8s4.5,2.9,6.5,5.1c2,2.2,3.5,4.7,4.5,7.5
			s1.5,5.9,1.5,9.4c0,3.9-0.6,7.4-1.9,10.6c-1.2,3.1-2.7,5.7-4.4,7.5c-1.7,1.9-3.5,3.3-5.4,4.4c-1.3,0.8-3.3,1.5-5.9,2.3
			c-4,1.2-8.3,1.8-12.8,1.8h-14.2v23.6L216.3,646.5L216.3,646.5z M240.5,588.9v15.9h9c3.5,0,6-0.2,7.4-0.6c1.4-0.4,2.5-1.3,3.4-2.6
			s1.3-2.9,1.3-4.8c0-3-1-5-3.1-6.1c-2-1.1-5.4-1.7-10.1-1.7h-7.9V588.9z"/>
		<path class="st0" d="M324.3,570.5h27.9l12.8,25.8l12.9-25.8h27.7l-28.5,47.9v28.1h-24.8v-27.7L324.3,570.5z"/>
		<path class="st0" d="M451.7,648.5c-12.1,0-21.9-3.6-29.1-11c-7.3-7.3-10.9-17-10.9-29.2c0-5.8,0.9-11,2.5-15.6
			c1.7-4.6,3.9-8.5,6.8-11.7c2.8-3.2,5.8-5.6,8.9-7.3s6.4-3,10-3.9s7.4-1.4,11.3-1.4c7.5,0,14.4,1.6,20.7,4.7
			c6.3,3.2,11.1,7.7,14.5,13.7c3.3,6,5,12.9,5,20.7c0,7.6-1.5,14.5-4.4,20.5c-2.9,6.1-7.4,11-13.4,14.8
			C467.7,646.6,460.4,648.5,451.7,648.5z M451.4,629.8c2.8,0,5.4-0.7,7.8-2.1c2.3-1.4,4.2-3.8,5.6-7.1s2.1-7.3,2.1-12.1
			c0-3.4-0.3-6.5-1-9.1c-0.7-2.7-1.6-4.9-2.8-6.5c-1.1-1.6-2.7-3-4.6-4.1c-2-1.1-4.1-1.7-6.6-1.7c-2.7,0-5.3,0.8-7.7,2.3
			c-2.4,1.5-4.3,3.9-5.7,7.2c-1.4,3.2-2.1,7.2-2.1,12c0,7.1,1.6,12.7,4.9,16.7C443.7,628.2,447.2,629.8,451.4,629.8z"/>
		<path class="st0" d="M504.5,570.5h24.8v46.8c0,3.1,0.4,5.5,1.1,7c0.7,1.6,2.1,2.9,4,3.9c2,1,4.2,1.5,6.7,1.5c3.7,0,6.5-1,8.6-3
			c2-2,3-5.1,3-9.5v-46.8h24.9v44.4c0,5.6-0.4,10-1.3,13.3c-0.9,3.3-2.3,6.1-4.3,8.6s-4.5,4.6-7.4,6.4c-2.9,1.8-6.3,3.2-10.2,4.1
			c-3.9,0.9-8.2,1.4-12.8,1.4c-5.4,0-10.1-0.5-14-1.4c-4-1-7.4-2.3-10.3-4.1c-2.9-1.8-5.3-3.9-7.2-6.4c-2-2.5-3.5-5.7-4.6-9.9
			c-0.7-2.6-1-6.6-1-12.1L504.5,570.5L504.5,570.5z"/>
		<path class="st0" d="M593.9,646.5v-76h23.2l26.2,40.7v-40.7h23.9v76h-23.7l-25.6-39.7v39.7H593.9z"/>
		<path class="st0" d="M756,596.6h-23.6c-0.9-3-2.4-5.3-4.6-6.9c-2.2-1.6-4.8-2.4-7.8-2.4c-4.3,0-7.8,1.7-10.7,5.2
			c-2.9,3.4-4.3,9-4.3,16.5c0,7.4,1.4,12.7,4.3,16.1c2.8,3.3,6.5,5,11,5c3.5,0,6.5-0.9,9-2.8c2.5-1.9,4-3.9,4.4-6.2h-11v-16.4H757
			v41.9h-16.2l-1-7.4c-2,2.3-3.8,4-5.2,5c-1.9,1.3-4.3,2.4-7.1,3.2c-2.9,0.8-6.2,1.3-10,1.3c-7,0-13.3-1.5-18.9-4.3
			c-5.6-2.9-10-7.4-13.4-13.6c-3.4-6.1-5-13.3-5-21.5c0-6.4,1-12.2,3.1-17.7c1.7-4.4,4.3-8.4,7.8-11.9s7.4-6.2,11.7-7.9
			c5.4-2.2,11.3-3.3,17.7-3.3c7.1,0,13.4,1.4,18.7,4.2c5.4,2.8,9.5,6.7,12.4,11.5C753.6,587.5,755.1,591.7,756,596.6z"/>
	</g>
</g>
</svg>
