<?xml version="1.0" encoding="UTF-8"?>
<svg id="_圖層_1" data-name="圖層_1" xmlns="http://www.w3.org/2000/svg" version="1.1" viewBox="0 0 67 72">
  <!-- Generator: Adobe Illustrator 30.5.1, SVG Export Plug-In . SVG Version: 2.1.4 Build 3)  -->
  <defs>
    <style>
      .st0 {
        fill-rule: evenodd;
      }

      .st0, .st1 {
        fill: #231916;
      }

      .st2 {
        fill: #a6a29d;
      }
    </style>
  </defs>
  <rect class="st2" width="67" height="72"/>
  <g>
    <path class="st0" d="M44.9,13c-.3-.4-.7-.2-1,.2-.1-.5-.9-.6-.9.1,0,0,0,0-.1,0-.7-.6-1.4,0-1,.4.1.3-.1.3-.3.5,0,.1-.1.3,0,.5,0,0-.2,0-.4,0h0s-1.4,0-1.4,0l-2.2-.7-.7-.2h-1.3c.1-.6-.4-1-.8-.6,0,0,0,0,0,0-.1-.4-.4-.7-.8-.8.7-.8,0-1.4-.2-1.7,0-.3,0-.6.2-.9,0-.2-.3-.3-.5-.3-.2,0-.4.1-.5.3.2.3.3.5.2.9-.2.4-.9.9-.2,1.7-.4,0-.7.3-.8.8,0,0-.1-.1-.2-.2-.3-.2-.8,0-.7.6-.4,0-.9,0-1.3,0l-.8.3-2.1.7h-.7c-.3,0-1,0-1.1,0,0-.2,0-.4,0-.5-.1-.2-.4-.2-.3-.5.4-.4-.2-1-1-.4,0,0,0,0-.1,0,0-.8-.7-.6-.9-.1-.3-.4-.6-.6-1-.2-.4.3-.3.4-.1.5,0,0,.2.2.3.3-.1.4.3.7.7.9,0,0,0,0-.1,0-.1,0-.3,0-.3,0-.2.1-.2.5.4.5.4,0,.9,0,1.4.1v3.4c-.2,0-.3.3-.3.6s.1.5.3.6h0s-.3,0-.3,0l-.2,4.7h.5v1.6c-.4,0-.6.4-.6.8s.3.7.6.8h0s-.3,0-.3,0l-.2,7.1h1.4l-.2-7.1h-.3s0,0,0,0c.4,0,.6-.4.6-.8s-.3-.7-.6-.8v-1.6h.5l-.2-4.8h-.3s0,0,0,0c.2,0,.4-.3.4-.7s-.2-.6-.4-.6v-3.4c.2,0,.3,0,.5,0,.3,0,.7,0,.9,0h0s0,4.8,0,4.8h0c-.2,0-.4.2-.6.3,0,0,0,0,0,.1,0,0,0,.1,0,.2-.5.4-.3.9.3.9,0,.3,0,.4,0,.5.1,0,.4,0,.5,0,.1,0,.2-.3.2-.5,0-.4.1-.9.1-1.4l1.6,1v11.7l-.6.5v1.5h11.5v-1.5l-.7-.5v-11.7l1.7-.8c0,.6,0,1,.1,1.4.1.8,1.1.6.7-.1.4,0,.9-.3.3-.9,0,0,0,0,0-.1,0,0,0-.1,0-.2-.1-.1-.3-.3-.6-.3,0-1.2,0-2.4,0-3.6v-1.2h.4c.3,0,.7-.1,1-.1v3.4c-.2,0-.3.3-.3.6s.1.5.3.6h0s-.3,0-.3,0l-.2,4.7h.5v1.6c-.4,0-.6.4-.6.8s.3.7.6.8h0s-.3,0-.3,0l-.2,7.1h1.4l-.2-7.1h-.3s0,0,0,0c.4,0,.6-.4.6-.8s-.3-.7-.6-.8v-1.6h.5l-.2-4.8h-.3s0,0,0,0c.2,0,.4-.3.4-.7s-.1-.6-.4-.6v-3.4c.5,0,1,0,1.5-.1.6,0,.6-.3.4-.5,0,0-.2,0-.3,0,0,0-.1,0-.1,0,.4-.3.8-.5.7-.9.1,0,.2-.2.3-.3.2-.1.3-.2-.1-.5h0ZM29.6,33.1h-.7v-11.7h.3c0-.1.3-.2.3-.2v11.9h0ZM33.1,33h-2.1v-11.8h2.1v11.8ZM35.9,33h-2.1v-11.8h2.1v11.8ZM38.1,33.1h-.7v-11.9h.3c0,.1.3.2.3.2v11.7h0ZM38.6,20.5v-.2s-.9-.2-.9-.2l-.8-.2h-6.9l-.8.2-.8.2v.3s-.9-.6-.9-.6l1.7-.4.8-.2h7l.7.2,1.8.5-.9.5h0Z"/>
    <path class="st1" d="M13.3,61.9v-.6h-.9v-17.2h.5c1.1,0,1.5,2.1,1.6,4.7h.3v-5.3h-5.6v5.3c-.1,0,.2,0,.2,0,.2-2.7.3-4.7,1.3-4.7h.7v17.2h-.9v.6h2.8"/>
    <path class="st1" d="M38.2,61.9v-5.2c.1,0,0,0,0,0-.1,1.8-.5,4.5-1.4,4.5h-1.9v-17.2h1v-.6h-2.9v.6h.9v17.2h-.9v.6h5.3"/>
    <path class="st1" d="M51.7,43.4v.6h.8v13.2c0,3.1.9,5.1,2.3,5.1s2.4-2.1,2.4-6.4v-11.8h.8v-.6h-1.9v.6h.8v11c0,3.5-.2,6.4-1.8,6.4s-1.5-3-1.5-3.6v-13.7h.8v-.6h-2.7"/>
    <path class="st1" d="M17.3,54.3v-6.1h.8v-.5h-2.6v.5h.8v13.2h-.8v.5h2.6v-.5h-.8v-6.5h2.9v6.5h-.8v.5h2.6v-.5h-.8v-13.2h.8v-.5h-2.6v.5h.8v6.1h-2.9Z"/>
    <path class="st1" d="M28,62v-4c.1,0-.1,0-.1,0-.3,3.1-.7,3.5-2.1,3.5h-1.2v-6.6c1,0,1.4.3,1.5,2.6h.2v-5.4h-.2c-.1,2.3-.5,2.3-1.5,2.3v-6.1h1.3c.9,0,1.6.4,1.7,3h.2v-3.5h-5.2v.5h.9v13.2h-.9v.5h5.3"/>
    <path class="st1" d="M51.2,62v-4c.1,0,0,0,0,0-.1,1.4-.5,3.5-1.4,3.5h-1.8v-13.2h.9v-.5h-2.8v.5h.8v13.2h-.8v.5h5.1Z"/>
    <path class="st0" d="M41.1,62v-.5h-.9l.7-4.7h2l.7,4.7h-.8v.5h2.6v-.5h-.7l-2.1-13.9h-.4l-2.2,13.9h-.8v.5h2ZM41,56.2l.9-5.8h0l.8,5.8h-1.8Z"/>
  </g>
</svg>