<?xml version="1.0" encoding="UTF-8"?>
<svg id="_圖層_2" data-name="圖層 2" xmlns="http://www.w3.org/2000/svg" viewBox="0 0 273.66 456">
  <defs>
    <style>
      .cls-1 {
        font-family: SourceHanSansTC-Medium-B5pc-H, 'Source Han Sans TC';
        font-size: 16px;
        font-weight: 500;
        letter-spacing: .05em;
      }

      .cls-1, .cls-2, .cls-3, .cls-4, .cls-5, .cls-6, .cls-7, .cls-8, .cls-9, .cls-10, .cls-11, .cls-12, .cls-13 {
        fill: #fff;
      }

      .cls-14 {
        stroke-width: .74px;
      }

      .cls-14, .cls-15, .cls-2, .cls-16, .cls-17, .cls-18, .cls-19, .cls-3, .cls-4, .cls-5, .cls-6, .cls-7, .cls-8, .cls-20, .cls-21, .cls-22, .cls-23, .cls-24, .cls-25, .cls-10, .cls-11, .cls-13 {
        stroke-miterlimit: 10;
      }

      .cls-14, .cls-15, .cls-16, .cls-17, .cls-18, .cls-19, .cls-20, .cls-21, .cls-22, .cls-23, .cls-25 {
        fill: none;
      }

      .cls-14, .cls-15, .cls-16, .cls-5 {
        stroke: #000;
      }

      .cls-15 {
        stroke-width: .74px;
      }

      .cls-2, .cls-18, .cls-19, .cls-3, .cls-6, .cls-7, .cls-8, .cls-9, .cls-24, .cls-10, .cls-11, .cls-13 {
        stroke: gray;
      }

      .cls-2, .cls-18, .cls-19, .cls-6, .cls-24 {
        stroke-width: .42px;
      }

      .cls-2, .cls-19, .cls-23 {
        stroke-linecap: round;
      }

      .cls-16 {
        stroke-width: .74px;
      }

      .cls-17 {
        stroke-width: .4px;
      }

      .cls-17, .cls-22 {
        stroke: #606060;
      }

      .cls-26 {
        isolation: isolate;
        opacity: .24;
      }

      .cls-26, .cls-27, .cls-28, .cls-29, .cls-30, .cls-31, .cls-32, .cls-33, .cls-12, .cls-34, .cls-35, .cls-36 {
        stroke-width: 0px;
      }

      .cls-3 {
        stroke-width: .22px;
      }

      .cls-37 {
        font-size: 3.31px;
      }

      .cls-37, .cls-38 {
        font-family: SourceHanSansTC-Regular-B5pc-H, 'Source Han Sans TC';
      }

      .cls-37, .cls-29 {
        fill: gray;
      }

      .cls-4, .cls-25 {
        stroke: #231815;
      }

      .cls-5 {
        stroke-width: .68px;
      }

      .cls-7 {
        stroke-width: .42px;
      }

      .cls-8 {
        stroke-width: .42px;
      }

      .cls-9 {
        stroke-miterlimit: 10;
        stroke-width: .42px;
      }

      .cls-20 {
        stroke: #9f9f9f;
        stroke-width: .84px;
      }

      .cls-21 {
        stroke: #ffbc00;
        stroke-width: 1.56px;
      }

      .cls-22 {
        stroke-width: .79px;
      }

      .cls-23 {
        stroke: #fff;
        stroke-width: .94px;
      }

      .cls-24 {
        fill: #34afa9;
      }

      .cls-38 {
        fill: #b9b9b9;
        font-size: 7px;
      }

      .cls-10 {
        stroke-width: .38px;
      }

      .cls-11 {
        stroke-width: .36px;
      }

      .cls-28 {
        fill: #606060;
      }

      .cls-30 {
        fill: #197580;
      }

      .cls-31 {
        fill: #228181;
      }

      .cls-32 {
        fill: #155d60;
      }

      .cls-33 {
        fill: #d4d4d4;
      }

      .cls-34 {
        fill: #efefef;
      }

      .cls-35 {
        fill: #fb0;
      }

      .cls-36 {
        fill: #f4f4f4;
      }

      .cls-13 {
        stroke-width: .66px;
      }
    </style>
  </defs>
  <g id="_圖層_1-2" data-name="圖層 1">
    <g>
      <rect class="cls-4" x=".5" y=".5" width="266" height="455" rx="18" ry="18"/>
      <path class="cls-31" d="m266.5,49.96v-31.46c0-9.9-8.1-18-18-18H18.5C8.6.5.5,8.6.5,18.5v31.46h266Z"/>
      <text class="cls-1" transform="translate(99.9 41.49)"><tspan x="0" y="0">健保櫃檯</tspan></text>
      <g>
        <g>
          <path class="cls-27" d="m229.37,14.26h-2.87v-.69l2.64-4.04h1.21v3.93h.84v.8h-.84v1.71h-.97v-1.71Zm0-.8v-1.63c0-.36.03-.94.04-1.3h-.04c-.16.32-.34.63-.53.96l-1.3,1.96h1.83Z"/>
          <path class="cls-27" d="m231.96,12.68c0-2.16,1.33-3.46,3.09-3.46.94,0,1.57.41,1.97.84l-.56.67c-.33-.33-.74-.59-1.38-.59-1.23,0-2.05.95-2.05,2.51s.73,2.54,2.1,2.54c.41,0,.81-.12,1.04-.32v-1.56h-1.31v-.86h2.26v2.87c-.44.44-1.19.77-2.1.77-1.76,0-3.06-1.24-3.06-3.41Z"/>
        </g>
        <g>
          <path class="cls-27" d="m11.28,15.12h1.45v-4.43h-1.19v-.66c.62-.11,1.06-.27,1.44-.5h.78v5.59h1.3v.86h-3.78v-.86Z"/>
          <path class="cls-27" d="m18.69,14.26h-2.87v-.69l2.64-4.04h1.21v3.93h.84v.8h-.84v1.71h-.97v-1.71Zm0-.8v-1.63c0-.36.03-.94.04-1.3h-.04c-.16.32-.34.63-.53.96l-1.3,1.96h1.83Z"/>
          <path class="cls-27" d="m21.41,11.83c0-.42.31-.74.69-.74s.69.32.69.74-.31.72-.69.72-.69-.31-.69-.72Zm0,3.54c0-.43.31-.74.69-.74s.69.31.69.74-.31.72-.69.72-.69-.3-.69-.72Z"/>
          <path class="cls-27" d="m23.84,15.37c1.84-1.81,2.96-2.96,2.96-3.97,0-.7-.38-1.17-1.13-1.17-.52,0-.95.33-1.3.74l-.59-.58c.57-.61,1.15-.99,2.02-.99,1.22,0,2,.77,2,1.95s-1.07,2.37-2.45,3.81c.33-.04.76-.06,1.08-.06h1.68v.88h-4.28v-.6Z"/>
          <path class="cls-27" d="m28.97,15.37c1.84-1.81,2.96-2.96,2.96-3.97,0-.7-.38-1.17-1.13-1.17-.52,0-.95.33-1.3.74l-.59-.58c.57-.61,1.15-.99,2.02-.99,1.22,0,2,.77,2,1.95s-1.07,2.37-2.45,3.81c.33-.04.76-.06,1.08-.06h1.68v.88h-4.28v-.6Z"/>
        </g>
        <g>
          <rect class="cls-32" x="221.07" y="8.91" width="1.1" height="7.11"/>
          <rect class="cls-27" x="219.08" y="10.3" width="1.1" height="5.72"/>
          <rect class="cls-27" x="217.1" y="11.63" width="1.1" height="4.39"/>
          <rect class="cls-27" x="215.11" y="13.08" width="1.1" height="2.94"/>
          <rect class="cls-27" x="213.12" y="14.35" width="1.1" height="1.67"/>
        </g>
        <g>
          <g>
            <rect class="cls-27" x="257.42" y="11.58" width="2" height="2" rx=".71" ry=".71"/>
            <rect class="cls-27" x="243.73" y="9.21" width="15" height="6.56" rx="1.43" ry="1.43"/>
          </g>
          <g>
            <path class="cls-30" d="m245.08,14.22h1.13v-3.45h-.92v-.51c.48-.09.83-.21,1.12-.39h.61v4.35h1.01v.66h-2.94v-.66Z"/>
            <path class="cls-30" d="m248.8,12.35c0-1.69.64-2.58,1.67-2.58s1.67.9,1.67,2.58-.64,2.62-1.67,2.62-1.67-.93-1.67-2.62Zm2.56,0c0-1.44-.37-1.95-.9-1.95s-.9.5-.9,1.95.37,1.98.9,1.98.9-.54.9-1.98Z"/>
            <path class="cls-30" d="m252.79,12.35c0-1.69.64-2.58,1.67-2.58s1.67.9,1.67,2.58-.64,2.62-1.67,2.62-1.67-.93-1.67-2.62Zm2.56,0c0-1.44-.37-1.95-.9-1.95s-.9.5-.9,1.95.37,1.98.9,1.98.9-.54.9-1.98Z"/>
          </g>
        </g>
      </g>
      <g>
        <path class="cls-36" d="m13.63,33.41l-3.71,1.58,3.71,1.58v1.02l-5.05-2.18v-.85l5.05-2.18v1.03Z"/>
        <path class="cls-36" d="m20.22,29.33v2.98h3.71v1.02h-3.71v3.91h4.49v1.02h-9.01v-1.02h3.47v-7.91h1.05Z"/>
        <path class="cls-36" d="m35.73,33.37v1.03h-9.11v-1.03h9.11Z"/>
        <path class="cls-36" d="m41.46,31.19c.06-.21.11-.42.14-.63h-3.71v-.95h8.69v.95h-3.94c0,.23-.09.43-.14.63h3.23v5.76h-1.65c.93.22,1.84.5,2.72.83l-.54.86c-1.03-.48-2.11-.85-3.22-1.11l.39-.58h-2.52l.49.63c-1.04.53-2.16.9-3.32,1.08l-.5-.86c1.08-.15,2.13-.44,3.13-.86h-1.88v-5.76h2.62Zm3.25,1.6v-.64h-4.87v.64h4.87Zm0,1.58v-.69h-4.87v.69h4.87Zm0,.88h-4.87v.73h4.84l.03-.73Z"/>
      </g>
      <g>
        <rect class="cls-11" x="240.55" y="29.32" width="16.89" height="14.81" rx=".85" ry=".85"/>
        <g>
          <rect class="cls-22" x="243.64" y="31.45" width="4.25" height="4.25"/>
          <rect class="cls-28" x="245.29" y="33.1" width=".95" height=".95"/>
        </g>
        <rect class="cls-28" x="251.45" y="39.4" width=".95" height=".95"/>
        <rect class="cls-28" x="249.8" y="37.75" width=".95" height=".95"/>
        <rect class="cls-28" x="249.8" y="41.05" width=".95" height=".95"/>
        <rect class="cls-28" x="253.1" y="37.75" width=".95" height=".95"/>
        <rect class="cls-28" x="253.1" y="41.05" width=".95" height=".95"/>
        <g>
          <rect class="cls-22" x="243.64" y="37.75" width="4.25" height="4.25"/>
          <rect class="cls-28" x="245.29" y="39.4" width=".95" height=".95"/>
        </g>
        <g>
          <rect class="cls-22" x="249.8" y="31.45" width="4.25" height="4.25"/>
          <rect class="cls-28" x="251.45" y="33.1" width=".95" height=".95"/>
        </g>
      </g>
      <rect class="cls-5" x="14.83" y="58.33" width="235.35" height="390.92" rx="5.94" ry="5.94"/>
      <path class="cls-27" d="m31.56,82.44l-.15-.67h1c.29.03.55-.18.58-.47,0-.04,0-.08,0-.12v-3.39c-.57.23-1.14.44-1.72.63l-.18-.68c.63-.19,1.26-.4,1.89-.66v-3.09h-1.64v-.67h1.64v-2.4h.68v2.4h1.55v.68h-1.55v2.8c.52-.26,1.01-.53,1.5-.81v.69c-.49.28-.98.54-1.5.78v3.9c.07.5-.27.96-.76,1.03-.09.01-.17.01-.26,0l-1.08.04Zm10.09-5.97v.63c-.41,1.23-1.12,2.33-2.07,3.2,1.01.7,2.12,1.27,3.28,1.68l-.38.59c-1.21-.46-2.35-1.09-3.39-1.85-1.12.84-2.38,1.47-3.72,1.87l-.38-.58c1.28-.37,2.48-.96,3.56-1.74-.97-.83-1.68-1.91-2.07-3.13h-.83v-.69l6,.03Zm-.87-4.96v2.81c0,.33.18.49.53.49h1.15v.64h-1.26c-.71,0-1.07-.34-1.07-1.02v-2.27h-2.69v.86c0,1.18-.69,2.25-1.75,2.75l-.47-.54c.9-.33,1.51-1.17,1.53-2.13v-1.59h4.04Zm-1.75,8.38c.85-.74,1.51-1.68,1.93-2.72h-3.78c.37,1.06,1.02,2.01,1.89,2.72h-.04Z"/>
      <path class="cls-27" d="m47.43,71.19c-.3.95-.7,1.86-1.17,2.74v8.69h-.71v-7.57c-.45.69-.96,1.33-1.53,1.93l-.23-.73c1.36-1.57,2.38-3.41,2.99-5.4l.64.34Zm2.69,7.8c-.76,1.09-1.69,2.05-2.75,2.84l-.43-.54c1.04-.75,1.95-1.68,2.69-2.74l.49.44Zm4.11-7.43v3.86h-2.61v1.59h3.78v.68h-3.78v4.91h-.69v-4.91h-3.62v-.68h3.62v-1.59h-2.52v-3.86h5.83Zm-.68.66h-4.52v2.52h4.52v-2.52Zm2.09,9.06l-.47.5c-.82-1.02-1.73-1.96-2.72-2.81l.43-.48c1,.84,1.93,1.78,2.76,2.79h0Z"/>
      <path class="cls-27" d="m61.57,78.47l-.59.15c-.06-.25-.13-.48-.19-.71-1.24.34-2.51.59-3.78.74l-.19-.64c.12-.05.23-.11.33-.19.72-.77,1.34-1.61,1.87-2.52-.68.11-1.36.21-2.04.29l-.16-.63c.12-.06.22-.15.3-.25.74-1.19,1.33-2.46,1.78-3.78l.66.25c-.5,1.3-1.15,2.54-1.93,3.7.59,0,1.19-.14,1.79-.24.29-.53.59-1.08.91-1.69l.63.24c-.87,1.69-1.92,3.28-3.12,4.76.92-.15,1.84-.34,2.74-.58-.15-.48-.33-.96-.5-1.41l.56-.18c.38.88.7,1.78.96,2.7Zm-3.52,1.01c-.05,1-.21,2-.48,2.96l-.66-.2c.3-.92.48-1.87.52-2.84l.62.08Zm1.83,2.52l-.63.14c-.11-1.02-.25-1.9-.4-2.69l.61-.14c.13.77.3,1.65.43,2.62v.06Zm1.69-.61l-.62.15c-.16-.8-.38-1.59-.64-2.36l.57-.18c.28.76.51,1.53.69,2.32v.06Zm6.21.29c-.31.42-.82.64-1.34.58h-3.08c-.71,0-1.06-.34-1.06-.98v-5.46h4.35v-3.54h-4.68v-.66h5.36v4.87h-4.33v4.55c0,.37.19.54.59.56h2.7c.41.05.8-.18.96-.56.19-.68.29-1.38.29-2.08l.69.23c0,.83-.16,1.66-.47,2.43v.06Z"/>
      <path class="cls-27" d="m72.19,71.12c.73.74,1.45,1.54,2.17,2.38l-.44.47c-.59-.76-1.22-1.5-1.89-2.19-.66,1.09-1.44,2.11-2.31,3.04l-.39-.53c.9-.96,1.68-2.02,2.33-3.17h.53Zm-1.78,3.58v-.61h3.1v.61h-1.26v1.63h1.7v.64h-1.77v4.07c.57-.15,1.12-.32,1.65-.49v.66c-1.34.43-2.7.78-4.07,1.05l-.18-.66c.67-.11,1.26-.24,1.96-.39v-4.24h-1.82v-.64h1.82v-1.63h-1.14Zm.47,5.6l-.52.14c-.15-.85-.34-1.69-.58-2.52l.54-.2c.2.76.38,1.61.61,2.59h-.05Zm3.09-2.52c-.15.78-.36,1.56-.63,2.31l-.52-.2c.28-.73.5-1.49.63-2.26l.52.15Zm1.97-6.88l.66.1-.23.78h3.39v.26l-.96,3.58h2.22v.62h-3.03v5.4c.06.41-.22.78-.63.84-.07,0-.14.01-.2,0h-1.08l-.14-.66h.98c.2.03.39-.11.41-.31,0-.03,0-.06,0-.09v-5.24h-3.13v-.62h3.95l.33-1.19h-3.6l1.05-3.49Zm.74,8.7c-.55.77-1.25,1.42-2.06,1.92l-.33-.57c.84-.46,1.58-1.09,2.17-1.84l.21.49Zm-.13-1.44l-.32.49c-.52-.44-1.09-.81-1.7-1.11l.33-.48c.61.29,1.18.66,1.69,1.1h0Zm2.52-5.79h-2.88l-.45,1.53h2.91l.42-1.53Zm2.08,8.7l-.35.53c-.67-.77-1.45-1.44-2.31-1.99l.32-.45c.85.54,1.63,1.18,2.32,1.92h.03Zm-.53-3.78c-.44.55-1.01.98-1.65,1.26l-.32-.45c.59-.27,1.11-.68,1.53-1.19l.44.38Z"/>
      <path class="cls-27" d="m87.72,75.84v-3.03h-.08c-1.36,1.49-3.11,2.56-5.05,3.1l-.38-.61c1.78-.43,3.42-1.3,4.78-2.52h-4.2v-.67h4.86v-1.26h.69v1.26h4.86v.67h-4.86v.53c1.83.52,3.63,1.15,5.39,1.88l-.44.5c-1.61-.71-3.26-1.33-4.94-1.85v1.99h3.41v4.59h-7.51v-4.59h3.47Zm5.78,5.76v.54h-10.89v-.64l10.89.1Zm-2.35-3.78v-1.39h-6.16v1.39h6.16Zm0,.61h-6.16v1.35h6.12l.04-1.35Z"/>
      <path class="cls-27" d="m99.07,72.74v.64h-3.96v-.64h3.96Zm-2.96,9.84h-.66v-4.36h3.32v4.18h-.64v-.66h-1.97l-.05.85Zm2.52-8.01v.61h-3.13v-.59h3.13Zm0,1.73v.62h-3.13v-.62h3.13Zm-.54,2.52h-1.93v2.26h2.02l-.09-2.26Zm-.53-6.42l-.61.21c-.2-.53-.44-1.05-.72-1.55l.66-.18c.28.49.52,1.01.71,1.54l-.04-.03Zm4.18-1.45c-.11.47-.24.92-.4,1.37h4.73c0,4.54-.06,7.35-.19,8.43.03.91-.68,1.68-1.6,1.71-.06,0-.12,0-.18,0h-1.34l-.18-.63h1.45c.68,0,1.1-.43,1.26-1.26s.14-3.38.16-7.57h-4.33c-.41.9-.96,1.72-1.63,2.45l-.42-.54c1.02-1.13,1.72-2.52,2.03-4.01l.62.06Zm1.99,3.63v5.75h-3.57v-5.75h3.57Zm-.66,2.52v-1.89h-2.26v1.89h2.26Zm0,.58h-2.26v2.02h2.26v-2.02Z"/>
      <path class="cls-27" d="m34.67,112.96c-.3.92-.67,1.82-1.12,2.67v8.67h-.69v-7.51c-.46.69-.97,1.34-1.54,1.94l-.23-.72c1.35-1.57,2.35-3.41,2.94-5.39l.64.33Zm4.29,1.78h3.41v.66h-4.18c-.31.96-.73,1.89-1.26,2.75v5.11c.87-.26,1.71-.6,2.52-1l.14.67c-1.1.5-2.23.92-3.39,1.26l-.14-.62c.16,0,.25-.14.25-.26v-4.16c-.54.71-1.16,1.36-1.85,1.93l-.35-.59c1.6-1.32,2.79-3.07,3.42-5.05h-2.85v-.66h3.6c-.16-.66-.37-1.3-.62-1.93l.73-.13c.2.58.4,1.25.58,2.02h0Zm3.58,3.03c-.68.72-1.46,1.35-2.31,1.87.49,1.5,1.36,2.85,2.52,3.92l-.47.56c-2.15-2.05-3.37-4.9-3.36-7.87l.61-.16c.04,1,.19,2,.45,2.96.77-.52,1.47-1.13,2.09-1.82l.45.54Z"/>
      <path class="cls-27" d="m47.88,113.23v.53c-.37,1.19-.79,2.41-1.26,3.68.67.96,1.07,2.07,1.19,3.23.03.4-.1.79-.37,1.1-.5.33-1.09.48-1.68.43l-.24-.71h.39c.34,0,.68-.08.98-.23.17-.16.26-.4.24-.63-.1-1.15-.54-2.24-1.26-3.13.49-1.2.91-2.43,1.26-3.68h-2.04v10.5h-.66v-11.13l3.44.04Zm-.09,5.6l-.23-.74c1.14-1.66,1.95-3.52,2.4-5.49l.66.29c-.24.92-.55,1.82-.93,2.7v8.83h-.67v-7.4c-.39.61-.79,1.22-1.22,1.82Zm5.82-3.34v-2.75h.68v2.75h1.26v.72h-1.26v6.88c0,.78-.37,1.19-1.08,1.19h-1.26l-.15-.67h1.19c.38,0,.66-.25.66-.74v-6.65h-3.01v-.68l2.99-.04Zm-.91,5.37l-.61.3c-.38-1.09-.83-2.14-1.36-3.17l.57-.28c.52,1.02.99,2.07,1.4,3.14Z"/>
      <path class="cls-27" d="m61.83,114.44c.26-.64.45-1.3.57-1.98l.69.08c-.12.65-.3,1.29-.53,1.9h4.67v.63h-4.96c-.22.44-.48.86-.77,1.26h6.45v.62h-2.81c.89.98,2.01,1.73,3.25,2.18l-.45.57c-.67-.34-1.32-.73-1.93-1.16v5.82h-.67v-.58h-5.54v.63h-.67v-5.76c-.67.43-1.38.8-2.12,1.11l-.39-.59c1.31-.46,2.51-1.2,3.51-2.16h-3.08v-.62h3.63c.32-.4.61-.82.86-1.26h-3.78v-.63l4.07-.05Zm-1.38-.35l-.58.26c-.32-.57-.7-1.1-1.14-1.59l.62-.2c.41.47.78.98,1.1,1.53h0Zm5.18,4.21c-.48-.35-.91-.78-1.26-1.26h-3.42c-.42.46-.89.89-1.4,1.26h6.08Zm-.3,1.65v-1.06h-5.54v1.1l5.54-.04Zm0,1.6v-1.03h-5.54v1.03h5.54Zm0,1.64v-1.07h-5.54v1.07h5.54Zm.97-10.48c-.3.6-.69,1.16-1.16,1.64l-.53-.3c.46-.45.83-.97,1.1-1.55l.59.21Z"/>
      <path class="cls-27" d="m71.14,118.58c.04,1.94-.34,3.86-1.1,5.64l-.53-.47c.69-1.63,1.02-3.4.96-5.17v-5.61h10.09v1.98h-4.14v2.12h-.64v-2.12h-4.62l-.03,3.63Zm8.83-1.07v1.74h-5.65c-.13.21-.28.41-.44.59h6.67c.04,1.19-.02,2.39-.18,3.57-.1.66-.58.98-1.46.98h-.63l-.13-.56h0c0-.06,0-.13-.09-.18-1.83.18-3.78.34-5.87.44l-.13-.52c1.16,0,2.28-.11,3.38-.19v-.73h-2.67v-1.67h2.67v-.62h-2.11c-.59.49-1.25.9-1.96,1.2l-.32-.52c1-.34,1.87-.95,2.52-1.78h-1.26v-1.82l7.63.04Zm-8.83-4v.98h8.74v-.98h-8.74Zm3.78,3.32c-.95.16-1.9.27-2.86.32l-.15-.43c.96-.03,1.93-.13,2.88-.29l.14.4Zm0-1.14l-.18.4c-.83-.15-1.68-.26-2.52-.34l.2-.39c.78.08,1.63.19,2.45.33h.05Zm-.24,2.25h-1.7v.9h1.7v-.9Zm.83,3.46h-2.07v.82h2.04l.03-.82Zm1.5-3.46h-1.72v.9h1.72v-.9Zm1.84,5.85h-.1.13c.52,0,.83-.2.91-.59.13-.96.18-1.92.16-2.89h-3.78v.62h2.66v1.67h-.66c.24.38.45.77.63,1.19h.05Zm-.69-2.4h-2.04v.82h2.04v-.82Zm-.64,1.26h-1.4v.68l1.74-.14c-.16-.21-.28-.4-.39-.57l.05.03Zm2.85-5.88l-.16.42c-.95-.16-1.94-.29-2.98-.37l.2-.38c.97.05,1.94.16,2.89.3l.05.03Zm-3.03-1.08c.87-.06,1.74-.17,2.6-.33l.15.43c-.88.15-1.76.26-2.65.32l-.1-.42Zm2.03,2.27h-1.74v.9h1.74v-.9Z"/>
      <path class="cls-27" d="m82.63,124.18l-.15-.67h1c.32,0,.57-.2.57-.59v-3.39c-.56.23-1.14.44-1.72.63l-.18-.69c.64-.17,1.28-.39,1.89-.64v-3.09h-1.63v-.68h1.63v-2.4h.76v2.4h1.54v.68h-1.54v2.8c.5-.26,1.01-.53,1.49-.81v.69c-.48.28-.98.54-1.49.78v3.9c.07.5-.29.97-.79,1.03-.08,0-.15.01-.23,0l-1.15.05Zm10.09-5.97v.66c-.4,1.23-1.12,2.33-2.07,3.2,1.01.7,2.12,1.27,3.28,1.68l-.37.59c-1.21-.46-2.35-1.09-3.39-1.85-1.14.85-2.42,1.48-3.78,1.87l-.33-.58c1.27-.38,2.47-.97,3.54-1.74-.96-.83-1.68-1.92-2.07-3.13h-.83v-.69h6.02Zm-.87-4.96v2.81c0,.33.18.49.54.49h1.24v.64h-1.26c-.72,0-1.07-.34-1.07-1.02v-2.27h-2.7v.86c0,1.18-.68,2.25-1.75,2.75l-.47-.54c.9-.33,1.51-1.17,1.53-2.13v-1.59h3.95Zm-1.74,8.38c.84-.75,1.5-1.68,1.92-2.72h-3.78c.36,1.07,1.02,2.01,1.89,2.72h-.03Z"/>
      <path class="cls-27" d="m98.5,112.93c-.31.94-.71,1.86-1.17,2.74v8.69h-.71v-7.57c-.46.68-.97,1.33-1.53,1.93l-.24-.73c1.37-1.56,2.39-3.41,2.99-5.4l.66.34Zm2.67,7.8c-.75,1.09-1.68,2.05-2.74,2.84l-.44-.54c1.05-.76,1.96-1.68,2.7-2.74l.48.44Zm4.13-7.43v3.86h-2.61v1.58h3.78v.68h-3.78v4.91h-.69v-4.91h-3.62v-.68h3.62v-1.59h-2.52v-3.86h5.83Zm-.69.66h-4.52v2.52h4.52v-2.52Zm2.09,9.06l-.45.5c-.82-1.02-1.74-1.96-2.74-2.81l.44-.48c1,.84,1.92,1.78,2.75,2.79h0Z"/>
      <path class="cls-27" d="m112.63,120.21l-.58.15c-.08-.25-.14-.48-.2-.71-1.22.34-2.46.59-3.71.74l-.19-.64c.12-.04.22-.11.32-.19.72-.77,1.35-1.61,1.88-2.52-.69.11-1.36.21-2.04.29l-.16-.63c.12-.06.22-.14.29-.25.74-1.19,1.34-2.46,1.79-3.78l.64.25c-.49,1.31-1.14,2.55-1.93,3.7.59,0,1.2-.14,1.79-.24.29-.53.61-1.08.92-1.69l.63.24c-.88,1.68-1.93,3.28-3.12,4.76.92-.15,1.83-.34,2.72-.58-.15-.48-.32-.96-.49-1.41l.54-.18c.37.87.67,1.78.9,2.7Zm-3.51,1.01c-.05,1-.22,2-.49,2.96l-.64-.2c.29-.92.46-1.87.5-2.84l.63.08Zm1.82,2.46l-.62.14c-.11-1.02-.25-1.9-.4-2.69l.59-.14c.16.83.3,1.72.43,2.69Zm1.69-.61l-.61.15c-.19-.82-.39-1.61-.64-2.36l.56-.19c.29.78.52,1.58.69,2.4Zm6.22.29c-.31.41-.82.63-1.34.57h-3.05c-.72,0-1.06-.33-1.06-.97v-5.49h4.35v-3.54h-4.69v-.66h5.36v4.87h-4.33v4.55c0,.37.2.54.61.56h2.69c.41.05.8-.18.96-.56.2-.68.3-1.39.3-2.09l.68.24c.01.86-.15,1.72-.47,2.52h-.01Z"/>
      <path class="cls-27" d="m123.25,112.87c.74.74,1.45,1.54,2.17,2.38l-.43.47c-.6-.76-1.23-1.5-1.9-2.19-.66,1.09-1.43,2.11-2.31,3.04l-.38-.53c.89-.97,1.67-2.03,2.33-3.17h.52Zm-1.77,3.58v-.61h3.09v.61h-1.26v1.63h1.72v.66h-1.72v4.07c.58-.15,1.12-.32,1.67-.49v.66c-1.34.43-2.71.78-4.09,1.05l-.16-.66c.67-.11,1.26-.24,1.96-.39v-4.24h-1.83v-.64h1.79v-1.63h-1.16Zm.45,5.6l-.5.14c-.16-.88-.37-1.73-.59-2.52l.56-.2c.2.76.38,1.61.54,2.59h0Zm3.1-2.52c-.15.79-.36,1.57-.64,2.32l-.5-.2c.27-.73.48-1.49.62-2.26l.53.14Zm1.97-6.86l.64.1-.23.78h3.43v.29l-.96,3.58h2.21v.62h-3.05v5.4c.07.4-.2.78-.6.84-.07.01-.15.01-.22,0h-1.08l-.14-.66h.98c.2.03.39-.11.41-.31,0-.03,0-.06,0-.09v-5.24h-3.14v-.52h3.96l.32-1.19h-3.58l1.05-3.62Zm.73,8.7c-.55.77-1.25,1.43-2.06,1.92l-.33-.57c.84-.45,1.58-1.08,2.17-1.84l.21.49Zm-.13-1.44l-.32.49c-.52-.44-1.09-.81-1.7-1.11l.34-.48c.6.29,1.17.65,1.68,1.08h0Zm2.52-5.79h-2.86l-.45,1.53h2.9l.42-1.53Zm2.08,8.7l-.35.53c-.66-.78-1.43-1.45-2.28-2.01l.32-.45c.85.53,1.62,1.18,2.3,1.92h.03Zm-.52-3.78c-.44.55-1.02.98-1.67,1.26l-.32-.45c.59-.27,1.12-.68,1.53-1.19l.45.38Z"/>
      <path class="cls-27" d="m37.32,153.52v1.79h4.48v.69h-4.48v2.46h5.15v.69h-4.42c1.08,1.9,2.67,3.45,4.58,4.5l-.49.62c-1.99-1.25-3.6-3.02-4.65-5.12h-.16v5.89h-.69v-5.89h-.16c-1.02,2.18-2.69,3.99-4.79,5.17l-.39-.64c1.97-1,3.58-2.58,4.62-4.53h-4.43v-.69h5.16v-2.46h-4.39v-.69h4.39v-1.83l.69.04Z"/>
      <path class="cls-27" d="m44.95,161.98c-.04.99-.2,1.98-.47,2.94l-.57-.18c.27-.92.43-1.87.47-2.83l.57.06Zm2.78-.98l-.57.14c0-.23-.08-.44-.11-.63-.87.27-1.75.47-2.65.61l-.18-.59c.12-.04.22-.11.32-.19.56-.79,1.04-1.64,1.44-2.52l-1.74.3-.16-.61c.11-.05.21-.14.28-.24.56-1.22,1.01-2.49,1.35-3.78l.62.24c-.39,1.31-.91,2.57-1.54,3.78.48,0,.98-.13,1.46-.21.23-.53.45-1.08.72-1.68l.57.21c-.66,1.63-1.47,3.2-2.42,4.68.62-.11,1.26-.28,1.83-.45-.1-.42-.21-.83-.33-1.26l.52-.16c.21.68.42,1.46.61,2.37Zm-1.14,3.34l-.57.11c-.11-.85-.27-1.69-.48-2.52l.52-.13c.19.77.37,1.62.53,2.54h0Zm1.26-.93l-.49.24c-.18-.69-.4-1.36-.68-2.02l.48-.16c.3.61.53,1.26.74,1.94h-.05Zm1.41-8.83c.13-.39.23-.78.3-1.19l.62.09c-.06.38-.16.74-.3,1.1h1.45v3.86h-1.48l.37,1.26h1.46v.67h-2.12c0,.43-.11.83-.18,1.26h1.94c.06.96-.02,1.93-.24,2.86-.16.34-.51.54-.88.53h-.98l-.16-.57h.98c.25,0,.47-.17.54-.42.07-.61.11-1.22.11-1.83h-1.44c-.08.31-.17.61-.28.91-.31.73-.76,1.39-1.34,1.93l-.39-.49c.5-.48.89-1.05,1.16-1.69.27-.79.45-1.61.54-2.45h-1.14v-.61h1.77l-.35-1.26h-1.02v-3.86l1.05-.11Zm1.48,1.69v-1.16h-2.03v1.16h2.03Zm0,.5h-2.03v1.12h2.03v-1.12Zm2.69,4.16c.39-1.45.59-2.95.61-4.45h-1.26c-.25.96-.64,1.88-1.14,2.74l-.35-.44c.8-1.67,1.29-3.47,1.44-5.31l.62.1c-.1.82-.25,1.59-.4,2.28h2.4v.63h-.67c.01,1.8-.28,3.58-.86,5.29.47.99,1.08,1.91,1.8,2.74l-.44.5c-.66-.77-1.21-1.62-1.67-2.52-.42.94-1,1.79-1.73,2.52l-.34-.57c.76-.74,1.36-1.65,1.73-2.65-.45-1.03-.79-2.1-1.02-3.2l.48-.26c.2.91.49,1.79.86,2.65l-.05-.04Z"/>
      <path class="cls-27" d="m60.19,153.74c-.31.94-.7,1.85-1.17,2.72v8.69h-.71v-7.57c-.46.68-.97,1.33-1.54,1.93l-.23-.73c1.37-1.56,2.4-3.38,3.03-5.36l.62.32Zm2.69,7.78c-.75,1.09-1.68,2.05-2.75,2.84l-.43-.54c1.04-.75,1.95-1.68,2.69-2.74l.49.44Zm4.11-7.43v3.86h-2.61v1.59h3.78v.68h-3.78v4.91h-.68v-4.91h-3.63v-.68h3.63v-1.59h-2.6v-3.9l5.89.04Zm-.68.66h-4.52v2.52h4.52v-2.52Zm2.09,9.06l-.47.5c-.82-1.02-1.73-1.96-2.72-2.81l.43-.48c1,.84,1.93,1.78,2.76,2.79Z"/>
      <path class="cls-27" d="m74,163.99c-1.33.57-2.74.96-4.18,1.15l-.3-.52c1.43-.18,2.83-.53,4.16-1.06l.32.43Zm2.94-7.11h3.43c.06.5-.03,1-.26,1.45-.36.28-.81.4-1.26.34h-.71l-.11-.44h.74c.29.04.57-.03.82-.18.11-.2.16-.43.15-.66h-2.85v1.26h-.64v-1.26h-2.33c-.19.32-.44.59-.73.81-.95.52-1.99.86-3.07,1l-.32-.49c1.01-.1,2-.4,2.9-.87.17-.13.33-.28.48-.44h-2.83l.4-1.88h2.76v-.85h-3.15v-.56h3.15v-.62h.66v.62h2.07v-.62h.64v.62h2.95v1.9h-2.95l.05.86Zm-5.83,0h2.33c.05-.16.08-.33.09-.5v-.35h-2.23l-.19.86Zm8.29,2.17v4.34h-8.19v-4.29l8.19-.05Zm-.64,1.26v-.79h-6.89v.85l6.89-.05Zm0,1.26v-.76h-6.89v.76h6.89Zm0,.48h-6.89v.83h6.89v-.83Zm-4.53-5.69c.02.17.02.34,0,.5h2.13v-.86h-2.07l-.06.35Zm0-.86h2.07v-.85h-2.07v.85Zm6.76,9.11l-.2.54c-1.46-.5-2.96-.89-4.48-1.16l.24-.44c1.51.25,3,.61,4.47,1.07h-.03Zm-4.05-9.11h2.35v-.85h-2.35v.85Z"/>
      <path class="cls-27" d="m87.72,158.32v-3h-.08c-1.36,1.49-3.11,2.56-5.05,3.1l-.32-.58c1.78-.43,3.42-1.3,4.78-2.52h-4.2v-.67h4.86v-1.26h.69v1.26h4.86v.67h-4.86v.53c1.83.52,3.63,1.14,5.39,1.87l-.44.5c-1.61-.71-3.26-1.33-4.94-1.85v1.92h3.41v4.6h-7.51v-4.59l3.41.03Zm5.78,5.76v.64h-10.89v-.58l10.89-.06Zm-2.38-3.72v-1.39h-6.16v1.39h6.16Zm0,.61h-6.16v1.35h6.16v-1.35Z"/>
      <path class="cls-27" d="m99.07,155.32v.66h-3.96v-.66h3.96Zm-2.96,9.84h-.66v-4.36h3.32v4.18h-.64v-.66h-1.97l-.05.85Zm2.52-8.01v.61h-3.13v-.61h3.13Zm0,1.73v.62h-3.13v-.62h3.13Zm-.54,2.52h-1.93v2.26h2.02l-.09-2.26Zm-.53-6.42l-.61.21c-.2-.53-.44-1.05-.72-1.55l.66-.18c.28.48.52.98.71,1.5h-.04Zm4.18-1.45c-.11.47-.24.92-.4,1.37h4.73c0,4.54-.06,7.35-.19,8.43.03.91-.68,1.68-1.6,1.71-.06,0-.12,0-.18,0h-1.34l-.18-.63h1.45c.68,0,1.1-.43,1.26-1.26s.14-3.38.16-7.57h-4.33c-.41.9-.96,1.72-1.63,2.45l-.42-.54c1.02-1.13,1.72-2.52,2.03-4.01l.62.06Zm2.01,3.63v5.73h-3.57v-5.75l3.57.03Zm-.66,2.52v-1.93h-2.26v1.93h2.26Zm0,.58h-2.26v2.02h2.26v-2.02Z"/>
      <path class="cls-27" d="m34.66,194.12c-.31.95-.7,1.86-1.17,2.74v8.69h-.71v-7.57c-.45.68-.97,1.33-1.53,1.93l-.23-.73c1.36-1.57,2.38-3.41,2.99-5.4l.64.34Zm2.69,7.78c-.76,1.09-1.69,2.06-2.75,2.85l-.43-.56c1.04-.75,1.95-1.67,2.69-2.72l.49.43Zm4.11-7.43v3.87h-2.61v1.59h3.78v.68h-3.78v4.91h-.72v-4.91h-3.62v-.68h3.62v-1.59h-2.52v-3.92l5.85.05Zm-.68.67h-4.52v2.52h4.52v-2.52Zm2.09,9.04l-.47.52c-.82-1.02-1.74-1.97-2.72-2.83l.43-.47c1,.84,1.93,1.77,2.76,2.78h0Z"/>
      <path class="cls-27" d="m48.47,204.39c-1.34.57-2.75.95-4.19,1.15l-.29-.53c1.43-.17,2.83-.52,4.16-1.06l.32.44Zm2.94-7.11h3.43c.06.5-.03,1-.26,1.44-.35.29-.81.42-1.26.35h-.71l-.11-.45h.74c.28.03.57-.03.81-.18.11-.2.17-.42.16-.64h-2.85v1.32h-.62v-1.32h-2.32c-.19.32-.44.59-.74.79-.94.54-1.98.88-3.05,1l-.33-.48c1.02-.11,2-.4,2.91-.87.17-.13.33-.28.47-.44h-2.81l.39-1.88h2.78v-.85h-3.15v-.56h3.15v-.62h.64v.62h2.07v-.62h.66v.62h2.95v1.89h-2.95v.87Zm-5.83,0h2.37c.05-.16.08-.33.09-.5v-.37h-2.23l-.23.87Zm8.29,2.17v4.34h-8.17v-4.31l8.17-.03Zm-.66,1.26v-.78h-6.88v.81l6.88-.03Zm0,1.26v-.74h-6.88v.77l6.88-.03Zm0,.49h-6.88v.79h6.93l-.05-.79Zm-4.53-5.69c.02.17.02.34,0,.5h2.06v-.87h-2.07v.37Zm0-.86h2.06v-.85h-2.07v.85Zm6.77,9.11l-.21.54c-1.46-.51-2.96-.9-4.48-1.16l.24-.45c1.51.25,3,.61,4.45,1.07Zm-4.05-9.11h2.35v-.85h-2.35v.85Z"/>
      <path class="cls-27" d="m57.72,202.37c-.05.99-.2,1.97-.45,2.93l-.58-.18c.27-.92.43-1.86.48-2.81l.56.06Zm2.78-.98l-.57.14c0-.23-.04-.44-.11-.64-.86.27-1.74.48-2.64.62l-.19-.61c.12-.04.22-.11.32-.19.56-.79,1.04-1.64,1.44-2.52l-1.74.29-.16-.59c.11-.06.21-.15.28-.25.56-1.22,1.01-2.49,1.35-3.78l.62.24c-.39,1.31-.91,2.57-1.54,3.78.48,0,.98-.14,1.46-.23l.72-1.67.57.21c-.65,1.63-1.46,3.2-2.42,4.67.62-.11,1.26-.26,1.83-.44-.1-.42-.21-.83-.32-1.26l.5-.16c.21.69.41,1.49.61,2.4h0Zm-1.14,3.34l-.57.11c-.11-.85-.27-1.69-.47-2.52l.5-.14c.19.76.37,1.63.53,2.55h0Zm1.26-.93l-.49.23c-.18-.69-.41-1.36-.68-2.02l.48-.16c.28.64.53,1.29.74,1.96h-.05Zm1.41-8.83c.13-.39.23-.78.3-1.19l.62.09c-.06.38-.16.74-.3,1.1h1.45v3.86h-1.46l.35,1.26h1.46v.64h-2.12c0,.44-.11.85-.18,1.26h1.94c.06.97-.02,1.93-.24,2.88-.17.33-.51.53-.88.52h-.88l-.16-.56h.98c.25,0,.47-.17.54-.42.07-.61.11-1.22.11-1.83h-1.48c-.09.33-.18.63-.28.91-.29.72-.72,1.38-1.26,1.93l-.4-.49c.5-.48.89-1.06,1.16-1.7.27-.79.45-1.61.54-2.45h-1.14v-.59h1.77l-.35-1.26h-1.11v-3.86l1.01-.1Zm1.48,1.69v-1.16h-2.02v1.16h2.02Zm0,.5h-2.02v1.12h2.02v-1.12Zm2.69,4.16c.39-1.45.59-2.95.61-4.45h-1.26c-.25.96-.63,1.87-1.14,2.72l-.35-.43c.81-1.66,1.3-3.47,1.44-5.31l.62.1c-.09.76-.23,1.52-.4,2.27h2.41v.72h-.68c.01,1.8-.28,3.58-.86,5.29.47.99,1.08,1.91,1.8,2.74l-.44.5c-.66-.77-1.22-1.62-1.67-2.52-.42.94-1,1.79-1.73,2.52l-.34-.57c.76-.75,1.35-1.65,1.73-2.65-.45-1.03-.79-2.1-1.02-3.2l.48-.28c.21.88.5,1.75.86,2.59l-.05-.04Z"/>
      <path class="cls-27" d="m70.67,202.42c-.07,1.04-.28,2.07-.64,3.05l-.61-.2c.38-.93.61-1.92.66-2.93l.59.08Zm3.22-.92l-.59.15c0-.25-.11-.5-.18-.76-1.08.35-2.19.61-3.32.77l-.19-.62c.11-.05.22-.11.32-.19.73-.82,1.37-1.71,1.9-2.66l-2.17.34-.16-.61c.12-.06.22-.15.29-.26.75-1.19,1.36-2.46,1.82-3.78l.64.25c-.5,1.33-1.15,2.6-1.93,3.78.62-.08,1.26-.2,1.89-.33l.95-1.73.62.24c-.88,1.74-1.94,3.38-3.18,4.89.8-.15,1.59-.34,2.37-.59-.13-.47-.26-.9-.42-1.26l.56-.18c.32.83.58,1.67.78,2.54Zm-1.43,3.43l-.62.14c-.14-1.02-.3-1.93-.48-2.71l.56-.13c.26.82.38,1.73.54,2.7Zm1.59-.63l-.61.21c-.18-.81-.41-1.61-.71-2.38l.56-.18c.3.77.55,1.55.76,2.35Zm3.78-10.09c0,.69,0,1.35.08,1.94h2.61v8.2c0,.67-.32,1.02-.93,1.02h-1.1l-.19-.67h1.12c.25.04.49-.14.53-.39,0-.05,0-.1,0-.15v-7.39h-1.9c.1,1.69.67,3.32,1.64,4.71l-.4.56c-.91-1.19-1.48-2.6-1.67-4.09-.22,1.48-.79,2.88-1.68,4.09l-.44-.52c1.03-1.38,1.64-3.03,1.77-4.74h-2.02v8.67h-.66v-9.32h2.8v-1.32h-1.77v-.62l2.21.04Z"/>
      <path class="cls-27" d="m87.1,201.4l-.59.15-.19-.72c-1.21.35-2.45.6-3.71.76l-.19-.66c.12-.04.22-.11.32-.19.72-.77,1.35-1.61,1.88-2.52-.69.11-1.38.21-2.04.29l-.16-.63c.12-.06.22-.15.29-.26.74-1.19,1.34-2.46,1.78-3.78l.66.25c-.5,1.3-1.15,2.54-1.93,3.7.59-.08,1.19-.15,1.79-.25l.92-1.68.62.24c-.87,1.69-1.91,3.28-3.12,4.74.92-.14,1.84-.33,2.74-.57-.15-.49-.32-.96-.49-1.41l.54-.19c.37.89.67,1.8.9,2.74Zm-3.51,1.01c-.06,1-.22,1.99-.49,2.95l-.64-.2c.29-.91.46-1.87.5-2.83l.63.08Zm1.82,2.46l-.62.14c-.11-1.03-.25-1.92-.42-2.69l.61-.14c.16.82.3,1.72.43,2.69Zm1.69-.62l-.62.16c-.17-.8-.38-1.59-.63-2.37l.56-.18c.28.78.51,1.58.69,2.38Zm6.22.3c-.32.42-.83.63-1.35.57h-3.04c-.72,0-1.06-.33-1.06-.98v-5.46h4.35v-3.53h-4.69v-.72h5.36v4.88h-4.3v4.55c0,.35.19.54.61.56h2.69c.41.04.79-.18.96-.56.2-.68.29-1.39.29-2.09l.69.23c0,.87-.18,1.72-.5,2.52v.04Z"/>
      <path class="cls-27" d="m97.72,194.06c.74.74,1.45,1.54,2.17,2.37l-.43.48c-.6-.76-1.23-1.5-1.9-2.19-.65,1.09-1.43,2.11-2.31,3.03l-.39-.52c.9-.96,1.68-2.03,2.35-3.17h.52Zm-1.78,3.57v-.59h3.1v.59h-1.26v1.64h1.72v.63h-1.72v4.09c.58-.15,1.12-.32,1.67-.49v.64c-1.34.44-2.7.79-4.09,1.05l-.16-.64c.66-.11,1.26-.24,1.94-.4v-4.24h-1.82v-.63h1.82v-1.64h-1.2Zm.47,5.61l-.52.14c-.15-.85-.34-1.69-.58-2.52l.54-.19c.2.74.39,1.6.56,2.59h0Zm3.1-2.52c-.16.78-.37,1.56-.64,2.31l-.5-.19c.27-.73.48-1.49.62-2.26l.53.14Zm1.96-6.86l.66.1-.23.78h3.43v.29l-.96,3.57h2.21v.63h-3.05v5.4c.06.41-.22.78-.63.84-.06,0-.13,0-.19,0h-1.08l-.15-.66h.98c.3,0,.43-.14.43-.4v-5.2h-3.14v-.63h3.99l.33-1.17h-3.6l1.01-3.56Zm.74,8.7c-.55.77-1.25,1.43-2.06,1.92l-.33-.57c.85-.46,1.58-1.09,2.17-1.85l.21.5Zm-.13-1.44l-.32.49c-.52-.44-1.09-.82-1.7-1.11l.33-.48c.61.29,1.18.65,1.69,1.08h0Zm2.52-5.8h-2.86l-.47,1.54h2.91l.42-1.54Zm2.08,8.7l-.35.54c-.66-.78-1.43-1.45-2.28-2.01l.32-.45c.84.53,1.62,1.17,2.3,1.9h.03Zm-.52-3.78c-.45.54-1.02.97-1.67,1.26l-.32-.45c.59-.28,1.11-.69,1.53-1.2l.45.39Z"/>
      <path class="cls-27" d="m35.23,231.13c-.46,1.4-1.03,2.75-1.72,4.05v13.3h-1.43v-11c-.65.91-1.35,1.78-2.11,2.6l-.45-1.5c2.02-2.34,3.52-5.08,4.39-8.05l1.31.61Zm3.99,11.9c-1.1,1.64-2.48,3.08-4.07,4.24l-.79-1.12c1.53-1.11,2.86-2.46,3.95-4l.92.88Zm6.31-11.5v6.13h-3.9v2.09h5.59v1.35h-5.59v7.34h-1.4v-7.34h-5.37v-1.35h5.39v-2.09h-3.86v-6.13h9.15Zm-1.38,1.34h-6.4v3.43h6.41v-3.43Zm3.48,13.28l-.93,1.01c-1.21-1.5-2.55-2.88-4.01-4.12l.86-.96c1.49,1.23,2.86,2.59,4.09,4.07Z"/>
      <path class="cls-27" d="m56.63,246.75c-2.01.87-4.13,1.46-6.31,1.74l-.61-1.02c2.16-.25,4.28-.78,6.31-1.55l.61.83Zm4.57-11h5.16c.09.8-.05,1.6-.4,2.32-.54.44-1.24.63-1.93.53h-1.08l-.23-.85h1.16c.61,0,.97-.08,1.12-.24.15-.24.22-.51.2-.79h-4v1.93h-1.26v-1.93h-3.32c-.29.46-.65.86-1.08,1.19-.95.58-2,.99-3.09,1.2h12.48v6.74h-12.61v-6.7c-.47.1-.97.2-1.48.28l-.61-.93c1.51-.15,2.97-.58,4.33-1.26.2-.15.39-.32.57-.49h-4.14l.66-3.04h4.15v-1.11h-4.71v-1.05h4.71v-.87h1.26v.87h2.85v-.87h1.26v.87h4.4v3.1h-4.4l.04,1.11Zm-8.83,0h3.32c.06-.21.1-.43.11-.66v-.45h-3.12l-.32,1.11Zm11.25,5.31v-1.01h-9.99v1.01h9.99Zm0,1.87v-.95h-9.99v.95h9.99Zm0,.9h-9.99v1.06h9.99v-1.06Zm-6.57-8.73c0,.23,0,.44-.1.66h2.95v-1.11h-2.85v.45Zm0-1.4h2.85v-1.11h-2.85v1.11Zm10.21,13.78l-.43,1.06c-2.24-.75-4.53-1.32-6.85-1.72l.47-.88c2.3.35,4.58.86,6.81,1.54h0Zm-6.06-13.78h3.22v-1.11h-3.22v1.11Z"/>
      <path class="cls-27" d="m72.81,233.19c-.28-.77-.64-1.52-1.05-2.23l1.34-.37c.39.76.72,1.54.98,2.35l-.68.25h3.41v1.26h-7.34v-1.26h3.34Zm-1.26,15.23h-1.37v-6.82h5.92v6.56h-1.38v-.9h-3.24l.08,1.16Zm4.43-12.36v1.26h-5.8v-1.26h5.8Zm0,2.66v1.26h-5.8v-1.26h5.8Zm-1.26,4.14h-3.24v3.12h3.24v-3.12Zm8.07-12.17v6.37h4.54v1.36h-4.44v10h-1.39v-10h-4.3v-1.36h4.3v-6.37h1.29Z"/>
      <path class="cls-27" d="m96.42,246.75c-2.01.87-4.13,1.46-6.31,1.74l-.61-1.02c2.16-.25,4.28-.78,6.31-1.55l.61.83Zm4.57-11h5.16c.09.8-.05,1.61-.42,2.32-.54.43-1.23.62-1.92.53h-1.08l-.23-.85h1.16c.59,0,.97-.08,1.12-.24.15-.24.21-.52.19-.79h-3.99v1.93h-1.26v-1.93h-3.32c-.28.46-.65.87-1.08,1.19-.94.59-1.99.99-3.08,1.2h12.48v6.74h-12.61v-6.7c-.45.1-.96.2-1.46.28l-.61-.93c1.51-.15,2.97-.58,4.33-1.26.2-.15.38-.31.56-.49h-4.13l.66-3.04h4.15v-1.11h-4.71v-1.05h4.71v-.87h1.26v.87h2.85v-.87h1.26v.87h4.4v3.1h-4.4v1.11Zm-8.89,0h3.32c.06-.21.1-.43.11-.66v-.45h-3.15l-.28,1.11Zm11.25,5.35v-1.01h-9.99v1.01h9.99Zm0,1.87v-.95h-9.99v.95h9.99Zm0,.9h-9.99v1.02h9.99v-1.02Zm-6.52-8.73c-.02.22-.05.44-.09.66h2.94v-1.11h-2.85v.45Zm0-1.4h2.85v-1.11h-2.85v1.11Zm10.21,13.78l-.42,1.06c-2.24-.74-4.53-1.32-6.85-1.72l.47-.88c2.3.34,4.57.84,6.8,1.5v.04Zm-6.04-13.78h3.22v-1.11h-3.22v1.11Z"/>
      <path class="cls-27" d="m115.91,245.13h-4.36v1.54h-1.4v-14.92h5.76v13.38Zm-1.34-7.47v-4.54h-3.03v4.54h3.03Zm0,6.09v-4.76h-3.03v4.76h3.03Zm2.52,4.76l-1.1-1.01c1.41-2.08,2.14-4.55,2.07-7.06v-9.16h7.96v15.21c.11.86-.49,1.66-1.36,1.77-.14.02-.29.02-.43,0h-2.52l-.37-1.37c.88,0,1.7.08,2.52.08.54,0,.82-.33.82-.97v-4h-5.22c-.18,2.36-1.02,4.62-2.42,6.52h.05Zm7.57-15.89h-5.15v3.43h5.15v-3.43Zm-5.15,8.07h5.15v-3.38h-5.15v3.38Z"/>
      <path class="cls-27" d="m136.09,241.94l-1.14.48c-.11-.39-.23-.74-.33-1.08-1.57.48-3.17.82-4.79,1.02l-.34-1.19c.22-.07.42-.18.58-.34.98-1.17,1.82-2.43,2.52-3.78-1,.18-2.01.33-3.03.48l-.32-1.17c.23-.11.41-.28.54-.49.96-1.66,1.75-3.41,2.33-5.24l1.26.5c-.68,1.8-1.55,3.52-2.6,5.13.81-.11,1.63-.25,2.46-.44.35-.68.74-1.41,1.12-2.21l1.19.44c-1.19,2.48-2.63,4.84-4.3,7.03,1.01-.2,2.02-.45,3.03-.76-.24-.66-.49-1.26-.74-1.79l1.01-.38c.62,1.22,1.13,2.48,1.54,3.78Zm-4.91,1.68c-.07,1.56-.31,3.11-.71,4.62l-1.26-.37c.44-1.43.7-2.9.78-4.39l1.19.14Zm2.36,3.95l-1.2.14c-.01-1.41-.12-2.83-.33-4.23l1.08-.14c.25,1.38.4,2.77.44,4.18v.05Zm2.41-1.49l-1.07.44c-.23-1.14-.54-2.26-.91-3.36l.97-.39c.4,1.06.74,2.15,1.01,3.25v.05Zm1.94,1.05v1.26h-1.26v-16.15h9.66v16.17h-1.26v-1.26l-7.14-.03Zm0-13.59v5.37h2.86v-5.39h-2.86Zm0,6.64v5.68h2.86v-5.68h-2.86Zm7.08-1.26v-5.39h-2.93v5.37h2.93Zm0,6.94v-5.68h-2.93v5.68h2.93Z"/>
      <path class="cls-27" d="m41.91,274.49v.59h-4.62v.92h5.05v2.46h-.66v-1.92h-4.35v2.74h-.67v-2.74h-4.35v1.92h-.64v-2.46h5.05v-.92h-4.63v-.59h9.83Zm-.57,5.31v3.78h-4.04v.93c0,.28.14.42.43.42h3.27c.27.02.55-.04.78-.19.29-.41.43-.9.4-1.4l.62.19c.01.62-.19,1.23-.57,1.73-.34.19-.73.28-1.12.25h-3.57c-.63,0-.93-.29-.93-.86v-1.07h-4.1v-3.78h8.83Zm-5.54-.92c-.86.16-1.73.26-2.6.3l-.15-.48c.87-.02,1.74-.11,2.6-.25l.15.43Zm0-1.39l-.18.44c-.81-.16-1.63-.28-2.45-.35l.24-.43c.8.07,1.59.19,2.37.34h.01Zm.83,3.92v-1.06h-3.44v1.11l3.44-.05Zm0,.53h-3.44v1.07h3.44v-1.07Zm.69-.53h3.39v-1.06h-3.39v1.06Zm3.39.53h-3.39v1.07h3.39v-1.07Zm.2-3.15l-.2.47c-.86-.19-1.73-.34-2.61-.44l.2-.4c.87.07,1.74.2,2.6.38h.01Zm-2.8-1.34c.82-.06,1.63-.18,2.42-.37l.18.48c-.83.17-1.68.29-2.52.35l-.08-.47Z"/>
      <path class="cls-27" d="m49.66,279.52v-1.94c1.18-.66,2.28-1.46,3.29-2.36h-7.42v-.67h8.38v.67c-1.1,1.02-2.3,1.94-3.57,2.74v1.56h4.93v.68h-4.93v4.23c.07.53-.3,1.01-.83,1.07-.09.01-.17.01-.26,0h-2.14l-.19-.66h2.06c.32.05.63-.17.68-.49,0-.05,0-.11,0-.16v-3.99h-5.46v-.67h5.46Z"/>
      <path class="cls-27" d="m57.72,282.42c-.05.99-.2,1.98-.45,2.94l-.58-.18c.27-.92.43-1.87.48-2.83l.56.06Zm2.78-.97l-.57.14c0-.24-.04-.45-.11-.64-.86.26-1.75.47-2.64.62l-.19-.61c.12-.04.22-.11.32-.19.56-.79,1.04-1.64,1.44-2.52l-1.74.29-.16-.61c.11-.05.21-.14.28-.24.56-1.22,1.01-2.49,1.35-3.78l.62.24c-.39,1.31-.91,2.57-1.54,3.78.48,0,.98-.13,1.46-.21l.72-1.67.57.21c-.65,1.63-1.46,3.19-2.42,4.67.62-.11,1.26-.26,1.83-.44-.1-.43-.21-.83-.32-1.26l.5-.16c.21.68.42,1.48.61,2.4h0Zm-1.14,3.34l-.57.11c-.11-.85-.27-1.69-.47-2.52l.5-.13c.19.74.37,1.61.53,2.54Zm1.26-.93l-.49.23c-.18-.69-.4-1.36-.68-2.02l.48-.16c.28.64.53,1.29.74,1.96h-.05Zm1.41-8.83c.13-.39.23-.78.3-1.19l.62.09c-.06.38-.16.74-.3,1.1h1.45v3.91h-1.46l.35,1.26h1.46v.61h-2.12c0,.43-.11.85-.18,1.26h1.94c.06.97-.02,1.93-.24,2.88-.17.33-.51.53-.88.52h-.88l-.16-.56h.98c.25-.01.47-.18.54-.43.07-.6.11-1.21.11-1.82h-1.48c-.09.33-.18.63-.28.9-.28.72-.71,1.38-1.26,1.93l-.4-.48c.5-.48.89-1.06,1.16-1.7.27-.79.45-1.61.54-2.45h-1.14v-.66h1.77l-.35-1.26h-1.11v-3.85l1.01-.06Zm1.48,1.68v-1.16h-2.02v1.16h2.02Zm0,.52h-2.02v1.12h2.02v-1.12Zm2.69,4.15c.39-1.45.59-2.95.61-4.45h-1.26c-.25.96-.64,1.88-1.14,2.74l-.35-.44c.81-1.66,1.3-3.46,1.44-5.3l.62.1c-.09.76-.23,1.52-.4,2.27h2.41v.63h-.68c.01,1.8-.28,3.58-.86,5.29.48,1.01,1.09,1.95,1.83,2.79l-.44.49c-.66-.77-1.22-1.61-1.67-2.52-.41.94-1,1.8-1.73,2.52l-.34-.56c.76-.75,1.35-1.66,1.73-2.66-.45-1.03-.79-2.1-1.02-3.2l.48-.26c.2.91.48,1.8.83,2.66l-.05-.09Z"/>
      <path class="cls-27" d="m72.33,275.15v-1.26h.66v1.26h2.43v.61h-2.43v1.36h2.13v.56h-5.12v-.59h2.33v-1.36h-2.79v-.57h2.79Zm-1.06,7.01c-.24.94-.64,1.83-1.17,2.64l-.53-.35c.52-.72.9-1.53,1.11-2.4l.59.11Zm4.3-1.4v.61h-2.67v4.14h-.71v-4.14h-2.52v-.61h5.9Zm-.86-1.83v.62h-4.31v-.62h4.31Zm.52,5.05l-.56.25c-.23-.68-.52-1.35-.87-1.98l.57-.19c.34.62.63,1.26.87,1.92h-.01Zm3.05-6.21c0,.8-.04,1.59-.13,2.38.48,1.91,1.5,3.64,2.94,4.98l-.45.52c-1.22-1.18-2.14-2.64-2.67-4.25,0,.21-.09.4-.13.58-.42,1.53-1.4,2.85-2.74,3.71l-.42-.52c1.19-.75,2.08-1.89,2.52-3.23.34-1.36.51-2.77.48-4.18h.59Zm-.82-3.65c-.09.68-.2,1.34-.33,1.94h3.42v.34c-.18,1.1-.4,2.18-.68,3.23l-.66-.18c.3-.93.53-1.88.68-2.85h-2.91c-.25.95-.65,1.86-1.19,2.69l-.53-.4c.91-1.5,1.44-3.2,1.55-4.94l.64.18Z"/>
      <path class="cls-27" d="m92.43,277.82v4.1h-4.05v1.26h5.12v.62h-5.12v1.8h-.69v-1.8h-5.13v-.62h5.13v-1.26h-4.04v-4.1h8.78Zm-4.97-3.44v2.52h-4.33v-2.52h4.33Zm-.67.54h-2.98v1.5h2.98v-1.5Zm.9,4.69v-1.2h-3.36v1.2h3.36Zm0,.52h-3.36v1.26h3.36v-1.26Zm.69-.52h3.36v-1.2h-3.36v1.2Zm3.36.52h-3.36v1.26h3.36v-1.26Zm1.15-5.75v2.52h-4.3v-2.52h4.3Zm-.67.54h-2.96v1.5h2.96v-1.5Z"/>
      <path class="cls-27" d="m99.78,275.72v.69h-4.68v-.64l4.68-.05Zm-.5,8.99h-3.04v.66h-.66v-4.16h3.7v3.51Zm-.1-7.15v.62h-3.52v-.62h3.52Zm0,1.75v.62h-3.51v-.62h3.51Zm-.53,4.77v-2.26h-2.41v2.26h2.41Zm-.67-8.69l-.59.23c-.23-.53-.5-1.05-.81-1.54l.66-.18c.29.48.54.97.74,1.49h0Zm7.67,4.09v.63c-.35,1.17-.97,2.23-1.82,3.12.88.74,1.87,1.33,2.94,1.77l-.37.58c-1.11-.47-2.14-1.11-3.05-1.89-1.04.84-2.23,1.48-3.51,1.89l-.38-.57c1.23-.39,2.37-1.01,3.38-1.82-.83-.85-1.44-1.9-1.75-3.05h-.86v-.66h5.41Zm-.76-4.98v2.83c0,.33.18.49.53.49h1v.64h-1.15c-.72,0-1.07-.35-1.07-1.02v-2.28h-2.22v.68c.01,1.23-.67,2.36-1.77,2.91l-.45-.5c.94-.4,1.54-1.32,1.54-2.33v-1.41h3.6Zm-1.58,8.22c.73-.71,1.3-1.57,1.68-2.52h-3.24c.31.95.85,1.82,1.56,2.52Z"/>
      <path class="cls-27" d="m117.3,277.79v.67h-3.32v2.52h3.91v.67h-3.91v2.85c1.09.15,2.19.23,3.29.23h2.03l-.14.68h-1.56c-1.82.1-3.64-.13-5.37-.69-.89-.43-1.63-1.12-2.11-1.98-.45,1.08-1.08,2.06-1.88,2.91l-.44-.54c1.34-1.53,2.22-3.41,2.52-5.42l.67.13c-.16.75-.36,1.49-.61,2.22.45,1.03,1.3,1.83,2.35,2.23l.58.15v-5.87h-3.42v-.67l7.4-.09Zm1.41.1h-.69v-1.94h-8.83v1.99h-.69v-2.65h4.94c-.19-.47-.41-.92-.67-1.35l.73-.13c.24.48.45.97.63,1.48h4.63l-.05,2.6Z"/>
      <path class="cls-27" d="m34.19,318.6v.56c-.53.83-1.11,1.62-1.75,2.37h1.9v.47c-.15.92-.41,1.83-.76,2.7.14.07.27.16.39.26.37.36.8.66,1.26.88.6.19,1.22.27,1.84.26h5.75l-.16.66h-5.65c-.71.01-1.41-.1-2.08-.34-.56-.22-1.06-.55-1.48-.98-.09-.08-.21-.12-.33-.13-.37,0-.83.57-1.44,1.72l-.49-.45c.59-1.15,1.17-1.78,1.72-1.9.33-.81.57-1.66.73-2.52h-2.07v-.53c.67-.73,1.29-1.52,1.83-2.35h-2.07v-.64l2.85-.03Zm0-1.26l-.47.44c-.59-.68-1.24-1.3-1.96-1.84l.47-.45c.7.57,1.34,1.21,1.93,1.89l.03-.04Zm4.59.45c.75-.39,1.45-.86,2.11-1.39h-5.8v-.61h6.74v.52c-.8.7-1.68,1.31-2.61,1.83l.21.19h2.62v5.8c.07.45-.24.87-.69.93-.08.01-.15.01-.23,0h-1.07l-.16-.61h1.03c.3,0,.45-.16.45-.49v-1.15h-2.32v2.27h-.66v-2.27h-2.28v2.28h-.64v-6.8h3.09c-.58-.43-1.18-.82-1.8-1.19l.42-.43c.57.43,1.1.78,1.58,1.14l.03-.04Zm-.38,1.14h-2.28v1.41h2.28v-1.41Zm-2.28,3.33h2.28v-1.34h-2.28v1.34Zm5.26-3.33h-2.32v1.41h2.32v-1.41Zm-2.32,3.33h2.32v-1.34h-2.32v1.34Z"/>
      <path class="cls-27" d="m48.28,317.15v.64h-4.26v-.64h4.26Zm-.4,9.64h-.66v-.64h-2.14v.73h-.64v-4.26h3.46v4.18Zm-.1-7.81v.62h-3.25v-.62h3.25Zm0,1.75v.64h-3.25v-.64h3.25Zm-.56,4.76v-2.23h-2.14v2.23h2.14Zm-.63-8.67l-.58.23c-.17-.53-.38-1.05-.63-1.55l.67-.18c.22.47.4.96.54,1.46v.04Zm3.63,3.86v-4.01h-1.6v-.66h5.22v3.9c-.08,1.86.09,3.71.5,5.53.15.42.28.63.39.63s.14-.14.19-.43c.09-.57.13-1.15.14-1.73l.54.26c.02.76-.08,1.52-.29,2.26-.13.26-.28.42-.43.42-.35,0-.69-.32-.97-.88-.63-1.95-.89-4.01-.77-6.06v-3.24h-2.27v4.01h1.69v.66h-1.69v5.54h-.66v-5.59h-1.64v-.66l1.64.05Z"/>
      <path class="cls-27" d="m58.43,318.89v-3.49h.68v3.49h1.51v.68h-1.51v4.48c.61-.21,1.22-.46,1.8-.73v.71c-1.31.58-2.68,1.05-4.07,1.39l-.18-.68c.62-.13,1.2-.29,1.77-.45v-4.71h-1.6v-.68h1.6Zm6.66-3.53v3.1l2.7-.81c-.05,1.63-.23,3.26-.53,4.87l-.66-.21c.25-1.25.43-2.51.53-3.78l-2.04.61v5.12h-.67v-4.94l-1.85.57v5.51c0,.47.2.71.61.71h3.38c.26.03.51-.07.68-.26.24-.66.36-1.36.34-2.07l.66.2c.03.83-.14,1.66-.5,2.41-.28.27-.65.4-1.03.38h-3.72c-.73,0-1.08-.42-1.08-1.26v-5.45l-1.01.32v-.69l1.01-.29v-2.79h.68v2.59l1.85-.57v-3.31l.67.06Z"/>
      <path class="cls-27" d="m73.68,324.18c-1.36.5-2.76.89-4.19,1.17l-.19-.71c.64-.13,1.26-.25,1.84-.4v-4.84h-1.7v-.69h1.7v-3.31h.68v3.31h1.63v.69h-1.68v4.67c.64-.19,1.26-.39,1.85-.62l.05.73Zm4.48-8.83v4.16h2.52v.67h-2.52v5.61h2.86v.67h-7.95v-.67h1.54v-7.75h.69v7.73h2.17v-10.44h.68Z"/>
      <path class="cls-27" d="m83.47,320.42c-.08.6-.22,1.19-.43,1.75l-.52-.18c.22-.54.37-1.11.45-1.69l.49.11Zm2.7-.53l-.49.14c-.06-.2-.13-.38-.18-.56-.92.19-1.85.32-2.79.4l-.15-.48c.09-.04.18-.1.25-.16.57-.45,1.08-.96,1.53-1.54l-1.61.18-.14-.49c.1-.04.18-.11.24-.2.49-.53.92-1.11,1.26-1.74l.56.2c-.4.63-.87,1.22-1.4,1.74.49,0,.97-.09,1.46-.16l.61-.81.53.19c-.74,1.01-1.58,1.93-2.52,2.75.66-.09,1.3-.21,1.93-.34-.1-.28-.2-.54-.32-.78l.48-.15c.31.58.57,1.19.76,1.82Zm2.12,5.45c.99-.42,1.86-1.08,2.52-1.92h-5.53c-.57.68-1.28,1.23-2.08,1.61l-.4-.49c1.17-.51,2.11-1.44,2.64-2.6l.67.11c-.11.26-.24.52-.38.77h7.11v.59h-1.26c-.59.91-1.4,1.65-2.35,2.17,1.48.39,2.99.66,4.52.81l-.24.61c-1.71-.17-3.4-.5-5.05-1.01-1.72.67-3.55,1-5.4.96l-.23-.62c1.6.04,3.2-.19,4.73-.67-.86-.32-1.64-.81-2.3-1.45l.57-.29c.7.64,1.54,1.12,2.45,1.41Zm-3.57-3.42h-.53c0-.53-.05-1.06-.14-1.59h.49c.11.52.17,1.06.18,1.59Zm1.4-.42l-.47.18c-.12-.47-.28-.93-.45-1.37l.47-.14c.16.44.29.88.4,1.34h.05Zm1.63-5.18c-.1-.31-.21-.61-.35-.9l.66-.1c.14.32.26.66.35,1h1.45v.47h-3.49v-.52l1.39.05Zm1.78,3.47v2.04h-2.95v-2.04h2.95Zm0-2.23v.49h-2.85v-.44l2.85-.05Zm0,1.12v.44h-2.85v-.44h2.85Zm-.48,1.56h-1.87v1.11h1.87v-1.11Zm4.65-.39l-.5.13-.13-.44c-1,.11-1.94.2-2.84.25l-.15-.48c.09-.04.18-.1.25-.16.53-.41,1.02-.87,1.45-1.39l-1.65.14-.14-.49c.09-.05.18-.12.24-.2.54-.53,1-1.13,1.38-1.78l.54.2c-.4.66-.89,1.26-1.45,1.78l1.5-.13.66-.83.52.19c-.74.97-1.59,1.86-2.52,2.65.67,0,1.34-.13,1.99-.24-.11-.32-.24-.61-.37-.88l.48-.16c.28.6.5,1.22.68,1.85h.06Zm-2.71.47c-.07.57-.2,1.14-.4,1.68l-.52-.18c.21-.52.36-1.06.43-1.61l.49.11Zm1.26,1.63h-.53c0-.56-.07-1.12-.18-1.67h.48c.1.55.17,1.11.19,1.67h.04Zm1.49-.2l-.48.18c-.16-.55-.35-1.08-.57-1.6l.48-.15c.23.51.4,1.04.53,1.58h.04Z"/>
      <path class="cls-27" d="m106.25,315.91v.66h-5.05v1.26h3.99v4.93h-4.13c-.1.78-.38,1.53-.82,2.18,2.06.85,4.26,1.31,6.48,1.35l-.19.67c-2.32-.05-4.61-.57-6.74-1.51-1.29.92-2.83,1.45-4.42,1.53l-.3-.63c1.44-.04,2.85-.48,4.06-1.26-.79-.43-1.53-.93-2.21-1.51l.56-.39c.65.56,1.37,1.05,2.13,1.44.38-.57.64-1.22.74-1.89h-3.78v-4.93h3.97v-1.26h-5.05v-.66l10.74.04Zm-5.74,4.06v-1.51h-3.28v1.51h3.28Zm0,1.16v-.57h-3.28v1.55h3.22c-.01-.29.03-.64.04-.98h.03Zm3.99-.56h-3.29v1.55h3.36l-.06-1.55Zm-3.31-.61h3.31v-1.51h-3.29v1.51Z"/>
      <path class="cls-27" d="m34.73,354.63c-.33.98-.75,1.92-1.26,2.81v8.54h-.69v-7.42c-.45.67-.96,1.3-1.51,1.88l-.21-.71c1.38-1.56,2.42-3.4,3.04-5.39l.64.28Zm7.64,11.35h-.63v-.76h-5.92v.76h-.63v-11.08h7.18v11.08Zm-.63-1.4v-9.06h-5.92v9.06h5.92Zm-3.24-6.81v-1.55h.59v1.55h1.98v.64h-1.98v1.64h1.4v3.53h-3.37v-3.53h1.38v-1.64h-1.97v-.61l1.97-.04Zm1.43,2.8h-2.23v2.41h2.23v-2.41Z"/>
      <path class="cls-27" d="m50.01,357.15c.6,3.39,2.65,6.35,5.6,8.12l-.47.58c-2.63-1.63-4.56-4.19-5.39-7.18-.8,3.03-2.77,5.62-5.49,7.19l-.42-.61c3.56-2.22,5.4-5.16,5.53-8.83v-2.07h.71c.01,1.12-.03,2.06-.08,2.79Z"/>
      <path class="cls-27" d="m59.32,359.67l-.48.49c-.64-.75-1.36-1.43-2.14-2.03l.48-.45c.77.6,1.49,1.27,2.14,1.99Zm.08,1.61c-.56,1.57-1.2,3.11-1.92,4.62l-.67-.28c.75-1.48,1.41-3.01,1.97-4.58l.62.24Zm.35-4.69l-.49.48c-.68-.72-1.43-1.38-2.23-1.97l.48-.44c.81.57,1.56,1.22,2.25,1.93Zm8.09,1.94c-.31,1.7-.91,3.34-1.78,4.83,0,.13.03.24.08.34.25,1,.55,1.52.91,1.55.3,0,.56-.82.74-2.42l.54.38c-.23,1.8-.66,2.72-1.26,2.72-.41-.04-.77-.29-.95-.66-.23-.4-.42-.82-.54-1.26-.52.7-1.18,1.3-1.93,1.75l-.38-.49c.85-.51,1.57-1.2,2.12-2.03-.03-.11-.05-.23-.06-.34-.26-2.01-.38-4.03-.35-6.06h-4.02v4.07c.04,1.75-.36,3.49-1.17,5.05l-.53-.47c.74-1.41,1.1-3,1.05-4.59v-4.74h4.68v-1.78h.63v1.78h1.35c-.19-.52-.38-1-.58-1.41l.59-.1c.18.43.37.95.56,1.51h.67v.64h-2.52c0,1.85.09,3.71.29,5.55.66-1.31,1.12-2.7,1.38-4.14l.5.3Zm-3.43-.35v.59h-2.83v-.59h2.83Zm-.19,1.8v3.47h-2.45v-3.44l2.45-.03Zm-.53.5h-1.39v2.43h1.39v-2.43Z"/>
      <path class="cls-27" d="m75.4,357.93c.64-.53,1.24-1.11,1.78-1.74h-4.15c-.89.97-1.9,1.82-3.01,2.52l-.44-.54c1.62-.97,2.99-2.3,4.01-3.89l.71.15c-.24.38-.49.73-.74,1.08h4.52v.53c-.53.67-1.12,1.29-1.77,1.84h3.32v3.68h-2.94v2.84c0,.43.2.66.61.66h2.13c.22.03.44-.06.58-.24.21-.59.31-1.21.29-1.83l.66.2c.03.77-.13,1.53-.47,2.22-.24.24-.57.36-.91.33h-2.52c-.73,0-1.1-.4-1.1-1.26v-2.98h-.85c-.09.25-.19.52-.29.76-1.08,1.77-2.8,3.06-4.79,3.62l-.44-.53c1.81-.51,3.39-1.63,4.49-3.15.11-.23.21-.47.3-.69h-3.18v-3.68l4.21.1Zm-.47.64h-3.01v2.36h2.7c.19-.77.29-1.56.32-2.36Zm4,0h-3.31c-.01.8-.11,1.6-.29,2.38h3.6v-2.38Z"/>
      <path class="cls-27" d="m82.34,362.37l-.21-.69c1.45-1.24,2.58-2.82,3.28-4.59h-3v-.63h3.66v.57c-.33,1.01-.82,1.96-1.44,2.81v.16l.57.47c.44-.34.81-.77,1.08-1.26l.42.4c-.28.49-.65.91-1.08,1.26.38.36.75.74,1.08,1.15l-.39.58c-.48-.69-1.05-1.33-1.68-1.89v5.27h-.69v-5.32c-.5.6-1.03,1.18-1.59,1.72Zm2.52-6.24l-.62.23c-.2-.62-.44-1.23-.73-1.82l.68-.18c.24.57.44,1.16.61,1.77h.06Zm5.05-.15v-1.55h.67v1.55h3.25v.66h-3.25v1.36h2.74v6.98c0,.64-.32.97-.91.97h-.96l-.19-.63h.93c.24.02.46-.15.48-.4,0-.04,0-.07,0-.11v-1.68h-2.09v2.85h-.67v-2.79h-2.03v2.79h-.66v-7.99h2.69v-1.36h-3.18v-.66h3.18Zm-2.03,2.65v1.64h2.03v-1.64h-2.03Zm0,3.91h2.03v-1.6h-2.03v1.6Zm4.79-3.91h-2.09v1.64h2.09v-1.64Zm0,2.26h-2.09v1.65h2.09v-1.65Zm.47-5.31l-.48.34c-.3-.44-.64-.86-1-1.26l.49-.3c.37.38.7.79,1,1.22h-.01Z"/>
      <path class="cls-27" d="m100.05,363l.9-.26v.72c-1.89.59-3.82,1.07-5.76,1.44l-.19-.66.93-.19v-8.83h4.13v7.78Zm-.68-5.15v-1.97h-2.76v2.03l2.76-.06Zm0,2.78v-2.14h-2.76v2.14h2.76Zm0,2.52v-1.94h-2.76v2.6c.97-.15,1.89-.35,2.76-.61v-.05Zm3.87-8.77v2.64h2.85c0,3.85,0,6.22-.19,7.14,0,.93-.77,1.68-1.7,1.68-.06,0-.12,0-.17-.01h-1.07l-.16-.59h1.17c.73,0,1.17-.44,1.26-1.26s.15-2.8.18-6.24h-2.18v.23c0,3.68-.96,6.38-2.74,8.09l-.53-.47c1.68-1.59,2.52-4.11,2.52-7.57v-.23h-1.67v-.67h1.67v-2.64l.77-.09Z"/>
      <path class="cls-27" d="m111.61,357.48v.61h-3.65v-.61h3.65Zm.85,7.29c-1.3.64-2.69,1.06-4.13,1.26l-.32-.54c1.42-.22,2.8-.64,4.1-1.26l.34.54Zm-1.12-9.6v.62h-3.09v-.62h3.09Zm6.31,4.05v4.88h-8.1v-4.88h8.1Zm-.68,1.48v-.92h-6.74v.92h6.74Zm0,1.39v-.88h-6.74v.88h6.74Zm0,.49h-6.74v.95h6.74v-.95Zm-4.89-5.42l-.39-.5c.88-.55,1.55-1.37,1.93-2.33l.66.08c-.11.25-.21.49-.33.72h4.67v.52c-.31.61-.7,1.19-1.15,1.7l-.48-.38c.34-.39.63-.81.88-1.26h-4.3c-.41.57-.92,1.06-1.49,1.46Zm3.78-1c-.05.21-.12.41-.21.61.96,1.01,2.25,1.65,3.63,1.8l-.28.59c-1.39-.19-2.68-.87-3.62-1.92-.72.98-1.81,1.62-3.01,1.78l-.33-.52c1.5-.08,2.78-1.09,3.22-2.52l.61.18Zm3.34,9.32l-.21.56c-1.38-.55-2.81-.97-4.26-1.26l.24-.48c1.43.27,2.83.68,4.19,1.22l.05-.04Z"/>
      <path class="cls-27" d="m122.18,360.63c-.23,1.2-.58,2.37-1.05,3.51l-.53-.2c.45-1.11.8-2.27,1.05-3.44l.53.14Zm0-2.52l-.54.14c-.2-.88-.45-1.74-.77-2.59l.59-.19c.28.86.5,1.73.67,2.61l.05.03Zm.77.87v-4.6h.69v4.58h1.94v.72h-1.94v6.31h-.69v-6.31h-2.06v-.67l2.06-.03Zm2.52-3.67c-.07.97-.26,1.93-.58,2.85l-.54-.16c.29-.89.47-1.82.53-2.76l.59.08Zm.19,8.2l-.56.14c-.2-1.05-.45-2.06-.73-3.01l.48-.16c.31.98.56,1.98.74,2.99l.06.05Zm5.15-9.07v7.37l1.26-.2.11.67-1.43.21v3.49h-.68v-3.43l-3.94.62-.09-.67,4.02-.63v-7.47l.73.04Zm-1.73,5.97l-.45.45c-.67-.75-1.43-1.41-2.25-1.99l.44-.43c.79.58,1.53,1.23,2.19,1.94l.06.03Zm.35-3.09l-.45.47c-.68-.72-1.44-1.36-2.26-1.92l.47-.42c.78.55,1.51,1.16,2.18,1.84l.06.03Z"/>
      <path class="cls-27" d="m138.79,359.21v-2.96h-.08c-1.36,1.48-3.11,2.56-5.05,3.1l-.37-.59c1.77-.43,3.41-1.3,4.77-2.52h-4.07v-.66h4.86v-1.26h.69v1.26h4.86v.66h-4.86v.53c1.83.52,3.63,1.15,5.39,1.88l-.45.49c-1.61-.71-3.26-1.33-4.93-1.85v1.92h3.41v4.59h-7.57v-4.59h3.41Zm5.76,5.76v.64h-10.89v-.64h10.89Zm-2.35-3.78v-1.37h-6.16v1.37h6.16Zm0,.61h-6.16v1.36h6.16v-1.36Z"/>
      <path class="cls-27" d="m150.15,356.17v.66h-3.97v-.66h3.97Zm-2.98,9.84h-.66v-4.36h3.32v4.18h-.63v-.66h-2.03v.85Zm2.52-8.01v.61h-3.08v-.61h3.08Zm0,1.73v.62h-3.08v-.67l3.08.05Zm-.53,2.52h-2.03v2.26h2.03v-2.26Zm-.54-6.42l-.59.21c-.21-.53-.45-1.04-.73-1.54l.67-.18c.27.5.51,1.02.69,1.56l-.04-.06Zm4.18-1.44c-.11.48-.24.92-.39,1.36h4.72c0,4.54-.06,7.37-.18,8.44.02.91-.7,1.67-1.61,1.7-.06,0-.12,0-.18,0h-1.34l-.16-.62h1.44c.69,0,1.1-.44,1.26-1.26s.14-3.38.18-7.57h-4.33c-.41.9-.97,1.73-1.64,2.46l-.4-.56c1.01-1.13,1.71-2.51,2.03-4l.61.05Zm2.01,3.62v5.75h-3.52v-5.73l3.52-.03Zm-.66,2.52v-1.92h-2.26v1.92h2.26Zm0,.59h-2.26v2.02h2.3l-.04-2.02Z"/>
      <path class="cls-27" d="m32.19,402.88c-.04.99-.2,1.98-.47,2.94l-.57-.19c.27-.91.43-1.86.47-2.81l.57.06Zm2.76-.98l-.56.14c0-.23-.08-.44-.11-.63-.87.27-1.75.47-2.65.61l-.18-.61c.12-.04.22-.11.32-.19.56-.79,1.04-1.64,1.44-2.52l-1.74.29-.16-.59c.11-.05.21-.14.28-.24.56-1.22,1.01-2.49,1.35-3.78l.62.24c-.39,1.31-.91,2.57-1.54,3.78.49-.05.98-.13,1.46-.23.23-.52.45-1.07.72-1.67l.57.21c-.65,1.63-1.47,3.19-2.42,4.67.62-.11,1.26-.26,1.83-.44-.1-.42-.23-.83-.33-1.26l.52-.16c.24.78.44,1.58.59,2.38Zm-1.14,3.34l-.56.11c-.11-.85-.27-1.69-.48-2.52l.52-.13c.19.74.37,1.61.52,2.54h0Zm1.26-.93l-.48.23c-.18-.69-.41-1.36-.68-2.02l.48-.16c.28.64.52,1.29.73,1.96h-.05Zm1.43-8.83c.13-.39.23-.78.3-1.19l.62.09c-.06.38-.16.75-.32,1.1h1.46v3.86h-1.48l.37,1.26h1.46v.59h-2.06c0,.44-.11.85-.18,1.26h1.94c.06.97-.02,1.93-.24,2.88-.17.33-.51.53-.88.53h-.98l-.16-.57h.98c.25,0,.47-.17.54-.42.07-.61.11-1.22.11-1.83h-1.44c-.09.33-.18.64-.28.91-.31.73-.77,1.38-1.34,1.93l-.39-.49c.49-.48.89-1.06,1.16-1.69.26-.8.44-1.62.54-2.46h-1.14v-.59h1.74l-.35-1.26h-1.11v-3.86l1.1-.05Zm1.48,1.69v-1.16h-2.03v1.16h2.03Zm0,.5h-2.03v1.11h2.03v-1.11Zm2.69,4.16c.39-1.45.59-2.95.61-4.45h-1.26c-.26.95-.64,1.87-1.14,2.72l-.35-.43c.8-1.67,1.29-3.47,1.44-5.31l.61.1c-.1.82-.24,1.59-.39,2.27h2.4v.64h-.66c0,1.8-.28,3.58-.86,5.29.47.99,1.08,1.92,1.8,2.74l-.44.5c-.66-.77-1.22-1.62-1.67-2.52-.42.94-1,1.79-1.73,2.52l-.34-.57c.77-.74,1.35-1.65,1.72-2.65-.44-1.03-.78-2.11-1.02-3.2l.49-.26c.2.91.48,1.79.85,2.65l-.05-.04Z"/>
      <path class="cls-27" d="m46.79,395.61v-1.26h.66v1.26h2.42v.64h-2.42v1.35h2.13v.61h-5.15v-.61h2.33v-1.35h-2.79v-.62l2.81-.03Zm-1.06,7.03c-.25.93-.65,1.82-1.17,2.62l-.53-.34c.52-.73.9-1.54,1.11-2.41l.59.13Zm4.3-1.41v.62h-2.67v4.14h-.67v-4.14h-2.6v-.62h5.94Zm-.85-1.84v.66h-4.31v-.61l4.31-.05Zm.5,4.98l-.54.25c-.24-.68-.53-1.34-.87-1.97l.57-.19c.33.61.61,1.25.85,1.9h0Zm3.07-6.19c0,.8-.04,1.59-.13,2.38.47,1.91,1.49,3.64,2.94,4.97l-.45.53c-1.22-1.18-2.14-2.64-2.67-4.25,0,.2-.09.39-.13.57-.42,1.54-1.4,2.86-2.74,3.72l-.42-.53c1.19-.75,2.09-1.89,2.52-3.23.33-1.36.49-2.76.48-4.16h.59Zm-.83-3.66c-.09.69-.19,1.34-.32,1.94h3.42v.42c-.18,1.1-.4,2.18-.68,3.23l-.66-.18c.3-.93.52-1.88.68-2.84h-2.91c-.26.95-.66,1.85-1.19,2.67l-.54-.39c.92-1.5,1.45-3.2,1.56-4.96l.63.1Z"/>
      <path class="cls-27" d="m66.89,398.27v4.09h-4.04v1.26h5.05v.61h-5.05v1.82h-.69v-1.84h-5.11v-.61h5.15v-1.26h-4.05v-4.06h8.74Zm-4.96-3.44v2.52h-4.33v-2.52h4.33Zm-.68.53h-2.94v1.48h2.96l-.03-1.48Zm.91,4.69v-1.2h-3.36v1.19h3.36Zm0,.53h-3.36v1.26h3.36v-1.26Zm.69-.53h3.36v-1.2h-3.36v1.2Zm3.36.53h-3.36v1.26h3.36v-1.26Zm1.15-5.75v2.52h-4.3v-2.52h4.3Zm-.68.53h-2.95v1.5h2.95v-1.5Z"/>
      <path class="cls-27" d="m80.9,400.43v.63h-2.16v4.02c0,.62-.35.95-1.02.95h-1.26l-.15-.66h1.26c.44,0,.56-.16.56-.49v-3.86h-8.46v-.63l11.24.04Zm-.44-2.67h-.64v-1.68h-9.1v1.68h-.64v-2.31h4.91c-.14-.35-.31-.69-.49-1.02l.72-.13c.18.37.33.76.47,1.15h4.78v2.31Zm-5.41-.44c.01-.12.01-.24,0-.35v-.49h.66v.49c0,.12,0,.24,0,.35h3.41v.61h-3.57c-.06.14-.12.27-.2.39,1.36.34,2.7.79,3.99,1.35l-.35.54c-1.29-.59-2.63-1.07-4.01-1.43-.11.1-.21.2-.32.28-1.04.6-2.18.98-3.37,1.12l-.37-.54c1.15-.12,2.26-.45,3.28-.98.26-.19.48-.44.64-.72h-3.42v-.61h3.63Zm1.11,4.71v2.75h-4.6v-2.75h4.6Zm-.63.62h-3.34v1.51h3.33v-1.51Z"/>
      <path class="cls-27" d="m85.17,397.16c.67-.43,1.25-.98,1.72-1.61h-3.7v-.56h4.47v.5c-.62,1.07-1.53,1.94-2.62,2.52h2.13v2.75h-2.85l-.26,1.58h3.19c.04.96-.02,1.93-.18,2.88-.15.49-.72.77-1.7.79h-1.44l-.16-.63h1.46c.69,0,1.1-.15,1.26-.44.13-.66.18-1.33.15-1.99h-3.25l.43-2.79h2.76v-1.51h-2.79l-1.06.39-.43-.54c.82-.25,1.61-.57,2.37-.97-.49-.42-1.01-.8-1.55-1.15l.53-.32c.53.33,1.04.7,1.53,1.1Zm6.71-2.52c-.26.32-.57.61-.91.85-.29.2-.59.38-.9.54.28.25.58.47.9.68.76-.31,1.43-.82,1.92-1.49l.52.32c-.28.36-.61.69-.97.98-.26.19-.56.38-.88.57.74.42,1.52.77,2.32,1.06l-.45.53c-.54-.2-1.06-.44-1.56-.71v1.48c0,.28.16.43.5.43h.73v.59h-.93c-.43.07-.83-.22-.89-.65-.01-.08-.01-.15,0-.23v-1.07h-2.08c.02.43-.05.86-.23,1.26-.23.38-.54.71-.91.96l-.49-.44c.35-.23.64-.55.83-.92.15-.45.21-.93.19-1.4h3.19c-1.42-.7-2.63-1.75-3.52-3.05l.54-.33c.24.38.52.74.83,1.06.32-.14.63-.3.92-.49.3-.23.58-.48.83-.77l.5.25Zm.63,6.61v.61c-.31.83-.79,1.58-1.4,2.22.82.5,1.58,1.01,2.25,1.5l-.49.48c-.7-.57-1.44-1.09-2.22-1.55-.79.65-1.69,1.15-2.65,1.5l-.25-.62c.84-.28,1.63-.71,2.32-1.26-.62-.35-1.26-.73-1.98-1.1l.43-.4c.72.35,1.38.72,2.02,1.08.53-.51.95-1.11,1.26-1.78h-3.7v-.63l4.42-.05Z"/>
      <path class="cls-27" d="m97.98,397.63v.56c-.5.83-1.06,1.63-1.69,2.37h1.9v.47c-.16.93-.43,1.84-.81,2.71.13.07.25.15.35.25.36.39.79.7,1.26.93.58.2,1.19.29,1.8.28h5.93l-.15.66h-5.83c-.69,0-1.38-.12-2.03-.37-.54-.24-1.03-.59-1.43-1.03-.09-.09-.21-.14-.33-.14-.35,0-.82.58-1.43,1.73l-.49-.45c.61-1.19,1.26-1.82,1.73-1.93.34-.79.6-1.62.77-2.46h-2.08v-.53c.65-.74,1.24-1.52,1.77-2.35h-2.04v-.64l2.79-.05Zm0-1.26l-.45.45c-.59-.67-1.24-1.28-1.94-1.83l.48-.45c.7.55,1.35,1.16,1.93,1.83h-.01Zm1.94,2.88v.11c.05,1.65-.24,3.29-.85,4.82l-.52-.47c.49-1.38.73-2.85.69-4.31v-4.48h6.81v8.36c.07.45-.24.86-.69.93-.07.01-.14.01-.22,0h-1.53l-.16-.62h1.51c.3,0,.45-.19.45-.56v-3.78h-5.51Zm0-3.71v1.35h2.41v-1.35h-2.41Zm0,1.92v1.26h2.41v-1.26h-2.41Zm4.44,2.7v2.52h-3.54v-2.52h3.54Zm-.61.54h-2.36v1.44h2.32l.04-1.44Zm1.64-3.78v-1.35h-2.42v1.35h2.42Zm0,1.78v-1.26h-2.42v1.26h2.42Z"/>
      <path class="cls-27" d="m110.13,403.56c-.47.88-1.06,1.69-1.75,2.41l-.54-.39c.69-.67,1.27-1.45,1.72-2.3l.58.28Zm-.57-9.16v1.5h2.72v-1.48h.66v1.48h.87v.66h-.86v5.64h.86v.64h-5.97v-.64h1.01v-5.64h-.88v-.66h.88v-1.5h.71Zm0,2.16v1.48h2.72v-1.48h-2.72Zm2.72,3.54v-1.44h-2.72v1.44h2.72Zm0,2.09v-1.46h-2.72v1.46h2.72Zm.97,3.22l-.58.4c-.41-.75-.88-1.47-1.4-2.14l.53-.35c.54.66,1.02,1.36,1.45,2.09h0Zm.56.61l-.53-.48c.98-1.39,1.49-3.06,1.44-4.76v-5.87h4.05v10c.06.49-.3.93-.79.99-.08,0-.16,0-.24,0h-1.4l-.18-.67h1.34c.37,0,.56-.2.56-.59v-2.85h-2.7c-.1,1.53-.63,2.99-1.54,4.23Zm1.61-5.27v.43h2.65v-2.52h-2.64v2.09Zm2.64-5.18h-2.64v2.45h2.64v-2.45Z"/>
      <path class="cls-27" d="m126.71,394.4v2.01h4.06v7h-.68v-.85h-3.38v3.43h-.68v-3.43h-3.38v.93h-.68v-7.09h4.11v-2.01h.63Zm-.68,4.74v-2.08h-3.38v2.08h3.38Zm0,2.75v-2.12h-3.38v2.12h3.38Zm4.06-2.75v-2.08h-3.38v2.08h3.38Zm0,2.75v-2.12h-3.38v2.12h3.38Z"/>
      <path class="cls-27" d="m137.49,396.18v.63h-4.1v-.63h4.1Zm-.42,8.98h-2.6v.66h-.66v-4.18h3.25v3.52Zm0-7.19v.61h-3.14v-.61h3.14Zm0,1.78v.62h-3.14v-.62h3.14Zm-.58,4.79v-2.31h-1.97v2.31h1.97Zm-.52-8.69l-.59.23c-.19-.53-.42-1.05-.69-1.55l.67-.18c.22.49.41.99.57,1.5h.05Zm5.7-1.49v.91h2.99v.57h-2.99v1.05h2.52v.63h-2.52v1.08h3.34v.58h-7.39v-.58h3.37v-1.08h-2.52v-.58h2.52v-1.05h-3.03v-.57h3.03v-.91l.68-.05Zm-3.49,11.68l-.5-.47c.69-.84,1.07-1.91,1.05-3v-2.52h5.27v5.05c0,.56-.34.85-.97.85h-1.53l-.16-.62h1.49c.24.04.47-.13.5-.37,0-.04,0-.08,0-.12v-1.01h-4.16c-.14.82-.5,1.58-1.03,2.22h.05Zm1.19-3.51c0,.28,0,.54-.06.79h4.02v-1.07h-3.96v.28Zm3.96-1.92h-3.96v1.1h3.96v-1.1Z"/>
      <path class="cls-27" d="m147.08,395.65v-.66h7.64v.37c-.19,1.08-.5,2.14-.92,3.15h2.52v.61c-.45,1.68-1.37,3.2-2.65,4.38,1.13.81,2.37,1.46,3.68,1.93l-.44.62c-1.35-.51-2.63-1.2-3.78-2.07-1.17.91-2.48,1.62-3.87,2.11l-.37-.64c1.33-.44,2.57-1.1,3.67-1.96-1.32-1.13-2.24-2.64-2.65-4.33h-.33c-.13,2.55-1.17,4.97-2.94,6.82l-.53-.47c1.89-1.75,2.86-4.58,2.9-8.45v-1.41h-1.94Zm6.06,2.86c.37-.92.65-1.88.83-2.86h-4.25v1.41c0,.5,0,.98-.06,1.45h3.48Zm2.52.64h-5.05c.4,1.53,1.29,2.9,2.52,3.89,1.15-1.06,2-2.4,2.46-3.89h.06Z"/>
      <path class="cls-27" d="m160.06,399.45c-.07.6-.21,1.19-.42,1.75l-.53-.18c.23-.54.38-1.11.47-1.69l.48.11Zm2.71-.53l-.5.14c0-.2-.11-.38-.16-.56-.92.18-1.85.32-2.79.4l-.16-.48c.1-.04.19-.1.26-.16.57-.45,1.08-.97,1.53-1.54l-1.61.18-.15-.49c.1-.04.19-.11.25-.2.49-.53.91-1.11,1.26-1.74l.54.2c-.39.63-.86,1.22-1.39,1.74.49,0,.97-.09,1.45-.16l.62-.81.52.19c-.73,1.01-1.58,1.93-2.52,2.75.66-.09,1.26-.2,1.93-.34-.1-.28-.2-.54-.32-.78l.48-.15c.31.58.57,1.19.77,1.82Zm2.12,5.45c.98-.42,1.85-1.08,2.52-1.9h-5.53c-.58.67-1.29,1.21-2.08,1.6l-.4-.49c1.17-.51,2.11-1.44,2.64-2.6l.67.11c-.13.26-.25.53-.39.77h7.13v.61h-1.26c-.6.9-1.41,1.64-2.36,2.16,1.48.39,3,.66,4.53.81l-.25.61c-1.71-.17-3.4-.5-5.05-1.01-1.72.67-3.55,1-5.4.96l-.23-.62c1.6.03,3.2-.19,4.73-.66-.86-.32-1.64-.82-2.3-1.46l.56-.29c.72.64,1.56,1.12,2.47,1.41Zm-3.58-3.42h-.52c0-.53-.05-1.06-.14-1.59h.48c.11.52.17,1.06.18,1.59h0Zm1.41-.42l-.48.18c-.11-.47-.26-.93-.44-1.37l.45-.14c.19.49.35.92.47,1.34h0Zm1.63-5.18c-.1-.31-.21-.61-.35-.9l.64-.1c.15.32.27.65.37,1h1.4v.52h-3.49v-.52h1.44Zm1.78,3.47v2.04h-2.95v-2.08l2.95.04Zm0-2.23v.45h-2.85v-.45h2.85Zm0,1.12v.44h-2.85v-.44h2.85Zm-.49,1.56h-1.85v1.11h1.75l.1-1.11Zm4.67-.39l-.5.13c0-.16-.09-.32-.13-.44-1,.11-1.94.2-2.85.25l-.14-.48.24-.16c.54-.41,1.03-.87,1.46-1.39l-1.67.14-.13-.49c.08-.04.15-.1.2-.18.54-.52,1.01-1.12,1.39-1.78l.54.2c-.4.65-.89,1.25-1.45,1.78l1.5-.13.66-.83.5.19c-.72.97-1.54,1.86-2.45,2.65.67,0,1.32-.13,1.99-.24-.11-.3-.23-.6-.38-.88l.49-.16c.26.59.48,1.21.66,1.83h.05Zm-2.71.47c-.07.57-.2,1.14-.4,1.68l-.52-.18c.2-.52.35-1.06.43-1.61l.49.11Zm1.26,1.63h-.52c0-.56-.07-1.12-.18-1.67h.48c.1.55.15,1.11.16,1.67h.05Zm1.5-.2l-.48.18c-.16-.54-.35-1.08-.57-1.6l.48-.15c.21.51.38,1.04.52,1.58h.05Z"/>
      <path class="cls-27" d="m182.83,394.99v.66h-5.05v1.26h3.99v4.93h-4.13c-.11.78-.39,1.53-.82,2.18,2.06.85,4.26,1.31,6.48,1.35l-.19.67c-2.32-.05-4.62-.56-6.74-1.51-1.29.93-2.83,1.46-4.42,1.53l-.32-.63c1.45-.04,2.86-.48,4.07-1.26-.79-.42-1.53-.93-2.21-1.51l.54-.39c.65.56,1.37,1.04,2.13,1.44.39-.56.65-1.21.76-1.89h-3.78v-4.93h3.96v-1.26h-5.05v-.62h10.75Zm-5.75,4.06v-1.54h-3.28v1.51l3.28.03Zm0,1.16v-.56h-3.28v1.55h3.22c.03-.38.05-.71.06-1.05v.05Zm4-.56h-3.31v1.55h3.36l-.05-1.55Zm-3.31-.61h3.31v-1.54h-3.31v1.54Z"/>
      <line class="cls-15" x1="14.94" y1="98.92" x2="250.05" y2="98.92"/>
      <line class="cls-15" x1="14.94" y1="139.56" x2="250.05" y2="139.56"/>
      <line class="cls-15" x1="14.94" y1="180.19" x2="250.05" y2="180.19"/>
      <line class="cls-16" x1="14.94" y1="260.4" x2="250.05" y2="260.4"/>
      <line class="cls-15" x1="14.94" y1="220.82" x2="250.05" y2="220.82"/>
      <line class="cls-14" x1="14.94" y1="301.22" x2="249.7" y2="301.22"/>
      <line class="cls-14" x1="14.94" y1="340.79" x2="249.7" y2="340.79"/>
      <line class="cls-14" x1="14.94" y1="380.36" x2="249.7" y2="380.36"/>
      <line class="cls-14" x1="14.94" y1="419.93" x2="249.7" y2="419.93"/>
      <circle class="cls-33" cx="226.89" cy="78.45" r="8.3"/>
      <polyline class="cls-23" points="225.53 75.38 229.92 78.86 225.24 81.7"/>
      <circle class="cls-33" cx="226.89" cy="119.12" r="8.3"/>
      <polyline class="cls-23" points="225.53 116.06 229.92 119.53 225.24 122.37"/>
      <circle class="cls-33" cx="226.89" cy="159.39" r="8.3"/>
      <polyline class="cls-23" points="225.53 156.31 229.92 159.79 225.24 162.62"/>
      <circle class="cls-33" cx="226.89" cy="200.06" r="8.3"/>
      <polyline class="cls-23" points="225.53 196.98 229.92 200.46 225.24 203.29"/>
      <circle class="cls-33" cx="226.89" cy="240.01" r="8.3"/>
      <polyline class="cls-23" points="225.53 236.93 229.92 240.41 225.24 243.25"/>
      <circle class="cls-33" cx="226.89" cy="279.14" r="8.3"/>
      <polyline class="cls-23" points="225.53 276.06 229.92 279.54 225.24 282.37"/>
      <circle class="cls-33" cx="225.48" cy="320.98" r="8.3"/>
      <polyline class="cls-23" points="224.12 317.91 228.52 321.38 223.83 324.21"/>
      <circle class="cls-33" cx="225.48" cy="360.1" r="8.3"/>
      <polyline class="cls-23" points="224.12 357.02 228.52 360.51 223.83 363.33"/>
      <circle class="cls-33" cx="224.78" cy="400.05" r="8.3"/>
      <polyline class="cls-23" points="223.41 396.98 227.82 400.46 223.12 403.3"/>
      <rect class="cls-21" x="11.16" y="220.21" width="242.47" height="40.82" rx="3.94" ry="3.94"/>
      <path class="cls-26" d="m256.58,273.25l-1.48-1.79c-.72-.86-1.86-1.24-2.95-.98-.26.07-.53-.08-.62-.34-1.22-3.41-3.03-6.59-5.35-9.37l-2.96-3.56c-.77-.92-2.01-1.28-3.15-.92-.37.11-.71.29-1,.54-.28.24-.52.52-.71.85-.06.12-.17.21-.3.25h0c-.15.04-.3.01-.43-.08-.74-.51-1.66-.65-2.52-.4-.36.12-.7.3-1,.54-.28.24-.52.53-.69.86-.07.12-.18.21-.32.25h0c-.15.04-.31,0-.43-.09-.76-.52-1.71-.66-2.59-.39-.68.21-1.27.65-1.64,1.26-.07.11-.18.19-.3.24h-.11c-.18.02-.35-.05-.47-.19l-3.94-4.73c-.77-.92-2.01-1.28-3.15-.92-.37.11-.71.29-1,.54-.6.49-.98,1.21-1.05,1.98-.06.78.18,1.55.68,2.14l7.2,8.65c.09.11.13.25.11.39l-.49,5.2c-.25,2.67,1.56,5.1,4.19,5.64l8.83,1.82c.14.04.27.13.35.25.06.14.06.29,0,.43-.28.94-.07,1.95.56,2.7l1.49,1.79c.16.19.43.27.67.19.08-.03.15-.06.21-.11l14.29-11.85c.13-.1.2-.25.21-.42,0-.14-.06-.28-.16-.38Z"/>
      <path class="cls-12" d="m256.01,271.02l-1.26-1.32c-.83-1-1.68-.54-2.86-.26-1.22-3.72-3.01-7.22-5.32-10.37-.3-.37-2.69-3.03-2.99-3.38-1.17-1.41-2.11-1.36-3.52-.19-.39.48-.73,1-1,1.55-1.19-.85-2.76-1.7-3.94-.73-.45.53-.85,1.11-1.19,1.73-1.19-.83-2.37-1.64-3.54-.67-.5.77-.95,1.58-1.34,2.41l-5.26-5.88c-1.17-1.41-1.99-2.08-3.39-.91h0c-1.39,1.17-1.58,3.25-.42,4.65l8.04,9.2-.61,4.34c-.26,2.8.59,5.05,3.37,5.63l8.97,1.41c.95.74.77,2.78,1.5,3.66v1.43c.37.47,1.06.55,1.52.17,0,0,.02-.01.03-.02l13.62-11.35c.47-.35-.06-.62-.42-1.08Z"/>
      <polygon class="cls-35" points="241.07 279.24 240.83 281.15 242.5 283.13 256.21 271.7 253.36 269.09 241.07 279.24"/>
      <path class="cls-27" d="m242.66,284.49c-.24.08-.5,0-.67-.19l-1.5-1.8c-.63-.76-.84-1.79-.57-2.74.06-.14.06-.3,0-.44-.08-.13-.21-.22-.35-.25l-8.97-1.84c-2.66-.54-4.48-2.99-4.23-5.69l.5-5.26c.01-.15-.03-.29-.13-.4l-7.27-8.74c-.51-.6-.75-1.38-.68-2.17.06-.78.44-1.51,1.05-2.01.3-.25.64-.43,1.01-.56,1.15-.37,2.41,0,3.18.93l3.99,4.79c.11.13.28.2.45.19h.13c.13-.04.23-.13.3-.24.37-.61.96-1.07,1.65-1.26.88-.28,1.84-.13,2.6.4.13.09.29.12.44.08h0c.14-.04.25-.14.32-.26.18-.33.42-.62.71-.86.29-.25.63-.43,1-.54.88-.28,1.85-.14,2.61.39.12.09.28.12.43.09h0c.13-.04.24-.13.3-.25.18-.33.42-.63.71-.87.3-.24.64-.43,1.01-.54,1.15-.37,2.41,0,3.18.93l2.99,3.6c2.34,2.82,4.17,6.03,5.4,9.49.09.26.36.41.63.34,1.1-.26,2.25.13,2.96,1l1.5,1.8c.1.13.15.3.14.47,0,.17-.09.32-.23.42l-14.42,11.98c-.06.05-.14.09-.21.11l.04-.09Zm10.42-14.52c-.21.07-.41.18-.58.32l-10.81,8.99c-.73.6-.83,1.67-.24,2.4,0,0,0,0,.01.01l.74.9c.09.11.22.18.37.2.07.01.14.01.21,0,.07-.02.14-.05.19-.1l12.61-10.48c.11-.09.18-.22.19-.37.02-.14-.03-.29-.11-.4l-.76-.9c-.43-.55-1.16-.78-1.83-.57h0Zm-24.84-1.72c-.21.06-.36.25-.38.47l-.28,2.93c-.2,2.06,1.19,3.93,3.22,4.34l10.09,2.07c.09.03.19.03.28,0,.07-.02.13-.05.18-.1l9.78-8.11c.17-.15.23-.38.16-.59-1.17-3.49-2.97-6.72-5.32-9.55l-2.99-3.6c-.45-.54-1.17-.75-1.84-.54-.21.07-.41.17-.58.32-.72.61-.82,1.68-.21,2.41.1.13.15.3.14.47-.02.17-.1.32-.23.43-.06.05-.14.09-.21.11-.24.08-.51,0-.67-.2l-1.5-1.8c-.45-.54-1.18-.74-1.84-.53-.21.06-.4.17-.57.32-.73.6-.83,1.67-.24,2.4,0,0,0,0,.01.01l1.5,1.8c.22.27.18.67-.09.89-.06.05-.13.09-.2.11-.24.08-.51,0-.68-.19l-2.99-3.61c-.45-.54-1.17-.75-1.84-.54-.21.07-.41.18-.58.32-.35.29-.57.71-.61,1.16-.05.46.09.91.39,1.26h0l2.95,3.56c.22.26.2.65-.06.87,0,0,0,0-.01.01-.06.05-.14.09-.21.11-.24.07-.51,0-.67-.2l-9.07-10.94c-.45-.53-1.18-.74-1.84-.53-.21.07-.41.18-.59.32-.72.61-.82,1.69-.21,2.42l12.07,14.54c.11.12.17.29.15.45-.01.16-.09.31-.21.42-.06.06-.13.1-.21.13h0c-.25.08-.52,0-.68-.2l-1.39-1.68-1.26-1.58c-.14-.16-.37-.23-.58-.16l-.05.03Z"/>
      <g>
        <line class="cls-20" x1=".89" y1="407.37" x2="266.68" y2="407.37"/>
        <path class="cls-34" d="m266.5,407.51v29.99c0,9.9-8.1,18-18,18H18.5c-9.9,0-18-8.1-18-18v-29.99h266Z"/>
        <path class="cls-6" d="m22.96,434.96c-.14,0-.25-.11-.25-.25h0v-4.82h-3.78v4.82c0,.14-.11.25-.25.25h-2.95c-.92,0-1.66-.75-1.67-1.67v-6.74h-.95c-.1,0-.2-.07-.24-.16-.03-.1-.01-.21.06-.28l7.69-7.47s.11-.07.18-.08c.06,0,.13.02.18.06l7.92,7.43c.08.07.1.18.06.28-.04.1-.13.16-.24.16h-.95v6.75c0,.92-.75,1.67-1.67,1.67h0l-3.15.04Z"/>
        <path class="cls-7" d="m67.78,429.22l-1.14,4.88c-.21.92.57,1.68,1.73,1.68h12.54c1.12.06,2.15-.62,2.52-1.68l1.15-4.89"/>
        <line class="cls-18" x1="69.26" y1="434.45" x2="81.58" y2="434.42"/>
        <rect class="cls-29" x="69.85" y="430.99" width="1.83" height="3.38" transform="translate(-1.43 .24) rotate(-.19)"/>
        <rect class="cls-29" x="72.27" y="431.8" width="1.83" height="2.61" transform="translate(-1.44 .25) rotate(-.19)"/>
        <rect class="cls-29" x="74.52" y="431.31" width="1.83" height="3.07" transform="translate(-1.43 .25) rotate(-.19)"/>
        <rect class="cls-29" x="76.88" y="429.68" width="1.83" height="4.69" transform="translate(-1.43 .26) rotate(-.19)"/>
        <rect class="cls-29" x="79.23" y="431.76" width="1.83" height="2.61" transform="translate(-1.44 .27) rotate(-.19)"/>
        <path class="cls-8" d="m84.56,428.97v-5.44c-.08-1.09-1.02-1.92-2.12-1.85h-12.61c-1.1-.06-2.04.77-2.11,1.87,0,0,0,0,0,0v5.5l16.84-.09Z"/>
        <path id="Path" class="cls-8" d="m74.67,419.09c-.2-.67-.9-1.05-1.56-.86-.41.12-.74.44-.86.86v1.2h2.41v-1.2Z"/>
        <path id="Path-2" class="cls-8" d="m79,420.75h0c-.96-.01-1.75.75-1.77,1.72,0,.01,0,.03,0,.04v.08h-1.94v-.1c.03-.64-.3-1.25-.86-1.58-.56-.33-1.26-.33-1.82,0-.56.33-.89.93-.87,1.58v5.13h3.53v-3.37h2.01v3.38h3.54v-5.13c.01-.47-.17-.93-.5-1.26-.34-.33-.79-.52-1.26-.52l-.06.04Z"/>
        <ellipse id="Oval" class="cls-9" cx="79.05" cy="419.12" rx="1.21" ry="1.2" transform="translate(-1.39 .26) rotate(-.19)"/>
        <circle class="cls-6" cx="244.98" cy="426.78" r="8.28"/>
        <circle class="cls-18" cx="244.77" cy="425.11" r="2.84"/>
        <path class="cls-6" d="m251,433.18l-.24-.25c-.09-.09-.24-.09-.33,0-.3.19-.63.34-.98.42-.12.01-.22.12-.2.25,0,0,0,.01,0,.02,0,.11,0,.23,0,.34h-.96v-.33c0-.18,0-.25-.21-.29-.34-.08-.67-.21-.97-.39-.1-.1-.26-.1-.35,0-.08.09-.15.16-.21.25l-.72-.72.25-.21c.09-.09.09-.24,0-.34h0c-.19-.3-.34-.64-.42-.99-.01-.12-.12-.22-.25-.2,0,0-.01,0-.02,0h-.34v-.97h.34c.13.02.25-.07.28-.2,0,0,0-.01,0-.02.08-.35.21-.68.4-.98.09-.09.09-.24,0-.33l-.25-.23.69-.71.24.25c.09.08.23.08.32,0,.3-.2.64-.34,1-.42.13-.02.22-.13.21-.26,0-.11,0-.23,0-.34h.97v.34c0,.16,0,.23.23.28.34.07.66.21.96.39.1.1.26.1.35,0l.21-.24.71.71-.24.21c-.09.08-.1.23-.02.32,0,0,.01.01.02.02.18.3.32.63.4.97.01.13.13.23.26.22,0,0,.01,0,.02,0h.34v.97h-.33c-.14-.02-.27.07-.29.21,0,0,0,0,0,0-.07.34-.2.67-.39.97-.1.1-.1.26,0,.35l.25.21-.73.71Zm-2.31-4.81c-1.04.04-1.85.91-1.81,1.94.04,1.04.91,1.85,1.94,1.81,1.04-.04,1.85-.9,1.81-1.94-.03-1.03-.88-1.84-1.92-1.82,0,0-.02,0-.03,0h0Z"/>
        <path class="cls-6" d="m243.18,427.58c-1.94.96-3.4,2.68-4.05,4.74"/>
        <g>
          <text class="cls-38" transform="translate(13.73 446.02)"><tspan x="0" y="0">首頁</tspan></text>
          <text class="cls-38" transform="translate(61.85 446.02)"><tspan x="0" y="0">健康存摺</tspan></text>
          <text class="cls-38" transform="translate(117.05 446.02)"><tspan x="0" y="0">健保櫃檯</tspan></text>
          <text class="cls-38" transform="translate(171.37 446.02)"><tspan x="0" y="0">虛擬健保卡</tspan></text>
          <text class="cls-38" transform="translate(237.94 446.02)"><tspan x="0" y="0">我的</tspan></text>
        </g>
        <rect class="cls-10" x="179.71" y="420.54" width="18.96" height="14.81" rx=".91" ry=".91"/>
        <g>
          <circle class="cls-3" cx="193.13" cy="425.65" r="2.31"/>
          <path class="cls-3" d="m195.44,430.26c0-1.27-1.03-2.31-2.31-2.31s-2.31,1.03-2.31,2.31v1.66h4.61v-1.66Z"/>
        </g>
        <g>
          <path class="cls-13" d="m122.67,424.84v-1.18c0-.35.28-.63.63-.63h1.97c.36,0,.65.29.65.65v1.16"/>
          <polyline class="cls-24" points="121.9 435 121.65 435 121.61 424.88 138.54 424.82 138.56 434.95 138.34 434.95"/>
          <line class="cls-19" x1="119.88" y1="435.01" x2="140.34" y2="434.93"/>
          <circle class="cls-2" cx="129.91" cy="430.1" r="2.84"/>
          <rect class="cls-6" x="130.47" y="418.66" width="7.38" height="3.96" rx=".48" ry=".48"/>
          <line class="cls-18" x1="135.01" y1="422.61" x2="135.01" y2="424.73"/>
          <text class="cls-37" transform="translate(127.77 431.31) scale(1.83 1)"><tspan x="0" y="0">H</tspan></text>
        </g>
        <g>
          <g>
            <rect class="cls-17" x="182.12" y="425.05" width="2.15" height="2.15"/>
            <rect class="cls-28" x="182.95" y="425.88" width=".48" height=".48"/>
          </g>
          <g>
            <rect class="cls-17" x="182.12" y="429.55" width="2.15" height="2.15"/>
            <rect class="cls-28" x="182.95" y="430.38" width=".48" height=".48"/>
          </g>
          <g>
            <rect class="cls-17" x="186.54" y="425.05" width="2.15" height="2.15"/>
            <rect class="cls-28" x="187.38" y="425.88" width=".48" height=".48"/>
          </g>
          <rect class="cls-28" x="184.67" y="428.71" width=".83" height=".83"/>
          <rect class="cls-28" x="182.12" y="427.46" width=".83" height=".83"/>
          <rect class="cls-28" x="182.95" y="428.29" width=".83" height=".83"/>
          <g>
            <rect class="cls-28" x="185.46" y="426.71" width=".75" height=".75"/>
            <rect class="cls-28" x="184.71" y="426.12" width=".75" height="1.33"/>
          </g>
          <rect class="cls-28" x="183.87" y="427.87" width="2.44" height=".83"/>
          <rect class="cls-28" x="185.84" y="429.33" width=".71" height="1.83"/>
          <rect class="cls-28" x="186.54" y="428.71" width="1.65" height=".83"/>
          <rect class="cls-28" x="187.62" y="427.87" width=".57" height=".83"/>
          <rect class="cls-28" x="188.41" y="428.71" width=".5" height="1.55"/>
          <rect class="cls-28" x="187.34" y="429.95" width="1.05" height=".61"/>
          <rect class="cls-28" x="187.91" y="430.11" width=".56" height="1.33"/>
          <rect class="cls-28" x="187.91" y="431.17" width="1.29" height=".53"/>
          <rect class="cls-28" x="186.19" y="431.17" width=".89" height=".53"/>
          <rect class="cls-28" x="185.09" y="431.17" width=".38" height=".53"/>
        </g>
      </g>
      <rect class="cls-25" x=".5" y=".5" width="266" height="455" rx="18" ry="18"/>
    </g>
  </g>
</svg>