<?xml version="1.0" encoding="UTF-8"?>
<svg id="_圖層_2" data-name="圖層 2" xmlns="http://www.w3.org/2000/svg" viewBox="0 0 273.66 456">
  <defs>
    <style>
      .cls-1 {
        font-family: SourceHanSansTC-Medium-B5pc-H, 'Source Han Sans TC';
        font-size: 16px;
        font-weight: 500;
        letter-spacing: .05em;
      }

      .cls-1, .cls-2, .cls-3, .cls-4, .cls-5, .cls-6, .cls-7, .cls-8, .cls-9, .cls-10, .cls-11 {
        fill: #fff;
      }

      .cls-2, .cls-12, .cls-13, .cls-14, .cls-3, .cls-4, .cls-5, .cls-6, .cls-15, .cls-7, .cls-16, .cls-17, .cls-18, .cls-9, .cls-11 {
        stroke-miterlimit: 10;
      }

      .cls-2, .cls-13, .cls-14, .cls-3, .cls-5, .cls-6, .cls-7, .cls-8, .cls-17, .cls-9, .cls-11 {
        stroke: gray;
      }

      .cls-2, .cls-13, .cls-14, .cls-5, .cls-17 {
        stroke-width: .42px;
      }

      .cls-2, .cls-14 {
        stroke-linecap: round;
      }

      .cls-12 {
        stroke: #606060;
        stroke-width: .4px;
      }

      .cls-12, .cls-13, .cls-14, .cls-15, .cls-16, .cls-18 {
        fill: none;
      }

      .cls-19 {
        isolation: isolate;
        opacity: .24;
      }

      .cls-19, .cls-20, .cls-21, .cls-22, .cls-23, .cls-24, .cls-25, .cls-10, .cls-26, .cls-27 {
        stroke-width: 0px;
      }

      .cls-3 {
        stroke-width: .22px;
      }

      .cls-28 {
        font-size: 3.31px;
      }

      .cls-28, .cls-29 {
        font-family: SourceHanSansTC-Regular-B5pc-H, 'Source Han Sans TC';
      }

      .cls-28, .cls-22 {
        fill: gray;
      }

      .cls-4, .cls-18 {
        stroke: #231815;
      }

      .cls-6 {
        stroke-width: .42px;
      }

      .cls-15 {
        stroke: #fff;
        stroke-width: .81px;
      }

      .cls-7 {
        stroke-width: .42px;
      }

      .cls-8 {
        stroke-miterlimit: 10;
        stroke-width: .42px;
      }

      .cls-16 {
        stroke: #9f9f9f;
        stroke-width: .84px;
      }

      .cls-17 {
        fill: #34afa9;
      }

      .cls-29 {
        fill: #b9b9b9;
        font-size: 7px;
      }

      .cls-9 {
        stroke-width: .38px;
      }

      .cls-21 {
        fill: #606060;
      }

      .cls-23 {
        fill: #197580;
      }

      .cls-24 {
        fill: #228181;
      }

      .cls-25 {
        fill: #155d60;
      }

      .cls-26 {
        fill: #efefef;
      }

      .cls-27 {
        fill: #fb0;
      }

      .cls-11 {
        stroke-width: .66px;
      }
    </style>
  </defs>
  <g id="_圖層_1-2" data-name="圖層 1">
    <g>
      <g>
        <rect class="cls-4" x=".5" y=".5" width="266" height="455" rx="18" ry="18"/>
        <line class="cls-16" x1=".89" y1="407.37" x2="266.68" y2="407.37"/>
        <path class="cls-24" d="m266.5,49.96v-31.46c0-9.9-8.1-18-18-18H18.5C8.6.5.5,8.6.5,18.5v31.46h266Z"/>
        <path class="cls-26" d="m266.5,407.51v29.99c0,9.9-8.1,18-18,18H18.5c-9.9,0-18-8.1-18-18v-29.99h266Z"/>
        <g>
          <path class="cls-15" d="m257.34,35.48c.29-.67.46-1.39.52-2.12.09-3.32-2.53-6.09-5.85-6.18-.11,0-.22,0-.33,0-3.41,0-6.18,2.78-6.17,6.19,0,1.63.65,3.2,1.8,4.35l-1.15,3.14c1.83-.04,3.66-.34,5.41-.87"/>
          <g>
            <circle class="cls-10" cx="248.58" cy="32.91" r=".5"/>
            <circle class="cls-10" cx="251.29" cy="32.91" r=".5"/>
            <circle class="cls-10" cx="253.99" cy="32.91" r=".5"/>
          </g>
          <path class="cls-15" d="m251.2,38.21c-.2-2.01,1.27-3.8,3.28-4,.07,0,.14-.01.21-.01,2.09.02,3.77,1.73,3.74,3.82-.01.98-.4,1.91-1.08,2.61l.69,1.9s-6.46.25-6.85-4.33Z"/>
          <path class="cls-10" d="m255.68,36.74c.18.16.28.4.26.64,0,.19-.05.38-.16.54l-.39.35c-.07.07-.13.14-.18.23-.05.09-.08.2-.08.3v.08h-.48v-.08c0-.15.02-.29.08-.43.14-.21.32-.4.52-.56l.08-.09c.08-.09.13-.21.13-.33,0-.14-.05-.27-.14-.37-.1-.1-.24-.15-.38-.14-.17-.01-.33.06-.44.19-.08.14-.12.3-.11.47h-.48c-.02-.29.09-.57.29-.78.21-.19.49-.3.78-.28.26-.01.51.07.71.24Zm-.56,2.52c.07.06.1.14.1.23,0,.18-.15.32-.33.33-.09,0-.18-.04-.24-.1-.06-.06-.1-.14-.1-.23,0-.09.03-.17.1-.23.06-.06.15-.09.24-.09.05-.01.11,0,.16.01l.06.08Z"/>
        </g>
        <rect class="cls-18" x=".5" y=".5" width="266" height="455" rx="18" ry="18"/>
        <path class="cls-5" d="m22.96,434.96c-.14,0-.25-.11-.25-.25h0v-4.82h-3.78v4.82c0,.14-.11.25-.25.25h-2.95c-.92,0-1.66-.75-1.67-1.67v-6.74h-.95c-.1,0-.2-.07-.24-.16-.03-.1-.01-.21.06-.28l7.69-7.47s.11-.07.18-.08c.06,0,.13.02.18.06l7.92,7.43c.08.07.1.18.06.28-.04.1-.13.16-.24.16h-.95v6.75c0,.92-.75,1.67-1.67,1.67h0l-3.15.04Z"/>
        <path class="cls-6" d="m67.78,429.22l-1.14,4.88c-.21.92.57,1.68,1.73,1.68h12.54c1.12.06,2.15-.62,2.52-1.68l1.15-4.89"/>
        <line class="cls-13" x1="69.26" y1="434.45" x2="81.58" y2="434.42"/>
        <rect class="cls-22" x="69.85" y="430.99" width="1.83" height="3.38" transform="translate(-1.43 .24) rotate(-.19)"/>
        <rect class="cls-22" x="72.27" y="431.8" width="1.83" height="2.61" transform="translate(-1.44 .25) rotate(-.19)"/>
        <rect class="cls-22" x="74.52" y="431.31" width="1.83" height="3.07" transform="translate(-1.43 .25) rotate(-.19)"/>
        <rect class="cls-22" x="76.88" y="429.68" width="1.83" height="4.69" transform="translate(-1.43 .26) rotate(-.19)"/>
        <rect class="cls-22" x="79.23" y="431.76" width="1.83" height="2.61" transform="translate(-1.44 .27) rotate(-.19)"/>
        <path class="cls-7" d="m84.56,428.97v-5.44c-.08-1.09-1.02-1.92-2.12-1.85h-12.61c-1.1-.06-2.04.77-2.11,1.87,0,0,0,0,0,0v5.5l16.84-.09Z"/>
        <path id="Path" class="cls-7" d="m74.67,419.09c-.2-.67-.9-1.05-1.56-.86-.41.12-.74.44-.86.86v1.2h2.41v-1.2Z"/>
        <path id="Path-2" class="cls-7" d="m79,420.75h0c-.96-.01-1.75.75-1.77,1.72,0,.01,0,.03,0,.04v.08h-1.94v-.1c.03-.64-.3-1.25-.86-1.58-.56-.33-1.26-.33-1.82,0-.56.33-.89.93-.87,1.58v5.13h3.53v-3.37h2.01v3.38h3.54v-5.13c.01-.47-.17-.93-.5-1.26-.34-.33-.79-.52-1.26-.52l-.06.04Z"/>
        <ellipse id="Oval" class="cls-8" cx="79.05" cy="419.12" rx="1.21" ry="1.2" transform="translate(-1.39 .26) rotate(-.19)"/>
        <circle class="cls-5" cx="244.98" cy="426.78" r="8.28"/>
        <circle class="cls-13" cx="244.77" cy="425.11" r="2.84"/>
        <path class="cls-5" d="m251,433.18l-.24-.25c-.09-.09-.24-.09-.33,0-.3.19-.63.34-.98.42-.12.01-.22.12-.2.25,0,0,0,.01,0,.02,0,.11,0,.23,0,.34h-.96v-.33c0-.18,0-.25-.21-.29-.34-.08-.67-.21-.97-.39-.1-.1-.26-.1-.35,0-.08.09-.15.16-.21.25l-.72-.72.25-.21c.09-.09.09-.24,0-.34h0c-.19-.3-.34-.64-.42-.99-.01-.12-.12-.22-.25-.2,0,0-.01,0-.02,0h-.34v-.97h.34c.13.02.25-.07.28-.2,0,0,0-.01,0-.02.08-.35.21-.68.4-.98.09-.09.09-.24,0-.33l-.25-.23.69-.71.24.25c.09.08.23.08.32,0,.3-.2.64-.34,1-.42.13-.02.22-.13.21-.26,0-.11,0-.23,0-.34h.97v.34c0,.16,0,.23.23.28.34.07.66.21.96.39.1.1.26.1.35,0l.21-.24.71.71-.24.21c-.09.08-.1.23-.02.32,0,0,.01.01.02.02.18.3.32.63.4.97.01.13.13.23.26.22,0,0,.01,0,.02,0h.34v.97h-.33c-.14-.02-.27.07-.29.21,0,0,0,0,0,0-.07.34-.2.67-.39.97-.1.1-.1.26,0,.35l.25.21-.73.71Zm-2.31-4.81c-1.04.04-1.85.91-1.81,1.94s.91,1.85,1.94,1.81c1.04-.04,1.85-.9,1.81-1.94-.03-1.03-.88-1.84-1.92-1.82,0,0-.02,0-.03,0h0Z"/>
        <path class="cls-5" d="m243.18,427.58c-1.94.96-3.4,2.68-4.05,4.74"/>
        <text class="cls-1" transform="translate(99.9 41.49)"><tspan x="0" y="0">健保櫃檯</tspan></text>
        <g>
          <g>
            <path class="cls-20" d="m229.37,14.26h-2.87v-.69l2.64-4.04h1.21v3.93h.84v.8h-.84v1.71h-.97v-1.71Zm0-.8v-1.63c0-.36.03-.94.04-1.3h-.04c-.16.32-.34.63-.53.96l-1.3,1.96h1.83Z"/>
            <path class="cls-20" d="m231.96,12.68c0-2.16,1.33-3.46,3.09-3.46.94,0,1.57.41,1.97.84l-.56.67c-.33-.33-.74-.59-1.38-.59-1.23,0-2.05.95-2.05,2.51s.73,2.54,2.1,2.54c.41,0,.81-.12,1.04-.32v-1.56h-1.31v-.86h2.26v2.87c-.44.44-1.19.77-2.1.77-1.76,0-3.06-1.24-3.06-3.41Z"/>
          </g>
          <g>
            <path class="cls-20" d="m11.28,15.12h1.45v-4.43h-1.19v-.66c.62-.11,1.06-.27,1.44-.5h.78v5.59h1.3v.86h-3.78v-.86Z"/>
            <path class="cls-20" d="m18.69,14.26h-2.87v-.69l2.64-4.04h1.21v3.93h.84v.8h-.84v1.71h-.97v-1.71Zm0-.8v-1.63c0-.36.03-.94.04-1.3h-.04c-.16.32-.34.63-.53.96l-1.3,1.96h1.83Z"/>
            <path class="cls-20" d="m21.41,11.83c0-.42.31-.74.69-.74s.69.32.69.74-.31.72-.69.72-.69-.31-.69-.72Zm0,3.54c0-.43.31-.74.69-.74s.69.31.69.74-.31.72-.69.72-.69-.3-.69-.72Z"/>
            <path class="cls-20" d="m23.84,15.37c1.84-1.81,2.96-2.96,2.96-3.97,0-.7-.38-1.17-1.13-1.17-.52,0-.95.33-1.3.74l-.59-.58c.57-.61,1.15-.99,2.02-.99,1.22,0,2,.77,2,1.95s-1.07,2.37-2.45,3.81c.33-.04.76-.06,1.08-.06h1.68v.88h-4.28v-.6Z"/>
            <path class="cls-20" d="m28.97,15.37c1.84-1.81,2.96-2.96,2.96-3.97,0-.7-.38-1.17-1.13-1.17-.52,0-.95.33-1.3.74l-.59-.58c.57-.61,1.15-.99,2.02-.99,1.22,0,2,.77,2,1.95s-1.07,2.37-2.45,3.81c.33-.04.76-.06,1.08-.06h1.68v.88h-4.28v-.6Z"/>
          </g>
          <g>
            <rect class="cls-25" x="221.07" y="8.91" width="1.1" height="7.11"/>
            <rect class="cls-20" x="219.08" y="10.3" width="1.1" height="5.72"/>
            <rect class="cls-20" x="217.1" y="11.63" width="1.1" height="4.39"/>
            <rect class="cls-20" x="215.11" y="13.08" width="1.1" height="2.94"/>
            <rect class="cls-20" x="213.12" y="14.35" width="1.1" height="1.67"/>
          </g>
          <g>
            <g>
              <rect class="cls-20" x="257.42" y="11.58" width="2" height="2" rx=".71" ry=".71"/>
              <rect class="cls-20" x="243.73" y="9.21" width="15" height="6.56" rx="1.43" ry="1.43"/>
            </g>
            <g>
              <path class="cls-23" d="m245.08,14.22h1.13v-3.45h-.92v-.51c.48-.09.83-.21,1.12-.39h.61v4.35h1.01v.66h-2.94v-.66Z"/>
              <path class="cls-23" d="m248.8,12.35c0-1.69.64-2.58,1.67-2.58s1.67.9,1.67,2.58-.64,2.62-1.67,2.62-1.67-.93-1.67-2.62Zm2.56,0c0-1.44-.37-1.95-.9-1.95s-.9.5-.9,1.95.37,1.98.9,1.98.9-.54.9-1.98Z"/>
              <path class="cls-23" d="m252.79,12.35c0-1.69.64-2.58,1.67-2.58s1.67.9,1.67,2.58-.64,2.62-1.67,2.62-1.67-.93-1.67-2.62Zm2.56,0c0-1.44-.37-1.95-.9-1.95s-.9.5-.9,1.95.37,1.98.9,1.98.9-.54.9-1.98Z"/>
            </g>
          </g>
        </g>
        <g>
          <text class="cls-29" transform="translate(13.73 446.02)"><tspan x="0" y="0">首頁</tspan></text>
          <text class="cls-29" transform="translate(61.85 446.02)"><tspan x="0" y="0">健康存摺</tspan></text>
          <text class="cls-29" transform="translate(117.05 446.02)"><tspan x="0" y="0">健保櫃檯</tspan></text>
          <text class="cls-29" transform="translate(171.37 446.02)"><tspan x="0" y="0">虛擬健保卡</tspan></text>
          <text class="cls-29" transform="translate(237.94 446.02)"><tspan x="0" y="0">我的</tspan></text>
        </g>
        <rect class="cls-9" x="179.71" y="420.54" width="18.96" height="14.81" rx=".91" ry=".91"/>
        <g>
          <circle class="cls-3" cx="193.13" cy="425.65" r="2.31"/>
          <path class="cls-3" d="m195.44,430.26c0-1.27-1.03-2.31-2.31-2.31s-2.31,1.03-2.31,2.31v1.66h4.61v-1.66Z"/>
        </g>
        <g>
          <path class="cls-11" d="m122.67,424.84v-1.18c0-.35.28-.63.63-.63h1.97c.36,0,.65.29.65.65v1.16"/>
          <polyline class="cls-17" points="121.9 435 121.65 435 121.61 424.88 138.54 424.82 138.56 434.95 138.34 434.95"/>
          <line class="cls-14" x1="119.88" y1="435.01" x2="140.34" y2="434.93"/>
          <circle class="cls-2" cx="129.91" cy="430.1" r="2.84"/>
          <rect class="cls-5" x="130.47" y="418.66" width="7.38" height="3.96" rx=".48" ry=".48"/>
          <line class="cls-13" x1="135.01" y1="422.61" x2="135.01" y2="424.73"/>
          <text class="cls-28" transform="translate(127.77 431.31) scale(1.83 1)"><tspan x="0" y="0">H</tspan></text>
        </g>
        <g>
          <g>
            <rect class="cls-12" x="182.12" y="425.05" width="2.15" height="2.15"/>
            <rect class="cls-21" x="182.95" y="425.88" width=".48" height=".48"/>
          </g>
          <g>
            <rect class="cls-12" x="182.12" y="429.55" width="2.15" height="2.15"/>
            <rect class="cls-21" x="182.95" y="430.38" width=".48" height=".48"/>
          </g>
          <g>
            <rect class="cls-12" x="186.54" y="425.05" width="2.15" height="2.15"/>
            <rect class="cls-21" x="187.38" y="425.88" width=".48" height=".48"/>
          </g>
          <rect class="cls-21" x="184.67" y="428.71" width=".83" height=".83"/>
          <rect class="cls-21" x="182.12" y="427.46" width=".83" height=".83"/>
          <rect class="cls-21" x="182.95" y="428.29" width=".83" height=".83"/>
          <g>
            <rect class="cls-21" x="185.46" y="426.71" width=".75" height=".75"/>
            <rect class="cls-21" x="184.71" y="426.12" width=".75" height="1.33"/>
          </g>
          <rect class="cls-21" x="183.87" y="427.87" width="2.44" height=".83"/>
          <rect class="cls-21" x="185.84" y="429.33" width=".71" height="1.83"/>
          <rect class="cls-21" x="186.54" y="428.71" width="1.65" height=".83"/>
          <rect class="cls-21" x="187.62" y="427.87" width=".57" height=".83"/>
          <rect class="cls-21" x="188.41" y="428.71" width=".5" height="1.55"/>
          <rect class="cls-21" x="187.34" y="429.95" width="1.05" height=".61"/>
          <rect class="cls-21" x="187.91" y="430.11" width=".56" height="1.33"/>
          <rect class="cls-21" x="187.91" y="431.17" width="1.29" height=".53"/>
          <rect class="cls-21" x="186.19" y="431.17" width=".89" height=".53"/>
          <rect class="cls-21" x="185.09" y="431.17" width=".38" height=".53"/>
        </g>
      </g>
      <path class="cls-24" d="m66.71,308.56h136.4c7.06,0,12.79,5.73,12.79,12.79h0c0,7.06-5.73,12.79-12.79,12.79H66.71c-7.06,0-12.79-5.73-12.79-12.79h0c0-7.06,5.73-12.79,12.79-12.79Z"/>
      <path class="cls-20" d="m28.61,256.04l-.88-1.06c1.35-1.19,2.43-2.66,3.17-4.3l1.34.3c-.37.79-.8,1.56-1.26,2.31v5.46h-1.34v-3.78c-.3.42-.63.76-1.02,1.07Zm2.08,3.68c-.3,1.33-.79,2.6-1.46,3.78l-1.16-.74c.59-1.01,1.01-2.11,1.26-3.25l1.36.21Zm2.28,4.12c-.98,0-1.48-.53-1.48-1.59v-2.94h1.39v2.66c0,.38.16.57.52.57h2.98c.22.01.43-.08.57-.25.24-.49.34-1.03.3-1.58l1.26.43c-.13,1.26-.33,2.09-.64,2.36-.37.25-.81.37-1.26.34h-3.63Zm2.52-12.88l-.47.93h5.7v.86c-.19.73-.43,1.44-.72,2.13l-1.26-.33c.23-.45.42-.93.57-1.41h-5.05c-.5.77-1.1,1.47-1.78,2.09l-.85-1.03c1.08-.99,1.94-2.2,2.52-3.54l1.32.3Zm-.59,4.54c-.48,1.05-1.12,2.01-1.88,2.88l-1.03-.73c.74-.79,1.34-1.69,1.8-2.66l1.11.52Zm1.58,5.53l-1.07.76c-.46-.77-.98-1.51-1.55-2.19l1.05-.66c.58.65,1.11,1.35,1.58,2.09h0Zm.56-7.32v5.13h-1.36v-5.15h1.36Zm3.71,4.11l-1.17.62c-.48-1.04-1.07-2.03-1.74-2.96l1.15-.5c.67.9,1.26,1.85,1.77,2.85h0Zm.64,4.45l-1.14.79c-.62-1.19-1.32-2.34-2.09-3.44l1.12-.69c.78,1.06,1.49,2.18,2.11,3.34h0Z"/>
      <path class="cls-20" d="m55.6,251.49v1.34h-1.83v9.57c0,1.05-.5,1.56-1.49,1.56h-2.43l-.33-1.32c.81,0,1.55.06,2.28.06.39,0,.59-.21.59-.64v-9.23h-9.81v-1.34h13.02Zm-5.54,8.83h-4.57v1.26h-1.26v-6.77h5.83v5.51Zm-1.26-1.26v-3.1h-3.25v3.1h3.25Z"/>
      <path class="cls-20" d="m57.63,259.78l-.87-1.12c1.61-1.32,2.97-2.94,4-4.76h-3.48v-1.35h4.14c.28-.65.52-1.31.72-1.99l1.43.16c-.19.63-.39,1.26-.62,1.83h7.09v1.35h-7.71c-.54,1.1-1.2,2.14-1.97,3.1v7.11h-1.36v-5.59c-.43.44-.89.86-1.36,1.25Zm7.01-2.45v-2.52h1.41v2.52h3.34v1.34h-3.34v3.56h3.97v1.35h-9.1v-1.35h3.71v-3.56h-3.23v-1.34h3.23Z"/>
      <path class="cls-20" d="m71.68,257.75l-.45-1.48c1.15-1.69,1.97-3.58,2.41-5.58l1.26.58c-.25.95-.58,1.88-.97,2.78v10.09h-1.34v-7.57c-.3.35-.59.77-.91,1.17Zm6.08-5.79v1.12c-.46.99-.99,1.94-1.58,2.86h1.63v.77c0,1.5-.28,2.99-.82,4.39.4.39.87.71,1.37.95,1.13.38,2.31.57,3.51.56h2.84l-.24,1.26h-1.74c-1.82.12-3.63-.17-5.32-.85-.37-.2-.71-.44-1.02-.73-.46.69-1.04,1.3-1.72,1.78l-.67-1.17c.61-.44,1.12-.99,1.51-1.63-.63-.95-1.1-2-1.39-3.1l1.12-.42c.17.78.46,1.52.87,2.21.29-.92.46-1.87.5-2.83h-2.07v-.98c.65-.9,1.22-1.86,1.7-2.86h-1.56v-1.26l3.07-.06Zm3.67,5.05v.88h2.69v1.07h-2.62v.82h3.08v1.12h-3.08v1.26h-1.26v-1.26h-2.42v-1.12h2.27v-.82h-1.8v-1.07h1.8v-.88h-1.64v-1.1h1.69v-.93h-2.32v-1.11h2.27v-.92h-1.64v-1.11h1.69v-1.02h1.26v1.02h2.45v2.03h.83v1.11h-.83v2.01l-2.41.03Zm0-3.12h1.26v-.92h-1.26v.92Zm0,2.02h1.26v-.93h-1.26v.93Z"/>
      <path class="cls-20" d="m90.16,251.19c-.32,1.04-.74,2.05-1.26,3.01v9.92h-1.39v-7.77c-.43.54-.87,1.07-1.35,1.58l-.45-1.46c1.45-1.72,2.53-3.71,3.17-5.87l1.29.59Zm2.88,8.94c-.81,1.18-1.81,2.22-2.95,3.08l-.83-1.08c1.09-.78,2.05-1.74,2.84-2.83l.95.83Zm4.76-8.83v4.81h-2.85v1.26h4.06v1.26h-4.06v5.36h-1.36v-5.24h-3.91v-1.26h3.91v-1.26h-2.81v-4.81l7.03-.13Zm-1.36,1.26h-4.3v2.18h4.3v-2.18Zm2.89,9.56l-.91,1c-.88-1.08-1.85-2.08-2.9-2.99l.85-.92c1.08.89,2.07,1.88,2.96,2.95v-.04Z"/>
      <path class="cls-20" d="m101.48,264.1l-1.05-.95c.63-1.53.93-3.18.88-4.83v-7.14h4.52v11.35c0,.98-.45,1.48-1.34,1.48h-1.16l-.34-1.26c.37.05.75.07,1.12.08.3,0,.47-.26.47-.77v-2.91h-2.06c-.04,1.7-.39,3.38-1.05,4.96Zm3.1-11.64h-2.03v2.14h2.03v-2.14Zm-2.03,5.5h2.03v-2.12h-2.03v2.12Zm5.55,6.13h-1.26v-12.9h6.09c.05,1.27-.03,2.54-.25,3.78-.18.61-.73.91-1.65.91h-1.26l-.37-1.16h.96c.23,0,.46-.02.68-.06.17-.07.3-.21.35-.38.12-.6.18-1.21.18-1.83h-3.48v4.09h4.89v1.16c-.19,1.28-.62,2.51-1.26,3.63.63.59,1.32,1.11,2.07,1.54l-.68,1.16c-.78-.46-1.5-1.01-2.16-1.64-.6.68-1.32,1.24-2.12,1.65l-.71-1.07-.03,1.12Zm0-1.15c.73-.4,1.38-.92,1.93-1.54-.84-1.07-1.43-2.31-1.74-3.63h-.2v5.17Zm2.67-2.61c.45-.79.79-1.64,1.01-2.52h-2.32c.28.91.73,1.77,1.31,2.52h0Z"/>
      <path class="cls-20" d="m117.8,253.91c.47-.44.89-.93,1.26-1.45h-3.78v-1.26h5.42v1.07c-.56.89-1.22,1.7-1.98,2.42.2.19.4.38.58.57l-.39.38h2.03v1.15c-.33.93-.75,1.82-1.26,2.66l-.83-.74c.32-.58.61-1.17.86-1.78h-1.03v5.75c0,.88-.43,1.34-1.26,1.34h-1.34l-.26-1.26c.39.06.78.09,1.17.09.28,0,.43-.18.43-.5v-4.97c-.5,1.63-1.22,3.19-2.16,4.62l-.52-1.26c.87-1.14,1.55-2.42,2.01-3.78h-1.7v-1.26h2.95c-.69-.7-1.44-1.33-2.25-1.9l.82-.81c.44.29.86.63,1.24.95Zm9.5,8.57c-.15.96-.86,1.45-2.14,1.45-.26,0-.71,0-1.26-.06l-.29-1.14h1.41c.55.07,1.04-.31,1.12-.86.11-.84.16-1.68.15-2.52h-1.9c-.12.72-.36,1.41-.71,2.06-.74,1.14-1.79,2.05-3.03,2.62l-.85-1.07c1.07-.46,2-1.19,2.69-2.13.26-.46.45-.96.57-1.48h-2.13v-1.26h2.3c0-.38.06-.77.1-1.17h1.26l-.09,1.17h2.98c.06,1.49,0,2.98-.18,4.45v-.06Zm-3.43-11.61c-.1.33-.21.64-.33.95h4.25v1.26h-.97c-.29.85-.75,1.63-1.35,2.3.81.41,1.65.74,2.52,1l-.88,1.06c-.95-.32-1.86-.74-2.71-1.26-.79.51-1.64.94-2.52,1.26l-.77-1c.78-.27,1.54-.6,2.27-1-.44-.37-.83-.79-1.16-1.26l1.01-.47c.34.4.74.74,1.17,1.03.48-.47.86-1.03,1.11-1.65h-2.62c-.45.69-1.01,1.32-1.65,1.84l-.77-1.01c1.01-.83,1.74-1.94,2.09-3.19l1.31.14Z"/>
      <path class="cls-20" d="m135.23,254.67h-3.41v9.28h-1.41v-10.61h4.96v-1.12h-1.65v-1.26h3.01v2.42h4.89v8.94c0,1.03-.5,1.55-1.49,1.55h-2.25l-.35-1.26h2.17c.34,0,.52-.2.52-.61v-7.33h-3.34c.47,2.02,1.64,3.8,3.29,5.05l-.93,1.26c-1.39-1.3-2.48-2.9-3.19-4.67-.74,1.82-1.85,3.46-3.27,4.82l-.92-1.26c1.69-1.3,2.88-3.14,3.37-5.21Z"/>
      <path class="cls-20" d="m144.35,263.94l-.29-1.32c.3.06.6.09.91.09.33,0,.5-.15.5-.48v-3.14c-.45.18-.91.34-1.36.48l-.33-1.37c.57-.13,1.14-.29,1.69-.48v-3.03h-1.5v-1.26h1.5v-2.61h1.36v2.61h1.37v1.26h-1.37v2.52c.43-.2.85-.4,1.26-.62v1.36l-1.26.62v3.97c.07.69-.44,1.31-1.14,1.38-.08,0-.17,0-.25,0l-1.1.03Zm6.65-2.37c-.76.9-1.66,1.67-2.66,2.28l-.78-1.01c.95-.55,1.8-1.24,2.52-2.06l.92.78Zm.79-2.52v-.73h1.32v.73h3.68v1.26h-3.68v3.78h-1.32v-3.78h-3.68v-1.26h3.68Zm.3-4.01v3.01h-3.65v-3.08l3.65.06Zm-1.11.96h-1.45v1.1h1.44v-1.1Zm4.35-4.81v3.15h-5.76v-3.15h5.76Zm-1.26,1.06h-3.28v1.03h3.28v-1.03Zm2.45,2.72v3.01h-3.71v-3.01h3.71Zm.68,7.88l-.86.95c-.77-.82-1.61-1.56-2.52-2.21l.78-.88c.93.64,1.8,1.37,2.6,2.18v-.04Zm-1.8-6.93h-1.48v1.1h1.48v-1.1Z"/>
      <path class="cls-20" d="m158.61,257.82l-.47-1.48c1.49-1.65,2.62-3.61,3.31-5.73l1.26.61c-.37,1.09-.86,2.14-1.44,3.14v9.74h-1.39v-7.75c-.37.49-.82.98-1.27,1.46Zm4.01-.24l-.98-1.2c1.38-1.72,2.42-3.69,3.07-5.8l1.4.3c-.2.61-.43,1.19-.64,1.74h5.97v1.35h-4.64v2.07h4.06v1.34h-4.06v2.12h4.1v1.32h-4.1v3.28h-1.4v-10.09h-.53c-.61,1.27-1.36,2.47-2.23,3.57h0Z"/>
      <path class="cls-20" d="m185.92,251.36v1.35h-6.18v1.89c1.77.84,3.57,1.82,5.4,2.94l-.83,1.26c-1.83-1.19-3.34-2.09-4.57-2.72v8h-1.37v-11.35h-5.42v-1.35h12.98Z"/>
      <path class="cls-20" d="m194.79,251.19v1.34h-3.66c-.09.56-.2,1.12-.34,1.67h3.36v1.26c-.35,3.68-2.58,6.91-5.9,8.53l-.67-1.26c1.52-.72,2.8-1.84,3.72-3.24-.72-.56-1.5-1.06-2.31-1.49-.32.38-.65.74-1.01,1.08l-.67-1.26c1.41-1.41,2.3-3.26,2.52-5.24h-2.11v-1.39h7.06Zm-2.85,7.13c.42-.9.73-1.85.91-2.83h-2.52c-.19.49-.41.96-.67,1.41.8.41,1.56.89,2.28,1.43h0Zm5.05-6.43v9.11h-1.34v-9.11h1.34Zm-.48,12.05l-.32-1.32c.58.06,1.17.09,1.75.09.4.04.76-.26.8-.66,0-.06,0-.12,0-.17v-11.08h1.44v11.35c0,1.16-.57,1.74-1.67,1.74l-2.01.05Z"/>
      <path class="cls-20" d="m201.86,253.52v-1.32h5.32v1.32h-1.97v6.24c.72-.21,1.44-.44,2.14-.71v1.37c-1.74.62-3.52,1.12-5.32,1.5l-.34-1.39c.72-.11,1.43-.26,2.14-.42v-6.61h-1.98Zm9.18-2.79v2.81h3.63c0,4.73-.07,7.66-.21,8.77-.19,1.1-1.03,1.64-2.52,1.64-.26,0-.72,0-1.37-.08l-.33-1.26c.58.05,1.07.08,1.48.08.83,0,1.26-.34,1.45-.98s.13-2.94.15-6.8h-2.28c-.06,4.21-1.19,7.29-3.39,9.27l-1.14-1.01c2.06-1.7,3.1-4.47,3.13-8.26h-2.18v-1.34h2.18v-2.81l1.41-.03Z"/>
      <path class="cls-20" d="m217.25,264.1l-1.05-.95c.62-1.13.92-2.4.88-3.68v-3.7h5.63v7.15c0,.72-.43,1.08-1.26,1.08h-1.26l-.35-1.26h1.26c.17.03.33-.09.36-.26,0-.03,0-.05,0-.08v-1.36c-.9.2-1.82.38-2.78.52l-.28-1.08c-.09,1.28-.48,2.53-1.16,3.62Zm6.41-9.39l-1.1.77-.48-.88c-1.51.23-3.33.4-5.44.54l-.38-1.16c.23-.07.44-.19.62-.34.8-.89,1.49-1.89,2.03-2.96l1.32.39c-.53,1.05-1.22,2-2.04,2.84,1.02-.06,2.11-.16,3.27-.3-.25-.39-.52-.79-.81-1.26l1.06-.68c.71.97,1.36,1.99,1.94,3.05Zm-3.04,4.65c-.5-.11-1-.2-1.5-.29l-.69-.11v.4c0,.36-.02.72-.06,1.07,1.02-.09,2.04-.24,3.04-.44v-3.04h-2.98v.97c.54,0,.96.13,1.26.18s.79.13,1.35.25l-.42,1.01Zm4.68,4.48c-1,0-1.49-.44-1.49-1.34v-4.88h1.36v1.36l3.78-.25v1.26l-3.78.25v1.97c0,.26.16.39.49.39h1.79c.19.02.37-.06.49-.2.18-.47.26-.97.24-1.48l1.26.4c.02.77-.17,1.52-.57,2.18-.34.25-.76.36-1.17.33h-2.41Zm-.1-12.94v1.54l3.63-.26v1.26l-3.63.28v1.68c0,.33.15.48.49.48h3.49v1.26h-3.78c-.98,0-1.45-.47-1.45-1.39v-4.84h1.25Z"/>
      <path class="cls-20" d="m238.14,253.89c.21.2.32.48.32.77,0,.28-.11.55-.32.74-.2.2-.48.32-.77.33-.29,0-.57-.12-.77-.33-.2-.2-.31-.47-.3-.74-.01-.29.1-.57.3-.77.19-.22.48-.34.77-.33.29,0,.57.11.77.33Zm0,5.3c.42.42.42,1.1,0,1.53-.21.2-.48.31-.77.32-.29,0-.57-.11-.77-.32-.41-.43-.41-1.1,0-1.53.2-.21.48-.32.77-.32.29,0,.57.11.77.32h0Z"/>
      <path class="cls-20" d="m28.5,276.57v2.17h2.16c0,3.14,0,5.05-.15,5.84,0,.76-.63,1.37-1.39,1.36-.04,0-.09,0-.13,0h-.78l-.14-.52h.86c.61,0,.96-.35,1.05-1.03s.11-2.28.14-5.05h-1.6c0,3.08-.69,5.33-2.06,6.76l-.43-.39c1.26-1.33,1.9-3.45,1.92-6.37h-1.73v-.56h1.73v-2.17l.57-.04Zm6.53,9.31h-.57v-.72h-2.19v.72h-.54v-7.72h3.31v7.72Zm-.57-1.26v-5.93h-2.19v5.93h2.19Z"/>
      <path class="cls-20" d="m39.32,276.74c-.25.77-.57,1.52-.96,2.23v7.09h-.57v-6.14c-.37.56-.8,1.08-1.26,1.56l-.18-.59c1.11-1.28,1.94-2.78,2.43-4.4l.53.25Zm2.18,6.31c-.61.89-1.37,1.67-2.23,2.32l-.35-.45c.85-.61,1.59-1.36,2.19-2.22l.39.35Zm3.37-6.07v3.22h-2.13v1.26h3.05v.56h-3.05v4h-.57v-4h-2.95v-.56h2.95v-1.26h-2.12v-3.15l4.82-.06Zm-.57.54h-3.68v2.07h3.68v-2.07Zm1.72,7.38l-.38.42c-.68-.83-1.42-1.6-2.23-2.3l.34-.3c.82.68,1.58,1.42,2.27,2.23v-.05Z"/>
      <path class="cls-20" d="m48.24,284.24c.12.19.17.42.16.64,0,.39-.12.77-.37,1.07-.24.29-.57.5-.95.59v-.42c.25-.07.47-.23.62-.44.15-.19.22-.42.21-.66-.07.01-.14.01-.21,0-.28-.02-.51-.25-.53-.53-.01-.15.05-.3.16-.4.11-.1.26-.15.4-.14.2,0,.39.1.49.28Z"/>
      <path class="cls-20" d="m50.39,283.47c-.04.81-.16,1.61-.37,2.4l-.48-.14c.23-.75.36-1.53.39-2.31l.45.05Zm2.26-.79l-.45.11c0-.19-.06-.37-.09-.52-.71.22-1.43.38-2.16.49l-.15-.49c.1-.03.18-.08.25-.15.47-.64.86-1.33,1.17-2.06l-1.41.24-.14-.49c.09-.05.18-.12.24-.2.45-1.01.82-2.06,1.08-3.13l.52.2c-.32,1.06-.74,2.09-1.26,3.08.39,0,.79-.1,1.2-.18.19-.42.37-.88.58-1.36l.47.18c-.53,1.32-1.2,2.59-1.98,3.78.5-.09,1-.21,1.49-.35-.08-.35-.18-.68-.25-1l.42-.14c.2.67.36,1.34.48,2.03v-.05Zm-.92,2.72l-.45.09c-.09-.7-.23-1.39-.39-2.08l.42-.11c.16.69.3,1.36.43,2.11h0Zm1.07-.76l-.39.19c-.15-.56-.34-1.12-.57-1.65l.39-.14c.22.52.41,1.06.57,1.6Zm1.16-7.18c.1-.32.19-.64.25-.97l.49.08c-.05.31-.13.61-.25.9h1.19v3.14h-1.2l.3,1.03h1.2v.49h-1.73c-.05.35-.1.68-.15.98h1.58c.05.79-.01,1.58-.19,2.35-.14.27-.42.43-.72.43h-.81l-.14-.45h.81c.21-.01.39-.15.45-.35,0-.21.06-.72.09-1.49h-1.17c-.08.28-.15.53-.23.74-.25.59-.62,1.13-1.08,1.58l-.33-.4c.41-.39.73-.87.95-1.39.22-.65.37-1.31.44-1.99h-.93v-.49h1.45l-.29-1.03h-.91v-3.14h.93Zm1.2,1.37v-.95h-1.65v.95h1.65Zm0,.42h-1.65v.95h1.6l.05-.95Zm2.19,3.39c.32-1.18.49-2.41.49-3.63h-1.03c-.21.78-.53,1.53-.93,2.23l-.29-.35c.67-1.36,1.07-2.83,1.19-4.34l.49.09c-.08.67-.2,1.26-.32,1.85h1.94v.52h-.56c0,1.47-.23,2.92-.69,4.31.38.81.87,1.56,1.46,2.23l-.35.4c-.54-.62-.99-1.3-1.36-2.03-.34.75-.82,1.43-1.4,2.02l-.29-.47c.62-.61,1.1-1.34,1.41-2.16-.36-.84-.64-1.72-.83-2.61l.39-.23c.16.74.39,1.46.68,2.16h0Z"/>
      <path class="cls-20" d="m62.81,276.74c-.25.77-.57,1.52-.96,2.23v7.09h-.57v-6.14c-.38.55-.8,1.08-1.26,1.56l-.19-.59c1.12-1.28,1.95-2.78,2.43-4.4l.54.25Zm2.19,6.31c-.62.89-1.38,1.67-2.25,2.32l-.35-.45c.85-.61,1.6-1.36,2.19-2.22l.4.35Zm3.36-6.07v3.22h-2.13v1.26h3.07v.56h-3.07v4h-.56v-4h-3v-.56h2.96v-1.26h-2.08v-3.15l4.81-.06Zm-.56.54h-3.68v2.07h3.68v-2.07Zm1.7,7.38l-.38.42c-.67-.83-1.41-1.6-2.22-2.3l.35-.39c.82.71,1.57,1.48,2.25,2.32v-.05Z"/>
      <path class="cls-20" d="m74.03,285.12c-1.09.46-2.24.78-3.42.93l-.24-.43c1.16-.14,2.3-.43,3.39-.86l.26.35Zm2.4-5.8h2.8c.05.41-.03.82-.23,1.17-.28.22-.63.33-.98.29h-.57l-.1-.37h.61c.23.02.47-.03.67-.15.09-.16.14-.34.13-.53h-2.32v1.08h-.53v-1.08h-1.87c-.15.26-.35.48-.59.66-.78.43-1.64.71-2.52.81l-.25-.39c.83-.09,1.63-.33,2.37-.71.14-.11.27-.23.39-.37h-2.31l.33-1.53h2.26v-.69h-2.52v-.45h2.52v-.5h.53v.5h1.69v-.5h.53v.5h2.4v1.55h-2.4l-.03.71Zm-4.76,0h1.93c.04-.13.07-.27.08-.42v-.29h-1.83l-.18.71Zm6.76,1.77v3.54h-6.69v-3.54h6.69Zm-.53,1.06v-.68h-5.61v.64l5.61.04Zm0,1.01v-.62h-5.61v.62h5.61Zm0,.39h-5.61v.64h5.61v-.64Zm-3.65-4.6c.01.14.01.28,0,.42h1.74v-.71h-1.69l-.05.29Zm0-.69h1.69v-.69h-1.69v.69Zm5.51,7.43l-.16.44c-1.19-.42-2.41-.73-3.66-.95l.2-.37c1.23.18,2.44.46,3.62.83v.04Zm-3.29-7.43h1.92v-.69h-1.92v.69Z"/>
      <path class="cls-20" d="m81.6,277.58v-.54h6.31v.3c-.16.87-.42,1.71-.76,2.52h2.02v.5c-.37,1.37-1.12,2.61-2.16,3.57.92.66,1.93,1.19,3,1.56l-.37.5c-1.1-.41-2.14-.98-3.08-1.69-.95.75-2.02,1.33-3.17,1.73l-.3-.53c1.08-.36,2.1-.9,3-1.59-1.07-.92-1.83-2.16-2.16-3.53h-.26c-.11,2.08-.97,4.06-2.41,5.56l-.43-.38c1.54-1.44,2.33-3.78,2.36-6.9v-1.15l-1.6.05Zm4.94,2.33c.3-.75.53-1.54.68-2.33h-3.47v2.33h2.79Zm2.01.53h-4.13c.34,1.25,1.07,2.36,2.09,3.17.95-.86,1.65-1.95,2.03-3.17h0Z"/>
      <path class="cls-20" d="m92.58,279.43v-2.85h.57v2.85h1.26v.56h-1.26v3.66c.49-.19.98-.38,1.46-.61v.58c-1.07.48-2.18.86-3.32,1.14l-.15-.57c.5-.1.98-.23,1.44-.37v-3.78h-1.26v-.56l1.26-.05Zm5.41-2.89v2.52l2.21-.66c-.04,1.33-.19,2.66-.44,3.96l-.53-.16c.21-1.02.35-2.06.43-3.1l-1.67.5v4.18h-.54v-4.01l-1.51.47v4.5c0,.38.16.57.49.57h2.83c.21.02.41-.06.56-.21.2-.54.29-1.11.28-1.69l.53.16c.03.68-.11,1.36-.4,1.97-.23.22-.53.33-.85.3h-3.04c-.59,0-.88-.33-.88-.98v-4.45l-.82.25v-.56l.82-.24v-2.27h.56v2.09l1.51-.45v-2.69h.48Z"/>
      <path class="cls-20" d="m105.02,283.75c-1.11.4-2.26.72-3.42.96l-.15-.58c.52-.1,1.02-.2,1.5-.33v-3.96h-1.39v-.56h1.39v-2.7h.56v2.7h1.36v.56h-1.36v3.78c.53-.15,1.02-.32,1.51-.49v.62Zm3.66-7.23v3.39h2.07v.56h-2.07v4.57h2.36v.56h-6.52v-.56h1.26v-6.31h.57v6.31h1.74v-8.51h.59Z"/>
      <path class="cls-20" d="m112.99,280.67c-.06.49-.18.98-.35,1.44l-.42-.14c.17-.45.3-.91.37-1.39l.4.09Zm2.21-.43l-.42.11c0-.16-.09-.3-.13-.45-.75.16-1.52.27-2.28.34l-.13-.4c.08-.03.15-.08.21-.14.48-.36.9-.78,1.26-1.26l-1.32.15-.11-.4c.07-.04.14-.1.19-.16.42-.43.78-.9,1.07-1.43l.44.18c-.32.52-.7.99-1.14,1.41.39,0,.79-.08,1.19-.14l.5-.66.43.15c-.59.82-1.27,1.57-2.02,2.25.53-.08,1.06-.16,1.58-.28-.09-.23-.16-.44-.26-.64l.4-.13c.21.47.39.96.53,1.46v.04Zm1.73,4.45c.79-.35,1.49-.89,2.03-1.56h-4.57c-.47.53-1.05.96-1.69,1.26l-.34-.39c.95-.43,1.72-1.18,2.16-2.13l.54.1c-.09.21-.2.42-.32.62h5.82v.49h-1.07c-.48.74-1.14,1.35-1.92,1.77,1.21.32,2.44.54,3.68.66l-.19.49c-1.4-.13-2.78-.41-4.13-.82-1.41.55-2.91.81-4.42.78l-.18-.5c1.31.03,2.61-.16,3.86-.54-.7-.25-1.35-.66-1.88-1.19l.47-.24c.6.56,1.33.98,2.12,1.21h.01Zm-2.91-2.79h-.43c0-.42-.05-.84-.11-1.26h.39c.09.42.14.84.15,1.26Zm1.14-.35l-.38.15c-.1-.38-.22-.76-.37-1.12l.38-.1c.14.35.26.71.37,1.07h0Zm1.34-4.23c-.09-.26-.19-.5-.29-.73l.53-.08c.11.26.21.53.29.81h1.16v.43h-2.85v-.43h1.16Zm1.45,2.84v1.67h-2.41v-1.63l2.41-.04Zm0-1.83v.37h-2.32v-.37h2.32Zm0,.92v.37h-2.32v-.37h2.32Zm-.39,1.26h-1.51v.95h1.51v-.95Zm3.78-.32l-.4.1c0-.14-.08-.25-.1-.37-.81.1-1.59.18-2.32.21l-.11-.4c.07-.03.13-.07.19-.13.46-.32.89-.7,1.26-1.12-.47,0-.92,0-1.36.11l-.1-.42c.08-.04.14-.09.19-.16.44-.43.82-.92,1.12-1.45l.45.18c-.34.53-.74,1.01-1.2,1.44.42,0,.82,0,1.26-.1l.53-.67.42.15c-.59.79-1.26,1.51-2.01,2.16.54,0,1.08-.1,1.63-.19-.08-.25-.18-.5-.3-.73l.4-.14c.17.5.31,1.01.42,1.53h.04Zm-2.21.38c-.06.47-.17.93-.33,1.37l-.42-.15c.16-.41.28-.83.34-1.26l.4.04Zm1.03,1.32h-.43c0-.46-.05-.92-.14-1.37h.39c.09.46.13.92.14,1.39h.04Zm1.26-.16l-.39.15c-.13-.43-.29-.85-.47-1.26l.39-.11c.16.4.29.81.39,1.24h.08Z"/>
      <path class="cls-20" d="m131.55,277v.54h-4.13v1.03h3.25v4.01h-3.37c-.08.64-.31,1.25-.67,1.78,1.68.7,3.47,1.07,5.29,1.11l-.15.54c-1.9-.05-3.77-.48-5.5-1.26-1.05.76-2.3,1.2-3.6,1.26l-.25-.52c1.18-.02,2.32-.37,3.32-1-.65-.35-1.25-.78-1.8-1.26l.45-.32c.53.46,1.12.85,1.74,1.16.32-.46.52-.99.61-1.54h-3.12v-4.01h3.23v-1.03h-4.13v-.54l8.82.04Zm-4.69,3.32v-1.26h-2.67v1.26h2.67Zm0,.95v-.45h-2.67v1.26h2.62c.03-.26.05-.53.05-.81Zm3.27-.45h-2.7v1.27h2.74l-.04-1.27Zm-2.7-.49h2.7v-1.26h-2.7v1.26Z"/>
      <path class="cls-20" d="m134.16,284.24c.12.19.17.42.16.64.01.39-.11.77-.35,1.07-.25.3-.58.51-.96.59v-.42c.25-.07.48-.23.63-.44.14-.19.21-.42.2-.66-.07.01-.13.01-.2,0-.14,0-.28-.06-.38-.16-.1-.1-.15-.23-.15-.37,0-.15.05-.3.15-.4.11-.1.26-.15.4-.14.2,0,.39.1.49.28Z"/>
      <path class="cls-20" d="m140.52,276.56v1.64h3.32v5.71h-.56v-.69h-2.76v2.8h-.56v-2.8h-2.8v.77h-.56v-5.79h3.36v-1.64h.56Zm-.56,3.87v-1.7h-2.8v1.7h2.8Zm0,2.25v-1.73h-2.8v1.78l2.8-.05Zm3.32-2.25v-1.7h-2.76v1.7h2.76Zm0,2.25v-1.73h-2.76v1.78l2.76-.05Z"/>
      <path class="cls-20" d="m149.3,278.01v.52h-3.37v-.52h3.37Zm-.33,7.33h-2.12v.54h-.53v-3.42h2.65v2.88Zm0-5.87v.49h-2.52v-.49h2.52Zm0,1.45v.5h-2.52v-.5h2.52Zm-.48,3.91v-1.88h-1.6v1.88h1.6Zm-.42-7.09l-.49.18c-.16-.44-.34-.86-.57-1.26l.54-.14c.19.4.35.8.48,1.22h.04Zm4.65-1.26v.73h2.43v.47h-2.43v.86h2.03v.47h-2.09v.88h2.71v.48h-6.03v-.48h2.75v-.88h-2.11v-.47h2.11v-.86h-2.52v-.47h2.52v-.73h.63Zm-2.85,9.52l-.42-.38c.56-.69.86-1.56.85-2.45v-2.07h4.3v4.15c0,.45-.26.68-.79.68h-1.26l-.14-.5h1.26c.19.03.37-.1.4-.29,0-.04,0-.07,0-.11v-.82h-3.36c-.12.68-.43,1.32-.88,1.84l.04-.05Zm.96-2.86c.01.22.01.44,0,.66h3.28v-.87h-3.23l-.05.21Zm3.23-1.56h-3.23v.9h3.23v-.9Z"/>
      <path class="cls-20" d="m156.41,281.36l-.19-.59c.88-1.28,1.51-2.71,1.87-4.23l.5.24c-.18.73-.43,1.44-.74,2.13v7.13h-.57v-6.06c-.26.48-.55.94-.87,1.37Zm4.28-3.78v.48c-.36.83-.78,1.63-1.26,2.4h1.35v.32c0,1.12-.22,2.23-.64,3.27.32.38.72.69,1.17.9.85.3,1.76.43,2.66.4h1.88l-.11.54h-1.4c-1.22.1-2.44-.11-3.56-.59-.34-.19-.65-.44-.91-.73-.32.56-.75,1.06-1.26,1.45l-.29-.49c.52-.36.95-.83,1.26-1.39-.47-.71-.82-1.5-1.03-2.32l.48-.18c.15.7.42,1.36.81,1.97.32-.84.5-1.73.52-2.64h-1.51v-.4c.52-.77.97-1.57,1.36-2.41h-1.39v-.54l1.88-.03Zm2.65,3.23v.95h1.97v.45h-1.97v.92h2.3v.48h-2.3v1.16h-.54v-1.16h-1.84v-.48h1.84v-.92h-1.51v-.45h1.51v-.95h-1.41v-.47h1.41v-.98h-1.84v-.42h1.84v-.98h-1.41v-.47h1.41v-.85h.54v.85h1.72v1.45h.73v.47h-.73v1.45l-1.72-.05Zm0-1.92h1.2v-.98h-1.2v.98Zm0,1.45h1.2v-.98h-1.2v.98Z"/>
      <path class="cls-20" d="m169.56,276.74c-.25.76-.56,1.49-.92,2.19v7.09h-.58v-6.14c-.37.56-.79,1.08-1.26,1.56l-.19-.59c1.12-1.28,1.95-2.78,2.45-4.4l.5.29Zm2.18,6.31c-.61.89-1.37,1.68-2.25,2.32l-.35-.45c.86-.61,1.6-1.36,2.21-2.22l.39.35Zm3.37-6.07v3.22h-2.14v1.26h3.07v.56h-3.07v4h-.54v-4h-2.96v-.56h2.96v-1.26h-2.12v-3.15l4.81-.06Zm-.57.54h-3.68v2.07h3.68v-2.07Zm1.7,7.38l-.37.42c-.68-.83-1.42-1.6-2.23-2.3l.35-.39c.81.7,1.54,1.48,2.21,2.32l.04-.05Z"/>
      <path class="cls-20" d="m181.62,276.57v1.39h3.42v.54h-3.47v1.7h4.82v.54h-4.82v1.14c1.26.58,2.52,1.26,3.78,2.03l-.32.48c-1.37-.85-2.52-1.5-3.47-1.96v3.56h-.57v-5.25h-3.78v-.54h3.78v-3.67l.62.04Z"/>
      <path class="cls-20" d="m188.33,277.58v-.54h6.24v.3c-.16.87-.42,1.71-.76,2.52h2.08v.5c-.38,1.37-1.13,2.6-2.17,3.57.92.66,1.93,1.19,3,1.56l-.35.5c-1.11-.41-2.15-.98-3.09-1.69-.95.75-2.02,1.33-3.17,1.73l-.3-.53c1.08-.36,2.1-.9,3-1.59-1.07-.92-1.83-2.16-2.16-3.53h-.26c-.11,2.08-.97,4.06-2.41,5.56l-.43-.38c1.54-1.44,2.33-3.74,2.37-6.9v-1.15l-1.6.05Zm4.94,2.33c.3-.75.53-1.54.68-2.33h-3.47v2.33h2.79Zm2.01.53h-4.12c.34,1.25,1.07,2.36,2.09,3.17.95-.85,1.65-1.95,2.03-3.17h0Z"/>
      <path class="cls-20" d="m198.24,285.92l-.13-.54h.81c.25,0,.47-.18.47-.49v-2.78c-.45.19-.92.37-1.39.53l-.15-.57c.52-.15,1.04-.33,1.54-.53v-2.52h-1.32v-.56h1.32v-1.96h.57v1.96h1.26v.56h-1.26v2.28c.42-.21.82-.43,1.26-.66v.56c-.39.24-.79.45-1.26.66v3.17c.06.41-.22.78-.63.84-.07,0-.14.01-.2,0l-.88.05Zm8.25-4.86v.53c-.33,1-.91,1.9-1.69,2.61.83.58,1.73,1.04,2.69,1.37l-.3.48c-.99-.38-1.92-.89-2.78-1.51-.91.69-1.94,1.21-3.04,1.53l-.3-.47c1.04-.31,2.02-.79,2.9-1.43-.78-.67-1.37-1.54-1.69-2.52h-.68v-.56l4.89-.04Zm-.71-4.05v2.3c0,.26.15.39.44.39h.93v.5h-1.05c-.59,0-.88-.29-.88-.83v-1.82h-2.19v.69c-.01.95-.57,1.82-1.43,2.23l-.39-.43c.74-.26,1.24-.96,1.26-1.74v-1.26l3.31-.04Zm-1.43,6.84c.69-.61,1.23-1.38,1.58-2.23h-3.14c.31.87.85,1.65,1.56,2.23Z"/>
      <path class="cls-20" d="m211.17,276.74c-.24.76-.54,1.49-.91,2.19v7.09h-.57v-6.14c-.38.55-.8,1.08-1.26,1.56l-.19-.59c1.11-1.28,1.94-2.78,2.43-4.4l.49.29Zm2.18,6.31c-.61.89-1.37,1.67-2.23,2.32l-.35-.45c.85-.61,1.59-1.36,2.19-2.22l.39.35Zm3.37-6.07v3.22h-2.13v1.26h3.05v.56h-3.05v4h-.54v-4h-2.95v-.56h2.95v-1.26h-2.11v-3.15l4.78-.06Zm-.57.54h-3.68v2.07h3.68v-2.07Zm1.72,7.38l-.38.42c-.67-.83-1.42-1.6-2.23-2.3l.37-.39c.8.71,1.54,1.48,2.21,2.32l.04-.05Z"/>
      <path class="cls-20" d="m222.14,277.97v.54h-3.33v-.54h3.33Zm-2.52,8.04h-.52v-3.53h2.78v3.41h-.54v-.5h-1.68l-.04.63Zm2.16-6.53v.5h-2.67v-.5h2.67Zm0,1.44v.56h-2.67v-.53l2.67-.03Zm-.48,2.09h-1.68v1.83h1.68v-1.83Zm-.5-5.29l-.49.18c-.13-.43-.3-.86-.5-1.26l.54-.15c.18.39.33.79.45,1.2v.04Zm4.15-.73v.4c-.37,1.44-1.27,2.68-2.52,3.47l-.33-.42c.52-.31.99-.71,1.37-1.19-.33-.33-.68-.62-1.05-.9l.35-.33c.35.26.68.53,1,.83.29-.42.52-.89.68-1.37h-1.75v-.5h2.25Zm-.95,8.26c-.17-.4-.39-.79-.66-1.14l.49-.19c.3.4.54.85.72,1.32h1.36c.25-.44.47-.89.66-1.36l.52.19c-.17.41-.37.8-.62,1.17h1.64v.5h-5.73v-.5h1.61Zm3.34-4.06v2.37h-4.31v-2.37h4.31Zm-.53.48h-3.25v1.4h3.25v-1.4Zm-.19-2.02v.56h-2.69v-.52l2.69-.04Zm-.44-2.06c.35-.29.66-.63.92-1l.39.33c-.32.42-.7.79-1.12,1.1.14.28.3.56.47.82.39-.32.73-.69,1.01-1.11l.38.34c-.31.44-.69.83-1.11,1.16.34.43.72.83,1.15,1.17l-.35.39c-1.22-1.03-2.1-2.4-2.52-3.94l.42-.24c.1.33.23.66.38.97h0Z"/>
      <path class="cls-20" d="m232.59,284.22h-2.38v.86h-.56v-7.87h2.94v7.01Zm-.56-3.78v-2.64h-1.83v2.64h1.83Zm0,3.28v-2.72h-1.83v2.72h1.83Zm1.15,2.4l-.44-.4c.75-1.16,1.13-2.52,1.1-3.9v-4.89h4.18v8.16c.05.42-.25.81-.67.86-.06,0-.13,0-.19,0h-1.39l-.15-.54h1.35c.32,0,.47-.18.47-.53v-2.36h-3.01c-.08,1.28-.51,2.51-1.24,3.56v.05Zm1.26-4.34v.26h2.99v-1.97h-2.98v1.7Zm2.98-4.25h-2.98v2.02h2.98v-2.02Z"/>
      <path class="cls-10" d="m85.54,321.54c-.09-.18-.2-.35-.3-.52l.74-.24c.14.24.25.48.38.76h3.46v.74h-.96l.5.44c-.38.36-.8.68-1.26.93.62.34,1.27.61,1.96.78l-.44.64c-1.41-.35-2.66-1.15-3.57-2.28l.59-.34c.23.28.5.54.79.76.46-.26.88-.57,1.26-.93h-2.9c-.34.34-.73.63-1.14.88v1.11c.58-.15,1.15-.33,1.72-.54l.14.76c-.74.2-1.63.42-2.65.62l-.18-.68c.13-.03.21-.15.21-.28v-.57c-.53.24-1.07.45-1.63.63l-.43-.71c1.07-.23,2.08-.66,2.99-1.26h-2.7v-.74l3.41.04Zm-2.09-4.49v.9h1.11v-1.06h.82v4.07h-.81v-1.2h-.95c-.04.63-.42,1.19-.98,1.48l-.58-.45c.45-.15.78-.55.85-1.02h-.72v-.66h2.38v-.53h-1.88v-1.53h.76Zm3.9.95v-1.1h.79v1.15h1.69v.73h-1.69v1.26h1.41v.68h-3.6v-.68h1.39v-1.26h-1.68v-.73l1.68-.05Z"/>
      <path class="cls-10" d="m94.45,319.31v-.42h-2.88v-1.77h6.56v1.77h-2.84v.42h3.43v.63h-3.54l-.09.4h2.52v3.89h1.26v.66h-8v-.66h1.26v-3.89h2.07c0-.14.06-.28.09-.4h-3.31v-.63h3.46Zm-.92-1.56h-1.12v.57h1.12v-.57Zm3.27,3.61v-.44h-3.78v.44h3.78Zm0,.95v-.44h-3.78v.44h3.78Zm0,.96v-.44h-3.78v.44h3.78Zm0,.97v-.48h-3.78v.48h3.78Zm-1.26-6.48h-1.26v.57h1.26v-.57Zm1.88,0h-1.12v.57h1.12v-.57Z"/>
      <path class="cls-10" d="m101.6,317.96h.86v.77h-2.71v-.77h1.03c-.11-.31-.24-.61-.39-.9l.81-.23c.16.4.3.78.4,1.12Zm.69,6.58h-1.56v.42h-.76v-3.13h2.32v2.71Zm-.1-5.25v.72h-2.13v-.71h2.13Zm0,1.26v.72h-2.13v-.71h2.13Zm-.64,3.29v-1.26h-.82v1.26h.82Zm2.12-1.6c-.11.88-.31,1.75-.61,2.59l-.68-.43c.29-.74.49-1.52.59-2.31l.69.15Zm-.56-4.3v-.74h4.29c.07,1.18-.05,2.36-.35,3.49-.28.41-.77.63-1.26.57h-.56l-.2-.73h.59c.31.03.6-.14.73-.43.13-.72.19-1.44.16-2.17h-.87c-.13.64-.36,1.26-.68,1.83-.45.68-1.05,1.24-1.75,1.65l-.52-.67c.5-.26.95-.61,1.32-1.03-.39-.32-.81-.6-1.26-.83l.45-.57c.44.23.87.5,1.26.81.18-.38.31-.78.39-1.19h-1.75Zm1.58,7.01c-.52,0-.77-.28-.77-.83v-2.3h.77v2.07c0,.16.08.25.24.25h.81c.1,0,.19-.04.24-.13.09-.29.13-.58.13-.88l.72.23c.02.46-.09.93-.3,1.34-.18.15-.41.22-.64.2l-1.19.05Zm1.54-2.11l-.67.24c-.19-.51-.43-.99-.72-1.45l.68-.21c.27.45.51.92.71,1.41h0Zm1.73,1.26l-.68.3c-.2-.78-.46-1.54-.77-2.28l.71-.23c.29.7.54,1.41.74,2.14v.06Z"/>
      <path class="cls-10" d="m110.52,317.91h1.1v.78h-2.94v-.78h1.05c-.09-.28-.2-.56-.33-.83l.79-.23c.14.34.24.7.33,1.06Zm-.87,7.15h-.81v-3.23h2.52v3.12h-.76v-.37h-.93l-.03.48Zm1.69-5.8v.74h-2.43v-.69l2.43-.05Zm0,1.26v.76h-2.43v-.71l2.43-.05Zm-.76,2.11h-.93v1.19h.96l-.03-1.19Zm1.36-1.92l-.49-.63c.38-.22.72-.5,1.02-.82-.22-.22-.46-.42-.72-.61l.52-.49c.23.19.44.38.62.56.16-.26.3-.54.4-.83h-1.26v-.71h2.01v.59c-.15.59-.4,1.16-.74,1.67h2.01c-.45-.66-.79-1.4-1.01-2.17l.61-.34c.05.22.12.43.2.64.21-.2.41-.43.58-.67l.53.49c-.24.3-.51.57-.82.81.07.16.16.31.25.45.25-.23.48-.49.67-.77l.54.48c-.22.32-.49.61-.79.86.24.3.51.57.81.81l-.52.59c-.35-.3-.67-.64-.93-1.02v.57h-2.33v-.45c-.33.38-.71.71-1.14.98h0Zm1.01,3.48c-.13-.26-.29-.51-.47-.74l.74-.28c.21.32.39.67.54,1.02h.86c.19-.33.36-.67.5-1.02l.76.25c-.13.27-.27.52-.43.77h1.17v.76h-4.88v-.76h1.2Zm3.14-3.37v2.27h-3.89v-2.23l3.89-.04Zm-.78.69h-2.3v.83h2.3v-.83Z"/>
      <path class="cls-10" d="m118.18,318.04v-.79h5.5v.44c-.11.68-.29,1.35-.53,1.99h1.68v.74c-.25,1.1-.81,2.1-1.61,2.88.69.46,1.44.83,2.22,1.11l-.58.76c-.82-.32-1.6-.75-2.32-1.26-.83.55-1.73.98-2.69,1.26l-.4-.82c.85-.26,1.66-.65,2.4-1.15-.8-.76-1.37-1.74-1.63-2.81h0c-.1,1.75-.82,3.4-2.03,4.67l-.64-.57c1.4-1.56,2.1-3.63,1.93-5.71v-.73h-1.29Zm4.15,1.64c.18-.54.33-1.08.44-1.64h-2.52v1.64h2.08Zm1.61.78h-3c.29.89.82,1.69,1.54,2.3.7-.64,1.21-1.45,1.49-2.36l-.03.06Z"/>
      <path class="cls-10" d="m128.6,318.99c.32-.31.6-.67.82-1.06h-2.08v-.77h3.04v.63c-.19.55-.48,1.06-.85,1.51h2.36c-.56-.57-1-1.24-1.32-1.97l.69-.39c.15.34.32.67.53.98.32-.25.62-.53.87-.85l.59.53c-.29.35-.62.65-1,.91.17.19.34.38.53.56.37-.28.71-.61,1-.98l.59.52c-.28.36-.61.69-.98.96.42.32.88.6,1.35.83l-.57.64c-.67-.37-1.3-.81-1.87-1.32v.34h-3.25v-.28c-.64.53-1.36.96-2.13,1.26l-.5-.67c.57-.23,1.12-.52,1.63-.86-.35-.31-.71-.6-1.1-.87l.57-.54c.38.27.74.56,1.08.88Zm1.08,5.05h1.69c.25-.35.47-.72.67-1.11l.79.28c-.16.29-.35.57-.56.83h2.01v.79h-7.66v-.79h2.14c-.2-.29-.43-.55-.69-.78l.81-.29c.3.33.57.7.79,1.08h0Zm3.34-3.44v2.27h-5.05v-2.3l5.05.03Zm-.85.74h-3.39v.78h3.39v-.78Z"/>
      <path class="cls-10" d="m137.81,318.04v-.82h1.94c.26,2.75,1.57,5.29,3.66,7.09l-.48.73c-1.7-1.48-2.92-3.43-3.52-5.6-.52,2.23-1.81,4.2-3.63,5.58l-.52-.72c2.02-1.54,3.37-3.8,3.78-6.31l-1.24.05Z"/>
      <path class="cls-10" d="m146.75,317.2c-.55,1.06-1.37,1.96-2.37,2.61l-.25-.81c.79-.55,1.43-1.29,1.88-2.14l.74.34Zm.2,2.27c-.22.45-.5.87-.82,1.26v4.29h-.82v-3.44c-.26.23-.56.45-.86.68l-.24-.81c.84-.61,1.53-1.42,1.99-2.35l.74.37Zm5.22,1.44l-.63.44c-.13-.21-.24-.42-.38-.63-.68.1-1.48.19-2.41.26l.3.13c-.06.14-.13.28-.2.42h2.52v.69c-.23.6-.62,1.13-1.14,1.51.71.3,1.45.53,2.21.68l-.48.71c-.87-.2-1.72-.5-2.52-.9-.8.4-1.65.7-2.52.9l-.38-.69c.74-.14,1.46-.36,2.14-.67-.31-.2-.6-.42-.87-.67-.22.24-.46.47-.72.67l-.61-.53c.28-.21.55-.44.79-.69-.17-.18-.32-.38-.45-.59l.64-.38c.08.13.18.25.26.38.2-.29.38-.6.52-.92l-1.11.08-.23-.66c.79-.31,1.52-.77,2.14-1.35l-1.79.15-.11-.68c.27-.03.51-.17.68-.38.35-.43.67-.89.96-1.36l.74.28c-.33.49-.7.96-1.11,1.39l1.4-.14c.23-.23.47-.47.69-.73l.73.35c-.81.9-1.71,1.7-2.7,2.4.81-.08,1.53-.18,2.17-.28-.15-.24-.33-.45-.49-.68l.61-.38c.51.59.98,1.22,1.39,1.88h-.06Zm-1.67,1.35h-2.06c-.06.08-.12.17-.18.25.35.32.74.6,1.16.83.44-.27.8-.64,1.07-1.08Z"/>
      <path class="cls-10" d="m156.84,320.03h-2.61v4.98h-.83v-7.91h3.44v2.93Zm-.83-2.27h-1.78v.53h1.79v-.53Zm-1.78,1.55h1.79v-.49h-1.78v.49Zm1.58,2.75v-.85h-.87v-.64h4.33v.72h-.72v.85h1.06v.73h-1.06v2.01h-.77v-2.03h-1.19c-.05.4-.16.8-.34,1.16-.23.45-.62.79-1.08.98l-.42-.66c.38-.17.68-.45.87-.82.09-.21.16-.44.19-.67h-1.05v-.73l1.05-.05Zm1.9-.85h-1.15v.85h1.15v-.85Zm-.32-1.26v-2.9h3.49v6.93c0,.63-.3.95-.9.95h-.95l-.2-.74h.85c.26,0,.35-.16.35-.49v-3.78l-2.65.05Zm2.65-2.23h-1.82v.52h1.82v-.52Zm-1.82,1.59h1.82v-.48h-1.82v.48Z"/>
      <path class="cls-10" d="m163.79,316.9c-.08.57-.15,1.11-.21,1.61h1.26v.47c-.02,1.26-.26,2.51-.69,3.7.34.36.67.73.97,1.12l-.57.66c-.23-.3-.48-.61-.78-.95-.33.61-.76,1.16-1.26,1.63l-.53-.67c.51-.44.94-.98,1.26-1.58-.35-.37-.72-.73-1.14-1.12.2-.74.38-1.56.54-2.45h-.62v-.81h.76c.08-.54.15-1.11.23-1.68l.78.06Zm.26,2.42h-.62c-.15.87-.32,1.61-.48,2.19l.58.56c.3-.89.48-1.82.52-2.76h0Zm.97.47c.44-.15,1.06-1.11,1.84-2.93l.81.28c-.41.91-.9,1.77-1.46,2.59.86,0,1.68-.14,2.52-.26-.21-.44-.44-.85-.66-1.26l.72-.34c.48.81.9,1.65,1.26,2.52l-.77.37c-.09-.23-.18-.44-.26-.63-1.16.15-2.45.28-3.86.37l-.14-.69Zm4.49,5.31h-.82v-.49h-2.43v.49h-.79v-3.9h4.05v3.9Zm-.82-1.26v-1.84h-2.43v1.84h2.43Z"/>
      <path class="cls-10" d="m171.03,321.32l-.28-.91c.89-1.06,1.54-2.3,1.92-3.63l.79.38c-.2.67-.48,1.32-.82,1.93v5.99h-.86v-4.68c-.24.33-.49.63-.76.92Zm4.73-3.61v-.83h.85v.83h2.4v.81h-2.4v.71h2.12v2.6h-2.14c-.04.6-.18,1.18-.42,1.73.91.45,1.9.7,2.91.73l-.21.81c-1.11-.06-2.2-.36-3.18-.88-.64.51-1.42.82-2.25.88l-.35-.77c.66-.01,1.31-.22,1.85-.61-.47-.36-.9-.79-1.26-1.26l.64-.45c.33.41.72.78,1.15,1.08.16-.4.26-.83.3-1.26h-1.94v-2.64h1.98v-.71h-2.23v-.81l2.18.04Zm0,2.26h-1.19v1.14h1.19v-1.14Zm2.11,0h-1.26v1.14h1.26v-1.14Z"/>
      <path class="cls-10" d="m180.37,325.03l-.64-.58c.56-.87.85-1.88.82-2.91v-4.35h6.82v6.7c.06.49-.29.94-.78,1-.08.01-.16,0-.24,0h-1.02l-.23-.82h.97c.28,0,.43-.18.43-.52v-1.32h-2.19v2.52h-.86v-2.52h-2.09c-.05,1.01-.39,1.99-.98,2.81Zm1.03-7.03v1.26h2.04v-1.26h-2.04Zm0,3.46h2.04v-1.35h-2.04v1.35Zm5.05-3.46h-2.19v1.26h2.19v-1.26Zm0,2.11h-2.19v1.35h2.19v-1.35Z"/>
      <path class="cls-20" d="m100.34,169.63v-43.64c-.29-5.01,3.53-9.3,8.53-9.6.36-.02.72-.02,1.08,0h43.64c5.07-.04,9.21,4.04,9.25,9.11,0,0,0,.02,0,.03v68.17c.08.51.08,1.03,0,1.55-.24.44-.56.84-.95,1.17-.44-.32-.82-.71-1.14-1.16-.09-.46-.09-.93,0-1.39v-67.63c.35-4.94-3.65-7.76-7.76-7.72-14.42.13-28.82,0-43.18,0-3.79-.16-6.99,2.79-7.15,6.58,0,.19,0,.39,0,.58v88.01c-.12,3.84,2.9,7.06,6.74,7.18.18,0,.36,0,.54,0h42.65c.93,0,2.31-.33,2.26,1.14-.06,1.48-1.39.99-2.27.99h-42.57c-5.89,0-9.67-3.77-9.68-9.65v-43.71Z"/>
      <path class="cls-20" d="m104.64,169.67v-40.09c0-5.57,3.34-8.91,8.9-8.91h36.13c5.39,0,8.78,3.38,8.78,8.75v60.5c0,.85.45,2.23-.98,2.24-1.42.01-1.06-1.39-1.06-2.33v-59.9c0-4.83-2.28-7.13-7.1-7.13h-35.6c-4.6,0-6.96,2.41-6.96,6.96v80.02c0,4.5,2.41,6.96,6.9,6.96h35.99c.78,0,1.67,0,1.66,1.06s-.93,1.02-1.7,1.02h-36.83c-4.45.02-8.08-3.57-8.1-8.03,0-.13,0-.27,0-.4l-.03-40.73Z"/>
      <path class="cls-20" d="m67.55,124.52v-22.29q0-1.82-1.88-1.82h-7.94c-5.39-.03-9.73-4.42-9.69-9.81.02-3.62,2.04-6.93,5.25-8.59.57-.34,1.05-.82,1.39-1.39,1.32-2.48,3.9-4.03,6.71-4.01.61-.04,1.18-.33,1.57-.79,2.56-3.76,7.2-5.5,11.6-4.37,4.36,1.05,7.64,4.65,8.26,9.1.15.64.54,1.21,1.09,1.57,3.91,2.14,5.9,6.63,4.85,10.96-1.1,4.37-5.06,7.42-9.57,7.37h-8.36c-.99,0-1.3.32-1.3,1.3v43.78c0,1.17.56,1.28,1.48,1.27h18.47c.42-.07.85-.07,1.27,0,.38.17.95.6.92.85-.13.46-.44.86-.85,1.11-.26.18-.72.08-1.1.08h-20.3c-1.77,0-1.94-.2-1.94-1.96.05-7.42.06-14.87.06-22.34Zm-10.54-43.59c3.18.07,5.77.84,7.63,2.98.97,1.26,1.77,2.64,2.38,4.11.14.29-.38.89-.59,1.39-.45-.22-.89-.49-1.3-.78-.18-.15-.2-.52-.29-.78-1.61-3.9-6.08-5.76-9.98-4.15-3.7,1.53-5.6,5.66-4.35,9.46,1.01,3.12,3.93,5.22,7.2,5.2h21.66c4.22,0,7.63-3.43,7.63-7.64,0-4.22-3.43-7.63-7.64-7.63-3.13,0-5.94,1.91-7.09,4.82-.31.77-.47,1.91-1.66,1.39s-.59-1.39-.28-2.21c1.47-3.65,4.98-6.06,8.91-6.11h1.49c-.55-4.81-4.89-8.26-9.7-7.71-2.93.33-5.49,2.12-6.82,4.74-.24.73-1.03,1.13-1.76.89-.02,0-.04-.02-.07-.02-2.05-.46-4.17.35-5.39,2.06h0Z"/>
      <path class="cls-20" d="m214.1,235.29c-1.57.2-2.56.25-3.54-.72-5.35-5.32-10.81-10.54-16.17-15.88-.88-.9-1.59-1.95-2.08-3.11-2.27-5.05-5.49-9.63-9.47-13.48-1.39-1.4-2.79-2.8-4.18-4.18-1.13-1.1-2.34-1.2-3.25-.31-.91.89-.82,2.05.32,3.2.68.71,1.39,1.39,2.1,2.12s1.13,1.28.31,1.88c-.62.18-1.28.04-1.78-.36-1.17-1.02-2.16-2.23-3.27-3.33-.72-.92-2.04-1.08-2.95-.36-.03.02-.06.05-.08.07-.83.72-.92,1.98-.2,2.81.06.07.13.14.2.2,1.11,1.21,2.31,2.35,3.48,3.52.57.59,1.09,1.31.29,1.91-.62.16-1.27.02-1.77-.38-1.7-1.57-3.27-3.27-4.92-4.9-1.18-1.18-2.42-1.3-3.34-.33-.92.96-.75,2.06.39,3.23,1.63,1.64,3.27,3.28,4.92,4.9.56.57,1.11,1.2.36,1.92s-1.39.11-1.92-.43c-4.75-4.75-9.47-9.5-14.22-14.24-.76-1.08-2.24-1.34-3.32-.58-.19.13-.36.29-.5.47-.98,1.1-.85,2.35.4,3.61l11.32,11.32,6.21,6.21c.54.54,1.2,1.14.45,1.91s-1.39.1-1.89-.43c-1.64-1.69-3.27-3.38-5.13-5.31-.72,1.84-.62,3.9.29,5.66,1.1,2.34,3.11,4.12,5.57,4.93,3.19,1.15,6.48,1.99,9.83,2.49,2.49.1,4.83,1.21,6.49,3.08.95,1.02,1.96,1.99,3.02,2.9-1.64.22-2.94.43-4.01-.91-1.51-1.81-3.71-2.91-6.06-3.05-3.55-.51-7.02-1.44-10.34-2.79-4.01-1.59-6.9-4.51-7.33-9.11-.08-1.27.03-2.55.32-3.79.24-.71.03-1.5-.54-1.99-3.37-3.32-6.71-6.65-10.03-10.02-1.35-1.21-1.78-3.15-1.04-4.81.59-1.65,2.1-2.8,3.84-2.94,1.39-.15,2.76.37,3.71,1.39,1.79,1.81,3.6,3.61,5.42,5.4.32.32.67.6,1.11.99.88-2.2,3.31-3.36,5.57-2.66.26.07.77-.28.93-.57.78-1.55,2.45-2.46,4.18-2.27.78.08,1.02-.29,1.32-.91.83-2.03,3.15-3,5.18-2.16.44.18.85.44,1.2.77,4.5,4.25,8.97,8.55,12.17,13.93.78,1.18,1.44,2.44,1.96,3.76.73,1.89,1.92,3.57,3.45,4.89,5.18,4.99,10.29,10.02,15.42,15.03.47.47.89,1.02,1.56,1.78Z"/>
      <path class="cls-20" d="m131.61,139.5h13.61c3.4,0,5.04,1.66,5.04,5.04v17.86c0,3.23-1.66,4.93-4.86,4.93h-27.78c-2.37.26-4.5-1.45-4.76-3.82-.03-.31-.03-.62,0-.93v-18.29c0-3.11,1.71-4.78,4.86-4.78,4.64-.03,9.26-.01,13.89-.01Zm-.14,25.74h13.93c2.06,0,2.79-.78,2.79-2.79v-17.86c0-2.19-.77-2.94-3.01-2.94h-27.22c-2.3,0-3.04.75-3.04,3.06,0,5.8,0,11.61,0,17.43,0,2.44.71,3.15,3.11,3.15l13.44-.06Z"/>
      <path class="cls-20" d="m197.83,122.61v-22.38c.17-.96-.45-1.88-1.39-2.1-2.6-1.07-4.04-3.88-3.4-6.62.73-3.17,3.89-5.16,7.06-4.43,2.23.51,3.97,2.27,4.45,4.51.6,2.74-.87,5.52-3.48,6.56-.88.24-1.42,1.11-1.25,2.01v46.62c0,1.92-.17,2.09-2.1,2.09h-24.52c-.37.07-.76.04-1.11-.08-.39-.22-.89-.67-.89-1.02s.56-.77.96-.95c.42-.08.85-.08,1.27,0h22.66c1.27,0,1.71-.32,1.7-1.66.03-7.54.06-15.04.06-22.55Zm1-26.09c2.08,0,3.75-1.7,3.75-3.77,0-2.08-1.7-3.75-3.77-3.75-2.07,0-3.75,1.69-3.75,3.76.02,2.08,1.7,3.75,3.77,3.76h0Z"/>
      <path class="cls-20" d="m146.6,85.67v12.9c0,1.74-.21,1.94-1.96,1.94h-5.11c-1.13,0-1.64-.45-1.63-1.59,0-8.79,0-17.58,0-26.37,0-1.14.5-1.62,1.63-1.59h5.39c1.31,0,1.71.57,1.71,1.81-.06,4.25-.03,8.54-.03,12.9Zm-2.08,0v-9.64c0-3.47.61-2.97-3.08-3.08-1.2,0-1.5.4-1.5,1.56v20.67c0,3.26,0,3.22,3.2,3.19,1.04,0,1.39-.32,1.39-1.39-.04-3.76-.01-7.54-.01-11.31Z"/>
      <path class="cls-20" d="m136.11,89.59v9.07c0,1.39-.53,1.96-1.84,1.8s-1.77.31-1.69,1.63c.12,1.6.12,3.21,0,4.81,0,.52-.56,1.39-.96,1.39-.91.15-1.09-.64-1.09-1.39v-5.1c0-.93-.22-1.39-1.27-1.31-1.39.18-1.89-.49-1.88-1.88v-18.11c0-1.64.22-1.85,1.91-1.87,1.69-.01,3.3,0,4.96,0,1.3,0,1.88.45,1.84,1.82-.03,2.99.01,6.07.01,9.14Zm-2.37,8.76c.14-.25.24-.33.24-.42v-16.41c0-.31-.59-.82-.93-.85-3.57-.36-3.57-.35-3.57,3.22v13.16c0,.43.4,1.2.68,1.23,1.19.09,2.39.12,3.58.07h0Z"/>
      <path class="cls-20" d="m141.14,197.68c.02,5.18-4.17,9.39-9.35,9.4-.04,0-.08,0-.13,0-5.2-.2-9.26-4.58-9.06-9.79.19-4.92,4.14-8.87,9.06-9.06,5.12-.11,9.36,3.96,9.47,9.08,0,.12,0,.24,0,.37Zm-2.09,0c.02-4.03-3.23-7.32-7.26-7.34,0,0,0,0-.01,0-4.07-.05-7.41,3.2-7.47,7.27s3.2,7.41,7.27,7.47c4.07.05,7.41-3.2,7.47-7.27,0-.04,0-.08,0-.12Z"/>
      <path class="cls-20" d="m116.79,92.28v-6.37c0-1.31.42-1.92,1.8-1.87,1.8.08,3.59,0,5.39,0,1.07,0,1.56.43,1.56,1.52v13.3c0,1.16-.53,1.62-1.64,1.59h-5.39c-1.2,0-1.73-.46-1.71-1.67.08-2.16,0-4.33,0-6.51Zm6.7.14v-2.97c0-3.48,0-3.45-3.5-3.33-.86,0-1.14.32-1.14,1.17v7.77c.08,3.93-.82,3.2,3.48,3.32.86,0,1.16-.32,1.14-1.17.04-1.59.07-3.18.07-4.79h-.06Z"/>
      <path class="cls-20" d="m214.94,78.37c-.61.26-1.25.43-1.91.5-.39,0-.74-.54-1.09-.85-7.54-6.79-19.02-6.71-26.47.18-.11.1-.2.26-.31.28-.59.11-1.39.46-1.7.21-.77-.57-.25-1.27.32-1.76.95-.84,1.95-1.64,2.98-2.38,8.33-5.53,19.36-4.68,26.73,2.08.51.55.99,1.13,1.43,1.74Z"/>
      <path class="cls-20" d="m131.53,179.86h-13.58c-.74,0-1.69.14-1.7-.96-.01-1.1.95-1.1,1.76-1.1h27.58c.46.35.88.75,1.32,1.14-.46.29-.91.85-1.39.86-3.44.07-6.88,0-10.34,0l-3.65.06Z"/>
      <path class="cls-20" d="m131.56,173.43h-13.73c-.52-.09-1.03-.26-1.5-.5.15-.5.39-.97.71-1.39.24-.22.81-.11,1.24-.11h27.18c.77,0,1.57.2,1.39,1.13-.29.51-.81.84-1.39.89-4.65-.01-9.28-.01-13.89-.01Z"/>
      <path class="cls-20" d="m208.59,84.28c-.31.35-.53.81-.79.84-.44.04-.89-.07-1.27-.31-1.21-.88-2.49-1.65-3.83-2.33-3.79-1.51-8.11-.73-11.14,2.01l-.1.1c-.59.53-1.25,1.1-1.92.28s0-1.39.6-1.91c2.67-2.37,6.2-3.54,9.75-3.22,2.85.2,5.55,1.35,7.66,3.27.38.39.73.82,1.04,1.27Z"/>
      <path class="cls-20" d="m139.3,131.64c.03-1.03.89-1.84,1.92-1.81.05,0,.1,0,.15.01.99.15,1.67,1.07,1.53,2.06-.15.99-1.07,1.67-2.06,1.53-.89-.13-1.54-.89-1.55-1.79Z"/>
      <path class="cls-20" d="m131.75,129.87c1-.02,1.83.77,1.85,1.77,0,.04,0,.09,0,.13-.09,1.01-.98,1.76-1.99,1.67-.89-.08-1.59-.78-1.67-1.67-.04-1.01.75-1.85,1.75-1.89.02,0,.04,0,.06,0Z"/>
      <path class="cls-20" d="m122.11,129.88c1.03-.1,1.94.65,2.04,1.68,0,.05,0,.11,0,.16.05.95-.69,1.76-1.64,1.81-.04,0-.09,0-.13,0-1.01.08-1.89-.68-1.96-1.69-.08-1.01.68-1.89,1.69-1.96h0Z"/>
      <path class="cls-10" d="m57.01,80.94c1.22-1.71,3.34-2.52,5.39-2.06.72.28,1.52-.08,1.8-.8,0-.02.02-.04.02-.07,2.19-4.32,7.46-6.04,11.78-3.85,2.63,1.33,4.41,3.89,4.74,6.82h-1.49c-3.93.05-7.45,2.47-8.91,6.11-.31.78-.82,1.76.28,2.21,1.1.46,1.39-.65,1.66-1.39,1.55-3.93,5.99-5.86,9.92-4.32,3.93,1.55,5.86,5.99,4.32,9.92-1.15,2.93-3.98,4.85-7.13,4.85h-21.66c-3.28.02-6.19-2.08-7.2-5.2-1.32-4.01.86-8.33,4.87-9.66,3.81-1.25,7.93.64,9.46,4.35.1.26.11.63.29.78.41.29.84.56,1.3.78.21-.47.72-1.07.59-1.39-.61-1.47-1.41-2.85-2.38-4.11-1.87-2.15-4.46-2.91-7.63-2.98Z"/>
      <path class="cls-10" d="m131.47,165.24h-13.46c-2.4,0-3.09-.71-3.11-3.15,0-5.8,0-11.61,0-17.43,0-2.31.74-3.06,3.04-3.06h27.22c2.24,0,3.01.75,3.01,2.94v17.86c0,2.06-.77,2.79-2.79,2.79l-13.92.06Zm8.89-2.79h3.69c.82,0,1.39-.35,1.39-1.23.06-1.18.04-2.36-.08-3.54-.43-2.74-2.99-4.61-5.73-4.18-2.33.36-4.09,2.3-4.23,4.65v2.79c0,.91.43,1.49,1.39,1.48l3.57.03Zm4.29-13.72c.05-2.35-1.83-4.3-4.18-4.34-2.35-.05-4.3,1.83-4.34,4.18-.04,2.34,1.8,4.27,4.14,4.34,2.31.12,4.27-1.66,4.38-3.96,0-.08,0-.15,0-.23h0Zm-19.5.15h5.81c.81,0,1.63-.11,1.62-1.13s-.84-.96-1.57-.96h-11.6c-.78,0-1.73,0-1.57,1.06,0,.4.98.95,1.53.99,1.89.1,3.83.03,5.79.03h0Zm-2.35,4.74c1.27,0,2.55.08,3.8,0,.42,0,.79-.6,1.18-.92-.36-.36-.71-1-1.09-1.02-2.59-.1-5.18-.1-7.77,0-.4,0-.78.61-1.18.95.42.35.81.96,1.25,1,1.26.07,2.52.06,3.77-.03h.03Z"/>
      <path class="cls-10" d="m198.83,96.52c-2.08,0-3.76-1.68-3.77-3.76,0-2.08,1.68-3.76,3.76-3.77h.01c2.08,0,3.76,1.68,3.77,3.76,0,2.08-1.68,3.76-3.76,3.77h-.01Z"/>
      <path class="cls-10" d="m144.52,85.67v11.32c0,1.06-.33,1.39-1.39,1.39q-3.2,0-3.2-3.19v-20.67c0-1.16.31-1.59,1.5-1.56,3.69.11,3.04-.39,3.08,3.08.06,3.2.01,6.41.01,9.63Z"/>
      <path class="cls-10" d="m133.74,98.35c-1.18.07-2.36.07-3.54,0-.28,0-.67-.79-.68-1.23v-13.16c0-3.57,0-3.58,3.57-3.22.35,0,.93.54.93.85v16.41s-.14.1-.28.35Z"/>
      <path class="cls-10" d="m139.08,197.62c.04,4.03-3.19,7.34-7.22,7.4-4.07,0-7.37-3.29-7.38-7.36,0-4.07,3.29-7.37,7.36-7.38h.02c4.01.05,7.24,3.33,7.22,7.34Zm-6.14,1.02c.88.07,1.77.07,2.65,0,.43-.08.78-.61,1.17-.93-.36-.35-.68-.89-1.11-1-.81-.2-2.02.18-2.44-.26s-.18-1.69-.42-2.52c-.14-.47-.7-.82-1.06-1.23-.32.4-.82.77-.92,1.21-.2.81.15,2.02-.31,2.41s-1.67.26-2.55.35c-.14,0-.32,0-.4.08-.26.29-.72.64-.68.92.13.41.41.76.79.96.37.08.75.08,1.11,0q1.98,0,1.98,2.01v.28c0,.78,0,1.67,1.06,1.63s1-.93,1.03-1.7c.03-.77.03-1.37.07-2.2h.03Z"/>
      <path class="cls-10" d="m123.55,92.41v4.79c0,.85-.28,1.18-1.14,1.17-4.3-.11-3.4.61-3.48-3.32v-7.77c0-.85.28-1.13,1.14-1.17,3.5-.13,3.5-.15,3.5,3.33v2.97Z"/>
      <path class="cls-20" d="m140.36,162.44h-3.54c-1,0-1.39-.47-1.39-1.48v-2.79c.17-2.76,2.54-4.87,5.31-4.7,2.35.14,4.29,1.9,4.65,4.23.12,1.18.15,2.36.08,3.54,0,.88-.57,1.23-1.39,1.23l-3.72-.03Zm-2.79-2.09h5.06c.33-.06.6-.28.74-.59.31-1.26-.08-2.59-1.02-3.48-.85-.8-2.1-.99-3.15-.47-1.21.52-1.91,1.8-1.7,3.11,0,.39.01.81.04,1.43h.03Z"/>
      <path class="cls-20" d="m144.65,148.72c-.03,2.35-1.96,4.24-4.32,4.21-2.35-.03-4.24-1.96-4.21-4.32.03-2.33,1.93-4.21,4.26-4.21,2.31-.05,4.22,1.78,4.26,4.09,0,.08,0,.15,0,.23Zm-4.18-2.24c-1.18,0-2.17.91-2.24,2.09-.12,1.2.75,2.27,1.95,2.4,1.2.12,2.27-.75,2.4-1.95.01-.11.01-.22,0-.33-.02-1.18-.94-2.14-2.12-2.2Z"/>
      <path class="cls-20" d="m125.15,148.87h-5.79c-.56,0-1.48-.59-1.53-.99-.15-1.04.79-1.06,1.57-1.06h11.6c.74,0,1.56,0,1.57.96s-.81,1.13-1.62,1.13l-5.81-.04Z"/>
      <path class="cls-20" d="m122.77,153.62c-1.27.07-2.54.07-3.8,0-.45,0-.84-.65-1.25-1,.4-.33.78-.93,1.18-.95,2.59-.08,5.18-.08,7.77,0,.38,0,.72.65,1.09,1.02-.39.32-.77.88-1.18.92-1.25.08-2.54,0-3.8.01Z"/>
      <path class="cls-20" d="m132.91,198.64c0,.84,0,1.53-.1,2.21s0,1.67-1.03,1.7c-1.03.03-1.06-.85-1.06-1.63v-.28q0-1.99-1.98-2.01c-.37.08-.75.08-1.11,0-.38-.2-.67-.55-.79-.96,0-.28.42-.63.68-.92.08-.08.26,0,.4-.08.88-.08,2.02.13,2.55-.35s.11-1.6.31-2.41c.1-.45.6-.81.92-1.21.36.4.92.75,1.06,1.23.24.84,0,2.01.42,2.52s1.63.07,2.44.26c.43.11.75.65,1.11,1-.39.32-.74.85-1.17.93-.88.07-1.77.06-2.65-.01Z"/>
      <path class="cls-10" d="m137.55,160.35c0-.63,0-1.04-.07-1.46-.21-1.3.49-2.58,1.7-3.11,1.05-.52,2.3-.33,3.15.47.94.89,1.33,2.22,1.02,3.48-.13.31-.41.52-.74.59-1.63.06-3.27.03-5.06.03Z"/>
      <path class="cls-10" d="m140.47,146.47c1.17.07,2.1,1.03,2.12,2.2.06,1.21-.87,2.23-2.07,2.29-1.21.06-2.23-.87-2.29-2.07,0-.11,0-.22,0-.33.07-1.18,1.06-2.1,2.24-2.09Z"/>
      <path class="cls-19" d="m222.17,345.8l-1.49-1.78c-.71-.86-1.85-1.24-2.94-.98-.27.07-.54-.08-.63-.34-1.21-3.42-3.01-6.59-5.34-9.37l-2.96-3.56c-.77-.92-2.02-1.29-3.17-.92-.36.11-.7.3-.98.54-.29.23-.53.52-.71.85-.06.12-.17.21-.3.25h0c-.15.04-.31.01-.44-.08-.75-.53-1.71-.68-2.59-.4-.36.12-.69.3-.98.54-.29.24-.52.53-.71.86-.07.12-.18.2-.3.25h0c-.15.03-.3,0-.43-.09-.76-.52-1.72-.66-2.6-.39-.36.11-.7.3-.98.54-.26.21-.47.47-.64.76-.07.11-.18.19-.3.23h-.13c-.17.01-.34-.06-.45-.19l-3.94-4.73c-1.05-1.25-2.91-1.42-4.16-.38-.6.49-.97,1.21-1.03,1.98-.06.77.18,1.54.67,2.14l7.22,8.65c.09.11.13.25.11.39l-.62,5.22c-.25,2.67,1.55,5.11,4.19,5.64l8.83,1.82c.15.03.28.12.35.25.08.13.11.28.06.43-.28.94-.07,1.95.56,2.7l1.49,1.79c.22.26.61.29.87.08l14.31-11.85c.13-.1.2-.25.21-.42.04-.15.02-.3-.04-.44Z"/>
      <path class="cls-10" d="m221.62,343.56l-1.26-1.32c-.83-1-1.69-.54-2.88-.26-1.2-3.72-3-7.22-5.31-10.37-.3-.37-2.69-3.03-2.99-3.38-1.17-1.41-2.12-1.36-3.52-.19-.4.47-.73.99-1,1.55-1.2-.85-2.76-1.72-3.94-.73-.46.53-.86,1.11-1.19,1.73-1.26-.83-2.37-1.64-3.54-.67-.51.77-.96,1.58-1.35,2.41l-5.26-5.88c-1.16-1.41-1.98-2.08-3.39-.92h0c-1.4,1.17-1.59,3.25-.42,4.65l8.04,9.2-.61,4.33c-.26,2.81.59,5.05,3.36,5.64l8.98,1.41c.95.74.77,2.78,1.5,3.66v1.43c.38.47,1.07.54,1.54.16,0,0,0,0,0,0l13.62-11.35c.47-.34-.04-.61-.4-1.07Z"/>
      <polygon class="cls-27" points="206.67 351.79 206.43 353.69 208.1 355.67 221.79 344.23 218.96 341.63 206.67 351.79"/>
      <path class="cls-20" d="m208.26,357.04c-.24.08-.51,0-.67-.2l-1.5-1.79c-.63-.77-.85-1.8-.57-2.75.06-.14.06-.29,0-.43-.08-.13-.21-.22-.35-.25l-8.97-1.84c-2.66-.54-4.48-2.99-4.23-5.69l.49-5.26c.02-.14-.02-.29-.11-.4l-7.32-8.74c-.51-.6-.76-1.38-.68-2.17.06-.78.44-1.51,1.05-2.01,1.25-1.05,3.12-.89,4.18.36,0,0,0,0,.01.01l3.97,4.79c.12.13.29.2.47.19h.11c.13-.04.24-.12.3-.24.18-.29.4-.55.66-.77.3-.24.63-.43,1-.54.89-.28,1.85-.13,2.61.4.13.09.29.12.44.08h0c.13-.04.25-.13.32-.25.18-.33.42-.62.71-.86,1.03-.87,2.51-.93,3.61-.15.12.09.28.12.43.09h0c.13-.04.25-.13.32-.25.17-.33.41-.63.71-.87.3-.24.63-.43,1-.54,1.15-.37,2.42,0,3.19.93l2.99,3.6c2.35,2.81,4.17,6.03,5.39,9.49.1.26.37.4.64.34,1.1-.26,2.24.13,2.96,1l1.5,1.8c.1.13.15.29.14.45-.01.17-.09.32-.23.43l-14.42,11.98c-.06.05-.14.09-.21.11l.08-.05Zm10.41-14.52c-.21.07-.4.17-.57.32l-10.82,8.98c-.72.61-.82,1.69-.21,2.42l.74.9c.09.11.22.18.37.2h.21l.19-.1,12.61-10.48c.11-.09.18-.22.19-.37.02-.15-.03-.29-.13-.4l-.74-.9c-.44-.55-1.17-.78-1.84-.57Zm-24.8-1.77c-.21.06-.36.25-.38.47l-.29,2.93c-.19,2.06,1.2,3.93,3.23,4.34l10.09,2.07c.09.03.18.03.26,0,.07-.02.14-.05.19-.1l9.76-8.11c.17-.15.24-.38.18-.59-1.17-3.49-2.98-6.72-5.34-9.55l-2.99-3.6c-.44-.54-1.17-.76-1.83-.54-.9.29-1.4,1.25-1.12,2.15.07.21.17.4.31.57.11.13.16.3.15.47-.02.16-.1.32-.23.43-.06.05-.14.09-.21.11-.24.08-.51,0-.67-.2l-1.5-1.8c-.45-.53-1.18-.74-1.84-.53-.21.06-.4.17-.57.32-.73.6-.83,1.67-.24,2.4,0,0,0,0,.01.01l1.5,1.8c.22.27.18.66-.09.88-.06.05-.14.09-.21.11-.24.08-.5,0-.67-.19l-3-3.61c-.44-.54-1.17-.76-1.83-.54-.21.07-.41.17-.58.32-.35.29-.57.71-.61,1.16-.05.45.08.91.38,1.26h0l2.95,3.56c.22.26.2.65-.06.87,0,0,0,0-.01.01-.06.05-.14.09-.21.11-.24.08-.51,0-.67-.2l-9.08-10.94c-.45-.53-1.18-.74-1.84-.53-.21.07-.41.17-.58.32-.35.29-.57.72-.61,1.17-.05.45.08.91.38,1.26l12.08,14.54c.11.12.17.29.15.45,0,.17-.09.32-.23.42-.06.05-.13.09-.2.11h0c-.24.08-.51,0-.68-.19l-1.39-1.68-1.26-1.58c-.15-.18-.4-.24-.62-.15Z"/>
    </g>
  </g>
</svg>