<?xml version="1.0" encoding="UTF-8"?>
<svg id="_圖層_2" data-name="圖層 2" xmlns="http://www.w3.org/2000/svg" viewBox="0 0 114.41 114.41">
  <defs>
    <style>
      .cls-1 {
        fill: #f48003;
      }

      .cls-1, .cls-2 {
        stroke-width: 0px;
      }

      .cls-2 {
        fill: #fff;
      }
    </style>
  </defs>
  <g id="_圖層_3" data-name="圖層 3">
    <g>
      <circle class="cls-1" cx="57.21" cy="57.21" r="57.21"/>
      <g>
        <path class="cls-2" d="m82.82,37.94h-7.47v-5.91c0-2.85-2.31-5.16-5.15-5.16h-7.27v-3.51c0-.8-.65-1.46-1.46-1.46h-20.38c-.81,0-1.46.65-1.46,1.46v3.51h-7.27c-2.85,0-5.16,2.31-5.16,5.16v48.36c0,2.84,2.31,5.15,5.16,5.15h11.86v2.7c0,2.41,1.96,4.37,4.37,4.37h34.21c2.41,0,4.37-1.96,4.37-4.37v-45.92c0-2.41-1.96-4.37-4.37-4.37Zm-40.27-13.12h17.47v6.47h-17.47v-6.47Zm-10.18,57.8c-1.24,0-2.24-1-2.24-2.23v-48.36c0-1.24,1.01-2.24,2.24-2.24h7.27v2.97c0,.8.65,1.46,1.46,1.46h20.38c.81,0,1.46-.65,1.46-1.46v-2.97h7.27c1.23,0,2.23,1.01,2.23,2.24v5.91h-23.83c-2.41,0-4.37,1.96-4.37,4.37v40.3h-11.86Zm51.9,5.62c0,.8-.65,1.46-1.46,1.46h-34.21c-.8,0-1.46-.65-1.46-1.46v-45.92c0-.8.65-1.46,1.46-1.46h34.21c.8,0,1.46.65,1.46,1.46v45.92Z"/>
        <path class="cls-2" d="m68.71,70.08l-4.32,5.58-1.7-2.09c-.51-.62-1.42-.72-2.05-.21-.62.51-.72,1.43-.21,2.05l2.86,3.52c.59.72,1.71.72,2.28-.03l5.44-7.04c.49-.64.38-1.55-.26-2.04-.64-.49-1.55-.37-2.04.26Z"/>
        <path class="cls-2" d="m65.72,62.67c-6.59,0-11.95,5.36-11.95,11.95s5.36,11.95,11.95,11.95,11.95-5.36,11.95-11.95-5.36-11.95-11.95-11.95Zm0,20.99c-4.98,0-9.04-4.05-9.04-9.04s4.05-9.04,9.04-9.04,9.04,4.05,9.04,9.04-4.05,9.04-9.04,9.04Z"/>
        <path class="cls-2" d="m67.17,56.48c0-.8-.65-1.46-1.46-1.46h-12.94c-.81,0-1.46.65-1.46,1.46s.65,1.46,1.46,1.46h12.94c.81,0,1.46-.65,1.46-1.46Z"/>
        <path class="cls-2" d="m78.66,45.99h-25.89c-.81,0-1.46.65-1.46,1.46s.65,1.46,1.46,1.46h25.89c.81,0,1.46-.65,1.46-1.46s-.65-1.46-1.46-1.46Z"/>
      </g>
    </g>
  </g>
</svg>