<?xml version="1.0" encoding="iso-8859-1"?>
<!-- Generator: Adobe Illustrator 19.0.0, SVG Export Plug-In . SVG Version: 6.00 Build 0)  -->
<svg version="1.1" id="Layer_1" xmlns="http://www.w3.org/2000/svg" xmlns:xlink="http://www.w3.org/1999/xlink" x="0px" y="0px"
	 viewBox="0 0 392.663 392.663" style="enable-background:new 0 0 392.663 392.663;" xml:space="preserve">
<polygon style="fill:#FFFFFF;" points="151.725,370.747 240.808,370.747 272.743,217.341 119.79,217.341 "/>
<path style="fill:#56ACE0;" d="M146.554,239.127l3.038,14.352h35.232c6.012,0,10.925,4.848,10.925,10.925
	c0,6.012-4.848,10.925-10.925,10.925h-30.772l4.008,19.394h13.964c6.012,0,10.925,4.848,10.925,10.925
	c0,6.012-4.848,10.925-10.925,10.925h-9.374l6.723,32.388h53.657l22.885-109.705L146.554,239.127L146.554,239.127z"/>
<path style="fill:#FFC10D;" d="M196.267,139.313c-33.293,0-60.962,24.372-66.198,56.178h132.461
	C257.228,163.749,229.56,139.313,196.267,139.313z"/>
<path style="fill:#194F82;" d="M312.048,195.556h-27.539c-5.43-43.895-42.861-78.028-88.178-78.028
	c-45.382,0-82.747,34.133-88.178,78.028H80.614c-6.012,0-10.925,4.848-10.925,10.925c0,6.012,4.848,10.925,10.925,10.925h16.937
	l32,153.406h-11.378c-6.012,0-10.925,4.848-10.925,10.925s4.848,10.925,10.925,10.925h156.121c6.012,0,10.925-4.848,10.925-10.925
	c0-6.012-4.848-10.925-10.925-10.925h-11.184l32-153.406h16.937c6.012,0,10.925-4.848,10.925-10.925
	S318.061,195.556,312.048,195.556z M130.069,195.556c5.236-31.806,32.905-56.178,66.198-56.178s60.962,24.372,66.198,56.178H130.069
	z M240.808,370.747h-89.083l-32-153.406h153.018L240.808,370.747z"/>
<path style="fill:#FFFFFF;" d="M196.267,21.786c-15.063,0-27.281,12.218-27.281,27.281s12.218,27.281,27.281,27.281
	s27.281-12.218,27.281-27.281S211.329,21.786,196.267,21.786z"/>
<path style="fill:#194F82;" d="M196.267,0C169.244,0,147.2,22.044,147.2,49.067s22.044,49.067,49.067,49.067
	s49.067-22.044,49.067-49.067S223.289,0,196.267,0z M196.267,76.347c-15.063,0-27.281-12.218-27.281-27.281
	s12.218-27.281,27.281-27.281s27.281,12.218,27.281,27.281S211.329,76.347,196.267,76.347z"/>
<g>
</g>
<g>
</g>
<g>
</g>
<g>
</g>
<g>
</g>
<g>
</g>
<g>
</g>
<g>
</g>
<g>
</g>
<g>
</g>
<g>
</g>
<g>
</g>
<g>
</g>
<g>
</g>
<g>
</g>
</svg>
