<?xml version="1.0" encoding="UTF-8"?>
<svg id="_圖層_2" data-name="圖層 2" xmlns="http://www.w3.org/2000/svg" viewBox="0 0 568 56.87">
  <defs>
    <style>
      .cls-1 {
        fill: #fff;
      }
    </style>
  </defs>
  <g id="_圖層_2-2" data-name="圖層 2">
    <g>
      <rect class="cls-1" x="293.85" width=".74" height="56.87"/>
      <g>
        <g id="Parent_Logo_RGB" data-name="Parent Logo RGB">
          <g>
            <path class="cls-1" d="M117.5,12.43c-3.57,0-7.28.97-11.88,3.43l2.55,6.31c3.99-2.23,7.28-3.2,9.7-3.2,2.74,0,3.94,1.02,3.94,2.37v.09c0,.93-.74,1.44-2.55,1.62l-3.15.32c-7.89.83-11.13,4.27-11.13,9v.32c0,4.5,3.71,8.03,8.95,8.03,3.45,0,6.45-1.46,8.27-4.03l.59,3.57h7.14v-16.19c0-7.65-4.41-11.64-12.43-11.64M116.8,34.56c-2.64,0-3.9-1.02-3.9-2.6v-.09c0-1.39.79-2.41,3.66-2.83l1.25-.19c1.83-.26,2.96-.59,3.99-1.22v2.05c0,3.11-1.95,4.87-5.01,4.87"/>
            <polygon class="cls-1" points="50.33 12.62 41.19 3.48 32.05 12.62 36.6 17.16 13.68 40.08 22.82 49.22 31.96 40.08 27.42 35.53 50.33 12.62"/>
            <rect class="cls-1" x="-.18" y="13.04" width="32.41" height="12.92" transform="translate(-9.1 17.05) rotate(-45)"/>
            <rect class="cls-1" x="31.78" y="26.73" width="32.41" height="12.92" transform="translate(-9.41 43.65) rotate(-45)"/>
            <rect class="cls-1" x="134.57" y="3.15" width="8.12" height="37.11"/>
            <path class="cls-1" d="M91.34,12.43c-3.69,0-6.65,1.63-8.29,4.19l-.62-3.73h-7.14v36.65h8.12v-12.7c1.54,2.38,4.47,3.89,7.93,3.89,6.49,0,11.78-5.75,11.78-13.68v-.93c0-7.93-5.29-13.68-11.78-13.68M94.77,26.81c0,4.17-2.18,7.19-5.8,7.19s-5.8-3.02-5.8-7.19v-.46c0-4.18,2.18-7.19,5.8-7.19s5.8,3.02,5.8,7.19v.46Z"/>
            <path class="cls-1" d="M252.21,12.43c-8.3,0-14.15,5.75-14.15,13.68v.93c0,7.93,5.84,13.68,14.15,13.68s14.15-5.75,14.15-13.68v-.93c0-7.93-5.84-13.68-14.15-13.68M258.01,26.81c0,4.17-2.18,7.19-5.8,7.19s-5.8-3.02-5.8-7.19v-.46c0-4.18,2.18-7.19,5.8-7.19s5.8,3.02,5.8,7.19v.46Z"/>
            <path class="cls-1" d="M274.01,14.1v-.14c0-.79-.6-1.35-1.67-1.35h-1.86v4.27h.88v-1.44h.98l.74,1.44h.97l-.91-1.69c.55-.17.86-.58.86-1.09M271.37,13.4h.97c.56,0,.79.19.79.6v.05c0,.37-.23.6-.79.6h-.97v-1.25Z"/>
            <path class="cls-1" d="M272.16,10.34c-2.5,0-4.41,1.9-4.41,4.41s1.9,4.41,4.41,4.41,4.41-1.9,4.41-4.41-1.9-4.41-4.41-4.41M272.16,18.55c-2.18,0-3.76-1.58-3.76-3.8s1.58-3.8,3.76-3.8,3.76,1.58,3.76,3.8-1.58,3.8-3.76,3.8"/>
            <rect class="cls-1" x="206.05" y="3.15" width="8.12" height="37.11"/>
            <path class="cls-1" d="M230.18,34c-2.37,0-3.25-1.16-3.25-3.66v-11.18h9.56v-6.26h-9.56v-6.26l-8.12,1.21v23.29c0,6.36,3.25,9.6,9.74,9.6,2.88,0,6.26-.88,9.05-2.46l-2.32-5.75c-1.62.88-3.9,1.48-5.1,1.48"/>
            <path class="cls-1" d="M188.98,12.43c-3.57,0-7.28.97-11.87,3.43l2.55,6.31c3.99-2.23,7.28-3.2,9.7-3.2,2.74,0,3.94,1.02,3.94,2.37v.09c0,.93-.74,1.44-2.55,1.62l-3.15.32c-7.89.83-11.13,4.27-11.13,9v.32c0,4.5,3.71,8.03,8.95,8.03,3.45,0,6.45-1.46,8.27-4.03l.59,3.57h7.14v-16.19c0-7.65-4.41-11.64-12.43-11.64M188.29,34.56c-2.64,0-3.9-1.02-3.9-2.6v-.09c0-1.39.79-2.41,3.66-2.83l1.25-.19c1.83-.26,2.96-.59,3.99-1.22v2.05c0,3.11-1.95,4.87-5.01,4.87"/>
            <path class="cls-1" d="M160.46,12.43c-8.3,0-14.15,5.75-14.15,13.68v.93c0,7.93,5.84,13.68,14.15,13.68s14.15-5.75,14.15-13.68v-.93c0-7.93-5.84-13.68-14.15-13.68M166.25,26.81c0,4.17-2.18,7.19-5.8,7.19s-5.8-3.02-5.8-7.19v-.46c0-4.18,2.18-7.19,5.8-7.19s5.8,3.02,5.8,7.19v.46Z"/>
            <polygon class="cls-1" points="193.68 46.84 195.76 46.84 198.63 50.63 198.66 50.63 198.66 46.84 200.57 46.84 200.57 53.52 198.56 53.52 195.62 49.64 195.59 49.64 195.59 53.52 193.68 53.52 193.68 46.84"/>
            <polygon class="cls-1" points="203.11 46.84 208.95 46.84 209.02 48.47 205.1 48.47 205.1 49.38 208.18 49.38 208.18 50.86 205.1 50.86 205.1 51.9 209.14 51.9 209.06 53.52 203.11 53.52 203.11 46.84"/>
            <polygon class="cls-1" points="213.2 48.56 210.86 48.56 210.94 46.84 217.47 46.84 217.55 48.56 215.21 48.56 215.21 53.52 213.2 53.52 213.2 48.56"/>
            <polygon class="cls-1" points="219.16 46.84 221.3 46.84 222.39 51.48 222.49 51.48 223.9 46.84 225.86 46.84 227.24 51.48 227.35 51.48 228.42 46.84 230.46 46.84 228.7 53.52 226.08 53.52 224.86 49.5 224.8 49.5 223.56 53.52 220.93 53.52 219.16 46.84"/>
            <path class="cls-1" d="M231.93,50.18c0-2.17,1.48-3.54,3.82-3.54s3.82,1.36,3.82,3.54-1.48,3.54-3.82,3.54-3.82-1.36-3.82-3.54M237.56,50.18c0-1.15-.67-1.84-1.82-1.84s-1.82.69-1.82,1.84.67,1.84,1.81,1.84,1.83-.69,1.83-1.84"/>
            <path class="cls-1" d="M241.72,46.84h3.89c1.77,0,2.64.84,2.64,2.39,0,1.07-.44,1.79-1.3,2.14l1.58,2.15h-2.27l-1.23-1.76h-1.32v1.76h-2v-6.68ZM245.36,50.2c.67,0,.91-.37.91-.88s-.24-.87-.91-.87h-1.63v1.75h1.63Z"/>
            <polygon class="cls-1" points="250.86 46.84 252.86 46.84 252.86 49.3 253.68 49.3 255.64 46.84 257.89 46.84 257.9 46.85 255.34 50.05 258.04 53.51 258.03 53.52 255.7 53.52 253.68 50.96 252.86 50.96 252.86 53.52 250.86 53.52 250.86 46.84"/>
            <path class="cls-1" d="M259.58,53.08v-1.83h0c1.12.56,2.2.84,3.15.84.72,0,1.08-.17,1.08-.51s-.24-.42-1.67-.65c-1.56-.25-2.6-.72-2.6-2.06,0-1.25,1.1-2.21,3.24-2.21.86,0,1.76.18,2.59.53v1.81h0c-.79-.45-1.86-.73-2.72-.73-.76,0-1.07.18-1.07.49,0,.39.47.43,1.64.63,1.56.27,2.6.71,2.6,2.12,0,1.1-.82,2.19-3.18,2.19-1.16,0-2.09-.24-3.06-.62"/>
          </g>
        </g>
        <g>
          <g>
            <path class="cls-1" d="M353.54,25.86c0,6.41-5.19,11.6-11.6,11.6V14.26c6.41,0,11.6,5.19,11.6,11.6Z"/>
            <path class="cls-1" d="M330.35,25.86c0,6.41,5.19,11.6,11.6,11.6v8.74c-11.22,0-20.32-9.1-20.32-20.32s9.1-20.32,20.32-20.32v8.7c-6.41,0-11.6,5.19-11.6,11.6Z"/>
            <g>
              <path class="cls-1" d="M366.23,25.99c0,6.87,5.42,11.69,14.92,11.69,3.44,0,6.29-.69,8.78-1.7v-5.46c-2.43,1.23-5,2.27-8.46,2.27-5.53,0-8.97-2.59-8.97-6.84s3.59-6.84,9.04-6.84c3.47,0,5.96,1.04,8.38,2.26v-5.5c-2.52-1.01-5.26-1.64-8.71-1.64-9.26,0-15,5.19-15,11.76Z"/>
              <path class="cls-1" d="M459.3,22.08c0-4.62-3.48-7.34-10.05-7.34h-13.69v22.44h6.24v-7.68h4.61l6.92,7.68h7.14l-7.46-8.12c3.73-.94,6.28-3.33,6.28-6.97ZM447.74,25.14h-5.94v-5.9h6.23c3.52,0,4.95,1.04,4.95,2.93,0,1.99-1.76,2.96-5.24,2.96Z"/>
              <polygon class="cls-1" points="466.8 19.55 476.23 19.55 476.23 37.17 482.47 37.17 482.47 19.55 491.9 19.55 491.9 14.73 466.8 14.73 466.8 19.55"/>
              <polygon class="cls-1" points="500.75 37.17 522.47 37.17 522.47 32.59 506.88 32.59 506.88 27.91 518.45 27.91 518.45 23.73 506.88 23.73 506.88 19.32 522.47 19.32 522.47 14.73 500.75 14.73 500.75 37.17"/>
              <polygon class="cls-1" points="546.83 25.78 556.9 14.73 549.51 14.73 543.16 22.25 536.79 14.73 529.15 14.73 539.22 25.85 528.86 37.17 536.25 37.17 542.89 29.74 549.55 37.17 557.19 37.17 546.83 25.78"/>
              <path class="cls-1" d="M426.74,25.95c0,7.08-5.53,11.83-13.92,11.83s-13.85-4.75-13.85-11.83,5.53-11.83,13.85-11.83,13.92,4.79,13.92,11.83ZM405.78,25.95c0,4.18,3.1,6.64,7.04,6.64s7.11-2.46,7.11-6.64-3.13-6.64-7.11-6.64-7.04,2.43-7.04,6.64Z"/>
            </g>
          </g>
          <g>
            <path class="cls-1" d="M565.45,15.82v-.14c0-.79-.6-1.35-1.67-1.35h-1.86v4.27h.88v-1.44h.98l.74,1.44h.97l-.91-1.69c.55-.17.86-.58.86-1.09M562.81,15.12h.97c.56,0,.79.19.79.6v.05c0,.37-.23.6-.79.6h-.97v-1.25Z"/>
            <path class="cls-1" d="M563.6,12.06c-2.5,0-4.41,1.9-4.41,4.41s1.9,4.41,4.41,4.41,4.41-1.9,4.41-4.41-1.9-4.41-4.41-4.41M563.6,20.27c-2.18,0-3.76-1.58-3.76-3.8s1.58-3.8,3.76-3.8,3.76,1.58,3.76,3.8-1.58,3.8-3.76,3.8"/>
          </g>
        </g>
      </g>
    </g>
  </g>
</svg>