<?xml version="1.0" encoding="UTF-8"?>
<svg id="_圖層_2" data-name="圖層 2" xmlns="http://www.w3.org/2000/svg" viewBox="0 0 273.66 456">
  <defs>
    <style>
      .cls-1 {
        font-family: SourceHanSansTC-Medium-B5pc-H, 'Source Han Sans TC';
        font-size: 16px;
        font-weight: 500;
        letter-spacing: .05em;
      }

      .cls-1, .cls-2, .cls-3, .cls-4, .cls-5, .cls-6, .cls-7, .cls-8, .cls-9, .cls-10, .cls-11, .cls-12, .cls-13 {
        fill: #fff;
      }

      .cls-14 {
        stroke-width: .74px;
      }

      .cls-14, .cls-2, .cls-15, .cls-16, .cls-17, .cls-3, .cls-4, .cls-5, .cls-6, .cls-7, .cls-18, .cls-19, .cls-20, .cls-21, .cls-22, .cls-23, .cls-9, .cls-10, .cls-11, .cls-13 {
        stroke-miterlimit: 10;
      }

      .cls-14, .cls-15, .cls-16, .cls-17, .cls-18, .cls-19, .cls-20, .cls-21, .cls-23 {
        fill: none;
      }

      .cls-14, .cls-11 {
        stroke: #000;
      }

      .cls-2, .cls-16, .cls-17, .cls-3, .cls-5, .cls-6, .cls-7, .cls-8, .cls-22, .cls-9, .cls-10, .cls-13 {
        stroke: gray;
      }

      .cls-2, .cls-16, .cls-17, .cls-5, .cls-22 {
        stroke-width: .42px;
      }

      .cls-2, .cls-17, .cls-21 {
        stroke-linecap: round;
      }

      .cls-15 {
        stroke-width: .4px;
      }

      .cls-15, .cls-19 {
        stroke: #606060;
      }

      .cls-24 {
        isolation: isolate;
        opacity: .24;
      }

      .cls-24, .cls-25, .cls-26, .cls-27, .cls-28, .cls-29, .cls-30, .cls-31, .cls-12, .cls-32, .cls-33, .cls-34 {
        stroke-width: 0px;
      }

      .cls-3 {
        stroke-width: .22px;
      }

      .cls-35 {
        font-size: 3.31px;
      }

      .cls-35, .cls-36 {
        font-family: SourceHanSansTC-Regular-B5pc-H, 'Source Han Sans TC';
      }

      .cls-35, .cls-27 {
        fill: gray;
      }

      .cls-4, .cls-23 {
        stroke: #231815;
      }

      .cls-6 {
        stroke-width: .42px;
      }

      .cls-7 {
        stroke-width: .42px;
      }

      .cls-8 {
        stroke-miterlimit: 10;
        stroke-width: .42px;
      }

      .cls-18 {
        stroke: #9f9f9f;
        stroke-width: .84px;
      }

      .cls-19 {
        stroke-width: .79px;
      }

      .cls-20 {
        stroke: #ffbc00;
        stroke-width: 1.55px;
      }

      .cls-21 {
        stroke: #fff;
        stroke-width: .94px;
      }

      .cls-22 {
        fill: #34afa9;
      }

      .cls-36 {
        fill: #b9b9b9;
        font-size: 7px;
      }

      .cls-9 {
        stroke-width: .38px;
      }

      .cls-10 {
        stroke-width: .36px;
      }

      .cls-11 {
        stroke-width: .73px;
      }

      .cls-26 {
        fill: #606060;
      }

      .cls-28 {
        fill: #197580;
      }

      .cls-29 {
        fill: #228181;
      }

      .cls-30 {
        fill: #155d60;
      }

      .cls-31 {
        fill: #d4d4d4;
      }

      .cls-32 {
        fill: #efefef;
      }

      .cls-33 {
        fill: #fb0;
      }

      .cls-34 {
        fill: #f4f4f4;
      }

      .cls-13 {
        stroke-width: .66px;
      }
    </style>
  </defs>
  <g id="_圖層_1-2" data-name="圖層 1">
    <g>
      <g>
        <g>
          <rect class="cls-4" x=".5" y=".5" width="266" height="455" rx="18" ry="18"/>
          <line class="cls-18" x1=".89" y1="407.37" x2="266.68" y2="407.37"/>
          <path class="cls-29" d="m266.5,49.96v-31.46c0-9.9-8.1-18-18-18H18.5C8.6.5.5,8.6.5,18.5v31.46h266Z"/>
          <path class="cls-32" d="m266.5,407.51v29.99c0,9.9-8.1,18-18,18H18.5c-9.9,0-18-8.1-18-18v-29.99h266Z"/>
          <rect class="cls-23" x=".5" y=".5" width="266" height="455" rx="18" ry="18"/>
          <path class="cls-5" d="m22.96,434.96c-.14,0-.25-.11-.25-.25h0v-4.82h-3.78v4.82c0,.14-.11.25-.25.25h-2.95c-.92,0-1.66-.75-1.67-1.67v-6.74h-.95c-.1,0-.2-.07-.24-.16-.03-.1-.01-.21.06-.28l7.69-7.47s.11-.07.18-.08c.06,0,.13.02.18.06l7.92,7.43c.08.07.1.18.06.28-.04.1-.13.16-.24.16h-.95v6.75c0,.92-.75,1.67-1.67,1.67h0l-3.15.04Z"/>
          <path class="cls-6" d="m67.78,429.22l-1.14,4.88c-.21.92.57,1.68,1.73,1.68h12.54c1.12.06,2.15-.62,2.52-1.68l1.15-4.89"/>
          <line class="cls-16" x1="69.26" y1="434.45" x2="81.58" y2="434.42"/>
          <rect class="cls-27" x="69.85" y="430.99" width="1.83" height="3.38" transform="translate(-1.43 .24) rotate(-.19)"/>
          <rect class="cls-27" x="72.27" y="431.8" width="1.83" height="2.61" transform="translate(-1.44 .25) rotate(-.19)"/>
          <rect class="cls-27" x="74.52" y="431.31" width="1.83" height="3.07" transform="translate(-1.43 .25) rotate(-.19)"/>
          <rect class="cls-27" x="76.88" y="429.68" width="1.83" height="4.69" transform="translate(-1.43 .26) rotate(-.19)"/>
          <rect class="cls-27" x="79.23" y="431.76" width="1.83" height="2.61" transform="translate(-1.44 .27) rotate(-.19)"/>
          <path class="cls-7" d="m84.56,428.97v-5.44c-.08-1.09-1.02-1.92-2.12-1.85h-12.61c-1.1-.06-2.04.77-2.11,1.87,0,0,0,0,0,0v5.5l16.84-.09Z"/>
          <path id="Path" class="cls-7" d="m74.67,419.09c-.2-.67-.9-1.05-1.56-.86-.41.12-.74.44-.86.86v1.2h2.41v-1.2Z"/>
          <path id="Path-2" class="cls-7" d="m79,420.75h0c-.96-.01-1.75.75-1.77,1.72,0,.01,0,.03,0,.04v.08h-1.94v-.1c.03-.64-.3-1.25-.86-1.58-.56-.33-1.26-.33-1.82,0-.56.33-.89.93-.87,1.58v5.13h3.53v-3.37h2.01v3.38h3.54v-5.13c.01-.47-.17-.93-.5-1.26-.34-.33-.79-.52-1.26-.52l-.06.04Z"/>
          <ellipse id="Oval" class="cls-8" cx="79.05" cy="419.12" rx="1.21" ry="1.2" transform="translate(-1.39 .26) rotate(-.19)"/>
          <circle class="cls-5" cx="244.98" cy="426.78" r="8.28"/>
          <circle class="cls-16" cx="244.77" cy="425.11" r="2.84"/>
          <path class="cls-5" d="m251,433.18l-.24-.25c-.09-.09-.24-.09-.33,0-.3.19-.63.34-.98.42-.12.01-.22.12-.2.25,0,0,0,.01,0,.02,0,.11,0,.23,0,.34h-.96v-.33c0-.18,0-.25-.21-.29-.34-.08-.67-.21-.97-.39-.1-.1-.26-.1-.35,0-.08.09-.15.16-.21.25l-.72-.72.25-.21c.09-.09.09-.24,0-.34h0c-.19-.3-.34-.64-.42-.99-.01-.12-.12-.22-.25-.2,0,0-.01,0-.02,0h-.34v-.97h.34c.13.02.25-.07.28-.2,0,0,0-.01,0-.02.08-.35.21-.68.4-.98.09-.09.09-.24,0-.33l-.25-.23.69-.71.24.25c.09.08.23.08.32,0,.3-.2.64-.34,1-.42.13-.02.22-.13.21-.26,0-.11,0-.23,0-.34h.97v.34c0,.16,0,.23.23.28.34.07.66.21.96.39.1.1.26.1.35,0l.21-.24.71.71-.24.21c-.09.08-.1.23-.02.32,0,0,.01.01.02.02.18.3.32.63.4.97.01.13.13.23.26.22,0,0,.01,0,.02,0h.34v.97h-.33c-.14-.02-.27.07-.29.21,0,0,0,0,0,0-.07.34-.2.67-.39.97-.1.1-.1.26,0,.35l.25.21-.73.71Zm-2.31-4.81c-1.04.04-1.85.91-1.81,1.94.04,1.04.91,1.85,1.94,1.81,1.04-.04,1.85-.9,1.81-1.94-.03-1.03-.88-1.84-1.92-1.82,0,0-.02,0-.03,0h0Z"/>
          <path class="cls-5" d="m243.18,427.58c-1.94.96-3.4,2.68-4.05,4.74"/>
          <text class="cls-1" transform="translate(99.9 41.49)"><tspan x="0" y="0">健保櫃檯</tspan></text>
          <g>
            <g>
              <path class="cls-25" d="m229.37,14.26h-2.87v-.69l2.64-4.04h1.21v3.93h.84v.8h-.84v1.71h-.97v-1.71Zm0-.8v-1.63c0-.36.03-.94.04-1.3h-.04c-.16.32-.34.63-.53.96l-1.3,1.96h1.83Z"/>
              <path class="cls-25" d="m231.96,12.68c0-2.16,1.33-3.46,3.09-3.46.94,0,1.57.41,1.97.84l-.56.67c-.33-.33-.74-.59-1.38-.59-1.23,0-2.05.95-2.05,2.51s.73,2.54,2.1,2.54c.41,0,.81-.12,1.04-.32v-1.56h-1.31v-.86h2.26v2.87c-.44.44-1.19.77-2.1.77-1.76,0-3.06-1.24-3.06-3.41Z"/>
            </g>
            <g>
              <path class="cls-25" d="m11.28,15.12h1.45v-4.43h-1.19v-.66c.62-.11,1.06-.27,1.44-.5h.78v5.59h1.3v.86h-3.78v-.86Z"/>
              <path class="cls-25" d="m18.69,14.26h-2.87v-.69l2.64-4.04h1.21v3.93h.84v.8h-.84v1.71h-.97v-1.71Zm0-.8v-1.63c0-.36.03-.94.04-1.3h-.04c-.16.32-.34.63-.53.96l-1.3,1.96h1.83Z"/>
              <path class="cls-25" d="m21.41,11.83c0-.42.31-.74.69-.74s.69.32.69.74-.31.72-.69.72-.69-.31-.69-.72Zm0,3.54c0-.43.31-.74.69-.74s.69.31.69.74-.31.72-.69.72-.69-.3-.69-.72Z"/>
              <path class="cls-25" d="m23.84,15.37c1.84-1.81,2.96-2.96,2.96-3.97,0-.7-.38-1.17-1.13-1.17-.52,0-.95.33-1.3.74l-.59-.58c.57-.61,1.15-.99,2.02-.99,1.22,0,2,.77,2,1.95s-1.07,2.37-2.45,3.81c.33-.04.76-.06,1.08-.06h1.68v.88h-4.28v-.6Z"/>
              <path class="cls-25" d="m28.97,15.37c1.84-1.81,2.96-2.96,2.96-3.97,0-.7-.38-1.17-1.13-1.17-.52,0-.95.33-1.3.74l-.59-.58c.57-.61,1.15-.99,2.02-.99,1.22,0,2,.77,2,1.95s-1.07,2.37-2.45,3.81c.33-.04.76-.06,1.08-.06h1.68v.88h-4.28v-.6Z"/>
            </g>
            <g>
              <rect class="cls-30" x="221.07" y="8.91" width="1.1" height="7.11"/>
              <rect class="cls-25" x="219.08" y="10.3" width="1.1" height="5.72"/>
              <rect class="cls-25" x="217.1" y="11.63" width="1.1" height="4.39"/>
              <rect class="cls-25" x="215.11" y="13.08" width="1.1" height="2.94"/>
              <rect class="cls-25" x="213.12" y="14.35" width="1.1" height="1.67"/>
            </g>
            <g>
              <g>
                <rect class="cls-25" x="257.42" y="11.58" width="2" height="2" rx=".71" ry=".71"/>
                <rect class="cls-25" x="243.73" y="9.21" width="15" height="6.56" rx="1.43" ry="1.43"/>
              </g>
              <g>
                <path class="cls-28" d="m245.08,14.22h1.13v-3.45h-.92v-.51c.48-.09.83-.21,1.12-.39h.61v4.35h1.01v.66h-2.94v-.66Z"/>
                <path class="cls-28" d="m248.8,12.35c0-1.69.64-2.58,1.67-2.58s1.67.9,1.67,2.58-.64,2.62-1.67,2.62-1.67-.93-1.67-2.62Zm2.56,0c0-1.44-.37-1.95-.9-1.95s-.9.5-.9,1.95.37,1.98.9,1.98.9-.54.9-1.98Z"/>
                <path class="cls-28" d="m252.79,12.35c0-1.69.64-2.58,1.67-2.58s1.67.9,1.67,2.58-.64,2.62-1.67,2.62-1.67-.93-1.67-2.62Zm2.56,0c0-1.44-.37-1.95-.9-1.95s-.9.5-.9,1.95.37,1.98.9,1.98.9-.54.9-1.98Z"/>
              </g>
            </g>
          </g>
          <g>
            <text class="cls-36" transform="translate(13.73 446.02)"><tspan x="0" y="0">首頁</tspan></text>
            <text class="cls-36" transform="translate(61.85 446.02)"><tspan x="0" y="0">健康存摺</tspan></text>
            <text class="cls-36" transform="translate(117.05 446.02)"><tspan x="0" y="0">健保櫃檯</tspan></text>
            <text class="cls-36" transform="translate(171.37 446.02)"><tspan x="0" y="0">虛擬健保卡</tspan></text>
            <text class="cls-36" transform="translate(237.94 446.02)"><tspan x="0" y="0">我的</tspan></text>
          </g>
          <rect class="cls-9" x="179.71" y="420.54" width="18.96" height="14.81" rx=".91" ry=".91"/>
          <g>
            <circle class="cls-3" cx="193.13" cy="425.65" r="2.31"/>
            <path class="cls-3" d="m195.44,430.26c0-1.27-1.03-2.31-2.31-2.31s-2.31,1.03-2.31,2.31v1.66h4.61v-1.66Z"/>
          </g>
          <g>
            <path class="cls-13" d="m122.67,424.84v-1.18c0-.35.28-.63.63-.63h1.97c.36,0,.65.29.65.65v1.16"/>
            <polyline class="cls-22" points="121.9 435 121.65 435 121.61 424.88 138.54 424.82 138.56 434.95 138.34 434.95"/>
            <line class="cls-17" x1="119.88" y1="435.01" x2="140.34" y2="434.93"/>
            <circle class="cls-2" cx="129.91" cy="430.1" r="2.84"/>
            <rect class="cls-5" x="130.47" y="418.66" width="7.38" height="3.96" rx=".48" ry=".48"/>
            <line class="cls-16" x1="135.01" y1="422.61" x2="135.01" y2="424.73"/>
            <text class="cls-35" transform="translate(127.77 431.31) scale(1.83 1)"><tspan x="0" y="0">H</tspan></text>
          </g>
          <g>
            <g>
              <rect class="cls-15" x="182.12" y="425.05" width="2.15" height="2.15"/>
              <rect class="cls-26" x="182.95" y="425.88" width=".48" height=".48"/>
            </g>
            <g>
              <rect class="cls-15" x="182.12" y="429.55" width="2.15" height="2.15"/>
              <rect class="cls-26" x="182.95" y="430.38" width=".48" height=".48"/>
            </g>
            <g>
              <rect class="cls-15" x="186.54" y="425.05" width="2.15" height="2.15"/>
              <rect class="cls-26" x="187.38" y="425.88" width=".48" height=".48"/>
            </g>
            <rect class="cls-26" x="184.67" y="428.71" width=".83" height=".83"/>
            <rect class="cls-26" x="182.12" y="427.46" width=".83" height=".83"/>
            <rect class="cls-26" x="182.95" y="428.29" width=".83" height=".83"/>
            <g>
              <rect class="cls-26" x="185.46" y="426.71" width=".75" height=".75"/>
              <rect class="cls-26" x="184.71" y="426.12" width=".75" height="1.33"/>
            </g>
            <rect class="cls-26" x="183.87" y="427.87" width="2.44" height=".83"/>
            <rect class="cls-26" x="185.84" y="429.33" width=".71" height="1.83"/>
            <rect class="cls-26" x="186.54" y="428.71" width="1.65" height=".83"/>
            <rect class="cls-26" x="187.62" y="427.87" width=".57" height=".83"/>
            <rect class="cls-26" x="188.41" y="428.71" width=".5" height="1.55"/>
            <rect class="cls-26" x="187.34" y="429.95" width="1.05" height=".61"/>
            <rect class="cls-26" x="187.91" y="430.11" width=".56" height="1.33"/>
            <rect class="cls-26" x="187.91" y="431.17" width="1.29" height=".53"/>
            <rect class="cls-26" x="186.19" y="431.17" width=".89" height=".53"/>
            <rect class="cls-26" x="185.09" y="431.17" width=".38" height=".53"/>
          </g>
        </g>
        <g>
          <path class="cls-34" d="m13.63,33.41l-3.71,1.58,3.71,1.58v1.02l-5.05-2.18v-.85l5.05-2.18v1.03Z"/>
          <path class="cls-34" d="m20.22,29.33v2.98h3.71v1.02h-3.71v3.91h4.49v1.02h-9.01v-1.02h3.47v-7.91h1.05Z"/>
          <path class="cls-34" d="m35.73,33.37v1.03h-9.11v-1.03h9.11Z"/>
          <path class="cls-34" d="m41.46,31.19c.06-.21.11-.42.14-.63h-3.71v-.95h8.69v.95h-3.94c0,.23-.09.43-.14.63h3.23v5.76h-1.65c.93.22,1.84.5,2.72.83l-.54.86c-1.03-.48-2.11-.85-3.22-1.11l.39-.58h-2.52l.49.63c-1.04.53-2.16.9-3.32,1.08l-.5-.86c1.08-.15,2.13-.44,3.13-.86h-1.88v-5.76h2.62Zm3.25,1.6v-.64h-4.87v.64h4.87Zm0,1.58v-.69h-4.87v.69h4.87Zm0,.88h-4.87v.73h4.84l.03-.73Z"/>
        </g>
        <g>
          <rect class="cls-10" x="240.55" y="29.32" width="16.89" height="14.81" rx=".85" ry=".85"/>
          <g>
            <rect class="cls-19" x="243.64" y="31.45" width="4.25" height="4.25"/>
            <rect class="cls-26" x="245.29" y="33.1" width=".95" height=".95"/>
          </g>
          <rect class="cls-26" x="251.45" y="39.4" width=".95" height=".95"/>
          <rect class="cls-26" x="249.8" y="37.75" width=".95" height=".95"/>
          <rect class="cls-26" x="249.8" y="41.05" width=".95" height=".95"/>
          <rect class="cls-26" x="253.1" y="37.75" width=".95" height=".95"/>
          <rect class="cls-26" x="253.1" y="41.05" width=".95" height=".95"/>
          <g>
            <rect class="cls-19" x="243.64" y="37.75" width="4.25" height="4.25"/>
            <rect class="cls-26" x="245.29" y="39.4" width=".95" height=".95"/>
          </g>
          <g>
            <rect class="cls-19" x="249.8" y="31.45" width="4.25" height="4.25"/>
            <rect class="cls-26" x="251.45" y="33.1" width=".95" height=".95"/>
          </g>
        </g>
      </g>
      <rect class="cls-11" x="15.65" y="91.17" width="235.35" height="237.33" rx="4.63" ry="4.63"/>
      <circle class="cls-31" cx="224.16" cy="111.49" r="8.3"/>
      <polyline class="cls-21" points="222.79 108.41 227.18 111.9 222.5 114.73"/>
      <path class="cls-25" d="m36.48,102.56c-.47,1.46-1.08,2.87-1.82,4.21v13.02h-1.4v-10.85c-.63.89-1.31,1.73-2.06,2.52l-.44-1.46c2.04-2.31,3.56-5.03,4.45-7.99l1.26.54Zm11.59,17.21h-1.26v-1.15h-8.58v1.15h-1.26v-17.02h11.1v17.02Zm-1.26-2.38v-13.41h-8.58v13.41h8.58Zm-4.87-10.27v-2.26h1.26v2.21h2.8v1.26h-2.8v2.26h2.02v5.5h-5.21v-5.5h1.98v-2.26h-2.83v-1.26l2.78.05Zm2.13,4.57h-2.96v3.27h3.01l-.05-3.27Z"/>
      <path class="cls-25" d="m59.72,106.35c.93,5.06,4.01,9.46,8.43,12.08l-.91,1.26c-3.83-2.43-6.68-6.15-8.02-10.48-1.31,4.42-4.25,8.17-8.22,10.5l-.85-1.26c5.32-3.28,8.08-7.72,8.26-13.31v-3.09h1.41c.04,1.65-.03,3.09-.1,4.3Z"/>
      <path class="cls-25" d="m77.38,102.17c-.26.48-.54.95-.83,1.4h7.35v1.12c-1.14,1.59-2.54,2.97-4.12,4.11,2.37,1.23,4.93,2.04,7.57,2.42l-.61,1.26c-2.89-.44-5.67-1.42-8.2-2.9-2.55,1.47-5.35,2.48-8.25,2.98l-.61-1.26c2.67-.39,5.25-1.25,7.63-2.52-1.06-.76-2.02-1.65-2.85-2.65-.83.89-1.75,1.69-2.74,2.4l-.9-1.1c2.1-1.45,3.85-3.36,5.11-5.59l1.44.33Zm6.67,17.66h-1.32v-.93h-8.2v.93h-1.37v-7.34h10.9v7.34Zm-1.39-2.3v-3.78h-8.14v3.78h8.14Zm-4.11-9.45c1.35-.89,2.57-1.98,3.61-3.22h-6.55c-.11.11-.21.22-.29.35.92,1.11,2.01,2.08,3.23,2.86h0Z"/>
      <path class="cls-25" d="m95.35,103.9v1.36h-2.21v9.35c.83-.31,1.63-.67,2.42-1.07v1.34c-1.92.93-3.93,1.67-5.99,2.23l-.32-1.26c.86-.2,1.68-.42,2.52-.68v-9.85h-2.36v-1.36l5.93-.05Zm5.05,13.13c-1.27,1.14-2.7,2.09-4.25,2.81l-.76-.98c1.49-.66,2.86-1.55,4.07-2.64l.93.81Zm-.23-11.44c.22-.52.38-1.06.5-1.61h-4.57v-1.26h10.55v1.26h-4.63c-.11.55-.26,1.09-.45,1.61h4.11v10.39h-8.65v-10.39h3.14Zm4.16,3.04v-1.88h-5.97v1.89h5.97Zm0,3.09v-1.98h-5.97v1.98h5.97Zm0,1.08h-5.97v2.03h5.97v-2.03Zm2.52,6.07l-.9.92c-1.16-1.05-2.43-1.97-3.78-2.76l.83-.79c1.35.76,2.63,1.65,3.82,2.64h.03Z"/>
      <path class="cls-25" d="m116.79,109.27v-4.25h0c-2,2.19-4.56,3.8-7.4,4.64l-.74-1.26c2.55-.6,4.94-1.76,6.99-3.39h-6.09v-1.26h7.25v-1.79h1.26v1.79h7.29v1.26h-7.29v.66c2.75.74,5.45,1.63,8.09,2.69l-.88,1.01c-2.35-1.03-4.76-1.93-7.2-2.7v2.6h5.12v7.14h-11.61v-7.13h5.22Zm8.98,8.65v1.26h-16.71v-1.26h16.71Zm-3.94-5.65v-1.77h-8.83v1.77h8.83Zm0,1.19h-8.83v1.72h8.83v-1.72Z"/>
      <path class="cls-25" d="m130.78,104.54c-.28-.77-.62-1.51-1.01-2.23l1.34-.37c.37.76.68,1.54.93,2.35l-.67.25h2.85v1.26h-6.08v-1.26h2.64Zm-.9,15.25h-1.32v-6.84h5.22v6.52h-1.26v-.91h-2.62v1.22Zm3.72-12.43v1.26h-4.87v-1.26h4.87Zm0,2.66v1.26h-4.87v-1.26h4.87Zm-1.1,4.18h-2.62v3.08h2.62v-3.08Zm2.38-5.22l-.82-1.07c1.52-1.7,2.55-3.78,3-6.02l1.36.2c-.15.66-.35,1.26-.54,1.92h7.04c0,7.1-.09,11.5-.29,13.18-.03,1.39-1.19,2.5-2.58,2.47-.04,0-.09,0-.13,0-.4,0-1.11,0-2.12-.08l-.33-1.26c.86,0,1.61.08,2.26.08.92,0,1.48-.58,1.6-1.73s.21-5.05.25-11.35h-6.22c-.36.78-.78,1.52-1.26,2.23h5.29v8.92h-5.56v-8.55l-.95,1.07Zm5.21,2.37v-2.65h-3.03v2.65h3.03Zm0,1.16h-3.03v2.75h3.03v-2.75Z"/>
      <path class="cls-25" d="m148.89,104.12v-1.26h11.78v.73c-.28,1.57-.7,3.11-1.26,4.6h3.78v1.26c-.62,2.48-1.93,4.74-3.78,6.5,1.65,1.12,3.43,2.03,5.3,2.71l-.95,1.26c-1.94-.76-3.77-1.77-5.45-3.01-1.78,1.33-3.77,2.36-5.88,3.05l-.71-1.26c1.95-.62,3.78-1.54,5.44-2.74-1.88-1.7-3.19-3.93-3.78-6.4h-.32c-.53,4.52-2.02,7.94-4.47,10.28l-1.06-.93c2.83-2.64,4.29-6.86,4.33-12.69v-1.98l-2.98-.13Zm9.13,4.02c.48-1.31.86-2.66,1.14-4.02h-6.04v1.99c0,.71,0,1.37-.08,2.04h4.98Zm3.66,1.26h-7.2c.63,2.17,1.91,4.1,3.67,5.51,1.64-1.48,2.85-3.37,3.53-5.47v-.04Z"/>
      <path class="cls-25" d="m170.19,104.55c-.33-.78-.73-1.53-1.19-2.25l1.35-.37c.41.76.77,1.54,1.08,2.35l-.76.26h3.41v1.26h-7.23v-1.26h3.33Zm3.18,13.99h-4.53v.96h-1.26v-6.55h5.85l-.06,5.59Zm-.13-11.15v1.26h-5.58v-1.26h5.58Zm0,2.67v1.26h-5.58v-1.26h5.58Zm-1.15,7.22v-3.1h-3.25v3.1h3.25Zm10.97-6.99v1.26c-.5,1.72-1.41,3.3-2.65,4.59,1.3,1.05,2.74,1.9,4.29,2.52l-.76,1.2c-1.62-.71-3.13-1.64-4.49-2.78-1.54,1.24-3.31,2.18-5.2,2.78l-.76-1.19c1.78-.55,3.45-1.4,4.93-2.52-1.19-1.25-2.05-2.78-2.52-4.44h-1.26v-1.36l8.41-.06Zm-1.1-7.57v4.19c0,.49.25.74.79.74h1.38v1.26h-1.75c-1.26,0-1.84-.58-1.84-1.73v-3.15h-3.03v.87c.03,1.89-1.02,3.62-2.7,4.48l-.92-1.02c1.35-.56,2.23-1.86,2.25-3.32v-2.33h5.83Zm-2.52,12.48c.99-1.03,1.78-2.24,2.31-3.57h-4.42c.39,1.35,1.1,2.58,2.07,3.6l.04-.03Z"/>
      <path class="cls-25" d="m200.73,107.76v1.26h-4.92v3.41h5.78v1.26h-5.78v4.01c1.63.22,3.27.33,4.92.33,1,0,2.01,0,3.05-.11l-.25,1.4h-2.22c-2.85.15-5.71-.21-8.43-1.08-1.29-.61-2.37-1.59-3.12-2.8-.68,1.55-1.62,2.97-2.8,4.19l-.9-1.1c1.99-2.25,3.3-5.01,3.78-7.97l1.35.23c-.22,1.13-.51,2.23-.88,3.32.71,1.47,1.96,2.6,3.48,3.17l.57.15v-8.45h-5.05v-1.26l11.4.06Zm2.22.35h-1.36v-2.85h-13.16v2.94h-1.35v-4.23h7.4c-.28-.66-.6-1.3-.97-1.92l1.5-.24c.34.7.63,1.42.88,2.16h7.05v4.14Z"/>
      <path class="cls-25" d="m30.77,150.08l-.23-.73c1.07-1.57,1.85-3.32,2.28-5.17l.62.3c-.23.89-.54,1.76-.91,2.6v8.74h-.66v-7.43c-.33.59-.7,1.15-1.11,1.69Zm5.25-4.63v.59c-.46,1.03-.99,2.02-1.6,2.96h1.64v.38c0,1.38-.27,2.74-.79,4.01.39.47.88.84,1.44,1.1,1.05.36,2.16.53,3.27.49h2.3l-.14.67h-1.7c-1.49.12-2.99-.13-4.36-.73-.42-.23-.8-.53-1.11-.9-.42.7-.98,1.31-1.64,1.78l-.34-.61c.64-.44,1.16-1.03,1.54-1.7-.58-.87-1.01-1.84-1.26-2.85l.58-.21c.18.84.51,1.64.97,2.36.39-1.03.6-2.13.63-3.23h-1.87v-.49c.64-.93,1.21-1.92,1.68-2.95h-1.7v-.67h2.49Zm3.24,3.96v1.16h2.42v.57h-2.42v1.12h2.81v.53h-2.81v1.44h-.68v-1.44h-2.26v-.58h2.26v-1.12h-1.85v-.57h1.85v-1.16h-1.73v-.57h1.73v-1.26h-2.26v-.58h2.26v-1.26h-1.73v-.58h1.73v-1.03h.67v1.03h2.11v1.78h.88v.58h-.88v1.77l-2.09.18Zm0-2.35h1.48v-1.26h-1.48v1.26Zm0,1.78h1.48v-1.26h-1.48v1.26Z"/>
      <path class="cls-25" d="m46.9,144.43c-.31.94-.7,1.85-1.17,2.72v8.69h-.71v-7.57c-.46.68-.97,1.33-1.53,1.93l-.23-.73c1.36-1.57,2.38-3.41,2.98-5.4l.66.35Zm2.67,7.78c-.75,1.09-1.67,2.05-2.74,2.84l-.43-.54c1.04-.76,1.95-1.68,2.69-2.74l.48.44Zm4.12-7.43v3.86h-2.61v1.63h3.78v.68h-3.78v4.91h-.69v-4.91h-3.62v-.68h3.62v-1.59h-2.59v-3.86l5.89-.04Zm-.68.66h-4.53v2.52h4.53v-2.52Zm2.09,9.06l-.47.5c-.82-1.02-1.74-1.96-2.72-2.81l.43-.48c1,.84,1.93,1.78,2.76,2.79h0Z"/>
      <path class="cls-25" d="m61.69,144.2v1.7h4.25v.67h-4.25v2.12h5.9v.68h-5.9v1.37c1.51.72,3.07,1.56,4.64,2.52l-.39.58c-1.68-1.03-3.09-1.83-4.25-2.4v4.36h-.69v-6.43h-4.67v-.68h4.67v-4.49h.69Z"/>
      <path class="cls-25" d="m29.97,195.35l-.15-.67h1c.32,0,.57-.2.57-.59v-3.41c-.56.24-1.14.45-1.7.64l-.19-.69c.64-.17,1.28-.39,1.89-.64v-3.09h-1.63v-.68h1.63v-2.4h.69v2.4h1.54v.68h-1.54v2.8c.5-.26,1.01-.53,1.49-.81v.69c-.48.28-.98.54-1.49.78v3.9c.07.5-.29.97-.79,1.03-.08,0-.15.01-.23,0l-1.08.05Zm10.09-5.97v.66c-.4,1.23-1.12,2.33-2.07,3.2,1.01.7,2.12,1.27,3.28,1.68l-.37.59c-1.21-.46-2.35-1.09-3.39-1.85-1.14.85-2.42,1.48-3.78,1.87l-.37-.58c1.27-.38,2.47-.97,3.54-1.74-.96-.83-1.68-1.92-2.07-3.13h-.82v-.71h6.04Zm-.87-4.96v2.81c0,.33.18.49.54.49h1.15v.64h-1.26c-.72,0-1.07-.34-1.07-1.02v-2.27h-2.7v.86c0,1.18-.68,2.25-1.74,2.75l-.48-.54c.9-.33,1.51-1.17,1.54-2.13v-1.59h4.02Zm-1.74,8.38c.84-.75,1.5-1.68,1.92-2.72h-3.78c.36,1.07,1.02,2.01,1.89,2.72h-.03Z"/>
      <path class="cls-25" d="m45.84,184.1c-.31.95-.7,1.86-1.17,2.74v8.69h-.71v-7.57c-.46.68-.97,1.33-1.53,1.93l-.24-.73c1.37-1.56,2.39-3.41,2.99-5.4l.66.34Zm2.67,7.8c-.75,1.09-1.67,2.05-2.74,2.84l-.44-.54c1.05-.76,1.96-1.68,2.7-2.74l.48.44Zm4.12-7.43v3.86h-2.61v1.59h3.78v.72h-3.78v4.91h-.69v-4.91h-3.62v-.68h3.62v-1.59h-2.52v-3.86l5.83-.04Zm-.69.66h-4.53v2.52h4.52v-2.52Zm2.09,9.06l-.45.5c-.82-1.02-1.74-1.96-2.74-2.81l.44-.48c1,.84,1.92,1.77,2.75,2.79h0Z"/>
      <path class="cls-25" d="m59.3,185.59v.64h-4.09v-.64h4.09Zm-3.1,9.84h-.68v-4.33h3.39v4.18h-.66v-.63h-2.01l-.05.78Zm2.64-8.02v.63h-3.23v-.63h3.23Zm0,1.78v.64h-3.23v-.64h3.23Zm-.58,2.52h-2.01v2.26h2.06l-.05-2.26Zm-.62-6.47l-.61.21c-.17-.52-.38-1.03-.62-1.53l.67-.18c.23.5.41,1.02.56,1.55v-.06Zm5.05-.9v.49c-.47,1.76-1.58,3.28-3.12,4.25l-.42-.5c.65-.39,1.22-.88,1.7-1.46-.39-.39-.82-.76-1.26-1.1l.43-.4c.45.31.87.66,1.26,1.03.36-.52.65-1.1.85-1.7h-2.14v-.61h2.7Zm-1.16,10.09c-.22-.49-.5-.96-.82-1.39l.61-.24c.37.5.66,1.05.88,1.63h1.68c.31-.53.58-1.09.79-1.67l.64.24c-.21.5-.47.98-.77,1.43h2.02v.63h-7.03v-.63h1.99Zm4.09-4.98v2.91h-5.29v-2.91h5.29Zm-.64.59h-4v1.85h4.11l-.11-1.85Zm-.23-2.52v.62h-3.31v-.62h3.31Zm-.56-2.52c.43-.37.81-.79,1.14-1.26l.48.42c-.4.51-.86.96-1.39,1.34.18.35.37.68.58,1.01.48-.39.9-.85,1.26-1.35l.45.4c-.38.54-.83,1.01-1.35,1.41.41.54.88,1.02,1.4,1.45l-.43.48c-1.47-1.27-2.53-2.95-3.05-4.82l.52-.3c.11.47.26.92.44,1.36l-.05-.14Z"/>
      <path class="cls-25" d="m72.11,193.27h-2.91v1.06h-.69v-9.65h3.61v8.59Zm-.68-4.69v-3.23h-2.23v3.23h2.23Zm0,4.01v-3.34h-2.23v3.34h2.23Zm1.41,2.94l-.54-.5c.92-1.42,1.38-3.08,1.34-4.77v-5.93h5.05v10c.07.51-.29.98-.8,1.05-.08.01-.16.01-.24,0h-1.7l-.19-.67h1.67c.38,0,.57-.21.57-.64v-2.89h-3.7c-.08,1.55-.57,3.06-1.44,4.35h0Zm1.5-5.32v.33h3.66v-2.42h-3.65v2.09Zm3.65-5.21h-3.65v2.52h3.65v-2.52Z"/>
      <path class="cls-25" d="m34.8,223.99c-.75,2.21-2.06,4.2-3.78,5.78l-.56-.49c1.7-1.48,2.96-3.4,3.65-5.55l.69.26Zm6.06,10.52l-.64.3c-.2-.44-.4-.85-.61-1.26-2.3.37-4.84.64-7.64.82l-.14-.68c1.1-.72,2.4-2.79,3.86-6.18l.68.21c-.87,2.13-2.03,4.13-3.46,5.94,2.11-.13,4.22-.37,6.31-.71-.52-.93-1.1-1.83-1.73-2.7l.62-.21c1.08,1.39,2.02,2.89,2.8,4.47h-.05Zm-2.17-10.85c.39,2.16,1.52,4.12,3.19,5.54l-.56.49c-1.59-1.41-2.7-3.29-3.17-5.36h-2.23v-.67h2.76Z"/>
      <path class="cls-25" d="m44.79,230.54c-.13,1.49-.56,2.93-1.26,4.25l-.49-.49c.76-1.47,1.15-3.1,1.16-4.76v-5.24c1.23-.11,2.43-.47,3.52-1.06l.47.5c-1.04.58-2.19.94-3.37,1.07v1.68h3.29v4.04h-3.32Zm.06-1v.34h2.65v-2.66h-2.61l-.04,2.32Zm5.16.33c.07,1.69-.23,3.38-.87,4.94l-.63-.33c.64-1.45.94-3.03.88-4.62v-5.68c1.55-.02,3.08-.33,4.52-.91l.34.62c-1.35.52-2.79.82-4.24.87v2.45h4.73v.67h-1.53v6.9h-.67v-6.96h-2.52v2.04Z"/>
      <path class="cls-25" d="m56.33,234.66l-.15-.66h.98c.3,0,.58-.2.58-.61v-3.39c-.56.23-1.14.45-1.72.64l-.18-.69c.64-.18,1.27-.39,1.89-.64v-3.09h-1.63v-.68h1.63v-2.4h.69v2.4h1.59v.68h-1.54v2.79c.5-.25,1.01-.52,1.49-.79v.68c-.48.28-.98.56-1.49.79v3.89c.07.5-.27.96-.76,1.03-.09.01-.17.01-.26,0l-1.14.05Zm10.09-5.95v.66c-.4,1.23-1.12,2.33-2.07,3.2,1.01.7,2.12,1.27,3.28,1.68l-.37.59c-1.21-.46-2.35-1.08-3.39-1.85-1.14.85-2.42,1.48-3.78,1.87l-.37-.58c1.27-.38,2.47-.97,3.54-1.74-.96-.83-1.68-1.92-2.07-3.13h-.83v-.69h6.06Zm-.87-4.97v2.83c0,.32.18.48.54.48h1.15v.66h-1.26c-.71,0-1.06-.34-1.06-1.02v-2.27h-2.7v.86c0,1.18-.68,2.25-1.75,2.74l-.47-.53c.9-.33,1.51-1.17,1.53-2.13v-1.6h4.02Zm-1.74,8.39c.84-.75,1.5-1.68,1.92-2.72h-3.78c.36,1.06,1.01,2,1.87,2.72Z"/>
      <path class="cls-25" d="m72.2,223.43c-.31.94-.71,1.86-1.17,2.74v8.69h-.71v-7.57c-.44.68-.93,1.33-1.46,1.94l-.24-.72c1.37-1.57,2.38-3.41,2.99-5.4l.59.32Zm2.67,7.78c-.75,1.09-1.68,2.06-2.74,2.85l-.44-.56c1.05-.75,1.96-1.67,2.7-2.72l.48.43Zm4.12-7.43v3.87h-2.57v1.58h3.78v.69h-3.78v4.86h-.68v-4.91h-3.63v-.69h3.63v-1.58h-2.6v-3.87l5.85.05Zm-.69.67h-4.52v2.52h4.52v-2.52Zm2.09,9.04l-.45.52c-.83-1.02-1.74-1.97-2.74-2.83l.44-.47c1,.85,1.92,1.78,2.75,2.8v-.03Z"/>
      <path class="cls-25" d="m84.97,223.43c-.31.94-.71,1.86-1.17,2.74v8.69h-.71v-7.57c-.46.68-.97,1.32-1.53,1.92l-.24-.72c1.37-1.57,2.39-3.41,2.99-5.4l.66.34Zm2.67,7.78c-.75,1.1-1.67,2.06-2.74,2.85l-.44-.56c1.05-.75,1.96-1.67,2.7-2.72l.48.43Zm4.12-7.43v3.87h-2.61v1.58h3.78v.69h-3.78v4.86h-.69v-4.91h-3.62v-.69h3.62v-1.58h-2.59v-3.87l5.89.05Zm-.69.67h-4.55v2.52h4.52l.04-2.52Zm2.09,9.04l-.45.52c-.83-1.02-1.74-1.97-2.74-2.83l.44-.47c1,.85,1.92,1.78,2.75,2.8v-.03Z"/>
      <path class="cls-25" d="m98.29,223.76v.56c-.35,1.2-.76,2.45-1.26,3.72.66.86,1.06,1.88,1.17,2.95.02.41-.11.81-.37,1.12-.48.33-1.07.49-1.65.45l-.23-.68h.38c.33,0,.66-.07.95-.24.18-.18.27-.43.24-.68-.08-1.05-.49-2.05-1.17-2.85.53-1.37.93-2.61,1.26-3.71h-2.11v10.38h-.69v-11.06l3.48.04Zm.09,10.99l-.48-.42c1.1-.83,1.94-1.95,2.42-3.24l.59.23c-.14.34-.31.68-.49,1,.48.32.93.68,1.36,1.06l-.44.44c-.36-.38-.76-.73-1.19-1.03-.46.77-1.07,1.45-1.78,2.01v-.04Zm.08-8.02l-.37-.56c1.42-.63,2.65-1.61,3.57-2.86h.61c.92,1.25,2.16,2.22,3.58,2.83l-.37.56c-1.39-.59-2.61-1.53-3.52-2.74-.59.77-1.3,1.44-2.11,1.98h4.18v.62h-4.21v-.59c-.44.29-.89.54-1.36.77h0Zm3.08.92v3h-2.72v-3h2.72Zm-.57.57h-1.58v1.87h1.58v-1.87Zm.86,6.53l-.48-.42c1.06-.83,1.88-1.93,2.37-3.19l.58.23c-.16.38-.34.74-.56,1.1.74.5,1.43,1.06,2.07,1.69l-.44.44c-.58-.61-1.22-1.16-1.9-1.65-.44.7-.99,1.32-1.64,1.84v-.04Zm3.41-7.1v3h-2.72v-3h2.72Zm-.58.57h-1.55v1.87h1.55v-1.87Z"/>
      <path class="cls-25" d="m108.53,225.65l-.57.3c-.27-.69-.59-1.36-.97-1.99l.56-.2c.38.6.71,1.24.98,1.89Zm1.17-2.46v3.25h1.19v-3.25h.64v3.25h1.65v.67h-.91l-.62,1.79h1.43v.63h-2.45v1.56h2.19v.63h-2.19v1.85c.97-.1,1.83-.21,2.59-.34v.62c-1.97.32-3.95.52-5.94.61l-.1-.66c1,0,1.93-.09,2.78-.15v-1.93h-2.21v-.63h2.21v-1.56h-2.52v-.63h1.41l-.48-1.79h-1.26v-.67h1.92v-3.25h.68Zm1.26,5.71l.64-1.79h-2.59l.48,1.79h1.46Zm2.52-5.05c-.21.73-.52,1.43-.92,2.07l-.57-.2c.4-.63.7-1.32.9-2.04l.59.18Zm2.14,7.34l-.59.25c-.4-1.06-.9-2.09-1.49-3.07l.59-.2c.59.94,1.1,1.92,1.51,2.95l-.03.06Zm.98-5.26v-2.76h.68v2.7h1.26v.67h-1.26v7.23c.06.49-.28.94-.78,1-.09.01-.17,0-.26,0h-1.6l-.14-.67h1.5c.28.04.55-.15.59-.43,0-.04,0-.09,0-.14v-7.04h-2.95v-.67l2.95.11Z"/>
      <path class="cls-25" d="m124.87,223.27l-.78.79h4.21v.47c-.45.46-.95.89-1.48,1.26h3.58v2.69h-4.55l-.37.28c.55.45,1,.99,1.35,1.6l.13.18c1.18-.36,2.29-.9,3.29-1.61l.47.52c-1.02.67-2.13,1.2-3.29,1.56,1.16,1.1,2.5,1.99,3.97,2.62l-.35.59c-1.37-.63-2.63-1.48-3.72-2.52.05.26.09.53.1.79.07.66-.12,1.32-.52,1.84-.47.35-1.03.55-1.61.57h-.85l-.21-.63h.98c.4,0,.79-.14,1.11-.38.32-.39.46-.9.4-1.4-.01-.23-.04-.46-.08-.68-1.82,1.24-3.86,2.14-6,2.65l-.35-.58c2.22-.5,4.31-1.42,6.18-2.71-.12-.33-.28-.64-.48-.93-1.58,1.09-3.35,1.86-5.22,2.28l-.34-.58c1.85-.4,3.61-1.15,5.18-2.2-.21-.25-.44-.48-.68-.69-1.35.73-2.8,1.27-4.3,1.6l-.37-.59c1.65-.26,3.24-.8,4.69-1.61h-3.62v-2.52c-.33.18-.66.33-1,.48l-.44-.53c1.58-.59,3.02-1.52,4.2-2.72l.76.13Zm1.05,2.52c.53-.34,1.03-.72,1.49-1.15h-4c-.56.44-1.16.82-1.79,1.15h4.3Zm-.4.59h-3.43v1.48h3.43v-1.48Zm4.2,0h-3.52v1.48h3.52v-1.48Z"/>
      <path class="cls-25" d="m31.72,271.19c-.06,1.05-.22,2.09-.5,3.1l-.57-.18c.28-.98.45-1.99.49-3l.58.08Zm2.85-.85l-.54.14c0-.26-.11-.49-.16-.72-.97.28-1.96.48-2.96.61l-.18-.59c.12-.03.22-.1.3-.19.67-.77,1.25-1.62,1.73-2.52-.67.11-1.26.21-1.92.29l-.16-.62c.12-.06.21-.15.28-.26.7-1.19,1.25-2.46,1.67-3.78l.62.26c-.47,1.29-1.08,2.53-1.82,3.7.56-.06,1.12-.15,1.68-.25l.79-1.55.59.24c-.78,1.61-1.73,3.14-2.83,4.55.7-.1,1.39-.25,2.07-.44-.14-.45-.28-.9-.42-1.26l.52-.16c.3.84.55,1.7.74,2.57h0Zm-1.16,3.38l-.58.13c-.12-.88-.29-1.76-.5-2.62l.52-.13c.21.81.4,1.68.57,2.62h0Zm1.44-.78l-.52.24c-.2-.77-.45-1.52-.74-2.26l.49-.16c.28.71.52,1.44.72,2.18h.05Zm4.33,1.34l-.19-.63h1.61c.33,0,.49-.18.49-.53v-9.08h-5.29v10.29h-.64v-10.91h6.57v9.86c0,.67-.32,1-.93,1h-1.63Zm.72-9.54c-.13.65-.33,1.28-.62,1.88h1.19v.62h-4.02v-.62h2.3c.27-.63.47-1.29.58-1.97l.58.09Zm-2.72,6.62v-1.77h-.61v-.61h1.74c-.14-.43-.32-.86-.53-1.26l.61-.1c.19.44.36.89.49,1.35h1.48v.61h-2.52v1.78c0,.24.13.37.4.37h1.96v.58h-2.14c-.61-.05-.87-.34-.87-.95Zm.92-5.05l-.5.23c-.2-.55-.45-1.08-.74-1.59l.53-.18c.27.5.51,1.01.72,1.54h0Z"/>
      <path class="cls-25" d="m47.83,263.4v3.78h-1.26v2.25h1.43v.68h-1.46v2.67c.59-.19,1.17-.4,1.73-.61v.69c-1.53.56-3.08,1.03-4.67,1.4l-.18-.68.72-.16v-4.77h.63v4.6l1.11-.29v-5.76h-1.8v-3.78l3.76-.03Zm-.67.67h-2.42v2.52h2.42v-2.52Zm3.92-1.15c-.11.35-.24.7-.39,1.03h3.29v.52c-.48,1.1-1.17,2.09-2.02,2.94.94.78,2.02,1.36,3.19,1.7l-.4.57c-1.21-.37-2.33-1-3.28-1.84-.95.78-2.02,1.42-3.15,1.89l-.43-.57c1.11-.45,2.16-1.05,3.1-1.79-.5-.55-.93-1.16-1.26-1.83-.36.43-.77.82-1.2,1.17l-.42-.53c1.11-.86,1.92-2.04,2.33-3.38l.63.11Zm2.89,11.5h-.67v-.53h-3.54v.59h-.67v-4.63h4.88v4.57Zm-.67-1.26v-2.76h-3.54v2.76h3.54Zm-1.84-6.24c.72-.68,1.32-1.47,1.77-2.36h-2.88l-.26.42c.35.72.82,1.39,1.37,1.97v-.03Z"/>
      <path class="cls-25" d="m64.87,268.29c-.59,1.15-1.38,2.19-2.32,3.08,1.55,1.13,3.3,1.94,5.16,2.4l-.4.63c-1.91-.48-3.71-1.34-5.29-2.52-1.54,1.26-3.35,2.15-5.29,2.6l-.42-.61c1.88-.45,3.64-1.28,5.17-2.45-.97-.84-1.78-1.84-2.38-2.96l.59-.35c.59,1.09,1.37,2.06,2.31,2.86.92-.84,1.68-1.85,2.23-2.96l.63.29Zm-3.09-3.86c-.21-.54-.47-1.06-.79-1.55l.76-.13c.31.54.57,1.1.78,1.68h5.05v.63h-11.2v-.66l5.41.03Zm-1.32,1.68c-1.01,1.29-2.22,2.41-3.6,3.31l-.45-.58c1.35-.85,2.55-1.93,3.53-3.19l.52.47Zm7.03,2.95l-.5.5c-1.06-1.27-2.24-2.42-3.53-3.46l.48-.47c1.3,1.02,2.49,2.16,3.56,3.42h0Z"/>
      <path class="cls-25" d="m70.94,267.67v-4.33h7.67v4.33h-5.05c-.27.43-.58.82-.95,1.17h6.88c0,1.35-.11,2.43-.21,3.27-.06.62-.27,1.21-.61,1.73-.33.34-.79.52-1.26.52h-1.58l-.16-.67h1.41c.57.07,1.12-.26,1.32-.79.29-1.13.44-2.29.43-3.46h-1.43c-.94,2.35-2.88,4.17-5.3,4.94l-.38-.57c2.24-.65,4.08-2.25,5.05-4.38h-1.9c-1.05,1.59-2.59,2.79-4.39,3.41l-.44-.54c1.63-.51,3.07-1.51,4.11-2.86h-2.16c-.7.53-1.47.97-2.27,1.32l-.39-.61c1.41-.49,2.65-1.36,3.58-2.52l-1.98.04Zm6.98-2.46v-1.26h-6.31v1.26h6.31Zm0,.58h-6.31v1.26h6.31v-1.26Z"/>
      <path class="cls-25" d="m85.94,272.24h-2.91v1.06h-.68v-9.65h3.6v8.59Zm-.68-4.65v-3.23h-2.23v3.23h2.23Zm0,4.02v-3.39h-2.23v3.36l2.23.04Zm1.43,2.93l-.56-.49c.92-1.42,1.38-3.09,1.34-4.78v-5.93h5.05v10c.07.51-.29.98-.8,1.05-.08.01-.16.01-.24,0h-1.69l-.2-.67h1.67c.38,0,.58-.23.58-.66v-2.89h-3.71c-.08,1.54-.57,3.04-1.43,4.33v.04Zm1.49-5.32v.34h3.67v-2.41h-3.66v2.07Zm3.66-5.2h-3.66v2.52h3.66v-2.52Z"/>
      <path class="cls-25" d="m95.68,271.29c-.06,1.03-.24,2.04-.54,3.03l-.63-.19c.34-.94.54-1.92.59-2.91l.58.08Zm3.25-1.01l-.56.24c-.09-.29-.18-.56-.26-.81-1.05.34-2.13.58-3.23.73l-.18-.61c.11-.04.22-.11.3-.19.71-.85,1.32-1.77,1.84-2.75-.74.14-1.46.26-2.16.37l-.16-.61c.11-.05.21-.14.28-.24.69-1.13,1.25-2.34,1.68-3.6l.64.25c-.48,1.24-1.09,2.42-1.82,3.53.63-.09,1.26-.2,1.88-.34l.76-1.5.59.25c-.81,1.68-1.79,3.28-2.93,4.76.78-.14,1.55-.33,2.31-.58-.2-.45-.39-.86-.57-1.26l.52-.2c.42.82.78,1.67,1.06,2.55Zm-1.69,3.61l-.62.08c-.01-.94-.11-1.89-.29-2.81l.57-.06c.19.92.31,1.86.34,2.8Zm1.6-.96l-.54.23c-.18-.75-.41-1.49-.68-2.22l.52-.2c.28.73.52,1.47.71,2.23v-.04Zm1.17.54v.91h-.63v-10.51h6.23v10.51h-.64v-.91h-4.96Zm0-8.97v3.78h2.14v-3.78h-2.14Zm0,4.4v3.94h2.14v-3.94h-2.14Zm4.96-.64v-3.78h-2.17v3.78h2.17Zm0,4.58v-3.94h-2.17v3.94h2.17Z"/>
      <path class="cls-25" d="m112.1,270.35l-.59.16c-.06-.26-.13-.49-.19-.72-1.22.34-2.46.59-3.71.76l-.19-.66c.12-.04.22-.11.32-.19.72-.77,1.35-1.62,1.88-2.52-.69.11-1.37.21-2.04.29l-.16-.64c.12-.06.22-.14.29-.25.73-1.19,1.34-2.46,1.79-3.78l.64.25c-.5,1.3-1.15,2.53-1.93,3.68.59,0,1.19-.14,1.79-.24l.92-1.69.62.25c-.87,1.68-1.91,3.27-3.1,4.74.92-.14,1.83-.33,2.72-.58-.15-.48-.32-.95-.49-1.41l.54-.18c.37.88.67,1.79.9,2.72Zm-3.51,1.01c-.06,1-.22,2-.49,2.96l-.64-.2c.29-.92.46-1.87.5-2.84l.63.08Zm1.82,2.52l-.62.14c-.11-1.02-.25-1.92-.42-2.7l.61-.14c.16.78.3,1.68.43,2.71h0Zm1.69-.62l-.62.15c-.17-.8-.38-1.58-.63-2.36l.56-.18c.29.76.52,1.54.69,2.33v.05Zm6.22.29c-.31.43-.83.65-1.35.58h-3.04c-.72,0-1.06-.33-1.06-.98v-5.56h4.35v-3.53h-4.69v-.67h5.36v4.88h-4.33v4.55c0,.35.19.53.61.54h2.69c.4.05.79-.17.96-.54.19-.68.29-1.39.29-2.09l.69.23c0,.87-.15,1.74-.48,2.55v.05Z"/>
      <path class="cls-25" d="m122.72,263.02c.74.73,1.45,1.53,2.17,2.37l-.43.47c-.72-.9-1.35-1.63-1.9-2.19-.66,1.09-1.43,2.11-2.31,3.04l-.39-.52c.9-.96,1.68-2.03,2.35-3.17h.52Zm-1.78,3.57v-.61h3.1v.61h-1.26v1.63h1.72v.63h-1.72v4.09c.58-.15,1.12-.32,1.67-.5v.66c-1.34.44-2.7.78-4.09,1.05l-.16-.66c.66-.11,1.26-.24,1.96-.39v-4.24h-1.83v-.64h1.83v-1.63h-1.21Zm.47,5.6l-.52.14c-.15-.85-.34-1.69-.58-2.52l.54-.19c.23.85.42,1.71.56,2.57Zm3.1-2.52c-.15.79-.37,1.56-.64,2.31l-.5-.19c.27-.73.48-1.49.62-2.26l.53.14Zm1.96-6.86l.66.1-.23.77h3.43v.3l-.92,3.61h2.21v.62h-3.09v5.4c.07.4-.2.78-.6.84-.07.01-.15.01-.22,0h-1.08l-.15-.64h.98c.3,0,.43-.14.43-.42v-5.24h-3.14v-.57h3.96l.32-1.17h-3.58l1.03-3.61Zm.74,8.69c-.54.78-1.24,1.43-2.06,1.92l-.33-.56c.84-.46,1.58-1.09,2.17-1.85l.21.49Zm-.13-1.44l-.32.5c-.51-.45-1.09-.82-1.7-1.11l.34-.49c.6.31,1.17.7,1.68,1.15v-.05Zm2.52-5.79h-2.86l-.47,1.53h2.91l.42-1.53Zm2.08,8.7l-.35.53c-.66-.77-1.43-1.45-2.28-2.01l.32-.45c.85.54,1.62,1.19,2.3,1.93h.03Zm-.52-3.78c-.45.54-1.02.97-1.67,1.26l-.32-.47c.57-.26,1.08-.65,1.48-1.14l.5.34Z"/>
      <path class="cls-25" d="m33.44,303.39v-1.03h.69v1.03h4.6v-1.03h.69v1.03h2.33v.59h-2.33v4.42h2.52v.62h-2.83c.77.97,1.82,1.68,3,2.04l-.28.59c-1.39-.49-2.57-1.42-3.39-2.64h-4.09c-.79,1.21-1.93,2.15-3.27,2.69l-.34-.57c1.16-.42,2.18-1.16,2.95-2.12h-2.83v-.62h2.52v-4.42h-2.33v-.59h2.36Zm3.34,6.18v1.11h2.66v.62h-2.66v1.63h4.44v.64h-9.65v-.64h4.49v-1.63h-2.65v-.62h2.65v-1.11h.72Zm1.96-4.48v-1.11h-4.6v1.11h4.6Zm0,1.63v-1.06h-4.6v1.03l4.6.03Zm0,1.68v-1.11h-4.6v1.11h4.6Z"/>
      <path class="cls-25" d="m48.86,304.79v-2.38h.68v2.38h5.05v.64h-4.35c1.02,2.29,2.66,4.24,4.73,5.65l-.45.61c-2.15-1.63-3.82-3.81-4.83-6.31h-.18v5.17h2.84v.68h-2.84v2.7h-.68v-2.7h-2.67v-.68h2.74v-5.12h-.21c-.95,2.6-2.68,4.84-4.96,6.41l-.39-.63c2.16-1.38,3.83-3.4,4.79-5.78h-4.36v-.68l5.11.04Z"/>
      <path class="cls-25" d="m60.03,305.43v.59h-3.65v-.59h3.65Zm.85,7.28c-1.3.63-2.69,1.06-4.12,1.26l-.32-.56c1.42-.21,2.81-.63,4.1-1.26l.34.56Zm-1.12-9.59v.61h-3.09v-.61h3.09Zm6.31,4.04v4.89h-8.09v-4.89h8.09Zm-.68,1.49v-.93h-6.74v.93h6.74Zm0,1.37v-.81h-6.74v.88l6.74-.08Zm0,.49h-6.74v.95h6.74v-.95Zm-4.89-5.37l-.38-.52c.87-.55,1.54-1.37,1.92-2.33l.66.08c-.1.25-.2.49-.32.73h4.65v.5c-.31.62-.69,1.19-1.14,1.72l-.49-.39c.34-.38.64-.81.88-1.26h-4.3c-.42.59-.93,1.11-1.51,1.53l.03-.05Zm3.78-1c-.05.2-.12.4-.21.59.96,1.02,2.25,1.66,3.63,1.82l-.28.58c-1.39-.2-2.67-.87-3.62-1.9-.73.97-1.81,1.61-3.01,1.77l-.33-.5c1.5-.08,2.79-1.09,3.23-2.52l.59.18Zm3.33,9.36l-.21.57c-1.38-.55-2.81-.98-4.26-1.26l.24-.49c1.45.27,2.86.66,4.24,1.19Z"/>
      <path class="cls-25" d="m70.59,308.63c-.25,1.19-.6,2.36-1.05,3.49l-.54-.19c.46-1.11.81-2.27,1.05-3.44l.54.14Zm0-2.52l-.56.14c-.19-.88-.45-1.74-.77-2.59l.59-.19c.27.85.5,1.72.68,2.6l.05.04Zm.76.87v-4.58h.69v4.58h1.87v.68h-1.96v6.31h-.69v-6.31h-2.02v-.68h2.11Zm2.52-3.66c-.07.97-.27,1.92-.59,2.84l-.53-.16c.29-.89.47-1.81.52-2.75l.61.08Zm.19,8.19l-.57.14c-.2-1.05-.44-2.04-.72-3l.47-.18c.31.99.57,1.99.77,3l.05.04Zm5.13-9.07v7.38l1.32-.2.11.66-1.44.21v3.54h-.67v-3.44l-3.95.62-.09-.67,4.04-.62v-7.52l.67.04Zm-1.72,5.97l-.47.45c-.68-.74-1.43-1.41-2.25-1.99l.45-.42c.79.57,1.53,1.21,2.21,1.92l.05.04Zm.34-3.08l-.44.45c-.68-.72-1.44-1.36-2.26-1.92l.45-.42c.79.54,1.53,1.16,2.19,1.84l.05.04Z"/>
      <path class="cls-25" d="m86.52,304.17v.63h-4.69v-.63h4.69Zm-.5,8.98h-3.05v.66h-.64v-4.15h3.7v3.49Zm-.1-7.15v.62h-3.56v-.62h3.56Zm0,1.75v.62h-3.51v-.62h3.51Zm-.53,4.77v-2.26h-2.42v2.26h2.42Zm-.67-8.69l-.61.24c-.21-.54-.48-1.06-.79-1.55l.64-.18c.28.47.52.97.72,1.49h.04Zm7.67,4.09v.64c-.35,1.17-.98,2.23-1.83,3.1.89.74,1.88,1.33,2.95,1.77l-.37.59c-1.11-.48-2.14-1.12-3.05-1.9-1.04.85-2.23,1.49-3.51,1.9l-.39-.58c1.23-.38,2.38-1,3.38-1.82-.85-.84-1.46-1.89-1.79-3.04h-.86v-.63l5.46-.04Zm-.77-5.05v2.83c0,.33.18.5.54.5h1v.63h-1.15c-.72,0-1.07-.34-1.07-1.02v-2.28h-2.22v.69c.01,1.23-.67,2.35-1.77,2.9l-.43-.43c.93-.39,1.54-1.31,1.54-2.32v-1.46l3.56-.04Zm-1.56,8.26c.74-.73,1.31-1.63,1.67-2.61h-3.24c.29,1,.82,1.92,1.54,2.67l.04-.06Z"/>
      <path class="cls-25" d="m104,306.22v.67h-3.32v2.52h3.91v.67h-3.91v2.86c1.09.15,2.19.23,3.29.23h2.03l-.14.67h-1.59c-1.82.1-3.64-.13-5.37-.68-.89-.44-1.62-1.13-2.11-1.99-.44,1.08-1.08,2.07-1.87,2.93l-.45-.56c1.34-1.53,2.21-3.41,2.52-5.42l.66.13c-.15.75-.35,1.49-.59,2.22.45,1.03,1.29,1.84,2.35,2.23l.57.15v-5.87h-3.37v-.67l7.39-.09Zm1.4.11h-.68v-1.94h-8.83v1.99h-.69v-2.66h4.93c-.19-.47-.4-.92-.66-1.35l.73-.13c.24.48.45.97.63,1.48h4.6l-.04,2.61Z"/>
      <line class="cls-14" x1="15.65" y1="130.8" x2="250.76" y2="130.8"/>
      <line class="cls-14" x1="15.65" y1="170.38" x2="250.76" y2="170.38"/>
      <line class="cls-14" x1="15.65" y1="209.94" x2="250.76" y2="209.94"/>
      <line class="cls-14" x1="15.65" y1="289.08" x2="250.76" y2="289.08"/>
      <line class="cls-14" x1="15.65" y1="249.51" x2="250.76" y2="249.51"/>
      <circle class="cls-31" cx="224.16" cy="150.11" r="8.3"/>
      <polyline class="cls-21" points="222.79 147.04 227.18 150.51 222.5 153.35"/>
      <circle class="cls-31" cx="224.16" cy="188.53" r="8.3"/>
      <polyline class="cls-21" points="222.79 185.45 227.18 188.93 222.5 191.77"/>
      <circle class="cls-31" cx="224.16" cy="228.9" r="8.3"/>
      <polyline class="cls-21" points="222.79 225.82 227.18 229.3 222.5 232.14"/>
      <circle class="cls-31" cx="224.16" cy="269.15" r="8.3"/>
      <polyline class="cls-21" points="222.79 266.07 227.18 269.55 222.5 272.38"/>
      <circle class="cls-31" cx="224.16" cy="309.33" r="8.3"/>
      <polyline class="cls-21" points="222.79 306.25 227.18 309.73 222.5 312.57"/>
      <rect class="cls-20" x="12.76" y="89.42" width="240.88" height="40.82" rx="3.92" ry="3.92"/>
      <path class="cls-24" d="m253.51,138.11l-1.49-1.79c-.71-.86-1.85-1.24-2.94-.98-.27.07-.54-.08-.63-.34-1.21-3.41-3.02-6.59-5.34-9.37l-2.96-3.56c-.77-.92-2.02-1.29-3.17-.92-.36.11-.7.29-.98.54-.29.23-.53.52-.71.85-.06.13-.18.22-.32.25h0c-.15.04-.3,0-.43-.08-.75-.52-1.71-.67-2.59-.4-.72.23-1.33.74-1.69,1.4-.07.12-.17.21-.3.25h0c-.15.03-.3,0-.43-.09-.74-.5-1.67-.64-2.52-.39-.36.11-.7.3-.98.54-.26.21-.48.47-.66.76-.07.11-.17.19-.29.23h-.13c-.17.02-.34-.05-.45-.19l-3.94-4.73c-.77-.92-2.02-1.29-3.17-.92-1.13.35-1.93,1.35-2.03,2.52-.08.78.17,1.55.67,2.14l7.2,8.65c.09.11.14.25.13.39l-.49,5.2c-.25,2.67,1.55,5.11,4.19,5.64l8.83,1.82c.3.07.49.36.42.66,0,0,0,.01,0,.02-.28.94-.07,1.95.56,2.7l1.49,1.79c.16.19.43.27.67.19.07-.03.14-.06.2-.11l14.29-11.85c.13-.1.21-.25.23-.42-.03-.16-.11-.3-.24-.4Z"/>
      <path class="cls-12" d="m252.93,135.88l-1.26-1.32c-.82-1-1.68-.54-2.86-.26-1.2-3.72-3-7.22-5.32-10.37-.29-.37-2.69-3.03-2.98-3.38-1.17-1.41-2.12-1.36-3.52-.19-.4.47-.74.99-1,1.55-1.26-.85-2.76-1.72-3.94-.73-.46.53-.86,1.11-1.19,1.73-1.2-.83-2.37-1.64-3.56-.67-.5.77-.94,1.58-1.34,2.41l-5.29-5.9c-1.17-1.41-1.98-2.08-3.39-.92h0c-1.4,1.16-1.59,3.24-.43,4.64,0,0,.01.01.02.02l8.04,9.2-.61,4.34c-.26,2.8.59,5.05,3.36,5.63l8.97,1.45c.95.74.76,2.78,1.49,3.66v1.43c.39.47,1.09.54,1.56.15l13.62-11.35c.52-.35.01-.57-.38-1.08Z"/>
      <polygon class="cls-33" points="238.01 144.1 237.77 146.01 239.43 147.99 253.13 136.56 250.28 133.95 238.01 144.1"/>
      <path class="cls-25" d="m239.6,149.35c-.25.08-.52,0-.68-.2l-1.49-1.79c-.63-.77-.85-1.8-.57-2.75.06-.14.06-.29,0-.43-.09-.13-.22-.22-.37-.25l-8.96-1.84c-2.68-.51-4.53-2.98-4.28-5.69l.49-5.26c.02-.15-.03-.29-.13-.4l-7.27-8.74c-.5-.61-.74-1.39-.68-2.17.07-.78.45-1.5,1.06-2.01.29-.25.63-.44,1-.56,1.15-.37,2.42,0,3.19.93l3.97,4.79c.12.13.29.2.47.19h.11c.13-.04.24-.12.3-.24.18-.29.4-.55.66-.77.3-.24.63-.43,1-.54.89-.28,1.85-.13,2.61.4.13.09.28.11.43.08h0c.13-.05.24-.14.3-.26.19-.33.43-.62.72-.86.29-.25.63-.43,1-.54.88-.29,1.84-.14,2.6.39.13.09.29.12.44.09h0c.13-.04.25-.13.32-.25.17-.33.41-.63.71-.87.3-.24.63-.43,1-.54,1.15-.37,2.42,0,3.19.93l3.08,3.6c2.34,2.82,4.16,6.03,5.39,9.49.09.26.36.4.63.34,1.1-.26,2.25.13,2.98,1l1.48,1.79c.11.12.17.29.15.45-.02.17-.1.32-.23.43l-14.42,11.98c-.06.05-.14.09-.21.11v-.03Zm10.41-14.52c-.21.06-.4.17-.57.32l-10.82,8.98c-.72.61-.82,1.69-.23,2.42l.76.9c.09.11.22.19.37.2h.21l.18-.1,12.61-10.48c.21-.21.21-.55,0-.77l-.74-.9c-.43-.52-1.12-.74-1.77-.57h0Zm-24.84-1.72c-.21.06-.35.25-.37.47l-.29,2.93c-.19,2.06,1.2,3.93,3.23,4.34l10.09,2.07c.09.02.18.02.26,0,.07-.02.13-.06.19-.1l9.76-8.11c.17-.15.24-.38.18-.59-1.18-3.48-2.99-6.72-5.34-9.55l-2.99-3.6c-.44-.54-1.17-.76-1.83-.54-.21.06-.41.17-.58.32-.73.6-.83,1.67-.24,2.4,0,0,0,0,.01.01.11.13.16.3.14.47-.01.17-.09.32-.21.43-.06.05-.14.09-.21.11-.25.08-.52,0-.68-.2l-1.49-1.8c-.45-.53-1.18-.74-1.84-.53-.21.06-.41.17-.58.32-.72.61-.82,1.68-.21,2.41l1.49,1.8c.22.26.2.65-.06.87,0,0,0,0-.01.01-.06.05-.14.09-.21.11-.24.08-.5,0-.67-.19l-3-3.61c-.44-.54-1.17-.76-1.83-.54-.21.06-.41.17-.58.32-.35.29-.57.71-.62,1.16-.04.46.1.91.39,1.26h0l2.95,3.56c.22.27.18.67-.09.89-.06.05-.13.09-.2.11-.24.08-.51,0-.67-.2l-9.08-10.94c-.45-.54-1.18-.74-1.84-.53-.21.07-.41.18-.58.32-.35.3-.57.72-.62,1.17-.04.46.1.91.39,1.26l12.08,14.54c.11.13.16.29.14.45-.01.16-.09.31-.21.42-.06.06-.13.1-.21.13h0c-.24.08-.51,0-.67-.2l-1.39-1.68-1.26-1.58c-.14-.16-.36-.23-.57-.16h-.06Z"/>
    </g>
  </g>
</svg>