<?xml version="1.0" encoding="UTF-8"?>
<svg id="_圖層_2" data-name="圖層 2" xmlns="http://www.w3.org/2000/svg" viewBox="0 0 805.98 487.64">
  <defs>
    <style>
      .cls-1, .cls-2 {
        fill: #fff;
      }

      .cls-1, .cls-2, .cls-3, .cls-4, .cls-5, .cls-6 {
        stroke-miterlimit: 10;
      }

      .cls-1, .cls-2, .cls-3, .cls-5, .cls-6 {
        stroke-width: 2px;
      }

      .cls-1, .cls-3, .cls-4 {
        stroke: #231815;
      }

      .cls-2, .cls-5 {
        stroke: #000;
      }

      .cls-3, .cls-4 {
        fill: #d2d3d3;
      }

      .cls-4 {
        stroke-width: 2.04px;
      }

      .cls-5, .cls-6 {
        fill: none;
      }

      .cls-6 {
        stroke: #c0c1c1;
      }

      .cls-7 {
        fill: #2d2d2d;
      }

      .cls-7, .cls-8, .cls-9 {
        stroke-width: 0px;
      }

      .cls-8 {
        fill: #bf3836;
      }

      .cls-9 {
        fill: #efd23e;
      }
    </style>
  </defs>
  <g id="_圖層_3" data-name="圖層 3">
    <g>
      <g>
        <g>
          <path class="cls-4" d="m23.81,170.07L1.02,421.89c0,8.07,6.64,14.67,14.77,14.67l443,14.01c8.12,0,14.77-6.6,14.77-14.67l-1.34-248.13L23.81,170.07Z"/>
          <path class="cls-3" d="m23.3,170.07L1.02,417.8c0,7.93,6.49,14.42,14.42,14.42l444.35,16.38c7.93,0,7.86-9.11,7.86-17.04l-1.31-243.8L23.3,170.07Z"/>
          <path class="cls-9" d="m23.3,170.07L4.95,415.18c0,7.93,6.49,14.42,14.42,14.42l443.69,16.38c7.93,0,14.42-6.49,14.42-14.42l-1.31-243.8L23.3,170.07Z"/>
        </g>
        <g>
          <path class="cls-1" d="m776.99,437.48l-421.41,49.15c-7.93,0-13.11-3.93-14.42-9.18l-43.91-195.96,424.03-15.07,70.13,152.05c2.62,9.18-6.49,19.01-14.42,19.01Z"/>
          <path class="cls-5" d="m790.1,409.3l-421.41,57.02c-7.93,0-13.11-9.18-14.42-14.42l-57.02-170.4,437.14-47.19,70.13,158.6c2.62,9.18-6.49,16.38-14.42,16.38Z"/>
          <path class="cls-5" d="m788.79,423.07l-421.41,50.46c-7.93,0-13.11-2.62-14.42-7.86l-50.46-171.05,430.59-46.53,70.13,158.6c2.62,9.18-6.49,16.38-14.42,16.38Z"/>
          <path class="cls-1" d="m783.55,431.59l-421.41,49.15c-7.93,0-13.11-3.93-14.42-9.18l-48.5-184.16,428.62-26.87,70.13,152.05c2.62,9.18-6.49,19.01-14.42,19.01Z"/>
          <path class="cls-1" d="m789.45,421.76l-421.41,50.46c-7.93,0-13.11-2.62-14.42-7.86l-55.71-184.16,435.83-33.42,70.13,158.6c2.62,9.18-6.49,16.38-14.42,16.38Z"/>
          <path class="cls-2" d="m790.1,415.86l-421.41,50.46c-7.93,0-13.11-9.18-14.42-14.42l-57.02-170.4,437.14-47.19,70.13,158.6c2.62,9.18-6.49,22.94-14.42,22.94Z"/>
        </g>
        <g>
          <g>
            <g>
              <path class="cls-3" d="m298.56,280.85L698.35,11.49c0-7.93-6.49-10.49-14.42-10.49l-400.44,34.08c-7.93,0-14.42,6.49-14.42,14.42l29.49,231.35"/>
              <path class="cls-3" d="m298.56,280.85L702.94,16.07c0-7.93-6.49-10.49-14.42-10.49l-400.44,34.08c-7.93,0-14.42,6.49-14.42,14.42l24.9,226.76"/>
            </g>
            <path class="cls-1" d="m705.56,14.76l-400.44,34.08c-7.93,0-14.42,6.49-14.42,14.42l6.55,217.59,437.14-47.19-14.42-204.48c0-7.93-6.49-14.42-14.42-14.42Z"/>
          </g>
          <g>
            <line class="cls-6" x1="297.25" y1="124.21" x2="720.63" y2="89.48"/>
            <line class="cls-6" x1="296.6" y1="149.77" x2="723.25" y2="113.07"/>
            <line class="cls-6" x1="297.25" y1="174.68" x2="723.25" y2="138.63"/>
            <line class="cls-6" x1="728.5" y1="162.22" x2="297.25" y2="202.2"/>
            <line class="cls-6" x1="299.22" y1="229.07" x2="728.5" y2="186.47"/>
            <line class="cls-6" x1="299.22" y1="253.32" x2="730.46" y2="210.72"/>
            <line class="cls-6" x1="634.12" y1="96.69" x2="640.67" y2="242.18"/>
            <line class="cls-6" x1="548.92" y1="103.89" x2="554.82" y2="252.01"/>
            <line class="cls-6" x1="463.07" y1="110.45" x2="468.96" y2="260.53"/>
            <line class="cls-6" x1="373.28" y1="117.66" x2="375.24" y2="270.36"/>
            <line class="cls-6" x1="375.24" y1="273.64" x2="434.23" y2="415.86"/>
            <line class="cls-6" x1="471.59" y1="264.46" x2="528.6" y2="404.06"/>
            <line class="cls-6" x1="556.13" y1="254.63" x2="613.8" y2="393.57"/>
            <line class="cls-6" x1="640.67" y1="245.46" x2="700.31" y2="383.74"/>
            <line class="cls-6" x1="305.12" y1="299.85" x2="739.64" y2="253.32"/>
            <line class="cls-6" x1="312.98" y1="323.45" x2="749.47" y2="275.61"/>
            <line class="cls-6" x1="320.19" y1="346.39" x2="759.95" y2="299.2"/>
            <line class="cls-6" x1="769.78" y1="320.83" x2="328.71" y2="372.6"/>
            <line class="cls-6" x1="338.54" y1="396.2" x2="781.58" y2="345.08"/>
            <line class="cls-6" x1="793.38" y1="371.29" x2="347.72" y2="426.34"/>
          </g>
        </g>
        <g>
          <path class="cls-7" d="m60.46,311.06c.55-5.89,3.88-9.27,8.22-9.11s7.07,3.78,6.59,9.66c-.48,5.94-3.86,9.54-8.25,9.38-4.4-.16-7.11-3.99-6.55-9.94Zm12.06.45c.36-4.3-1.26-6.97-4.06-7.07s-4.86,2.42-5.25,6.72c-.39,4.31,1.19,7.17,4.03,7.28s4.93-2.62,5.29-6.93Z"/>
          <path class="cls-7" d="m77.87,311.71c.47-5.88,3.74-9.26,8.06-9.1s7.1,3.78,6.7,9.65c-.4,5.93-3.71,9.53-8.09,9.37-4.39-.16-7.14-3.99-6.67-9.92Zm12.02.45c.3-4.3-1.35-6.96-4.15-7.07s-4.8,2.42-5.13,6.72,1.29,7.16,4.11,7.27,4.87-2.62,5.17-6.92Z"/>
          <path class="cls-7" d="m103.38,319.09l.07,1.97c-2.98.67-6.16,1.42-8.56,1.94l-.39-2.3c1.03-.16,2.32-.4,3.75-.65l.41-6.65-3.33-.12.13-2.02,3.33.13.14-2.33-2.13-.08.07-1.11c-.34.28-.68.57-.99.78-.11-.48-.53-1.68-.77-2.23,1.91-1.26,3.96-3.3,5.22-5.46l1.71.78c-.15.24-.31.53-.48.79,1.28,1.15,2.57,2.51,3.34,3.5l-1.37,1.58c-.74-.97-1.95-2.32-3.07-3.47-.82,1.05-1.73,2.05-2.65,2.93l5.3.2-.11,1.95-2.2-.08-.14,2.33,3.1.12-.12,2.02-3.1-.12-.38,6.22,3.23-.61Zm-6.21-4.65c.35,1.44.65,3.29.71,4.53l-1.58.42c-.01-1.24-.31-3.16-.61-4.63l1.47-.32Zm3.44,4.17c.42-1.19.97-3.06,1.25-4.35l1.58.56c-.52,1.43-1.11,3.17-1.59,4.29l-1.24-.5Zm15.03-2.86c-1.05.86-2.37,1.79-3.48,2.48.91,1.67,2.06,3.05,3.52,3.91-.53.44-1.22,1.32-1.57,1.94-3.02-2.11-4.66-6.06-5.49-10.77l-1.61-.06-.42,7.57,3.52-.91c-.03.63.01,1.54.08,2.08-4.78,1.4-5.56,1.7-6.05,2.09-.08-.56-.35-1.56-.62-2.05.45-.19.96-.57,1.01-1.51l1.04-18.28,9.91.38-.53,10.93-4.47-.17c.24,1.08.53,2.12.9,3.11,1.03-.71,2.2-1.65,2.97-2.39l1.3,1.65Zm-8.14-11.47l-.14,2.51,5.84.22.13-2.51-5.83-.22Zm-.38,6.96l5.86.22.13-2.58-5.85-.22-.14,2.58Z"/>
          <path class="cls-7" d="m131.13,308.22c-.75,1.23-1.64,2.48-2.62,3.69l-.49,13.05-2.14-.08.41-10.5c-.79.79-1.6,1.54-2.36,2.16-.25-.51-.97-1.56-1.38-2.03,2.41-1.73,4.98-4.46,6.61-7.19l1.97.89Zm-.68-5.18c-1.62,2.12-4.08,4.46-6.23,5.98-.23-.53-.76-1.44-1.13-1.89,1.94-1.25,4.21-3.35,5.38-5.07l1.98.98Zm13.33,9.97l-3.28-.12-.27,9.62c-.04,1.34-.33,2.01-1.22,2.35-.86.32-2.22.3-4.36.22-.07-.69-.34-1.68-.61-2.38,1.47.11,3.01.16,3.42.15.44.02.58-.1.59-.46l.28-9.6-7.2-.27.08-2.2,12.62.48-.05,2.2Zm-.47-6.75l-10.99-.42.08-2.18,10.97.42-.06,2.18Z"/>
          <path class="cls-7" d="m151.61,312.28c.02-1.16.81-2,1.78-1.96s1.73.93,1.71,2.09-.8,1.95-1.78,1.92-1.73-.91-1.71-2.05Zm-.18,9.8c.02-1.21.82-2.03,1.8-1.99s1.75.92,1.73,2.12-.81,1.98-1.8,1.95-1.75-.9-1.73-2.08Z"/>
          <path class="cls-7" d="m168.21,315.11c.03-5.85,2.99-9.21,7.24-9.05s7.23,3.75,7.27,9.59c.04,5.9-2.94,9.48-7.25,9.32s-7.29-3.96-7.26-9.86Zm11.82.44c-.02-4.27-1.83-6.92-4.58-7.02s-4.53,2.41-4.55,6.68,1.78,7.12,4.56,7.23,4.59-2.61,4.56-6.88Z"/>
          <path class="cls-7" d="m185.28,315.75c-.05-5.84,2.85-9.2,7.09-9.04s7.26,3.75,7.38,9.58c.12,5.89-2.8,9.47-7.1,9.31s-7.32-3.95-7.37-9.85Zm11.78.44c-.08-4.27-1.92-6.91-4.66-7.02-2.74-.1-4.48,2.4-4.44,6.67.05,4.27,1.87,7.12,4.64,7.22s4.53-2.6,4.45-6.88Z"/>
          <path class="cls-7" d="m202.29,316.39c-.13-5.84,2.71-9.19,6.94-9.03,4.22.16,7.28,3.74,7.49,9.57s-2.66,9.46-6.94,9.3-7.34-3.95-7.48-9.84Zm11.75.44c-.14-4.26-2.01-6.9-4.74-7.01s-4.43,2.4-4.33,6.67c.11,4.27,1.97,7.11,4.73,7.21s4.48-2.6,4.34-6.87Z"/>
          <path class="cls-7" d="m219.24,317.03c-.21-5.83,2.58-9.18,6.78-9.02s7.31,3.74,7.59,9.56c.29,5.88-2.52,9.45-6.79,9.29-4.27-.16-7.37-3.94-7.59-9.83Zm11.71.44c-.2-4.26-2.1-6.9-4.82-7s-4.38,2.4-4.22,6.66c.17,4.27,2.06,7.1,4.81,7.2s4.43-2.6,4.23-6.86Z"/>
          <path class="cls-7" d="m236.14,317.66c-.29-5.82,2.44-9.17,6.63-9.01,4.19.16,7.33,3.73,7.69,9.55.37,5.87-2.38,9.44-6.63,9.28-4.26-.16-7.4-3.94-7.7-9.82Zm11.67.44c-.26-4.25-2.19-6.89-4.9-6.99s-4.33,2.4-4.11,6.65,2.15,7.09,4.89,7.19,4.37-2.6,4.12-6.85Z"/>
          <path class="cls-7" d="m252.99,318.29c-.37-5.82,2.3-9.16,6.48-9s7.36,3.73,7.8,9.54c.45,5.87-2.24,9.43-6.48,9.27s-7.43-3.93-7.8-9.81Zm11.63.44c-.31-4.25-2.27-6.88-4.98-6.98s-4.29,2.4-4,6.65c.28,4.26,2.24,7.08,4.97,7.18,2.73.1,4.32-2.59,4.01-6.85Z"/>
          <path class="cls-7" d="m269.78,318.93c-.45-5.81,2.17-9.16,6.34-8.99s7.38,3.72,7.9,9.53c.53,5.86-2.1,9.42-6.33,9.26s-7.45-3.93-7.91-9.8Zm11.6.44c-.37-4.24-2.36-6.87-5.06-6.98-2.7-.1-4.24,2.39-3.9,6.64.34,4.25,2.33,7.08,5.05,7.18s4.27-2.59,3.9-6.84Z"/>
          <path class="cls-7" d="m65.24,345.96c-.07.82-.22,1.48-.71,1.83-.46.36-1.01.39-1.82.36,0-.56-.15-1.52-.36-2.08.5.04.9.06,1.04.06.17-.02.22-.07.24-.28l.8-9.06-1.39-.05-1.53,17.14-1.87-.06,1.56-17.14-1.27-.04-1.07,11.69-1.67-.06,1.29-13.84,2.92.1.43-4.75,1.83.07-.42,4.75,2.99.11-.98,11.27Zm12.7.09c-1.14.86-2.4,1.77-3.48,2.48,1.05,1.44,2.34,2.71,3.78,3.48-.51.46-1.25,1.35-1.61,1.95-3.1-1.95-5.32-5.78-6.42-10.07l-1.23-.04-.6,7.11,3.65-1.13c-.05.64-.08,1.54-.02,2.05-4.66,1.58-5.45,1.9-5.91,2.29-.11-.62-.54-1.76-.86-2.28.41-.31,1.04-.98,1.14-2.07l.52-6.05-1.02-.04.18-2.07,1.54.05.91-10.6,10.34.37-.15,1.91-8.24-.29-.14,1.66,7.31.26-.14,1.74-7.32-.26-.14,1.72,7.45.26-.14,1.8-7.46-.26-.15,1.78,8.91.31-.16,2.07-6.3-.22c.31,1.09.78,2.14,1.32,3.11,1.04-.79,2.19-1.8,2.92-2.6l1.52,1.58Z"/>
          <path class="cls-7" d="m93.74,345.1s-.06.58-.1.89c-.63,4.98-1.05,7.04-1.74,7.77-.41.49-.85.67-1.5.72-.53.06-1.46.03-2.4-.08,0-.61-.14-1.5-.41-2.07.87.11,1.73.17,2.08.18.33.01.55-.04.75-.24.38-.41.76-1.81,1.21-5.32l-4.68-.16c.36-1.15.83-2.69,1.16-4.15l-1.91-.07.15-2.12,8.54.3-.13,2.12-4.78-.17c-.19.75-.39,1.54-.58,2.24l4.34.15Zm.75-6.15l-6.91-.24.49-7.01,6.87.25-.45,7.01Zm-1.35-5.32l-3.6-.13-.24,3.52,3.61.13.23-3.52Zm11.71,9.57c.4.01,1.18.02,1.49-.11.01.63.03,1.23.07,1.79-.36.15-1.02.15-1.59.13l-2.66-.09c-1.7-.06-2.02-.96-1.91-2.82l.02-.39-2.01.17-.11-1.7,2.22-.16.12-1.95-2.63-.09-.29,4.66c-.22,3.65-.88,8.92-3.12,12.36-.28-.41-1.12-1.11-1.53-1.36,2.06-3.2,2.53-7.74,2.74-11.09l.41-6.56,4.54.16.3-5.02,2.05.07-.09,1.59,4.57.16-.1,1.93-4.58-.16-.09,1.5,4,.14.31-.09,1.31.41c-.34,1.57-.82,3.43-1.18,4.61l-1.59-.5c.18-.67.37-1.6.56-2.53l-3.75-.13-.1,1.74,2.67-.19.1,1.67-2.86.21-.04.65c-.04.63.02.89.51.91l2.23.08Zm-4.07,2.78c-.42,4.27-1.12,7.32-3.84,9.1-.18-.51-.68-1.33-1.09-1.66,2.23-1.42,2.76-3.97,3.12-7.5l1.82.06Zm4.31,6.66c.21,0,.45-.01.55-.11.1-.08.23-.26.29-.5.07-.42.17-1.4.21-2.56.33.38,1,.83,1.51,1.03-.09,1.24-.25,2.54-.42,2.99-.19.53-.45.86-.79,1.07-.32.18-.85.29-1.3.28l-1.28-.04c-.52-.02-1.08-.17-1.42-.55-.36-.41-.41-.81-.33-2.14l.34-6.02,1.82.06-.33,5.94c0,.16,0,.32.12.4.07.08.23.14.42.15l.62.02Z"/>
          <path class="cls-7" d="m115.85,341.46c.06-1.22.89-2.1,1.9-2.07s1.76.97,1.71,2.2-.89,2.06-1.9,2.02-1.76-.95-1.71-2.15Zm-.48,10.32c.06-1.27.9-2.14,1.92-2.1s1.78.96,1.72,2.23c-.05,1.24-.9,2.09-1.91,2.06s-1.78-.94-1.72-2.18Z"/>
          <path class="cls-7" d="m132.91,344.38c.2-6.16,3.36-9.71,7.75-9.55,4.38.16,7.36,3.92,7.23,10.07-.13,6.21-3.32,9.99-7.77,9.84-4.45-.15-7.41-4.14-7.21-10.36Zm12.2.42c.1-4.5-1.69-7.28-4.52-7.38-2.83-.1-4.75,2.55-4.89,7.05-.14,4.51,1.63,7.49,4.5,7.59,2.87.1,4.81-2.76,4.92-7.27Z"/>
          <path class="cls-7" d="m150.52,344.99c.12-6.15,3.22-9.7,7.58-9.54s7.38,3.92,7.34,10.06c-.04,6.21-3.16,9.98-7.6,9.83s-7.44-4.14-7.33-10.35Zm12.16.42c.04-4.49-1.78-7.27-4.61-7.37s-4.7,2.55-4.78,7.04c-.08,4.5,1.73,7.49,4.59,7.58s4.76-2.76,4.8-7.26Z"/>
          <path class="cls-7" d="m168.06,345.6c.03-6.14,3.07-9.69,7.42-9.53s7.41,3.91,7.45,10.05c.04,6.2-3.01,9.97-7.43,9.82s-7.47-4.13-7.44-10.34Zm12.12.42c-.02-4.49-1.88-7.26-4.69-7.36s-4.65,2.55-4.66,7.03c-.01,4.5,1.83,7.48,4.67,7.57s4.7-2.76,4.68-7.25Z"/>
          <path class="cls-7" d="m185.55,346.21c-.06-6.14,2.92-9.68,7.26-9.52s7.44,3.91,7.57,10.04c.13,6.19-2.86,9.96-7.27,9.81s-7.5-4.13-7.56-10.32Zm12.08.42c-.08-4.48-1.97-7.25-4.78-7.35s-4.59,2.54-4.54,7.03c.05,4.49,1.92,7.47,4.76,7.56s4.64-2.75,4.56-7.24Z"/>
          <path class="cls-7" d="m202.99,346.81c-.14-6.13,2.78-9.67,7.1-9.51,4.32.15,7.46,3.9,7.68,10.02.22,6.18-2.71,9.95-7.1,9.8-4.39-.15-7.53-4.12-7.67-10.31Zm12.04.42c-.15-4.48-2.07-7.24-4.86-7.34s-4.54,2.54-4.43,7.02c.11,4.49,2.02,7.46,4.85,7.56s4.59-2.75,4.44-7.23Z"/>
          <path class="cls-7" d="m220.36,347.41c-.23-6.12,2.63-9.66,6.94-9.5,4.31.15,7.49,3.9,7.79,10.01.3,6.18-2.57,9.93-6.94,9.79s-7.56-4.12-7.79-10.3Zm12,.42c-.21-4.47-2.16-7.23-4.95-7.33s-4.49,2.54-4.31,7.01c.17,4.48,2.12,7.45,4.94,7.55s4.53-2.75,4.32-7.23Z"/>
          <path class="cls-7" d="m237.68,348.02c-.31-6.12,2.49-9.64,6.78-9.49,4.29.15,7.52,3.89,7.9,10,.38,6.17-2.42,9.92-6.78,9.78s-7.59-4.11-7.9-10.29Zm11.96.42c-.27-4.47-2.25-7.23-5.03-7.32-2.78-.1-4.44,2.54-4.2,7,.24,4.48,2.21,7.44,5.02,7.54s4.48-2.74,4.21-7.22Z"/>
          <path class="cls-7" d="m74.07,368.95l-.87,11.03-2.29-.07.12-1.44-12.02-.38c-.75,3.16-2.04,6.35-4.35,8.7-.29-.55-1.14-1.53-1.6-1.88,3.47-3.52,4.25-8.76,4.61-12.77l.74-8.1c4.9-.38,10.52-1.18,13.76-2.21l1.67,2.01c-3.66,1.05-8.72,1.73-13.33,2.16l-.22,2.51,13.78.44Zm-2.85,7.13l.39-4.85-11.53-.37-.12,1.37c-.09,1.05-.23,2.26-.43,3.47l11.7.37Z"/>
          <path class="cls-7" d="m103.71,388.17l-2.34-.07.06-1.15-9.21-.28-.07,1.09-2.27-.07.55-8.37c-1.9,1.14-3.89,2.08-5.88,2.74-.22-.7-.73-1.78-1.13-2.35,3.11-.93,6.28-2.58,9.04-4.78-.91-1.32-2.44-3-3.78-4.27-.97.76-2.01,1.53-3.13,2.21-.29-.64-.95-1.6-1.46-2.03,4.12-2.31,7.04-5.59,8.61-8.47l2.48.62c-.43.74-.91,1.46-1.41,2.18l6.11.2.42-.12,1.46.97c-1.54,3.82-3.9,7.04-6.67,9.59l9.27.29-.66,12.06Zm-11.68-20.8c-.49.56-1.01,1.14-1.58,1.67,1.37,1.25,2.95,2.86,3.93,4.19,1.7-1.65,3.16-3.55,4.25-5.64l-6.6-.21Zm9.54,17.23l.35-6.22-9.15-.29-.39,6.23,9.19.28Z"/>
          <path class="cls-7" d="m114.35,373.51c.06-1.29.92-2.22,1.95-2.18s1.8,1.02,1.75,2.3-.91,2.17-1.95,2.14-1.81-.99-1.75-2.25Zm-.51,10.86c.06-1.34.93-2.25,1.97-2.22s1.82,1,1.76,2.34c-.06,1.31-.92,2.21-1.97,2.18s-1.83-.98-1.76-2.29Z"/>
          <path class="cls-7" d="m131.85,376.51c.21-6.48,3.46-10.23,7.95-10.08s7.54,4.09,7.41,10.57-3.41,10.53-7.97,10.39c-4.57-.14-7.6-4.33-7.39-10.87Zm12.51.4c.11-4.73-1.73-7.65-4.63-7.74s-4.88,2.7-5.02,7.43c-.15,4.74,1.67,7.88,4.61,7.97s4.94-2.93,5.05-7.66Z"/>
          <path class="cls-7" d="m149.91,377.08c.12-6.47,3.3-10.21,7.78-10.07,4.48.15,7.57,4.09,7.53,10.55-.05,6.53-3.25,10.51-7.8,10.37-4.55-.14-7.63-4.32-7.51-10.86Zm12.47.4c.04-4.72-1.83-7.64-4.72-7.73s-4.82,2.7-4.9,7.43c-.08,4.74,1.77,7.87,4.7,7.96,2.93.09,4.88-2.92,4.92-7.65Z"/>
          <path class="cls-7" d="m167.91,377.65c.03-6.46,3.15-10.2,7.61-10.05s7.6,4.08,7.65,10.54-3.09,10.5-7.62,10.36c-4.54-.14-7.66-4.32-7.63-10.84Zm12.43.39c-.02-4.72-1.93-7.63-4.81-7.72s-4.77,2.7-4.78,7.42c-.01,4.73,1.87,7.86,4.79,7.95s4.82-2.92,4.8-7.65Z"/>
        </g>
        <g>
          <g>
            <path class="cls-7" d="m315.11,292.02l2.16-.21-1.76-4.74-1.77.17-.26-.7c.88-.2,1.48-.44,1.95-.74l1.17-.11,2.23,5.98,1.93-.19.34.92-5.64.55-.34-.92Z"/>
            <path class="cls-7" d="m322.76,291.28l2.16-.21-1.77-4.73-1.77.17-.26-.7c.88-.2,1.47-.44,1.94-.74l1.16-.11,2.23,5.97,1.92-.19.34.91-5.62.55-.34-.92Z"/>
            <path class="cls-7" d="m329.92,290.86c2.01-2.2,3.2-3.58,2.8-4.66-.28-.75-1.03-1.19-2.13-1.09-.77.07-1.28.49-1.64.97l-1.1-.53c.6-.73,1.31-1.22,2.59-1.34,1.8-.17,3.27.54,3.74,1.79s-.64,2.68-2.1,4.41c.48-.09,1.1-.18,1.58-.22l2.49-.24.35.94-6.34.62-.24-.64Z"/>
            <path class="cls-7" d="m336.49,287.3c-.87-2.31-.11-3.65,1.83-3.84,1.95-.19,3.63.93,4.5,3.23s.15,3.7-1.8,3.89-3.65-.97-4.52-3.28Zm4.87-.47c-.75-1.97-1.71-2.59-2.71-2.5s-1.44.85-.69,2.83c.75,1.98,1.73,2.65,2.73,2.55s1.42-.9.67-2.88Z"/>
            <path class="cls-7" d="m347.74,283.66l-4.58.44-.35-.93,6.28-.6.25.67c-1.47,2.23-1.31,3.76-.45,6.45l-1.57.15c-.77-2.51-.71-4.15.42-6.18Z"/>
            <path class="cls-7" d="m351.61,285.84c-.88-2.3-.13-3.64,1.8-3.82s3.61.93,4.49,3.22.17,3.69-1.77,3.88-3.63-.97-4.51-3.27Zm4.84-.47c-.75-1.96-1.71-2.58-2.7-2.49s-1.43.85-.68,2.82c.75,1.97,1.73,2.64,2.72,2.54s1.41-.9.66-2.87Z"/>
            <path class="cls-7" d="m359.88,287.77l.45-.79c.71.35,1.54.63,2.55.53,1.09-.11,1.72-.72,1.38-1.59s-1.26-1.3-2.37-1.19c-.62.06-.94.23-1.4.55l-.87-.27-.99-3.36,4.91-.47.36.92-3.59.34.47,1.82c.36-.19.71-.32,1.24-.37,1.62-.16,3.2.37,3.76,1.84.58,1.5-.67,2.49-2.37,2.65-1.53.15-2.66-.21-3.54-.63Z"/>
            <path class="cls-7" d="m323.63,314.96l2.17-.22-1.78-4.8-1.78.18-.26-.71c.89-.21,1.48-.45,1.95-.76l1.17-.12,2.25,6.05,1.94-.2.35.93-5.66.58-.34-.93Z"/>
            <path class="cls-7" d="m331.31,314.18l2.16-.22-1.79-4.79-1.77.18-.26-.71c.88-.21,1.48-.45,1.94-.76l1.17-.12,2.26,6.04,1.93-.2.35.92-5.64.58-.35-.93Z"/>
            <path class="cls-7" d="m338.5,313.73c2.01-2.23,3.2-3.65,2.79-4.73-.28-.76-1.04-1.2-2.15-1.09-.78.08-1.28.5-1.64.99l-1.1-.53c.6-.74,1.31-1.24,2.6-1.37,1.8-.18,3.28.53,3.76,1.79s-.63,2.71-2.09,4.48c.48-.09,1.1-.18,1.58-.23l2.5-.26.36.95-6.36.65-.24-.65Z"/>
            <path class="cls-7" d="m345.09,310.09c-.88-2.34-.12-3.7,1.83-3.9,1.96-.2,3.64.93,4.52,3.25.89,2.34.16,3.75-1.8,3.95s-3.67-.97-4.55-3.3Zm4.89-.5c-.76-1.99-1.73-2.62-2.73-2.52s-1.44.87-.69,2.87,1.75,2.67,2.75,2.57,1.43-.92.67-2.92Z"/>
            <path class="cls-7" d="m356.38,306.35l-4.6.46-.36-.94,6.3-.63.26.68c-1.47,2.27-1.31,3.82-.44,6.53l-1.57.16c-.78-2.54-.73-4.2.41-6.26Z"/>
            <path class="cls-7" d="m361.77,311.07l2.14-.22-1.82-4.75-1.75.18-.27-.7c.87-.21,1.45-.45,1.91-.75l1.15-.12,2.29,5.99,1.91-.19.35.92-5.57.57-.35-.92Z"/>
            <path class="cls-7" d="m372.32,309.04l-4.22.43-.29-.74,2.21-4.72,1.77-.18,1.62,4.21,1.23-.12.33.86-1.23.12.71,1.83-1.43.15-.7-1.83Zm-.33-.86l-.67-1.74c-.15-.39-.35-1.01-.47-1.39h-.05c-.1.38-.24.73-.38,1.11l-1.11,2.3,2.68-.27Z"/>
            <path class="cls-7" d="m332.26,338.17l2.18-.23-1.81-4.85-1.79.19-.27-.72c.89-.22,1.49-.46,1.96-.78l1.18-.12,2.28,6.12,1.95-.21.35.94-5.68.61-.35-.94Z"/>
            <path class="cls-7" d="m339.96,337.34l2.17-.23-1.81-4.84-1.78.19-.27-.72c.89-.22,1.48-.46,1.95-.78l1.17-.12,2.29,6.11,1.94-.21.35.94-5.67.61-.35-.94Z"/>
            <path class="cls-7" d="m347.19,336.86c2.01-2.27,3.21-3.71,2.79-4.81-.29-.77-1.04-1.22-2.16-1.1-.78.08-1.29.51-1.65,1.01l-1.11-.54c.6-.76,1.32-1.26,2.61-1.4,1.81-.19,3.3.53,3.78,1.8s-.63,2.75-2.09,4.55c.48-.09,1.1-.19,1.59-.24l2.51-.27.36.96-6.39.69-.25-.66Z"/>
            <path class="cls-7" d="m353.8,333.14c-.89-2.36-.13-3.75,1.82-3.95s3.66.93,4.55,3.28c.9,2.36.17,3.8-1.8,4.01-1.96.21-3.69-.96-4.58-3.33Zm4.91-.52c-.76-2.02-1.74-2.65-2.74-2.54s-1.45.89-.68,2.91c.76,2.02,1.76,2.7,2.77,2.59s1.43-.94.66-2.96Z"/>
            <path class="cls-7" d="m365.12,329.31l-4.62.49-.36-.95,6.33-.67.26.68c-1.47,2.3-1.3,3.87-.42,6.62l-1.58.17c-.79-2.57-.74-4.25.39-6.35Z"/>
            <path class="cls-7" d="m370.55,334.07l2.15-.23-1.84-4.81-1.76.19-.27-.71c.87-.22,1.46-.46,1.92-.77l1.16-.12,2.32,6.06,1.92-.21.36.93-5.59.6-.35-.93Z"/>
            <path class="cls-7" d="m377.27,332.45c-.34-.89.28-1.57,1.05-2.02v-.04c-.89-.3-1.67-.76-1.95-1.49-.43-1.11.49-1.96,2.08-2.13,1.7-.18,3.05.48,3.48,1.58.28.72-.18,1.39-.66,1.77l.02.05c1.01.28,1.98.69,2.34,1.63.41,1.06-.55,2.02-2.43,2.22s-3.5-.46-3.92-1.57Zm4.9-.52c-.32-.83-1.5-1-2.98-1.26-.53.41-.83.94-.6,1.53.27.71,1.28,1.12,2.32,1.01s1.52-.61,1.26-1.28Zm-1.5-3.37c-.25-.64-.98-1.07-1.93-.97-.8.08-1.24.54-1,1.17.29.75,1.35.98,2.55,1.18.42-.45.56-.91.38-1.38Z"/>
            <path class="cls-7" d="m340.98,361.65l2.19-.25-1.83-4.91-1.79.2-.27-.73c.89-.22,1.49-.48,1.96-.8l1.18-.13,2.31,6.19,1.95-.22.35.95-5.71.64-.35-.95Z"/>
            <path class="cls-7" d="m348.72,360.79l2.18-.25-1.83-4.9-1.79.2-.27-.73c.89-.22,1.49-.48,1.96-.8l1.18-.13,2.31,6.18,1.95-.22.36.95-5.69.64-.35-.95Z"/>
            <path class="cls-7" d="m355.97,360.26c2.02-2.31,3.21-3.77,2.79-4.88-.29-.77-1.05-1.23-2.17-1.1-.78.09-1.29.53-1.65,1.03l-1.12-.54c.6-.77,1.32-1.28,2.61-1.43,1.82-.2,3.31.52,3.8,1.81.49,1.3-.62,2.79-2.09,4.62.48-.1,1.11-.2,1.59-.25l2.52-.28.37.97-6.41.72-.25-.67Z"/>
            <path class="cls-7" d="m362.6,356.47c-.9-2.39-.14-3.8,1.82-4.02s3.68.92,4.58,3.3c.91,2.39.18,3.85-1.79,4.07s-3.71-.96-4.61-3.36Zm4.93-.55c-.77-2.04-1.76-2.68-2.76-2.56s-1.45.9-.68,2.95c.77,2.05,1.78,2.73,2.79,2.62s1.43-.96.66-3Z"/>
            <path class="cls-7" d="m370.92,357.38c-.34-.9.29-1.6,1.06-2.06l-.02-.04c-.88-.3-1.67-.76-1.96-1.51-.43-1.13.5-1.99,2.11-2.17,1.71-.19,3.08.47,3.51,1.59.28.73-.19,1.41-.67,1.81l.02.05c1.01.28,2,.7,2.36,1.65.41,1.08-.56,2.06-2.46,2.27s-3.53-.45-3.96-1.58Zm4.95-.55c-.32-.84-1.51-1.01-3.01-1.26-.54.42-.84.96-.61,1.56.28.72,1.29,1.14,2.35,1.02s1.54-.63,1.28-1.31Zm-1.51-3.42c-.25-.65-.99-1.09-1.95-.98-.8.09-1.26.55-1.01,1.2.29.76,1.36.99,2.58,1.19.42-.46.57-.93.39-1.4Z"/>
            <path class="cls-7" d="m379.43,357.34l2.15-.24-1.86-4.86-1.76.2-.28-.72c.88-.22,1.46-.47,1.93-.79l1.16-.13,2.35,6.14,1.92-.22.36.94-5.61.63-.36-.94Z"/>
            <path class="cls-7" d="m390.06,355.17l-4.25.48-.29-.76,2.2-4.86,1.78-.2,1.66,4.31,1.24-.14.34.88-1.24.14.72,1.88-1.44.16-.72-1.88Zm-.34-.88l-.69-1.79c-.15-.39-.35-1.03-.48-1.43h-.05c-.1.39-.24.75-.38,1.15l-1.11,2.37,2.71-.3Z"/>
            <path class="cls-7" d="m349.81,385.42l2.2-.26-1.85-4.97-1.8.21-.27-.74c.9-.23,1.5-.49,1.97-.82l1.19-.14,2.33,6.27,1.96-.23.36.96-5.73.67-.36-.96Z"/>
            <path class="cls-7" d="m357.58,384.51l2.19-.26-1.86-4.96-1.79.21-.27-.73c.89-.23,1.49-.49,1.96-.82l1.18-.14,2.34,6.25,1.96-.23.36.96-5.71.67-.36-.96Z"/>
            <path class="cls-7" d="m364.86,383.95c2.02-2.35,3.21-3.83,2.79-4.96-.3-.78-1.06-1.24-2.18-1.11-.79.09-1.3.54-1.66,1.05l-1.12-.54c.6-.78,1.32-1.31,2.62-1.46,1.83-.21,3.33.51,3.82,1.82.5,1.32-.62,2.83-2.08,4.69.49-.1,1.11-.2,1.6-.26l2.53-.3.37.99-6.44.76-.25-.68Z"/>
            <path class="cls-7" d="m371.51,380.08c-.91-2.42-.15-3.85,1.82-4.08s3.7.92,4.61,3.33c.92,2.42.2,3.9-1.79,4.13s-3.72-.96-4.64-3.38Zm4.94-.58c-.78-2.07-1.77-2.7-2.78-2.59s-1.46.92-.67,2.99c.78,2.07,1.79,2.76,2.8,2.64s1.44-.98.65-3.05Z"/>
            <path class="cls-7" d="m379.87,380.96c-.35-.91.28-1.63,1.06-2.09l-.02-.04c-.89-.3-1.68-.77-1.97-1.52-.43-1.14.5-2.02,2.11-2.21,1.72-.2,3.1.47,3.53,1.6.28.74-.18,1.43-.66,1.83l.02.05c1.02.28,2.01.7,2.37,1.66.42,1.09-.55,2.09-2.47,2.31s-3.55-.44-3.98-1.59Zm4.97-.58c-.32-.85-1.52-1.01-3.03-1.27-.54.43-.84.98-.61,1.58.28.73,1.3,1.15,2.36,1.02s1.54-.64,1.28-1.33Zm-1.53-3.46c-.25-.66-.99-1.1-1.96-.98-.81.09-1.26.57-1.01,1.22.29.77,1.37,1,2.59,1.19.43-.47.57-.94.38-1.43Z"/>
            <path class="cls-7" d="m387.96,381.23c1.98-2.34,3.16-3.81,2.73-4.93-.3-.78-1.06-1.23-2.17-1.1-.78.09-1.28.53-1.63,1.05l-1.12-.54c.59-.78,1.3-1.3,2.59-1.45,1.81-.21,3.3.51,3.8,1.81s-.59,2.82-2.03,4.66c.48-.1,1.1-.2,1.58-.26l2.51-.29.38.98-6.38.75-.26-.67Z"/>
            <path class="cls-7" d="m395.31,380.15l.47-.83c.75.37,1.62.66,2.64.54,1.11-.13,1.7-.67,1.42-1.39-.3-.79-1.19-1.22-3.41-.96l-.33-.85c1.94-.23,2.38-.83,2.11-1.52-.25-.64-.97-.96-1.9-.85-.76.09-1.3.44-1.7.93l-1.08-.62c.57-.62,1.34-1.09,2.48-1.23,1.76-.2,3.27.33,3.72,1.5.32.83-.12,1.45-1.06,1.86l.02.05c1.22.08,2.35.59,2.72,1.56.5,1.29-.7,2.22-2.5,2.44-1.55.18-2.73-.16-3.6-.63Z"/>
            <path class="cls-7" d="m358.74,409.47l2.21-.27-1.87-5.03-1.81.22-.28-.74c.9-.24,1.5-.5,1.98-.84l1.19-.14,2.36,6.34,1.97-.24.36.97-5.75.71-.36-.97Z"/>
            <path class="cls-7" d="m366.55,408.51l2.2-.27-1.88-5.02-1.8.22-.28-.74c.9-.24,1.5-.5,1.97-.84l1.19-.14,2.37,6.33,1.96-.24.36.97-5.73.71-.36-.97Z"/>
            <path class="cls-7" d="m373.86,407.91c2.02-2.39,3.22-3.9,2.79-5.04-.3-.79-1.07-1.25-2.2-1.11-.79.1-1.3.55-1.66,1.07l-1.13-.54c.6-.8,1.32-1.33,2.63-1.49,1.83-.22,3.35.51,3.84,1.83.5,1.33-.61,2.87-2.08,4.76.49-.1,1.12-.21,1.61-.27l2.54-.31.38,1-6.47.8-.26-.68Z"/>
            <path class="cls-7" d="m380.53,403.96c-.92-2.45-.17-3.9,1.81-4.14s3.72.92,4.64,3.35c.93,2.45.21,3.95-1.79,4.2s-3.74-.96-4.67-3.41Zm4.97-.61c-.79-2.09-1.79-2.73-2.8-2.61s-1.46.94-.67,3.03c.79,2.1,1.81,2.79,2.82,2.67s1.44-1,.65-3.09Z"/>
            <path class="cls-7" d="m389.5,406.01l.58-.83c.49.29,1.19.44,1.77.37,1.27-.16,2.06-1.02,1.32-3.16-.37.63-1.11,1.06-1.84,1.15-1.68.21-3.08-.4-3.65-1.9-.54-1.43.46-2.53,2.06-2.72,1.9-.23,3.87.71,4.78,3.11,1.09,2.86-.27,4.23-2.23,4.47-1.12.14-2.07-.11-2.79-.49Zm1.77-3.34c.59-.07,1.21-.42,1.52-1.13-.68-1.32-1.65-1.84-2.7-1.72-.85.1-1.32.72-.97,1.64s1.1,1.33,2.15,1.2Z"/>
            <path class="cls-7" d="m395.95,402.08c-.93-2.44-.18-3.89,1.78-4.12s3.7.91,4.63,3.34c.93,2.44.23,3.94-1.75,4.18s-3.73-.95-4.66-3.4Zm4.93-.6c-.8-2.08-1.79-2.72-2.8-2.6s-1.45.94-.65,3.02,1.81,2.78,2.82,2.66,1.43-.99.63-3.08Z"/>
            <path class="cls-7" d="m404.73,404.12c1.97-2.37,3.14-3.87,2.71-5-.3-.79-1.07-1.24-2.18-1.11-.78.09-1.28.55-1.63,1.06l-1.12-.54c.58-.79,1.29-1.32,2.58-1.48,1.81-.22,3.31.51,3.82,1.82.51,1.32-.57,2.85-2.01,4.72.48-.1,1.1-.21,1.58-.27l2.51-.31.38.99-6.38.78-.26-.68Z"/>
          </g>
          <g>
            <path class="cls-8" d="m413.27,281.95c-.03.66-.28,1.36-.59,1.84-.21-.1-.69-.27-.96-.35.33-.42.52-1.02.55-1.56l1.01.07Zm1.53-.5l.98,2.45-1.12.11-.98-2.45-2.32.22-.27-.69,2.32-.22-.23-.57-2.5.24-.27-.67,1.53-.15c-.2-.26-.53-.58-.85-.82l.83-.3c.39.28.82.68,1.01.96l-.22.09,1.12-.11c.07-.35.16-.82.13-1.15l1.13.1c-.07.33-.15.67-.21.95l1.53-.15.27.67-2.39.23.23.57,2.27-.22.27.69-2.27.22Zm1.01-3.22l-5.65.54-.26-.66,2.24-.22c-.17-.18-.35-.35-.53-.5l.93-.29-.37.04-.14-.36-2.6.25-.28-.7,2.6-.25-.28-.7,1.18-.11.28.7,1.57-.15.28.7-1.57.15.14.36-.64.06c.24.2.54.45.78.68l2.07-.2.26.66Zm.22,3.19c.51.35,1.1.82,1.41,1.13l-.69.44c-.32-.33-.91-.83-1.4-1.19l.67-.39Zm6.26-1.81l-1.41.14,1.41,3.53-1.13.11-1.41-3.53-1.36.13c.44,1.1.85,2.61.31,3.67-.23-.14-.79-.4-1.06-.48.44-.94.03-2.17-.35-3.12l-.99-2.47c1.35-.29,2.83-.69,3.65-1.05l1.15.54c-.93.36-2.25.71-3.49.98l.47,1.17,3.9-.38.3.76Zm-5.4-3.29l-1.59.15-.28-.7,1.59-.15-.28-.69,1.18-.11.28.69,2.64-.25.28.7-2.64.25.22.55-1.18.11-.22-.55Z"/>
            <path class="cls-8" d="m429.98,275.09c.03.07.06.14.06.23.9.45,2.39.64,4.11.55-.16.2-.33.54-.35.77-1.52,0-2.81-.24-3.84-.7-.29.47-1.14.98-3.25,1.41-.19-.19-.58-.45-.86-.59l-3.25.31-.27-.69,3.71-.36.25.62c2.67-.53,2.75-1.08,2.59-1.48l-.05-.12-1.06.1c-.15.36-.34.69-.58.96-.24-.1-.77-.29-1.07-.35.5-.49.76-1.18.78-1.86l1.13.07c-.01.17-.03.32-.05.49l3.98-.38.15-.05.9.12c-.12.53-.33,1.11-.55,1.49l-1.03-.15c.1-.18.19-.45.28-.7l-1.78.17.06.15Zm2.18,5.69c1.44.19,3.02.45,4.02.67l-.88.58c-.9-.23-2.42-.53-3.87-.73l.56-.51-3.83.37,1.21.25c-.85.56-2.27,1.17-3.45,1.56-.28-.16-.83-.44-1.15-.57,1.23-.32,2.61-.78,3.34-1.23l-2.06.2-1.51-3.78,8.34-.8,1.52,3.77-2.24.22Zm-6.74-5.5l-3.14.3-.26-.66,3.14-.3.26.66Zm.71,3.29l6-.58-.22-.53-6,.58.21.53Zm.42,1.05l6-.58-.21-.53-6,.58.21.53Zm.43,1.08l6-.58-.22-.54-6,.58.22.54Z"/>
            <path class="cls-8" d="m446.77,278.1l1.49-.14.27.66-1.49.14.51,1.26c.16.39.12.6-.23.74-.36.16-.94.22-1.78.3-.14-.21-.41-.49-.63-.68.59-.04,1.19-.1,1.37-.11.17-.03.21-.07.17-.17l-.5-1.23-2.37.23c.6.26,1.24.64,1.58.93l-.7.5c-.35-.31-1-.74-1.6-1.02l.62-.39-1.39.13.2.51-2.06.2.63,1.56-1.06.1-.63-1.56-2.16.21-.31-.78,2.16-.21-.27-.66-1.71.17-1.33-3.28,1.71-.16-.25-.61-1.97.19-.31-.76,1.97-.19-.39-.95,1.06-.1.39.95,1.9-.18.31.76-1.9.18.25.61,1.77-.17,1.33,3.28-1.77.17.27.66,2.03-.2-.16-.39,3.89-.38-.18-.44,1.09-.11.18.44Zm-9.82-1.35l.98-.09-.28-.7-.98.09.28.7Zm.53,1.32l.98-.09-.29-.71-.98.09.29.71Zm1.97-2.29l-1.01.1.28.7,1.01-.1-.28-.7Zm.53,1.31l-1.01.1.29.71,1.01-.1-.29-.71Zm1.35.39c.72-.08,1.65-.18,2.65-.28l-.22-.53-2.28.22-.99-2.45,2.28-.22-.18-.44-2.53.24-.26-.65,2.53-.24-.27-.65,1.02-.1.27.65,2.63-.25.27.65-2.63.25.18.44,2.36-.23.99,2.44-.71.07c.63.31,1.29.7,1.67,1l-.7.42c-.12-.1-.27-.22-.45-.34-1.93.23-3.9.46-5.28.62l-.33-.63Zm.51-2.17l1.32-.13-.19-.47-1.32.13.19.47Zm1.72.84l-.2-.49-1.32.13.2.49,1.32-.13Zm.43-1.54l.19.47,1.37-.13-.19-.47-1.37.13Zm1.76.82l-1.37.13.2.49,1.37-.13-.2-.49Zm-.76,1.64l1.1-.12c-.19-.12-.39-.21-.58-.31l.36-.19-1.09.11.21.51Z"/>
            <path class="cls-8" d="m453.73,277.33c.12.29.16.53-.02.68-.18.15-.46.2-.89.24-.11-.19-.37-.52-.59-.7.27-.02.49-.04.56-.04.09-.02.1-.04.07-.11l-1.32-3.23-.75.07,2.48,6.07-.99.1-2.47-6.07-.68.07,1.69,4.15-.89.09-2.01-4.93,1.57-.15-.7-1.71.99-.09.7,1.71,1.61-.15,1.64,4.02Zm6.7-.77c-.44.37-.93.77-1.37,1.08.82.43,1.73.79,2.63.97-.18.19-.41.54-.48.77-1.98-.48-3.86-1.66-5.25-3.09l-.66.06,1.03,2.51,1.7-.62c.09.22.25.54.37.71-2.14.84-2.5,1-2.67,1.16-.18-.21-.62-.57-.88-.73.16-.13.36-.4.2-.79l-.87-2.14-.54.05-.3-.74.82-.08-1.55-3.8,5.57-.53.28.69-4.43.42.24.6,3.93-.38.26.62-3.93.38.25.61,3.99-.38.26.64-3.99.38.26.63,4.76-.46.3.74-3.36.32c.37.36.81.7,1.28,1,.4-.34.82-.77,1.05-1.09l1.09.46Z"/>
            <path class="cls-7" d="m427.54,301.55l-4.31-3.12,1.67-.17,2.04,1.51c.39.3.75.58,1.28.96h.05c.16-.46.27-.78.39-1.13l.68-1.79,1.58-.16-1.56,3.73,4.59,3.25-1.71.18-2.15-1.59c-.42-.32-.87-.64-1.39-1.04h-.05c-.16.47-.32.85-.45,1.23l-.74,1.89-1.63.17,1.72-3.92Z"/>
            <path class="cls-7" d="m438.19,300.47l-4.3-3.12,1.66-.17,2.04,1.51c.39.3.75.58,1.28.96h.05c.15-.45.26-.78.39-1.13l.67-1.78,1.58-.16-1.54,3.72,4.58,3.25-1.71.17-2.15-1.59c-.42-.32-.87-.64-1.39-1.03h-.05c-.16.47-.32.85-.45,1.23l-.73,1.88-1.62.17,1.69-3.91Z"/>
            <path class="cls-7" d="m448.78,299.4l-4.29-3.11,1.65-.17,2.03,1.51c.39.3.75.57,1.28.95h.05c.15-.45.26-.78.38-1.13l.66-1.78,1.57-.16-1.52,3.71,4.57,3.24-1.7.17-2.15-1.59c-.42-.32-.87-.64-1.39-1.03h-.05c-.16.46-.31.85-.44,1.22l-.72,1.88-1.61.17,1.67-3.9Z"/>
            <path class="cls-7" d="m459.32,298.33l-4.29-3.1,1.64-.17,2.03,1.5c.38.29.75.57,1.28.95h.05c.15-.45.25-.78.38-1.12l.65-1.77,1.56-.16-1.5,3.7,4.56,3.23-1.69.17-2.14-1.58c-.42-.32-.87-.64-1.39-1.03h-.05c-.16.46-.31.84-.43,1.22l-.71,1.87-1.61.16,1.65-3.89Z"/>
            <path class="cls-7" d="m436.57,324.15l-4.33-3.15,1.67-.18,2.05,1.52c.39.3.76.58,1.29.96h.05c.16-.46.26-.79.39-1.15l.68-1.81,1.59-.17-1.56,3.79,4.62,3.28-1.72.18-2.17-1.61c-.43-.32-.88-.65-1.4-1.04h-.05c-.16.47-.32.86-.45,1.25l-.73,1.92-1.63.18,1.71-3.98Z"/>
            <path class="cls-7" d="m447.25,323.02l-4.33-3.14,1.66-.18,2.05,1.52c.39.3.76.58,1.29.96h.05c.15-.46.26-.79.39-1.15l.67-1.81,1.58-.17-1.54,3.78,4.61,3.27-1.71.18-2.16-1.6c-.43-.32-.88-.65-1.4-1.04h-.05c-.16.47-.31.86-.44,1.24l-.72,1.91-1.63.17,1.69-3.97Z"/>
            <path class="cls-7" d="m457.88,321.88l-4.32-3.13,1.66-.18,2.05,1.52c.39.3.76.58,1.29.96h.05c.15-.46.26-.79.38-1.14l.66-1.8,1.57-.17-1.52,3.77,4.6,3.26-1.7.18-2.16-1.6c-.43-.32-.88-.64-1.4-1.04h-.05c-.16.47-.31.86-.44,1.24l-.71,1.91-1.62.17,1.67-3.96Z"/>
            <path class="cls-7" d="m468.47,320.76l-4.31-3.13,1.65-.17,2.04,1.51c.39.3.75.58,1.28.96h.05c.15-.46.25-.79.38-1.14l.65-1.8,1.57-.17-1.5,3.76,4.59,3.26-1.7.18-2.16-1.59c-.42-.32-.88-.64-1.4-1.04h-.05c-.16.47-.31.86-.43,1.24l-.71,1.9-1.61.17,1.65-3.95Z"/>
            <path class="cls-7" d="m445.7,347.02l-4.36-3.17,1.68-.19,2.06,1.54c.39.3.76.59,1.3.97h.05c.15-.47.26-.81.39-1.17l.67-1.84,1.6-.18-1.55,3.85,4.65,3.3-1.73.19-2.18-1.62c-.43-.33-.89-.65-1.41-1.05h-.05c-.16.48-.32.88-.45,1.27l-.73,1.95-1.64.18,1.71-4.04Z"/>
            <path class="cls-7" d="m456.42,345.82l-4.35-3.16,1.67-.19,2.06,1.53c.39.3.76.58,1.3.97h.05c.15-.47.26-.8.39-1.16l.66-1.83,1.59-.18-1.53,3.84,4.64,3.29-1.72.19-2.18-1.61c-.43-.33-.88-.65-1.41-1.05h-.05c-.16.48-.31.87-.44,1.26l-.72,1.94-1.63.18,1.68-4.03Z"/>
            <path class="cls-7" d="m467.09,344.63l-4.35-3.16,1.66-.18,2.06,1.53c.39.3.76.58,1.29.97h.05c.15-.47.26-.8.38-1.16l.65-1.83,1.58-.18-1.51,3.82,4.63,3.29-1.71.19-2.17-1.61c-.43-.33-.88-.65-1.41-1.05h-.05c-.16.48-.31.87-.44,1.26l-.71,1.94-1.63.18,1.66-4.02Z"/>
            <path class="cls-7" d="m477.72,343.44l-4.34-3.15,1.66-.18,2.05,1.53c.39.3.76.58,1.29.97h.05c.15-.47.25-.8.37-1.16l.65-1.82,1.57-.17-1.49,3.81,4.62,3.28-1.7.19-2.17-1.61c-.43-.33-.88-.65-1.4-1.04h-.05c-.16.48-.3.87-.43,1.26l-.7,1.93-1.62.18,1.64-4Z"/>
            <path class="cls-8" d="m449.53,373.13c-.03.7-.26,1.44-.58,1.95-.22-.1-.71-.27-.98-.35.33-.45.52-1.09.54-1.66l1.02.06Zm1.55-.55l1.02,2.57-1.14.13-1.02-2.57-2.36.28-.29-.72,2.36-.28-.24-.6-2.54.3-.28-.7,1.56-.18c-.21-.28-.54-.61-.87-.85l.84-.33c.4.29.84.71,1.04.99l-.22.1,1.14-.13c.07-.37.15-.86.12-1.21l1.15.08c-.07.35-.14.71-.2,1l1.55-.18.28.7-2.43.28.24.6,2.3-.27.29.72-2.3.27Zm.99-3.42l-5.74.67-.27-.69,2.28-.27c-.17-.19-.36-.36-.55-.51l.94-.32-.38.04-.15-.37-2.64.31-.29-.74,2.64-.31-.29-.73,1.2-.14.29.73,1.59-.18.29.74-1.59.19.15.37-.65.08c.25.21.55.46.8.7l2.1-.24.27.69Zm.26,3.36c.53.36,1.13.85,1.45,1.17l-.7.47c-.33-.34-.93-.86-1.43-1.23l.68-.42Zm6.34-2.01l-1.43.17,1.48,3.7-1.15.14-1.48-3.7-1.38.16c.46,1.15.9,2.73.36,3.86-.23-.14-.81-.41-1.09-.49.43-1,0-2.28-.39-3.28l-1.03-2.59c1.37-.32,2.87-.78,3.69-1.17l1.17.55c-.94.4-2.28.79-3.53,1.09l.49,1.23,3.96-.46.32.8Zm-5.53-3.38l-1.62.19-.29-.74,1.62-.19-.29-.73,1.2-.14.29.73,2.68-.31.29.74-2.68.31.23.58-1.2.14-.23-.58Z"/>
            <path class="cls-8" d="m466.43,365.61c.03.07.06.15.07.24.92.46,2.44.63,4.18.51-.16.21-.33.57-.35.82-1.54.02-2.86-.2-3.91-.67-.29.51-1.14,1.05-3.28,1.54-.2-.19-.59-.47-.88-.61l-3.3.38-.29-.72,3.77-.44.26.65c2.71-.6,2.78-1.19,2.62-1.61l-.05-.13-1.08.13c-.14.39-.34.74-.58,1.02-.25-.1-.78-.29-1.09-.35.5-.52.76-1.26.77-1.98l1.15.05c-.01.18-.03.34-.05.52l4.05-.47.15-.06.91.11c-.11.56-.33,1.18-.54,1.58l-1.05-.14c.1-.2.19-.47.27-.74l-1.8.21.06.16Zm2.29,5.96c1.47.18,3.08.42,4.09.64l-.89.63c-.92-.23-2.46-.51-3.94-.7l.57-.55-3.89.46,1.23.25c-.86.61-2.3,1.27-3.49,1.7-.28-.16-.85-.45-1.18-.58,1.25-.35,2.64-.87,3.38-1.36l-2.1.25-1.59-3.95,8.47-.99,1.59,3.95-2.27.27Zm-6.92-5.68l-3.19.37-.28-.69,3.19-.37.28.69Zm.76,3.46l6.09-.71-.23-.56-6.09.71.22.56Zm.44,1.1l6.09-.71-.22-.55-6.09.71.22.55Zm.45,1.13l6.09-.72-.23-.57-6.09.71.23.57Z"/>
            <path class="cls-8" d="m483.53,368.51l1.51-.18.28.69-1.51.18.54,1.32c.17.41.13.63-.22.79-.36.18-.96.25-1.81.35-.14-.22-.42-.51-.65-.7.6-.05,1.21-.12,1.39-.14.18-.03.21-.08.17-.18l-.53-1.29-2.4.28c.61.27,1.27.65,1.62.95l-.7.53c-.36-.32-1.03-.76-1.64-1.05l.63-.42-1.41.17.21.53-2.09.25.66,1.63-1.07.13-.66-1.63-2.19.26-.33-.81,2.19-.26-.28-.69-1.73.2-1.39-3.44,1.73-.2-.26-.64-2.01.23-.32-.79,2-.23-.4-1,1.07-.12.4,1,1.93-.22.32.79-1.93.22.26.64,1.8-.21,1.39,3.44-1.8.21.28.69,2.06-.24-.17-.41,3.95-.46-.19-.46,1.11-.13.19.46Zm-10-1.26l1-.12-.3-.73-1,.12.3.73Zm.56,1.38l1-.12-.3-.74-1,.12.3.74Zm1.98-2.45l-1.02.12.3.73,1.02-.12-.3-.73Zm.55,1.37l-1.02.12.3.74,1.02-.12-.3-.74Zm1.38.39c.73-.1,1.67-.22,2.69-.34l-.23-.56-2.31.27-1.04-2.56,2.31-.27-.19-.46-2.57.3-.28-.68,2.57-.3-.28-.68,1.03-.12.28.68,2.67-.31.28.68-2.67.31.19.46,2.4-.28,1.04,2.56-.72.08c.64.32,1.32.72,1.71,1.03l-.71.45c-.13-.11-.28-.22-.47-.35-1.96.27-3.95.55-5.36.74l-.35-.66Zm.49-2.29l1.34-.16-.2-.49-1.34.16.2.49Zm1.76.86l-.21-.51-1.34.16.21.51,1.34-.16Zm.42-1.63l.2.49,1.39-.16-.2-.49-1.39.16Zm1.8.83l-1.39.16.21.51,1.39-.16-.21-.51Zm-.75,1.74l1.12-.14c-.2-.12-.4-.22-.59-.32l.36-.21-1.11.13.22.54Z"/>
            <path class="cls-8" d="m490.59,367.58c.12.3.17.55-.02.72-.18.16-.46.22-.9.27-.11-.2-.38-.54-.61-.73.27-.02.49-.05.57-.06.09-.02.1-.04.07-.12l-1.38-3.38-.76.09,2.59,6.35-1,.12-2.59-6.35-.69.08,1.77,4.35-.9.11-2.1-5.16,1.6-.19-.73-1.79,1-.12.73,1.79,1.63-.19,1.72,4.21Zm6.8-.93c-.44.4-.94.83-1.38,1.16.84.44,1.77.8,2.68.97-.18.21-.41.58-.48.82-2.02-.47-3.95-1.69-5.37-3.17l-.67.08,1.07,2.63,1.72-.68c.1.23.26.56.39.74-2.17.92-2.53,1.1-2.7,1.27-.18-.22-.63-.59-.9-.76.16-.14.36-.43.2-.83l-.91-2.24-.55.06-.32-.77.83-.1-1.63-3.98,5.65-.66.3.72-4.5.52.26.62,3.99-.46.27.65-3.99.46.26.64,4.05-.47.28.67-4.05.47.27.66,4.83-.56.32.77-3.41.4c.38.37.83.72,1.31,1.03.4-.36.82-.82,1.05-1.17l1.12.46Z"/>
            <path class="cls-7" d="m464.28,393.55l-4.42-3.22,1.69-.21,2.09,1.56c.4.31.77.6,1.31.99h.05c.15-.48.26-.83.39-1.2l.67-1.89,1.61-.2-1.54,3.96,4.7,3.35-1.74.21-2.21-1.64c-.44-.33-.9-.66-1.43-1.07h-.05c-.16.5-.32.9-.44,1.3l-.73,2-1.65.2,1.7-4.16Z"/>
            <path class="cls-7" d="m475.08,392.23l-4.41-3.21,1.68-.2,2.09,1.56c.4.31.77.59,1.31.99h.05c.15-.48.26-.83.38-1.2l.66-1.89,1.6-.19-1.52,3.95,4.7,3.34-1.73.21-2.21-1.64c-.43-.33-.89-.66-1.43-1.07h-.05c-.16.5-.31.9-.44,1.3l-.72,2-1.65.2,1.67-4.15Z"/>
            <path class="cls-7" d="m485.84,390.92l-4.4-3.2,1.68-.2,2.08,1.55c.4.3.77.59,1.31.98h.05c.15-.48.25-.83.38-1.19l.65-1.88,1.59-.19-1.5,3.94,4.69,3.34-1.72.21-2.2-1.63c-.43-.33-.89-.66-1.42-1.06h-.05c-.16.49-.31.9-.43,1.3l-.71,1.99-1.64.2,1.65-4.14Z"/>
            <path class="cls-7" d="m496.54,389.61l-4.39-3.2,1.67-.2,2.08,1.55c.39.3.77.59,1.31.98h.05c.15-.48.25-.82.37-1.19l.64-1.88,1.59-.19-1.48,3.93,4.68,3.33-1.72.21-2.2-1.63c-.43-.33-.89-.66-1.42-1.06h-.05c-.15.49-.3.89-.42,1.29l-.7,1.99-1.63.2,1.63-4.13Z"/>
          </g>
          <g>
            <path class="cls-7" d="m686.24,249.29l-4.1-2.92,1.47-.14,1.94,1.41c.37.28.72.54,1.22.89h.05c.1-.42.17-.72.26-1.04l.46-1.64,1.4-.13-1.1,3.43,4.36,3.04-1.52.15-2.05-1.49c-.4-.3-.83-.6-1.33-.97h-.05c-.11.43-.22.78-.31,1.13l-.51,1.74-1.44.14,1.22-3.6Z"/>
            <path class="cls-7" d="m695.66,248.38l-4.09-2.91,1.47-.14,1.94,1.41c.37.28.72.54,1.22.89h.05c.1-.42.17-.72.26-1.04l.46-1.64,1.4-.13-1.08,3.42,4.35,3.03-1.51.15-2.05-1.48c-.4-.3-.83-.6-1.32-.96h-.05c-.11.43-.22.78-.3,1.13l-.5,1.73-1.43.14,1.2-3.59Z"/>
            <path class="cls-7" d="m705.03,247.47l-4.08-2.9,1.46-.14,1.94,1.41c.37.28.72.54,1.22.89h.05c.1-.42.17-.72.25-1.04l.45-1.63,1.39-.13-1.07,3.41,4.34,3.03-1.5.15-2.04-1.48c-.4-.3-.83-.6-1.32-.96h-.05c-.11.43-.21.78-.3,1.12l-.49,1.73-1.43.14,1.19-3.58Z"/>
            <path class="cls-7" d="m714.37,246.57l-4.08-2.9,1.46-.14,1.93,1.4c.37.28.72.53,1.22.89h.04c.1-.42.17-.71.25-1.03l.44-1.63,1.38-.13-1.05,3.41,4.33,3.02-1.5.15-2.04-1.48c-.4-.3-.83-.6-1.32-.96h-.05c-.1.43-.21.77-.29,1.12l-.48,1.72-1.42.14,1.17-3.57Z"/>
            <path class="cls-7" d="m697.09,270.2l-4.12-2.94,1.48-.15,1.95,1.42c.37.28.72.54,1.23.9h.05c.1-.42.17-.73.26-1.06l.46-1.66,1.41-.14-1.09,3.48,4.38,3.06-1.52.16-2.06-1.5c-.41-.3-.84-.6-1.33-.97h-.05c-.11.44-.22.79-.3,1.15l-.5,1.76-1.45.15,1.21-3.65Z"/>
            <path class="cls-7" d="m706.54,269.24l-4.11-2.93,1.47-.15,1.95,1.42c.37.28.72.54,1.23.9h.05c.1-.42.17-.73.26-1.05l.45-1.66,1.4-.14-1.07,3.47,4.37,3.05-1.51.15-2.06-1.49c-.41-.3-.84-.6-1.33-.97h-.05c-.11.43-.21.79-.3,1.14l-.5,1.76-1.44.15,1.19-3.64Z"/>
            <path class="cls-7" d="m715.95,268.29l-4.11-2.92,1.47-.15,1.95,1.42c.37.28.72.54,1.22.9h.05c.1-.42.17-.73.25-1.05l.44-1.66,1.39-.14-1.06,3.46,4.37,3.05-1.51.15-2.06-1.49c-.41-.3-.83-.6-1.33-.97h-.05c-.11.43-.21.79-.29,1.14l-.49,1.75-1.43.15,1.18-3.63Z"/>
            <path class="cls-7" d="m725.32,267.34l-4.1-2.92,1.46-.15,1.94,1.41c.37.28.72.54,1.22.89h.05c.1-.42.16-.72.25-1.05l.44-1.65,1.39-.14-1.04,3.45,4.36,3.04-1.5.15-2.05-1.49c-.41-.3-.83-.6-1.33-.97h-.05c-.1.43-.21.79-.29,1.14l-.48,1.75-1.43.15,1.16-3.62Z"/>
            <path class="cls-7" d="m707.06,292.34l-4.14-2.96,1.48-.16,1.97,1.43c.37.28.73.55,1.24.91h.05c.1-.43.17-.74.26-1.07l.46-1.69,1.41-.15-1.08,3.53,4.41,3.08-1.53.16-2.07-1.51c-.41-.31-.84-.61-1.34-.98h-.05c-.11.44-.21.8-.3,1.16l-.5,1.79-1.45.16,1.2-3.7Z"/>
            <path class="cls-7" d="m716.54,291.33l-4.14-2.95,1.48-.16,1.96,1.43c.37.28.73.54,1.23.9h.05c.1-.43.17-.74.25-1.07l.45-1.68,1.4-.15-1.06,3.52,4.4,3.07-1.52.16-2.07-1.5c-.41-.3-.84-.61-1.34-.98h-.05c-.11.44-.21.8-.29,1.16l-.49,1.78-1.44.15,1.19-3.69Z"/>
            <path class="cls-7" d="m725.97,290.33l-4.13-2.95,1.47-.16,1.96,1.43c.37.28.73.54,1.23.9h.05c.1-.43.16-.74.25-1.06l.44-1.68,1.4-.15-1.05,3.51,4.39,3.07-1.51.16-2.07-1.5c-.41-.3-.84-.61-1.34-.98h-.05c-.1.44-.21.8-.29,1.16l-.48,1.78-1.44.15,1.17-3.68Z"/>
            <path class="cls-7" d="m735.37,289.32l-4.12-2.94,1.46-.15,1.96,1.42c.37.28.72.54,1.23.9h.05c.1-.43.16-.73.24-1.06l.43-1.68,1.39-.15-1.03,3.5,4.39,3.06-1.51.16-2.06-1.5c-.41-.3-.84-.6-1.34-.97h-.05c-.1.44-.2.8-.29,1.15l-.48,1.77-1.43.15,1.15-3.67Z"/>
            <path class="cls-7" d="m717.13,314.71l-4.17-2.98,1.49-.16,1.98,1.44c.38.28.73.55,1.24.91h.05c.1-.44.17-.75.25-1.08l.45-1.71,1.41-.16-1.07,3.58,4.43,3.1-1.53.17-2.09-1.52c-.41-.31-.85-.61-1.35-.99h-.05c-.11.45-.21.81-.3,1.18l-.49,1.81-1.45.16,1.19-3.76Z"/>
            <path class="cls-7" d="m726.64,313.65l-4.16-2.97,1.48-.16,1.97,1.44c.38.28.73.55,1.24.91h.05c.1-.44.17-.75.25-1.08l.44-1.71,1.41-.16-1.06,3.57,4.43,3.1-1.52.17-2.08-1.52c-.41-.31-.85-.61-1.35-.99h-.05c-.1.45-.21.81-.29,1.17l-.49,1.81-1.45.16,1.18-3.75Z"/>
            <path class="cls-7" d="m736.11,312.59l-4.16-2.97,1.47-.16,1.97,1.44c.37.28.73.55,1.24.91h.05c.1-.43.16-.75.25-1.08l.44-1.7,1.4-.16-1.04,3.56,4.42,3.09-1.52.17-2.08-1.51c-.41-.31-.84-.61-1.35-.98h-.05c-.1.45-.21.81-.29,1.17l-.48,1.8-1.44.16,1.16-3.74Z"/>
            <path class="cls-7" d="m745.53,311.54l-4.15-2.96,1.47-.16,1.97,1.43c.37.28.73.55,1.24.91h.05c.09-.43.16-.74.24-1.08l.43-1.7,1.4-.15-1.02,3.55,4.41,3.08-1.51.17-2.08-1.51c-.41-.31-.84-.61-1.34-.98h-.05c-.1.44-.2.81-.28,1.17l-.47,1.8-1.44.16,1.14-3.73Z"/>
            <path class="cls-7" d="m727.32,338.32l-4.2-3,1.49-.17,1.99,1.45c.38.29.74.55,1.25.92h.05c.1-.44.17-.76.25-1.1l.45-1.74,1.42-.16-1.06,3.63,4.46,3.12-1.54.18-2.1-1.53c-.41-.31-.85-.62-1.36-.99h-.05c-.11.45-.21.83-.29,1.19l-.49,1.84-1.46.17,1.18-3.81Z"/>
            <path class="cls-7" d="m736.86,337.2l-4.19-2.99,1.49-.17,1.99,1.45c.38.28.74.55,1.25.92h.05c.1-.44.16-.76.25-1.1l.44-1.73,1.41-.16-1.05,3.62,4.45,3.12-1.53.18-2.1-1.53c-.41-.31-.85-.62-1.36-.99h-.05c-.1.45-.21.82-.29,1.19l-.48,1.83-1.45.17,1.17-3.8Z"/>
            <path class="cls-7" d="m746.35,336.09l-4.18-2.99,1.48-.17,1.98,1.45c.38.28.73.55,1.25.92h.05c.1-.44.16-.76.24-1.09l.43-1.73,1.41-.16-1.03,3.61,4.45,3.11-1.52.18-2.09-1.52c-.41-.31-.85-.61-1.35-.99h-.05c-.1.45-.2.82-.28,1.19l-.47,1.83-1.45.17,1.15-3.79Z"/>
            <path class="cls-7" d="m755.81,334.99l-4.17-2.98,1.47-.17,1.98,1.44c.38.28.73.55,1.24.91h.05c.09-.44.16-.76.24-1.09l.42-1.72,1.4-.16-1.02,3.6,4.44,3.1-1.52.18-2.09-1.52c-.41-.31-.85-.61-1.35-.99h-.05c-.1.45-.2.82-.28,1.18l-.47,1.82-1.44.17,1.13-3.78Z"/>
            <path class="cls-7" d="m737.62,360.16l-4.22-3.02,1.5-.18,2,1.46c.38.29.74.56,1.26.93h.05c.1-.45.17-.77.25-1.12l.44-1.76,1.42-.17-1.05,3.68,4.49,3.15-1.54.19-2.11-1.54c-.42-.31-.86-.62-1.37-1h-.05c-.1.46-.21.84-.29,1.21l-.48,1.86-1.46.18,1.18-3.86Z"/>
            <path class="cls-7" d="m747.18,358.99l-4.21-3.02,1.49-.18,2,1.46c.38.29.74.56,1.26.92h.05c.1-.45.16-.77.24-1.11l.43-1.76,1.42-.17-1.04,3.67,4.48,3.14-1.53.19-2.11-1.54c-.42-.31-.86-.62-1.37-1h-.05c-.1.46-.21.84-.29,1.21l-.48,1.86-1.46.18,1.16-3.85Z"/>
            <path class="cls-7" d="m756.71,357.83l-4.21-3.01,1.48-.18,1.99,1.46c.38.29.74.56,1.25.92h.05c.09-.45.16-.77.24-1.11l.43-1.75,1.41-.17-1.02,3.66,4.47,3.13-1.53.19-2.11-1.53c-.42-.31-.85-.62-1.36-1h-.05c-.1.46-.2.83-.28,1.2l-.47,1.85-1.45.18,1.14-3.84Z"/>
            <path class="cls-7" d="m766.19,356.67l-4.2-3,1.48-.18,1.99,1.45c.38.29.74.55,1.25.92h.05c.09-.45.16-.77.23-1.11l.42-1.75,1.41-.17-1.01,3.65,4.47,3.13-1.52.19-2.1-1.53c-.42-.31-.85-.62-1.36-1h-.05c-.1.46-.2.83-.28,1.2l-.46,1.85-1.44.18,1.12-3.83Z"/>
          </g>
          <g>
            <path class="cls-7" d="m600.64,279.48l-4.18-3,1.54-.16,1.98,1.45c.38.29.73.55,1.25.92h.05c.12-.43.2-.75.3-1.08l.53-1.71,1.46-.15-1.24,3.56,4.45,3.13-1.58.16-2.09-1.53c-.41-.31-.85-.62-1.35-.99h-.05c-.13.45-.25.81-.35,1.17l-.58,1.8-1.51.15,1.38-3.74Z"/>
            <path class="cls-7" d="m610.49,278.48l-4.18-2.99,1.53-.15,1.98,1.45c.38.28.73.55,1.24.92h.05c.12-.43.2-.75.3-1.08l.52-1.7,1.46-.15-1.23,3.56,4.45,3.12-1.58.16-2.09-1.53c-.41-.31-.85-.62-1.35-.99h-.05c-.13.45-.25.81-.35,1.17l-.57,1.8-1.5.15,1.36-3.73Z"/>
            <path class="cls-7" d="m620.29,277.49l-4.17-2.99,1.53-.15,1.98,1.45c.38.28.73.55,1.24.92h.05c.12-.43.2-.74.29-1.08l.52-1.7,1.45-.15-1.21,3.55,4.44,3.11-1.57.16-2.09-1.52c-.41-.31-.85-.61-1.35-.99h-.05c-.12.44-.24.81-.34,1.17l-.56,1.79-1.49.15,1.34-3.72Z"/>
            <path class="cls-7" d="m630.05,276.5l-4.16-2.98,1.52-.15,1.97,1.44c.37.28.73.55,1.24.91h.05c.11-.43.19-.74.29-1.07l.51-1.69,1.45-.15-1.19,3.54,4.43,3.1-1.56.16-2.08-1.52c-.41-.31-.85-.61-1.35-.99h-.05c-.12.44-.24.8-.34,1.16l-.55,1.79-1.49.15,1.32-3.71Z"/>
            <path class="cls-7" d="m627.96,351.11l-4.26-3.07,1.56-.18,2.02,1.49c.38.29.75.57,1.27.94h.05c.12-.45.2-.78.3-1.13l.52-1.78,1.48-.17-1.22,3.72,4.53,3.19-1.6.19-2.13-1.56c-.42-.32-.87-.63-1.38-1.02h-.05c-.12.47-.25.85-.34,1.22l-.57,1.88-1.52.18,1.35-3.91Z"/>
            <path class="cls-7" d="m637.91,349.95l-4.25-3.06,1.55-.18,2.02,1.48c.38.29.75.57,1.27.94h.05c.11-.45.19-.78.29-1.13l.51-1.78,1.47-.17-1.2,3.71,4.53,3.19-1.59.19-2.13-1.56c-.42-.32-.86-.63-1.38-1.01h-.05c-.12.46-.24.84-.34,1.22l-.56,1.88-1.51.18,1.34-3.9Z"/>
            <path class="cls-7" d="m647.81,348.79l-4.25-3.05,1.54-.18,2.01,1.48c.38.29.74.56,1.27.94h.05c.11-.45.19-.78.29-1.12l.5-1.77,1.47-.17-1.19,3.7,4.52,3.18-1.59.19-2.13-1.56c-.42-.32-.86-.63-1.38-1.01h-.05c-.12.46-.24.84-.33,1.22l-.55,1.87-1.51.18,1.32-3.89Z"/>
            <path class="cls-7" d="m657.67,347.64l-4.24-3.05,1.54-.18,2.01,1.48c.38.29.74.56,1.26.93h.05c.11-.45.19-.77.28-1.12l.5-1.77,1.46-.17-1.17,3.69,4.51,3.17-1.58.19-2.12-1.55c-.42-.31-.86-.63-1.37-1.01h-.05c-.12.46-.23.84-.33,1.21l-.54,1.87-1.5.18,1.3-3.88Z"/>
            <path class="cls-7" d="m637.96,373.48l-4.29-3.09,1.56-.19,2.03,1.5c.39.29.75.57,1.28.95h.05c.12-.46.2-.79.29-1.14l.52-1.81,1.48-.18-1.21,3.78,4.56,3.22-1.61.2-2.15-1.58c-.42-.32-.87-.64-1.39-1.02h-.05c-.12.47-.24.86-.34,1.24l-.56,1.91-1.53.19,1.35-3.96Z"/>
            <path class="cls-7" d="m647.94,372.26l-4.28-3.08,1.55-.19,2.03,1.49c.39.29.75.57,1.28.95h.05c.11-.46.19-.79.29-1.14l.51-1.8,1.48-.18-1.2,3.77,4.55,3.21-1.6.2-2.14-1.57c-.42-.32-.87-.63-1.39-1.02h-.05c-.12.47-.24.86-.34,1.24l-.56,1.9-1.52.19,1.33-3.95Z"/>
            <path class="cls-7" d="m657.87,371.05l-4.27-3.08,1.55-.19,2.03,1.49c.38.29.75.57,1.27.94h.05c.11-.46.19-.79.28-1.14l.5-1.8,1.47-.18-1.18,3.75,4.55,3.2-1.59.2-2.14-1.57c-.42-.32-.87-.63-1.38-1.02h-.05c-.12.47-.24.85-.33,1.24l-.55,1.9-1.51.19,1.31-3.94Z"/>
            <path class="cls-7" d="m667.76,369.84l-4.27-3.07,1.54-.19,2.02,1.49c.38.29.75.57,1.27.94h.05c.11-.46.19-.79.28-1.14l.49-1.79,1.46-.18-1.16,3.74,4.54,3.19-1.58.19-2.14-1.56c-.42-.32-.87-.63-1.38-1.02h-.05c-.12.47-.23.85-.32,1.23l-.54,1.89-1.51.19,1.29-3.93Z"/>
          </g>
          <g>
            <path class="cls-7" d="m523.21,312.18l-4.27-3.08,1.61-.17,2.02,1.49c.38.29.75.57,1.27.94h.05c.14-.45.23-.78.34-1.12l.6-1.77,1.53-.16-1.39,3.7,4.55,3.21-1.65.18-2.14-1.57c-.42-.32-.87-.63-1.38-1.02h-.05c-.14.46-.28.84-.4,1.22l-.65,1.87-1.57.17,1.53-3.88Z"/>
            <path class="cls-7" d="m533.47,311.09l-4.26-3.07,1.6-.17,2.02,1.49c.38.29.75.57,1.27.94h.05c.13-.45.23-.77.34-1.12l.59-1.76,1.52-.16-1.37,3.69,4.54,3.2-1.64.18-2.13-1.57c-.42-.32-.87-.63-1.38-1.02h-.05c-.14.46-.28.84-.39,1.21l-.64,1.87-1.56.17,1.51-3.87Z"/>
            <path class="cls-7" d="m543.68,310l-4.26-3.07,1.59-.17,2.02,1.49c.38.29.75.57,1.27.94h.05c.13-.45.22-.77.33-1.12l.58-1.76,1.51-.16-1.35,3.68,4.53,3.2-1.64.18-2.13-1.56c-.42-.32-.86-.63-1.38-1.02h-.05c-.14.46-.27.84-.38,1.21l-.63,1.86-1.56.17,1.49-3.86Z"/>
            <path class="cls-7" d="m553.84,308.92l-4.25-3.06,1.58-.17,2.01,1.48c.38.29.74.56,1.27.94h.05c.13-.45.22-.77.33-1.11l.57-1.76,1.51-.16-1.33,3.67,4.52,3.19-1.63.17-2.13-1.56c-.42-.32-.86-.63-1.37-1.01h-.05c-.14.46-.27.84-.38,1.21l-.62,1.86-1.55.17,1.47-3.85Z"/>
            <path class="cls-7" d="m551.97,381.98l-4.35-3.15,1.62-.2,2.06,1.53c.39.3.76.58,1.3.97h.05c.13-.47.23-.81.34-1.17l.59-1.85,1.54-.19-1.37,3.86,4.63,3.28-1.67.21-2.18-1.61c-.43-.33-.88-.65-1.41-1.05h-.05c-.14.48-.28.88-.39,1.27l-.64,1.95-1.59.2,1.51-4.06Z"/>
            <path class="cls-7" d="m562.34,380.72l-4.34-3.14,1.62-.2,2.06,1.52c.39.3.76.58,1.29.96h.05c.13-.47.22-.81.33-1.17l.58-1.84,1.54-.19-1.35,3.85,4.62,3.27-1.66.2-2.17-1.6c-.43-.32-.88-.65-1.41-1.04h-.05c-.14.48-.27.88-.38,1.27l-.63,1.95-1.58.19,1.49-4.05Z"/>
            <path class="cls-7" d="m572.66,379.46l-4.34-3.14,1.61-.2,2.05,1.52c.39.3.76.58,1.29.96h.05c.13-.47.22-.81.33-1.16l.57-1.84,1.53-.19-1.33,3.84,4.61,3.27-1.65.2-2.17-1.6c-.43-.32-.88-.65-1.4-1.04h-.05c-.14.48-.27.87-.38,1.26l-.62,1.94-1.57.19,1.47-4.04Z"/>
            <path class="cls-7" d="m582.93,378.2l-4.33-3.13,1.6-.19,2.05,1.52c.39.3.76.58,1.29.96h.05c.13-.47.22-.8.32-1.16l.56-1.83,1.52-.18-1.31,3.83,4.61,3.26-1.65.2-2.17-1.6c-.43-.32-.88-.64-1.4-1.04h-.05c-.13.48-.26.87-.37,1.26l-.61,1.94-1.56.19,1.45-4.02Z"/>
          </g>
        </g>
      </g>
      <g>
        <g>
          <path class="cls-7" d="m320.33,137.21l-4.4.34.07,2.34-1.2.09-.07-2.35-5.71.44-.03-.96,2.02-.16-.08-2.8,3.69-.28-.04-1.46-2.87.22c-.52.83-1.12,1.57-1.75,2.15-.23-.15-.74-.43-1.04-.56,1.13-.93,2.1-2.35,2.63-3.8l1.19.18c-.14.34-.31.7-.46,1.03l7.26-.55.03.95-3.78.29.04,1.46,3.5-.27.03.92-3.5.27.06,1.88,4.4-.34.03.95Zm-5.63-.52l-.06-1.88-2.52.19.06,1.88,2.52-.19Z"/>
          <path class="cls-7" d="m336.9,136.93c.02.63-.17.96-.66,1.15-.52.22-1.36.31-2.66.41-.08-.28-.32-.74-.53-1,.97-.03,1.97-.12,2.27-.15.27-.02.37-.11.36-.34l-.06-1.85-5.66.44c-.29,1.21-.87,2.43-2.03,3.38-.18-.2-.64-.52-.91-.65,1.9-1.57,2.03-3.66,1.97-5.32l-.11-3.32,7.77-.59.26,7.84Zm-1.31-2.73l-.05-1.56-5.36.41c.02.49,0,1.02-.06,1.57l5.48-.42Zm-5.49-3.66l.05,1.56,5.36-.41-.05-1.56-5.36.41Z"/>
          <path class="cls-7" d="m354.79,127.86l.31,8.84-1.23.1-.02-.64-5.85.45.02.69-1.18.09-.3-8.89,8.25-.63Zm-7.03,1.53l.09,2.57,5.84-.45-.09-2.57-5.84.45Zm6.06,5.77l-.09-2.68-5.84.45.09,2.68,5.84-.45Z"/>
          <path class="cls-7" d="m310.24,163.72l2.03-.16-.16-5.25-1.66.13-.02-.78c.86-.2,1.48-.44,2-.76l1.09-.09.2,6.63,1.81-.15.03,1.01-5.29.43-.03-1.01Z"/>
          <path class="cls-7" d="m317.41,163.14l2.02-.16-.16-5.25-1.66.13-.02-.78c.86-.2,1.47-.44,1.99-.76l1.09-.09.2,6.62,1.81-.15.03,1.01-5.28.43-.03-1.01Z"/>
          <path class="cls-7" d="m324.05,162.89c2.5-2.35,4.02-3.84,3.98-5.03-.03-.83-.57-1.34-1.61-1.26-.73.06-1.32.5-1.79,1.02l-.84-.62c.77-.79,1.57-1.3,2.77-1.4,1.69-.14,2.81.69,2.85,2.07s-1.4,2.92-3.27,4.78c.46-.08,1.05-.16,1.5-.2l2.34-.19.03,1.04-5.96.48-.02-.71Z"/>
          <path class="cls-7" d="m331.14,159.18c-.08-2.56,1.03-4.02,2.85-4.16s3.02,1.13,3.1,3.68-1.01,4.07-2.85,4.22c-1.83.15-3.03-1.17-3.11-3.74Zm4.58-.37c-.07-2.19-.76-2.9-1.7-2.83s-1.58.89-1.51,3.09.76,2.96,1.7,2.88,1.57-.95,1.5-3.14Z"/>
          <path class="cls-7" d="m338.12,161.53l.67-.84c.55.42,1.25.76,2.2.68,1.04-.08,1.73-.62,1.71-1.39-.03-.84-.7-1.33-2.77-1.16l-.03-.9c1.81-.15,2.39-.76,2.37-1.49-.02-.68-.57-1.05-1.45-.98-.71.06-1.3.4-1.81.89l-.77-.7c.71-.62,1.54-1.08,2.6-1.17,1.65-.13,2.83.5,2.87,1.75.03.88-.56,1.51-1.52,1.9v.05c1.07.14,1.93.73,1.96,1.76.05,1.37-1.31,2.29-3,2.43-1.45.12-2.4-.29-3.03-.83Z"/>
          <path class="cls-7" d="m345.37,158.03c-.09-2.56,1.01-4.01,2.83-4.15s3.01,1.13,3.1,3.67c.09,2.56-1,4.06-2.83,4.21s-3.02-1.17-3.1-3.73Zm4.56-.37c-.08-2.19-.76-2.9-1.69-2.82s-1.57.89-1.49,3.08c.07,2.19.76,2.95,1.7,2.88s1.57-.95,1.49-3.13Z"/>
          <path class="cls-7" d="m352.54,157.74c-.1-2.99,1.49-4.33,3.31-4.47,1.02-.08,1.78.23,2.31.65l-.76.8c-.35-.31-.91-.5-1.46-.46-1.16.09-2.1.91-2.08,3.14.52-.61,1.3-1.02,1.96-1.07,1.53-.12,2.6.57,2.65,2.13s-1.16,2.57-2.65,2.69c-1.74.14-3.2-.92-3.29-3.42Zm1.39.57c.2,1.4.88,2,1.85,1.92.8-.06,1.41-.69,1.38-1.65s-.6-1.41-1.57-1.33c-.51.04-1.13.34-1.66,1.06Z"/>
          <path class="cls-7" d="m310.99,189.05l2.03-.17-.16-5.28-1.67.14-.02-.78c.87-.2,1.48-.45,2-.77l1.1-.09.2,6.67,1.82-.15.03,1.02-5.3.45-.03-1.02Z"/>
          <path class="cls-7" d="m318.18,188.43l2.03-.17-.16-5.28-1.66.14-.02-.78c.87-.2,1.48-.45,2-.77l1.1-.09.21,6.66,1.81-.15.03,1.02-5.29.45-.03-1.02Z"/>
          <path class="cls-7" d="m324.84,188.17c2.51-2.37,4.03-3.88,3.99-5.08-.03-.84-.57-1.35-1.61-1.26-.73.06-1.32.51-1.8,1.03l-.84-.62c.77-.79,1.57-1.31,2.78-1.41,1.7-.14,2.82.69,2.86,2.08.04,1.4-1.41,2.94-3.28,4.82.46-.08,1.05-.17,1.51-.2l2.35-.2.03,1.05-5.97.51-.02-.72Z"/>
          <path class="cls-7" d="m331.95,184.41c-.08-2.58,1.03-4.05,2.86-4.2s3.03,1.13,3.11,3.69c.08,2.58-1.01,4.1-2.85,4.26-1.83.16-3.04-1.17-3.12-3.75Zm4.59-.39c-.07-2.2-.76-2.92-1.7-2.84s-1.58.91-1.51,3.11c.07,2.21.76,2.97,1.7,2.89s1.58-.96,1.51-3.17Z"/>
          <path class="cls-7" d="m338.95,186.74l.68-.85c.56.43,1.26.76,2.21.68,1.04-.09,1.74-.63,1.71-1.4-.03-.84-.7-1.33-2.78-1.16l-.03-.91c1.81-.15,2.4-.77,2.37-1.51-.02-.68-.57-1.05-1.45-.98-.71.06-1.3.41-1.82.9l-.78-.71c.71-.63,1.55-1.09,2.61-1.18,1.65-.14,2.84.49,2.88,1.75.03.89-.56,1.53-1.53,1.92v.05c1.07.13,1.93.73,1.97,1.76.05,1.38-1.32,2.31-3.01,2.45-1.45.12-2.41-.29-3.04-.82Z"/>
          <path class="cls-7" d="m346.81,186l2.01-.17-.18-5.25-1.65.14-.03-.78c.86-.2,1.46-.44,1.98-.77l1.09-.09.23,6.63,1.8-.15.04,1.01-5.25.45-.03-1.02Z"/>
          <path class="cls-7" d="m353.4,184.5c-.03-.97.74-1.69,1.58-2.15v-.04c-.7-.36-1.27-.88-1.3-1.68-.04-1.22,1.05-2.1,2.55-2.22,1.59-.13,2.62.62,2.66,1.83.03.79-.6,1.49-1.15,1.89v.05c.83.34,1.58.82,1.62,1.84.04,1.16-1.12,2.16-2.89,2.31s-3.03-.62-3.07-1.84Zm4.6-.39c-.03-.91-1.05-1.13-2.31-1.46-.61.43-1.04.99-1.02,1.63.03.78.81,1.26,1.79,1.18s1.57-.6,1.54-1.34Zm-.32-3.69c-.02-.7-.55-1.19-1.45-1.12-.75.06-1.29.54-1.27,1.23.03.82.91,1.11,1.95,1.36.52-.47.79-.96.77-1.48Z"/>
          <path class="cls-7" d="m311.74,214.53l2.04-.18-.16-5.32-1.67.15-.02-.79c.87-.21,1.48-.46,2.01-.78l1.1-.1.2,6.71,1.82-.16.03,1.03-5.32.47-.03-1.03Z"/>
          <path class="cls-7" d="m318.96,213.89l2.04-.18-.16-5.31-1.67.15-.02-.79c.87-.21,1.48-.45,2-.78l1.1-.1.21,6.7,1.82-.16.03,1.03-5.31.47-.03-1.03Z"/>
          <path class="cls-7" d="m325.64,213.6c2.52-2.4,4.04-3.92,4-5.12-.03-.84-.57-1.35-1.62-1.26-.73.06-1.32.52-1.8,1.04l-.84-.62c.77-.8,1.58-1.33,2.79-1.43,1.7-.15,2.83.68,2.87,2.08s-1.41,2.97-3.29,4.86c.47-.08,1.06-.17,1.51-.21l2.36-.21.03,1.06-5.99.53-.02-.72Z"/>
          <path class="cls-7" d="m332.76,209.79c-.08-2.6,1.03-4.08,2.87-4.24s3.04,1.12,3.12,3.71-1.01,4.13-2.86,4.29-3.04-1.17-3.13-3.76Zm4.61-.41c-.07-2.22-.76-2.93-1.71-2.85s-1.59.92-1.51,3.14.77,2.99,1.71,2.91,1.58-.97,1.51-3.19Z"/>
          <path class="cls-7" d="m343.66,210.67l-4.01.36-.03-.83,3.52-5.15,1.68-.15.16,4.7,1.17-.1.03.96-1.17.1.07,2.04-1.36.12-.07-2.04Zm-.03-.96l-.07-1.95c-.01-.43,0-1.12.01-1.55h-.05c-.21.41-.45.8-.7,1.22l-1.74,2.51,2.55-.23Z"/>
          <path class="cls-7" d="m347.09,208.52c-.09-2.59,1.02-4.07,2.85-4.23s3.03,1.12,3.12,3.7c.09,2.59-1,4.12-2.84,4.28s-3.03-1.16-3.12-3.76Zm4.59-.41c-.08-2.21-.77-2.93-1.71-2.84s-1.58.91-1.5,3.13c.08,2.21.77,2.98,1.71,2.9s1.58-.97,1.5-3.18Z"/>
          <path class="cls-7" d="m354.08,210.88l.66-.87c.54.41,1.22.74,2.18.66,1.04-.09,1.8-.76,1.77-1.74s-.75-1.48-1.8-1.39c-.59.05-.93.23-1.46.58l-.71-.32.14-3.78,4.66-.41.04,1.04-3.41.3-.14,2.05c.39-.21.75-.34,1.25-.38,1.54-.14,2.82.49,2.88,2.14s-1.39,2.76-3.01,2.91c-1.45.13-2.38-.29-3.05-.78Z"/>
          <path class="cls-7" d="m312.5,240.18l2.05-.19-.16-5.35-1.68.15-.02-.79c.87-.21,1.49-.46,2.01-.8l1.1-.1.2,6.75,1.83-.17.03,1.03-5.34.5-.03-1.03Z"/>
          <path class="cls-7" d="m319.73,239.51l2.04-.19-.16-5.34-1.67.15-.02-.79c.87-.21,1.49-.46,2.01-.79l1.1-.1.21,6.74,1.82-.17.03,1.03-5.33.49-.03-1.03Z"/>
          <path class="cls-7" d="m326.44,239.19c2.53-2.42,4.05-3.96,4.01-5.17-.03-.85-.58-1.36-1.62-1.26-.73.07-1.33.52-1.81,1.06l-.84-.62c.77-.81,1.58-1.34,2.8-1.45,1.71-.16,2.84.67,2.88,2.08s-1.41,2.99-3.3,4.91c.47-.09,1.06-.17,1.52-.22l2.37-.22.03,1.06-6.01.56-.02-.73Z"/>
          <path class="cls-7" d="m333.58,235.33c-.08-2.61,1.03-4.1,2.88-4.27s3.05,1.12,3.13,3.72-1.01,4.16-2.87,4.33c-1.84.17-3.05-1.16-3.14-3.78Zm4.62-.43c-.07-2.23-.77-2.95-1.71-2.86s-1.59.93-1.52,3.16c.07,2.23.77,3.01,1.72,2.92s1.59-.98,1.52-3.22Z"/>
          <path class="cls-7" d="m344.51,236.18l-4.02.37-.03-.83,3.53-5.2,1.69-.15.16,4.73,1.17-.11.03.96-1.17.11.07,2.06-1.36.13-.07-2.06Zm-.03-.96l-.07-1.96c-.01-.43,0-1.13.01-1.56h-.05c-.21.41-.45.81-.7,1.23l-1.75,2.53,2.56-.24Z"/>
          <path class="cls-7" d="m348.02,237.19c2.5-2.41,4.01-3.94,3.97-5.15-.03-.84-.58-1.36-1.62-1.26-.73.07-1.32.52-1.79,1.05l-.84-.62c.77-.81,1.57-1.34,2.78-1.45,1.69-.16,2.82.67,2.87,2.08.05,1.42-1.4,2.98-3.26,4.89.46-.09,1.05-.17,1.51-.22l2.35-.22.04,1.06-5.97.55-.02-.73Z"/>
          <path class="cls-7" d="m355.18,233.63c-.11-3.05,1.51-4.43,3.34-4.6,1.03-.09,1.79.21,2.34.64l-.76.83c-.35-.31-.92-.5-1.47-.45-1.17.11-2.12.95-2.1,3.23.52-.62,1.31-1.05,1.97-1.11,1.54-.14,2.62.55,2.68,2.15.05,1.52-1.16,2.63-2.67,2.77-1.76.16-3.23-.9-3.32-3.45Zm1.4.56c.2,1.42.89,2.03,1.87,1.94.8-.07,1.42-.72,1.39-1.7s-.6-1.43-1.58-1.34c-.51.05-1.14.35-1.67,1.1Z"/>
          <path class="cls-7" d="m313.26,265.99l2.05-.2-.16-5.38-1.68.16-.02-.8c.87-.22,1.49-.47,2.02-.81l1.11-.11.2,6.79,1.83-.18.03,1.04-5.35.52-.03-1.04Z"/>
          <path class="cls-7" d="m320.52,265.29l2.05-.2-.16-5.38-1.68.16-.02-.8c.87-.22,1.49-.47,2.01-.81l1.11-.11.21,6.79,1.83-.18.03,1.04-5.34.52-.03-1.04Z"/>
          <path class="cls-7" d="m327.24,264.94c2.53-2.45,4.06-4,4.02-5.22-.03-.85-.58-1.37-1.63-1.27-.74.07-1.33.53-1.81,1.07l-.85-.62c.78-.82,1.59-1.36,2.8-1.47,1.71-.16,2.84.67,2.89,2.09.05,1.43-1.42,3.02-3.3,4.95.47-.09,1.06-.18,1.52-.22l2.37-.23.03,1.07-6.03.58-.02-.73Z"/>
          <path class="cls-7" d="m334.41,261.03c-.08-2.63,1.04-4.13,2.88-4.31s3.06,1.12,3.14,3.73c.09,2.63-1.02,4.19-2.88,4.37s-3.06-1.16-3.15-3.79Zm4.63-.45c-.07-2.25-.77-2.97-1.72-2.87s-1.59.94-1.52,3.19c.07,2.25.77,3.02,1.72,2.93s1.59-1,1.52-3.24Z"/>
          <path class="cls-7" d="m341.47,263.37l.67-.89c.55.41,1.23.75,2.2.65,1.05-.1,1.82-.79,1.79-1.78s-.76-1.5-1.82-1.4c-.59.06-.94.24-1.48.6l-.72-.32.15-3.84,4.71-.45.04,1.06-3.45.33-.15,2.08c.4-.21.76-.35,1.27-.4,1.55-.15,2.85.48,2.91,2.16.06,1.71-1.41,2.81-3.04,2.97-1.47.14-2.41-.28-3.08-.77Z"/>
          <path class="cls-7" d="m348.89,262.85c2.51-2.44,4.03-3.98,3.98-5.2-.03-.85-.58-1.36-1.62-1.26-.73.07-1.32.53-1.8,1.07l-.84-.62c.77-.82,1.57-1.35,2.78-1.47,1.7-.16,2.83.67,2.88,2.08.05,1.42-1.4,3-3.27,4.93.47-.09,1.06-.18,1.51-.22l2.36-.23.04,1.07-5.99.58-.02-.73Z"/>
          <path class="cls-7" d="m359.74,260.46l-4.01.39-.03-.84,3.52-5.23,1.68-.16.17,4.74,1.17-.11.03.97-1.17.11.07,2.06-1.36.13-.07-2.07Zm-.03-.97l-.07-1.97c-.02-.43,0-1.13,0-1.57h-.05c-.21.42-.45.81-.7,1.24l-1.74,2.54,2.55-.25Z"/>
          <path class="cls-7" d="m367.8,416.21l.04,1"/>
          <path class="cls-7" d="m369.51,471.97l.04,1.12"/>
        </g>
        <g>
          <path class="cls-7" d="m408.96,128.52l-1.16.38.11,2.7c.02.48-.08.76-.4.93-.32.19-.82.26-1.59.31-.03-.23-.2-.64-.36-.9.49-.02.95-.05,1.09-.07.15-.01.21-.06.2-.19l-.1-2.43c-.45.15-.87.3-1.26.41l-.28-.93c.42-.11.93-.26,1.5-.44l-.09-2.12-1.33.1-.04-.91,1.33-.1-.08-2.01,1.06-.08.08,2.01,1.09-.08.04.91-1.09.08.08,1.87c.35-.1.69-.22,1.04-.33l.16.89Zm7.23-4.41l-1.9.15.6.08c-.18.38-.35.79-.51,1.12l1.54-.12.25,5.74c.02.45-.08.71-.42.86-.35.18-.83.23-1.6.29-.06-.24-.22-.6-.38-.81.49-.02.99-.07,1.13-.08.15-.02.19-.06.19-.19l-.21-4.95-1.83.14.04.86,1.5-.12.03.68-1.5.12.03.79,1.13-.09.09,2.13-2.39.19.02.42-.8.06-.11-2.55,1.16-.09-.03-.79-1.49.11-.03-.68,1.49-.11-.04-.86-1.88.14.25,5.98-1.06.08-.28-6.77,1.47-.11c-.07-.3-.25-.69-.43-1l.76-.23-2.02.15-.03-.8,3.07-.23c-.08-.22-.2-.45-.33-.64l.96-.31c.22.26.39.6.5.87l3.02-.23.03.8Zm-2.83,1.42c.17-.37.35-.88.45-1.24l-2.53.19c.2.31.4.72.47,1l-.66.22,2.28-.17Zm.14,3.75l-1.56.12.04.87,1.56-.12-.04-.87Z"/>
          <path class="cls-7" d="m439.73,127.39c-.33.55-.77,1.01-1.28,1.4,1.4.18,2.67.38,3.63.58l-.98.75c-.96-.23-2.25-.46-3.75-.66-1.34.66-3.12,1.08-5.41,1.41-.1-.27-.29-.61-.49-.81,1.64-.2,2.99-.46,4.09-.81-.87-.09-1.74-.16-2.65-.22.3-.35.63-.76.96-1.2l-2.46.19-.04-.81,3.09-.24c.24-.36.45-.74.61-1.08l1.15.12c-.15.28-.31.58-.5.86l3.25-.25c.09-.19.18-.4.25-.61l1.1.18c-.04.11-.09.23-.13.34l1.96-.15.04.81-2.43.19Zm-5.19-5.03l-3.22.25-.04-.84,10.35-.79.04.84-3.32.25.03.76,2.87-.22.13,2.75-9.33.72-.12-2.76,2.64-.2-.03-.76Zm-1.46,2.87l1.58-.12-.05-1.22-1.58.12.05,1.22Zm2.03,2.53c-.16.24-.33.46-.5.68.82.06,1.62.12,2.41.21.56-.31,1.01-.69,1.37-1.14l-3.28.25Zm2.19-5.6l-1.69.13.03.76,1.69-.13-.03-.76Zm-1.57,2.87l1.69-.13-.06-1.22-1.69.13.05,1.22Zm2.7-1.43l.06,1.22,1.76-.14-.06-1.22-1.76.14Z"/>
          <path class="cls-7" d="m408.9,152.72l-2.95-3.56,1.58-.13,1.38,1.72c.26.34.51.66.87,1.09h.05c.29-.49.49-.84.72-1.22l1.19-1.93,1.5-.12-2.63,4.02,3.16,3.71-1.62.13-1.46-1.81c-.29-.37-.59-.73-.94-1.18h-.05c-.3.5-.56.91-.8,1.32l-1.28,2.04-1.54.13,2.82-4.22Z"/>
          <path class="cls-7" d="m418.99,151.9l-2.94-3.55,1.57-.13,1.38,1.72c.26.34.5.65.87,1.09h.05c.29-.49.49-.84.72-1.22l1.19-1.92,1.5-.12-2.61,4.02,3.16,3.7-1.62.13-1.46-1.81c-.29-.37-.59-.73-.94-1.18h-.05c-.3.5-.56.91-.8,1.32l-1.27,2.03-1.54.13,2.81-4.21Z"/>
          <path class="cls-7" d="m429.06,151.09l-2.94-3.55,1.57-.13,1.38,1.72c.26.34.5.65.87,1.09h.05c.28-.49.49-.84.71-1.22l1.18-1.92,1.49-.12-2.6,4.01,3.15,3.7-1.61.13-1.46-1.81c-.28-.37-.59-.73-.94-1.17h-.05c-.3.5-.56.91-.8,1.32l-1.26,2.03-1.53.12,2.79-4.2Z"/>
          <path class="cls-7" d="m439.09,150.28l-2.93-3.54,1.56-.13,1.38,1.71c.26.34.5.65.86,1.08h.05c.28-.49.48-.84.71-1.21l1.17-1.92,1.49-.12-2.59,4,3.15,3.69-1.61.13-1.46-1.8c-.28-.36-.59-.73-.94-1.17h-.05c-.29.5-.55.91-.79,1.32l-1.26,2.02-1.53.12,2.78-4.19Z"/>
          <path class="cls-7" d="m409.94,177.63l-2.96-3.57,1.58-.13,1.39,1.73c.26.34.51.66.87,1.09h.05c.29-.49.49-.85.72-1.23l1.2-1.94,1.51-.13-2.63,4.06,3.17,3.72-1.63.14-1.47-1.82c-.29-.37-.6-.73-.95-1.18h-.05c-.3.51-.56.92-.81,1.33l-1.28,2.05-1.55.13,2.83-4.25Z"/>
          <path class="cls-7" d="m420.06,176.77l-2.95-3.56,1.58-.13,1.39,1.73c.26.34.51.66.87,1.09h.05c.29-.49.49-.85.72-1.23l1.19-1.94,1.5-.13-2.62,4.05,3.17,3.71-1.62.14-1.46-1.82c-.29-.37-.6-.73-.95-1.18h-.05c-.3.51-.56.92-.8,1.33l-1.27,2.05-1.54.13,2.81-4.25Z"/>
          <path class="cls-7" d="m430.16,175.92l-2.95-3.56,1.57-.13,1.38,1.72c.26.34.51.66.87,1.09h.05c.28-.49.49-.85.72-1.23l1.18-1.94,1.5-.13-2.61,4.04,3.16,3.71-1.62.14-1.46-1.81c-.29-.37-.59-.73-.94-1.18h-.05c-.3.51-.56.92-.8,1.33l-1.27,2.05-1.54.13,2.8-4.24Z"/>
          <path class="cls-7" d="m440.22,175.06l-2.94-3.55,1.57-.13,1.38,1.72c.26.34.5.65.87,1.09h.05c.28-.49.49-.85.71-1.23l1.18-1.93,1.49-.13-2.59,4.04,3.16,3.7-1.61.14-1.46-1.81c-.29-.37-.59-.73-.94-1.18h-.05c-.29.5-.56.92-.79,1.33l-1.26,2.04-1.53.13,2.79-4.23Z"/>
          <path class="cls-7" d="m410.98,202.69l-2.96-3.58,1.59-.14,1.39,1.73c.26.34.51.66.87,1.1h.05c.29-.5.49-.86.73-1.24l1.2-1.96,1.51-.13-2.64,4.09,3.18,3.73-1.63.15-1.47-1.82c-.29-.37-.6-.74-.95-1.19h-.05c-.3.51-.57.93-.81,1.35l-1.28,2.07-1.55.14,2.84-4.29Z"/>
          <path class="cls-7" d="m421.14,201.79l-2.96-3.58,1.58-.14,1.39,1.73c.26.34.51.66.87,1.1h.05c.29-.5.49-.86.72-1.24l1.19-1.96,1.51-.13-2.63,4.09,3.17,3.73-1.63.15-1.47-1.82c-.29-.37-.6-.74-.95-1.18h-.05c-.3.51-.56.93-.8,1.34l-1.28,2.07-1.55.14,2.82-4.28Z"/>
          <path class="cls-7" d="m431.26,200.9l-2.96-3.57,1.58-.14,1.39,1.73c.26.34.51.66.87,1.09h.05c.29-.5.49-.86.72-1.24l1.19-1.95,1.5-.13-2.61,4.08,3.17,3.72-1.62.14-1.47-1.82c-.29-.37-.6-.73-.95-1.18h-.05c-.3.51-.56.93-.8,1.34l-1.27,2.06-1.54.14,2.81-4.28Z"/>
          <path class="cls-7" d="m441.35,200l-2.95-3.56,1.57-.14,1.39,1.73c.26.34.51.66.87,1.09h.05c.28-.5.49-.85.71-1.24l1.18-1.95,1.5-.13-2.6,4.07,3.17,3.72-1.62.14-1.47-1.82c-.29-.37-.6-.73-.95-1.18h-.05c-.3.51-.56.93-.8,1.34l-1.26,2.06-1.54.14,2.79-4.27Z"/>
          <path class="cls-7" d="m412.03,227.91l-2.97-3.59,1.59-.15,1.4,1.74c.26.34.51.66.88,1.1h.05c.29-.5.5-.87.73-1.25l1.2-1.98,1.52-.14-2.65,4.13,3.19,3.74-1.64.15-1.48-1.83c-.29-.37-.6-.74-.95-1.19h-.05c-.3.52-.57.94-.81,1.36l-1.29,2.09-1.56.14,2.84-4.33Z"/>
          <path class="cls-7" d="m422.22,226.97l-2.97-3.59,1.59-.15,1.39,1.74c.26.34.51.66.87,1.1h.05c.29-.5.49-.86.72-1.25l1.2-1.97,1.51-.14-2.63,4.12,3.18,3.74-1.63.15-1.47-1.83c-.29-.37-.6-.74-.95-1.19h-.05c-.3.52-.56.94-.81,1.36l-1.28,2.08-1.55.14,2.83-4.32Z"/>
          <path class="cls-7" d="m432.37,226.03l-2.97-3.58,1.58-.15,1.39,1.73c.26.34.51.66.87,1.1h.05c.29-.5.49-.86.72-1.25l1.19-1.97,1.51-.14-2.62,4.11,3.18,3.73-1.63.15-1.47-1.82c-.29-.37-.6-.74-.95-1.19h-.05c-.3.51-.56.94-.8,1.35l-1.27,2.08-1.55.14,2.82-4.31Z"/>
          <path class="cls-7" d="m442.49,225.09l-2.96-3.58,1.58-.14,1.39,1.73c.26.34.51.66.87,1.1h.05c.28-.5.49-.86.72-1.25l1.18-1.97,1.5-.14-2.61,4.11,3.18,3.73-1.62.15-1.47-1.82c-.29-.37-.6-.74-.95-1.18h-.05c-.3.51-.56.93-.8,1.35l-1.27,2.08-1.54.14,2.8-4.3Z"/>
          <path class="cls-8" d="m407.23,256.31c-.24.75-.7,1.54-1.15,2.08-.17-.11-.56-.32-.78-.41.44-.48.81-1.15,1.01-1.77l.91.1Zm1.58-.54l.12,2.8-1.08.1-.12-2.8-2.23.22-.03-.79,2.23-.22-.03-.66-2.41.23-.03-.77,1.48-.14c-.1-.3-.3-.67-.52-.94l.87-.33c.28.33.54.79.63,1.11l-.23.1,1.08-.1c.18-.4.41-.93.49-1.3l1.02.13c-.17.37-.35.76-.5,1.08l1.47-.14.03.77-2.3.22.03.66,2.18-.21.03.79-2.18.21Zm1.99-3.65l-5.44.52-.03-.75,2.16-.21c-.1-.21-.22-.4-.33-.57l.96-.32-.36.03-.02-.41-2.5.24-.03-.81,2.5-.24-.03-.8,1.14-.11.03.8,1.51-.14.03.81-1.51.14.02.41-.62.06c.16.23.36.52.5.78l1.99-.19.03.75Zm-.83,3.64c.36.41.76.95.95,1.32l-.79.49c-.19-.38-.58-.96-.92-1.37l.75-.43Zm6.42-1.95l-1.36.13.17,4.04-1.09.11-.17-4.04-1.31.13c.05,1.26-.05,2.98-.9,4.18-.17-.16-.6-.47-.83-.57.71-1.07.73-2.46.69-3.55l-.12-2.83c1.35-.3,2.86-.74,3.74-1.14l.89.64c-.99.4-2.33.77-3.57,1.06l.06,1.35,3.76-.36.04.87Zm-3.96-3.85l-1.53.15-.03-.81,1.53-.15-.03-.8,1.14-.11.03.8,2.55-.24.03.81-2.55.24.03.64-1.14.11-.03-.64Z"/>
          <path class="cls-8" d="m425.02,248.78c0,.08,0,.16-.01.26.69.53,2.02.77,3.65.7-.21.23-.48.61-.58.87-1.41-.04-2.55-.32-3.35-.86-.42.54-1.38,1.09-3.49,1.55-.12-.21-.39-.52-.61-.69l-3.14.3-.03-.79,3.58-.34.03.71c2.66-.56,2.92-1.19,2.9-1.65v-.14s-1.03.1-1.03.1c-.25.41-.55.79-.86,1.08-.19-.12-.62-.34-.89-.42.62-.54,1.09-1.33,1.33-2.11l1.03.1c-.07.19-.13.37-.21.56l3.84-.37.16-.06.8.15c-.28.6-.67,1.26-1,1.69l-.91-.19c.15-.21.32-.51.48-.79l-1.71.16v.17Zm.18,6.52c1.29.24,2.67.56,3.53.84l-1.01.65c-.77-.28-2.08-.64-3.37-.89l.69-.57-3.69.36,1.04.31c-.98.62-2.5,1.29-3.72,1.71-.21-.19-.63-.51-.89-.67,1.25-.34,2.68-.84,3.52-1.35l-1.99.19-.18-4.33,8.04-.77.19,4.32-2.16.21Zm-4.5-6.38l-3.02.29-.03-.75,3.02-.29.03.75Zm-.41,3.76l5.78-.56-.03-.61-5.78.56.03.61Zm.05,1.21l5.79-.56-.03-.6-5.79.56.03.6Zm.05,1.24l5.79-.56-.03-.62-5.79.56.03.62Z"/>
          <path class="cls-8" d="m439.71,252.51l1.44-.14.03.76-1.44.14.07,1.45c.02.45-.08.69-.46.84-.39.18-.95.23-1.76.31-.06-.24-.22-.56-.37-.78.57-.03,1.14-.09,1.31-.11.17-.03.22-.07.21-.19l-.06-1.42-2.29.22c.47.31.95.75,1.17,1.08l-.81.55c-.23-.36-.69-.86-1.16-1.19l.71-.43-1.34.13.03.58-1.99.19.08,1.78-1.02.1-.08-1.78-2.08.2-.04-.89,2.08-.2-.03-.75-1.65.16-.17-3.77,1.65-.16-.03-.7-1.91.18-.04-.87,1.91-.18-.05-1.09,1.02-.1.05,1.09,1.83-.18.04.87-1.83.18.03.7,1.71-.16.17,3.77-1.71.16.03.75,1.96-.19-.02-.45,3.76-.36-.02-.5,1.06-.1.02.5Zm-8.73-1.71l.95-.09-.04-.81-.95.09.04.81Zm.07,1.51l.95-.09-.04-.82-.95.09.04.82Zm2.59-2.58l-.97.09.04.8.97-.09-.04-.8Zm.07,1.5l-.97.09.04.82.97-.09-.04-.82Zm1.13.47c.7-.08,1.6-.17,2.57-.28l-.03-.61-2.2.21-.12-2.81,2.2-.21-.02-.5-2.44.23-.03-.75,2.44-.23-.03-.75.98-.09.03.75,2.54-.24.03.75-2.54.24.02.5,2.28-.22.13,2.81-.69.07c.48.36.97.82,1.24,1.17l-.79.46c-.08-.12-.18-.25-.31-.39-1.88.22-3.79.45-5.14.61l-.11-.72Zm1.19-2.46l1.28-.12-.02-.54-1.28.12.02.54Zm1.33.99l-.02-.56-1.28.12.02.56,1.28-.12Zm.91-1.75l.02.54,1.33-.13-.02-.54-1.33.13Zm1.37.97l-1.33.13.02.56,1.33-.13-.03-.56Zm-1.25,1.85l1.07-.11c-.14-.14-.29-.25-.44-.37l.4-.21-1.06.1.03.59Z"/>
          <path class="cls-8" d="m446.47,251.75c.02.33-.02.6-.25.78-.21.17-.49.22-.91.26-.04-.22-.18-.6-.32-.81.26-.01.47-.03.54-.04.09-.02.11-.04.11-.13l-.17-3.71-.72.07.32,6.97-.96.09-.32-6.97-.66.06.22,4.77-.86.08-.26-5.66,1.52-.15-.09-1.97.96-.09.09,1.97,1.56-.15.21,4.62Zm6.53-.77c-.53.42-1.13.86-1.64,1.21.63.51,1.36.93,2.14,1.15-.24.22-.56.61-.71.88-1.7-.58-3.06-1.96-3.89-3.62l-.64.06.13,2.88,1.8-.68c.01.26.05.62.11.82-2.28.92-2.67,1.1-2.88,1.28-.1-.24-.39-.66-.58-.85.19-.15.47-.45.45-.89l-.11-2.45-.53.05-.04-.85.8-.08-.2-4.37,5.39-.51.04.79-4.29.41.03.68,3.8-.36.03.72-3.8.36.03.71,3.86-.37.03.74-3.86.37.03.73,4.61-.44.04.85-3.25.31c.23.42.53.81.87,1.16.49-.38,1.02-.86,1.34-1.23l.87.54Z"/>
        </g>
        <g>
          <path class="cls-7" d="m669.35,131.67l-2.84-3.42,1.46-.12,1.34,1.65c.25.32.49.63.84,1.05h.05c.25-.47.43-.81.63-1.17l1.04-1.84,1.39-.11-2.3,3.85,3.04,3.56-1.5.12-1.41-1.74c-.28-.35-.57-.7-.91-1.13h-.05c-.26.48-.49.87-.7,1.27l-1.12,1.95-1.42.12,2.47-4.03Z"/>
          <path class="cls-7" d="m678.66,130.92l-2.84-3.41,1.45-.12,1.33,1.65c.25.32.49.63.84,1.04h.04c.25-.47.43-.81.63-1.17l1.04-1.84,1.38-.11-2.29,3.84,3.04,3.56-1.49.12-1.41-1.74c-.28-.35-.57-.7-.91-1.13h-.04c-.26.48-.49.87-.7,1.26l-1.11,1.94-1.42.12,2.46-4.02Z"/>
          <path class="cls-7" d="m687.95,130.17l-2.83-3.41,1.45-.12,1.33,1.65c.25.32.49.63.84,1.04h.04c.25-.47.42-.8.62-1.16l1.03-1.84,1.38-.11-2.28,3.83,3.03,3.55-1.49.12-1.41-1.73c-.28-.35-.57-.7-.91-1.13h-.04c-.26.48-.49.87-.69,1.26l-1.1,1.94-1.41.12,2.45-4.02Z"/>
          <path class="cls-7" d="m697.2,129.42l-2.83-3.4,1.44-.12,1.33,1.65c.25.32.49.63.83,1.04h.04c.25-.47.42-.8.62-1.16l1.03-1.83,1.37-.11-2.26,3.83,3.03,3.54-1.49.12-1.41-1.73c-.27-.35-.57-.7-.91-1.13h-.04c-.26.48-.48.87-.69,1.26l-1.1,1.94-1.41.11,2.44-4.01Z"/>
          <path class="cls-7" d="m671.11,155.53l-2.85-3.43,1.46-.12,1.34,1.66c.25.33.49.63.84,1.05h.05c.25-.47.43-.81.63-1.18l1.04-1.86,1.39-.12-2.3,3.88,3.05,3.57-1.5.13-1.41-1.75c-.28-.35-.58-.7-.91-1.13h-.05c-.26.48-.49.88-.7,1.28l-1.12,1.96-1.43.12,2.48-4.06Z"/>
          <path class="cls-7" d="m680.45,154.74l-2.84-3.42,1.46-.12,1.34,1.66c.25.32.49.63.84,1.05h.05c.25-.47.43-.81.63-1.17l1.04-1.86,1.38-.12-2.29,3.87,3.05,3.57-1.5.13-1.41-1.74c-.28-.35-.57-.7-.91-1.13h-.05c-.26.48-.49.88-.7,1.27l-1.11,1.96-1.42.12,2.47-4.06Z"/>
          <path class="cls-7" d="m689.76,153.95l-2.84-3.42,1.45-.12,1.34,1.65c.25.32.49.63.84,1.05h.04c.25-.47.42-.81.62-1.17l1.03-1.85,1.38-.12-2.28,3.87,3.04,3.56-1.49.13-1.41-1.74c-.28-.35-.57-.7-.91-1.13h-.04c-.26.48-.49.88-.7,1.27l-1.11,1.95-1.42.12,2.45-4.05Z"/>
          <path class="cls-7" d="m699.04,153.17l-2.84-3.41,1.45-.12,1.33,1.65c.25.32.49.63.84,1.04h.04c.25-.47.42-.81.62-1.17l1.03-1.85,1.38-.12-2.27,3.86,3.04,3.56-1.49.13-1.41-1.74c-.28-.35-.57-.7-.91-1.13h-.04c-.26.48-.49.88-.69,1.27l-1.1,1.95-1.41.12,2.44-4.04Z"/>
          <path class="cls-7" d="m672.89,179.53l-2.86-3.44,1.46-.13,1.34,1.66c.25.33.49.63.84,1.05h.05c.25-.48.43-.82.63-1.19l1.05-1.87,1.39-.12-2.31,3.91,3.06,3.58-1.51.13-1.42-1.75c-.28-.35-.58-.71-.92-1.14h-.05c-.26.49-.49.89-.7,1.29l-1.12,1.98-1.43.13,2.48-4.1Z"/>
          <path class="cls-7" d="m682.25,178.7l-2.85-3.43,1.46-.13,1.34,1.66c.25.33.49.63.84,1.05h.05c.25-.48.43-.82.63-1.18l1.04-1.87,1.39-.12-2.3,3.9,3.06,3.58-1.5.13-1.42-1.75c-.28-.35-.58-.71-.92-1.14h-.05c-.26.49-.49.89-.7,1.28l-1.12,1.97-1.43.13,2.47-4.09Z"/>
          <path class="cls-7" d="m691.58,177.87l-2.85-3.43,1.45-.13,1.34,1.66c.25.33.49.63.84,1.05h.05c.25-.47.43-.82.62-1.18l1.04-1.87,1.38-.12-2.29,3.9,3.05,3.57-1.5.13-1.42-1.75c-.28-.35-.58-.7-.91-1.13h-.05c-.26.49-.49.89-.7,1.28l-1.11,1.97-1.42.13,2.46-4.08Z"/>
          <path class="cls-7" d="m700.89,177.05l-2.84-3.42,1.45-.13,1.34,1.66c.25.32.49.63.84,1.05h.04c.25-.47.42-.82.62-1.18l1.03-1.86,1.38-.12-2.27,3.89,3.05,3.57-1.49.13-1.41-1.74c-.28-.35-.57-.7-.91-1.13h-.04c-.26.49-.49.88-.69,1.28l-1.1,1.97-1.42.13,2.45-4.08Z"/>
          <path class="cls-7" d="m674.67,203.67l-2.87-3.45,1.47-.13,1.35,1.67c.25.33.49.64.84,1.06h.05c.25-.48.43-.83.63-1.2l1.05-1.89,1.4-.13-2.31,3.94,3.07,3.59-1.51.14-1.42-1.76c-.28-.36-.58-.71-.92-1.14h-.05c-.26.49-.49.9-.71,1.3l-1.12,1.99-1.43.13,2.49-4.13Z"/>
          <path class="cls-7" d="m684.06,202.8l-2.86-3.44,1.46-.13,1.35,1.67c.25.33.49.63.84,1.05h.05c.25-.48.43-.83.63-1.19l1.04-1.89,1.39-.13-2.3,3.94,3.07,3.59-1.51.14-1.42-1.75c-.28-.35-.58-.71-.92-1.14h-.05c-.26.49-.49.89-.7,1.29l-1.12,1.99-1.43.13,2.48-4.12Z"/>
          <path class="cls-7" d="m693.42,201.94l-2.86-3.44,1.46-.13,1.34,1.66c.25.33.49.63.84,1.05h.05c.25-.48.43-.82.63-1.19l1.04-1.88,1.39-.13-2.29,3.93,3.06,3.58-1.5.14-1.42-1.75c-.28-.35-.58-.71-.92-1.14h-.05c-.26.49-.49.89-.7,1.29l-1.11,1.99-1.43.13,2.47-4.12Z"/>
          <path class="cls-7" d="m702.75,201.07l-2.85-3.43,1.45-.13,1.34,1.66c.25.33.49.63.84,1.05h.04c.25-.48.42-.82.62-1.19l1.03-1.88,1.38-.13-2.28,3.92,3.06,3.58-1.5.14-1.42-1.75c-.28-.35-.58-.71-.92-1.14h-.04c-.26.49-.49.89-.7,1.29l-1.11,1.98-1.42.13,2.45-4.11Z"/>
          <path class="cls-7" d="m676.47,227.95l-2.87-3.46,1.47-.14,1.35,1.68c.25.33.49.64.85,1.06h.05c.25-.48.43-.83.63-1.21l1.05-1.9,1.4-.13-2.32,3.98,3.08,3.61-1.51.15-1.43-1.76c-.28-.36-.58-.71-.92-1.15h-.05c-.26.5-.5.9-.71,1.31l-1.13,2.01-1.44.14,2.5-4.17Z"/>
          <path class="cls-7" d="m685.88,227.04l-2.87-3.46,1.47-.14,1.35,1.67c.25.33.49.64.85,1.06h.05c.25-.48.43-.83.63-1.2l1.05-1.9,1.4-.13-2.31,3.97,3.07,3.6-1.51.15-1.43-1.76c-.28-.36-.58-.71-.92-1.14h-.05c-.26.5-.49.9-.7,1.31l-1.12,2.01-1.43.14,2.48-4.16Z"/>
          <path class="cls-7" d="m695.26,226.14l-2.87-3.45,1.46-.14,1.35,1.67c.25.33.49.64.85,1.06h.05c.25-.48.43-.83.63-1.2l1.04-1.9,1.39-.13-2.3,3.96,3.07,3.59-1.51.15-1.42-1.76c-.28-.36-.58-.71-.92-1.14h-.05c-.26.5-.49.9-.7,1.3l-1.11,2-1.43.14,2.47-4.15Z"/>
          <path class="cls-7" d="m704.62,225.24l-2.86-3.44,1.46-.14,1.35,1.67c.25.33.49.63.84,1.05h.05c.25-.48.42-.83.62-1.2l1.03-1.89,1.39-.13-2.28,3.96,3.07,3.59-1.5.15-1.42-1.75c-.28-.35-.58-.71-.92-1.14h-.05c-.26.49-.49.9-.7,1.3l-1.11,2-1.43.14,2.46-4.15Z"/>
        </g>
        <g>
          <path class="cls-7" d="m586.48,113.64c-.54,1.42-1.47,2.55-2.69,3.45,1.22.41,2.66.62,4.3.67-.22.24-.49.68-.61.97-1.85-.09-3.41-.4-4.74-.95-1.38.78-3,1.34-4.71,1.74-.1-.25-.41-.66-.64-.86,1.58-.33,3.04-.78,4.29-1.39-1.02-.59-1.88-1.38-2.54-2.34l.4-.16-1.34.1-.06-.92,3.75-.29-.09-1.39-4.28.33-.06-.93,4.28-.33-.09-1.44,1.11-.08.09,1.44,4.3-.33.06.93-4.3.33.09,1.39,2.52-.19.19-.06.77.33Zm-6.22,1.06c.6.82,1.43,1.48,2.46,1.97.96-.63,1.73-1.4,2.23-2.33l-4.69.36Z"/>
          <path class="cls-7" d="m608.98,112.81l.28,4.27-1.18.09-.04-.56-7.97.62-.24-3.72,1.19-.09.18,2.77,2.78-.22-.22-3.36-3.42.26-.23-3.54,1.13-.09.17,2.63,2.3-.18-.23-3.5,1.18-.09.23,3.5,2.36-.18-.17-2.63,1.18-.09.24,3.54-3.54.27.22,3.36,2.81-.22-.18-2.77,1.18-.09Z"/>
          <path class="cls-7" d="m582.92,187.48l-2.89-3.49,1.51-.13,1.36,1.69c.25.33.5.64.85,1.07h.05c.26-.48.45-.83.66-1.21l1.1-1.9,1.43-.13-2.42,3.97,3.1,3.63-1.55.14-1.44-1.78c-.28-.36-.58-.72-.93-1.15h-.05c-.27.5-.52.9-.74,1.31l-1.18,2.01-1.47.13,2.6-4.16Z"/>
          <path class="cls-7" d="m592.55,186.63l-2.89-3.48,1.5-.13,1.36,1.69c.25.33.5.64.85,1.07h.05c.26-.48.45-.83.66-1.2l1.09-1.9,1.43-.13-2.41,3.97,3.1,3.63-1.55.14-1.44-1.77c-.28-.36-.58-.72-.93-1.15h-.05c-.27.5-.52.9-.74,1.3l-1.17,2.01-1.47.13,2.59-4.16Z"/>
          <path class="cls-7" d="m602.15,185.78l-2.89-3.48,1.5-.13,1.36,1.68c.25.33.5.64.85,1.06h.05c.26-.48.45-.83.66-1.2l1.09-1.9,1.42-.13-2.4,3.96,3.09,3.62-1.54.14-1.43-1.77c-.28-.36-.58-.71-.93-1.15h-.05c-.27.49-.51.9-.73,1.3l-1.16,2-1.46.13,2.58-4.15Z"/>
          <path class="cls-7" d="m611.72,184.94l-2.88-3.47,1.49-.13,1.35,1.68c.25.33.5.64.85,1.06h.05c.26-.48.44-.83.65-1.2l1.08-1.89,1.42-.12-2.38,3.95,3.09,3.62-1.54.14-1.43-1.77c-.28-.36-.58-.71-.92-1.15h-.05c-.27.49-.51.9-.73,1.3l-1.16,2-1.46.13,2.56-4.14Z"/>
          <path class="cls-7" d="m584.46,211.99l-2.9-3.5,1.51-.14,1.36,1.69c.26.33.5.64.86,1.07h.05c.26-.49.45-.84.66-1.22l1.1-1.92,1.44-.13-2.43,4.01,3.11,3.65-1.55.14-1.44-1.78c-.28-.36-.59-.72-.93-1.16h-.05c-.27.5-.52.91-.74,1.32l-1.18,2.03-1.48.14,2.61-4.2Z"/>
          <path class="cls-7" d="m594.12,211.1l-2.9-3.49,1.51-.14,1.36,1.69c.26.33.5.64.85,1.07h.05c.26-.49.45-.84.66-1.21l1.09-1.92,1.43-.13-2.41,4,3.11,3.64-1.55.14-1.44-1.78c-.28-.36-.59-.72-.93-1.16h-.05c-.27.5-.52.91-.74,1.32l-1.17,2.02-1.47.14,2.6-4.19Z"/>
          <path class="cls-7" d="m603.74,210.21l-2.89-3.49,1.5-.14,1.36,1.69c.26.33.5.64.85,1.07h.05c.26-.49.45-.84.66-1.21l1.09-1.91,1.43-.13-2.4,3.99,3.1,3.63-1.54.14-1.44-1.78c-.28-.36-.58-.72-.93-1.15h-.05c-.27.5-.51.91-.73,1.31l-1.17,2.02-1.47.14,2.58-4.18Z"/>
          <path class="cls-7" d="m613.34,209.33l-2.89-3.48,1.5-.14,1.36,1.69c.25.33.5.64.85,1.07h.05c.26-.49.45-.84.65-1.21l1.08-1.91,1.42-.13-2.39,3.99,3.1,3.63-1.54.14-1.44-1.77c-.28-.36-.58-.72-.93-1.15h-.05c-.27.5-.51.91-.73,1.31l-1.16,2.02-1.46.14,2.57-4.18Z"/>
        </g>
        <g>
          <path class="cls-7" d="m498.55,116.38l1.09-.08.49,9.29-1.09.08-.15-2.74c-2,.77-2.36.98-2.6,1.16-.08-.23-.31-.64-.47-.84.17-.12.4-.32.38-.73l-.26-4.97,1.08-.08.27,5.09,1.55-.55-.3-5.63Zm6.88,2.17c-.23,1.6-.64,2.94-1.31,4.08.71.73,1.54,1.29,2.52,1.63-.25.18-.56.57-.73.83-.91-.37-1.7-.92-2.38-1.6-.64.79-1.43,1.48-2.45,2.05-.13-.2-.52-.57-.74-.74,1.09-.55,1.91-1.24,2.53-2.1-.56-.73-1.04-1.58-1.43-2.51-.22.42-.47.79-.74,1.11-.16-.18-.57-.58-.81-.75.94-1.09,1.46-2.79,1.68-4.56l1.13.08c-.09.62-.21,1.22-.37,1.81l3.83-.29.05.9-.79.06Zm-3.46.48c.36,1.01.84,1.96,1.44,2.77.46-.9.75-1.96.91-3.17l-2.27.17-.08.22Z"/>
          <path class="cls-7" d="m523.85,114.88c.1,1.85.59,5.63,5.2,7.59-.24.18-.66.63-.84.88-2.75-1.2-4.12-3.19-4.81-5.03-.73,2.54-2.1,4.45-4.22,5.76-.22-.18-.75-.54-1.06-.69,2.47-1.34,3.78-3.47,4.31-6.3l.61.05c-.11-.42-.18-.84-.22-1.21l-2.8.21-.05-.96,3.88-.3Z"/>
          <path class="cls-7" d="m497.92,145.52l-2.91-3.51,1.54-.12,1.37,1.7c.26.33.5.65.86,1.07h.05c.27-.48.47-.83.69-1.2l1.14-1.9,1.46-.12-2.51,3.96,3.12,3.66-1.58.13-1.44-1.79c-.28-.36-.59-.72-.93-1.16h-.05c-.28.5-.54.9-.77,1.3l-1.22,2-1.5.12,2.7-4.15Z"/>
          <path class="cls-7" d="m507.75,144.73l-2.91-3.5,1.53-.12,1.37,1.7c.26.33.5.65.86,1.07h.05c.27-.48.47-.83.69-1.2l1.13-1.9,1.46-.12-2.5,3.96,3.12,3.65-1.58.13-1.44-1.78c-.28-.36-.59-.72-.93-1.16h-.05c-.28.49-.54.9-.76,1.3l-1.22,2-1.5.12,2.69-4.15Z"/>
          <path class="cls-7" d="m517.54,143.94l-2.9-3.5,1.53-.12,1.36,1.69c.26.33.5.64.86,1.07h.05c.27-.48.46-.83.68-1.2l1.13-1.89,1.45-.12-2.49,3.95,3.11,3.65-1.57.13-1.44-1.78c-.28-.36-.59-.72-.93-1.16h-.05c-.28.49-.53.9-.76,1.3l-1.21,2-1.49.12,2.67-4.14Z"/>
          <path class="cls-7" d="m527.31,143.15l-2.9-3.49,1.52-.12,1.36,1.69c.26.33.5.64.85,1.07h.05c.27-.48.46-.83.68-1.2l1.12-1.89,1.45-.12-2.47,3.94,3.11,3.64-1.57.13-1.44-1.78c-.28-.36-.59-.72-.93-1.16h-.05c-.28.49-.53.9-.76,1.3l-1.2,1.99-1.49.12,2.66-4.13Z"/>
          <path class="cls-7" d="m499.22,170.07l-2.92-3.52,1.54-.13,1.37,1.7c.26.33.5.65.86,1.08h.05c.27-.49.47-.84.69-1.21l1.14-1.92,1.47-.12-2.52,4,3.13,3.67-1.59.14-1.45-1.79c-.28-.36-.59-.72-.94-1.17h-.05c-.29.5-.54.91-.77,1.31l-1.22,2.02-1.51.13,2.71-4.19Z"/>
          <path class="cls-7" d="m509.07,169.24l-2.91-3.52,1.54-.13,1.37,1.7c.26.33.5.65.86,1.08h.05c.27-.49.47-.84.69-1.21l1.14-1.91,1.46-.12-2.51,3.99,3.12,3.66-1.58.13-1.45-1.79c-.28-.36-.59-.72-.93-1.16h-.05c-.28.5-.54.91-.77,1.31l-1.22,2.02-1.5.13,2.69-4.18Z"/>
          <path class="cls-7" d="m518.89,168.41l-2.91-3.51,1.53-.13,1.37,1.7c.26.33.5.65.86,1.07h.05c.27-.49.47-.84.68-1.21l1.13-1.91,1.46-.12-2.49,3.98,3.12,3.66-1.58.13-1.45-1.79c-.28-.36-.59-.72-.93-1.16h-.05c-.28.5-.53.91-.76,1.31l-1.21,2.01-1.5.13,2.68-4.17Z"/>
          <path class="cls-7" d="m528.68,167.58l-2.91-3.5,1.53-.13,1.37,1.7c.26.33.5.65.86,1.07h.05c.27-.48.46-.83.68-1.21l1.13-1.91,1.45-.12-2.48,3.98,3.12,3.65-1.57.13-1.44-1.78c-.28-.36-.59-.72-.93-1.16h-.05c-.28.5-.53.9-.76,1.31l-1.21,2.01-1.49.13,2.67-4.17Z"/>
        </g>
      </g>
    </g>
  </g>
</svg>