<?xml version="1.0" encoding="utf-8"?>
<!-- Generator: Adobe Illustrator 28.0.0, SVG Export Plug-In . SVG Version: 6.00 Build 0)  -->
<svg version="1.1" xmlns="http://www.w3.org/2000/svg" xmlns:xlink="http://www.w3.org/1999/xlink" x="0px" y="0px"
	 viewBox="0 0 2158.8 306.1" style="enable-background:new 0 0 2158.8 306.1;" xml:space="preserve">
<style type="text/css">
	.st0{fill:#008FD3;}
	.st1{fill:#006799;}
	.st2{fill:#007DB8;}
</style>
<g id="line_00000043435845675723250690000010107537300529997969_">
	<rect id="line" x="826.3" y="76.5" width="8.5" height="153.1"/>
</g>
<g id="asus">
	<path d="M348.4,79.4H222.6c-29.2,0-42.2,18.3-45.1,35.7V79.4h-69.9c-9.7,0-14.4,2.9-19.2,9.7l-19.2,28h279.2V79.4z"/>
	<polygon points="0,226.8 50.1,226.8 112.9,125.4 68.1,120.9 	"/>
	<rect x="355.8" y="79.4" width="41.3" height="37.7"/>
	<path d="M659.1,138.3l-129.1-7.7c0,19.7,13,33,35.1,34.8l92,7.1c7.1,0.6,11.5,2.4,11.5,8.3c0,5.6-5,7.7-15.3,7.7H527.9v38.3h127.9
		c40.4,0,58.1-14.2,58.1-46.3C713.9,151.6,698,140.7,659.1,138.3z"/>
	<path d="M528.3,130.7l-40.7-2.4v43.3c0,13.6-6.8,17.7-30.4,17.7h-32.4c-19.5,0-27.7-5.6-27.7-17.7v-47.5l-41.3-2.9v53.9h-0.9
		c-2.4-15.6-8.3-33.9-47.5-36.6l-129.1-8.5c0,19.8,14.2,31.5,36.3,33.9l89.9,9.1c7.1,0.6,12.4,2.6,12.4,8.5c0,6.5-5.3,7.1-13.6,7.1
		H176.9v-59l-41.3-2.7v99.6h168c37.4,0,49.5-19.5,51.3-35.7h0.9c4.7,25.6,27.1,35.7,65.1,35.7h41.9c44.5,0,65.4-13.6,65.4-45.4
		V130.7z"/>
	<path d="M711,117.1V79.4H572.5c-28.9,0-41.9,17.9-44.1,35.1c0,0.2-0.1,0.4-0.1,0.6V79.4h-40.7v37.7h40.8H711z"/>
</g>
<g id="business">
	<path d="M948.2,80.5c8.8-1.8,26.6-3.1,43.3-3.1c20.5,0,33,2,43.8,8.4c10.3,5.5,17.8,15.6,17.8,29c0,13.2-7.7,25.5-24.4,31.7v0.4
		c16.9,4.6,29.5,17.4,29.5,36.5c0,13.4-6.2,24-15.4,31.5c-10.8,8.6-28.8,13.4-58.3,13.4c-16.5,0-28.8-1.1-36.3-2.2V80.5z
		 M981.4,137.3h11c17.6,0,27.1-7.3,27.1-18.3c0-11.2-8.6-17.2-23.8-17.2c-7.3,0-11.4,0.4-14.3,0.9V137.3z M981.4,203
		c3.3,0.4,7.3,0.4,13,0.4c15.2,0,28.6-5.7,28.6-21.3c0-15-13.4-20.9-30.1-20.9h-11.4V203z"/>
	<path d="M1110.1,78.5v85.4c0,25.5,9.7,38.5,26.8,38.5c17.6,0,27.3-12.3,27.3-38.5V78.5h33.4v83.2c0,45.8-23.1,67.5-61.8,67.5
		c-37.4,0-59.4-20.7-59.4-68V78.5H1110.1z"/>
	<path d="M1223.4,192.3c9,4.6,22.9,9.2,37.2,9.2c15.4,0,23.5-6.4,23.5-16.1c0-9.2-7-14.5-24.9-20.9c-24.6-8.6-40.7-22.2-40.7-43.8
		c0-25.3,21.1-44.7,56.1-44.7c16.7,0,29,3.5,37.8,7.5l-7.5,27.1c-5.9-2.9-16.5-7-31-7c-14.5,0-21.6,6.6-21.6,14.3
		c0,9.5,8.4,13.6,27.5,20.9c26.2,9.7,38.5,23.3,38.5,44.2c0,24.9-19.1,46-59.8,46c-16.9,0-33.7-4.4-42-9L1223.4,192.3z"/>
	<path d="M1370.4,78.5v148.3h-33.7V78.5H1370.4z"/>
	<path d="M1395,226.8V78.5h39.2l30.8,54.3c8.8,15.6,17.6,34.1,24.2,50.8h0.7c-2.2-19.6-2.9-39.6-2.9-61.8V78.5h30.8v148.3h-35.2
		l-31.7-57.2c-8.8-15.8-18.5-35-25.7-52.4l-0.7,0.2c0.9,19.6,1.3,40.5,1.3,64.7v44.7H1395z"/>
	<path d="M1630.6,164.1H1576v35.2h60.9v27.5h-94.6V78.5h91.5V106H1576v30.8h54.6V164.1z"/>
	<path d="M1656.6,192.3c9,4.6,22.9,9.2,37.2,9.2c15.4,0,23.5-6.4,23.5-16.1c0-9.2-7-14.5-24.9-20.9c-24.6-8.6-40.7-22.2-40.7-43.8
		c0-25.3,21.1-44.7,56.1-44.7c16.7,0,29,3.5,37.8,7.5l-7.5,27.1c-5.9-2.9-16.5-7-31-7c-14.5,0-21.6,6.6-21.6,14.3
		c0,9.5,8.4,13.6,27.5,20.9c26.2,9.7,38.5,23.3,38.5,44.2c0,24.9-19.1,46-59.8,46c-16.9,0-33.7-4.4-42-9L1656.6,192.3z"/>
	<path d="M1771,192.3c9,4.6,22.9,9.2,37.2,9.2c15.4,0,23.5-6.4,23.5-16.1c0-9.2-7-14.5-24.9-20.9c-24.6-8.6-40.7-22.2-40.7-43.8
		c0-25.3,21.1-44.7,56.1-44.7c16.7,0,29,3.5,37.8,7.5l-7.5,27.1c-5.9-2.9-16.5-7-31-7c-14.5,0-21.6,6.6-21.6,14.3
		c0,9.5,8.4,13.6,27.5,20.9c26.2,9.7,38.5,23.3,38.5,44.2c0,24.9-19.1,46-59.8,46c-16.9,0-33.7-4.4-42-9L1771,192.3z"/>
</g>
<g id="arrow">
	<polygon class="st0" points="1928.4,0 2025,153.1 1928.4,306.1 2062.2,306.1 2091.9,259.1 2158.8,153.1 2091.9,47.1 2062.2,0 	"/>
	<polygon class="st1" points="2025,153.1 2091.9,259.1 2158.8,153.1 	"/>
	<polygon class="st2" points="2025,153.1 2158.8,153.1 2091.9,47.1 	"/>
</g>
</svg>
