<?xml version="1.0" encoding="UTF-8"?>
<svg id="_圖層_2" data-name="圖層 2" xmlns="http://www.w3.org/2000/svg" viewBox="0 0 273.66 456">
  <defs>
    <style>
      .cls-1 {
        font-size: 16px;
        letter-spacing: .05em;
      }

      .cls-1, .cls-2, .cls-3, .cls-4, .cls-5, .cls-6, .cls-7, .cls-8, .cls-9, .cls-10, .cls-11, .cls-12 {
        fill: #fff;
      }

      .cls-1, .cls-13 {
        font-family: SourceHanSansTC-Medium-B5pc-H, 'Source Han Sans TC';
        font-weight: 500;
      }

      .cls-14 {
        letter-spacing: -.18em;
      }

      .cls-15 {
        letter-spacing: -.15em;
      }

      .cls-2, .cls-16, .cls-17, .cls-18, .cls-19, .cls-3, .cls-4, .cls-5, .cls-6, .cls-7, .cls-20, .cls-21, .cls-22, .cls-23, .cls-24, .cls-25, .cls-9, .cls-10, .cls-12 {
        stroke-miterlimit: 10;
      }

      .cls-2, .cls-18, .cls-19, .cls-3, .cls-5, .cls-6, .cls-7, .cls-8, .cls-24, .cls-9, .cls-10, .cls-12 {
        stroke: gray;
      }

      .cls-2, .cls-18, .cls-19, .cls-5, .cls-24 {
        stroke-width: .42px;
      }

      .cls-2, .cls-19, .cls-23 {
        stroke-linecap: round;
      }

      .cls-26 {
        letter-spacing: -.31em;
      }

      .cls-27 {
        letter-spacing: -.31em;
      }

      .cls-28 {
        letter-spacing: -.3em;
      }

      .cls-16 {
        stroke: #d7d9d9;
        stroke-width: .84px;
      }

      .cls-16, .cls-17, .cls-18, .cls-19, .cls-20, .cls-21, .cls-22, .cls-23, .cls-25 {
        fill: none;
      }

      .cls-29 {
        letter-spacing: -.16em;
      }

      .cls-17 {
        stroke-width: .4px;
      }

      .cls-17, .cls-22 {
        stroke: #606060;
      }

      .cls-30 {
        isolation: isolate;
        opacity: .24;
      }

      .cls-30, .cls-31, .cls-32, .cls-33, .cls-34, .cls-35, .cls-36, .cls-37, .cls-11, .cls-38, .cls-39, .cls-40, .cls-41 {
        stroke-width: 0px;
      }

      .cls-42 {
        letter-spacing: -.32em;
      }

      .cls-43 {
        letter-spacing: -.25em;
      }

      .cls-44 {
        letter-spacing: -.28em;
      }

      .cls-13 {
        font-size: 11px;
      }

      .cls-13, .cls-45 {
        fill: #b9b9b9;
      }

      .cls-46 {
        letter-spacing: -.37em;
      }

      .cls-47 {
        letter-spacing: -.17em;
      }

      .cls-3 {
        stroke-width: .22px;
      }

      .cls-48 {
        letter-spacing: -.07em;
      }

      .cls-49 {
        letter-spacing: -.07em;
      }

      .cls-50 {
        font-size: 3.31px;
      }

      .cls-50, .cls-45 {
        font-family: SourceHanSansTC-Regular-B5pc-H, 'Source Han Sans TC';
      }

      .cls-50, .cls-33 {
        fill: gray;
      }

      .cls-4, .cls-25 {
        stroke: #231815;
      }

      .cls-6 {
        stroke-width: .42px;
      }

      .cls-51 {
        letter-spacing: -.42em;
      }

      .cls-7 {
        stroke-width: .42px;
      }

      .cls-8 {
        stroke-miterlimit: 10;
        stroke-width: .42px;
      }

      .cls-20 {
        stroke: #9f9f9f;
        stroke-width: .84px;
      }

      .cls-52 {
        letter-spacing: -.43em;
      }

      .cls-21 {
        stroke: #ffbc00;
        stroke-width: 1.56px;
      }

      .cls-22 {
        stroke-width: .79px;
      }

      .cls-23 {
        stroke: #fff;
        stroke-width: .94px;
      }

      .cls-24 {
        fill: #34afa9;
      }

      .cls-45 {
        font-size: 7px;
      }

      .cls-9 {
        stroke-width: .38px;
      }

      .cls-53 {
        letter-spacing: -.13em;
      }

      .cls-54 {
        letter-spacing: -.29em;
      }

      .cls-10 {
        stroke-width: .36px;
      }

      .cls-55 {
        letter-spacing: -.25em;
      }

      .cls-32 {
        fill: #606060;
      }

      .cls-34 {
        fill: #197580;
      }

      .cls-35 {
        fill: #228181;
      }

      .cls-36 {
        fill: #155d60;
      }

      .cls-37 {
        fill: #c8c6c6;
      }

      .cls-38 {
        fill: #efefef;
      }

      .cls-39 {
        fill: #fb0;
      }

      .cls-40 {
        fill: #eee;
      }

      .cls-41 {
        fill: #f4f4f4;
      }

      .cls-12 {
        stroke-width: .66px;
      }
    </style>
  </defs>
  <g id="_圖層_1-2" data-name="圖層 1">
    <g>
      <path class="cls-31" d="m213.76,172.8c-1,.43-2.05.72-3.13.86l-.23-.39c1.07-.13,2.12-.39,3.12-.79l.24.33Zm2.21-5.34h2.52c.04.37-.03.75-.2,1.08-.26.2-.58.3-.91.26h-.53l-.09-.34h.56c.22.03.43-.02.62-.14.08-.15.12-.31.11-.48h-2.13v1h-.49v-1h-1.74c-.14.24-.33.44-.56.59-.71.4-1.49.66-2.3.76l-.24-.37c.76-.08,1.5-.31,2.18-.66.13-.09.25-.2.35-.33h-2.11l.29-1.41h2.08v-.63h-2.37v-.42h2.37v-.47h.48v.47h1.55v-.47h.49v.47h2.21v1.41h-2.21l.05.66Zm-4.38,0h1.78c.04-.12.07-.25.08-.38v-.28h-1.68l-.18.66Zm6.22,1.63v3.25h-6.14v-3.25h6.14Zm-.49.98v-.59h-5.15v.59h5.15Zm0,.91v-.56h-5.15v.56h5.15Zm0,.37h-5.15v.59h5.15v-.59Zm-3.39-4.26c.01.13.01.25,0,.38h1.59v-.66h-1.55l-.04.28Zm0-.64h1.55v-.63h-1.55v.63Zm5.05,6.84l-.15.4c-1.09-.38-2.21-.67-3.36-.87l.18-.34c1.14.18,2.26.45,3.36.81h-.03Zm-3.03-6.84h1.75v-.63h-1.75v.63Z"/>
      <path class="cls-31" d="m223.11,171.98h-2.18v.79h-.52v-7.23h2.7v6.43Zm-.5-3.53v-2.41h-1.68v2.41h1.68Zm0,3.01v-2.52h-1.68v2.52h1.68Zm1.06,2.21l-.4-.38c.68-1.06,1.03-2.31,1-3.57v-4.45h3.78v7.57c.05.39-.23.74-.62.78-.06,0-.12,0-.17,0h-1.26l-.15-.5h1.26c.28,0,.43-.16.43-.49v-2.16h-2.78c-.07,1.15-.44,2.25-1.08,3.2Zm1.12-3.99v.24h2.75v-1.85h-2.74v1.61Zm2.74-3.91h-2.74v1.85h2.74v-1.85Z"/>
      <path class="cls-31" d="m230.44,171.26c-.05.77-.19,1.53-.42,2.27l-.47-.14c.25-.7.4-1.44.44-2.18l.44.05Zm2.43-.74l-.42.16c-.08-.2-.14-.4-.2-.61-.79.26-1.6.45-2.42.56l-.14-.45c.08-.03.16-.08.23-.14.53-.63,1-1.32,1.39-2.06l-1.63.26-.11-.45c.08-.04.15-.1.2-.18.52-.85.95-1.75,1.26-2.7l.48.19c-.35.93-.81,1.82-1.35,2.65.47,0,.93-.15,1.4-.25.18-.35.38-.73.57-1.12l.44.18c-.6,1.27-1.33,2.46-2.18,3.57.58-.11,1.15-.25,1.72-.43-.14-.34-.28-.64-.42-.92l.39-.16c.31.61.58,1.25.78,1.9h.01Zm-1.26,2.72h-.45c-.02-.71-.09-1.41-.23-2.11h.43c.14.69.21,1.4.23,2.11h.03Zm1.26-.72l-.42.16c-.14-.56-.3-1.12-.5-1.67l.38-.15c.19.54.35,1.09.47,1.65h.08Zm.87.4v.68h-.47v-7.88h4.67v7.88h-.48v-.68h-3.72Zm0-6.72v2.81h1.61v-2.81h-1.61Zm0,3.31v2.94h1.61v-2.94h-1.61Zm3.72-.49v-2.81h-1.63v2.81h1.63Zm0,3.43v-2.94h-1.63v2.94h1.63Z"/>
      <path class="cls-31" d="m243.18,165.8v-.87h.52v.87h3.53v.49h-3.53v1.05h2.96v.49h-2.96v1.06h3.78v.44h-4.43c-.38.52-.84.98-1.36,1.36v2.22c.77-.22,1.53-.49,2.27-.81l.1.48c-.93.39-1.89.71-2.88.96l-.18-.43c.11,0,.18-.11.18-.21v-1.87c-.59.36-1.22.67-1.87.92l-.28-.45c1.33-.39,2.52-1.14,3.46-2.17h-3.12v-.49h3.78v-1.06h-2.96v-.49h2.96v-1.05h-3.53v-.49l3.54.05Zm3.86,4.53c-.51.54-1.12.96-1.79,1.26.69.74,1.56,1.29,2.52,1.6l-.3.45c-1.68-.59-3.02-1.89-3.67-3.54l.4-.21c.2.48.46.93.77,1.35.66-.28,1.25-.72,1.73-1.26l.34.35Z"/>
      <path class="cls-30" d="m259.97,337.46l-1.49-1.78c-.71-.86-1.85-1.24-2.94-.98-.27.06-.54-.08-.63-.34-1.21-3.42-3.01-6.59-5.34-9.37l-2.96-3.56c-1.05-1.23-2.89-1.41-4.15-.39-.29.24-.52.53-.71.86-.06.12-.17.21-.3.25h0c-.15.04-.31,0-.43-.09-.76-.52-1.71-.66-2.59-.39-.36.11-.7.3-1,.54-.28.24-.52.52-.71.85-.07.12-.17.22-.3.26h0c-.15.04-.3.01-.43-.08-.75-.53-1.71-.67-2.59-.39-.69.2-1.27.65-1.64,1.26-.07.11-.18.2-.3.24h-.13c-.17,0-.34-.06-.45-.19l-4.01-4.72c-.77-.92-2.02-1.29-3.17-.92-.36.11-.7.3-.98.54-.6.49-.98,1.21-1.05,1.98-.06.78.18,1.55.68,2.14l7.2,8.64c.09.12.13.26.11.4l-.5,5.25c-.25,2.67,1.56,5.1,4.19,5.63l8.89,1.83c.29.06.47.34.41.62,0,.02,0,.03-.01.04-.27.94-.07,1.96.56,2.71l1.49,1.78c.16.2.43.28.67.2.08-.03.15-.06.21-.11l14.31-11.82c.12-.11.2-.26.21-.43.03-.17-.02-.35-.14-.48Z"/>
      <path class="cls-11" d="m259.45,335.24l-1.26-1.26c-.83-1.01-1.68-.56-2.86-.28-1.22-3.71-3.02-7.21-5.32-10.37-.3-.35-2.69-3.01-2.99-3.38-1.17-1.4-2.11-1.35-3.52-.18-.4.47-.73.99-1,1.55-1.19-.85-2.76-1.72-3.94-.73-.45.53-.85,1.11-1.19,1.73-1.2-.83-2.37-1.64-3.54-.67-.51.76-.95,1.56-1.34,2.4l-5.34-5.87c-1.17-1.41-1.99-2.09-3.39-.92h0c-1.39,1.17-1.58,3.25-.42,4.65l8.04,9.2-.61,4.33c-.26,2.81.59,5.05,3.37,5.64l8.97,1.4c.95.76.77,2.79,1.5,3.67v1.43c.39.47,1.08.53,1.55.14,0,0,0,0,0,0l13.62-11.35c.49-.4,0-.66-.34-1.12Z"/>
      <polygon class="cls-39" points="244.47 343.46 244.23 345.35 245.89 347.35 259.59 335.91 256.75 333.31 244.47 343.46"/>
      <path class="cls-31" d="m246.06,348.71c-.24.08-.51,0-.67-.2l-1.5-1.8c-.63-.76-.85-1.79-.57-2.74.06-.14.06-.29,0-.43-.08-.13-.2-.22-.35-.25l-8.97-1.84c-2.66-.54-4.48-3-4.23-5.7l.5-5.26c0-.14-.04-.28-.13-.39l-7.28-8.75c-.51-.6-.75-1.38-.68-2.17.07-.78.44-1.5,1.05-1.99,1.25-1.05,3.12-.89,4.18.36,0,0,0,0,.01.01l3.97,4.78c.11.14.29.21.47.2h.13c.12-.05.23-.13.3-.24.17-.29.39-.55.64-.77.3-.24.63-.42,1-.54.88-.28,1.85-.13,2.61.39.13.09.29.12.44.09h0c.13-.04.25-.13.32-.25.18-.33.42-.62.71-.86.29-.25.63-.44,1-.56.89-.28,1.85-.13,2.61.4.13.09.28.12.43.09h0c.14-.04.25-.14.32-.26.18-.33.42-.62.71-.86.3-.25.64-.43,1.01-.54,1.15-.37,2.41,0,3.18.93l2.99,3.6c2.35,2.82,4.18,6.03,5.4,9.49.09.26.36.4.63.34,1.1-.26,2.25.13,2.96,1l1.5,1.8c.22.27.18.66-.09.88l-14.42,11.98c-.06.05-.14.09-.21.11l.04-.05Zm10.42-14.52c-.21.06-.41.17-.58.32l-10.81,8.98c-.73.6-.83,1.67-.24,2.4,0,0,0,0,.01.01l.74.91c.09.11.22.18.37.19.07.02.14.02.21,0,.07-.02.13-.05.19-.09l12.61-10.48c.22-.2.26-.53.08-.77l-.76-.9c-.43-.55-1.16-.78-1.83-.57Zm-24.78-1.73c-.21.07-.35.25-.38.47l-.28,2.93c-.2,2.06,1.19,3.94,3.22,4.35l10.09,2.07c.09.02.19.02.28,0,.07-.02.13-.06.18-.1l9.78-8.12c.17-.14.24-.37.16-.58-1.16-3.49-2.97-6.73-5.32-9.55l-2.99-3.61c-.45-.53-1.18-.74-1.84-.53-.21.06-.41.17-.58.32-.72.61-.82,1.68-.23,2.41.11.13.17.3.15.47-.02.16-.1.31-.23.42-.06.06-.13.1-.21.13-.24.08-.51,0-.67-.2l-1.5-1.8c-.45-.54-1.17-.75-1.84-.54-.21.07-.4.18-.57.32-.73.6-.84,1.68-.23,2.41,0,0,0,0,0,0l1.5,1.8c.22.27.18.66-.09.88-.06.05-.14.09-.21.11-.24.08-.51,0-.67-.2l-3-3.6c-.44-.54-1.17-.76-1.83-.54-.21.07-.41.17-.58.32-.72.61-.82,1.68-.23,2.41h0l2.95,3.56c.22.27.19.67-.08.9-.06.05-.14.09-.21.11-.25.07-.51-.01-.67-.21l-9.07-10.92c-.45-.54-1.19-.75-1.85-.53-.21.07-.41.17-.58.32-.35.29-.57.71-.61,1.16-.06.46.09.92.39,1.26l12.07,14.56c.11.12.17.29.15.45-.01.16-.09.31-.21.42-.06.05-.14.09-.21.11h0c-.24.08-.51,0-.68-.19l-1.39-1.68-1.26-1.58c-.14-.17-.37-.24-.58-.18h-.04Z"/>
      <g>
        <g>
          <g>
            <rect class="cls-4" x=".5" y=".5" width="266" height="455" rx="18" ry="18"/>
            <line class="cls-20" x1=".89" y1="407.37" x2="266.68" y2="407.37"/>
            <path class="cls-35" d="m266.5,49.96v-31.46c0-9.9-8.1-18-18-18H18.5C8.6.5.5,8.6.5,18.5v31.46h266Z"/>
            <path class="cls-38" d="m266.5,407.51v29.99c0,9.9-8.1,18-18,18H18.5c-9.9,0-18-8.1-18-18v-29.99h266Z"/>
            <rect class="cls-25" x=".5" y=".5" width="266" height="455" rx="18" ry="18"/>
            <path class="cls-5" d="m22.96,434.96c-.14,0-.25-.11-.25-.25h0v-4.82h-3.78v4.82c0,.14-.11.25-.25.25h-2.95c-.92,0-1.66-.75-1.67-1.67v-6.74h-.95c-.1,0-.2-.07-.24-.16-.03-.1-.01-.21.06-.28l7.69-7.47s.11-.07.18-.08c.06,0,.13.02.18.06l7.92,7.43c.08.07.1.18.06.28-.04.1-.13.16-.24.16h-.95v6.75c0,.92-.75,1.67-1.67,1.67h0l-3.15.04Z"/>
            <path class="cls-6" d="m67.78,429.22l-1.14,4.88c-.21.92.57,1.68,1.73,1.68h12.54c1.12.06,2.15-.62,2.52-1.68l1.15-4.89"/>
            <line class="cls-18" x1="69.26" y1="434.45" x2="81.58" y2="434.42"/>
            <rect class="cls-33" x="69.85" y="430.99" width="1.83" height="3.38" transform="translate(-1.43 .24) rotate(-.19)"/>
            <rect class="cls-33" x="72.27" y="431.8" width="1.83" height="2.61" transform="translate(-1.44 .25) rotate(-.19)"/>
            <rect class="cls-33" x="74.52" y="431.31" width="1.83" height="3.07" transform="translate(-1.43 .25) rotate(-.19)"/>
            <rect class="cls-33" x="76.88" y="429.68" width="1.83" height="4.69" transform="translate(-1.43 .26) rotate(-.19)"/>
            <rect class="cls-33" x="79.23" y="431.76" width="1.83" height="2.61" transform="translate(-1.44 .27) rotate(-.19)"/>
            <path class="cls-7" d="m84.56,428.97v-5.44c-.08-1.09-1.02-1.92-2.12-1.85h-12.61c-1.1-.06-2.04.77-2.11,1.87,0,0,0,0,0,0v5.5l16.84-.09Z"/>
            <path id="Path" class="cls-7" d="m74.67,419.09c-.2-.67-.9-1.05-1.56-.86-.41.12-.74.44-.86.86v1.2h2.41v-1.2Z"/>
            <path id="Path-2" class="cls-7" d="m79,420.75h0c-.96-.01-1.75.75-1.77,1.72,0,.01,0,.03,0,.04v.08h-1.94v-.1c.03-.64-.3-1.25-.86-1.58-.56-.33-1.26-.33-1.82,0-.56.33-.89.93-.87,1.58v5.13h3.53v-3.37h2.01v3.38h3.54v-5.13c.01-.47-.17-.93-.5-1.26-.34-.33-.79-.52-1.26-.52l-.06.04Z"/>
            <ellipse id="Oval" class="cls-8" cx="79.05" cy="419.12" rx="1.21" ry="1.2" transform="translate(-1.39 .26) rotate(-.19)"/>
            <circle class="cls-5" cx="244.98" cy="426.78" r="8.28"/>
            <circle class="cls-18" cx="244.77" cy="425.11" r="2.84"/>
            <path class="cls-5" d="m251,433.18l-.24-.25c-.09-.09-.24-.09-.33,0-.3.19-.63.34-.98.42-.12.01-.22.12-.2.25,0,0,0,.01,0,.02,0,.11,0,.23,0,.34h-.96v-.33c0-.18,0-.25-.21-.29-.34-.08-.67-.21-.97-.39-.1-.1-.26-.1-.35,0-.08.09-.15.16-.21.25l-.72-.72.25-.21c.09-.09.09-.24,0-.34h0c-.19-.3-.34-.64-.42-.99-.01-.12-.12-.22-.25-.2,0,0-.01,0-.02,0h-.34v-.97h.34c.13.02.25-.07.28-.2,0,0,0-.01,0-.02.08-.35.21-.68.4-.98.09-.09.09-.24,0-.33l-.25-.23.69-.71.24.25c.09.08.23.08.32,0,.3-.2.64-.34,1-.42.13-.02.22-.13.21-.26,0-.11,0-.23,0-.34h.97v.34c0,.16,0,.23.23.28.34.07.66.21.96.39.1.1.26.1.35,0l.21-.24.71.71-.24.21c-.09.08-.1.23-.02.32,0,0,.01.01.02.02.18.3.32.63.4.97.01.13.13.23.26.22,0,0,.01,0,.02,0h.34v.97h-.33c-.14-.02-.27.07-.29.21,0,0,0,0,0,0-.07.34-.2.67-.39.97-.1.1-.1.26,0,.35l.25.21-.73.71Zm-2.31-4.81c-1.04.04-1.85.91-1.81,1.94.04,1.04.91,1.85,1.94,1.81,1.04-.04,1.85-.9,1.81-1.94-.03-1.03-.88-1.84-1.92-1.82,0,0-.02,0-.03,0h0Z"/>
            <path class="cls-5" d="m243.18,427.58c-1.94.96-3.4,2.68-4.05,4.74"/>
            <text class="cls-1" transform="translate(99.9 41.49)"><tspan x="0" y="0">健保櫃檯</tspan></text>
            <g>
              <g>
                <path class="cls-31" d="m229.37,14.26h-2.87v-.69l2.64-4.04h1.21v3.93h.84v.8h-.84v1.71h-.97v-1.71Zm0-.8v-1.63c0-.36.03-.94.04-1.3h-.04c-.16.32-.34.63-.53.96l-1.3,1.96h1.83Z"/>
                <path class="cls-31" d="m231.96,12.68c0-2.16,1.33-3.46,3.09-3.46.94,0,1.57.41,1.97.84l-.56.67c-.33-.33-.74-.59-1.38-.59-1.23,0-2.05.95-2.05,2.51s.73,2.54,2.1,2.54c.41,0,.81-.12,1.04-.32v-1.56h-1.31v-.86h2.26v2.87c-.44.44-1.19.77-2.1.77-1.76,0-3.06-1.24-3.06-3.41Z"/>
              </g>
              <g>
                <path class="cls-31" d="m11.28,15.12h1.45v-4.43h-1.19v-.66c.62-.11,1.06-.27,1.44-.5h.78v5.59h1.3v.86h-3.78v-.86Z"/>
                <path class="cls-31" d="m18.69,14.26h-2.87v-.69l2.64-4.04h1.21v3.93h.84v.8h-.84v1.71h-.97v-1.71Zm0-.8v-1.63c0-.36.03-.94.04-1.3h-.04c-.16.32-.34.63-.53.96l-1.3,1.96h1.83Z"/>
                <path class="cls-31" d="m21.41,11.83c0-.42.31-.74.69-.74s.69.32.69.74-.31.72-.69.72-.69-.31-.69-.72Zm0,3.54c0-.43.31-.74.69-.74s.69.31.69.74-.31.72-.69.72-.69-.3-.69-.72Z"/>
                <path class="cls-31" d="m23.84,15.37c1.84-1.81,2.96-2.96,2.96-3.97,0-.7-.38-1.17-1.13-1.17-.52,0-.95.33-1.3.74l-.59-.58c.57-.61,1.15-.99,2.02-.99,1.22,0,2,.77,2,1.95s-1.07,2.37-2.45,3.81c.33-.04.76-.06,1.08-.06h1.68v.88h-4.28v-.6Z"/>
                <path class="cls-31" d="m28.97,15.37c1.84-1.81,2.96-2.96,2.96-3.97,0-.7-.38-1.17-1.13-1.17-.52,0-.95.33-1.3.74l-.59-.58c.57-.61,1.15-.99,2.02-.99,1.22,0,2,.77,2,1.95s-1.07,2.37-2.45,3.81c.33-.04.76-.06,1.08-.06h1.68v.88h-4.28v-.6Z"/>
              </g>
              <g>
                <rect class="cls-36" x="221.07" y="8.91" width="1.1" height="7.11"/>
                <rect class="cls-31" x="219.08" y="10.3" width="1.1" height="5.72"/>
                <rect class="cls-31" x="217.1" y="11.63" width="1.1" height="4.39"/>
                <rect class="cls-31" x="215.11" y="13.08" width="1.1" height="2.94"/>
                <rect class="cls-31" x="213.12" y="14.35" width="1.1" height="1.67"/>
              </g>
              <g>
                <g>
                  <rect class="cls-31" x="257.42" y="11.58" width="2" height="2" rx=".71" ry=".71"/>
                  <rect class="cls-31" x="243.73" y="9.21" width="15" height="6.56" rx="1.43" ry="1.43"/>
                </g>
                <g>
                  <path class="cls-34" d="m245.08,14.22h1.13v-3.45h-.92v-.51c.48-.09.83-.21,1.12-.39h.61v4.35h1.01v.66h-2.94v-.66Z"/>
                  <path class="cls-34" d="m248.8,12.35c0-1.69.64-2.58,1.67-2.58s1.67.9,1.67,2.58-.64,2.62-1.67,2.62-1.67-.93-1.67-2.62Zm2.56,0c0-1.44-.37-1.95-.9-1.95s-.9.5-.9,1.95.37,1.98.9,1.98.9-.54.9-1.98Z"/>
                  <path class="cls-34" d="m252.79,12.35c0-1.69.64-2.58,1.67-2.58s1.67.9,1.67,2.58-.64,2.62-1.67,2.62-1.67-.93-1.67-2.62Zm2.56,0c0-1.44-.37-1.95-.9-1.95s-.9.5-.9,1.95.37,1.98.9,1.98.9-.54.9-1.98Z"/>
                </g>
              </g>
            </g>
            <g>
              <text class="cls-45" transform="translate(13.73 446.02)"><tspan x="0" y="0">首頁</tspan></text>
              <text class="cls-45" transform="translate(61.85 446.02)"><tspan x="0" y="0">健康存摺</tspan></text>
              <text class="cls-45" transform="translate(117.05 446.02)"><tspan x="0" y="0">健保櫃檯</tspan></text>
              <text class="cls-45" transform="translate(171.37 446.02)"><tspan x="0" y="0">虛擬健保卡</tspan></text>
              <text class="cls-45" transform="translate(237.94 446.02)"><tspan x="0" y="0">我的</tspan></text>
            </g>
            <rect class="cls-9" x="179.71" y="420.54" width="18.96" height="14.81" rx=".91" ry=".91"/>
            <g>
              <circle class="cls-3" cx="193.13" cy="425.65" r="2.31"/>
              <path class="cls-3" d="m195.44,430.26c0-1.27-1.03-2.31-2.31-2.31s-2.31,1.03-2.31,2.31v1.66h4.61v-1.66Z"/>
            </g>
            <g>
              <path class="cls-12" d="m122.67,424.84v-1.18c0-.35.28-.63.63-.63h1.97c.36,0,.65.29.65.65v1.16"/>
              <polyline class="cls-24" points="121.9 435 121.65 435 121.61 424.88 138.54 424.82 138.56 434.95 138.34 434.95"/>
              <line class="cls-19" x1="119.88" y1="435.01" x2="140.34" y2="434.93"/>
              <circle class="cls-2" cx="129.91" cy="430.1" r="2.84"/>
              <rect class="cls-5" x="130.47" y="418.66" width="7.38" height="3.96" rx=".48" ry=".48"/>
              <line class="cls-18" x1="135.01" y1="422.61" x2="135.01" y2="424.73"/>
              <text class="cls-50" transform="translate(127.77 431.31) scale(1.83 1)"><tspan x="0" y="0">H</tspan></text>
            </g>
            <g>
              <g>
                <rect class="cls-17" x="182.12" y="425.05" width="2.15" height="2.15"/>
                <rect class="cls-32" x="182.95" y="425.88" width=".48" height=".48"/>
              </g>
              <g>
                <rect class="cls-17" x="182.12" y="429.55" width="2.15" height="2.15"/>
                <rect class="cls-32" x="182.95" y="430.38" width=".48" height=".48"/>
              </g>
              <g>
                <rect class="cls-17" x="186.54" y="425.05" width="2.15" height="2.15"/>
                <rect class="cls-32" x="187.38" y="425.88" width=".48" height=".48"/>
              </g>
              <rect class="cls-32" x="184.67" y="428.71" width=".83" height=".83"/>
              <rect class="cls-32" x="182.12" y="427.46" width=".83" height=".83"/>
              <rect class="cls-32" x="182.95" y="428.29" width=".83" height=".83"/>
              <g>
                <rect class="cls-32" x="185.46" y="426.71" width=".75" height=".75"/>
                <rect class="cls-32" x="184.71" y="426.12" width=".75" height="1.33"/>
              </g>
              <rect class="cls-32" x="183.87" y="427.87" width="2.44" height=".83"/>
              <rect class="cls-32" x="185.84" y="429.33" width=".71" height="1.83"/>
              <rect class="cls-32" x="186.54" y="428.71" width="1.65" height=".83"/>
              <rect class="cls-32" x="187.62" y="427.87" width=".57" height=".83"/>
              <rect class="cls-32" x="188.41" y="428.71" width=".5" height="1.55"/>
              <rect class="cls-32" x="187.34" y="429.95" width="1.05" height=".61"/>
              <rect class="cls-32" x="187.91" y="430.11" width=".56" height="1.33"/>
              <rect class="cls-32" x="187.91" y="431.17" width="1.29" height=".53"/>
              <rect class="cls-32" x="186.19" y="431.17" width=".89" height=".53"/>
              <rect class="cls-32" x="185.09" y="431.17" width=".38" height=".53"/>
            </g>
          </g>
          <g>
            <path class="cls-41" d="m13.63,33.41l-3.71,1.58,3.71,1.58v1.02l-5.05-2.18v-.85l5.05-2.18v1.03Z"/>
            <path class="cls-41" d="m20.22,29.33v2.98h3.71v1.02h-3.71v3.91h4.49v1.02h-9.01v-1.02h3.47v-7.91h1.05Z"/>
            <path class="cls-41" d="m35.73,33.37v1.03h-9.11v-1.03h9.11Z"/>
            <path class="cls-41" d="m41.46,31.19c.06-.21.11-.42.14-.63h-3.71v-.95h8.69v.95h-3.94c0,.23-.09.43-.14.63h3.23v5.76h-1.65c.93.22,1.84.5,2.72.83l-.54.86c-1.03-.48-2.11-.85-3.22-1.11l.39-.58h-2.52l.49.63c-1.04.53-2.16.9-3.32,1.08l-.5-.86c1.08-.15,2.13-.44,3.13-.86h-1.88v-5.76h2.62Zm3.25,1.6v-.64h-4.87v.64h4.87Zm0,1.58v-.69h-4.87v.69h4.87Zm0,.88h-4.87v.73h4.84l.03-.73Z"/>
          </g>
          <g>
            <rect class="cls-10" x="240.55" y="29.32" width="16.89" height="14.81" rx=".85" ry=".85"/>
            <g>
              <rect class="cls-22" x="243.64" y="31.45" width="4.25" height="4.25"/>
              <rect class="cls-32" x="245.29" y="33.1" width=".95" height=".95"/>
            </g>
            <rect class="cls-32" x="251.45" y="39.4" width=".95" height=".95"/>
            <rect class="cls-32" x="249.8" y="37.75" width=".95" height=".95"/>
            <rect class="cls-32" x="249.8" y="41.05" width=".95" height=".95"/>
            <rect class="cls-32" x="253.1" y="37.75" width=".95" height=".95"/>
            <rect class="cls-32" x="253.1" y="41.05" width=".95" height=".95"/>
            <g>
              <rect class="cls-22" x="243.64" y="37.75" width="4.25" height="4.25"/>
              <rect class="cls-32" x="245.29" y="39.4" width=".95" height=".95"/>
            </g>
            <g>
              <rect class="cls-22" x="249.8" y="31.45" width="4.25" height="4.25"/>
              <rect class="cls-32" x="251.45" y="33.1" width=".95" height=".95"/>
            </g>
          </g>
        </g>
        <rect class="cls-40" x=".79" y="49.44" width="264.97" height="32.77"/>
        <circle class="cls-37" cx="21.93" cy="66.13" r="8.3"/>
        <polyline class="cls-23" points="23.29 63.05 18.89 66.53 23.58 69.37"/>
        <path class="cls-31" d="m100.33,60c-.3.94-.69,1.86-1.17,2.72v8.69h-.69v-7.57c-.46.69-.97,1.33-1.54,1.93l-.23-.72c1.36-1.58,2.37-3.41,2.99-5.4l.64.34Zm2.7,7.78c-.76,1.09-1.69,2.06-2.75,2.85l-.43-.56c1.04-.75,1.95-1.67,2.69-2.72l.49.43Zm4.13-7.43v3.87h-2.62v1.58h3.78v.69h-3.78v4.89h-.68v-4.89h-3.63v-.69h3.63v-1.58h-2.6v-3.87h5.9Zm-.69.67h-4.52v2.52h4.52v-2.52Zm2.09,9.04l-.45.5c-.83-1.01-1.75-1.95-2.74-2.81l.43-.47c1,.84,1.92,1.76,2.75,2.78h.01Z"/>
        <path class="cls-31" d="m114.16,70.25c-1.33.58-2.74.96-4.19,1.15l-.3-.52c1.43-.17,2.83-.53,4.16-1.06l.33.43Zm2.93-7.1h3.43c.06.5-.03,1-.26,1.44-.36.28-.81.41-1.26.34h-.71l-.11-.44h.74c.29.04.57-.03.82-.18.12-.2.17-.43.15-.66h-2.85v1.26h-.64v-1.26h-2.32c-.19.32-.45.59-.74.81-.95.53-1.99.87-3.07,1l-.32-.49c1.01-.11,1.99-.4,2.9-.86.17-.14.33-.29.48-.45h-2.72l.4-1.87h2.76v-.85h-3.17v-.57h3.15v-.61h.63v.61h2.07v-.61h.64v.61h2.95v1.9h-2.95v.87Zm-5.83,0h2.37c.05-.17.08-.34.09-.52v-.35h-2.23l-.23.87Zm8.29,2.17v4.35h-8.19v-4.34h8.19Zm-.64,1.26v-.69h-6.88v.79l6.88-.1Zm0,1.26v-.69h-6.88v.76l6.88-.06Zm0,.48h-6.88v.79h6.88v-.79Zm-4.52-5.69c0,.17-.02.35-.06.52h2.13v-.87h-2.07v.35Zm0-.85h2.07v-.85h-2.07v.85Zm6.76,9.11l-.2.53c-1.46-.49-2.96-.88-4.48-1.16l.24-.44c1.5.26,2.98.63,4.43,1.11v-.04Zm-4.05-9.11h2.33v-.85h-2.35v.85Z"/>
        <path class="cls-31" d="m127.1,61.54v.66h-4.76v-.66h4.76Zm-3.61,9.83h-.67v-4.36h3.78v4.19h-.66v-.62h-2.46v.79Zm3.09-7.97v.63h-3.78v-.66l3.78.03Zm0,1.74v.63h-3.78v-.63h3.78Zm-.63,2.52h-2.46v2.3h2.46v-2.3Zm-.72-6.42l-.58.21c-.21-.53-.45-1.04-.73-1.54l.66-.18c.26.48.48.97.66,1.49h0Zm5.74-1.45v4.28h3.01v.66h-3.01v6.67h-.67v-6.67h-2.96v-.66h2.96v-4.28h.67Z"/>
        <path class="cls-31" d="m139.69,70.25c-1.33.58-2.74.97-4.19,1.15l-.29-.52c1.42-.17,2.82-.53,4.15-1.06l.33.43Zm2.93-7.1h3.44c.07.5-.03,1-.28,1.44-.36.28-.81.41-1.26.34h-.69l-.11-.44h.73c.29.04.57-.03.82-.18.12-.2.17-.43.15-.66h-2.85v1.26h-.64v-1.26h-2.31c-.19.32-.44.59-.74.81-.95.53-1.99.87-3.07,1l-.32-.49c1.01-.11,2-.4,2.91-.86.17-.14.32-.29.47-.45h-2.81l.39-1.87h2.76v-.85h-3.15v-.57h3.15v-.61h.66v.61h2.07v-.61h.64v.61h2.95v1.9h-2.95l.04.87Zm-5.83,0h2.37c.05-.17.08-.34.09-.52v-.35h-2.23l-.23.87Zm8.3,2.17v4.35h-8.2v-4.34h8.2Zm-.66,1.26v-.69h-6.88v.79l6.88-.1Zm0,1.26v-.69h-6.88v.76l6.88-.06Zm0,.48h-6.88v.79h6.88v-.79Zm-4.53-5.69c0,.17-.02.35-.06.52h2.13v-.87h-2.07v.35Zm0-.85h2.07v-.85h-2.07v.85Zm6.76,9.11l-.2.53c-1.46-.5-2.96-.88-4.48-1.16l.24-.44c1.51.26,2.99.63,4.44,1.11v-.04Zm-4.05-9.11h2.36v-.85h-2.36v.85Z"/>
        <path class="cls-31" d="m152.15,69.16h-2.91v1.06h-.69v-9.65h3.61v8.59Zm-.68-4.69v-3.23h-2.23v3.23h2.23Zm0,4.02v-3.34h-2.23v3.34h2.23Zm1.41,2.93l-.54-.49c.92-1.42,1.38-3.08,1.34-4.77v-5.94h5.05v10c.07.51-.29.98-.8,1.05-.08.01-.16.01-.24,0h-1.67l-.19-.66h1.65c.39,0,.58-.23.58-.66v-2.8h-3.7c-.11,1.53-.62,3-1.48,4.26h0Zm1.5-5.32v.34h3.66v-2.41h-3.65v2.07Zm3.65-5.25h-3.65v2.52h3.65v-2.52Z"/>
        <path class="cls-31" d="m161.89,68.21c-.06,1.03-.24,2.05-.56,3.03l-.62-.19c.33-.94.53-1.92.58-2.91l.59.08Zm3.25-1.01l-.57.24c-.09-.29-.18-.56-.26-.81-1.05.34-2.13.58-3.23.73l-.18-.61c.11-.04.22-.11.3-.19.71-.85,1.33-1.77,1.84-2.75-.74.14-1.45.26-2.16.37l-.15-.61c.12-.04.23-.11.32-.21.69-1.13,1.26-2.34,1.69-3.6l.63.25c-.47,1.24-1.08,2.42-1.8,3.53.62-.09,1.26-.2,1.87-.34.25-.48.5-.97.76-1.5l.61.25c-.81,1.68-1.79,3.27-2.93,4.76.78-.14,1.54-.33,2.3-.58-.19-.45-.38-.86-.56-1.26l.52-.2c.4.8.73,1.62,1.01,2.47v.05Zm-1.7,3.65l-.61.08c-.01-.94-.11-1.89-.29-2.81h.56c.19.9.3,1.82.34,2.74h0Zm1.61-.96l-.56.23c-.18-.75-.4-1.49-.67-2.22l.5-.2c.29.72.53,1.45.72,2.19h0Zm1.17.54v.91h-.64v-10.5h6.23v10.51h-.67v-.91h-4.92Zm0-8.97v3.78h2.14v-3.78h-2.14Zm0,4.4v3.94h2.14v-3.91l-2.14-.03Zm4.94-.64v-3.78h-2.17v3.78h2.17Zm0,4.58v-3.91h-2.17v3.94l2.17-.03Z"/>
        <path class="cls-31" d="m15.13,95.04l-.21,2.52,2.37-.98.43,1.26-2.52.63,1.77,1.99-1.02.78-1.46-2.23-1.46,2.23-1.02-.78,1.77-1.99-2.52-.63.43-1.26,2.37.98-.21-2.52h1.31Z"/>
        <path class="cls-31" d="m22.76,97.43l-.73.73c-.53-.6-1.12-1.14-1.75-1.63l.73-.69c.63.48,1.22,1.01,1.75,1.59Zm.29,1.78c-.46,1.29-.99,2.55-1.59,3.78l-1.01-.45c.63-1.2,1.19-2.43,1.69-3.68l.91.35Zm.06-4.29l-.73.72c-.55-.6-1.17-1.14-1.85-1.59l.73-.71c.66.47,1.28,1,1.85,1.56h0Zm3.01,0c-.18-.51-.4-1.02-.64-1.5l.93-.28c.28.57.52,1.16.72,1.77h2.6v.98h-2.64v2.28h2.36v.96h-2.36v2.52h2.86v1h-6.82v-1h2.94v-2.52h-2.38v-.96h2.38v-2.28h-2.69v-.98h2.74Z"/>
        <path class="cls-31" d="m32.77,100.55c-.21.78-.56,1.52-1.02,2.18l-.87-.54c.42-.55.73-1.18.92-1.84l.97.2Zm-1.17-5.89v-.86h3.51c-.09-.18-.16-.35-.25-.5l1.1-.16c.09.2.18.43.26.67h3.75v.86h-1.69l-.32.63h2.52v.87h-9.35v-.87h2.42l-.26-.63h-1.69Zm7.69,1.96v3.33h-7.09v-3.32h7.09Zm-1,1.26v-.45h-5.11v.53l5.11-.08Zm0,.72h-5.11v.53h5.11v-.53Zm-3.66,4.24c-.82,0-1.26-.38-1.26-1.1v-1.36h1.02v1.15c0,.26.16.4.49.4h2.12c.14.02.29-.03.4-.11.15-.26.23-.55.23-.85l.96.32c-.09.74-.24,1.2-.48,1.35-.28.15-.6.22-.92.2h-2.56Zm2.21-7.57l.3-.63h-2.84l.25.63h2.28Zm.13,5.82l-.85.58c-.29-.42-.62-.81-.98-1.16l.86-.56c.36.36.68.75.97,1.16v-.03Zm3.7.91l-.85.58c-.37-.66-.79-1.29-1.26-1.88l.82-.52c.48.58.91,1.2,1.29,1.84v-.03Z"/>
        <path class="cls-31" d="m45.89,95.14v-.54h-4.09v-.86h4.09v-.56h1v.56h4.09v.86h-4.09v.54h3.17v2.18h-3.15v.54h3.31v1.39h1.11v.82h-1.07v1.4h-3.31v.54c0,.66-.35.98-1.06.98h-1.26l-.21-.96c.39.05.78.07,1.17.08.26,0,.4-.11.4-.34v-.3h-3.49v-.82h3.42v-.58h-4.38v-.82h4.38v-.57h-3.42v-.78h3.41v-.54h-3.15v-2.18l3.15-.04Zm0,.74h-2.14v.68h2.16v-.68Zm3.14,0h-2.14v.68h2.14v-.68Zm-2.14,3.37h2.33v-.57h-2.33v.57Zm0,.82v.58h2.33v-.58h-2.33Z"/>
        <path class="cls-31" d="m55.6,94.18v.97h-1.12v4.79c.4-.16.82-.35,1.26-.56v.96c-1.06.51-2.15.93-3.28,1.26l-.21-.96c.42-.09.85-.2,1.26-.33v-5.17h-1.26v-.97h3.36Zm2.52.97c.08-.23.15-.48.21-.71h-2.38v-.9h5.83v.9h-2.43c-.06.24-.14.48-.23.71h2.17v5.87h-1.43c.72.41,1.4.87,2.04,1.39l-.64.66c-.62-.57-1.3-1.06-2.02-1.49l.58-.56h-2.04l.62.53c-.69.63-1.47,1.15-2.31,1.55l-.56-.72c.78-.33,1.51-.79,2.14-1.36h-1.26v-5.87h1.7Zm2.19,1.67v-.85h-2.95v.85h2.95Zm0,1.68v-.9h-2.95v.9h2.95Zm0,.78h-2.95v.92h2.95v-.92Z"/>
        <path class="cls-31" d="m12.87,114.81v6.84h-.59v-6.11c-.44.48-1.01.82-1.64,1v-.59c.68-.2,1.29-.59,1.75-1.14h.48Z"/>
        <path class="cls-31" d="m15.57,120.83c.09.09.14.21.14.34,0,.13-.04.26-.14.35-.09.09-.21.14-.34.14-.13,0-.26-.05-.35-.14-.09-.09-.14-.22-.14-.35,0-.13.05-.25.14-.34.09-.1.22-.15.35-.14.13,0,.25.05.34.14Z"/>
        <path class="cls-31" d="m23.22,115.19v.48h-3.07v-.48h3.07Zm-.3,6.74h-1.96v.5h-.48v-3.14h2.43v2.64Zm0-5.39v.45h-2.38v-.45h2.38Zm0,1.34v.45h-2.38v-.45h2.38Zm-.44,3.6v-1.73h-1.48v1.73h1.48Zm-.38-6.52l-.45.16c-.14-.4-.31-.78-.52-1.15l.5-.14c.17.36.31.74.43,1.12h.04Zm4.28-1.11v.68h2.23v.43h-2.27v.78h1.92v.43h-1.92v.81h2.52v.44h-5.54v-.44h2.52v-.81h-1.93v-.43h1.93v-.78h-2.28v-.43h2.27v-.69h.54Zm-2.66,8.82l-.38-.35c.52-.64.79-1.44.78-2.26v-1.89h3.95v3.78c0,.42-.25.63-.72.63h-1.15l-.13-.45h1.12c.19.02.36-.11.38-.3,0-.03,0-.05,0-.08v-.76h-3.08c-.11.62-.38,1.19-.78,1.68Zm.9-2.64v.61h3.01v-.81h-2.96l-.05.2Zm2.96-1.44h-2.96v.83h2.96v-.83Z"/>
        <path class="cls-31" d="m29.94,122.48l-.11-.49h.74c.2.02.38-.13.39-.34,0-.03,0-.05,0-.08v-2.52c-.42.15-.83.28-1.26.4l-.14-.52c.47-.11.93-.24,1.39-.4v-2.35h-1.26v-.5h1.26v-1.85h.52v1.87h.97v.5h-.97v2.14l.97-.47v.52c-.32.16-.64.32-.97.45v2.85c.05.35-.19.68-.54.73-.06,0-.13,0-.19,0l-.79.05Zm5.37-6.31c-.15.57-.3,1.1-.45,1.56h3.52v.49h-1.26c-.11.92-.48,1.8-1.06,2.52.93.53,1.69,1,2.27,1.4l-.34.39c-.59-.42-1.35-.9-2.27-1.43-.96.76-2.09,1.26-3.29,1.46l-.21-.48c1.09-.2,2.12-.63,3.03-1.26-.57-.33-1.19-.67-1.85-1.01.27-.51.51-1.05.72-1.59h-1.44v-.49h1.61c.16-.52.33-1.06.47-1.63l.57.05Zm2.72.59h-.49v-1.3h-4.09v1.36h-.5v-1.84h2.28c-.12-.38-.27-.75-.44-1.11l.53-.1c.17.41.31.83.43,1.26h2.28v1.73Zm-3.34,1.46c-.18.48-.4.96-.64,1.41l1.59.85c.55-.64.91-1.42,1.03-2.26h-1.98Z"/>
        <path class="cls-31" d="m47.8,114.4v.5h-4.21v1.6c1.26.65,2.49,1.37,3.67,2.16l-.3.45c-1.34-.9-2.45-1.59-3.37-2.08v5.61h-.5v-7.68h-3.72v-.5l8.44-.06Z"/>
        <path class="cls-31" d="m53.24,115.3c-.21-.44-.45-.86-.73-1.26l.49-.18c.31.46.56.96.77,1.48h3.6v.52h-5.05c0,.39,0,.98-.09,1.78v.09h3.99c.02,1.16-.04,2.33-.18,3.48-.03.74-.64,1.33-1.39,1.34h-1.11l-.15-.48h1.26c.56,0,.88-.43,1.01-1.17,0-.45.08-1.35.08-2.67h-3.52c-.1.76-.33,1.5-.68,2.18-.53.84-1.19,1.6-1.97,2.22l-.38-.37c.84-.65,1.54-1.47,2.06-2.41.34-.8.53-1.66.57-2.52v-1.5h-2.7v-.52h4.12Z"/>
        <path class="cls-31" d="m63.02,113.82v1.5h3.04v5.25h-.5v-.63h-2.52v2.52h-.52v-2.52h-2.52v.71h-.5v-5.32h3.08v-1.5h.45Zm-.52,3.56v-1.56h-2.52v1.56h2.52Zm0,2.06v-1.59h-2.52v1.59h2.52Zm3.05-2.06v-1.56h-2.52v1.56h2.52Zm0,2.06v-1.59h-2.52v1.59h2.52Z"/>
        <path class="cls-31" d="m71.1,115.19v.48h-3.08v-.48h3.08Zm-.3,6.74h-1.96v.5h-.49v-3.14h2.45v2.64Zm0-5.39v.45h-2.36v-.45h2.36Zm0,1.34v.45h-2.36v-.45h2.36Zm-.44,3.6v-1.73h-1.51v1.73h1.51Zm-.39-6.52l-.44.16c-.15-.39-.32-.78-.52-1.15l.49-.14c.17.36.31.74.43,1.12h.04Zm4.28-1.11v.68h2.25v.43h-2.25v.78h1.93v.43h-1.93v.81h2.52v.44h-5.54v-.44h2.52v-.81h-1.93v-.43h1.93v-.78h-2.26v-.43h2.26v-.69h.49Zm-2.66,8.82l-.38-.35c.52-.63.8-1.44.78-2.26v-1.89h3.96v3.78c0,.42-.25.63-.73.63h-1.14l-.13-.45h1.11c.19.02.36-.11.38-.3,0-.03,0-.05,0-.08v-.76h-3.08c-.11.62-.38,1.2-.78,1.68Zm.9-2.64v.61h3.01v-.81h-2.96l-.05.2Zm2.96-1.44h-2.96v.83h2.96v-.83Z"/>
        <path class="cls-31" d="m79.28,113.96c.5.59.98,1.26,1.45,1.89l-.33.34c-.48-.71-.9-1.26-1.26-1.73-.38.76-.84,1.48-1.37,2.14l-.29-.39c.55-.7,1.03-1.46,1.43-2.26h.38Zm-1.16,2.7v-.44h2.06v.44h-.78v1.26h1.15v.48h-1.15v2.99l1.19-.35v.48c-.93.32-1.88.57-2.85.74l-.13-.49c.44-.08.87-.16,1.26-.26v-3.14h-1.06v-.48h1.14v-1.26l-.82.04Zm.37,4.29l-.39.1c-.11-.64-.25-1.26-.4-1.87l.39-.11c.15.54.28,1.17.4,1.88Zm2.09-1.88c-.11.55-.26,1.09-.44,1.61l-.37-.14c.18-.51.32-1.04.42-1.58l.39.1Zm1.89-4.47v.39c-.27.76-.58,1.51-.95,2.23h.98v.29c0,1.07-.18,2.14-.56,3.14.15.28.36.53.61.73.73.41,1.56.6,2.4.54h1.26l-.1.5h-.98c-1,.08-2.01-.15-2.88-.66-.22-.17-.41-.38-.57-.62-.27.52-.64.98-1.1,1.35l-.24-.42c.46-.38.83-.87,1.07-1.41-.3-.61-.52-1.26-.66-1.93l.4-.14c.11.52.27,1.03.47,1.53.24-.79.37-1.62.39-2.45h-1.11v-.37c.38-.72.71-1.47.98-2.23h-1.26v-.45l1.83-.04Zm2.01,3.19v.9h1.36v.42h-1.36v.85h1.61v.42h-1.61v1.08h-.47v-1.08h-1.4v-.42h1.4v-.85h-1.1v-.42h1.1v-.9h-1.1v-.4h1.1v-.91h-1.37v-.43h1.37v-.91h-1.16v-.43h1.12v-.79h.47v.79h1.36v1.34h.4v.43h-.4v1.26l-1.32.05Zm0-1.74h.9v-.91h-.92l.03.91Zm0,1.34h.9v-.91h-.92l.03.91Z"/>
        <path class="cls-31" d="m91.9,117.87c.11.18.16.38.15.59.01.75-.52,1.4-1.26,1.53v-.38c.23-.08.43-.22.58-.4.13-.18.19-.4.19-.62-.07.02-.14.02-.2,0-.13,0-.25-.06-.34-.15-.1-.09-.15-.21-.14-.34-.01-.14.04-.27.14-.37.1-.09.24-.14.38-.13.21-.02.4.08.5.26Z"/>
        <path class="cls-31" d="m97.75,120.25c-.04.77-.19,1.54-.43,2.27l-.47-.14c.26-.71.41-1.45.45-2.19l.44.06Zm2.72-.61l-.47.1c0-.18-.09-.35-.14-.52-.92.24-1.86.41-2.81.52l-.13-.47c.08-.04.16-.08.23-.14.65-.64,1.22-1.36,1.7-2.13-.63.1-1.26.18-1.85.25l-.13-.45c.08-.04.15-.11.2-.19.63-.85,1.16-1.77,1.58-2.75l.48.18c-.43.97-.98,1.89-1.64,2.72.54-.06,1.1-.13,1.67-.23l.73-1.26.45.18c-.74,1.36-1.64,2.63-2.67,3.78.69-.09,1.38-.22,2.06-.39-.11-.38-.25-.73-.39-1.07l.43-.14c.29.65.54,1.32.74,2.01h-.04Zm-1.26,2.52l-.47.1c-.08-.78-.19-1.48-.3-2.07l.43-.09c.15.66.26,1.29.38,2.08l-.04-.03Zm1.26-.57l-.42.19c-.16-.59-.34-1.17-.57-1.74l.4-.13c.24.55.45,1.12.62,1.7l-.04-.03Zm1.78-7.72c-.12.56-.29,1.1-.5,1.63h3.17c0,3.08,0,5.05-.13,5.71,0,.7-.56,1.26-1.25,1.27-.05,0-.1,0-.15,0h-.92l-.13-.48h.98c.49.03.92-.34.96-.83,0-.02,0-.04,0-.07.08-.58.11-2.26.14-5.05h-2.9c-.3.6-.68,1.16-1.12,1.67l-.32-.42c.84-.98,1.42-2.16,1.67-3.43h.5Zm1.02,5.85l-.42.29c-.48-.77-1.03-1.49-1.63-2.17l.54-.24c.58.67,1.12,1.39,1.59,2.14l-.09-.03Z"/>
        <path class="cls-31" d="m108.51,114.81v6.84h-.59v-6.11c-.44.48-1.01.82-1.64,1v-.59c.33-.1.64-.24.93-.43.31-.19.58-.43.82-.71h.48Z"/>
        <path class="cls-31" d="m114.38,115.8c.36.75.53,1.59.49,2.42.03.84-.13,1.67-.49,2.42-.51,1.01-1.75,1.42-2.76.91-.39-.2-.71-.52-.91-.91-.37-.75-.54-1.59-.5-2.42-.04-.84.13-1.67.5-2.42.51-1.01,1.75-1.42,2.76-.91.39.2.71.52.91.91Zm-3.27.4c-.42,1.31-.42,2.72,0,4.04.28.79,1.15,1.2,1.93.92.43-.15.76-.49.92-.92.44-1.31.44-2.73,0-4.04-.26-.79-1.11-1.21-1.9-.95-.45.15-.81.5-.95.95Z"/>
        <path class="cls-31" d="m119.01,114.46c-.58,1.4-1.54,2.62-2.76,3.52l-.4-.35c1.19-.85,2.12-2.01,2.69-3.36l.48.19Zm-1.78,3.78v-.5h5.63c0,1.16-.09,2.11-.18,2.84-.03.53-.19,1.04-.45,1.5-.25.31-.64.47-1.03.45h-1.77l-.13-.5h1.63c.47.04.91-.25,1.06-.69.24-1.02.35-2.06.34-3.1h-2.52c-.17.89-.5,1.75-.98,2.52-.6.76-1.36,1.38-2.23,1.82l-.33-.42c.79-.39,1.49-.93,2.06-1.6.48-.71.82-1.51.97-2.36l-2.06.05Zm4.58-4.05c.49,1.4,1.42,2.6,2.66,3.42l-.34.45c-1.2-.83-2.14-1.98-2.7-3.33h-1.37v-.5l1.75-.04Z"/>
        <path class="cls-31" d="m127.4,113.99c.59.61,1.19,1.26,1.78,1.96l-.33.34c-.59-.74-1.14-1.34-1.59-1.8-.47.85-1.04,1.64-1.68,2.37l-.29-.4c.67-.78,1.25-1.62,1.74-2.52l.37.06Zm-1.26,2.78v-.42h2.36v.48h-.93v1.19h1.35v.49h-1.35v2.89c.48-.11.93-.24,1.39-.38v.49c-1.08.32-2.17.57-3.28.76l-.13-.5c.52-.08,1.03-.16,1.51-.26v-3.05h-1.35v-.49h1.29v-1.19h-.86Zm.35,4.09l-.42.1c-.11-.61-.25-1.22-.42-1.82l.4-.15c.1.56.24,1.15.38,1.87h.05Zm2.41-1.83c-.12.57-.28,1.12-.49,1.67l-.38-.14c.2-.53.36-1.08.47-1.64l.4.11Zm4.68-1.7v2.74h-1.75v.68h1.96v.43h-1.96v.79h2.22v.43h-5.05v-.43h2.33v-.79h-1.94v-.43h1.94v-.68h-1.82v-2.74h4.06Zm-2.22-2.62c-.08-.25-.18-.49-.29-.73l.53-.1c.08.25.17.53.26.83h1.93v.39h-.78l-.3,1.11h1.26v.44h-4.82v-.44h1.26l-.32-1.11h-.74v-.44l2.01.05Zm0,3.78v-.79h-1.34v.79h1.34Zm0,.37h-1.34v.78h1.34v-.78Zm.87-2.64l.29-1.11h-1.89l.32,1.11h1.29Zm-.4,2.27h1.26v-.79h-1.26v.79Zm1.26.37h-1.26v.78h1.26v-.78Z"/>
        <path class="cls-31" d="m137.57,114.06c-.6,1.11-1.47,2.06-2.52,2.75l-.15-.52c.93-.62,1.69-1.47,2.19-2.47l.48.24Zm.2,2.42c-.26.52-.57,1.01-.95,1.45v4.58h-.49v-4.04c-.37.36-.77.69-1.19.98l-.15-.48c.98-.7,1.78-1.63,2.32-2.71l.45.21Zm2.28,1.8c-.11.24-.23.47-.34.67h2.88v.43c-.32.74-.84,1.38-1.5,1.84.84.43,1.74.74,2.66.93l-.35.49c-.99-.23-1.94-.59-2.83-1.07-.86.49-1.79.85-2.76,1.07l-.25-.44c.88-.19,1.73-.5,2.52-.92-.46-.3-.88-.66-1.26-1.06-.3.33-.63.62-.98.88l-.38-.33c.38-.26.73-.56,1.03-.91-.2-.23-.38-.48-.54-.74l.4-.26c.13.21.27.41.43.61.31-.42.57-.87.78-1.35l.49.16Zm3.25,0l-.39.26c-.13-.24-.28-.49-.44-.76-1.42.22-2.84.37-4.28.44l-.14-.42c.99-.41,1.88-1.02,2.61-1.79-.59,0-1.37.14-2.35.2v-.43c.28-.08.54-.25.73-.47.42-.46.79-.97,1.11-1.5l.45.18c-.41.64-.9,1.24-1.45,1.77l2.03-.23c.26-.26.53-.56.79-.85l.47.21c-.94,1.09-2.03,2.05-3.23,2.85,1.19-.1,2.19-.23,3.04-.38-.2-.32-.43-.62-.66-.93l.39-.24c.48.64.92,1.32,1.3,2.03v.04Zm-1.26,1.16h-2.6l-.3.42c.43.45.92.83,1.46,1.14.61-.39,1.11-.94,1.44-1.59v.04Z"/>
        <path class="cls-31" d="m144.85,121.78c.18-.06.26-.16.26-.3v-7.22h3.48v4.34h-2.98v2.99c.86-.23,1.7-.51,2.52-.83-.2-.38-.44-.76-.69-1.15l.4-.24c.53.81.99,1.65,1.4,2.52l-.4.29c-.14-.3-.29-.61-.47-.93-1.07.45-2.18.81-3.32,1.07l-.21-.54Zm3.25-7.04h-2.52v1.41h2.52v-1.41Zm-2.52,3.37h2.52v-1.49h-2.52v1.49Zm5.53,3.13l-.13-.52h.88c.19.03.37-.1.4-.29,0-.04,0-.07,0-.11v-5.6h-1.96v7.8h-.52v-8.28h2.98v6.19c0,.5-.24.77-.73.77l-.93.04Z"/>
        <path class="cls-31" d="m162.71,114.47v.5h-1.26v6.64c.07.43-.22.83-.65.89-.08.01-.15.01-.23,0h-1.58l-.11-.5h1.51c.35,0,.53-.19.53-.56v-6.51h-6.65v-.5l8.44.04Zm-3.78,5.51h-3.04v.87h-.5v-4.25h3.58l-.04,3.38Zm-.49-.48v-2.43h-2.55v2.43h2.55Z"/>
        <path class="cls-31" d="m172.25,114.4v.5h-4.21v1.6c1.26.65,2.49,1.37,3.67,2.16l-.3.45c-1.34-.9-2.45-1.59-3.37-2.08v5.61h-.5v-7.68h-3.72v-.5l8.44-.06Z"/>
        <path class="cls-31" d="m175.75,114.48v-.66h.44v.64h1.77v.43h-1.77v.79h2.64v-1.83h.49v1.83h2.52v.44h-2.46c.03.93.13,1.85.29,2.76.05.31.11.61.19.91.46-.94.79-1.94.98-2.96l.44.19c-.24,1.2-.66,2.36-1.26,3.43.08.27.19.52.32.77.28.49.48.74.64.74s.35-.58.49-1.69l.42.24c-.19,1.34-.45,2.01-.82,2.01s-.66-.3-1.01-.87c-.13-.23-.24-.47-.35-.72-.37.54-.84.99-1.39,1.34l-.26-.4c.59-.38,1.09-.9,1.45-1.5-.14-.45-.26-.9-.35-1.36-.17-.95-.27-1.91-.32-2.88h-5.55v-.44h2.41v-.79h-1.79v-.43h1.84Zm0,3.42v-.57h-2.17v-.42h2.17v-.57h.5v.52h2.17v.42h-2.23v.57h1.79v2.64h-1.79v.62h2.14v.45h-2.14v.95h-.5v-.95h-2.28v-.45h2.28v-.62h-1.78v-2.64l1.84.05Zm0,1.12v-.74h-1.35v.74h1.35Zm0,.37h-1.35v.76h1.35v-.76Zm.44-.37h1.36v-.74h-1.36v.74Zm1.36.37h-1.36v.76h1.36v-.76Zm3.78-4.18l-.39.28c-.31-.45-.66-.88-1.05-1.26l.38-.24c.4.38.78.79,1.11,1.22h-.05Z"/>
        <path class="cls-31" d="m188.03,117.37c.22.21.34.51.34.82,0,.31-.12.61-.34.82-.48.43-1.21.43-1.69,0-.45-.45-.45-1.19,0-1.64.48-.43,1.21-.43,1.69,0h0Zm-1.39.29c-.15.14-.23.33-.23.53,0,.2.08.4.23.54.14.14.34.22.54.21.2,0,.4-.08.54-.23.29-.28.3-.74.03-1.03,0,0-.02-.02-.03-.03-.15-.14-.34-.22-.54-.21-.2-.02-.39.04-.54.16v.05Z"/>
        <path class="cls-31" d="m14.73,132.23c.4.36.63.88.61,1.43,0,.6-.25,1.18-.68,1.6-.44.41-.91.77-1.41,1.1-.97.66-1.51,1.26-1.61,1.78h3.72v.53h-4.44c0-.61.25-1.19.68-1.63.43-.44.91-.84,1.43-1.17.41-.27.8-.58,1.16-.91.34-.33.54-.78.57-1.26.03-.4-.12-.78-.42-1.05-.31-.26-.71-.4-1.12-.38-.45-.03-.88.16-1.17.49-.34.41-.5.93-.47,1.46h-.62c-.04-.66.19-1.32.63-1.82.42-.44,1.01-.68,1.61-.66.55-.04,1.1.13,1.54.48Z"/>
        <path class="cls-31" d="m17.53,137.86c.09.09.14.21.14.34,0,.13-.05.26-.14.35-.09.09-.21.14-.34.14-.13,0-.26-.05-.35-.14-.09-.1-.14-.22-.14-.35,0-.13.05-.25.14-.34.09-.1.22-.16.35-.15.13,0,.25.06.34.15Z"/>
        <path class="cls-31" d="m21.48,131.06c-.23.71-.53,1.39-.88,2.04v6.52h-.53v-5.61c-.34.51-.73,1-1.15,1.45l-.18-.54c1.02-1.18,1.79-2.56,2.25-4.05l.49.19Zm2.01,5.84c-.57.81-1.26,1.53-2.06,2.13l-.33-.42c.79-.56,1.47-1.25,2.02-2.04l.37.33Zm3.09-5.58v2.9h-1.97v1.19h2.81v.52h-2.81v3.67h-.52v-3.67h-2.71v-.52h2.71v-1.19h-1.94v-2.9h4.43Zm-.52.5h-3.39v1.9h3.42l-.03-1.9Zm1.56,6.77l-.28.45c-.62-.77-1.3-1.48-2.04-2.12l.32-.35c.73.61,1.4,1.28,2.01,2.02Z"/>
        <path class="cls-31" d="m31.47,131.32v.4c-.26.91-.58,1.84-.93,2.8.49.64.79,1.41.87,2.21.02.31-.08.61-.28.85-.37.25-.82.37-1.26.33l-.16-.5h.28c.25.01.5-.05.72-.18.12-.14.18-.32.16-.5-.06-.79-.36-1.53-.87-2.13.36-.91.67-1.84.92-2.79h-1.55v7.78h-.52v-8.28h2.62Zm0,8.24l-.35-.32c.82-.63,1.44-1.47,1.82-2.43l.43.18c-.11.26-.24.52-.35.74.36.24.7.5,1.01.79l-.33.32c-.28-.28-.57-.53-.88-.77-.34.57-.77,1.07-1.27,1.49h-.06Zm0-6.02l-.26-.43c1.06-.47,1.99-1.21,2.67-2.14h.45c.69.94,1.61,1.67,2.69,2.12l-.28.42c-1.05-.44-1.96-1.15-2.64-2.06-.45.58-.98,1.08-1.58,1.5h3.12v.45h-3.15v-.44c-.29.21-.6.4-.91.58h-.11Zm2.32.68v2.31h-2.06v-2.25l2.06-.06Zm-.44.42h-1.17v1.41h1.17v-1.41Zm.64,4.92l-.35-.32c.8-.62,1.42-1.45,1.78-2.4l.43.18c-.13.29-.26.57-.4.82.55.38,1.07.8,1.55,1.26l-.34.33c-.44-.46-.91-.88-1.43-1.26-.29.52-.67.99-1.12,1.39h-.11Zm2.52-5.34v2.31h-2.04v-2.25l2.04-.06Zm-.43.42h-1.17v1.41h1.17v-1.41Z"/>
        <path class="cls-31" d="m41.41,138.75c-1,.43-2.06.72-3.14.86l-.21-.39c1.07-.13,2.12-.4,3.12-.79l.24.33Zm2.19-5.34h2.52c.05.37-.02.75-.2,1.08-.26.2-.58.3-.91.26h-.52l-.09-.33h.59c.21.03.43-.02.61-.14.1-.14.14-.31.11-.48h-2.13v1h-.48v-1h-1.74c-.14.24-.33.44-.56.61-.71.39-1.49.64-2.3.74l-.24-.37c.76-.08,1.5-.3,2.18-.66.13-.1.24-.21.35-.33h-2.12l.3-1.41h2.07v-.63h-2.37v-.42h2.36v-.45h.49v.45h1.55v-.45h.48v.45h2.22v1.39h-2.22l.03.67Zm-4.36,0h1.78c.02-.13.02-.25,0-.38v-.29h-1.68l-.1.67Zm6.22,1.63v3.25h-6.14v-3.25h6.14Zm-.49.98v-.59h-5.16v.59h5.16Zm0,.92v-.57h-5.16v.57h5.16Zm0,.35h-5.16v.59h5.2l-.04-.59Zm-3.39-4.26c.01.13.01.25,0,.38h1.6v-.67h-1.55l-.05.29Zm0-.64h1.55v-.63h-1.55v.63Zm5.05,6.84l-.15.4c-1.1-.38-2.22-.68-3.37-.87l.19-.34c1.14.19,2.26.46,3.36.81h-.03Zm-3.04-6.84h1.77v-.63h-1.77v.63Z"/>
        <path class="cls-31" d="m48.35,137.24c-.03.74-.15,1.48-.35,2.19l-.43-.13c.21-.69.32-1.4.35-2.12l.43.05Zm2.07-.73l-.42.1c0-.18-.06-.34-.09-.48-.65.2-1.31.36-1.98.45l-.14-.44c.09-.03.17-.08.24-.15.42-.59.78-1.23,1.07-1.89l-1.26.23-.13-.45c.09-.04.16-.1.21-.18.42-.93.75-1.89,1.01-2.88l.47.19c-.3.97-.69,1.92-1.16,2.83.37-.04.73-.09,1.1-.16.18-.39.35-.81.54-1.26l.43.16c-.49,1.22-1.1,2.39-1.82,3.49.45-.09.91-.2,1.36-.33-.08-.32-.16-.63-.24-.91l.39-.13c.17.6.3,1.21.4,1.83v-.03Zm-.85,2.52l-.43.09c-.08-.65-.2-1.29-.35-1.92l.39-.1c.14.57.28,1.22.39,1.96v-.03Zm.98-.69l-.37.18c-.13-.52-.31-1.02-.52-1.51l.37-.13c.2.47.37.95.52,1.44v.03Zm1.06-6.6c.1-.29.18-.58.23-.88h.47c-.05.28-.13.56-.24.82h1.1v2.89h-1.1l.26.96h1.1v.44h-1.59c0,.33-.09.63-.13.91h1.45c.05.72-.01,1.45-.19,2.16-.12.25-.38.41-.66.39h-.73l-.13-.42h.73c.19,0,.36-.13.42-.32.05-.46.08-.92.09-1.38h-1.08c-.06.23-.13.46-.21.68-.23.55-.57,1.04-1,1.44l-.29-.35c.37-.36.66-.79.87-1.26.2-.6.34-1.21.4-1.84h-.86v-.44h1.34l-.26-.96h-.83v-2.89l.85.05Zm1.11,1.26v-.87h-1.53v.87h1.53Zm0,.38h-1.53v.85h1.53v-.85Zm2.01,3.12c.29-1.09.45-2.21.47-3.34h-.96c-.19.72-.48,1.41-.86,2.06l-.26-.33c.61-1.24.98-2.59,1.08-3.97l.45.08c-.08.61-.18,1.19-.29,1.7h1.79v.47h-.5c0,1.35-.21,2.69-.64,3.96.35.74.81,1.44,1.35,2.06l-.33.38c-.5-.57-.92-1.2-1.26-1.88-.3.69-.73,1.33-1.26,1.87l-.26-.43c.56-.56.99-1.24,1.26-1.99-.34-.77-.59-1.57-.77-2.4l.37-.2c.15.69.36,1.36.63,2.02v-.04Z"/>
        <path class="cls-31" d="m58.06,137.28c-.05.78-.21,1.55-.49,2.28l-.44-.14c.28-.7.45-1.45.49-2.21l.44.06Zm2.41-.69l-.44.13c0-.2-.09-.39-.14-.57-.82.26-1.67.45-2.52.57l-.14-.45c.08-.04.16-.08.23-.14.55-.62,1.03-1.29,1.44-2.01l-1.63.26-.13-.47c.09-.04.16-.11.21-.19.57-.9,1.03-1.87,1.36-2.88l.48.19c-.38,1-.86,1.95-1.44,2.84.45,0,.93-.14,1.41-.24.23-.4.45-.83.71-1.26l.47.18c-.66,1.31-1.46,2.54-2.37,3.68.6-.12,1.2-.27,1.78-.45-.1-.34-.2-.67-.32-.97l.4-.14c.26.6.47,1.23.63,1.87v.05Zm-1.07,2.52l-.45.11c-.1-.77-.23-1.45-.37-2.04l.42-.09c.15.71.28,1.35.4,2.07v-.05Zm1.26-.47l-.43.11c-.13-.6-.31-1.2-.53-1.78l.42-.14c.2.61.36,1.23.48,1.85l.06-.05Zm2.88-7.57c0,.52,0,1.01.06,1.45h1.96v6.14c0,.5-.24.77-.71.77h-.92l-.13-.5h.85c.19.02.37-.12.39-.31,0-.03,0-.06,0-.09v-5.55h-1.43c.08,1.27.52,2.5,1.26,3.53l-.3.4c-.68-.89-1.12-1.94-1.26-3.05-.16,1.11-.6,2.16-1.26,3.07l-.34-.39c.75-1.04,1.19-2.28,1.26-3.56h-1.51v6.5h-.49v-6.99h2.09v-1h-1.32v-.45l1.8.04Z"/>
        <path class="cls-31" d="m69.9,137.93h-2.19v.79h-.52v-7.24h2.7v6.45Zm-.5-3.52v-2.42h-1.69v2.42h1.69Zm0,3v-2.52h-1.69v2.52h1.69Zm1.06,2.21l-.42-.38c.69-1.06,1.04-2.31,1.01-3.57v-4.45h3.78v7.57c.05.38-.21.73-.59.78-.06,0-.13,0-.19,0h-1.26l-.14-.5h1.26c.29,0,.44-.16.44-.49v-2.16h-2.86c-.06,1.14-.41,2.25-1.03,3.2h0Zm1.12-3.99v.24h2.75v-1.8h-2.74v1.56Zm2.74-3.91h-2.74v1.85h2.74v-1.85Z"/>
        <path class="cls-31" d="m77.21,137.21c-.04.77-.18,1.53-.4,2.27l-.48-.14c.26-.7.4-1.44.44-2.18l.44.05Zm2.45-.74l-.43.16c0-.2-.13-.4-.2-.61-.78.26-1.59.45-2.41.56l-.14-.45c.08-.03.16-.08.23-.14.53-.63.99-1.32,1.37-2.06l-1.61.26-.11-.45c.08-.04.15-.1.2-.18.52-.85.94-1.76,1.26-2.7l.48.19c-.35.93-.81,1.82-1.36,2.65.47,0,.95-.15,1.41-.25l.57-1.12.44.18c-.6,1.26-1.33,2.46-2.18,3.57.58-.1,1.15-.24,1.72-.43-.14-.34-.29-.64-.42-.92l.39-.16c.31.64.58,1.29.79,1.97v-.06Zm-1.26,2.72h-.47c0-.71-.08-1.41-.21-2.11h.42c.15.69.23,1.4.25,2.11h.01Zm1.2-.72l-.4.16c-.14-.56-.3-1.11-.5-1.65l.38-.16c.21.54.38,1.09.52,1.65h.01Zm.88.42v.67h-.48v-7.88h4.67v7.88h-.48v-.67h-3.71Zm0-6.74v2.81h1.61v-2.81h-1.61Zm0,3.31v2.95h1.61v-2.95h-1.61Zm3.71-.49v-2.81h-1.63v2.81h1.63Zm0,3.44v-2.95h-1.63v2.95h1.63Z"/>
        <path class="cls-31" d="m89.97,131.75v-.86h.52v.86h3.53v.49h-3.53v1.05h2.96v.49h-2.96v1.07h3.78v.48h-4.39c-.38.52-.84.98-1.36,1.36v2.23c.77-.23,1.53-.5,2.27-.82l.1.48c-.94.39-1.9.71-2.88.97l-.18-.44c.11,0,.18-.11.18-.21v-1.87c-.6.36-1.22.67-1.87.92l-.28-.45c1.33-.39,2.52-1.14,3.46-2.17h-3.12v-.48h3.78v-1.07h-2.99v-.49h2.96v-1.05h-3.53v-.49h3.53Zm3.86,4.53c-.51.54-1.12.96-1.79,1.26.69.74,1.56,1.3,2.52,1.6l-.3.45c-1.68-.59-3.02-1.88-3.67-3.54l.4-.21c.2.48.45.94.77,1.35.66-.29,1.25-.72,1.73-1.26l.34.35Z"/>
        <path class="cls-31" d="m97.83,131.04c-.21.71-.47,1.4-.79,2.07v6.51h-.52v-5.61c-.3.49-.63.96-1,1.4l-.16-.54c.93-1.21,1.61-2.6,2.01-4.07l.47.25Zm1.45.52v-.68h.48v.68h2.52v-.68h.49v.68h1.34v.47h-1.34v1.26h-1.48v.66h2.28v1.85h-2.28v.73h2.46v.43h-2.46v.74h2.21v.43h-2.21v.79h2.91v.47h-6.31v-.47h2.89v-.79h-2.18v-.43h2.18v-.74h-2.52v-.43h2.52v-.69h-2.27v-1.85h2.27v-.66h-1.55v-1.26h-1.26v-.47l1.3-.04Zm1.45,2.8h-1.8v.98h1.8v-.98Zm-.97-1.5h2.52v-.83h-2.52v.83Zm3.29,1.5h-1.82v.98h1.79l.03-.98Z"/>
        <path class="cls-31" d="m108.08,136.43c-.33-.08-.67-.14-1.01-.18-.28,0-.58-.09-.87-.11v.57c.04,1.03-.24,2.04-.81,2.9l-.39-.35c.48-.75.72-1.63.69-2.52v-2.43h3.39v4.64c0,.4-.24.61-.68.61h-.87l-.14-.48h.86c.17.02.31-.11.33-.27,0-.02,0-.04,0-.07v-1.26c-.68.13-1.41.25-2.19.35l-.11-.44c.79-.09,1.58-.2,2.31-.35v-2.32h-2.38v.95l1.11.15.95.15-.18.48Zm1.64-2.79l-.4.29c-.11-.21-.23-.43-.37-.66-1.01.16-2.25.29-3.67.38l-.15-.45c.09-.02.17-.07.24-.14.64-.63,1.17-1.37,1.58-2.17l.48.14c-.38.8-.91,1.53-1.55,2.14.9,0,1.84-.14,2.84-.28-.21-.35-.45-.69-.69-1.03l.39-.26c.5.65.94,1.33,1.34,2.04h-.03Zm.93-2.69v1.26l2.64-.16v.48l-2.64.18v1.44c-.02.18.1.34.28.37.03,0,.06,0,.1,0h2.42v.48h-2.52c-.37.05-.7-.2-.76-.57,0-.06,0-.13,0-.19v-3.29h.48Zm.21,8.49c-.34.05-.67-.19-.72-.53,0-.05,0-.11,0-.16v-3.31h.5v1.08l2.69-.15v.47l-2.69.18v1.6c-.02.17.1.33.27.35.03,0,.06,0,.1,0h1.43c.17.02.35-.04.48-.15.18-.36.26-.75.24-1.15l.48.15c.02.49-.11.98-.37,1.4-.21.15-.46.23-.72.2h-1.69Z"/>
        <path class="cls-31" d="m123.21,131.48v.5h-4.21v1.6c1.26.62,2.42,1.34,3.67,2.14l-.3.47c-1.34-.91-2.52-1.59-3.37-2.08v5.55h-.52v-7.68h-3.72v-.5h8.45Z"/>
        <path class="cls-31" d="m126.68,131.48v-.64h.49v.64h1.77v.43h-1.77v.83h2.64v-1.83h.5v1.83h2.52v.45h-2.52c.03.93.13,1.85.28,2.76,0,.33.13.63.2.91.46-.94.79-1.94.98-2.96l.44.19c-.24,1.2-.66,2.36-1.26,3.43.09.26.2.52.33.77.26.49.48.73.64.73s.35-.58.49-1.69l.42.24c-.19,1.34-.45,2.01-.82,2.01s-.66-.29-1.01-.87c-.14-.23-.26-.47-.35-.72-.37.54-.84,1-1.39,1.35l-.26-.4c.59-.39,1.08-.9,1.45-1.5-.13-.42-.25-.87-.35-1.36-.17-.95-.27-1.91-.32-2.88h-5.56v-.45h2.42v-.78h-1.79v-.48h1.83Zm0,3.42v-.58h-2.21v-.42h2.17v-.52h.49v.52h2.18v.42h-2.18v.58h1.79v2.64h-1.79v.61h2.16v.45h-2.16v.95h-.49v-.95h-2.28v-.45h2.28v-.61h-1.78v-2.64h1.82Zm0,1.12v-.76h-1.36v.74h1.36Zm0,.35h-1.36v.77h1.36v-.77Zm.44-.35h1.36v-.76h-1.36v.76Zm1.36.35h-1.36v.77h1.36v-.77Zm3.78-4.18l-.38.28c-.32-.44-.67-.87-1.05-1.26l.38-.24c.39.39.76.8,1.08,1.25l-.04-.03Z"/>
        <path class="cls-31" d="m142.39,134.89v.52h-8.57v-.52h8.57Z"/>
        <path class="cls-31" d="m143.75,134.23l-.35-.44c.99-.74,1.69-1.8,1.99-3l.53.1c-.12.37-.25.74-.4,1.1h6.04v.52h-3.12v1.7h2.72v.49h-2.72v2.23h3.37v.52h-3.37v2.18h-.52v-2.18h-4.48v-.52h1.61v-2.72h2.86v-1.7h-2.72c-.36.67-.86,1.26-1.45,1.73Zm4.23,2.7v-2.23h-2.33v2.23h2.33Z"/>
        <path class="cls-31" d="m156.98,133.26h-2.76v6.31h-.52v-6.82h3.34v-1.26h-1.26v-.49h1.78v1.38c0,.11,0,.23,0,.34h3.31v5.93c.05.39-.23.74-.62.78-.06,0-.12,0-.17,0h-1.54l-.14-.49h1.51c.21.03.41-.12.44-.33,0-.04,0-.07,0-.11v-5.3h-2.72c.32,1.5,1.16,2.85,2.38,3.78l-.34.44c-1.19-.96-2.03-2.29-2.37-3.78-.36,1.54-1.21,2.93-2.42,3.95l-.34-.45c1.24-.96,2.11-2.33,2.45-3.86Z"/>
        <path class="cls-31" d="m165.36,133.2v.45h-2.74v-.45h2.74Zm.63,5.46c-.97.48-2.02.81-3.09.97l-.24-.42c1.07-.14,2.11-.45,3.08-.91l.25.35Zm-.83-7.19v.45h-2.32v-.44h2.32Zm4.72,3.03v3.67h-6.07v-3.67h6.07Zm-.5,1.11v-.69h-5.05v.69h5.05Zm0,1.03v-.66h-5.05v.66h5.05Zm0,.38h-5.05v.77h5.05v-.77Zm-3.67-4.04l-.29-.39c.66-.41,1.17-1.03,1.45-1.75h.48c-.07.19-.15.37-.24.54h3.49v.39c-.23.45-.51.88-.85,1.26l-.37-.29c.25-.28.47-.58.66-.91h-3.22c-.31.44-.69.83-1.12,1.15Zm2.8-.76c-.04.16-.09.31-.16.45.72.76,1.68,1.25,2.72,1.36l-.2.44c-1.05-.15-2.01-.66-2.72-1.44-.55.71-1.37,1.17-2.26,1.26l-.25-.38c1.36-.25,2.18-.87,2.42-1.85l.45.15Zm2.52,6.99l-.16.42c-1.04-.4-2.1-.71-3.19-.92l.18-.37c1.08.2,2.14.49,3.17.87h.01Z"/>
        <path class="cls-31" d="m173.29,135.56c-.18.9-.44,1.77-.78,2.62l-.4-.14c.34-.84.6-1.7.78-2.59l.4.1Zm0-1.9l-.42.1c-.15-.66-.34-1.31-.57-1.94l.44-.14c.21.65.38,1.31.5,1.98h.04Zm.57.64v-3.43h.52v3.43h1.46v.5h-1.46v4.76h-.52v-4.76h-1.58v-.5h1.58Zm1.89-2.74c-.06.73-.21,1.44-.44,2.13l-.4-.13c.22-.67.36-1.36.39-2.07l.45.06Zm.14,6.13l-.42.11c-.15-.78-.34-1.54-.54-2.26l.35-.13c.24.74.43,1.5.57,2.27h.04Zm3.86-6.8v5.54l.98-.16.09.5-1.07.16v2.65h-.5v-2.52l-2.96.45-.06-.49,3.03-.47v-5.61l.5-.05Zm-1.26,4.48l-.34.34c-.51-.55-1.07-1.06-1.68-1.5l.33-.32c.58.44,1.12.94,1.61,1.48h.08Zm.26-2.31l-.34.34c-.51-.54-1.08-1.02-1.69-1.44l.34-.32c.59.42,1.14.89,1.65,1.41h.04Z"/>
        <path class="cls-31" d="m186.83,134.4c.23.21.35.51.34.82,0,.31-.12.6-.34.81-.48.43-1.21.43-1.69,0-.45-.45-.45-1.17,0-1.62,0,0,0,0,0,0,.48-.43,1.21-.43,1.69,0h0Zm-1.39.29c-.15.13-.23.33-.23.53,0,.2.08.39.23.53.14.14.34.22.54.21.2,0,.4-.07.54-.21.15-.13.24-.33.24-.53,0-.2-.08-.4-.24-.53-.14-.14-.34-.22-.54-.21-.2-.01-.4.07-.54.21Z"/>
        <path class="cls-31" d="m14.73,149.22c.39.33.6.83.58,1.34.04.71-.42,1.36-1.11,1.55.36.11.68.32.92.61.22.29.34.65.33,1.01.02.57-.22,1.13-.64,1.51-.46.39-1.06.6-1.67.58-.54.02-1.08-.15-1.51-.48-.52-.42-.82-1.06-.82-1.73h.59c-.02.92.71,1.68,1.63,1.7.04,0,.08,0,.12,0,.46.02.92-.14,1.26-.45.31-.28.48-.69.47-1.11.02-.39-.14-.77-.44-1.02-.33-.26-.74-.39-1.16-.37h-.61v-.48h.56c.4.02.8-.09,1.12-.33.26-.25.41-.61.39-.97.01-.37-.13-.72-.4-.97-.32-.27-.72-.4-1.14-.38-.42-.02-.83.13-1.14.42-.3.3-.49.71-.52,1.14h-.59c.05-1.19,1.05-2.11,2.23-2.07.56-.03,1.12.15,1.55.5Z"/>
        <path class="cls-31" d="m17.53,154.87c.09.09.14.21.14.34,0,.13-.05.26-.14.35-.09.09-.21.14-.34.14-.13,0-.26-.05-.35-.14-.09-.09-.14-.22-.14-.35,0-.13.05-.25.14-.34.09-.1.22-.15.35-.14.13,0,.25.05.34.14Z"/>
        <path class="cls-31" d="m19.67,154.73c-.04.64-.17,1.27-.38,1.88l-.44-.14c.22-.58.35-1.18.4-1.79l.42.05Zm1.12-2.35v-.82h-1.7v-3.28h3.87v3.28h-1.7v.82h1.6v.44h-1.6v.9h1.83v.47h-4.15v-.47h1.85v-.9h-1.61v-.44h1.61Zm0-3.68h-1.26v2.43h1.26v-2.43Zm-.3,1.96l-.32.08c-.09-.5-.22-.99-.38-1.46l.3-.11c.18.49.32.99.43,1.5h-.04Zm.23,5.83h-.43c0-.76,0-1.34-.1-1.77h.42c.09.45.13,1.03.15,1.77h-.04Zm1.77-7.78h-1.26v2.43h1.26v-2.43Zm-.56,7.64l-.43.09c-.09-.63-.19-1.17-.3-1.65l.39-.09c.18.52.28,1.06.38,1.65h-.04Zm.21-7.19c-.07.54-.2,1.07-.37,1.59l-.32-.11c.17-.51.28-1.03.35-1.56l.33.09Zm.9,7l-.4.14c-.12-.54-.28-1.07-.45-1.59l.4-.11c.23.57.38,1.08.49,1.56h-.04Zm2.38-8.22v1.82h2.09v.49h-2.09v1.88h1.67v4.49h-.49v-.53h-2.52v.53h-.52v-4.49h1.37v-4.24l.49.05Zm1.17,7.67v-3h-2.52v3h2.52Z"/>
        <path class="cls-31" d="m30.61,150.41v.42c-.37.61-.8,1.19-1.26,1.74h1.26v.37c-.11.69-.28,1.37-.52,2.03.11.05.2.12.29.2.26.29.59.52.95.68.43.15.88.23,1.34.21h4.31l-.11.5h-4.29c-.52.01-1.03-.08-1.51-.26-.41-.18-.77-.44-1.07-.77-.06-.07-.15-.1-.24-.1-.26,0-.63.42-1.07,1.26l-.38-.33c.45-.85.88-1.26,1.26-1.39.22-.61.39-1.23.5-1.87h-1.45v-.39c.47-.54.89-1.12,1.26-1.73h-1.27v-.58h2.01Zm0-1.01l-.34.35c-.46-.47-.97-.89-1.51-1.26l.35-.33c.53.35,1.04.75,1.5,1.19v.05Zm2.52,1.94v.69h1.78v-.69h.47v.69h1.26v.45h-1.26v1.01h1.59v.45h-5.84v-.45h1.58v-1.01h-1.34v-.45h1.34v-.69h.43Zm-1.88-.4c.1-.04.17-.14.18-.25v-2.41h2.27v1.56h-1.83v.97c.63-.08,1.25-.16,1.85-.26l.11.39c-.72.13-1.53.24-2.42.33l-.16-.33Zm2.22,3.51c-.57.47-1.21.85-1.89,1.15l-.28-.37c.66-.27,1.28-.63,1.84-1.07l.33.29Zm-.23-4.98v-.79h-1.37v.79h1.37Zm1.63,4.04v-1.01h-1.74v1.01h1.74Zm-.09-3.09c0,.16.1.26.32.26h1.73v.4h-1.92c-.37,0-.56-.16-.56-.48v-2.33h2.31v1.56h-1.88v.58Zm2.01,4.84l-.25.39c-.6-.47-1.26-.86-1.97-1.15l.24-.35c.7.27,1.37.63,1.98,1.07v.04Zm-2.01-6.61v.81h1.39v-.81h-1.39Z"/>
        <path class="cls-31" d="m42.63,147.88v1.5h3.04v5.25h-.5v-.63h-2.52v2.52h-.52v-2.52h-2.52v.71h-.5v-5.32h3.08v-1.5h.45Zm-.52,3.56v-1.54h-2.52v1.56l2.52-.03Zm0,2.06v-1.59h-2.52v1.59h2.52Zm3.05-2.06v-1.54h-2.52v1.56l2.52-.03Zm0,2.06v-1.59h-2.52v1.59h2.52Z"/>
        <path class="cls-31" d="m50.72,149.23v.48h-3.08v-.48h3.08Zm-.32,6.74h-1.94v.5h-.49v-3.14h2.43v2.64Zm0-5.39v.45h-2.35v-.45h2.35Zm0,1.34v.45h-2.35v-.45h2.35Zm-.43,3.6v-1.73h-1.48v1.73h1.48Zm-.39-6.52l-.44.16c-.15-.4-.32-.79-.52-1.16l.49-.13c.17.36.31.74.43,1.12h.04Zm4.25-1.11v.68h2.25v.43h-2.25v.78h1.93v.43h-1.93v.81h2.52v.44h-5.54v-.44h2.52v-.81h-1.93v-.43h1.93v-.78h-2.26v-.43h2.26v-.68h.49Zm-2.62,8.75l-.38-.35c.52-.63.8-1.44.78-2.26v-1.89h3.95v3.78c0,.42-.24.63-.72.63h-1.14l-.13-.45h1.11c.19.02.36-.11.38-.3,0-.03,0-.05,0-.08v-.76h-3.08c-.12.62-.39,1.2-.79,1.68h.01Zm.9-2.64v.61h2.99v-.81h-2.96l-.03.2Zm2.96-1.44h-2.96v.82h2.99l-.03-.82Z"/>
        <path class="cls-31" d="m59.54,148.06c-.22.71-.49,1.41-.81,2.08v6.5h-.5v-5.59c-.3.49-.64.96-1.01,1.4l-.16-.53c.93-1.21,1.62-2.6,2.02-4.07l.47.21Zm1.44.53v-.71h.49v.69h2.46v-.69h.49v.69h1.34v.45h-1.34v1.26h-1.48v.64h2.25v1.85h-2.28v.69h2.46v.43h-2.46v.74h2.28v.43h-2.19v.79h2.9v.48h-6.31v-.48h2.89v-.79h-2.18v-.43h2.18v-.74h-2.46v-.43h2.46v-.69h-2.33v-1.85h2.28v-.64h-1.46v-1.26h-1.26v-.45h1.27Zm1.46,2.79h-1.82v.98h1.82v-.98Zm-.97-1.5h2.46v-.83h-2.46v.83Zm3.29,1.5h-1.82v.98h1.82v-.98Z"/>
        <path class="cls-31" d="m69.8,153.46c-.35-.08-.68-.15-1.01-.19l-.87-.11v.58c.03,1.03-.26,2.04-.82,2.9l-.38-.37c.48-.75.72-1.63.69-2.52v-2.43h3.38v4.64c0,.4-.23.62-.67.62h-.88l-.13-.48h.86c.16.02.31-.09.33-.25,0-.03,0-.05,0-.08v-1.26c-.69.14-1.41.25-2.21.37l-.11-.45c.81-.09,1.58-.2,2.32-.34v-2.32h-2.38v.95c.45,0,.82.09,1.11.14s.54.09.93.16l-.16.45Zm1.64-2.8l-.42.3c-.11-.23-.23-.44-.35-.66-1.02.15-2.25.28-3.68.37l-.14-.45c.09-.02.17-.07.24-.13.64-.64,1.16-1.38,1.56-2.18l.49.14c-.38.81-.91,1.53-1.56,2.14.95-.04,1.91-.13,2.85-.28-.21-.34-.45-.68-.71-1.03l.4-.25c.5.64.96,1.32,1.36,2.03h-.05Zm.93-2.69v1.26l2.64-.18v.49l-2.64.18v1.43c0,.24.11.37.38.37h2.42v.49h-2.52c-.37.05-.72-.21-.77-.58,0-.06,0-.12,0-.18v-3.31l.49.03Zm.2,8.5c-.34.05-.67-.19-.72-.53,0-.06,0-.12,0-.18v-3.29h.52v1.1l2.69-.16v.48l-2.69.18v1.59c-.02.17.1.33.27.35.03,0,.05,0,.08,0h1.44c.17.02.35-.04.48-.15.16-.36.24-.75.23-1.15l.48.15c.02.5-.1.99-.35,1.41-.21.15-.46.22-.72.2h-1.7Z"/>
        <path class="cls-31" d="m79.62,153.6l-.43.1c0-.18-.09-.34-.13-.48-.83.24-1.67.41-2.52.53l-.14-.49c.09-.04.17-.09.24-.15.55-.6,1.02-1.25,1.43-1.96-.56.1-1.08.18-1.61.25l-.13-.48c.09-.05.16-.11.23-.19.55-.88,1-1.83,1.34-2.81l.49.19c-.38.98-.86,1.91-1.45,2.78l1.4-.19.64-1.19.48.18c-.64,1.25-1.41,2.42-2.3,3.51.59-.09,1.17-.22,1.74-.38-.09-.3-.19-.61-.29-.9l.4-.14c.25.59.45,1.2.61,1.82Zm-2.33.74c-.04.74-.18,1.47-.43,2.17l-.45-.13c.24-.68.39-1.39.44-2.11l.44.06Zm1.26,1.78l-.47.11c-.07-.75-.14-1.4-.23-1.97l.4-.09c.1.59.19,1.27.28,1.94h.01Zm1.16-.79l-.39.18c-.13-.49-.3-.97-.49-1.44l.39-.13c.19.45.35.92.48,1.39h.01Zm1.88-2.22v.35c-.23,1.13-.84,2.14-1.74,2.86l-.29-.38c.77-.61,1.32-1.45,1.56-2.4h-1.26v-.44h1.73Zm0-4.33c.13-.29.24-.59.32-.9l.52.08c-.09.28-.19.56-.33.82h2.26v3.29h-1.72v.71c.13.35.3.69.49,1.01.53-.32,1.02-.69,1.46-1.11l.3.35c-.47.43-.99.8-1.54,1.11.47.68,1.05,1.28,1.72,1.78l-.32.4c-.87-.74-1.59-1.65-2.12-2.66v2.28c.05.32-.16.61-.48.67-.06,0-.12.01-.18,0h-.74l-.11-.47h.69c.21,0,.33-.13.33-.35v-3.78h-1.93v-3.29l1.37.06Zm2.28,1.41v-.96h-3.18v.96h3.18Zm0,.45h-3.18v1.02h3.18v-1.02Z"/>
        <path class="cls-31" d="m90.05,147.88v3.03h3.54v.49h-3.54v4.29h4.43v.5h-8.46v-.5h3.51v-7.81h.53Z"/>
        <path class="cls-31" d="m97.15,149.39l-.33.32c-.41-.46-.85-.88-1.34-1.26l.32-.32c.49.37.95.79,1.35,1.26Zm.09,2.52l-.33.33c-.43-.5-.89-.97-1.4-1.39l.33-.32c.51.43.98.9,1.4,1.41v-.04Zm-.1,1.26c-.34,1.15-.69,2.23-1.1,3.25l-.44-.2c.43-1.06.81-2.13,1.12-3.23l.42.18Zm2.38-2.13c.64.42,1.25.89,1.83,1.39l-.26.35c-.54-.48-1.1-.92-1.69-1.34-.55.58-1.18,1.09-1.87,1.5l-.25-.35c.72-.43,1.38-.95,1.96-1.55h.29Zm-.24-.24l-.35.14c-.01-.09-.03-.19-.06-.28-.44.2-.9.37-1.36.5l-.14-.37c.09-.07.15-.17.15-.29v-2.21c.5-.05.98-.2,1.43-.44l.21.34c-.38.24-.81.39-1.26.44v1.99c.28-.1.56-.21.83-.34l-.3-1.07.37-.09c.24.66.38,1.27.45,1.72l.04-.05Zm-.95,2.02v-.4h2.17v.52h-.86v.74h1.51v.42h-1.51v1.83l1.54-.16v.43c-1.12.14-2.32.26-3.63.35l-.1-.44,1.73-.13v-1.88h-1.54v-.42h1.54v-.74l-.85-.11Zm.35,2.64l-.39.1c-.12-.39-.27-.77-.44-1.14l.37-.13c.19.37.35.76.47,1.16Zm.68-6.77v-.38h1.98c.05.79,0,1.57-.16,2.35-.11.25-.36.41-.63.42h-.43l-.1-.39h.48c.2-.02.36-.18.39-.38.07-.54.1-1.08.09-1.61h-.68c0,.43-.06.85-.16,1.26-.11.31-.28.59-.52.82l-.24-.3c.19-.19.33-.42.4-.68.09-.35.14-.71.14-1.07l-.56-.03Zm1.5,5.69c-.1.35-.23.7-.38,1.03l-.38-.14c.15-.32.27-.65.37-1l.39.1Zm1.15,2.14l-.1-.48h1.01c.24,0,.35-.13.35-.4v-7.75h.47v7.91c0,.48-.23.72-.64.72h-1.08Zm.38-7.71v5.94h-.44v-5.94h.44Z"/>
        <path class="cls-31" d="m112.42,152v3.12h-1.69v.73c0,.13.09.23.21.24.01,0,.03,0,.04,0h1.68c.13.02.25-.03.34-.13.1-.08.15-.35.19-.79l.45.14c0,.56-.14.9-.3,1.03-.18.11-.39.16-.59.14h-1.89c-.43,0-.63-.18-.63-.52v-.85h-1.35c-.18.41-.5.75-.91.95-.83.35-1.7.56-2.6.64l-.18-.43c.82-.05,1.63-.22,2.41-.5.33-.13.61-.36.79-.66h-2.03v-3.12h6.06Zm-4.72-.85h1.41v.38h-3.47v-3.44h3.34v.37h-1.26v.69h1.1v1.26h-1.1l-.03.74Zm-.42-2.02v-.68h-1.19v.69h1.19Zm1.11.97v-.63h-2.3v.63h2.3Zm-1.11,1.05v-.74h-1.19v.71l1.19.04Zm4.65,1.78v-.59h-5.05v.59h5.05Zm0,.86v-.53h-5.05v.53h5.05Zm0,.33h-5.05v.62h5.05v-.62Zm-2.67-4.39l-.28-.34c.54-.37.95-.91,1.15-1.54l.43.08c0,.16-.11.32-.16.44h2.95v.39h-3.15c-.25.38-.56.71-.93.97h0Zm4.05.35v1.45h-3.78v-1.45h3.78Zm-2.52.34h-.79v.76h.79v-.76Zm2.17-1.15v.34h-2.7v-.34h2.7Zm-1.12,1.15h-.69v.76h.69v-.76Zm1.14,0h-.79v.76h.79v-.76Z"/>
        <path class="cls-31" d="m117.22,148.09c-.23.7-.52,1.39-.87,2.04v6.51h-.53v-5.64c-.34.51-.72.99-1.15,1.44l-.18-.54c1.02-1.18,1.79-2.56,2.25-4.05l.48.24Zm2.02,5.83c-.56.82-1.26,1.54-2.06,2.13l-.33-.4c.78-.57,1.47-1.26,2.02-2.06l.37.33Zm3.09-5.56v2.9h-1.97v1.19h2.85v.49h-2.81v3.67h-.52v-3.67h-2.71v-.52h2.71v-1.19h-1.94v-2.9l4.39.03Zm-.52.49h-3.39v1.9h3.39v-1.9Zm1.56,6.79l-.34.38c-.62-.76-1.31-1.46-2.06-2.11l.33-.35c.75.63,1.45,1.32,2.07,2.08Z"/>
        <path class="cls-31" d="m127.59,155.77c-1,.43-2.06.72-3.14.87l-.23-.4c1.07-.12,2.12-.39,3.13-.78l.24.32Zm2.19-5.32h2.52c.05.37-.02.75-.2,1.08-.26.2-.58.29-.91.25h-.42l-.08-.34h.56c.27.12.58,0,.7-.28.05-.11.06-.24.02-.35h-2.13v1h-.49v-1h-1.74c-.14.24-.33.45-.56.61-.71.4-1.49.65-2.3.74l-.24-.37c.76-.08,1.5-.3,2.18-.64.13-.1.25-.21.35-.34h-2.11l.29-1.4h2.08v-.63h-2.36v-.43h2.36v-.47h.49v.45h1.54v-.45h.49v.45h2.19v1.43h-2.21l-.05.68Zm-4.36,0h1.78c.04-.12.06-.25.06-.38v-.28h-1.68l-.16.66Zm6.21,1.63v3.25h-6.13v-3.25h6.13Zm-.48.97v-.59h-5.16v.59h5.16Zm0,.92v-.57h-5.16v.57h5.16Zm0,.37h-5.16v.59h5.16v-.59Zm-3.39-4.26c.01.13.01.25,0,.38h1.59v-.66h-1.59v.28Zm0-.64h1.54v-.63h-1.54v.63Zm5.05,6.82l-.15.4c-1.09-.38-2.22-.67-3.36-.87l.23-.33c1.12.18,2.22.45,3.29.79h-.01Zm-3.03-6.82h1.77v-.63h-1.77v.63Z"/>
        <path class="cls-31" d="m137.29,149.23v.49h-3.56v-.49h3.56Zm-2.72,7.37h-.5v-3.27h2.85v3.14h-.5v-.47h-1.84v.59Zm2.32-5.98v.47h-2.8v-.47h2.8Zm0,1.26v.48h-2.8v-.48h2.8Zm-.48,1.89h-1.84v1.72h1.84v-1.72Zm-.53-4.82l-.44.16c-.15-.4-.34-.79-.56-1.16l.5-.13c.2.37.37.76.52,1.16l-.03-.04Zm4.3-1.08v3.2h2.26v.59h-2.26v5.05h-.5v-5.05h-2.22v-.49h2.22v-3.29h.5Z"/>
        <path class="cls-31" d="m146.74,155.77c-1,.43-2.06.72-3.14.87l-.21-.4c1.07-.13,2.12-.39,3.12-.78l.24.32Zm2.19-5.32h2.52c.05.37-.02.75-.2,1.08-.26.2-.58.29-.91.25h-.52l-.09-.34h.56c.21.03.43-.02.61-.14.1-.15.14-.32.11-.49h-2.13v1h-.44v-1h-1.75c-.13.24-.32.45-.54.61-.71.4-1.49.65-2.3.74l-.24-.37c.76-.08,1.49-.3,2.17-.64.13-.1.25-.22.37-.34h-2.12l.29-1.4h2.08v-.63h-2.36v-.43h2.36v-.47h.49v.45h1.55v-.45h.48v.45h2.21v1.43h-2.21v.68Zm-4.36,0h1.78c.04-.12.06-.25.06-.38v-.28h-1.68l-.16.66Zm6.22,1.63v3.25h-6.13v-3.25h6.13Zm-.49.97v-.59h-5.16v.59h5.16Zm0,.92v-.57h-5.16v.57h5.16Zm0,.37h-5.16v.59h5.16v-.59Zm-3.39-4.26c.01.13.01.25,0,.38h1.54v-.66h-1.55v.28Zm0-.64h1.54v-.63h-1.55v.63Zm5.05,6.82l-.16.4c-1.09-.38-2.22-.67-3.36-.87l.19-.33c1.14.18,2.26.45,3.36.79h-.03Zm-3.04-6.82h1.77v-.63h-1.77v.63Z"/>
        <path class="cls-31" d="m156.09,154.95h-2.18v.79h-.52v-7.23h2.7v6.43Zm-.52-3.52v-2.42h-1.67v2.42h1.67Zm0,3.01v-2.52h-1.67v2.52h1.67Zm1.07,2.19l-.42-.37c.69-1.07,1.04-2.31,1.01-3.58v-4.45h3.78v7.57c.05.38-.21.73-.59.78-.06,0-.13,0-.19,0h-1.26l-.14-.49h1.26c.29,0,.43-.16.43-.48v-2.17h-2.78c-.08,1.14-.47,2.24-1.11,3.19Zm1.11-3.99v.25h2.74v-1.82h-2.74v1.56Zm2.74-3.9h-2.74v1.85h2.74v-1.85Z"/>
        <path class="cls-31" d="m163.39,154.19c-.05.77-.19,1.53-.42,2.27l-.47-.15c.26-.7.41-1.44.44-2.18l.44.06Zm2.43-.76l-.42.18c-.06-.21-.14-.42-.2-.61-.79.26-1.6.44-2.42.54l-.13-.45c.08-.03.16-.08.23-.14.53-.63,1-1.32,1.37-2.06l-1.61.26-.11-.44c.08-.05.15-.11.2-.19.52-.85.94-1.76,1.26-2.7l.48.2c-.36.93-.82,1.82-1.36,2.65l1.41-.26c.18-.35.37-.72.56-1.12l.45.19c-.6,1.26-1.34,2.46-2.19,3.57.58-.11,1.16-.26,1.73-.43-.15-.35-.29-.66-.43-.93l.39-.15c.32.62.59,1.27.79,1.94v-.05Zm-1.26,2.72h-.47c0-.71-.08-1.41-.21-2.11h.42c.15.71.24,1.43.26,2.16v-.05Zm1.26-.72l-.4.18c-.14-.56-.31-1.12-.52-1.67l.39-.15c.19.54.34,1.09.47,1.65h.06Zm.88.42v.68h-.48v-7.88h4.67v7.88h-.48v-.68h-3.71Zm0-6.72v2.81h1.6v-2.8h-1.6Zm0,3.29v3.03h1.6v-2.95l-1.6-.08Zm3.71-.48v-2.8h-1.63v2.81h1.63Zm0,3.43v-2.95h-1.63v3.03l1.63-.08Z"/>
        <path class="cls-31" d="m177.26,151.42c.22.21.34.51.34.82,0,.31-.12.61-.34.82-.48.43-1.21.43-1.69,0-.22-.21-.35-.51-.34-.82,0-.31.12-.61.34-.82.48-.43,1.21-.43,1.69,0Zm-1.39.29c-.15.14-.23.33-.23.53,0,.2.08.4.23.54.14.14.34.22.54.21.41,0,.75-.33.75-.74,0-.2-.07-.38-.21-.52-.15-.14-.34-.22-.54-.21-.19-.02-.39.03-.54.15v.04Z"/>
        <path class="cls-31" d="m14.54,165.87v4.72h1.16v.48h-1.16v1.6h-.57v-1.6h-3.52v-.48l3.52-4.68.57-.04Zm-3.6,4.72h2.99v-3.96h0l-2.99,3.96Z"/>
        <path class="cls-31" d="m17.53,171.85c.09.09.14.21.14.34,0,.13-.05.26-.14.35-.09.09-.21.14-.34.14-.13,0-.26-.05-.35-.14-.09-.1-.14-.22-.14-.35,0-.13.05-.25.14-.34.09-.1.22-.16.35-.15.13,0,.25.06.34.15Z"/>
        <path class="cls-31" d="m21.98,166.26v.54h-3.07v-.48l3.07-.06Zm-.3,6.74h-1.9v.49h-.49v-3.14h2.43l-.04,2.65Zm0-5.39v.45h-2.35v-.44h2.35Zm0,1.32v.47h-2.35v-.47h2.35Zm-.44,3.6v-1.73h-1.46v1.73h1.46Zm-.38-6.51l-.45.16c-.14-.4-.31-.79-.52-1.16l.5-.14c.17.37.31.75.43,1.14h.04Zm4.28-1.12v.64h2.21v.43h-2.23v.83h1.92v.43h-1.92v.83h2.52v.44h-5.54v-.44h2.52v-.82h-1.93v-.44h1.93v-.78h-2.32v-.48h2.27v-.68l.57.04Zm-2.62,8.75l-.38-.34c.52-.63.8-1.44.78-2.26v-1.89h3.95v3.78c0,.43-.24.63-.72.63h-1.15l-.18-.47h1.12c.34,0,.38-.11.38-.37v-.76h-3.08c-.11.61-.37,1.19-.77,1.67h.04Zm.9-2.64v.61h3.01v-.79h-2.96l-.05.19Zm2.96-1.43h-2.96v.82h2.96v-.82Z"/>
        <path class="cls-31" d="m29.87,167.2v-.88h-1.39v-.45h1.39v-.9h.47v.9h1.41v.45h-1.37v.88h1.17v3.66h-1.17v.9h1.45v.47h-1.45v1.38h-.5v-1.38h-1.45v-.47h1.45v-.9h-1.16v-3.66h1.16Zm0,1.63v-1.19h-.76v1.19h.76Zm0,.42h-.76v1.17h.76v-1.17Zm.4-.42h.86v-1.19h-.74l-.11,1.19Zm.74.42h-.74v1.17h.86l-.11-1.17Zm3.52-4.25c.72.95,1.57,1.8,2.52,2.52l-.28.42c-.95-.72-1.8-1.57-2.52-2.52-.74.93-1.59,1.78-2.52,2.52l-.26-.42c.95-.73,1.8-1.58,2.52-2.52h.54Zm-2.52,8.69l-.37-.32c.35-.56.52-1.21.5-1.87v-3.01h1.99v4.55c.04.29-.17.56-.46.59-.05,0-.1,0-.15,0h-.5l-.11-.43h.48c.19,0,.29-.13.29-.35v-1.17h-1.1c.03.7-.13,1.39-.47,2.01h-.11Zm1.68-4.76h-1.08v.97h1.08v-.97Zm-1.08,2.36h1.08v-.97h-1.08v.97Zm3.04-4.18v.47h-2.7v-.47h2.7Zm-.38,1.53v3.53h-.35v-3.53h.35Zm-.2,4.96l-.1-.43h.77c.19,0,.28-.15.28-.42v-4.49h.47v4.59c0,.48-.2.71-.61.71l-.81.04Z"/>
        <path class="cls-31" d="m42.19,165.87h-1.46v-.5h1.85c.3,3.01,1.76,5.78,4.07,7.73l-.29.44c-2-1.69-3.4-3.98-3.99-6.53-.52,2.59-1.96,4.91-4.06,6.51l-.33-.44c2.27-1.75,3.78-4.31,4.21-7.15-.01-.01-.01-.03-.01-.05Z"/>
        <path class="cls-31" d="m55.64,165.33v.44h-3.46v.69h3.78v1.84h-.49v-1.44h-3.27v2.06h-.5v-2.06h-3.25v1.44h-.48v-1.84h3.78v-.69h-3.47v-.44h7.35Zm-.42,4v2.81h-3.03v.71c0,.2.1.3.32.3h2.45c.21.02.41-.03.59-.14.15-.11.25-.47.3-1.05l.45.14c0,.46-.14.9-.42,1.26-.26.15-.55.21-.85.19h-2.67c-.47,0-.69-.21-.69-.64v-.81h-3.08v-2.78h6.62Zm-4.15-.69c-.64.13-1.3.2-1.96.23l-.11-.37c.66-.02,1.31-.08,1.96-.19l.11.33Zm0-1.03l-.13.33c-.61-.12-1.22-.21-1.84-.26l.19-.33c.59.05,1.17.14,1.75.25h.03Zm.63,2.94v-.81h-2.52v.86l2.52-.05Zm0,.39h-2.52v.81h2.52v-.81Zm.52-.39h2.52v-.81h-2.52v.81Zm2.52.39h-2.52v.81h2.52v-.81Zm.15-2.36l-.15.34c-.63-.13-1.26-.25-1.94-.33l.15-.3c.65.05,1.29.15,1.93.28h.01Zm-2.08-1.01c.61-.04,1.21-.13,1.8-.28l.14.37c-.62.13-1.24.22-1.87.26l-.08-.35Z"/>
        <path class="cls-31" d="m61.4,169.1v-1.45c.91-.49,1.75-1.09,2.52-1.78h-5.56v-.49h6.31v.49c-.83.77-1.72,1.46-2.67,2.07v1.16h3.7v.5h-3.7v3.17c.05.39-.22.76-.62.81-.07,0-.14,0-.2,0h-1.6l-.14-.49h1.54c.34,0,.52-.16.52-.48v-3h-4.1v-.5h4.01Z"/>
        <path class="cls-31" d="m66.79,169.44l-.18-.54c.98-1.19,1.7-2.58,2.12-4.06l.48.23c-.22.72-.5,1.41-.85,2.08v6.52h-.5v-5.6c-.32.49-.68.95-1.07,1.38Zm8.67-3.18v.54h-6.18v-.49l6.18-.05Zm-.67,7.38h-.5v-.53h-3.78v.53h-.5v-3.2h4.78v3.2Zm-.16-5.97v.47h-4.47v-.47h4.47Zm0,1.35v.48h-4.47v-.48h4.47Zm-.34,3.58v-1.69h-3.78v1.69h3.78Zm-1.51-6.6l-.47.19c-.14-.4-.31-.8-.52-1.17l.49-.14c.19.36.35.74.48,1.12h.01Z"/>
        <path class="cls-31" d="m78.19,168.65v-1.08h.5v1.08h1.36v.49h-1.36v.38c.48.46.97.99,1.48,1.59l-.29.44c-.47-.66-.86-1.17-1.19-1.55v3.66h-.5v-3.78c-.42.95-1.01,1.8-1.75,2.52l-.23-.56c.86-.73,1.51-1.66,1.9-2.71h-1.58v-.49h1.65Zm-1.34-1.36l-.44-.3c.6-.61,1.05-1.35,1.34-2.16l.52.1c-.1.28-.21.52-.33.77h2.65v.47h-1.69c.27.34.51.71.72,1.1l-.48.19c-.23-.45-.51-.87-.82-1.26h-.63c-.24.39-.52.76-.83,1.1Zm4.19.1l-.44-.29c.54-.69.94-1.48,1.19-2.32l.48.11c-.08.27-.17.54-.28.81h2.96v.47h-1.96c.26.33.51.68.73,1.05l-.47.18c-.24-.44-.52-.86-.83-1.26h-.64c-.21.44-.46.86-.74,1.26Zm3.27,6.31h-.5v-.47h-2.6v.47h-.52v-5.75h3.62v5.75Zm-.5-4.14v-1.1h-2.6v1.1h2.6Zm0,1.54v-1.08h-2.6v1.08h2.6Zm0,1.65v-1.2h-2.6v1.2h2.6Z"/>
        <path class="cls-31" d="m86.16,167.27v-.47h5.05c.39-.58.73-1.2,1.02-1.84l.5.18c-.26.58-.58,1.14-.95,1.67h2.52v.48h-2.72v5.54h2.89v.52h-8.44v-.52h2.86v-5.54h-2.74Zm1.9,4.15l-.48.1c-.2-1.07-.48-2.13-.85-3.15l.47-.1c.34,1.04.63,2.09.86,3.15Zm1.16-4.98l-.45.23c-.29-.53-.62-1.03-1-1.5l.44-.21c.37.47.71.97,1.01,1.49h0Zm1.83,6.31v-5.54h-1.67v5.54h1.67Zm2.71-4.47c-.22,1.1-.54,2.17-.97,3.2l-.48-.16c.43-1.02.75-2.08.96-3.17l.49.13Z"/>
        <path class="cls-31" d="m96.28,171.75c-.05.64-.18,1.28-.39,1.89l-.44-.14c.23-.58.36-1.19.4-1.8l.43.05Zm1.12-2.35v-.82h-1.7v-3.27h3.86v3.27h-1.69v.82h1.6v.44h-1.6v.9h1.83v.48h-4.15v-.48h1.85v-.9h-1.61v-.44h1.61Zm0-3.68h-1.26v2.45h1.26v-2.45Zm-.29,1.96l-.32.08c-.1-.49-.22-.98-.38-1.46l.3-.1c.17.49.31.98.42,1.49h-.03Zm.23,5.84h-.44c0-.76,0-1.34-.09-1.75h.4c.08.58.13,1.17.15,1.75h-.03Zm1.77-7.8h-1.26v2.45h1.26v-2.45Zm-.56,7.64l-.44.1c-.07-.56-.16-1.11-.29-1.65l.39-.09c.16.5.26,1.05.37,1.64h-.03Zm.2-7.18c-.06.54-.19,1.07-.37,1.59l-.32-.11c.16-.51.29-1.03.37-1.56l.32.09Zm.91,6.99l-.4.15c-.12-.54-.27-1.07-.45-1.59l.39-.11c.21.56.37,1.07.49,1.55h-.03Zm2.37-8.21v1.84h2.11v.48h-2.11v1.88h1.67v4.5h-.48v-.56h-2.52v.54h-.49v-4.5h1.37v-4.18h.45Zm1.19,7.66v-3h-2.52v3h2.52Z"/>
        <path class="cls-31" d="m107.22,167.39v.4c-.36.61-.76,1.2-1.2,1.75h1.26v.34c-.11.7-.29,1.38-.52,2.04.11.05.2.11.28.2.27.28.59.51.95.68.43.15.89.22,1.35.2h4.3l-.11.49h-4.19c-.52,0-1.03-.08-1.51-.26-.41-.18-.78-.45-1.07-.78-.07-.06-.15-.09-.24-.09-.26,0-.63.4-1.08,1.26l-.37-.32c.44-.85.88-1.26,1.26-1.39.23-.6.41-1.23.52-1.87h-1.45v-.39c.47-.54.89-1.13,1.26-1.74h-1.5v-.47l2.07-.08Zm0-1.01l-.34.34c-.46-.47-.97-.89-1.51-1.26l.34-.33c.54.37,1.05.79,1.51,1.25h0Zm2.59,1.93v.71h1.74v-.71h.47v.71h1.26v.44h-1.26v1.02h1.58v.45h-5.83v-.45h1.58v-1.02h-1.26v-.44h1.26v-.71h.47Zm-1.88-.4c.1-.03.17-.13.16-.24v-2.42h2.28v1.56h-1.83v.97c.63-.08,1.26-.15,1.85-.25l.11.38c-.72.13-1.53.24-2.43.34l-.15-.34Zm2.21,3.52c-.58.47-1.21.85-1.89,1.15l-.28-.37c.67-.27,1.29-.63,1.85-1.08l.32.3Zm-.21-4.98v-.79h-1.37v.79h1.37Zm1.63,4.04v-1.02h-1.74v1.02h1.74Zm-.15-3.09c0,.18.1.28.32.28h1.73v.4h-1.96c-.35,0-.54-.15-.54-.47v-2.35h2.31v1.55h-1.85v.58Zm2.01,4.86l-.25.38c-.6-.47-1.26-.86-1.97-1.15l.24-.35c.7.29,1.37.67,1.98,1.12Zm-2.01-6.61v.81h1.41v-.81h-1.41Z"/>
        <path class="cls-31" d="m115.83,167.88v1.05h.71v.4h-.71v1.02h-.4v-1.02h-.76v-.42h.76v-1.05h.4Zm1.03-.97v-1c-.61,0-1.26.06-1.96.06l-.15-.45c1.45.02,2.89-.13,4.3-.45l.24.43c-.64.17-1.29.29-1.94.37v1.05h2.19v.48h-2.19v3.44h1.94v.47h-1.94v1.26l2.09-.2v.47c-1.36.16-2.9.3-4.65.39l-.06-.48,2.13-.14v-1.32h-1.94v-.47h1.98v-3.44h-2.18v-.48l2.14.03Zm1.98.97v1.05h.76v.4h-.76v1.02h-.42v-1.02h-.71v-.42h.71v-1.05h.42Zm4.11-2.52v.39c-.28,1.03-.59,1.99-.92,2.88.57.73.94,1.6,1.06,2.52.03.35-.08.69-.32.95-.42.22-.89.32-1.36.28l-.16-.52h.48c.25.02.51-.04.72-.18.12-.16.17-.36.15-.56-.13-.93-.51-1.8-1.1-2.52.32-.79.62-1.72.93-2.79h-1.75v7.81h-.5v-8.29l2.78.03Z"/>
        <path class="cls-31" d="m132.75,169.44v.48h-1.61v3c0,.48-.25.72-.77.72h-.96l-.11-.49h.91c.28,0,.42-.13.42-.38v-2.89h-6.31v-.48l8.44.04Zm-.33-1.99h-.48v-1.26h-6.81v1.26h-.49v-1.73h3.68c-.11-.27-.23-.52-.38-.77l.54-.1c.14.28.25.57.35.87h3.58v1.73Zm-4.05-.34c0-.08,0-.17,0-.25v-.38h.49v.38c0,.08,0,.17,0,.25h2.52v.47h-2.69c-.04.1-.09.19-.15.28,1.02.27,2.03.61,3,1.02l-.28.4c-.97-.44-1.97-.8-3-1.07-.08.07-.16.14-.24.2-.77.45-1.63.74-2.52.85l-.28-.4c.86-.09,1.69-.35,2.46-.74.2-.14.36-.32.49-.53h-2.52v-.47h2.71Zm.83,3.53v2.06h-3.47v-2.11l3.47.05Zm-.48.47h-2.52v1.14h2.52v-1.14Z"/>
        <path class="cls-31" d="m136.94,171.98h-2.18v.79h-.52v-7.23h2.7v6.43Zm-.52-3.53v-2.41h-1.67v2.41h1.67Zm0,3.01v-2.52h-1.67v2.52h1.67Zm1.06,2.21l-.4-.38c.68-1.06,1.03-2.31,1.01-3.57v-4.45h3.78v7.57c.05.38-.21.73-.59.78-.06,0-.13,0-.19,0h-1.26l-.21-.5h1.26c.29,0,.43-.16.43-.49v-2.16h-2.78c-.06,1.14-.42,2.25-1.05,3.2Zm1.12-3.99v.24h2.75v-1.85h-2.75v1.61Zm2.74-3.91h-2.74v1.85h2.74v-1.85Z"/>
        <path class="cls-31" d="m144.24,171.26c-.05.77-.19,1.53-.42,2.27l-.47-.14c.25-.7.4-1.44.44-2.18l.44.05Zm2.43-.74l-.42.16c0-.2-.14-.4-.2-.61-.79.26-1.6.45-2.42.56l-.14-.45c.09-.03.17-.08.24-.14.52-.64.99-1.33,1.37-2.06l-1.61.26-.11-.45c.08-.04.15-.1.2-.18.51-.85.93-1.76,1.26-2.7l.48.19c-.36.93-.81,1.82-1.36,2.65.47,0,.93-.15,1.4-.25.19-.35.38-.73.57-1.12l.45.18c-.6,1.26-1.34,2.46-2.19,3.57.58-.11,1.16-.25,1.73-.43-.15-.34-.29-.64-.43-.92l.39-.16c.32.61.59,1.25.79,1.9Zm-1.26,2.72h-.45c0-.71-.08-1.41-.21-2.11h.42c.15.69.23,1.4.24,2.11h.01Zm1.26-.72l-.42.16c-.13-.57-.3-1.12-.5-1.67l.38-.15c.2.54.36,1.09.48,1.65h.06Zm.88.4v.68h-.48v-7.88h4.67v7.88h-.48v-.68h-3.71Zm0-6.72v2.81h1.6v-2.81h-1.6Zm0,3.31v2.94h1.6v-2.94h-1.6Zm3.71-.49v-2.81h-1.69v2.81h1.69Zm0,3.43v-2.94h-1.69v2.94h1.69Z"/>
        <path class="cls-31" d="m157.01,165.8v-.87h.5v.87h3.54v.49h-3.53v1.05h2.96v.49h-2.96v1.06h3.78v.44h-4.42c-.38.52-.84.98-1.36,1.36v2.22c.77-.22,1.53-.49,2.27-.81l.11.48c-.94.39-1.9.71-2.89.96l-.16-.43c.11,0,.16-.11.16-.21v-1.87c-.59.36-1.22.67-1.87.92l-.28-.45c1.33-.39,2.52-1.14,3.46-2.17h-3.1v-.49h3.78v-1.06h-2.98v-.49h2.98v-1.05h-3.53v-.49l3.52.05Zm3.78,4.53c-.51.54-1.12.96-1.79,1.26.69.74,1.56,1.29,2.52,1.6l-.29.45c-1.68-.6-3.02-1.89-3.68-3.54l.4-.21c.21.48.47.93.78,1.35.66-.29,1.24-.72,1.72-1.26l.34.35Z"/>
        <path class="cls-31" d="m167.28,168.94c.1.18.16.39.15.59,0,.36-.11.7-.33.98-.22.27-.53.47-.87.56v-.39c.23-.08.43-.22.58-.4.13-.18.19-.39.19-.61h-.2c-.13,0-.25-.05-.34-.14-.1-.09-.15-.22-.15-.35,0-.14.05-.27.15-.35.09-.1.23-.15.37-.14.18,0,.36.1.45.25Z"/>
        <path class="cls-31" d="m173.03,165.2v2.43h1.35v-2.67h.5v8.64h-.5v-3.6h-1.02c-.07,1.26-.37,2.49-.88,3.63l-.42-.3c.48-1.05.75-2.18.81-3.33h-.78v-.49h2.3v-1.45h-1.85v-2.91l.5.05Zm2.65,1.85l-.29-.4c1-.3,1.88-.91,2.52-1.74h.5c-.16.27-.35.53-.57.76h2.62v.39c-.64,1.54-2.18,2.62-4.59,3.25l-.24-.43c1.78-.23,3.35-1.25,4.29-2.78h-2.59l-.16.11c.51.24,1.01.52,1.48.83l-.28.32c-.5-.34-1.03-.64-1.58-.91-.36.22-.74.42-1.12.59h0Zm3.41,2.75v-1.26h.5v1.26h1.16v.5h-1.16v2.52c.05.36-.21.69-.57.73-.06,0-.12,0-.18,0h-1.26l-.13-.45h1.26c.21.03.4-.12.43-.32,0-.03,0-.06,0-.09v-2.42h-3.68v-.5l3.62.04Zm-3.57-2.03c.62-.12,1.22-.28,1.82-.48l.1.37c-.58.2-1.18.36-1.78.49l-.14-.38Zm2.19,4.36l-.4.3c-.36-.52-.76-1-1.2-1.46l.4-.25c.43.44.84.91,1.2,1.41Z"/>
        <path class="cls-31" d="m184.26,165.1c-.23.71-.53,1.39-.88,2.04v6.52h-.53v-5.6c-.34.52-.72,1-1.15,1.45l-.16-.54c1.02-1.18,1.78-2.56,2.23-4.05l.49.18Zm2.01,5.84c-.57.82-1.26,1.54-2.06,2.13l-.33-.42c.79-.56,1.47-1.25,2.02-2.04l.37.33Zm3.09-5.58v2.9h-1.96v1.19h2.81v.52h-2.81v3.67h-.52v-3.67h-2.72v-.52h2.72v-1.19h-1.94v-2.9h4.42Zm-.52.5h-3.38v1.9h3.36l.03-1.9Zm1.58,6.77l-.35.39c-.62-.77-1.3-1.48-2.04-2.12l.33-.35c.75.63,1.44,1.33,2.07,2.08h0Z"/>
        <path class="cls-31" d="m194.61,172.8c-1,.43-2.06.72-3.14.86l-.21-.39c1.07-.13,2.12-.4,3.12-.79l.24.33Zm2.21-5.34h2.52c.04.37-.03.75-.2,1.08-.26.2-.58.3-.91.26h-.53l-.09-.34h.56c.22.03.43-.02.62-.14.08-.15.12-.31.11-.48h-2.13v1h-.39v-1h-1.74c-.14.24-.33.44-.56.59-.71.4-1.49.66-2.3.76l-.24-.37c.76-.08,1.5-.31,2.18-.66.13-.1.24-.21.35-.33h-2.12l.3-1.41h2.07v-.63h-2.36v-.42h2.36v-.47h.49v.47h1.55v-.47h.49v.47h2.21v1.41h-2.21l-.05.66Zm-4.38,0h1.78c.02-.13.02-.25,0-.38v-.28h-1.63l-.15.66Zm6.22,1.63v3.25h-6.14v-3.25h6.14Zm-.49.98v-.59h-5.15v.59h5.15Zm0,.91v-.56h-5.15v.56h5.15Zm0,.37h-5.15v.59h5.15v-.59Zm-3.39-4.26c.02.13.02.25,0,.38h1.6v-.66h-1.55l-.05.28Zm0-.64h1.6v-.63h-1.55l-.05.63Zm5.05,6.84l-.15.4c-1.09-.38-2.21-.67-3.36-.87l.18-.34c1.14.18,2.26.45,3.36.81h-.03Zm-3.03-6.84h1.75v-.63h-1.75v.63Z"/>
        <path class="cls-31" d="m204.33,166.26v.54h-3.56v-.49l3.56-.05Zm-2.71,7.37h-.49v-3.28h2.83v3.14h-.49v-.45h-1.85v.59Zm2.33-5.98v.42h-2.81v-.47l2.81.05Zm0,1.26v.48h-2.81v-.48h2.81Zm-.48,1.88h-1.85v1.73h1.85v-1.73Zm-.54-4.81l-.44.16c-.15-.4-.33-.79-.54-1.16l.5-.14c.19.38.35.77.48,1.17v-.04Zm4.3-1.1v3.2h2.26v.5h-2.26v5.05h-.5v-5.05h-2.22v-.5h2.22v-3.2h.5Z"/>
        <path class="cls-31" d="m19.81,184.9v1.05h.71v.43h-.71v1.02h-.4v-1.02h-.76v-.43h.76v-1.05h.4Zm1.03-.97v-1c-.61,0-1.26.08-1.96.08l-.15-.47c1.45.02,2.89-.13,4.3-.44l.24.43c-.64.17-1.29.29-1.94.37v1.03h2.19v.54h-2.19v3.44h1.94v.47h-1.94v1.26l2.09-.2v.47c-1.36.16-2.91.29-4.65.39v-.49l2.13-.13v-1.32h-2.02v-.47h1.96v-3.42h-2.18v-.49l2.18-.05Zm1.98.97v1.05h.76v.43h-.76v1.02h-.42v-1.02h-.71v-.43h.71v-1.05h.42Zm4.11-2.52v.39c-.28,1.03-.59,1.99-.92,2.89.57.73.94,1.6,1.06,2.52.04.35-.07.69-.32.95-.42.23-.9.33-1.37.28l-.15-.52c.16.01.32.01.48,0,.25.02.5-.04.72-.16.12-.16.17-.37.15-.57-.13-.93-.51-1.8-1.1-2.52.32-.79.62-1.73.93-2.8h-1.8v7.81h-.5v-8.29l2.83.03Z"/>
        <path class="cls-31" d="m36.73,186.47v.52h-1.61v3c0,.47-.26.71-.77.71h-.96l-.11-.49h.91c.28,0,.42-.11.42-.37v-2.85h-6.31v-.48l8.44-.04Zm-.33-2.01h-.48v-1.26h-6.81v1.26h-.49v-1.73h3.68c-.11-.26-.23-.52-.38-.77l.54-.09c.14.28.25.56.35.86h3.58v1.73Zm-4.05-.33c0-.09,0-.18,0-.26v-.37h.49v.37c0,.09,0,.18,0,.26h2.52v.45h-2.6c-.04.1-.09.2-.15.29,1.02.26,2.02.6,2.99,1.01l-.26.42c-.97-.45-1.98-.81-3.01-1.08-.07.08-.15.15-.24.21-.78.44-1.63.73-2.52.85l-.28-.42c.88-.08,1.74-.33,2.52-.73.2-.15.36-.33.49-.54h-2.52v-.45h2.57Zm.83,3.53v2.06h-3.46v-2.06h3.46Zm-.48.45h-2.52v1.14h2.52v-1.14Z"/>
        <path class="cls-31" d="m41.82,187.47v-1.26h.52v1.26h3.18v.49h-3.18v1.79h3.92v.5h-8.36v-.5h3.92v-1.79h-3.22v-.49h3.22Zm4.19-5.05v.5h-4.52c-.53.98-1.25,1.84-2.13,2.52,1.65-.1,3.29-.28,4.92-.54-.3-.38-.64-.74-1.01-1.12l.43-.26c.74.79,1.43,1.63,2.04,2.52l-.43.32c-.21-.33-.45-.65-.69-.96-2.01.31-4.03.52-6.06.61l-.14-.44c1.06-.62,1.93-1.52,2.52-2.6h-2.8v-.5l7.86-.04Z"/>
        <path class="cls-31" d="m47.59,190.57l-.11-.48h.93c.2.03.39-.11.41-.31,0-.03,0-.06,0-.09v-2.52c-.44.15-.91.29-1.36.42l-.14-.52c.51-.11,1.01-.25,1.5-.42v-2.35h-1.35v-.49h1.35v-1.87h.5v1.85h1.1v.49h-1.11v2.16c.42-.16.83-.34,1.26-.53v.53c-.4.19-.82.35-1.26.52v2.85c.04.36-.22.68-.58.72-.05,0-.11,0-.16,0l-.98.04Zm7.96-7.3l-3.91.16v1.03c0,.26.15.39.45.39h3.66v.49h-3.91c-.47,0-.69-.23-.69-.67v-2.6h.54v.96l3.91-.18-.05.4Zm-.08,7.4h-.53v-.54h-3.25v.54h-.5v-4.39h4.29v4.39Zm-.53-2.72v-1.26h-3.25v1.26h3.25Zm0,1.7v-1.26h-3.25v1.26h3.25Z"/>
        <path class="cls-31" d="m64.03,184.83v.5h-2.52v1.87h2.93v.49h-2.93v2.14c.84.12,1.68.17,2.52.16h1.51l-.1.52h-1.14c-1.36.07-2.73-.1-4.02-.52-.67-.32-1.22-.85-1.58-1.5-.34.81-.82,1.55-1.41,2.19l-.33-.42c1-1.15,1.66-2.56,1.89-4.06l.49.1c-.12.56-.27,1.12-.44,1.67.34.77.97,1.37,1.75,1.67l.43.11v-4.39h-2.52v-.5l5.46-.04Zm1.06.08h-.52v-1.45h-6.66v1.49h-.52v-1.98h3.7c-.14-.35-.3-.7-.49-1.02l.54-.09c.19.36.35.73.48,1.11h3.47v1.94Z"/>
        <path class="cls-31" d="m66.51,186.47l-.16-.54c.97-1.2,1.69-2.59,2.11-4.07l.49.24c-.22.72-.51,1.41-.85,2.08v6.51h-.52v-5.63c-.32.5-.68.97-1.07,1.41Zm8.67-3.19v.5h-6.17v-.5h6.17Zm-.67,7.38h-.5v-.53h-3.78v.53h-.52v-3.2h4.78l.03,3.2Zm-.16-5.95v.47h-4.45v-.47h4.45Zm0,1.34v.48h-4.45v-.48h4.45Zm-.34,3.6v-1.69h-3.78v1.69h3.78Zm-1.51-6.6l-.45.18c-.14-.41-.32-.8-.53-1.17l.5-.13c.19.36.35.74.48,1.12h0Z"/>
        <path class="cls-31" d="m77.91,185.73v-1.08h.52v1.08h1.36v.5h-1.36v.38c.52.5,1,1.03,1.46,1.59l-.28.44c-.48-.67-.87-1.19-1.19-1.56v3.67h-.52v-3.78c-.41.94-1.01,1.8-1.74,2.52l-.23-.56c.84-.74,1.5-1.67,1.9-2.71h-1.55v-.49h1.61Zm-1.26-1.35l-.45-.3c.6-.61,1.06-1.35,1.35-2.16l.5.1c-.09.26-.2.52-.32.77h2.65v.42h-1.7c.28.34.52.71.73,1.1l-.48.18c-.23-.45-.51-.87-.82-1.26h-.63c-.26.39-.56.76-.9,1.1l.06.06Zm4.18.09l-.44-.29c.56-.68.99-1.47,1.26-2.31l.48.1c-.08.28-.18.55-.29.82h2.98v.42h-1.96c.27.32.51.67.72,1.03l-.47.19c-.23-.45-.51-.87-.83-1.26h-.63c-.25.46-.55.9-.88,1.3h.06Zm3.28,6.31h-.5v-.47h-2.61v.47h-.5v-5.71h3.62v5.71Zm-.5-4.15v-1.08h-2.61v1.08h2.61Zm0,1.55v-1.19h-2.61v1.08l2.61.1Zm0,1.65v-1.2h-2.61v1.2h2.61Z"/>
        <path class="cls-31" d="m90.79,185.46c.22.21.34.51.34.82,0,.31-.12.61-.34.82-.48.43-1.21.43-1.69,0-.45-.45-.45-1.19,0-1.64.48-.43,1.21-.43,1.69,0h0Zm-1.39.29c-.15.14-.23.33-.23.53,0,.2.08.4.23.54.14.14.34.22.54.21.41,0,.75-.33.75-.74,0-.2-.07-.38-.21-.52-.15-.14-.34-.22-.54-.21-.19-.01-.38.04-.53.16v.03Z"/>
        <path class="cls-31" d="m15.35,204.56v.98h-4.3v2.22h4.05v.98h-4.05v2.42h4.48v1.05h-5.64v-7.57l5.46-.09Z"/>
        <path class="cls-31" d="m18.07,204.56l2.66,6.08h0l2.64-6.08h1.45v7.57h-1.26v-5.42h0l-2.33,5.42h-1l-2.33-5.42h0v5.51h-1.16v-7.57l1.34-.09Z"/>
        <path class="cls-31" d="m30.42,207.17c.36.43.54.98.5,1.54v3.51h-1.06v-.78c-.21.28-.48.51-.79.67-.4.18-.83.27-1.26.26-.49.03-.96-.13-1.34-.44-.34-.26-.53-.68-.52-1.11-.03-.57.25-1.12.73-1.43.57-.35,1.23-.53,1.89-.5h1.26v-.23c0-.77-.42-1.15-1.26-1.15-.29-.01-.59.05-.85.19-.26.14-.43.39-.48.68l-1.12-.1c.1-.53.42-.98.88-1.26.5-.28,1.07-.41,1.64-.38.64-.07,1.27.12,1.77.53Zm-1.82,2.52c-1.03,0-1.54.38-1.54,1.06,0,.21.09.41.26.53.2.15.44.23.69.21.46.02.91-.14,1.26-.44.33-.26.52-.65.52-1.07v-.33l-1.2.04Z"/>
        <path class="cls-31" d="m33.57,204.65c.14.14.22.34.21.54,0,.21-.08.41-.23.56-.15.14-.35.22-.56.21-.21,0-.41-.07-.56-.21-.15-.15-.23-.35-.23-.56,0-.21.07-.4.23-.54.15-.15.35-.22.56-.21.21-.01.42.07.57.21Zm0,1.99v5.58h-1.19v-5.5l1.19-.08Z"/>
        <path class="cls-31" d="m36.35,204.41v7.81h-1.14v-7.75l1.14-.06Z"/>
        <rect class="cls-16" x="9.96" y="221.33" width="246.64" height="29.66" rx="5.41" ry="5.41"/>
        <rect class="cls-40" x="9.72" y="257.68" width="246.88" height="66.37" rx="5.37" ry="5.37"/>
        <path class="cls-31" d="m128.98,300.71v1.5h3.37v6.09h-.98v-.56h-2.38v2.69h-1.02v-2.69h-2.42v.63h-1v-6.17h3.42v-1.5h1.02Zm-1.02,3.78v-1.35h-2.42v1.35h2.42Zm0,2.28v-1.38h-2.42v1.43l2.42-.05Zm3.41-2.28v-1.35h-2.38v1.35h2.38Zm0,2.28v-1.38h-2.38v1.43l2.38-.05Z"/>
        <path class="cls-31" d="m135.63,301.95c-.15-.35-.32-.71-.49-1.05l.96-.26c.21.49.38.92.5,1.26h1.12v.92h-3.49v-.92l1.4.05Zm1.87,7.9h-2.04v.49h-.88v-3.72h2.98l-.05,3.23Zm-.11-6.31v.86h-2.81v-.86h2.81Zm0,1.48v.86h-2.81v-.86h2.81Zm-.81,3.95v-1.53h-1.12v1.53h1.12Zm1.83,1.53l-.73-.66c.59-.61.91-1.42.91-2.27v-2.28h4.72v4.23c0,.62-.37.92-1.07.92h-1.17l-.23-.87h1.11c.26,0,.39-.15.39-.43v-.37h-2.98c-.18.66-.52,1.26-1,1.74h.05Zm3.01-9.84v.62h2.3v.82h-2.3v.53h1.98v.79h-1.94v.56h2.59v.85h-6.22v-.85h2.62v-.56h-1.96v-.79h1.96v-.53h-2.33v-.82h2.33v-.62h.97Zm-1.89,6.85c.01.18.01.35,0,.53h2.84v-.58h-2.8l-.04.05Zm2.8-1.41h-2.8v.59h2.8v-.59Z"/>
        <circle class="cls-37" cx="133.76" cy="281.89" r="12.02" transform="translate(-27.13 14.55) rotate(-5.65)"/>
        <path class="cls-11" d="m126.8,289.46c.13-.39.25-.79.39-1.26.34-1.03.68-2.07,1.03-3.1v-.11l2.94,2.95-1.26.4-3.03,1.01h-.11l.04.11Z"/>
        <path class="cls-11" d="m136.41,276.65l3.2,3.18-7.8,7.8-3.18-3.18,7.77-7.8Z"/>
        <path class="cls-11" d="m140.08,279.4l-3.24-3.24c.25-.26.51-.51.79-.73.53-.37,1.25-.31,1.73.13.45.43.88.86,1.26,1.26.51.56.51,1.42,0,1.98l-.54.61Z"/>
        <rect class="cls-40" x="9.72" y="329.72" width="246.88" height="66.37" rx="5.37" ry="5.37"/>
        <path class="cls-31" d="m109.96,375.02v-.71h-1.9l-.3-.88c1.61.03,3.22-.12,4.79-.45l.47.81c-.68.19-1.38.32-2.08.39v.78h2.28v.93h-2.28v3.46h2.01v.9h-2.01v1.01l2.17-.19v.9c-1.54.17-3.29.31-5.26.42l-.11-.93,2.23-.13v-1.03h-2.02v-.9h2.02v-3.43h-2.3v-.93h2.3Zm-.81,1.26v1h.56v.79h-.56v.97h-.77v-.97h-.69v-.79h.69v-1h.77Zm3.37,0v1h.68v.79h-.68v.97h-.76v-.97h-.58v-.79h.58v-1h.76Zm4.54-3v.74c-.3,1.11-.62,2.13-.96,3.09.59.73.97,1.6,1.11,2.52.05.47-.09.95-.38,1.32-.46.31-1.01.44-1.56.38l-.3-1.01c.3.02.61.02.91,0,.18,0,.28,0,.33-.16.07-.19.09-.39.08-.59-.15-.94-.56-1.81-1.19-2.52.36-.95.67-1.93.92-2.91h-1.41v8.55h-.98v-9.39l3.44-.03Z"/>
        <path class="cls-31" d="m122.77,375.31h0v-.45h.93v.52h2.52v.83h-2.81l-.08.13c1.04.21,2.08.49,3.09.82l-.5.74h1.92v.83h-1.68v3.03c0,.64-.35.97-1.05.97h-1.08l-.2-.92h-3.9v-2.52h4.04v2.52c.28.02.56.02.85,0,.26,0,.4-.1.4-.32v-2.76h-6.82v-.92h1.49l-.48-.76c.91-.08,1.8-.32,2.64-.69.11-.07.21-.15.3-.24h-2.36v-.86l2.79.05Zm4.77.53h-.95v-1.26h-6.94v1.26h-.95v-2.16h3.9c-.13-.24-.25-.47-.39-.68l1.07-.16c.13.28.25.56.35.85h3.9v2.16Zm-4.79,1.12c-.82.48-1.72.78-2.66.9h5.74c-.99-.38-2.01-.69-3.04-.92l-.04.03Zm.29,3.19h-2.18v.85h2.18v-.85Z"/>
        <path class="cls-31" d="m132.62,381.04h-2.37v.79h-1.01v-8.35h3.38v7.56Zm-.98-4.35v-2.22h-1.39v2.22h1.39Zm0,3.36v-2.37h-1.39v2.32l1.39.05Zm1.6,2.83l-.79-.74c.8-1.1,1.2-2.43,1.16-3.78v-5.15h4.55v8.35c.07.53-.31,1.02-.84,1.09-.09.01-.18.01-.27,0h-1.36l-.28-.98h1.26c.26,0,.4-.16.4-.5v-1.89h-2.52c-.06,1.3-.49,2.56-1.25,3.62h-.06Zm3.89-8.65h-2.52v1.61h2.52v-1.61Zm-2.52,4.18h2.52v-1.61h-2.52v1.61Z"/>
        <path class="cls-31" d="m143.4,379.12l-.79.34c0-.19-.1-.35-.14-.5-.82.26-1.67.43-2.52.53l-.25-.83c.16-.05.3-.14.42-.26.46-.54.86-1.14,1.19-1.77l-1.49.23-.21-.85c.16-.07.29-.19.38-.34.45-.88.82-1.79,1.12-2.72l.91.35c-.33.92-.76,1.81-1.26,2.65.36-.05.73-.12,1.08-.2l.57-1.16.87.33c-.63,1.29-1.38,2.51-2.23,3.66.43-.09.87-.19,1.26-.32-.09-.3-.2-.6-.33-.9l.73-.29c.28.67.52,1.36.71,2.06Zm-2.66.97c-.04.85-.13,1.69-.28,2.52l-.88-.28c.19-.78.3-1.57.34-2.37l.82.13Zm1.26,2.11l-.86.11c0-1,0-1.77-.11-2.3l.76-.1c.13.75.21,1.52.23,2.28h-.01Zm1.26-.83l-.76.32c-.14-.69-.28-1.26-.43-1.83l.69-.28c.21.59.39,1.18.53,1.79h-.04Zm1.16.73v.61h-.91v-8.96h5.44v8.97h-.93v-.62h-3.6Zm0-7.43v2.72h1.26v-2.72h-1.26Zm0,3.65v2.94h1.26v-2.88l-1.26-.06Zm3.6-.92v-2.72h-1.36v2.72h1.36Zm0,3.78v-2.88h-1.36v2.95l1.36-.08Z"/>
        <path class="cls-31" d="m154.54,373.8v-.82h1.02v.82h3.78v.93h-3.78v.78h3.14v.93h-3.14v.79h4v.93h-4.81c-.39.51-.83.98-1.34,1.38v2.03c.73-.24,1.46-.5,2.21-.81l.19.92c-1.07.44-2.18.81-3.31,1.1l-.33-.86c.15-.07.24-.22.24-.38v-1.34c-.56.32-1.13.61-1.73.86l-.54-.88c1.32-.38,2.53-1.07,3.53-2.02h-3.12v-.93h4v-.79h-3.14v-.93h3.14v-.78h-3.78v-.93h3.76Zm4.67,5.42c-.52.53-1.13.95-1.8,1.26.72.66,1.59,1.15,2.52,1.44l-.61.87c-1.83-.62-3.3-2-4.04-3.78l.77-.44c.18.45.42.88.72,1.26.64-.31,1.21-.73,1.69-1.26l.74.66Z"/>
        <circle class="cls-37" cx="132.6" cy="353.68" r="12.02"/>
        <path class="cls-11" d="m125.48,358.55v-6.72h0l5.93,3.96c.78.59,1.87.59,2.65,0l5.31-3.53.68-.45v6.75c-.11.71-.75,1.2-1.46,1.14h-11.73c-.38.01-.75-.13-1.02-.39-.19-.21-.31-.47-.35-.74Z"/>
        <path class="cls-11" d="m140.12,349.88v.38c-.08.37-.29.7-.61.91l-5.92,3.95c-.47.35-1.12.35-1.59,0l-5.92-3.94c-.31-.19-.52-.5-.58-.86h0v-.62c.2-.58.76-.95,1.37-.92h11.9c.57,0,1.08.38,1.26.92.03.06.05.12.08.18Z"/>
        <rect class="cls-21" x="9.32" y="329.72" width="246.88" height="66.37" rx="5.37" ry="5.37"/>
        <text class="cls-13" transform="translate(17.65 241.03)"><tspan class="cls-29" x="0" y="0">如</tspan><tspan class="cls-28" x="9.21" y="0">ｓ</tspan><tspan class="cls-48" x="16.85" y="0">ｏ</tspan><tspan class="cls-49" x="27.06" y="0">ｍ</tspan><tspan class="cls-44" x="37.26" y="0">ｅ</tspan><tspan class="cls-43" x="45.18" y="0">ｏ</tspan><tspan class="cls-55" x="53.37" y="0">ｎ</tspan><tspan class="cls-15" x="61.6" y="0">ｅ</tspan><tspan class="cls-47" x="71.01" y="0">＠</tspan><tspan class="cls-27" x="80.1" y="0">ｃ</tspan><tspan class="cls-42" x="87.74" y="0">ｏ</tspan><tspan class="cls-54" x="95.18" y="0">ｒ</tspan><tspan class="cls-46" x="102.95" y="0">ｐ</tspan><tspan class="cls-51" x="109.84" y="0">．</tspan><tspan class="cls-26" x="116.18" y="0">ｃ</tspan><tspan class="cls-48" x="123.82" y="0">ｏ</tspan><tspan class="cls-14" x="134.02" y="0">ｍ</tspan><tspan class="cls-52" x="143.03" y="0">．</tspan><tspan class="cls-53" x="149.29" y="0">ｔ</tspan><tspan x="158.81" y="0">ｗ</tspan></text>
      </g>
    </g>
  </g>
</svg>