<?xml version="1.0" encoding="UTF-8"?>
<svg id="_圖層_2" data-name="圖層 2" xmlns="http://www.w3.org/2000/svg" viewBox="0 0 320.3 151.66">
  <defs>
    <style>
      .cls-1 {
        fill: #fff;
      }
    </style>
  </defs>
  <g id="_圖層_2-2" data-name="圖層 2">
    <g>
      <g>
        <path class="cls-1" d="M18.82,150.99h-7.44v-28.04c-2.72,2.54-5.92,4.42-9.61,5.64v-6.75c1.94-.64,4.05-1.84,6.33-3.61,2.28-1.77,3.84-3.84,4.69-6.21h6.04v38.98Z"/>
        <path class="cls-1" d="M55.07,144.08v6.91h-26.08c.28-2.61,1.13-5.09,2.54-7.43,1.41-2.34,4.2-5.44,8.37-9.31,3.35-3.12,5.41-5.24,6.17-6.35,1.02-1.54,1.54-3.05,1.54-4.55,0-1.66-.45-2.93-1.34-3.83-.89-.89-2.12-1.34-3.69-1.34s-2.79.47-3.71,1.4c-.92.94-1.45,2.49-1.59,4.66l-7.41-.74c.44-4.09,1.83-7.03,4.16-8.82,2.33-1.78,5.24-2.67,8.74-2.67,3.83,0,6.84,1.03,9.03,3.1s3.28,4.63,3.28,7.71c0,1.75-.31,3.41-.94,4.99s-1.62,3.23-2.98,4.96c-.9,1.15-2.52,2.8-4.87,4.95-2.35,2.15-3.84,3.58-4.46,4.29s-1.13,1.39-1.52,2.07h14.78Z"/>
        <path class="cls-1" d="M63.12,126.31v-7.44h7.44v7.44h-7.44ZM63.12,146.99v-7.44h7.44v7.44h-7.44Z"/>
        <path class="cls-1" d="M90.74,112.02c3.76,0,6.7,1.34,8.82,4.03,2.52,3.18,3.79,8.45,3.79,15.81s-1.27,12.62-3.81,15.83c-2.1,2.65-5.03,3.97-8.79,3.97s-6.82-1.45-9.14-4.36c-2.31-2.9-3.47-8.08-3.47-15.53s1.27-12.57,3.81-15.78c2.1-2.65,5.03-3.97,8.79-3.97ZM90.74,118.19c-.9,0-1.7.29-2.41.86-.71.57-1.25,1.6-1.64,3.08-.51,1.92-.77,5.16-.77,9.72s.23,7.68.69,9.39c.46,1.7,1.04,2.84,1.73,3.4.7.57,1.5.85,2.4.85s1.7-.29,2.41-.86,1.25-1.6,1.64-3.08c.51-1.91.77-5.14.77-9.69s-.23-7.68-.69-9.39c-.46-1.7-1.04-2.84-1.73-3.42-.7-.57-1.5-.86-2.4-.86Z"/>
        <path class="cls-1" d="M120.9,112.02c3.76,0,6.7,1.34,8.82,4.03,2.52,3.18,3.79,8.45,3.79,15.81s-1.27,12.62-3.81,15.83c-2.1,2.65-5.03,3.97-8.79,3.97s-6.82-1.45-9.14-4.36c-2.31-2.9-3.47-8.08-3.47-15.53s1.27-12.57,3.81-15.78c2.1-2.65,5.03-3.97,8.79-3.97ZM120.9,118.19c-.9,0-1.7.29-2.41.86-.71.57-1.25,1.6-1.64,3.08-.51,1.92-.77,5.16-.77,9.72s.23,7.68.69,9.39c.46,1.7,1.04,2.84,1.73,3.4.7.57,1.5.85,2.4.85s1.7-.29,2.41-.86,1.25-1.6,1.64-3.08c.51-1.91.77-5.14.77-9.69s-.23-7.68-.69-9.39c-.46-1.7-1.04-2.84-1.73-3.42-.7-.57-1.5-.86-2.4-.86Z"/>
        <path class="cls-1" d="M202.73,150.99h-7.44v-28.04c-2.72,2.54-5.92,4.42-9.61,5.64v-6.75c1.94-.64,4.05-1.84,6.33-3.61,2.28-1.77,3.84-3.84,4.69-6.21h6.04v38.98Z"/>
        <path class="cls-1" d="M239.06,121.68l-7.2.79c-.18-1.48-.64-2.58-1.38-3.28-.74-.71-1.7-1.06-2.89-1.06-1.57,0-2.9.71-3.99,2.12-1.09,1.41-1.77,4.35-2.05,8.82,1.85-2.19,4.16-3.28,6.91-3.28,3.11,0,5.77,1.18,7.98,3.55,2.21,2.37,3.32,5.42,3.32,9.16,0,3.97-1.17,7.16-3.5,9.56-2.33,2.4-5.32,3.6-8.98,3.6-3.92,0-7.14-1.52-9.67-4.57-2.52-3.05-3.79-8.04-3.79-14.97s1.31-12.24,3.95-15.38c2.63-3.14,6.05-4.71,10.25-4.71,2.95,0,5.39.83,7.32,2.48s3.16,4.05,3.69,7.19ZM222.19,137.91c0,2.42.56,4.29,1.67,5.6,1.11,1.32,2.38,1.97,3.81,1.97s2.52-.54,3.44-1.62c.92-1.08,1.38-2.84,1.38-5.3s-.49-4.37-1.48-5.55c-.99-1.17-2.22-1.76-3.71-1.76s-2.64.56-3.63,1.68-1.48,2.78-1.48,4.96Z"/>
        <path class="cls-1" d="M247.03,126.31v-7.44h7.44v7.44h-7.44ZM247.03,146.99v-7.44h7.44v7.44h-7.44Z"/>
        <path class="cls-1" d="M261.8,140.69l7.2-.87c.23,1.84.85,3.24,1.85,4.21,1.01.97,2.22,1.46,3.65,1.46,1.54,0,2.83-.58,3.88-1.75,1.05-1.17,1.58-2.74,1.58-4.71,0-1.87-.5-3.35-1.51-4.45-1.01-1.09-2.23-1.64-3.68-1.64-.95,0-2.09.19-3.42.56l.82-6.06c2.01.05,3.55-.38,4.61-1.31s1.59-2.16,1.59-3.69c0-1.31-.39-2.35-1.17-3.12-.78-.78-1.81-1.17-3.1-1.17s-2.36.44-3.26,1.32c-.9.88-1.45,2.17-1.64,3.87l-6.86-1.17c.48-2.35,1.2-4.22,2.16-5.63.96-1.4,2.3-2.51,4.02-3.31,1.72-.8,3.65-1.21,5.79-1.21,3.65,0,6.58,1.17,8.79,3.5,1.82,1.91,2.73,4.06,2.73,6.46,0,3.41-1.86,6.13-5.59,8.16,2.22.48,4,1.54,5.34,3.2,1.33,1.66,2,3.66,2,6.01,0,3.41-1.24,6.31-3.73,8.71-2.49,2.4-5.59,3.6-9.29,3.6-3.51,0-6.43-1.01-8.74-3.03-2.31-2.02-3.65-4.66-4.02-7.93Z"/>
        <path class="cls-1" d="M304.8,112.02c3.76,0,6.7,1.34,8.82,4.03,2.52,3.18,3.79,8.45,3.79,15.81s-1.27,12.62-3.81,15.83c-2.1,2.65-5.03,3.97-8.79,3.97s-6.82-1.45-9.14-4.36c-2.31-2.9-3.47-8.08-3.47-15.53s1.27-12.57,3.81-15.78c2.1-2.65,5.03-3.97,8.79-3.97ZM304.8,118.19c-.9,0-1.7.29-2.41.86-.71.57-1.25,1.6-1.64,3.08-.51,1.92-.77,5.16-.77,9.72s.23,7.68.69,9.39c.46,1.7,1.04,2.84,1.73,3.4.7.57,1.5.85,2.4.85s1.7-.29,2.41-.86,1.25-1.6,1.64-3.08c.51-1.91.77-5.14.77-9.69s-.23-7.68-.69-9.39c-.46-1.7-1.04-2.84-1.73-3.42-.7-.57-1.5-.86-2.4-.86Z"/>
      </g>
      <polygon class="cls-1" points="173.06 133.07 153.45 121.75 153.45 144.39 173.06 133.07"/>
    </g>
    <g>
      <g>
        <path class="cls-1" d="M76.52,0c8.21,0,14.62,2.93,19.24,8.78,5.51,6.93,8.26,18.44,8.26,34.5s-2.77,27.55-8.32,34.56c-4.58,5.78-10.98,8.67-19.19,8.67s-14.89-3.17-19.94-9.51c-5.05-6.34-7.57-17.63-7.57-33.89s2.77-27.43,8.32-34.44C61.91,2.89,68.31,0,76.52,0ZM76.52,13.47c-1.96,0-3.72.63-5.26,1.88-1.54,1.25-2.74,3.5-3.58,6.73-1.12,4.2-1.68,11.27-1.68,21.21s.5,16.77,1.5,20.49c1,3.72,2.26,6.19,3.79,7.43,1.52,1.23,3.27,1.85,5.23,1.85s3.72-.62,5.26-1.88c1.54-1.25,2.74-3.5,3.58-6.73,1.12-4.16,1.68-11.21,1.68-21.15s-.5-16.77-1.5-20.49c-1-3.72-2.26-6.2-3.79-7.46-1.52-1.25-3.27-1.88-5.23-1.88Z"/>
        <path class="cls-1" d="M114.89,16.59V1.5h55.54v11.79c-4.59,4.51-9.25,10.98-13.99,19.42-4.74,8.44-8.35,17.41-10.84,26.9-2.48,9.5-3.71,17.98-3.67,25.46h-15.66c.27-11.71,2.69-23.66,7.25-35.83,4.57-12.17,10.66-23.06,18.29-32.65h-36.93Z"/>
      </g>
      <g>
        <path class="cls-1" d="M22.78,66.27h4.91v18.53c-1.86-.2-3.61-.8-5.28-1.81-1.66-1-3.87-2.98-6.61-5.94-2.22-2.38-3.72-3.84-4.51-4.38-1.09-.73-2.17-1.09-3.24-1.09-1.18,0-2.08.32-2.72.95-.63.63-.95,1.51-.95,2.62s.33,1.98,1,2.63,1.77,1.03,3.31,1.13l-.53,5.27c-2.91-.31-5-1.3-6.26-2.95s-1.9-3.72-1.9-6.21c0-2.72.73-4.86,2.2-6.41s3.29-2.33,5.47-2.33c1.24,0,2.42.22,3.55.67,1.12.45,2.3,1.15,3.53,2.12.82.64,1.99,1.79,3.52,3.46,1.53,1.67,2.55,2.72,3.05,3.17.5.45.99.81,1.47,1.08v-10.5Z"/>
        <path class="cls-1" d="M0,53.77c0-2.67.95-4.76,2.86-6.26,2.26-1.79,6-2.69,11.23-2.69s8.97.9,11.25,2.71c1.88,1.49,2.82,3.57,2.82,6.25s-1.03,4.85-3.09,6.49c-2.06,1.64-5.74,2.46-11.03,2.46s-8.93-.9-11.21-2.71c-1.88-1.49-2.82-3.57-2.82-6.25ZM4.38,53.77c0,.64.2,1.21.61,1.71.41.5,1.14.89,2.19,1.17,1.37.36,3.67.54,6.9.54s5.46-.16,6.67-.49c1.21-.33,2.02-.74,2.42-1.23.4-.5.6-1.06.6-1.7s-.2-1.21-.61-1.71c-.41-.5-1.14-.89-2.19-1.17-1.35-.36-3.65-.55-6.88-.55s-5.46.16-6.67.49c-1.21.33-2.02.74-2.43,1.23-.41.5-.61,1.06-.61,1.7Z"/>
        <path class="cls-1" d="M22.78,23.42h4.91v18.53c-1.86-.2-3.61-.8-5.28-1.81-1.66-1-3.87-2.98-6.61-5.94-2.22-2.38-3.72-3.84-4.51-4.38-1.09-.73-2.17-1.09-3.24-1.09-1.18,0-2.08.32-2.72.95-.63.63-.95,1.51-.95,2.62s.33,1.98,1,2.63,1.77,1.03,3.31,1.13l-.53,5.27c-2.91-.31-5-1.3-6.26-2.95s-1.9-3.72-1.9-6.21c0-2.72.73-4.86,2.2-6.41s3.29-2.33,5.47-2.33c1.24,0,2.42.22,3.55.67,1.12.45,2.3,1.15,3.53,2.12.82.64,1.99,1.79,3.52,3.46,1.53,1.67,2.55,2.72,3.05,3.17.5.45.99.81,1.47,1.08v-10.5Z"/>
        <path class="cls-1" d="M20.6,19.77l-.55-5.27c1.19-.15,2.14-.6,2.83-1.34.7-.74,1.04-1.59,1.04-2.56,0-1.1-.45-2.04-1.34-2.8-.9-.77-2.25-1.15-4.05-1.15-1.69,0-2.96.38-3.81,1.14-.85.76-1.27,1.75-1.27,2.96,0,1.52.67,2.88,2.01,4.08l-.62,4.29L.49,16.43V2.45h4.95v9.97l4.68.83c-.59-1.18-.88-2.38-.88-3.61,0-2.34.85-4.33,2.56-5.96,1.71-1.63,3.92-2.45,6.64-2.45,2.27,0,4.3.66,6.08,1.97,2.43,1.79,3.65,4.28,3.65,7.47,0,2.55-.68,4.62-2.05,6.23-1.37,1.61-3.2,2.56-5.51,2.88Z"/>
      </g>
      <g>
        <path class="cls-1" d="M241.07,85.07h-16.24V23.87c-5.93,5.55-12.93,9.65-20.98,12.31v-14.74c4.24-1.39,8.84-4.02,13.81-7.89,4.97-3.87,8.38-8.39,10.23-13.55h13.18v85.07Z"/>
        <path class="cls-1" d="M292.8,0c8.21,0,14.62,2.93,19.24,8.78,5.51,6.93,8.26,18.44,8.26,34.5s-2.77,27.55-8.32,34.56c-4.58,5.78-10.98,8.67-19.19,8.67s-14.89-3.17-19.94-9.51c-5.05-6.34-7.57-17.63-7.57-33.89s2.77-27.43,8.32-34.44c4.58-5.78,10.98-8.67,19.19-8.67ZM292.8,13.47c-1.96,0-3.72.63-5.26,1.88-1.54,1.25-2.74,3.5-3.58,6.73-1.12,4.2-1.68,11.27-1.68,21.21s.5,16.77,1.5,20.49c1,3.72,2.26,6.19,3.79,7.43,1.52,1.23,3.27,1.85,5.23,1.85s3.72-.62,5.26-1.88c1.54-1.25,2.74-3.5,3.58-6.73,1.12-4.16,1.68-11.21,1.68-21.15s-.5-16.77-1.5-20.49c-1-3.72-2.26-6.2-3.79-7.46-1.52-1.25-3.27-1.88-5.23-1.88Z"/>
      </g>
      <circle class="cls-1" cx="182.61" cy="76.67" r="8.86"/>
    </g>
  </g>
</svg>