<?xml version="1.0" encoding="UTF-8"?>
<svg width="16px" height="16px" viewBox="0 0 16 16" version="1.1" xmlns="http://www.w3.org/2000/svg" xmlns:xlink="http://www.w3.org/1999/xlink">
    <!-- Generator: Sketch 61.2 (89653) - https://sketch.com -->
    <title>icon_shopping cart</title>
    <desc>Created with Sketch.</desc>
    <g id="city-page-icons" stroke="none" stroke-width="1" fill="none" fill-rule="evenodd">
        <g id="city-page" transform="translate(-32.000000, -29.000000)" fill="#666666" fill-rule="nonzero">
            <g id="icon_shopping-cart" transform="translate(32.000000, 29.000000)">
                <path d="M15.8671875,4.4296875 C15.7682292,4.2890625 15.6354167,4.21875 15.46875,4.21875 L4.859375,4.21875 L4.046875,1.453125 C3.97395833,1.203125 3.875,0.989583333 3.75,0.8125 C3.625,0.635416667 3.4921875,0.510416667 3.3515625,0.4375 C3.2109375,0.364583333 3.08854167,0.315104167 2.984375,0.2890625 C2.88020833,0.263020833 2.77604167,0.25 2.671875,0.25 L0.53125,0.25 C0.395833333,0.25 0.28125,0.296875 0.1875,0.390625 C0.09375,0.484375 0.046875,0.604166667 0.046875,0.75 C0.046875,0.833333333 0.0677083333,0.9140625 0.109375,0.9921875 C0.151041667,1.0703125 0.2109375,1.13020833 0.2890625,1.171875 C0.3671875,1.21354167 0.447916667,1.234375 0.53125,1.234375 L2.671875,1.234375 C2.71354167,1.234375 2.75260417,1.23958333 2.7890625,1.25 C2.82552083,1.26041667 2.875,1.3046875 2.9375,1.3828125 C3,1.4609375 3.05208333,1.578125 3.09375,1.734375 L5.859375,11.890625 C5.88020833,11.953125 5.9140625,12.0130208 5.9609375,12.0703125 C6.0078125,12.1276042 6.0625,12.171875 6.125,12.203125 C6.1875,12.234375 6.25520833,12.25 6.328125,12.25 L13.078125,12.25 C13.1822917,12.25 13.2786458,12.21875 13.3671875,12.15625 C13.4557292,12.09375 13.515625,12.015625 13.546875,11.921875 L15.9375,4.890625 C15.9895833,4.72395833 15.9661458,4.5703125 15.8671875,4.4296875 Z M12.734375,11.25 L6.71875,11.25 L5.125,5.21875 L14.75,5.21875 L12.734375,11.25 Z M11.75,13.25 C11.40625,13.25 11.1119792,13.3723958 10.8671875,13.6171875 C10.6223958,13.8619792 10.5,14.15625 10.5,14.5 C10.5,14.84375 10.6223958,15.1380208 10.8671875,15.3828125 C11.1119792,15.6276042 11.40625,15.75 11.75,15.75 C12.09375,15.75 12.3880208,15.6276042 12.6328125,15.3828125 C12.8776042,15.1380208 13,14.84375 13,14.5 C13,14.15625 12.8776042,13.8619792 12.6328125,13.6171875 C12.3880208,13.3723958 12.09375,13.25 11.75,13.25 Z M7.25,13.25 C7.02083333,13.25 6.80989583,13.3072917 6.6171875,13.421875 C6.42447917,13.5364583 6.2734375,13.6875 6.1640625,13.875 C6.0546875,14.0625 6,14.2708333 6,14.5 C6,14.84375 6.12239583,15.1380208 6.3671875,15.3828125 C6.61197917,15.6276042 6.90625,15.75 7.25,15.75 C7.59375,15.75 7.88802083,15.6276042 8.1328125,15.3828125 C8.37760417,15.1380208 8.5,14.84375 8.5,14.5 C8.5,14.4166667 8.4921875,14.3333333 8.4765625,14.25 C8.4609375,14.1666667 8.4375,14.0885417 8.40625,14.015625 C8.375,13.9427083 8.3359375,13.8723958 8.2890625,13.8046875 C8.2421875,13.7369792 8.19010417,13.6744792 8.1328125,13.6171875 C8.07552083,13.5598958 8.01302083,13.5078125 7.9453125,13.4609375 C7.87760417,13.4140625 7.80729167,13.375 7.734375,13.34375 C7.66145833,13.3125 7.58333333,13.2890625 7.5,13.2734375 C7.41666667,13.2578125 7.33333333,13.25 7.25,13.25 Z"></path>
            </g>
        </g>
    </g>
</svg>