<?xml version="1.0" encoding="UTF-8"?>
<svg width="16px" height="16px" viewBox="0 0 16 16" version="1.1" xmlns="http://www.w3.org/2000/svg" xmlns:xlink="http://www.w3.org/1999/xlink">
    <!-- Generator: Sketch 61.2 (89653) - https://sketch.com -->
    <title>icon_statistics</title>
    <desc>Created with Sketch.</desc>
    <g id="city-page-icons" stroke="none" stroke-width="1" fill="none" fill-rule="evenodd">
        <g id="city-page" transform="translate(-64.000000, -29.000000)" fill="#666666" fill-rule="nonzero">
            <g id="icon_statistics" transform="translate(64.000000, 29.000000)">
                <g>
                    <path d="M14.75,3.5 C14.40625,3.5 14.1119792,3.62239583 13.8671875,3.8671875 C13.6223958,4.11197917 13.5,4.40625 13.5,4.75 C13.5,4.875 13.5260417,5.01041667 13.578125,5.15625 L10.53125,7.78125 C10.2916667,7.59375 10.03125,7.5 9.75,7.5 C9.41666667,7.5 9.125,7.61979167 8.875,7.859375 L6.484375,6.65625 C6.46354167,6.33333333 6.3359375,6.05989583 6.1015625,5.8359375 C5.8671875,5.61197917 5.58333333,5.5 5.25,5.5 C5.02083333,5.5 4.80989583,5.5546875 4.6171875,5.6640625 C4.42447917,5.7734375 4.2734375,5.92447917 4.1640625,6.1171875 C4.0546875,6.30989583 4,6.52083333 4,6.75 C4,6.92708333 4.04166667,7.10416667 4.125,7.28125 L1.6875,10.078125 C1.54166667,10.0260417 1.39583333,10 1.25,10 C0.90625,10 0.611979167,10.1223958 0.3671875,10.3671875 C0.122395833,10.6119792 0,10.90625 0,11.25 C0,11.59375 0.122395833,11.8880208 0.3671875,12.1328125 C0.611979167,12.3776042 0.90625,12.5 1.25,12.5 C1.59375,12.5 1.88802083,12.3776042 2.1328125,12.1328125 C2.37760417,11.8880208 2.5,11.59375 2.5,11.25 C2.5,11.09375 2.46875,10.9375 2.40625,10.78125 L4.875,7.9375 C5.01041667,7.97916667 5.13541667,8 5.25,8 C5.42708333,8 5.59375,7.96354167 5.75,7.890625 C5.90625,7.81770833 6.046875,7.71875 6.171875,7.59375 L8.5,8.765625 C8.5,8.93229167 8.53385417,9.09114583 8.6015625,9.2421875 C8.66927083,9.39322917 8.7578125,9.5234375 8.8671875,9.6328125 C8.9765625,9.7421875 9.109375,9.83072917 9.265625,9.8984375 C9.421875,9.96614583 9.58333333,10 9.75,10 C9.84375,10 9.9375,9.98958333 10.03125,9.96875 C10.125,9.94791667 10.2135417,9.91666667 10.296875,9.875 C10.3802083,9.83333333 10.4583333,9.78385417 10.53125,9.7265625 C10.6041667,9.66927083 10.6692708,9.60416667 10.7265625,9.53125 C10.7838542,9.45833333 10.8333333,9.38020833 10.875,9.296875 C10.9166667,9.21354167 10.9479167,9.125 10.96875,9.03125 C10.9895833,8.9375 11,8.84375 11,8.75 L11,8.6875 L14.25,5.890625 C14.40625,5.96354167 14.5729167,6 14.75,6 C15.09375,6 15.3880208,5.87760417 15.6328125,5.6328125 C15.8776042,5.38802083 16,5.09375 16,4.75 C16,4.40625 15.8776042,4.11197917 15.6328125,3.8671875 C15.3880208,3.62239583 15.09375,3.5 14.75,3.5 Z"></path>
                </g>
            </g>
        </g>
    </g>
</svg>